<svg width="34" height="49" xmlns="http://www.w3.org/2000/svg"><g fill="none"><circle fill="#12577E" cx="24.88" cy="40.15" r="8.359"/><path d="M25.077 16.916h1.054c1.974-.132 3.883-.922 5.331-2.436a8.343 8.343 0 000-11.847 8.343 8.343 0 00-11.848 0c-1.974 1.974-2.698 4.607-2.37 7.108-.92 5.134-5.725 5.858-7.832 5.924-2.37-.197-4.739.658-6.516 2.436a8.343 8.343 0 000 11.847 8.343 8.343 0 0011.848 0c1.514-1.514 2.303-3.422 2.435-5.397v-.46c.198-6.254 5.595-7.11 7.898-7.175z" fill="#45B6EE"/></g></svg>