<?xml version="1.0" encoding="UTF-8" standalone="no"?>
<svg
   xmlns:dc="http://purl.org/dc/elements/1.1/"
   xmlns:cc="http://creativecommons.org/ns#"
   xmlns:rdf="http://www.w3.org/1999/02/22-rdf-syntax-ns#"
   xmlns:svg="http://www.w3.org/2000/svg"
   xmlns="http://www.w3.org/2000/svg"
   xmlns:sodipodi="http://sodipodi.sourceforge.net/DTD/sodipodi-0.dtd"
   xmlns:inkscape="http://www.inkscape.org/namespaces/inkscape"
   viewBox="0 0 24 24"
   version="1.1"
   id="svg75"
   sodipodi:docname="tech-insights.svg"
   inkscape:version="0.92.5 (2060ec1f9f, 2020-04-08)">
  <metadata
     id="metadata81">
    <rdf:RDF>
      <cc:Work
         rdf:about="">
        <dc:format>image/svg+xml</dc:format>
        <dc:type
           rdf:resource="http://purl.org/dc/dcmitype/StillImage" />
        <dc:title></dc:title>
      </cc:Work>
    </rdf:RDF>
  </metadata>
  <defs
     id="defs79" />
  <sodipodi:namedview
     pagecolor="#ffffff"
     bordercolor="#666666"
     borderopacity="1"
     objecttolerance="10"
     gridtolerance="10"
     guidetolerance="10"
     inkscape:pageopacity="0"
     inkscape:pageshadow="2"
     inkscape:window-width="1920"
     inkscape:window-height="1053"
     id="namedview77"
     showgrid="false"
     inkscape:zoom="24.807663"
     inkscape:cx="-1.0067731"
     inkscape:cy="8.9466432"
     inkscape:window-x="1920"
     inkscape:window-y="0"
     inkscape:window-maximized="1"
     inkscape:current-layer="g73" />
  <g
     inkscape:groupmode="layer"
     id="layer1"
     inkscape:label="Layer 1"
     sodipodi:insensitive="true">
    <ellipse
       id="path84"
       cx="11.95969"
       cy="12.125822"
       rx="12.080765"
       ry="12.084815"
       style="fill:#ea580c;fill-opacity:1;stroke-width:0.82640159" />
  </g>
  <g
     id="g73">
    <path
       d="M 0,0 H 24 V 24 H 0 Z"
       id="path69"
       inkscape:connector-curvature="0"
       style="fill:none" />
    <path
       d="m 9.973,18 h 4.054 c 0.132,-1.202 0.745,-2.194 1.74,-3.277 0.113,-0.122 0.832,-0.867 0.917,-0.973 A 6,6 0 1 0 7.314,13.748 C 7.4,13.855 8.121,14.601 8.232,14.722 9.228,15.806 9.841,16.798 9.973,18 Z M 14,20 h -4 v 1 h 4 z M 5.754,15 a 8,8 0 1 1 12.49,0.002 C 17.624,15.774 16,17 16,18.5 V 21 a 2,2 0 0 1 -2,2 H 10 A 2,2 0 0 1 8,21 V 18.5 C 8,17 6.375,15.774 5.754,15 Z M 13,10.004 h 2.5 l -4.5,6 v -4 H 8.5 L 13,6 v 4.005 z"
       id="path71"
       inkscape:connector-curvature="0"
       style="fill:#ffffff" />
  </g>
</svg>
