<?xml version="1.0" encoding="UTF-8"?><svg id="Layer_1" xmlns="http://www.w3.org/2000/svg" xmlns:xlink="http://www.w3.org/1999/xlink" viewBox="0 0 495.19 497.59"><defs><style>.cls-1{fill:url(#linear-gradient);}.cls-2{clip-path:url(#clippath);}.cls-3{mask:url(#mask);}.cls-4{fill:#f2f2f2;}.cls-5,.cls-6{fill:#fff;}.cls-7,.cls-8{fill:#ee7320;}.cls-9{fill:#111827;}.cls-10{stroke:#111827;stroke-linecap:round;}.cls-10,.cls-8,.cls-11,.cls-12{stroke-miterlimit:10;}.cls-10,.cls-11,.cls-12{fill:none;}.cls-8{stroke:#ee7320;}.cls-13{fill:url(#linear-gradient-2);}.cls-11{stroke:#b3b3b3;}.cls-12{stroke:#ccc;}.cls-6{filter:url(#drop-shadow-1);}.cls-14{fill:url(#radial-gradient);}.cls-15{mask:url(#mask-2);}.cls-16{mask:url(#mask-1);}</style><filter id="drop-shadow-1" filterUnits="userSpaceOnUse"><feOffset dx="0" dy="0"/><feGaussianBlur result="blur" stdDeviation="5"/><feFlood flood-color="#000" flood-opacity=".25"/><feComposite in2="blur" operator="in"/><feComposite in="SourceGraphic"/></filter><mask id="mask" x="375.84" y="185.15" width="20.71" height="20.71" maskUnits="userSpaceOnUse"><g id="mask-for-MuiSvgIcon-root-7710301"><rect class="cls-5" x="375.84" y="185.15" width="20.71" height="20.71"/></g></mask><mask id="mask-1" x="401.73" y="185.15" width="20.71" height="20.71" maskUnits="userSpaceOnUse"><g id="mask-for-MuiSvgIcon-root-7710311"><rect class="cls-5" x="401.73" y="185.15" width="20.71" height="20.71"/></g></mask><mask id="mask-2" x="427.62" y="185.15" width="20.71" height="20.71" maskUnits="userSpaceOnUse"><g id="mask-for-MuiSvgIcon-root-7710321"><rect class="cls-5" x="427.62" y="185.15" width="20.71" height="20.71"/></g></mask><linearGradient id="linear-gradient" x1="120.01" y1="250.53" x2="337.24" y2="33.3" gradientTransform="matrix(1, 0, 0, 1, 0, 0)" gradientUnits="userSpaceOnUse"><stop offset="0" stop-color="#ee7320"/><stop offset="1" stop-color="#e9580c"/></linearGradient><clipPath id="clippath"><path class="cls-7" d="M38.93,145.56v-.37l4.11-2.37-1.06-.61-3.06,1.76v-.37l4.09-2.36-1.06-.61-3.03,1.75v-.37l4.13-2.38-4.13-2.38-4.11,2.38v4.75l4.11,2.38,4.13-2.38-1.05-.61-3.08,1.77Z"/></clipPath><radialGradient id="radial-gradient" cx="261.32" cy="236.67" fx="414.25" fy="373.75" r="268.01" gradientTransform="matrix(1, 0, 0, 1, 0, 0)" gradientUnits="userSpaceOnUse"><stop offset="0" stop-color="#00a58c"/><stop offset=".2" stop-color="#098d83"/><stop offset=".73" stop-color="#21556e"/><stop offset=".98" stop-color="#2b4066"/></radialGradient><linearGradient id="linear-gradient-2" x1="83.15" y1="371.5" x2="141.65" y2="371.5" xlink:href="#linear-gradient"/></defs><rect class="cls-4" x="13.15" y="76" width="467" height="377" rx="22.45" ry="22.45"/><rect class="cls-6" x="68.15" y="172.5" width="393" height="231.5" rx="7.06" ry="7.06"/><g><path class="cls-9" d="M86.77,200.21c-.64,0-1.28-.12-1.91-.36-.64-.24-1.2-.59-1.7-1.05l1.26-1.51c.35,.3,.74,.55,1.17,.74,.43,.19,.84,.29,1.25,.29,.46,0,.8-.09,1.03-.26s.34-.4,.34-.69c0-.31-.13-.54-.38-.68s-.6-.31-1.03-.49l-1.27-.54c-.33-.14-.65-.33-.94-.56-.3-.24-.55-.53-.73-.88-.19-.35-.29-.76-.29-1.23,0-.54,.15-1.03,.44-1.47,.29-.44,.71-.79,1.23-1.05s1.13-.39,1.81-.39c.56,0,1.12,.11,1.68,.33,.56,.22,1.05,.54,1.47,.96l-1.12,1.39c-.32-.25-.64-.44-.96-.58-.32-.13-.67-.2-1.06-.2s-.68,.08-.91,.23c-.22,.15-.34,.37-.34,.65,0,.3,.14,.53,.43,.67,.28,.15,.64,.31,1.06,.48l1.26,.51c.59,.24,1.06,.57,1.41,.99,.35,.42,.52,.98,.52,1.67,0,.54-.15,1.04-.44,1.5-.29,.46-.71,.83-1.26,1.11-.55,.28-1.21,.42-1.99,.42Z"/><path class="cls-9" d="M95.42,200.21c-.71,0-1.35-.15-1.92-.46-.57-.31-1.02-.75-1.35-1.33-.33-.58-.5-1.28-.5-2.1s.17-1.5,.5-2.08,.77-1.03,1.31-1.34,1.1-.47,1.69-.47c.71,0,1.3,.16,1.76,.47s.81,.74,1.05,1.27c.23,.54,.35,1.14,.35,1.82,0,.19,0,.38-.03,.56s-.04,.32-.06,.41h-4.46c.1,.54,.32,.94,.68,1.19,.35,.26,.77,.38,1.26,.38,.53,0,1.06-.17,1.6-.5l.73,1.33c-.38,.26-.8,.46-1.27,.62s-.92,.22-1.36,.22Zm-1.65-4.71h2.69c0-.41-.1-.75-.29-1.01-.19-.26-.51-.4-.95-.4-.34,0-.65,.12-.92,.35-.27,.24-.45,.59-.53,1.06Z"/><path class="cls-9" d="M102.73,200.21c-.92,0-1.58-.26-1.97-.79-.4-.53-.59-1.22-.59-2.08v-3.01h-1.02v-1.63l1.14-.09,.25-1.98h1.83v1.98h1.79v1.72h-1.79v2.98c0,.42,.09,.72,.26,.91,.17,.19,.41,.28,.7,.28,.12,0,.24-.02,.37-.04,.12-.03,.24-.06,.34-.11l.35,1.61c-.19,.06-.42,.12-.7,.18s-.59,.09-.95,.09Z"/><path class="cls-9" d="M111.14,200.21c-.81,0-1.4-.27-1.76-.8-.36-.53-.55-1.27-.55-2.2v-4.62h2.21v4.33c0,.53,.08,.9,.23,1.1s.38,.31,.71,.31c.28,0,.51-.06,.71-.2,.19-.13,.39-.34,.61-.63v-4.92h2.21v7.44h-1.8l-.16-1.04h-.05c-.31,.37-.65,.67-1.02,.88-.37,.22-.81,.33-1.32,.33Z"/><path class="cls-9" d="M117.58,202.79v-10.2h1.8l.15,.73h.06c.29-.26,.62-.48,.98-.65,.37-.17,.74-.26,1.13-.26,.9,0,1.61,.34,2.13,1.03,.52,.68,.78,1.6,.78,2.75,0,.85-.15,1.57-.45,2.17-.3,.6-.69,1.06-1.16,1.37-.48,.32-.98,.47-1.52,.47-.32,0-.63-.07-.93-.2-.3-.14-.58-.33-.84-.58l.08,1.18v2.17h-2.21Zm3.39-4.38c.38,0,.7-.17,.97-.52,.27-.35,.41-.91,.41-1.67,0-1.34-.43-2.01-1.29-2.01-.43,0-.85,.22-1.27,.68v3.04c.2,.18,.4,.3,.6,.38,.2,.07,.4,.1,.59,.1Z"/><path class="cls-9" d="M130.57,191.49c-.37,0-.67-.11-.9-.31-.23-.21-.34-.49-.34-.84s.11-.63,.34-.84c.23-.21,.53-.32,.9-.32s.67,.11,.9,.32c.23,.21,.34,.49,.34,.84s-.12,.63-.34,.84c-.23,.21-.53,.31-.9,.31Zm-1.09,8.54v-7.44h2.21v7.44h-2.21Z"/><path class="cls-9" d="M133.76,200.03v-7.44h1.8l.15,.94h.06c.32-.3,.67-.56,1.06-.79,.38-.22,.83-.34,1.33-.34,.81,0,1.4,.27,1.76,.8,.37,.54,.55,1.27,.55,2.2v4.62h-2.21v-4.33c0-.54-.07-.91-.22-1.11-.15-.2-.38-.3-.7-.3-.28,0-.52,.06-.72,.19-.2,.13-.42,.3-.66,.53v5.03h-2.21Z"/><path class="cls-9" d="M145.36,200.21c-.92,0-1.58-.26-1.97-.79-.4-.53-.59-1.22-.59-2.08v-3.01h-1.02v-1.63l1.14-.09,.25-1.98h1.83v1.98h1.79v1.72h-1.79v2.98c0,.42,.09,.72,.26,.91,.17,.19,.41,.28,.7,.28,.12,0,.24-.02,.37-.04,.12-.03,.24-.06,.34-.11l.35,1.61c-.19,.06-.42,.12-.7,.18s-.59,.09-.95,.09Z"/><path class="cls-9" d="M151.45,200.21c-.71,0-1.35-.15-1.92-.46-.57-.31-1.02-.75-1.35-1.33-.33-.58-.5-1.28-.5-2.1s.17-1.5,.5-2.08,.77-1.03,1.31-1.34,1.1-.47,1.69-.47c.71,0,1.3,.16,1.76,.47s.81,.74,1.05,1.27c.23,.54,.35,1.14,.35,1.82,0,.19,0,.38-.03,.56s-.04,.32-.06,.41h-4.46c.1,.54,.32,.94,.68,1.19,.35,.26,.77,.38,1.26,.38,.53,0,1.06-.17,1.6-.5l.73,1.33c-.38,.26-.8,.46-1.27,.62s-.92,.22-1.36,.22Zm-1.65-4.71h2.69c0-.41-.1-.75-.29-1.01-.19-.26-.51-.4-.95-.4-.34,0-.65,.12-.92,.35-.27,.24-.45,.59-.53,1.06Z"/><path class="cls-9" d="M158.54,203.19c-.58,0-1.1-.07-1.57-.19-.47-.13-.85-.34-1.12-.62-.28-.28-.42-.64-.42-1.08,0-.6,.35-1.1,1.07-1.5v-.06c-.19-.13-.35-.29-.49-.49-.13-.2-.2-.46-.2-.77,0-.27,.08-.53,.24-.78,.16-.25,.36-.45,.6-.61v-.06c-.26-.18-.49-.44-.7-.78s-.31-.73-.31-1.16c0-.6,.14-1.1,.43-1.49,.29-.39,.67-.69,1.14-.89,.47-.2,.97-.3,1.5-.3,.44,0,.83,.06,1.16,.18h2.71v1.6h-1.19c.07,.11,.13,.25,.17,.42,.04,.17,.07,.35,.07,.56,0,.57-.13,1.04-.39,1.41-.26,.37-.61,.65-1.05,.83s-.94,.27-1.48,.27c-.29,0-.59-.05-.9-.15-.18,.15-.27,.33-.27,.55,0,.19,.08,.33,.25,.42,.17,.09,.46,.13,.87,.13h1.2c.92,0,1.62,.15,2.11,.44,.48,.3,.73,.78,.73,1.45,0,.51-.17,.97-.51,1.37-.34,.41-.82,.72-1.44,.95-.62,.23-1.35,.34-2.21,.34Zm.35-1.38c.5,0,.91-.09,1.23-.27,.32-.18,.48-.4,.48-.65,0-.23-.1-.39-.29-.47-.2-.08-.48-.12-.85-.12h-.77c-.25,0-.46,0-.62-.02-.17-.01-.31-.04-.43-.07-.27,.24-.4,.48-.4,.73,0,.28,.15,.49,.46,.64,.3,.15,.7,.22,1.19,.22Zm-.18-5.47c.29,0,.53-.11,.73-.32s.29-.52,.29-.93-.1-.69-.29-.89c-.19-.2-.44-.31-.73-.31s-.53,.1-.73,.3c-.19,.2-.29,.5-.29,.9s.1,.72,.29,.93c.2,.21,.44,.32,.73,.32Z"/><path class="cls-9" d="M164.05,200.03v-7.44h1.8l.15,1.3h.06c.27-.5,.6-.87,.98-1.12,.38-.25,.76-.37,1.14-.37,.21,0,.38,.01,.52,.04,.14,.02,.26,.06,.36,.11l-.36,1.91c-.13-.04-.26-.07-.38-.09-.13-.02-.27-.03-.43-.03-.28,0-.57,.1-.88,.31-.31,.21-.56,.56-.76,1.06v4.32h-2.21Z"/><path class="cls-9" d="M171.62,200.21c-.68,0-1.22-.22-1.62-.65s-.6-.97-.6-1.6c0-.78,.33-1.39,.99-1.83,.66-.44,1.73-.73,3.19-.88-.02-.33-.12-.59-.29-.79s-.47-.29-.88-.29c-.31,0-.62,.06-.94,.18-.32,.12-.66,.29-1.02,.5l-.8-1.46c.47-.29,.97-.53,1.51-.71,.53-.18,1.09-.27,1.67-.27,.95,0,1.68,.28,2.19,.83,.51,.55,.77,1.39,.77,2.54v4.26h-1.8l-.15-.77h-.06c-.31,.28-.64,.51-1,.68-.36,.17-.74,.26-1.16,.26Zm.75-1.71c.25,0,.47-.06,.65-.17,.19-.11,.37-.27,.56-.46v-1.3c-.78,.1-1.32,.26-1.62,.47-.3,.21-.45,.47-.45,.76,0,.24,.08,.42,.23,.53,.15,.12,.36,.17,.62,.17Z"/><path class="cls-9" d="M180.4,200.21c-.92,0-1.58-.26-1.97-.79-.4-.53-.59-1.22-.59-2.08v-3.01h-1.02v-1.63l1.14-.09,.25-1.98h1.83v1.98h1.79v1.72h-1.79v2.98c0,.42,.09,.72,.26,.91,.17,.19,.41,.28,.7,.28,.12,0,.24-.02,.37-.04,.12-.03,.24-.06,.34-.11l.35,1.61c-.19,.06-.42,.12-.7,.18s-.59,.09-.95,.09Z"/><path class="cls-9" d="M184.52,191.49c-.37,0-.67-.11-.9-.31-.23-.21-.34-.49-.34-.84s.11-.63,.34-.84c.23-.21,.53-.32,.9-.32s.67,.11,.9,.32c.23,.21,.34,.49,.34,.84s-.12,.63-.34,.84c-.23,.21-.53,.31-.9,.31Zm-1.09,8.54v-7.44h2.21v7.44h-2.21Z"/><path class="cls-9" d="M190.91,200.21c-.63,0-1.22-.15-1.78-.46-.56-.3-1-.75-1.34-1.33s-.51-1.29-.51-2.11,.17-1.53,.51-2.11,.79-1.02,1.34-1.33c.55-.3,1.15-.46,1.78-.46s1.22,.15,1.77,.46,1,.75,1.33,1.33,.51,1.29,.51,2.11-.17,1.52-.51,2.11-.79,1.03-1.33,1.33-1.14,.46-1.77,.46Zm0-1.79c.45,0,.79-.19,1.02-.58,.23-.38,.35-.9,.35-1.54s-.12-1.16-.35-1.54c-.23-.38-.57-.57-1.02-.57s-.8,.19-1.03,.57c-.23,.38-.34,.9-.34,1.54s.11,1.15,.34,1.54c.23,.39,.57,.58,1.03,.58Z"/><path class="cls-9" d="M196.19,200.03v-7.44h1.8l.15,.94h.06c.32-.3,.67-.56,1.06-.79,.38-.22,.83-.34,1.33-.34,.81,0,1.4,.27,1.76,.8,.37,.54,.55,1.27,.55,2.2v4.62h-2.21v-4.33c0-.54-.07-.91-.22-1.11-.15-.2-.38-.3-.7-.3-.28,0-.52,.06-.72,.19-.2,.13-.42,.3-.66,.53v5.03h-2.21Z"/></g><line class="cls-10" x1="79.65" y1="216.5" x2="445.65" y2="216.5"/><g id="MuiBox-root-765634"><g id="MuiBox-root-765636"><g id="MuiButtonBase-root-769831"><g id="MuiIconButton-label-769723"><g class="cls-3"><g id="MuiSvgIcon-root-771030"><g transform="matrix(1 0 0 1 1378 132.844)"><path class="cls-9" d="M381.02,201.55c0,.95,.78,1.73,1.73,1.73h6.9c.95,0,1.73-.78,1.73-1.73v-10.36h-10.36v10.36Zm11.22-12.95h-3.02l-.86-.86h-4.32l-.86,.86h-3.02v1.73h12.08v-1.73Z"/></g></g></g></g></g><g id="MuiButtonBase-root-769832"><g id="MuiIconButton-label-769724"><g class="cls-16"><g id="MuiSvgIcon-root-771031"><g transform="matrix(1 0 0 1 1408 132.844)"><path class="cls-9" d="M421.32,201.55l-7.85-7.85c.78-1.98,.35-4.32-1.29-5.95-1.73-1.73-4.32-2.07-6.39-1.12l3.71,3.71-2.59,2.59-3.8-3.71c-1.04,2.07-.6,4.66,1.12,6.39,1.64,1.64,3.97,2.07,5.95,1.29l7.85,7.85c.35,.35,.86,.35,1.21,0l1.98-1.98c.43-.35,.43-.95,.09-1.21Z"/></g></g></g></g></g><g id="MuiButtonBase-root-769833"><g id="MuiIconButton-label-769725"><g class="cls-15"><g id="MuiSvgIcon-root-771032"><g transform="matrix(1 0 0 1 1438 132.844)"><path class="cls-9" d="M437.11,200.68c0,.95-.78,1.73-1.73,1.73s-1.73-.78-1.73-1.73,.78-1.73,1.73-1.73,1.73,.78,1.73,1.73Zm-1.73-6.9c-.95,0-1.73,.78-1.73,1.73s.78,1.73,1.73,1.73,1.73-.78,1.73-1.73-.78-1.73-1.73-1.73Zm0-5.18c-.95,0-1.73,.78-1.73,1.73s.78,1.73,1.73,1.73,1.73-.78,1.73-1.73-.78-1.73-1.73-1.73Zm5.18,3.45c.95,0,1.73-.78,1.73-1.73s-.78-1.73-1.73-1.73-1.73,.78-1.73,1.73,.78,1.73,1.73,1.73Zm0,1.73c-.95,0-1.73,.78-1.73,1.73s.78,1.73,1.73,1.73,1.73-.78,1.73-1.73-.78-1.73-1.73-1.73Zm0,5.18c-.95,0-1.73,.78-1.73,1.73s.78,1.73,1.73,1.73,1.73-.78,1.73-1.73-.78-1.73-1.73-1.73Z"/></g></g></g></g></g></g></g><g><rect class="cls-1" x="27.1" y="126.22" width="403.06" height="31.39"/><g><rect class="cls-9" x="27.6" y="126.72" width="22.11" height="263.93"/><path class="cls-9" d="M49.21,127.22V390.15H28.1V127.22h21.11m1-1H27.1V391.15h23.11V126.22h0Z"/></g><g><path class="cls-7" d="M38.93,145.56v-.37l4.11-2.37-1.06-.61-3.06,1.76v-.37l4.09-2.36-1.06-.61-3.03,1.75v-.37l4.13-2.38-4.13-2.38-4.11,2.38v4.75l4.11,2.38,4.13-2.38-1.05-.61-3.08,1.77Z"/><g class="cls-2"><rect class="cls-7" x="33.56" y="135.07" width="9.21" height="12.99" transform="translate(-103.87 105.16) rotate(-60.54)"/></g></g></g><path d="M407.52,23.18c-.02-.72,.56-1.32,1.28-1.34,.01,0,.03,0,.04,0,.74,0,1.43,.79,1.45,1.66,.01,.48-1.08,1.36-1.66,1.35-.66-.02-1.11-.7-1.11-1.67Z"/><g><path d="M83.15,243.18l2.44-7.22h1.03l2.44,7.22h-.98l-.68-2.2h-2.63l-.69,2.2h-.93Zm2.2-4.04l-.34,1.1h2.17l-.34-1.1c-.13-.4-.26-.8-.37-1.2-.12-.4-.23-.81-.35-1.23h-.04c-.11,.42-.22,.83-.34,1.23s-.24,.8-.37,1.2Z"/><path d="M91.61,243.31c-.56,0-.98-.18-1.24-.53-.26-.36-.4-.88-.4-1.56v-3.39h.91v3.27c0,.5,.08,.86,.24,1.09,.16,.23,.41,.34,.76,.34,.28,0,.53-.07,.74-.21,.22-.14,.45-.37,.7-.69v-3.79h.9v5.35h-.75l-.08-.84h-.03c-.25,.29-.51,.53-.79,.7-.28,.18-.6,.26-.97,.26Z"/><path d="M97.83,243.31c-.57,0-.97-.17-1.19-.5-.22-.33-.34-.76-.34-1.29v-2.96h-.79v-.68l.84-.05,.11-1.5h.76v1.5h1.44v.74h-1.44v2.97c0,.33,.06,.58,.18,.76s.34,.27,.64,.27c.1,0,.2-.02,.31-.05s.21-.06,.3-.09l.18,.68c-.15,.05-.31,.1-.48,.14-.17,.04-.34,.06-.51,.06Z"/><path d="M99.97,243.18v-7.83h.9v2.13l-.03,1.1c.26-.24,.53-.45,.81-.62,.28-.17,.61-.26,.97-.26,.56,0,.98,.18,1.24,.53s.39,.87,.39,1.56v3.39h-.9v-3.27c0-.5-.08-.86-.24-1.09-.16-.23-.42-.34-.77-.34-.27,0-.52,.07-.73,.21-.22,.14-.46,.34-.73,.62v3.87h-.9Z"/><path d="M108.14,243.31c-.43,0-.84-.11-1.22-.33-.38-.22-.68-.54-.91-.96s-.35-.92-.35-1.51,.12-1.11,.35-1.53,.54-.74,.91-.96c.38-.22,.78-.33,1.22-.33s.85,.11,1.22,.33c.37,.22,.68,.54,.91,.96s.35,.93,.35,1.53-.12,1.09-.35,1.51-.53,.74-.91,.96c-.37,.22-.78,.33-1.22,.33Zm0-.75c.46,0,.83-.19,1.12-.57,.28-.38,.42-.87,.42-1.48s-.14-1.11-.42-1.5c-.28-.38-.65-.57-1.12-.57s-.83,.19-1.11,.57c-.29,.38-.43,.88-.43,1.5s.14,1.1,.43,1.48c.29,.38,.66,.57,1.11,.57Z"/><path d="M112.14,243.18v-5.35h.75l.08,.97h.03c.18-.34,.41-.61,.67-.8,.26-.2,.55-.3,.85-.3,.21,0,.4,.04,.57,.11l-.18,.79c-.09-.03-.17-.05-.24-.07-.07-.01-.17-.02-.27-.02-.23,0-.46,.09-.71,.28-.25,.18-.46,.5-.64,.96v3.43h-.9Z"/><path d="M116.53,236.74c-.18,0-.32-.05-.43-.16-.11-.11-.17-.25-.17-.43s.06-.32,.17-.43c.11-.11,.26-.17,.43-.17s.32,.05,.43,.17c.11,.11,.17,.25,.17,.43s-.06,.33-.17,.43-.26,.16-.43,.16Zm-.46,6.45v-5.35h.9v5.35h-.9Z"/><path d="M118.32,243.18v-.48l2.82-4.12h-2.51v-.74h3.65v.48l-2.82,4.12h2.9v.74h-4.05Z"/><path d="M124.64,243.31c-.45,0-.82-.13-1.12-.4s-.45-.64-.45-1.12c0-.59,.26-1.04,.79-1.35s1.35-.53,2.49-.65c0-.23-.03-.44-.09-.65-.06-.21-.17-.37-.33-.5-.16-.13-.38-.19-.68-.19-.31,0-.6,.06-.87,.18s-.51,.25-.73,.4l-.35-.63c.25-.16,.56-.32,.92-.47,.36-.15,.76-.22,1.18-.22,.65,0,1.13,.2,1.42,.6,.29,.4,.44,.93,.44,1.6v3.28h-.75l-.08-.64h-.03c-.25,.21-.52,.38-.82,.54-.3,.15-.61,.23-.95,.23Zm.26-.73c.26,0,.5-.06,.73-.19,.23-.12,.47-.3,.73-.53v-1.49c-.89,.11-1.51,.28-1.86,.5-.36,.22-.53,.5-.53,.85,0,.3,.09,.52,.27,.65,.18,.14,.41,.2,.67,.2Z"/><path d="M130.6,243.31c-.57,0-.97-.17-1.19-.5-.22-.33-.34-.76-.34-1.29v-2.96h-.79v-.68l.84-.05,.11-1.5h.76v1.5h1.44v.74h-1.44v2.97c0,.33,.06,.58,.18,.76s.34,.27,.64,.27c.1,0,.2-.02,.31-.05s.21-.06,.3-.09l.18,.68c-.15,.05-.31,.1-.48,.14-.17,.04-.34,.06-.51,.06Z"/><path d="M134.67,243.31c-.43,0-.84-.11-1.22-.33-.38-.22-.68-.54-.91-.96s-.35-.92-.35-1.51,.12-1.11,.35-1.53,.54-.74,.91-.96c.38-.22,.78-.33,1.22-.33s.85,.11,1.22,.33c.37,.22,.68,.54,.91,.96s.35,.93,.35,1.53-.12,1.09-.35,1.51-.53,.74-.91,.96c-.37,.22-.78,.33-1.22,.33Zm0-.75c.46,0,.83-.19,1.12-.57,.28-.38,.42-.87,.42-1.48s-.14-1.11-.42-1.5c-.28-.38-.65-.57-1.12-.57s-.83,.19-1.11,.57c-.29,.38-.43,.88-.43,1.5s.14,1.1,.43,1.48c.29,.38,.66,.57,1.11,.57Z"/><path d="M138.66,243.18v-5.35h.75l.08,.77h.03c.26-.26,.53-.47,.81-.64,.29-.17,.61-.26,.98-.26,.56,0,.98,.18,1.24,.53s.39,.87,.39,1.56v3.39h-.9v-3.27c0-.5-.08-.86-.24-1.09-.16-.23-.42-.34-.77-.34-.27,0-.52,.07-.73,.21-.22,.14-.46,.34-.73,.62v3.87h-.9Z"/><path d="M148.78,243.31c-.57,0-.97-.17-1.19-.5-.22-.33-.34-.76-.34-1.29v-2.96h-.79v-.68l.84-.05,.11-1.5h.76v1.5h1.44v.74h-1.44v2.97c0,.33,.06,.58,.18,.76s.34,.27,.64,.27c.1,0,.2-.02,.31-.05s.21-.06,.3-.09l.18,.68c-.15,.05-.31,.1-.48,.14-.17,.04-.34,.06-.51,.06Z"/><path d="M152.85,243.31c-.43,0-.84-.11-1.22-.33-.38-.22-.68-.54-.91-.96s-.35-.92-.35-1.51,.12-1.11,.35-1.53,.54-.74,.91-.96c.38-.22,.78-.33,1.22-.33s.85,.11,1.22,.33c.37,.22,.68,.54,.91,.96s.35,.93,.35,1.53-.12,1.09-.35,1.51-.53,.74-.91,.96c-.37,.22-.78,.33-1.22,.33Zm0-.75c.46,0,.83-.19,1.12-.57,.28-.38,.42-.87,.42-1.48s-.14-1.11-.42-1.5c-.28-.38-.65-.57-1.12-.57s-.83,.19-1.11,.57c-.29,.38-.43,.88-.43,1.5s.14,1.1,.43,1.48c.29,.38,.66,.57,1.11,.57Z"/><path d="M156.84,243.18v-7.83h.89v5.3h.03l2.28-2.82h1l-1.79,2.14,2.04,3.2h-.99l-1.56-2.57-1,1.17v1.41h-.89Z"/><path d="M164.37,243.31c-.48,0-.91-.11-1.3-.33s-.7-.54-.92-.96c-.23-.42-.34-.92-.34-1.5s.12-1.09,.35-1.51,.53-.74,.9-.97,.75-.34,1.15-.34c.68,0,1.21,.23,1.58,.68s.56,1.06,.56,1.83c0,.09,0,.19,0,.28,0,.09-.01,.17-.03,.24h-3.61c.04,.56,.21,1.02,.53,1.35,.32,.34,.73,.51,1.25,.51,.26,0,.49-.04,.71-.12,.22-.08,.42-.18,.62-.3l.32,.59c-.23,.15-.49,.28-.78,.38-.29,.11-.62,.17-.98,.17Zm-1.68-3.23h2.86c0-.54-.12-.96-.35-1.24-.23-.28-.56-.42-.97-.42-.37,0-.71,.14-1.01,.43-.3,.29-.47,.7-.53,1.23Z"/><path d="M167.76,243.18v-5.35h.75l.08,.77h.03c.26-.26,.53-.47,.81-.64,.29-.17,.61-.26,.98-.26,.56,0,.98,.18,1.24,.53s.39,.87,.39,1.56v3.39h-.9v-3.27c0-.5-.08-.86-.24-1.09-.16-.23-.42-.34-.77-.34-.27,0-.52,.07-.73,.21-.22,.14-.46,.34-.73,.62v3.87h-.9Z"/></g><g><path d="M105.45,308.18v-7.22h4.16v.77h-3.25v2.27h2.74v.78h-2.74v2.62h3.35v.78h-4.27Z"/><path d="M111.26,308.18v-5.35h.75l.08,.77h.03c.26-.26,.53-.47,.81-.64,.29-.17,.61-.26,.98-.26,.56,0,.98,.18,1.24,.53s.39,.87,.39,1.56v3.39h-.9v-3.27c0-.5-.08-.86-.24-1.09-.16-.23-.42-.34-.77-.34-.27,0-.52,.07-.73,.21-.22,.14-.46,.34-.73,.62v3.87h-.9Z"/><path d="M118.62,308.31c-.45,0-.82-.13-1.12-.4s-.45-.64-.45-1.12c0-.59,.26-1.04,.79-1.35s1.35-.53,2.49-.65c0-.23-.03-.44-.09-.65-.06-.21-.17-.37-.33-.5-.16-.13-.38-.19-.68-.19-.31,0-.6,.06-.87,.18s-.51,.25-.73,.4l-.35-.63c.25-.16,.56-.32,.92-.47,.36-.15,.76-.22,1.18-.22,.65,0,1.13,.2,1.42,.6,.29,.4,.44,.93,.44,1.6v3.28h-.75l-.08-.64h-.03c-.25,.21-.52,.38-.82,.54-.3,.15-.61,.23-.95,.23Zm.26-.73c.26,0,.5-.06,.73-.19,.23-.12,.47-.3,.73-.53v-1.49c-.89,.11-1.51,.28-1.86,.5-.36,.22-.53,.5-.53,.85,0,.3,.09,.52,.27,.65,.18,.14,.41,.2,.67,.2Z"/><path d="M125.41,308.31c-.25,0-.51-.06-.78-.18-.27-.12-.52-.29-.75-.5h-.03l-.08,.55h-.73v-7.83h.9v2.13l-.02,.97c.24-.21,.51-.39,.8-.53,.29-.14,.58-.21,.87-.21,.7,0,1.22,.25,1.58,.74s.54,1.15,.54,1.98c0,.61-.11,1.13-.32,1.56s-.5,.76-.85,.99c-.35,.23-.73,.34-1.14,.34Zm-.15-.76c.44,0,.8-.19,1.09-.57,.29-.38,.43-.9,.43-1.56,0-.59-.11-1.06-.32-1.42-.22-.36-.58-.54-1.08-.54-.23,0-.46,.06-.69,.19-.23,.12-.48,.3-.74,.54v2.8c.23,.21,.47,.35,.7,.43,.23,.08,.43,.13,.61,.13Z"/><path d="M130.2,308.31c-.34,0-.58-.1-.73-.31s-.23-.51-.23-.9v-6.75h.9v6.82c0,.14,.03,.24,.08,.3,.05,.06,.11,.09,.18,.09,.03,0,.06,0,.08,0,.03,0,.06,0,.12-.02l.12,.68c-.06,.03-.13,.05-.21,.07s-.18,.02-.31,.02Z"/><path d="M134.32,308.31c-.48,0-.91-.11-1.3-.33s-.7-.54-.92-.96c-.23-.42-.34-.92-.34-1.5s.12-1.09,.35-1.51,.53-.74,.9-.97,.75-.34,1.15-.34c.68,0,1.21,.23,1.58,.68s.56,1.06,.56,1.83c0,.09,0,.19,0,.28,0,.09-.01,.17-.03,.24h-3.61c.04,.56,.21,1.02,.53,1.35,.32,.34,.73,.51,1.25,.51,.26,0,.49-.04,.71-.12,.22-.08,.42-.18,.62-.3l.32,.59c-.23,.15-.49,.28-.78,.38-.29,.11-.62,.17-.98,.17Zm-1.68-3.23h2.86c0-.54-.12-.96-.35-1.24-.23-.28-.56-.42-.97-.42-.37,0-.71,.14-1.01,.43-.3,.29-.47,.7-.53,1.23Z"/><path d="M140.03,310.44v-7.6h.75l.08,.62h.03c.24-.21,.51-.38,.8-.53,.29-.15,.59-.22,.91-.22,.69,0,1.21,.25,1.57,.74s.54,1.16,.54,1.99c0,.6-.11,1.12-.32,1.55s-.5,.76-.85,.99c-.35,.23-.73,.34-1.14,.34-.25,0-.5-.05-.74-.17-.25-.11-.49-.26-.74-.45l.02,.94v1.8h-.9Zm2.21-2.88c.44,0,.8-.19,1.09-.57,.29-.38,.43-.9,.43-1.56,0-.59-.11-1.06-.32-1.42-.22-.36-.58-.54-1.08-.54-.23,0-.46,.06-.69,.19-.23,.12-.48,.3-.74,.54v2.8c.24,.21,.48,.35,.7,.43,.23,.08,.43,.13,.6,.13Z"/><path d="M146.24,308.18v-5.35h.75l.08,.97h.03c.18-.34,.41-.61,.67-.8,.26-.2,.55-.3,.85-.3,.21,0,.4,.04,.57,.11l-.18,.79c-.09-.03-.17-.05-.24-.07-.07-.01-.17-.02-.27-.02-.23,0-.46,.09-.71,.28-.25,.18-.46,.5-.64,.96v3.43h-.9Z"/><path d="M150.63,301.74c-.18,0-.32-.05-.43-.16-.11-.11-.17-.25-.17-.43s.06-.32,.17-.43c.11-.11,.26-.17,.43-.17s.32,.05,.43,.17c.11,.11,.17,.25,.17,.43s-.06,.33-.17,.43-.26,.16-.43,.16Zm-.46,6.45v-5.35h.9v5.35h-.9Z"/><path d="M152.99,308.18v-5.35h.75l.08,.77h.03c.23-.26,.49-.47,.77-.64,.28-.17,.58-.26,.89-.26,.41,0,.73,.09,.96,.27,.23,.18,.4,.43,.51,.75,.28-.3,.56-.55,.85-.74,.29-.19,.59-.29,.91-.29,.55,0,.96,.18,1.23,.53s.4,.87,.4,1.56v3.39h-.9v-3.27c0-.5-.08-.86-.24-1.09-.16-.23-.41-.34-.75-.34-.4,0-.84,.28-1.34,.83v3.87h-.9v-3.27c0-.5-.08-.86-.24-1.09-.16-.23-.41-.34-.76-.34-.4,0-.84,.28-1.34,.83v3.87h-.9Z"/><path d="M163.45,308.31c-.45,0-.82-.13-1.12-.4s-.45-.64-.45-1.12c0-.59,.26-1.04,.79-1.35s1.35-.53,2.49-.65c0-.23-.03-.44-.09-.65-.06-.21-.17-.37-.33-.5-.16-.13-.38-.19-.68-.19-.31,0-.6,.06-.87,.18s-.51,.25-.73,.4l-.35-.63c.25-.16,.56-.32,.92-.47,.36-.15,.76-.22,1.18-.22,.65,0,1.13,.2,1.42,.6,.29,.4,.44,.93,.44,1.6v3.28h-.75l-.08-.64h-.03c-.25,.21-.52,.38-.82,.54-.3,.15-.61,.23-.95,.23Zm.26-.73c.26,0,.5-.06,.73-.19,.23-.12,.47-.3,.73-.53v-1.49c-.89,.11-1.51,.28-1.86,.5-.36,.22-.53,.5-.53,.85,0,.3,.09,.52,.27,.65,.18,.14,.41,.2,.67,.2Z"/><path d="M167.87,308.18v-5.35h.75l.08,.97h.03c.18-.34,.41-.61,.67-.8,.26-.2,.55-.3,.85-.3,.21,0,.4,.04,.57,.11l-.18,.79c-.09-.03-.17-.05-.24-.07-.07-.01-.17-.02-.27-.02-.23,0-.46,.09-.71,.28-.25,.18-.46,.5-.64,.96v3.43h-.9Z"/><path d="M172.16,310.48c-.12,0-.23-.01-.34-.03-.11-.02-.2-.05-.29-.08l.18-.72c.06,.01,.12,.03,.2,.05s.14,.03,.21,.03c.3,0,.55-.11,.75-.32,.2-.22,.35-.49,.46-.82l.12-.4-2.15-5.36h.94l1.09,2.96c.08,.23,.17,.47,.26,.74,.09,.26,.18,.52,.26,.77h.04c.08-.24,.16-.5,.23-.76,.07-.26,.15-.51,.22-.75l.96-2.96h.88l-2.01,5.79c-.12,.35-.27,.67-.45,.95-.17,.28-.38,.5-.64,.67-.25,.17-.56,.25-.92,.25Z"/><path d="M181.8,308.31c-.48,0-.91-.11-1.3-.33s-.7-.54-.92-.96c-.23-.42-.34-.92-.34-1.5s.12-1.09,.35-1.51,.53-.74,.9-.97,.75-.34,1.15-.34c.68,0,1.21,.23,1.58,.68s.56,1.06,.56,1.83c0,.09,0,.19,0,.28,0,.09-.01,.17-.03,.24h-3.61c.04,.56,.21,1.02,.53,1.35,.32,.34,.73,.51,1.25,.51,.26,0,.49-.04,.71-.12,.22-.08,.42-.18,.62-.3l.32,.59c-.23,.15-.49,.28-.78,.38-.29,.11-.62,.17-.98,.17Zm-1.68-3.23h2.86c0-.54-.12-.96-.35-1.24-.23-.28-.56-.42-.97-.42-.37,0-.71,.14-1.01,.43-.3,.29-.47,.7-.53,1.23Z"/><path d="M185.19,308.18v-5.35h.75l.08,.77h.03c.26-.26,.53-.47,.81-.64,.29-.17,.61-.26,.98-.26,.56,0,.98,.18,1.24,.53s.39,.87,.39,1.56v3.39h-.9v-3.27c0-.5-.08-.86-.24-1.09-.16-.23-.42-.34-.77-.34-.27,0-.52,.07-.73,.21-.22,.14-.46,.34-.73,.62v3.87h-.9Z"/><path d="M193.01,308.31c-.57,0-.97-.17-1.19-.5-.22-.33-.34-.76-.34-1.29v-2.96h-.79v-.68l.84-.05,.11-1.5h.76v1.5h1.44v.74h-1.44v2.97c0,.33,.06,.58,.18,.76s.34,.27,.64,.27c.1,0,.2-.02,.31-.05s.21-.06,.3-.09l.18,.68c-.15,.05-.31,.1-.48,.14-.17,.04-.34,.06-.51,.06Z"/><path d="M195.61,301.74c-.18,0-.32-.05-.43-.16-.11-.11-.17-.25-.17-.43s.06-.32,.17-.43c.11-.11,.26-.17,.43-.17s.32,.05,.43,.17c.11,.11,.17,.25,.17,.43s-.06,.33-.17,.43-.26,.16-.43,.16Zm-.46,6.45v-5.35h.9v5.35h-.9Z"/><path d="M199.65,308.31c-.57,0-.97-.17-1.19-.5-.22-.33-.34-.76-.34-1.29v-2.96h-.79v-.68l.84-.05,.11-1.5h.76v1.5h1.44v.74h-1.44v2.97c0,.33,.06,.58,.18,.76s.34,.27,.64,.27c.1,0,.2-.02,.31-.05s.21-.06,.3-.09l.18,.68c-.15,.05-.31,.1-.48,.14-.17,.04-.34,.06-.51,.06Z"/><path d="M201.88,310.48c-.12,0-.23-.01-.34-.03-.11-.02-.2-.05-.29-.08l.18-.72c.06,.01,.12,.03,.2,.05s.14,.03,.21,.03c.3,0,.55-.11,.75-.32,.2-.22,.35-.49,.46-.82l.12-.4-2.15-5.36h.94l1.09,2.96c.08,.23,.17,.47,.26,.74,.09,.26,.18,.52,.26,.77h.04c.08-.24,.16-.5,.23-.76,.07-.26,.15-.51,.22-.75l.96-2.96h.88l-2.01,5.79c-.12,.35-.27,.67-.45,.95-.17,.28-.38,.5-.64,.67-.25,.17-.56,.25-.92,.25Z"/><path d="M209.35,310.44v-7.6h.75l.08,.62h.03c.24-.21,.51-.38,.8-.53,.29-.15,.59-.22,.91-.22,.69,0,1.21,.25,1.57,.74s.54,1.16,.54,1.99c0,.6-.11,1.12-.32,1.55s-.5,.76-.85,.99c-.35,.23-.73,.34-1.14,.34-.25,0-.5-.05-.74-.17-.25-.11-.49-.26-.74-.45l.02,.94v1.8h-.9Zm2.21-2.88c.44,0,.8-.19,1.09-.57,.29-.38,.43-.9,.43-1.56,0-.59-.11-1.06-.32-1.42-.22-.36-.58-.54-1.08-.54-.23,0-.46,.06-.69,.19-.23,.12-.48,.3-.74,.54v2.8c.24,.21,.48,.35,.7,.43,.23,.08,.43,.13,.6,.13Z"/><path d="M215.57,308.18v-5.35h.75l.08,.97h.03c.18-.34,.41-.61,.67-.8,.26-.2,.55-.3,.85-.3,.21,0,.4,.04,.57,.11l-.18,.79c-.09-.03-.17-.05-.24-.07-.07-.01-.17-.02-.27-.02-.23,0-.46,.09-.71,.28-.25,.18-.46,.5-.64,.96v3.43h-.9Z"/><path d="M221.46,308.31c-.43,0-.84-.11-1.22-.33-.38-.22-.68-.54-.91-.96s-.35-.92-.35-1.51,.12-1.11,.35-1.53,.54-.74,.91-.96c.38-.22,.78-.33,1.22-.33s.85,.11,1.22,.33c.37,.22,.68,.54,.91,.96s.35,.93,.35,1.53-.12,1.09-.35,1.51-.53,.74-.91,.96c-.37,.22-.78,.33-1.22,.33Zm0-.75c.46,0,.83-.19,1.12-.57,.28-.38,.42-.87,.42-1.48s-.14-1.11-.42-1.5c-.28-.38-.65-.57-1.12-.57s-.83,.19-1.11,.57c-.29,.38-.43,.88-.43,1.5s.14,1.1,.43,1.48c.29,.38,.66,.57,1.11,.57Z"/><path d="M226.57,308.18l-1.93-5.35h.94l1.01,3.04c.08,.26,.16,.53,.25,.79,.08,.26,.17,.52,.25,.78h.04c.08-.26,.16-.52,.25-.78,.08-.26,.16-.53,.24-.79l1.01-3.04h.89l-1.89,5.35h-1.06Z"/><path d="M231.12,301.74c-.18,0-.32-.05-.43-.16-.11-.11-.17-.25-.17-.43s.06-.32,.17-.43c.11-.11,.26-.17,.43-.17s.32,.05,.43,.17c.11,.11,.17,.25,.17,.43s-.06,.33-.17,.43-.26,.16-.43,.16Zm-.46,6.45v-5.35h.9v5.35h-.9Z"/><path d="M235.3,308.31c-.67,0-1.2-.24-1.61-.73-.4-.49-.6-1.17-.6-2.06,0-.58,.11-1.08,.32-1.5,.22-.42,.5-.75,.86-.97,.36-.23,.73-.34,1.14-.34,.31,0,.58,.05,.8,.16,.23,.11,.46,.26,.69,.45l-.04-.91v-2.06h.91v7.83h-.75l-.08-.63h-.03c-.21,.21-.45,.38-.73,.53-.28,.15-.58,.23-.89,.23Zm.2-.76c.47,0,.92-.25,1.36-.74v-2.79c-.23-.21-.45-.35-.65-.43-.21-.08-.42-.13-.64-.13-.29,0-.54,.09-.78,.26-.23,.17-.42,.41-.56,.72-.14,.3-.21,.66-.21,1.07,0,.64,.13,1.14,.38,1.5,.26,.36,.62,.54,1.09,.54Z"/><path d="M241.86,308.31c-.48,0-.91-.11-1.3-.33s-.7-.54-.92-.96c-.23-.42-.34-.92-.34-1.5s.12-1.09,.35-1.51,.53-.74,.9-.97,.75-.34,1.15-.34c.68,0,1.21,.23,1.58,.68s.56,1.06,.56,1.83c0,.09,0,.19,0,.28,0,.09-.01,.17-.03,.24h-3.61c.04,.56,.21,1.02,.53,1.35,.32,.34,.73,.51,1.25,.51,.26,0,.49-.04,.71-.12,.22-.08,.42-.18,.62-.3l.32,.59c-.23,.15-.49,.28-.78,.38-.29,.11-.62,.17-.98,.17Zm-1.68-3.23h2.86c0-.54-.12-.96-.35-1.24-.23-.28-.56-.42-.97-.42-.37,0-.71,.14-1.01,.43-.3,.29-.47,.7-.53,1.23Z"/><path d="M245.25,308.18v-5.35h.75l.08,.97h.03c.18-.34,.41-.61,.67-.8,.26-.2,.55-.3,.85-.3,.21,0,.4,.04,.57,.11l-.18,.79c-.09-.03-.17-.05-.24-.07-.07-.01-.17-.02-.27-.02-.23,0-.46,.09-.71,.28-.25,.18-.46,.5-.64,.96v3.43h-.9Z"/></g><g><path d="M105.45,335.18v-7.22h4.16v.77h-3.25v2.27h2.74v.78h-2.74v2.62h3.35v.78h-4.27Z"/><path d="M111.26,335.18v-5.35h.75l.08,.77h.03c.26-.26,.53-.47,.81-.64,.29-.17,.61-.26,.98-.26,.56,0,.98,.18,1.24,.53s.39,.87,.39,1.56v3.39h-.9v-3.27c0-.5-.08-.86-.24-1.09-.16-.23-.42-.34-.77-.34-.27,0-.52,.07-.73,.21-.22,.14-.46,.34-.73,.62v3.87h-.9Z"/><path d="M118.62,335.31c-.45,0-.82-.13-1.12-.4s-.45-.64-.45-1.12c0-.59,.26-1.04,.79-1.35s1.35-.53,2.49-.65c0-.23-.03-.44-.09-.65-.06-.21-.17-.37-.33-.5-.16-.13-.38-.19-.68-.19-.31,0-.6,.06-.87,.18s-.51,.25-.73,.4l-.35-.63c.25-.16,.56-.32,.92-.47,.36-.15,.76-.22,1.18-.22,.65,0,1.13,.2,1.42,.6,.29,.4,.44,.93,.44,1.6v3.28h-.75l-.08-.64h-.03c-.25,.21-.52,.38-.82,.54-.3,.15-.61,.23-.95,.23Zm.26-.73c.26,0,.5-.06,.73-.19,.23-.12,.47-.3,.73-.53v-1.49c-.89,.11-1.51,.28-1.86,.5-.36,.22-.53,.5-.53,.85,0,.3,.09,.52,.27,.65,.18,.14,.41,.2,.67,.2Z"/><path d="M125.41,335.31c-.25,0-.51-.06-.78-.18-.27-.12-.52-.29-.75-.5h-.03l-.08,.55h-.73v-7.83h.9v2.13l-.02,.97c.24-.21,.51-.39,.8-.53,.29-.14,.58-.21,.87-.21,.7,0,1.22,.25,1.58,.74s.54,1.15,.54,1.98c0,.61-.11,1.13-.32,1.56s-.5,.76-.85,.99c-.35,.23-.73,.34-1.14,.34Zm-.15-.76c.44,0,.8-.19,1.09-.57,.29-.38,.43-.9,.43-1.56,0-.59-.11-1.06-.32-1.42-.22-.36-.58-.54-1.08-.54-.23,0-.46,.06-.69,.19-.23,.12-.48,.3-.74,.54v2.8c.23,.21,.47,.35,.7,.43,.23,.08,.43,.13,.61,.13Z"/><path d="M130.2,335.31c-.34,0-.58-.1-.73-.31s-.23-.51-.23-.9v-6.75h.9v6.82c0,.14,.03,.24,.08,.3,.05,.06,.11,.09,.18,.09,.03,0,.06,0,.08,0,.03,0,.06,0,.12-.02l.12,.68c-.06,.03-.13,.05-.21,.07s-.18,.02-.31,.02Z"/><path d="M134.32,335.31c-.48,0-.91-.11-1.3-.33s-.7-.54-.92-.96c-.23-.42-.34-.92-.34-1.5s.12-1.09,.35-1.51,.53-.74,.9-.97,.75-.34,1.15-.34c.68,0,1.21,.23,1.58,.68s.56,1.06,.56,1.83c0,.09,0,.19,0,.28,0,.09-.01,.17-.03,.24h-3.61c.04,.56,.21,1.02,.53,1.35,.32,.34,.73,.51,1.25,.51,.26,0,.49-.04,.71-.12,.22-.08,.42-.18,.62-.3l.32,.59c-.23,.15-.49,.28-.78,.38-.29,.11-.62,.17-.98,.17Zm-1.68-3.23h2.86c0-.54-.12-.96-.35-1.24-.23-.28-.56-.42-.97-.42-.37,0-.71,.14-1.01,.43-.3,.29-.47,.7-.53,1.23Z"/><path d="M142.14,335.31c-.47,0-.9-.11-1.28-.33-.38-.22-.68-.54-.9-.96-.22-.42-.33-.92-.33-1.51s.12-1.11,.36-1.53,.55-.74,.95-.96c.39-.22,.82-.33,1.27-.33,.35,0,.65,.06,.91,.19,.25,.12,.47,.27,.65,.44l-.46,.59c-.15-.14-.32-.25-.49-.34s-.36-.13-.58-.13c-.32,0-.61,.09-.86,.26-.25,.17-.45,.42-.59,.73-.14,.31-.21,.67-.21,1.08,0,.61,.15,1.1,.46,1.48s.7,.57,1.19,.57c.25,0,.48-.05,.69-.16,.21-.11,.4-.23,.56-.38l.4,.61c-.24,.21-.51,.38-.8,.5s-.6,.18-.92,.18Z"/><path d="M147,335.31c-.43,0-.84-.11-1.22-.33-.38-.22-.68-.54-.91-.96s-.35-.92-.35-1.51,.12-1.11,.35-1.53,.54-.74,.91-.96c.38-.22,.78-.33,1.22-.33s.85,.11,1.22,.33c.37,.22,.68,.54,.91,.96s.35,.93,.35,1.53-.12,1.09-.35,1.51-.53,.74-.91,.96c-.37,.22-.78,.33-1.22,.33Zm0-.75c.46,0,.83-.19,1.12-.57,.28-.38,.42-.87,.42-1.48s-.14-1.11-.42-1.5c-.28-.38-.65-.57-1.12-.57s-.83,.19-1.11,.57c-.29,.38-.43,.88-.43,1.5s.14,1.1,.43,1.48c.29,.38,.66,.57,1.11,.57Z"/><path d="M151,335.18v-5.35h.75l.08,.77h.03c.23-.26,.49-.47,.77-.64,.28-.17,.58-.26,.89-.26,.41,0,.73,.09,.96,.27,.23,.18,.4,.43,.51,.75,.28-.3,.56-.55,.85-.74,.29-.19,.59-.29,.91-.29,.55,0,.96,.18,1.23,.53s.4,.87,.4,1.56v3.39h-.9v-3.27c0-.5-.08-.86-.24-1.09-.16-.23-.41-.34-.75-.34-.4,0-.84,.28-1.34,.83v3.87h-.9v-3.27c0-.5-.08-.86-.24-1.09-.16-.23-.41-.34-.76-.34-.4,0-.84,.28-1.34,.83v3.87h-.9Z"/><path d="M160.23,337.44v-7.6h.75l.08,.62h.03c.24-.21,.51-.38,.8-.53,.29-.15,.59-.22,.91-.22,.69,0,1.21,.25,1.57,.74s.54,1.16,.54,1.99c0,.6-.11,1.12-.32,1.55s-.5,.76-.85,.99c-.35,.23-.73,.34-1.14,.34-.25,0-.5-.05-.74-.17-.25-.11-.49-.26-.74-.45l.02,.94v1.8h-.9Zm2.21-2.88c.44,0,.8-.19,1.09-.57,.29-.38,.43-.9,.43-1.56,0-.59-.11-1.06-.32-1.42-.22-.36-.58-.54-1.08-.54-.23,0-.46,.06-.69,.19-.23,.12-.48,.3-.74,.54v2.8c.24,.21,.48,.35,.7,.43,.23,.08,.43,.13,.6,.13Z"/><path d="M168.52,335.31c-.43,0-.84-.11-1.22-.33-.38-.22-.68-.54-.91-.96s-.35-.92-.35-1.51,.12-1.11,.35-1.53,.54-.74,.91-.96c.38-.22,.78-.33,1.22-.33s.85,.11,1.22,.33c.37,.22,.68,.54,.91,.96s.35,.93,.35,1.53-.12,1.09-.35,1.51-.53,.74-.91,.96c-.37,.22-.78,.33-1.22,.33Zm0-.75c.46,0,.83-.19,1.12-.57,.28-.38,.42-.87,.42-1.48s-.14-1.11-.42-1.5c-.28-.38-.65-.57-1.12-.57s-.83,.19-1.11,.57c-.29,.38-.43,.88-.43,1.5s.14,1.1,.43,1.48c.29,.38,.66,.57,1.11,.57Z"/><path d="M172.51,335.18v-5.35h.75l.08,.77h.03c.26-.26,.53-.47,.81-.64,.29-.17,.61-.26,.98-.26,.56,0,.98,.18,1.24,.53s.39,.87,.39,1.56v3.39h-.9v-3.27c0-.5-.08-.86-.24-1.09-.16-.23-.42-.34-.77-.34-.27,0-.52,.07-.73,.21-.22,.14-.46,.34-.73,.62v3.87h-.9Z"/><path d="M180.81,335.31c-.48,0-.91-.11-1.3-.33s-.7-.54-.92-.96c-.23-.42-.34-.92-.34-1.5s.12-1.09,.35-1.51,.53-.74,.9-.97,.75-.34,1.15-.34c.68,0,1.21,.23,1.58,.68s.56,1.06,.56,1.83c0,.09,0,.19,0,.28,0,.09-.01,.17-.03,.24h-3.61c.04,.56,.21,1.02,.53,1.35,.32,.34,.73,.51,1.25,.51,.26,0,.49-.04,.71-.12,.22-.08,.42-.18,.62-.3l.32,.59c-.23,.15-.49,.28-.78,.38-.29,.11-.62,.17-.98,.17Zm-1.68-3.23h2.86c0-.54-.12-.96-.35-1.24-.23-.28-.56-.42-.97-.42-.37,0-.71,.14-1.01,.43-.3,.29-.47,.7-.53,1.23Z"/><path d="M185.78,335.31c-.57,0-.97-.17-1.19-.5-.22-.33-.34-.76-.34-1.29v-2.96h-.79v-.68l.84-.05,.11-1.5h.76v1.5h1.44v.74h-1.44v2.97c0,.33,.06,.58,.18,.76s.34,.27,.64,.27c.1,0,.2-.02,.31-.05s.21-.06,.3-.09l.18,.68c-.15,.05-.31,.1-.48,.14-.17,.04-.34,.06-.51,.06Z"/><path d="M191.08,335.18l-1.48-5.35h.92l.79,3.09c.06,.25,.11,.5,.17,.74,.05,.25,.1,.49,.15,.74h.04c.06-.25,.12-.5,.18-.74,.06-.25,.12-.49,.19-.74l.82-3.09h.88l.84,3.09c.07,.25,.13,.5,.19,.74,.06,.25,.12,.49,.18,.74h.04c.06-.25,.12-.5,.17-.74,.06-.25,.11-.49,.16-.74l.78-3.09h.86l-1.43,5.35h-1.1l-.77-2.87c-.07-.26-.13-.51-.18-.76-.05-.25-.12-.51-.18-.78h-.04c-.06,.27-.12,.53-.18,.79-.06,.25-.12,.51-.2,.76l-.75,2.86h-1.06Z"/><path d="M198.7,328.74c-.18,0-.32-.05-.43-.16-.11-.11-.17-.25-.17-.43s.06-.32,.17-.43c.11-.11,.26-.17,.43-.17s.32,.05,.43,.17c.11,.11,.17,.25,.17,.43s-.06,.33-.17,.43-.26,.16-.43,.16Zm-.46,6.45v-5.35h.9v5.35h-.9Z"/><path d="M202.88,335.31c-.67,0-1.2-.24-1.61-.73-.4-.49-.6-1.17-.6-2.06,0-.58,.11-1.08,.32-1.5,.22-.42,.5-.75,.86-.97,.36-.23,.73-.34,1.14-.34,.31,0,.58,.05,.8,.16,.23,.11,.46,.26,.69,.45l-.04-.91v-2.06h.91v7.83h-.75l-.08-.63h-.03c-.21,.21-.45,.38-.73,.53-.28,.15-.58,.23-.89,.23Zm.2-.76c.47,0,.92-.25,1.36-.74v-2.79c-.23-.21-.45-.35-.65-.43-.21-.08-.42-.13-.64-.13-.29,0-.54,.09-.78,.26-.23,.17-.42,.41-.56,.72-.14,.3-.21,.66-.21,1.07,0,.64,.13,1.14,.38,1.5,.26,.36,.62,.54,1.09,.54Z"/><path d="M209.08,337.65c-.65,0-1.18-.12-1.6-.37s-.62-.6-.62-1.07c0-.23,.07-.45,.21-.66,.14-.21,.33-.39,.57-.55v-.04c-.13-.08-.24-.19-.34-.34-.09-.15-.14-.32-.14-.53,0-.23,.06-.43,.19-.59,.12-.17,.26-.3,.4-.4v-.04c-.18-.15-.34-.34-.48-.59-.14-.25-.21-.53-.21-.85,0-.39,.09-.73,.27-1.01,.18-.29,.43-.51,.74-.66s.64-.23,1-.23c.15,0,.29,.01,.42,.04s.25,.06,.34,.09h1.86v.69h-1.1c.12,.12,.23,.27,.31,.47,.08,.19,.13,.41,.13,.63,0,.38-.09,.71-.26,.99-.18,.28-.41,.49-.7,.64-.29,.15-.62,.23-.99,.23-.29,0-.55-.06-.8-.19-.1,.08-.18,.17-.24,.27-.07,.1-.1,.22-.1,.37,0,.17,.07,.31,.2,.42,.14,.11,.38,.17,.74,.17h1.03c.62,0,1.09,.1,1.4,.3,.31,.2,.47,.53,.47,.97,0,.33-.11,.63-.33,.91-.22,.28-.53,.5-.94,.68-.4,.17-.88,.26-1.44,.26Zm.13-.63c.51,0,.92-.11,1.23-.33,.31-.22,.46-.48,.46-.75,0-.25-.09-.42-.28-.52-.19-.1-.45-.14-.8-.14h-.92c-.1,0-.21,0-.34-.02-.12-.02-.24-.04-.36-.07-.19,.14-.33,.29-.42,.44-.09,.15-.13,.31-.13,.46,0,.29,.14,.51,.41,.68,.27,.17,.65,.25,1.14,.25Zm-.13-4.14c.31,0,.57-.12,.8-.35s.34-.54,.34-.93-.11-.69-.33-.91c-.22-.22-.49-.33-.8-.33s-.58,.11-.8,.33c-.22,.22-.33,.52-.33,.91s.11,.7,.34,.93c.22,.23,.49,.35,.8,.35Z"/><path d="M214.94,335.31c-.48,0-.91-.11-1.3-.33s-.7-.54-.92-.96c-.23-.42-.34-.92-.34-1.5s.12-1.09,.35-1.51,.53-.74,.9-.97,.75-.34,1.15-.34c.68,0,1.21,.23,1.58,.68s.56,1.06,.56,1.83c0,.09,0,.19,0,.28,0,.09-.01,.17-.03,.24h-3.61c.04,.56,.21,1.02,.53,1.35,.32,.34,.73,.51,1.25,.51,.26,0,.49-.04,.71-.12,.22-.08,.42-.18,.62-.3l.32,.59c-.23,.15-.49,.28-.78,.38-.29,.11-.62,.17-.98,.17Zm-1.68-3.23h2.86c0-.54-.12-.96-.35-1.24-.23-.28-.56-.42-.97-.42-.37,0-.71,.14-1.01,.43-.3,.29-.47,.7-.53,1.23Z"/><path d="M219.91,335.31c-.57,0-.97-.17-1.19-.5-.22-.33-.34-.76-.34-1.29v-2.96h-.79v-.68l.84-.05,.11-1.5h.76v1.5h1.44v.74h-1.44v2.97c0,.33,.06,.58,.18,.76s.34,.27,.64,.27c.1,0,.2-.02,.31-.05s.21-.06,.3-.09l.18,.68c-.15,.05-.31,.1-.48,.14-.17,.04-.34,.06-.51,.06Z"/></g><rect class="cls-11" x="83.15" y="253" width="359" height="31" rx="3.94" ry="3.94"/><path class="cls-14" d="M62.22,470.04l-4.9-3.23-4.09,6.82-4.75-1.39-4.18,6.39,.21,2.01,22.75-4.19-1.32-14.21-3.72,7.8Zm-21.22-6.13l3.65-.5c.59,.27,1,.37,1.71,.55,1.1,.29,2.38,.56,4.27-.39,.44-.22,1.36-1.06,1.73-1.53l14.95-2.71,1.53,18.46-25.62,4.62-2.22-18.49Zm27.78-6.65l-1.48,.28-2.84-29.3-48.32,5.6,5.95,48.31,5.66-.82c-.45-.64-1.15-1.43-2.36-2.42-1.67-1.38-1.08-3.73-.09-5.22,1.3-2.51,8-5.7,7.62-9.7-.14-1.46-.37-3.35-1.72-4.66-.05,.54,.04,1.06,.04,1.06,0,0-.56-.71-.83-1.68-.27-.37-.49-.49-.78-.98-.21,.57-.18,1.24-.18,1.24,0,0-.45-1.07-.53-1.98-.27,.41-.34,1.18-.34,1.18,0,0-.59-1.69-.46-2.6-.27-.79-1.07-2.37-.84-5.95,1.47,1.03,4.72,.79,5.99-1.08,.42-.62,.71-2.3-.21-5.62-.59-2.13-2.05-5.3-2.62-6.5l-.07,.05c.3,.97,.92,3,1.15,3.99,.72,2.99,.91,4.03,.57,5.41-.29,1.2-.97,1.98-2.72,2.86-1.74,.88-4.06-1.26-4.2-1.38-1.69-1.35-3-3.55-3.15-4.62-.15-1.17,.67-1.87,1.09-2.83-.6,.17-1.26,.47-1.26,.47,0,0,.79-.82,1.77-1.53,.4-.27,.64-.44,1.07-.79-.62-.01-1.12,0-1.12,0,0,0,1.03-.56,2.1-.96-.78-.03-1.53,0-1.53,0,0,0,2.3-1.03,4.12-1.78,1.25-.51,2.47-.36,3.15,.63,.9,1.3,1.85,2,3.85,2.44,1.23-.55,1.6-.83,3.15-1.25,1.36-1.5,2.43-1.69,2.43-1.69,0,0-.53,.49-.67,1.25,.77-.61,1.62-1.12,1.62-1.12,0,0-.33,.4-.63,1.05l.07,.11c.9-.54,1.96-.97,1.96-.97,0,0-.3,.38-.66,.88,.68,0,2.05,.03,2.59,.09,3.15,.07,3.81-3.37,5.02-3.8,1.52-.54,2.19-.87,4.77,1.67,2.22,2.18,3.95,6.07,3.09,6.95-.72,.72-2.14-.28-3.72-2.25-.83-1.04-1.46-2.27-1.76-3.83-.25-1.32-1.22-2.08-1.22-2.08,0,0,.56,1.25,.56,2.35,0,.6,.08,2.86,1.04,4.12-.1,.18-.14,.92-.25,1.05-1.12-1.36-3.54-2.33-3.93-2.62,1.33,1.09,4.4,3.6,5.57,6.01,1.11,2.27,.46,4.36,1.02,4.9,.16,.15,2.39,2.94,2.82,4.34,.75,2.44,.04,5-.94,6.59l-2.74,.43c-.4-.11-.67-.17-1.03-.38,.2-.35,.59-1.23,.6-1.41l-.15-.27c-.85,1.21-2.28,2.38-3.47,3.05-1.55,.88-3.34,.74-4.51,.38-3.31-1.02-6.43-3.26-7.19-3.84,0,0-.02,.47,.12,.57,.83,.94,2.74,2.64,4.59,3.83l-3.94,.43,1.86,14.49c-.82,.12-.95,.18-1.86,.3-.8-2.81-2.32-4.65-3.98-5.72-1.47-.94-3.49-1.16-5.43-.77l-.12,.14c1.35-.14,2.94,.05,4.57,1.09,1.6,1.01,2.9,3.63,3.37,5.21,.61,2.02,1.03,4.17-.61,6.46-1.17,1.62-4.57,2.52-7.32,.58,.73,1.18,1.73,2.15,3.07,2.33,1.99,.27,3.87-.07,5.17-1.41,1.11-1.14,1.69-3.52,1.54-6.03l1.75-.25,.63,4.5,29.01-3.49-2.37-23.09Zm-17.65-12.22c-.08,.18-.21,.31-.02,.91v.03l.04,.08,.08,.18c.34,.7,.72,1.37,1.35,1.71,.16-.03,.33-.05,.51-.05,.59-.03,.97,.07,1.21,.2,.02-.12,.03-.29,.01-.55-.05-.89,.18-2.41-1.54-3.21-.65-.3-1.55-.21-1.86,.17,.05,0,.1,.02,.14,.03,.46,.16,.15,.32,.07,.51m4.8,8.32c-.22-.12-1.28-.07-2.01,.01-1.41,.17-2.93,.65-3.26,.91-.6,.47-.33,1.28,.12,1.62,1.25,.94,2.35,1.56,3.51,1.41,.71-.09,1.34-1.22,1.78-2.24,.3-.7,.3-1.47-.14-1.71m-12.45-7.22c.4-.38-1.98-.87-3.82,.38-1.36,.93-1.4,2.91-.1,4.04,.13,.11,.24,.19,.34,.26,.38-.18,.81-.36,1.31-.52,.84-.27,1.54-.41,2.11-.49,.27-.31,.59-.85,.51-1.83-.11-1.33-1.12-1.12-.36-1.84M58.47,30.72c-17.5,0-31.69,14.19-31.69,31.69,0,14,9.08,25.88,21.67,30.07,1.58,.29,2.16-.69,2.16-1.52,0-.76-.03-3.25-.04-5.9-8.82,1.92-10.68-3.74-10.68-3.74-1.44-3.66-3.52-4.64-3.52-4.64-2.87-1.97,.22-1.93,.22-1.93,3.18,.22,4.86,3.27,4.86,3.27,2.83,4.84,7.41,3.44,9.22,2.63,.28-2.05,1.11-3.45,2.01-4.24-7.04-.8-14.44-3.52-14.44-15.66,0-3.46,1.24-6.29,3.26-8.5-.33-.8-1.41-4.02,.31-8.39,0,0,2.66-.85,8.72,3.25,2.53-.7,5.24-1.05,7.93-1.07,2.69,.01,5.41,.36,7.94,1.07,6.05-4.1,8.7-3.25,8.7-3.25,1.72,4.36,.64,7.59,.31,8.39,2.03,2.22,3.26,5.05,3.26,8.5,0,12.17-7.41,14.85-14.47,15.63,1.14,.98,2.15,2.91,2.15,5.87,0,4.24-.04,7.65-.04,8.7,0,.84,.57,1.83,2.18,1.52,12.58-4.19,21.65-16.07,21.65-30.06,0-17.5-14.19-31.69-31.68-31.69m-19.82,45.14c-.07,.16-.32,.2-.54,.1-.23-.1-.36-.32-.28-.48,.07-.16,.32-.21,.55-.1,.23,.1,.36,.32,.28,.48m1.56,1.39c-.15,.14-.45,.08-.65-.15-.21-.22-.25-.52-.09-.66,.16-.14,.44-.07,.65,.15,.21,.22,.25,.52,.09,.66m1.07,1.78c-.19,.13-.51,0-.71-.27-.19-.28-.19-.62,0-.75,.2-.14,.51-.01,.71,.27,.19,.29,.19,.62,0,.76m1.81,2.06c-.17,.19-.54,.14-.81-.12-.28-.26-.35-.62-.18-.81,.18-.19,.55-.14,.82,.12,.28,.25,.36,.62,.17,.81m2.34,.7c-.08,.25-.43,.36-.79,.26-.36-.11-.59-.4-.52-.65,.07-.25,.43-.37,.79-.25,.36,.11,.59,.4,.52,.65m2.66,.29c0,.26-.3,.48-.67,.48-.38,0-.69-.2-.69-.46,0-.26,.3-.48,.68-.48,.38,0,.69,.2,.69,.46m2.61-.1c.05,.25-.22,.52-.59,.59-.37,.07-.71-.09-.76-.34-.05-.26,.22-.52,.59-.59,.37-.07,.71,.09,.76,.35m104.27-48.79c0-5.45,0-10.91-.01-16.35,0-.76,.5-1.23,1.26-1.23,1.4,0,2.81-.01,4.21,0,.8,0,1.26,.49,1.25,1.24-.02,4.82-.01,9.66-.01,14.48v.27c0,.53,.24,.93,.74,1.14,.48,.2,.92,.1,1.31-.32,1.41-1.52,2.82-3.03,4.23-4.55,.86-.93,1.74-1.86,2.59-2.79,.32-.35,.7-.52,1.18-.51,1.76,.01,3.54,.01,5.3,0,.52,0,.93,.16,1.15,.64,.22,.5,.12,.95-.26,1.36-2.65,2.93-5.29,5.86-7.93,8.79-.21,.24-.42,.48-.58,.75-.29,.48-.29,.94-.02,1.43,.29,.52,.71,.94,1.12,1.37,3.2,3.29,6.41,6.58,9.63,9.87,.39,.4,.5,.84,.31,1.35-.19,.48-.55,.7-1.15,.7-1.96,0-3.93,0-5.89,0-.44,0-.78-.14-1.1-.48-2.85-2.99-5.72-5.97-8.58-8.95-.41-.43-.86-.54-1.33-.34-.48,.19-.72,.59-.72,1.18v7.34c0,.79-.4,1.2-1.18,1.2h-4.31c-.86,0-1.2-.34-1.2-1.19v-16.37Zm26.75-5.48c0-3.61,.01-7.22-.01-10.83,0-.82,.47-1.28,1.3-1.28,1.36,0,2.72,0,4.08,0,.8,0,1.25,.45,1.25,1.24,0,2.1,0,4.21,.01,6.32,0,.91,.47,1.38,1.37,1.38h5.66c.6,0,.99,.32,1.11,.91,.06,.28,.04,.56,.05,.85v3.49c0,.91-.41,1.32-1.32,1.32-1.81,0-3.62,0-5.43,0-.93,0-1.4,.47-1.41,1.38,0,1.86-.04,3.7-.01,5.56,.04,2.83,2.21,5.43,5.02,6.1,.83,.2,1.67,.23,2.51,.11,.69-.1,1.18,.27,1.26,.96,.17,1.47,.33,2.94,.48,4.41,.06,.56-.35,1.07-.93,1.17-1.55,.27-3.11,.17-4.63-.17-5.46-1.22-9.46-5.58-10.25-11.11-.08-.55-.11-1.09-.11-1.64v-10.17Zm48.44,17.24c0-.5-.38-.85-.88-.88-.34-.01-.68-.03-1.02-.05-1.74-.13-2.64-.95-2.95-2.66-.24-1.31-.24-2.64-.24-3.97-.01-3.82,0-7.64,0-11.45,0-.11,0-.22,0-.33-.05-.62-.49-1.06-1.12-1.06-1.47,0-2.94,0-4.41,0-.67,0-1.14,.48-1.17,1.13,0,.16,0,.32,0,.51-.13-.07-.22-.11-.32-.16-2.65-1.39-5.46-1.84-8.42-1.35-7.52,1.26-12.43,8.8-10.56,16.19,2.37,9.38,13.62,13.11,21.14,7.01,.18-.14,.25-.14,.39,.05,.77,1.11,1.8,1.91,3.07,2.39,1.4,.53,2.86,.61,4.34,.5,.53-.04,1.05-.11,1.53-.35,.34-.17,.62-.43,.63-.82,.03-1.57,.02-3.13,.01-4.7h0Zm-18.3-.68c-3.66-.01-6.57-2.99-6.55-6.72,.01-3.53,3-6.46,6.59-6.45,3.68,0,6.58,2.96,6.57,6.7-.01,3.52-3.02,6.47-6.61,6.47Zm-73.31-19.78c-6.99,.01-13.06,5.41-13.21,12.91-.16,7.75,5.98,13.3,12.84,13.47,7.33,.19,13.41-5.6,13.53-12.91,.12-7.44-5.71-13.38-13.16-13.47h0Zm-.05,19.78c-3.61,0-6.57-2.96-6.57-6.58,0-3.62,2.95-6.58,6.59-6.6,3.63,0,6.57,2.94,6.57,6.59s-2.94,6.59-6.59,6.59h0Zm155.47-.66c0,.95,.1,1.72,.28,2.29,.21,.57,.46,1.18,.82,1.85,.13,.21,.18,.41,.18,.59,0,.26-.15,.51-.49,.77l-1.62,1.08c-.23,.15-.46,.23-.67,.23-.26,0-.51-.13-.77-.36-.36-.39-.67-.8-.92-1.21-.26-.44-.51-.92-.8-1.52-2,2.36-4.52,3.54-7.55,3.54-2.16,0-3.88-.62-5.14-1.85-1.26-1.23-1.9-2.88-1.9-4.93,0-2.18,.77-3.96,2.34-5.29,1.57-1.34,3.65-2,6.29-2,.87,0,1.77,.08,2.72,.21s1.93,.33,2.95,.57v-1.87c0-1.95-.41-3.31-1.21-4.11-.82-.8-2.21-1.18-4.19-1.18-.9,0-1.82,.1-2.77,.33-.95,.23-1.87,.51-2.77,.87-.41,.18-.72,.28-.9,.33s-.31,.08-.41,.08c-.36,0-.54-.26-.54-.8v-1.26c0-.41,.05-.72,.18-.9s.36-.36,.72-.54c.9-.46,1.98-.85,3.24-1.16,1.26-.33,2.59-.49,4.01-.49,3.06,0,5.29,.69,6.73,2.08,1.41,1.39,2.13,3.49,2.13,6.32v8.32h.05Zm-10.43,3.9c.85,0,1.72-.15,2.65-.46s1.75-.87,2.44-1.64c.41-.49,.72-1.03,.87-1.64s.26-1.36,.26-2.23v-1.08c-.74-.18-1.54-.33-2.36-.44s-1.62-.15-2.41-.15c-1.72,0-2.98,.33-3.83,1.03s-1.26,1.67-1.26,2.95c0,1.21,.31,2.11,.95,2.72,.62,.64,1.52,.95,2.7,.95h0Zm20.62,2.77c-.46,0-.77-.08-.98-.26-.21-.15-.39-.51-.54-1l-6.04-19.85c-.15-.51-.23-.85-.23-1.03,0-.41,.21-.64,.62-.64h2.52c.49,0,.82,.08,1,.26,.21,.15,.36,.51,.51,1l4.31,17,4.01-17c.13-.51,.28-.85,.49-1s.57-.26,1.03-.26h2.05c.49,0,.82,.08,1.03,.26,.21,.15,.39,.51,.49,1l4.06,17.21,4.44-17.21c.15-.51,.33-.85,.51-1,.21-.15,.54-.26,1-.26h2.39c.41,0,.64,.21,.64,.64,0,.13-.03,.26-.05,.41-.03,.15-.08,.36-.18,.64l-6.19,19.85c-.15,.51-.33,.85-.54,1s-.54,.26-.98,.26h-2.21c-.49,0-.82-.08-1.03-.26s-.39-.51-.49-1.03l-3.98-16.56-3.96,16.54c-.13,.51-.28,.85-.49,1.03s-.57,.26-1.03,.26h-2.21Zm33,.69c-1.34,0-2.67-.15-3.96-.46-1.28-.31-2.29-.64-2.95-1.03-.41-.23-.69-.49-.8-.72s-.15-.49-.15-.72v-1.31c0-.54,.21-.8,.59-.8,.15,0,.31,.03,.46,.08s.39,.15,.64,.26c.87,.39,1.82,.69,2.83,.9,1.03,.21,2.03,.31,3.06,.31,1.62,0,2.88-.28,3.75-.85s1.34-1.39,1.34-2.44c0-.72-.23-1.31-.69-1.8s-1.34-.92-2.59-1.34l-3.72-1.16c-1.87-.59-3.26-1.46-4.11-2.62-.85-1.13-1.28-2.39-1.28-3.72,0-1.08,.23-2.03,.69-2.85s1.08-1.54,1.85-2.11c.77-.59,1.64-1.03,2.67-1.34,1.03-.31,2.11-.44,3.24-.44,.57,0,1.16,.03,1.72,.1,.59,.08,1.13,.18,1.67,.28,.51,.13,1,.26,1.46,.41,.46,.15,.82,.31,1.08,.46,.36,.21,.62,.41,.77,.64,.15,.21,.23,.49,.23,.85v1.21c0,.54-.21,.82-.59,.82-.21,0-.54-.1-.98-.31-1.46-.67-3.11-1-4.93-1-1.46,0-2.62,.23-3.42,.72s-1.21,1.23-1.21,2.29c0,.72,.26,1.34,.77,1.82s1.46,.98,2.83,1.41l3.65,1.16c1.85,.59,3.18,1.41,3.98,2.47s1.18,2.26,1.18,3.6c0,1.1-.23,2.11-.67,2.98-.46,.87-1.08,1.64-1.87,2.26-.8,.64-1.75,1.1-2.85,1.44-1.16,.36-2.36,.54-3.67,.54h0Zm4.85,12.48c-8.45,6.24-20.73,9.55-31.28,9.55-14.79,0-28.12-5.47-38.19-14.56-.8-.72-.08-1.7,.87-1.13,10.89,6.32,24.32,10.14,38.21,10.14,9.37,0,19.67-1.95,29.15-5.96,1.41-.64,2.62,.92,1.23,1.95Zm3.52-4.01c-1.08-1.39-7.14-.67-9.89-.33-.82,.1-.95-.62-.21-1.16,4.83-3.39,12.76-2.41,13.69-1.28,.92,1.16-.26,9.09-4.78,12.89-.69,.59-1.36,.28-1.05-.49,1.03-2.54,3.31-8.27,2.23-9.63Zm124.6,414.22c1.28,2.23,1.41,4.57,.34,6.42-1.06,1.85-3.15,2.91-5.71,2.91h-4.84c.06-.9,.1-1.81,.1-2.73,0-1.03-.05-2.04-.12-3.05h3.18c.78,0,1.41-.64,1.41-1.42,0-.24-.06-.47-.17-.68l-20.28-35.26c-.25-.44-.72-.72-1.23-.72-.5,0-.96,.26-1.21,.69l-3.22,5.6c9.79,7.38,16.37,18.81,17.27,31.79,.07,1.01,.12,2.02,.12,3.05,0,.92-.04,1.82-.09,2.73h-15.8c.09-.9,.14-1.81,.14-2.73,0-1.03-.06-2.05-.17-3.05-.78-7.14-4.28-13.47-9.43-17.94l-2.22,3.85c3.89,3.62,6.55,8.55,7.27,14.09,.13,1,.2,2.02,.2,3.05,0,.92-.06,1.83-.16,2.73h-14.65c-2.57,0-4.65-1.06-5.71-2.92-1.07-1.85-.94-4.19,.34-6.42l3.01-5.15c1.72,.92,3.27,2.13,4.59,3.56l-1.79,3.05c-.11,.21-.17,.44-.17,.68,0,.78,.63,1.42,1.41,1.42h7.11c-.6-3.4-2.17-6.47-4.42-8.91-1.33-1.43-2.87-2.64-4.6-3.56l7.93-13.78c1.68,.94,3.28,2.03,4.78,3.24,6.84,5.55,11.45,13.74,12.29,23.02h4.25c-.87-10.84-6.32-20.41-14.4-26.74-1.52-1.19-3.13-2.26-4.81-3.21l6.77-11.76c1.28-2.23,3.24-3.51,5.37-3.51s4.09,1.28,5.37,3.51l21.95,38.15Zm-122.52,10.3l-5.58-9.68h-.56v9.68h-6.97v-24.1l6.97-10.86v22.49c1.39-1.7,6.06-8.13,6.06-8.13h8.6l-8.16,8.61,8.44,12.02h-8.8v-.02Zm-22.14-20.54h6.9l-8.09,20.48c-2.41,6.16-5.86,10.32-11.01,10.32-1.98,0-3.65-.51-4.52-1l2.77-4.28c.41,.05,.84,.07,1.27,.07,2.38,0,4.16-2.3,5.32-5.04l-8.49-20.54h7.81l3.05,9.17c.59,1.74,1.02,5.07,1.02,5.07,0,0,.54-3.21,1.11-4.95l2.86-9.28Zm-23.9,20.54v-11.74c0-2.68-1.19-3.95-3.45-3.95-1.11,0-2.26,.31-3.05,.79v14.9h-6.97v-20.35l6.82-.56-.17,3.33h.23c1.47-1.98,3.96-3.47,6.93-3.47,3.57,0,6.65,2.21,6.65,7.42v13.63h-7Zm-25.97,.44c-2.97,0-5.38-.51-7.45-1.5l.63-4.74c2.18,1.07,4.64,1.58,6.7,1.58,1.5,0,2.49-.51,2.49-1.42,0-2.6-9.39-1.98-9.39-8.77,0-4.35,4-6.63,9-6.63,2.49,0,5.07,.67,6.74,1.27l-.68,4.66c-1.75-.67-4.13-1.3-6.11-1.3-1.22,0-2.21,.43-2.21,1.22,0,2.57,9.59,2.06,9.59,8.69,0,4.41-3.93,6.95-9.31,6.95ZM437.79,18c1.42,.12,2.83,.32,4.22,.61,5.46,1.25,10.14,3.94,14.24,7.68,3.77,3.45,6.23,7.71,7.59,12.61,.29,1.04,.7,1.82,1.9,2.03,.67,.12,.77,.79,.78,1.4,0,2.1,0,4.2,0,6.31,0,1.31,0,2.62,0,3.93,0,1.16-.38,1.55-1.51,1.54-.69-.01-.95,.39-1.12,.95-.47,1.59-1.07,3.14-1.79,4.63-2.66,5.47-6.77,9.55-11.99,12.58-.25,.15-.5,.29-.76,.42-.82,.45-.84,.48-.5,1.35,.37,.97,1.17,1.72,2.16,2.03,.87,.31,1.8,.44,2.69,.68,.27,.05,.53,.15,.77,.3-.21,.27-.51,.22-.75,.27-1.17,.23-2.32,.6-3.53,.55-.48,.01-.96-.06-1.42-.21-.37-.15-.5-.02-.57,.36-.18,.99-.27,1.99-.27,2.99-.05,2-.23,4-.37,6-.13,1.94-.06,2.12,1.82,2.74,.91,.3,1.83,.61,2.74,.93,.22,.08,.49,.13,.62,.38-.13,.18-.32,.12-.48,.12-1.6,0-3.2,.01-4.8,0-1.71-.01-2.62-.92-2.75-2.61-.18-2.48-.39-4.95-.59-7.43-.02-.13-.05-.26-.09-.39-.26,1.48-.21,2.86-.27,4.22-.08,1.71-.03,3.43-.02,5.15,0,.88,.28,1.26,1.09,1.57,1.17,.44,2.31,.96,3.62,.85,.46-.04,.9,.2,1.31,.42,.1,.05,.24,.11,.22,.24-.01,.14-.16,.15-.27,.15-2.14-.07-4.28,.21-6.41-.09-1.05-.15-1.73-.77-2.05-1.79-.31-.99-.37-2.01-.44-3.02-.15-2.04-.26-4.07-.38-6.11,.02-.2-.05-.41-.2-.55-.11,.19-.14,.41-.1,.63,0,3.1,0,6.21,0,9.31,0,1.26,.4,1.87,1.61,2.3,1.56,.56,3.17,.97,4.78,1.37,.36,.09,.73,.15,.79,.62h-6.02c-.17-.03-.34-.07-.51-.1-2.28-.33-3.25-1.21-3.71-3.39-.08-.36-.14-.72-.22-1.07-.24-1.2-.49-2.39-.73-3.59-.23,.39-.39,.81-.47,1.26-.27,1.3-.49,2.61-.79,3.9-.37,1.6-1.45,2.48-3.03,2.79-.36,.07-.71,.14-1.07,.2h-6.02c.19-.56,.7-.6,1.16-.72,1.54-.41,3.12-.72,4.61-1.32,.73-.26,1.23-.93,1.29-1.7,.19-1.41,0-2.81-.04-4.21-.05-.35-.13-.69-.25-1.02-.14,.2-.22,.43-.23,.67-.09,.96-.16,1.92-.24,2.88-.12,1.4-.89,2.33-2.21,2.63-.39,.09-.8,.14-1.2,.15-1.81,0-3.63,0-5.44-.02-.16,0-.35,.06-.48-.21,.58-.34,1.22-.55,1.89-.61,1.03-.12,2.05-.33,3.05-.63,1.36-.37,1.7-.81,1.66-2.23-.07-3.02-.29-6.04-.22-9.07,.01-.6,0-1.19,0-1.79-.09,.41-.14,.83-.16,1.25-.1,2.85-.32,5.69-.61,8.53-.17,1.67-.96,2.43-2.61,2.62-1.45,.16-2.89,0-4.33-.07-.35-.02-.76,.04-1.1-.21,.14-.21,.34-.22,.52-.28,1.18-.37,2.36-.73,3.53-1.12,.8-.27,1.14-.77,1.16-1.6,0-.25,0-.5-.01-.75-.18-2.32-.27-4.65-.34-6.98-.02-.52-.05-1.04-.12-1.56-.07-.61-.42-.93-.96-.84-1.64,.3-3.22-.02-4.79-.45-.19-.05-.43-.03-.58-.28,.29-.15,.6-.25,.92-.3,.83-.17,1.65-.39,2.45-.67,1.01-.36,1.83-1.13,2.26-2.12,.29-.66,.18-1.03-.37-1.29-4.61-2.22-8.16-5.62-11.02-9.81-1.65-2.43-2.88-5.12-3.65-7.95-.22-.8-.51-.98-1.24-.85-1,.18-1.3,.02-1.74-.89v-11.34c.47-.99,.67-1.11,1.73-1.07,.76,.03,.8-.02,1.01-.79,1.29-4.9,3.51-9.3,7.06-12.96,4.26-4.41,9.54-6.97,15.44-8.36,1.48-.35,3-.49,4.51-.66h2.78Zm25.92,29.08c.01-1.02-.04-2.04-.16-3.05-.09-.71-.18-1.41-.33-2.11-1.94-9.63-7.62-16.32-16.41-20.37-5.05-2.33-10.43-2.72-15.85-1.66-10.56,2.06-17.54,8.39-21.25,18.37-1.42,3.81-1.61,7.82-1.2,11.86,.28,3.04,1.1,6,2.42,8.75,1.9,3.95,4.7,7.17,8.05,9.94,1.11,.93,2.33,1.71,3.64,2.34,.76,.36,.8,.34,.8-.48,.02-.52,0-1.04-.03-1.56-.41-3.31-.46-6.65-.55-9.98,.02-.46-.21-.9-.6-1.15-1.25-.87-2.32-1.93-2.99-3.31-1.54-3.15-1.21-7.67,2.64-10.45,.44-.32,.71-.62,.64-1.21-.03-.48,0-.96,.1-1.44,.57-3.86,2.43-6.95,5.59-9.23,2.21-1.6,4.69-2.51,7.43-2.54,1.57-.02,3.1,.36,4.6,.79,5.23,1.52,9.25,6.73,9.24,12.02-.05,.72,.28,1.42,.87,1.84,1.51,1.2,2.67,2.7,3.07,4.64,.71,3.5-.27,6.44-3.18,8.56-.86,.63-1.13,1.32-1.08,2.27,0,.15,0,.31,0,.46-.07,1.56-.13,3.12-.2,4.68-.08,1.9-.45,3.79-.38,5.7,.02,.72,.02,.73,.65,.41,2.99-1.5,5.64-3.61,7.78-6.19,4.29-5.13,6.74-10.96,6.69-17.91Zm-37.18,10.25c3.47,.05,6.33-2.73,6.38-6.2,.05-3.47-2.73-6.33-6.2-6.38-.04,0-.08,0-.12,0-3.56-.01-6.35,2.67-6.36,6.11-.01,3.73,2.64,6.45,6.31,6.47Zm18.83,0c3.58,0,6.29-2.68,6.29-6.23,0-3.55-2.75-6.34-6.24-6.33-3.46,0-6.31,2.81-6.32,6.22,0,3.59,2.7,6.33,6.26,6.33h0Zm-4.78,6.29c-.68,.42-1.32,.9-2.05,1.25-1.74,.83-3.46,.84-5.13-.16-.51-.3-1-.65-1.51-.97-.15-.09-.3-.34-.49-.2-.14,.1-.03,.32,0,.49,.12,.58,.21,1.17,.27,1.77,.09,1.84,.95,3.22,2.41,4.26,.73,.56,1.66,.78,2.57,.6,1.84-.38,3.33-2,3.65-3.96,.14-.87,.01-1.77,.36-2.61,.07-.16,.04-.35-.08-.47h0Zm-28.54-15.99c-.04-3.58,.46-6.68,1.75-9.62,2.06-4.69,5.34-8.3,9.68-10.96,.49-.28,1.1-.19,1.49,.22,.2,.2,.12,.38,.03,.58-.32,.71-.87,1.29-1.56,1.65-3.51,2.08-5.94,5.11-7.66,8.74-1.45,3.02-2.15,6.35-2.01,9.7,.18,4.25,1.43,8.18,3.94,11.66,.29,.34,.48,.75,.56,1.19,.03,.26,.19,.55-.1,.74-.27,.2-.62,.25-.94,.14-.31-.12-.57-.33-.76-.6-2.34-3.18-3.88-6.68-4.32-10.64-.12-1.06-.02-2.12-.12-2.79Zm12.4,2.28c-.04-1.09,.82-2.01,1.91-2.05,1.23,0,2.18,.88,2.19,2.06,.01,1.15-.88,2.02-2.08,2.02-1.24,0-2.02-.78-2.02-2.02Zm21.12,2.02c-1.24,0-2.03-.83-2.02-2.1,.03-1.07,.87-1.93,1.93-1.99,1.18-.02,2.15,.91,2.18,2.09,0,1.15-.9,2.01-2.09,2ZM164.99,486.79v-12.76h5.67v18.43h-42.51v-18.43h5.67v12.76h31.17Zm-4.25-9.93l1.13-4.25-22.81-4.68-.99,4.68,22.67,4.25Zm-19.55-15.31l21.25,9.93,1.98-4.25-21.25-9.92-1.98,4.25Zm5.95-10.49l17.85,15.03,2.98-3.54-17.99-15.03-2.98,3.54h.14Zm11.48-11.06l-3.83,2.84,14.03,18.86,3.82-2.84-14.03-18.86Zm-20.55,42.54h22.67v-4.25h-22.67v4.25Zm67.65-53.36c.45,.31,.57,.94,.25,1.39l-18,26c-.19,.28-.51,.43-.82,.43-.2,0-.39-.06-.57-.18-.45-.31-.57-.94-.25-1.39l18-26c.31-.45,.94-.57,1.39-.25ZM307.1,86.34l-10,28c-.15,.41-.53,.66-.94,.66-.11,0-.23-.02-.34-.06-.52-.19-.79-.76-.61-1.28l10-28c.19-.52,.76-.79,1.28-.61,.52,.19,.79,.76,.61,1.28Zm5.99,360.29c.21,.51-.04,1.09-.56,1.3-.12,.05-.25,.07-.37,.07-.4,0-.77-.24-.93-.63l-8-20c-.21-.51,.04-1.09,.56-1.3,.51-.21,1.09,.04,1.3,.56l8,20ZM388.6,114.83c-.46-.31-.58-.93-.28-1.39l16-24c.31-.46,.93-.58,1.39-.28,.46,.31,.58,.93,.28,1.39l-16,24c-.19,.29-.51,.45-.83,.45-.19,0-.38-.05-.55-.17Zm25.32,335.81c-.2,.24-.48,.36-.77,.36-.22,0-.45-.08-.64-.23l-35-29c-.43-.35-.48-.98-.13-1.41,.35-.43,.98-.49,1.41-.13l35,29c.43,.35,.48,.98,.13,1.41ZM189.17,115.2l-10-50c-.11-.54,.24-1.07,.78-1.18,.54-.11,1.07,.24,1.18,.78l10,50c.11,.54-.24,1.07-.78,1.18-.07,.01-.13,.02-.2,.02-.47,0-.88-.33-.98-.8Zm-91.76,4.48l-21-23c-.37-.41-.34-1.04,.06-1.41,.41-.37,1.04-.34,1.41,.06l21,23c.37,.41,.34,1.04-.06,1.41-.19,.18-.43,.26-.67,.26-.27,0-.54-.11-.74-.33Zm12.59,307.8c.29,.47,.15,1.09-.32,1.38l-29,18c-.16,.1-.35,.15-.53,.15-.33,0-.66-.17-.85-.47-.29-.47-.15-1.09,.32-1.38l29-18c.47-.29,1.08-.15,1.38,.32Z"/><rect class="cls-8" x="83.15" y="299" width="11.5" height="11.5" rx="3.57" ry="3.57"/><rect class="cls-12" x="83.15" y="326.2" width="11.5" height="11.5" rx="3.57" ry="3.57"/><rect class="cls-13" x="83.15" y="360.5" width="58.5" height="22" rx="5.79" ry="5.79"/><g><path class="cls-5" d="M101.58,375.22c-.55,0-1.11-.1-1.66-.31-.55-.21-1.04-.51-1.48-.91l1.09-1.31c.3,.26,.64,.47,1.01,.64,.37,.17,.73,.25,1.08,.25,.4,0,.7-.07,.89-.22,.2-.15,.29-.35,.29-.6,0-.27-.11-.46-.33-.59-.22-.13-.52-.27-.89-.42l-1.1-.47c-.29-.12-.56-.28-.82-.49-.26-.2-.47-.46-.64-.76s-.25-.66-.25-1.07c0-.47,.13-.89,.38-1.27,.26-.38,.61-.68,1.07-.91,.45-.23,.98-.34,1.57-.34,.49,0,.97,.1,1.46,.29,.49,.19,.91,.47,1.27,.83l-.98,1.21c-.28-.22-.55-.38-.83-.5s-.58-.18-.92-.18-.59,.07-.79,.2c-.19,.13-.29,.32-.29,.57,0,.26,.12,.46,.37,.58s.55,.27,.92,.42l1.09,.44c.51,.21,.92,.49,1.22,.86,.3,.36,.46,.84,.46,1.44,0,.47-.13,.9-.38,1.3-.25,.4-.62,.72-1.09,.96s-1.05,.36-1.73,.36Z"/><path class="cls-5" d="M107.82,375.22c-.59,0-1.06-.19-1.4-.57s-.52-.84-.52-1.38c0-.68,.29-1.2,.86-1.59,.57-.38,1.5-.64,2.77-.77-.02-.29-.1-.51-.25-.68-.15-.17-.41-.25-.76-.25-.27,0-.54,.05-.82,.16-.28,.1-.57,.25-.88,.43l-.69-1.26c.41-.25,.84-.46,1.31-.61,.46-.16,.95-.23,1.45-.23,.82,0,1.46,.24,1.9,.71s.66,1.21,.66,2.2v3.69h-1.56l-.13-.66h-.05c-.27,.24-.56,.44-.86,.59s-.64,.23-1.01,.23Zm.65-1.48c.22,0,.4-.05,.57-.15,.16-.1,.32-.23,.49-.4v-1.13c-.68,.09-1.14,.22-1.4,.41-.26,.19-.39,.41-.39,.66,0,.21,.07,.36,.2,.46,.13,.1,.31,.15,.54,.15Z"/><path class="cls-5" d="M114.65,375.06l-2.17-6.45h1.92l.83,3.04c.09,.32,.17,.65,.25,.98,.08,.33,.17,.67,.25,1.01h.05c.08-.34,.16-.67,.24-1.01,.08-.33,.17-.66,.25-.98l.85-3.04h1.83l-2.11,6.45h-2.21Z"/><path class="cls-5" d="M122.88,375.22c-.62,0-1.17-.13-1.66-.4-.49-.27-.88-.65-1.17-1.16-.29-.5-.43-1.11-.43-1.82s.15-1.3,.44-1.81c.29-.5,.67-.89,1.14-1.16,.47-.27,.96-.41,1.47-.41,.62,0,1.12,.14,1.53,.41,.4,.27,.71,.64,.91,1.1,.2,.46,.31,.99,.31,1.58,0,.16,0,.33-.03,.49-.02,.16-.03,.28-.05,.36h-3.86c.09,.47,.28,.81,.58,1.03,.3,.22,.67,.33,1.09,.33,.46,0,.92-.14,1.39-.43l.64,1.16c-.33,.23-.7,.4-1.1,.53-.41,.13-.8,.2-1.18,.2Zm-1.43-4.08h2.33c0-.36-.08-.65-.25-.88s-.44-.34-.83-.34c-.29,0-.56,.1-.79,.31-.23,.2-.39,.51-.46,.92Z"/></g></svg>