<?xml version="1.0" encoding="UTF-8"?><svg id="Layer_1" xmlns="http://www.w3.org/2000/svg" xmlns:xlink="http://www.w3.org/1999/xlink" viewBox="0 0 495.19 497.59"><defs><style>.cls-1{fill:url(#linear-gradient);}.cls-2{clip-path:url(#clippath);}.cls-3{fill:#f7f7f7;}.cls-4{fill:#f2f2f2;}.cls-5{fill:#fff;}.cls-6{fill:#ee7320;}.cls-7{fill:#326de6;}.cls-8{fill:#c1272d;}.cls-9{fill:#111827;}.cls-10{fill:#22b573;}.cls-11{fill:none;stroke:#111827;stroke-linecap:round;stroke-miterlimit:10;}</style><linearGradient id="linear-gradient" x1="142.16" y1="233.99" x2="359.39" y2="16.76" gradientTransform="matrix(1, 0, 0, 1, 0, 0)" gradientUnits="userSpaceOnUse"><stop offset="0" stop-color="#ee7320"/><stop offset="1" stop-color="#e9580c"/></linearGradient><clipPath id="clippath"><path class="cls-6" d="M61.08,129.02v-.37l4.11-2.37-1.06-.61-3.06,1.76v-.37l4.09-2.36-1.06-.61-3.03,1.75v-.37l4.13-2.38-4.13-2.38-4.11,2.38v4.75l4.11,2.38,4.13-2.38-1.05-.61-3.08,1.77Z"/></clipPath></defs><rect class="cls-4" x="15.3" y="79" width="467" height="327.92" rx="22.45" ry="22.45"/><rect class="cls-5" x="90.32" y="184" width="357.84" height="192" rx="7.06" ry="7.06"/><g><rect class="cls-1" x="49.25" y="109.68" width="403.06" height="31.39"/><g><rect class="cls-9" x="49.75" y="110.18" width="22.11" height="263.93"/><path class="cls-9" d="M71.36,110.68V373.61h-21.11V110.68h21.11m1-1h-23.11V374.61h23.11V109.68h0Z"/></g><g><path class="cls-6" d="M61.08,129.02v-.37l4.11-2.37-1.06-.61-3.06,1.76v-.37l4.09-2.36-1.06-.61-3.03,1.75v-.37l4.13-2.38-4.13-2.38-4.11,2.38v4.75l4.11,2.38,4.13-2.38-1.05-.61-3.08,1.77Z"/><g class="cls-2"><rect class="cls-6" x="55.71" y="118.53" width="9.21" height="12.99" transform="translate(-78.21 116.04) rotate(-60.54)"/></g></g></g><g><path class="cls-9" d="M91.03,166.66v-3.48l-2.96-6.3h2.37l.87,2.25c.14,.37,.27,.73,.4,1.07,.13,.35,.26,.71,.39,1.09h.06c.14-.38,.28-.74,.42-1.09,.14-.34,.28-.7,.41-1.07l.88-2.25h2.31l-2.96,6.3v3.48h-2.21Z"/><path class="cls-9" d="M99.57,166.84c-.63,0-1.22-.15-1.78-.46-.56-.31-1-.75-1.34-1.33s-.51-1.29-.51-2.11,.17-1.53,.51-2.11,.79-1.02,1.34-1.33c.55-.3,1.15-.46,1.78-.46s1.22,.15,1.77,.46c.55,.31,1,.75,1.33,1.33s.51,1.29,.51,2.11-.17,1.52-.51,2.11-.79,1.03-1.33,1.33c-.55,.3-1.14,.46-1.77,.46Zm0-1.79c.45,0,.79-.19,1.02-.58,.23-.38,.35-.9,.35-1.54s-.12-1.16-.35-1.54c-.23-.38-.57-.57-1.02-.57s-.8,.19-1.03,.57c-.23,.38-.34,.9-.34,1.54s.11,1.15,.34,1.54c.22,.38,.57,.58,1.03,.58Z"/><path class="cls-9" d="M107.08,166.84c-.81,0-1.4-.27-1.76-.8-.37-.53-.55-1.27-.55-2.2v-4.62h2.21v4.33c0,.53,.08,.9,.23,1.1,.15,.21,.38,.31,.71,.31,.28,0,.51-.06,.71-.2,.19-.13,.39-.34,.61-.63v-4.92h2.21v7.44h-1.8l-.17-1.04h-.04c-.31,.37-.65,.67-1.02,.88-.37,.22-.81,.33-1.32,.33Z"/><path class="cls-9" d="M113.52,166.66v-7.44h1.8l.15,1.31h.06c.27-.5,.59-.87,.97-1.12s.76-.37,1.14-.37c.21,0,.38,.01,.52,.04,.14,.03,.26,.06,.36,.11l-.36,1.91c-.13-.04-.26-.07-.38-.09-.13-.02-.27-.03-.43-.03-.28,0-.57,.1-.88,.31s-.56,.56-.76,1.06v4.32h-2.21Z"/><path class="cls-9" d="M126.03,166.84c-.69,0-1.31-.15-1.87-.46-.55-.31-1-.75-1.32-1.33-.32-.58-.49-1.29-.49-2.11s.18-1.53,.54-2.11c.36-.58,.83-1.02,1.42-1.33,.59-.3,1.23-.46,1.91-.46,.46,0,.87,.08,1.22,.22,.35,.15,.67,.34,.95,.57l-1.04,1.42c-.35-.29-.68-.43-1-.43-.53,0-.95,.19-1.27,.57-.31,.38-.47,.9-.47,1.54s.16,1.15,.47,1.54c.32,.38,.71,.58,1.19,.58,.24,0,.47-.05,.7-.16,.23-.11,.44-.23,.63-.38l.87,1.44c-.37,.32-.77,.55-1.2,.68-.43,.13-.85,.2-1.26,.2Z"/><path class="cls-9" d="M131.97,166.84c-.76,0-1.29-.23-1.58-.68s-.44-1.06-.44-1.81v-8.21h2.21v8.29c0,.23,.04,.39,.13,.48s.17,.13,.26,.13c.05,0,.09,0,.13,0s.08-.01,.14-.02l.27,1.63c-.12,.05-.27,.09-.46,.13-.19,.04-.4,.05-.65,.05Z"/><path class="cls-9" d="M136.62,166.84c-.81,0-1.4-.27-1.76-.8-.36-.53-.55-1.27-.55-2.2v-4.62h2.21v4.33c0,.53,.08,.9,.22,1.1,.15,.21,.38,.31,.71,.31,.28,0,.51-.06,.71-.2,.19-.13,.39-.34,.62-.63v-4.92h2.21v7.44h-1.8l-.16-1.04h-.05c-.31,.37-.65,.67-1.02,.88s-.81,.33-1.32,.33Z"/><path class="cls-9" d="M145.24,166.84c-.49,0-.99-.09-1.51-.29-.51-.19-.96-.44-1.34-.75l.99-1.38c.34,.25,.67,.44,.98,.58,.32,.14,.63,.2,.94,.2,.33,0,.57-.06,.72-.17,.15-.11,.23-.27,.23-.46,0-.17-.07-.31-.22-.42-.14-.11-.33-.21-.56-.31s-.47-.19-.74-.29c-.3-.12-.6-.27-.89-.45-.3-.18-.54-.41-.74-.7s-.3-.63-.3-1.04c0-.69,.26-1.25,.79-1.68,.53-.43,1.21-.64,2.06-.64,.57,0,1.07,.1,1.51,.29,.44,.2,.81,.41,1.12,.65l-.99,1.32c-.26-.2-.52-.35-.78-.46-.26-.11-.52-.17-.78-.17-.57,0-.85,.2-.85,.58,0,.24,.14,.42,.43,.55,.29,.12,.62,.26,1,.4,.32,.11,.63,.25,.94,.43,.3,.17,.56,.4,.76,.69s.31,.66,.31,1.12c0,.67-.26,1.24-.78,1.7-.52,.46-1.28,.7-2.28,.7Z"/><path class="cls-9" d="M152.41,166.84c-.92,0-1.58-.26-1.97-.79-.4-.53-.59-1.22-.59-2.08v-3.01h-1.02v-1.64l1.14-.09,.25-1.98h1.83v1.98h1.79v1.73h-1.79v2.98c0,.42,.09,.72,.26,.91,.17,.18,.41,.28,.7,.28,.12,0,.24-.02,.37-.04,.12-.03,.24-.07,.34-.11l.35,1.61c-.19,.06-.42,.12-.7,.18-.27,.06-.59,.09-.95,.09Z"/><path class="cls-9" d="M158.5,166.84c-.71,0-1.35-.16-1.92-.46s-1.02-.75-1.35-1.33-.5-1.28-.5-2.1,.17-1.5,.5-2.08c.33-.58,.77-1.03,1.31-1.34,.54-.32,1.11-.47,1.7-.47,.71,0,1.3,.16,1.76,.47,.46,.31,.81,.74,1.05,1.27,.23,.54,.35,1.14,.35,1.82,0,.19,0,.38-.03,.56-.02,.18-.04,.32-.06,.41h-4.46c.1,.54,.32,.94,.67,1.19,.35,.25,.77,.38,1.26,.38,.53,0,1.07-.17,1.61-.5l.73,1.33c-.38,.26-.8,.46-1.27,.62-.47,.15-.92,.22-1.37,.22Zm-1.65-4.71h2.69c0-.41-.1-.75-.29-1.01-.19-.26-.51-.4-.95-.4-.34,0-.64,.12-.92,.35-.27,.24-.45,.59-.53,1.06Z"/><path class="cls-9" d="M163.09,166.66v-7.44h1.8l.15,1.31h.06c.27-.5,.6-.87,.98-1.12s.76-.37,1.14-.37c.21,0,.38,.01,.53,.04,.14,.03,.26,.06,.36,.11l-.36,1.91c-.13-.04-.26-.07-.38-.09-.12-.02-.27-.03-.43-.03-.28,0-.57,.1-.88,.31-.31,.21-.56,.56-.76,1.06v4.32h-2.21Z"/><path class="cls-9" d="M171.28,166.84c-.49,0-.99-.09-1.51-.29-.52-.19-.96-.44-1.34-.75l.99-1.38c.34,.25,.67,.44,.98,.58,.31,.14,.63,.2,.94,.2,.33,0,.57-.06,.72-.17,.15-.11,.22-.27,.22-.46,0-.17-.07-.31-.22-.42-.15-.11-.33-.21-.56-.31-.23-.09-.48-.19-.74-.29-.3-.12-.6-.27-.89-.45-.29-.18-.54-.41-.74-.7-.2-.29-.3-.63-.3-1.04,0-.69,.26-1.25,.79-1.68,.53-.43,1.21-.64,2.06-.64,.57,0,1.07,.1,1.51,.29,.43,.2,.81,.41,1.12,.65l-.99,1.32c-.26-.2-.52-.35-.78-.46-.26-.11-.52-.17-.78-.17-.57,0-.86,.2-.86,.58,0,.24,.14,.42,.43,.55s.62,.26,1,.4c.32,.11,.63,.25,.94,.43,.31,.17,.56,.4,.77,.69s.31,.66,.31,1.12c0,.67-.26,1.24-.78,1.7-.52,.46-1.28,.7-2.28,.7Z"/></g><g><path class="cls-9" d="M106.59,203.81c-.54,0-1.04-.12-1.48-.37-.44-.24-.79-.6-1.04-1.06s-.38-1.01-.38-1.66,.13-1.19,.39-1.66c.26-.46,.6-.82,1.01-1.07s.85-.37,1.31-.37c.54,0,.98,.12,1.34,.35,.36,.24,.63,.56,.82,.98,.18,.42,.28,.91,.28,1.46,0,.29-.02,.51-.06,.67h-3.74c.06,.52,.25,.92,.56,1.21,.31,.29,.7,.43,1.18,.43,.26,0,.49-.04,.71-.11,.22-.08,.44-.18,.65-.32l.47,.86c-.28,.18-.59,.34-.94,.46s-.7,.18-1.08,.18Zm-1.57-3.65h2.62c0-.46-.1-.81-.3-1.07s-.5-.39-.9-.39c-.34,0-.65,.13-.92,.38-.27,.25-.43,.61-.5,1.09Z"/><path class="cls-9" d="M112.03,203.81c-.63,0-1.09-.2-1.38-.61-.29-.41-.43-.98-.43-1.73v-3.7h1.38v3.52c0,.49,.07,.83,.22,1.03,.14,.2,.38,.3,.7,.3,.26,0,.48-.06,.68-.19,.2-.13,.41-.34,.63-.62v-4.03h1.38v5.89h-1.13l-.11-.86h-.04c-.26,.3-.54,.55-.84,.73-.3,.18-.66,.28-1.06,.28Z"/><path class="cls-9" d="M116.7,201.14v-1.01h2.86v1.01h-2.86Z"/><path class="cls-9" d="M121.07,203.66v-1.13h1.7v-5.02h-1.4v-.86c.38-.07,.7-.16,.98-.26,.28-.1,.54-.22,.78-.37h1.03v6.5h1.5v1.13h-4.6Z"/></g><g><path class="cls-9" d="M106.41,233.77c-.53,0-1-.12-1.42-.35s-.75-.58-.99-1.03-.36-1-.36-1.65,.12-1.19,.37-1.65,.58-.81,1-1.05,.89-.36,1.41-.36c.42,0,.78,.08,1.07,.23s.53,.33,.72,.52l-.56,.67c-.15-.14-.32-.27-.5-.36-.18-.1-.41-.15-.69-.15-.52,0-.94,.19-1.26,.57s-.48,.9-.48,1.56,.15,1.2,.46,1.58c.31,.38,.75,.57,1.34,.57,.17,0,.33-.02,.48-.07,.15-.04,.27-.11,.37-.19v-1.27h-1.12v-.86h2.05v2.59c-.2,.2-.46,.37-.79,.5-.33,.13-.69,.2-1.09,.2Z"/><path class="cls-9" d="M110.67,233.77c-.38,0-.7-.12-.94-.36-.24-.24-.37-.55-.37-.94,0-.47,.21-.84,.62-1.1,.41-.26,1.07-.44,1.98-.54,0-.23-.07-.44-.18-.61s-.33-.26-.63-.26c-.22,0-.43,.04-.63,.13s-.41,.19-.61,.31l-.38-.69c.25-.16,.52-.29,.83-.41,.31-.11,.64-.17,.99-.17,.55,0,.96,.16,1.24,.49,.27,.33,.41,.8,.41,1.42v2.62h-.86l-.07-.49h-.04c-.2,.17-.41,.31-.63,.42-.23,.11-.47,.17-.73,.17Zm.33-.81c.18,0,.34-.04,.49-.13,.15-.09,.3-.21,.47-.36v-.99c-.6,.08-1.02,.19-1.25,.35-.23,.15-.35,.34-.35,.56,0,.2,.06,.34,.18,.43s.27,.13,.46,.13Z"/><path class="cls-9" d="M115.75,233.77c-.51,0-.87-.15-1.08-.45s-.32-.68-.32-1.16v-2.11h-.63v-.77l.68-.04,.13-1.21h.86v1.21h1.12v.82h-1.12v2.11c0,.52,.21,.77,.62,.77,.08,0,.16,0,.24-.03,.08-.02,.16-.04,.22-.07l.18,.76c-.12,.04-.26,.08-.41,.11-.15,.03-.32,.05-.49,.05Z"/><path class="cls-9" d="M119.27,233.77c-.41,0-.78-.09-1.11-.27-.33-.18-.59-.45-.78-.79-.19-.34-.29-.76-.29-1.25s.1-.89,.29-1.24,.45-.62,.76-.8c.31-.19,.64-.28,.98-.28,.4,0,.74,.09,1.01,.27,.27,.18,.47,.42,.61,.74,.14,.31,.21,.68,.21,1.09,0,.22-.01,.38-.04,.5h-2.81c.05,.39,.19,.69,.42,.91,.23,.22,.53,.32,.88,.32,.19,0,.37-.03,.54-.08,.17-.06,.33-.14,.49-.24l.35,.65c-.21,.14-.44,.25-.7,.34s-.53,.13-.81,.13Zm-1.18-2.74h1.96c0-.34-.08-.61-.23-.81-.15-.2-.38-.29-.67-.29-.26,0-.49,.09-.69,.28-.2,.19-.33,.46-.37,.81Z"/><path class="cls-9" d="M122.76,233.66l-1.17-4.42h1.04l.53,2.29c.05,.21,.09,.42,.12,.63s.07,.42,.11,.64h.04c.04-.22,.09-.43,.13-.64s.09-.42,.15-.62l.58-2.29h.94l.58,2.29c.05,.21,.11,.42,.15,.63s.1,.42,.14,.64h.04c.04-.22,.08-.43,.12-.64s.08-.42,.12-.63l.53-2.29h.97l-1.12,4.42h-1.23l-.51-2.06c-.05-.21-.09-.42-.13-.62s-.09-.43-.13-.66h-.04c-.04,.23-.08,.46-.13,.67-.04,.21-.09,.42-.13,.63l-.5,2.05h-1.19Z"/><path class="cls-9" d="M129.84,233.77c-.38,0-.7-.12-.94-.36s-.36-.55-.36-.94c0-.47,.21-.84,.62-1.1,.41-.26,1.07-.44,1.98-.54,0-.23-.07-.44-.18-.61-.12-.17-.33-.26-.62-.26-.22,0-.43,.04-.63,.13s-.41,.19-.61,.31l-.38-.69c.25-.16,.52-.29,.83-.41,.31-.11,.64-.17,.99-.17,.55,0,.96,.16,1.24,.49,.27,.33,.41,.8,.41,1.42v2.62h-.85l-.07-.49h-.04c-.2,.17-.41,.31-.63,.42-.22,.11-.47,.17-.73,.17Zm.33-.81c.18,0,.34-.04,.49-.13,.15-.09,.3-.21,.47-.36v-.99c-.6,.08-1.02,.19-1.25,.35-.23,.15-.35,.34-.35,.56,0,.2,.06,.34,.18,.43s.27,.13,.46,.13Z"/><path class="cls-9" d="M133.8,235.48c-.12,0-.22,0-.31-.03-.09-.02-.18-.04-.26-.06l.19-.81s.09,.03,.15,.04c.06,.02,.11,.02,.17,.02,.23,0,.42-.07,.56-.21s.25-.32,.32-.54l.08-.28-1.74-4.36h1.05l.76,2.17c.07,.19,.13,.39,.19,.61,.06,.21,.13,.42,.19,.63h.04c.05-.2,.11-.41,.17-.63s.11-.42,.17-.62l.67-2.17h1l-1.6,4.62c-.19,.5-.41,.89-.67,1.18-.26,.29-.64,.44-1.12,.44Z"/><path class="cls-9" d="M140.03,233.66v-5.89h1.85c.44,0,.83,.06,1.17,.17,.34,.11,.61,.3,.81,.57,.2,.26,.3,.62,.3,1.08,0,.43-.1,.79-.3,1.07-.2,.28-.47,.49-.8,.63s-.72,.21-1.14,.21h-.85v2.16h-1.04Zm1.04-3h.76c.86,0,1.3-.36,1.3-1.07,0-.37-.11-.63-.34-.77-.23-.14-.56-.21-1-.21h-.73v2.05Z"/><path class="cls-9" d="M145.26,233.66v-4.42h.86l.07,.78h.04c.16-.29,.34-.51,.57-.66,.22-.15,.45-.23,.68-.23,.21,0,.38,.03,.5,.09l-.18,.9c-.08-.02-.15-.04-.22-.05-.07-.01-.15-.02-.24-.02-.17,0-.36,.07-.55,.2-.19,.14-.36,.37-.5,.71v2.7h-1.04Z"/><path class="cls-9" d="M150.43,233.77c-.37,0-.71-.09-1.03-.27-.32-.18-.58-.45-.77-.79-.2-.34-.3-.76-.3-1.25s.1-.91,.3-1.26c.2-.34,.46-.61,.77-.79,.32-.18,.66-.27,1.03-.27s.72,.09,1.04,.27c.32,.18,.58,.45,.77,.79,.2,.35,.3,.76,.3,1.26s-.1,.9-.3,1.25c-.2,.35-.46,.61-.77,.79-.32,.18-.66,.27-1.04,.27Zm0-.85c.32,0,.58-.13,.76-.41,.19-.27,.28-.62,.28-1.06s-.09-.8-.28-1.07c-.19-.27-.44-.41-.76-.41s-.58,.14-.76,.41c-.18,.27-.27,.63-.27,1.07s.09,.79,.27,1.06c.18,.27,.44,.41,.76,.41Z"/><path class="cls-9" d="M152.92,233.66l1.4-2.3-1.31-2.11h1.12l.5,.84c.07,.12,.13,.24,.2,.37,.07,.13,.14,.25,.2,.37h.04c.05-.12,.11-.25,.17-.37,.06-.13,.12-.25,.17-.37l.42-.84h1.07l-1.31,2.23,1.4,2.19h-1.12l-.54-.87c-.07-.13-.15-.26-.22-.4-.08-.13-.15-.26-.23-.39h-.04c-.06,.13-.12,.25-.19,.38s-.13,.26-.2,.4l-.47,.87h-1.08Z"/><path class="cls-9" d="M158.1,235.48c-.12,0-.22,0-.31-.03-.09-.02-.18-.04-.26-.06l.19-.81s.09,.03,.15,.04c.06,.02,.11,.02,.17,.02,.23,0,.42-.07,.56-.21s.25-.32,.32-.54l.08-.28-1.74-4.36h1.05l.76,2.17c.07,.19,.13,.39,.19,.61,.06,.21,.13,.42,.19,.63h.04c.05-.2,.11-.41,.17-.63s.11-.42,.17-.62l.67-2.17h1l-1.6,4.62c-.19,.5-.41,.89-.67,1.18-.26,.29-.64,.44-1.12,.44Z"/><path class="cls-9" d="M163.56,233.66l1.92-5.89h1.22l1.92,5.89h-1.1l-.46-1.59h-1.98l-.46,1.59h-1.06Zm1.97-3.13l-.21,.72h1.5l-.21-.72c-.1-.31-.19-.63-.27-.96-.09-.33-.17-.66-.26-.98h-.04c-.08,.33-.16,.66-.25,.99s-.18,.65-.27,.96Z"/><path class="cls-9" d="M169.44,233.66v-5.89h1.85c.44,0,.83,.06,1.17,.17,.34,.11,.61,.3,.81,.57,.2,.26,.3,.62,.3,1.08,0,.43-.1,.79-.3,1.07s-.46,.49-.8,.63-.72,.21-1.14,.21h-.85v2.16h-1.04Zm1.04-3h.77c.86,0,1.3-.36,1.3-1.07,0-.37-.11-.63-.34-.77-.22-.14-.56-.21-.99-.21h-.73v2.05Z"/><path class="cls-9" d="M174.77,233.66v-5.89h1.04v5.89h-1.04Z"/></g><g><path class="cls-9" d="M103.88,244.66v-4.61h1.07c.48,0,.87,.09,1.18,.28,.31,.19,.54,.45,.69,.79s.23,.74,.23,1.21-.08,.87-.23,1.22-.38,.62-.69,.81c-.31,.19-.7,.29-1.17,.29h-1.08Zm.32-.27h.71c.42,0,.76-.09,1.03-.26,.26-.17,.46-.42,.58-.72,.12-.31,.19-.66,.19-1.06s-.06-.75-.19-1.05-.32-.54-.58-.71c-.26-.17-.61-.25-1.03-.25h-.71v4.07Z"/><path class="cls-9" d="M109.42,244.75c-.29,0-.54-.07-.78-.21-.24-.14-.42-.34-.56-.61-.14-.26-.21-.58-.21-.94s.07-.69,.21-.95c.14-.26,.32-.47,.55-.61,.22-.14,.46-.21,.71-.21,.4,0,.72,.14,.94,.41s.34,.65,.34,1.15c0,.04,0,.08,0,.13,0,.04,0,.08-.02,.13h-2.42c0,.28,.06,.53,.16,.75,.11,.22,.25,.39,.44,.52,.19,.13,.41,.19,.66,.19,.18,0,.35-.03,.49-.08,.15-.06,.28-.13,.41-.22l.13,.24c-.13,.08-.28,.15-.44,.22-.16,.07-.37,.11-.62,.11Zm-1.24-1.97h2.14c0-.43-.09-.75-.27-.97s-.42-.32-.72-.32c-.19,0-.37,.05-.54,.15-.17,.1-.3,.25-.42,.44s-.18,.42-.2,.69Z"/><path class="cls-9" d="M111.59,246.18v-4.88h.27l.03,.42h.02c.16-.13,.34-.25,.54-.35,.2-.1,.4-.15,.6-.15,.45,0,.78,.16,1.01,.47,.22,.31,.34,.73,.34,1.25,0,.38-.07,.7-.21,.97s-.32,.48-.54,.62c-.22,.14-.47,.22-.73,.22-.16,0-.32-.04-.49-.11s-.34-.17-.52-.3v1.85h-.31Zm1.3-1.71c.23,0,.43-.07,.61-.2,.18-.13,.31-.31,.41-.54,.1-.23,.15-.5,.15-.8,0-.28-.04-.52-.11-.74s-.18-.39-.34-.51-.36-.19-.62-.19c-.17,0-.34,.05-.52,.14s-.37,.23-.58,.41v2c.19,.16,.37,.27,.54,.34,.17,.07,.32,.1,.45,.1Z"/><path class="cls-9" d="M115.88,244.75c-.28,0-.41-.18-.41-.53v-4.58h.31v4.63c0,.14,.05,.22,.15,.22,.01,0,.03,0,.05,0,.02,0,.04,0,.08-.01l.06,.25s-.06,.02-.1,.02c-.03,0-.07,.01-.13,.01Z"/><path class="cls-9" d="M118.42,244.75c-.27,0-.51-.07-.74-.21s-.41-.34-.55-.6-.21-.58-.21-.95,.07-.7,.21-.96,.32-.46,.55-.6,.48-.21,.74-.21,.52,.07,.75,.21,.41,.34,.55,.6c.14,.26,.21,.58,.21,.96s-.07,.68-.21,.95c-.14,.26-.32,.46-.55,.6s-.48,.21-.75,.21Zm0-.27c.23,0,.43-.06,.61-.19,.18-.13,.32-.3,.42-.52,.11-.22,.16-.48,.16-.77s-.05-.56-.16-.78c-.1-.22-.25-.4-.42-.53-.18-.13-.38-.19-.61-.19s-.43,.06-.61,.19-.32,.3-.42,.53c-.1,.22-.15,.49-.15,.78s.05,.55,.15,.77,.24,.4,.42,.52,.38,.19,.61,.19Z"/><path class="cls-9" d="M120.88,246.2c-.13,0-.24-.02-.34-.07l.07-.27s.08,.03,.13,.04c.05,.01,.1,.02,.14,.02,.21,0,.38-.08,.52-.25,.14-.17,.25-.38,.34-.64l.09-.29-1.38-3.42h.34l.81,2.11c.05,.14,.11,.29,.17,.46s.13,.33,.19,.48h.03c.05-.15,.1-.31,.16-.48,.05-.17,.1-.32,.15-.46l.72-2.11h.31l-1.33,3.78c-.06,.19-.14,.37-.24,.54-.1,.17-.22,.31-.37,.42s-.32,.16-.52,.16Z"/><path class="cls-9" d="M124.14,244.66v-3.36h.27l.03,.52h.02c.15-.17,.32-.32,.5-.43s.37-.17,.56-.17c.27,0,.48,.06,.62,.19s.25,.29,.31,.5c.19-.21,.38-.38,.57-.5,.19-.12,.38-.19,.57-.19,.67,0,1.01,.43,1.01,1.29v2.16h-.32v-2.11c0-.7-.25-1.05-.75-1.05-.3,0-.63,.21-1.01,.63v2.53h-.31v-2.11c0-.36-.06-.62-.18-.79-.12-.17-.31-.25-.57-.25-.3,0-.63,.21-1.01,.63v2.53h-.31Z"/><path class="cls-9" d="M131.16,244.75c-.28,0-.54-.07-.78-.21-.24-.14-.42-.34-.56-.61s-.21-.58-.21-.94,.07-.69,.21-.95,.32-.47,.55-.61c.22-.14,.46-.21,.71-.21,.4,0,.72,.14,.95,.41s.34,.65,.34,1.15c0,.04,0,.08,0,.13,0,.04,0,.08-.02,.13h-2.42c0,.28,.06,.53,.16,.75,.11,.22,.25,.39,.44,.52,.19,.13,.41,.19,.66,.19,.18,0,.35-.03,.49-.08,.15-.06,.28-.13,.41-.22l.13,.24c-.13,.08-.28,.15-.44,.22-.16,.07-.37,.11-.62,.11Zm-1.24-1.97h2.14c0-.43-.09-.75-.27-.97-.18-.21-.42-.32-.72-.32-.19,0-.37,.05-.54,.15-.17,.1-.3,.25-.42,.44-.11,.19-.18,.42-.2,.69Z"/><path class="cls-9" d="M133.34,244.66v-3.36h.27l.03,.52h.02c.17-.17,.35-.32,.54-.43s.39-.17,.62-.17c.35,0,.6,.11,.77,.32,.17,.21,.25,.54,.25,.97v2.16h-.31v-2.11c0-.36-.06-.62-.18-.79-.12-.17-.32-.25-.59-.25-.2,0-.38,.05-.55,.16-.16,.11-.35,.26-.55,.47v2.53h-.31Z"/><path class="cls-9" d="M138.05,244.75c-.33,0-.55-.09-.67-.28-.12-.19-.17-.43-.17-.73v-2.16h-.53v-.24l.53-.03,.04-.97h.27v.97h.97v.27h-.97v2.19c0,.21,.04,.39,.11,.52,.08,.13,.23,.2,.46,.2,.07,0,.14-.01,.21-.03,.08-.02,.15-.05,.21-.07l.08,.25c-.1,.03-.2,.06-.3,.09-.1,.03-.18,.04-.25,.04Z"/></g><g><path class="cls-9" d="M210.75,231.66v-2.88h.23l.02,.44h.02c.13-.15,.27-.27,.43-.37,.16-.1,.32-.15,.48-.15,.23,0,.41,.05,.53,.16,.12,.11,.21,.25,.26,.43,.16-.18,.33-.32,.49-.43,.16-.11,.33-.16,.49-.16,.58,0,.86,.37,.86,1.1v1.85h-.27v-1.81c0-.6-.21-.9-.64-.9-.26,0-.54,.18-.86,.54v2.17h-.26v-1.81c0-.31-.05-.54-.16-.68-.1-.15-.27-.22-.49-.22-.26,0-.54,.18-.86,.54v2.17h-.26Z"/><path class="cls-9" d="M215.82,228.09c-.06,0-.12-.02-.16-.07s-.07-.1-.07-.18c0-.07,.02-.12,.07-.17s.1-.07,.16-.07,.12,.02,.17,.07,.06,.1,.06,.17c0,.08-.02,.14-.06,.18s-.1,.07-.17,.07Zm-.14,3.58v-2.88h.26v2.88h-.26Z"/><path class="cls-9" d="M217.12,231.66v-2.88h.23l.02,.44h.02c.15-.15,.3-.27,.46-.37,.16-.1,.34-.15,.53-.15,.3,0,.52,.09,.66,.27,.14,.18,.21,.46,.21,.83v1.85h-.26v-1.81c0-.31-.05-.54-.15-.68-.1-.15-.27-.22-.51-.22-.17,0-.33,.04-.47,.13-.14,.09-.3,.22-.47,.41v2.17h-.26Z"/><path class="cls-9" d="M221.63,231.66v-2.88h.23l.02,.53h.02c.1-.18,.21-.32,.35-.43,.14-.11,.29-.17,.47-.17,.06,0,.11,0,.15,.01s.09,.02,.14,.05l-.06,.24s-.09-.03-.13-.04-.08,0-.14,0c-.13,0-.26,.05-.41,.17s-.27,.3-.38,.57v1.96h-.26Z"/><path class="cls-9" d="M224.62,231.74c-.24,0-.47-.06-.67-.18-.2-.12-.36-.29-.48-.52-.12-.23-.18-.5-.18-.81s.06-.59,.18-.81c.12-.23,.28-.4,.47-.52,.19-.12,.39-.18,.61-.18,.34,0,.61,.12,.81,.35,.2,.23,.29,.56,.29,.98,0,.04,0,.07,0,.11,0,.04,0,.07-.01,.11h-2.07c0,.24,.05,.45,.14,.64,.09,.19,.22,.34,.38,.44,.16,.11,.35,.16,.57,.16,.16,0,.3-.02,.42-.07s.24-.11,.35-.19l.11,.2c-.11,.07-.24,.13-.38,.19-.14,.06-.32,.09-.53,.09Zm-1.06-1.69h1.84c0-.37-.08-.64-.23-.83-.15-.18-.36-.28-.62-.28-.16,0-.32,.04-.46,.13-.14,.09-.26,.21-.36,.38-.1,.16-.15,.36-.17,.59Z"/><path class="cls-9" d="M226.49,232.97v-4.18h.23l.02,.36h.02c.14-.11,.29-.21,.46-.3s.34-.13,.52-.13c.38,0,.67,.13,.86,.4,.19,.27,.29,.62,.29,1.07,0,.32-.06,.6-.18,.83-.12,.23-.27,.41-.46,.53-.19,.12-.4,.19-.63,.19-.14,0-.28-.03-.42-.09-.14-.06-.29-.15-.44-.26v1.58h-.26Zm1.12-1.46c.2,0,.37-.06,.52-.17,.15-.11,.27-.27,.35-.46,.09-.2,.13-.43,.13-.69,0-.24-.03-.45-.09-.63-.06-.19-.16-.33-.29-.44-.13-.11-.31-.16-.53-.16-.14,0-.29,.04-.45,.12-.15,.08-.32,.2-.5,.35v1.71c.16,.14,.32,.23,.46,.29,.15,.06,.28,.08,.39,.08Z"/><path class="cls-9" d="M230.17,231.74c-.24,0-.35-.15-.35-.46v-3.93h.26v3.97c0,.12,.04,.19,.13,.19,.01,0,.03,0,.04,0h.07l.05,.21s-.06,.01-.08,.02c-.03,0-.06,0-.11,0Z"/><path class="cls-9" d="M231.43,228.09c-.06,0-.12-.02-.16-.07s-.07-.1-.07-.18c0-.07,.02-.12,.07-.17s.1-.07,.16-.07c.07,0,.12,.02,.17,.07s.06,.1,.06,.17c0,.08-.02,.14-.06,.18s-.1,.07-.17,.07Zm-.14,3.58v-2.88h.26v2.88h-.26Z"/><path class="cls-9" d="M233.8,231.74c-.25,0-.47-.06-.67-.18s-.35-.29-.47-.52c-.11-.23-.17-.5-.17-.81s.06-.6,.18-.82c.12-.23,.28-.4,.48-.52,.2-.12,.42-.18,.65-.18,.2,0,.37,.04,.5,.11,.13,.07,.25,.15,.35,.25l-.16,.19c-.09-.09-.19-.16-.31-.22-.11-.06-.24-.09-.38-.09-.2,0-.37,.05-.53,.16-.16,.11-.28,.26-.38,.45-.09,.19-.14,.42-.14,.67s.04,.47,.13,.66c.09,.19,.21,.34,.37,.45s.34,.16,.55,.16c.15,0,.29-.03,.42-.1,.13-.07,.24-.14,.34-.23l.14,.19c-.12,.11-.26,.2-.41,.27-.15,.07-.32,.11-.5,.11Z"/><path class="cls-9" d="M236.05,231.74c-.23,0-.42-.06-.59-.19s-.25-.33-.25-.6c0-.32,.15-.56,.45-.73s.77-.29,1.41-.36c0-.15-.01-.29-.05-.43-.04-.14-.1-.25-.2-.34-.1-.09-.24-.14-.44-.14s-.37,.04-.53,.11c-.16,.08-.29,.15-.39,.22l-.12-.2c.07-.05,.16-.1,.26-.16,.11-.06,.23-.11,.37-.15,.14-.04,.28-.06,.44-.06,.23,0,.41,.05,.54,.15,.13,.1,.23,.23,.29,.4s.09,.35,.09,.56v1.84h-.23l-.02-.37h-.02c-.15,.12-.31,.22-.48,.31s-.35,.13-.54,.13Zm.05-.23c.16,0,.32-.04,.48-.12,.15-.08,.32-.2,.5-.35v-.98c-.4,.05-.71,.11-.94,.19-.23,.08-.4,.17-.5,.29-.1,.11-.15,.25-.15,.4,0,.21,.06,.36,.18,.44s.26,.13,.43,.13Z"/><path class="cls-9" d="M239.12,231.74c-.21,0-.41-.04-.59-.12-.18-.08-.34-.17-.47-.28l.16-.2c.12,.1,.26,.19,.4,.26,.14,.07,.31,.11,.52,.11,.22,0,.39-.06,.51-.17,.12-.11,.17-.25,.17-.4,0-.12-.04-.22-.11-.3s-.16-.15-.27-.2c-.11-.05-.22-.1-.33-.14-.14-.05-.29-.11-.42-.17-.14-.06-.25-.15-.34-.25-.09-.1-.13-.24-.13-.4,0-.21,.08-.39,.24-.54,.16-.15,.39-.22,.69-.22,.16,0,.31,.03,.45,.08,.15,.06,.27,.13,.38,.22l-.14,.19c-.1-.07-.2-.13-.31-.18-.11-.05-.23-.08-.38-.08-.22,0-.39,.05-.5,.16-.11,.11-.16,.23-.16,.36,0,.11,.03,.2,.09,.27,.06,.07,.14,.13,.25,.18,.1,.05,.21,.09,.32,.13,.15,.06,.3,.12,.44,.18,.14,.06,.26,.15,.36,.26,.09,.11,.14,.26,.14,.44,0,.14-.04,.28-.11,.4s-.19,.22-.33,.3c-.14,.08-.32,.11-.53,.11Z"/><path class="cls-9" d="M241.03,229.44c-.06,0-.12-.02-.18-.07-.05-.05-.08-.11-.08-.2s.03-.16,.08-.2c.05-.05,.11-.07,.18-.07s.13,.02,.18,.07,.08,.12,.08,.2-.03,.15-.08,.2-.11,.07-.18,.07Zm0,2.29c-.06,0-.12-.02-.18-.07-.05-.05-.08-.11-.08-.2s.03-.16,.08-.2c.05-.05,.11-.07,.18-.07s.13,.02,.18,.07,.08,.12,.08,.2-.03,.15-.08,.2-.11,.07-.18,.07Z"/><path class="cls-9" d="M243.5,231.66v-.23h.9v-3.18h-.68v-.18c.16-.03,.3-.06,.42-.1s.23-.09,.32-.14h.22v3.6h.83v.23h-2Z"/><path class="cls-9" d="M247.37,231.74c-.36,0-.65-.17-.85-.52s-.3-.84-.3-1.48,.1-1.12,.3-1.46,.48-.51,.85-.51,.65,.17,.85,.51,.3,.83,.3,1.46-.1,1.13-.3,1.48-.48,.52-.85,.52Zm0-.23c.27,0,.48-.15,.64-.45s.24-.74,.24-1.33-.08-1.02-.24-1.31-.37-.44-.64-.44-.48,.15-.64,.44c-.16,.29-.24,.73-.24,1.31s.08,1.03,.24,1.33c.16,.3,.37,.45,.64,.45Z"/><path class="cls-9" d="M250.18,232.62l1.83-5.22h.23l-1.83,5.22h-.23Z"/><path class="cls-9" d="M254.14,231.66v-2.88h.23l.02,.44h.02c.13-.15,.27-.27,.43-.37,.16-.1,.32-.15,.48-.15,.23,0,.41,.05,.53,.16,.12,.11,.21,.25,.26,.43,.16-.18,.33-.32,.49-.43,.16-.11,.33-.16,.49-.16,.58,0,.86,.37,.86,1.1v1.85h-.27v-1.81c0-.6-.21-.9-.64-.9-.26,0-.54,.18-.86,.54v2.17h-.26v-1.81c0-.31-.05-.54-.16-.68-.1-.15-.27-.22-.49-.22-.26,0-.54,.18-.86,.54v2.17h-.26Z"/><path class="cls-9" d="M259.71,231.74c-.23,0-.42-.06-.59-.19-.16-.13-.25-.33-.25-.6,0-.32,.15-.56,.45-.73,.3-.17,.77-.29,1.41-.36,0-.15-.01-.29-.05-.43s-.1-.25-.2-.34c-.1-.09-.24-.14-.43-.14s-.37,.04-.53,.11-.29,.15-.39,.22l-.12-.2c.07-.05,.16-.1,.26-.16,.11-.06,.23-.11,.37-.15s.29-.06,.44-.06c.23,0,.41,.05,.54,.15,.13,.1,.23,.23,.28,.4,.06,.17,.09,.35,.09,.56v1.84h-.23l-.02-.37h-.02c-.15,.12-.31,.22-.48,.31-.17,.09-.35,.13-.54,.13Zm.05-.23c.16,0,.32-.04,.48-.12s.32-.2,.5-.35v-.98c-.4,.05-.71,.11-.94,.19-.23,.08-.4,.17-.5,.29-.1,.11-.15,.25-.15,.4,0,.21,.06,.36,.18,.44s.27,.13,.43,.13Z"/><path class="cls-9" d="M261.61,231.66l.98-1.51-.9-1.37h.29l.47,.73c.05,.08,.1,.15,.15,.23l.16,.24h.02c.05-.08,.1-.16,.15-.24s.1-.16,.15-.23l.45-.73h.28l-.89,1.4,.98,1.48h-.29l-.51-.79c-.05-.09-.11-.18-.17-.27-.06-.09-.12-.17-.18-.26h-.02c-.06,.08-.11,.17-.17,.26-.05,.09-.11,.18-.17,.27l-.49,.79h-.28Z"/><path class="cls-9" d="M265.84,231.66v-2.88h.23l.02,.53h.02c.1-.18,.21-.32,.35-.43,.14-.11,.29-.17,.47-.17,.06,0,.11,0,.15,.01s.09,.02,.14,.05l-.06,.24s-.09-.03-.13-.04-.08,0-.14,0c-.13,0-.26,.05-.41,.17s-.27,.3-.38,.57v1.96h-.26Z"/><path class="cls-9" d="M268.84,231.74c-.24,0-.47-.06-.67-.18-.2-.12-.36-.29-.48-.52-.12-.23-.18-.5-.18-.81s.06-.59,.18-.81c.12-.23,.28-.4,.47-.52,.19-.12,.39-.18,.61-.18,.34,0,.61,.12,.81,.35,.2,.23,.29,.56,.29,.98,0,.04,0,.07,0,.11,0,.04,0,.07-.01,.11h-2.07c0,.24,.05,.45,.14,.64,.09,.19,.22,.34,.38,.44,.16,.11,.35,.16,.57,.16,.16,0,.3-.02,.42-.07s.24-.11,.35-.19l.11,.2c-.11,.07-.24,.13-.38,.19-.14,.06-.32,.09-.53,.09Zm-1.06-1.69h1.84c0-.37-.08-.64-.23-.83-.15-.18-.36-.28-.62-.28-.16,0-.32,.04-.46,.13-.14,.09-.26,.21-.36,.38-.1,.16-.15,.36-.17,.59Z"/><path class="cls-9" d="M270.7,232.97v-4.18h.23l.02,.36h.02c.14-.11,.29-.21,.46-.3s.34-.13,.52-.13c.38,0,.67,.13,.86,.4,.19,.27,.29,.62,.29,1.07,0,.32-.06,.6-.18,.83-.12,.23-.27,.41-.46,.53-.19,.12-.4,.19-.63,.19-.14,0-.28-.03-.42-.09-.14-.06-.29-.15-.44-.26v1.58h-.26Zm1.12-1.46c.2,0,.37-.06,.52-.17,.15-.11,.27-.27,.35-.46,.09-.2,.13-.43,.13-.69,0-.24-.03-.45-.09-.63-.06-.19-.16-.33-.29-.44-.13-.11-.31-.16-.53-.16-.14,0-.29,.04-.45,.12-.15,.08-.32,.2-.5,.35v1.71c.16,.14,.32,.23,.46,.29,.15,.06,.28,.08,.39,.08Z"/><path class="cls-9" d="M274.38,231.74c-.24,0-.35-.15-.35-.46v-3.93h.26v3.97c0,.12,.04,.19,.13,.19,.01,0,.03,0,.04,0h.07l.05,.21s-.06,.01-.08,.02c-.03,0-.06,0-.11,0Z"/><path class="cls-9" d="M275.65,228.09c-.06,0-.12-.02-.16-.07s-.07-.1-.07-.18c0-.07,.02-.12,.07-.17s.1-.07,.16-.07c.07,0,.12,.02,.17,.07s.06,.1,.06,.17c0,.08-.02,.14-.06,.18s-.1,.07-.17,.07Zm-.14,3.58v-2.88h.26v2.88h-.26Z"/><path class="cls-9" d="M278.01,231.74c-.25,0-.47-.06-.67-.18s-.35-.29-.47-.52c-.11-.23-.17-.5-.17-.81s.06-.6,.18-.82c.12-.23,.28-.4,.48-.52,.2-.12,.42-.18,.65-.18,.2,0,.37,.04,.5,.11,.13,.07,.25,.15,.35,.25l-.16,.19c-.09-.09-.19-.16-.31-.22-.11-.06-.24-.09-.38-.09-.2,0-.37,.05-.53,.16-.16,.11-.28,.26-.38,.45-.09,.19-.14,.42-.14,.67s.04,.47,.13,.66c.09,.19,.21,.34,.37,.45s.34,.16,.55,.16c.15,0,.29-.03,.42-.1,.13-.07,.24-.14,.34-.23l.14,.19c-.12,.11-.26,.2-.41,.27-.15,.07-.32,.11-.5,.11Z"/><path class="cls-9" d="M280.27,231.74c-.23,0-.42-.06-.59-.19s-.25-.33-.25-.6c0-.32,.15-.56,.45-.73s.77-.29,1.41-.36c0-.15-.01-.29-.05-.43-.04-.14-.1-.25-.2-.34-.1-.09-.24-.14-.44-.14s-.37,.04-.53,.11c-.16,.08-.29,.15-.39,.22l-.12-.2c.07-.05,.16-.1,.26-.16,.11-.06,.23-.11,.37-.15,.14-.04,.28-.06,.44-.06,.23,0,.41,.05,.54,.15,.13,.1,.23,.23,.29,.4s.09,.35,.09,.56v1.84h-.23l-.02-.37h-.02c-.15,.12-.31,.22-.48,.31s-.35,.13-.54,.13Zm.05-.23c.16,0,.32-.04,.48-.12,.15-.08,.32-.2,.5-.35v-.98c-.4,.05-.71,.11-.94,.19-.23,.08-.4,.17-.5,.29-.1,.11-.15,.25-.15,.4,0,.21,.06,.36,.18,.44s.26,.13,.43,.13Z"/><path class="cls-9" d="M283.34,231.74c-.21,0-.41-.04-.59-.12s-.34-.17-.46-.28l.16-.2c.12,.1,.26,.19,.4,.26,.14,.07,.31,.11,.52,.11,.22,0,.39-.06,.51-.17s.17-.25,.17-.4c0-.12-.04-.22-.11-.3-.07-.08-.16-.15-.27-.2-.11-.05-.21-.1-.33-.14-.14-.05-.29-.11-.42-.17-.14-.06-.25-.15-.34-.25-.09-.1-.13-.24-.13-.4,0-.21,.08-.39,.24-.54,.16-.15,.39-.22,.69-.22,.16,0,.31,.03,.45,.08,.15,.06,.27,.13,.38,.22l-.14,.19c-.1-.07-.2-.13-.31-.18-.11-.05-.23-.08-.38-.08-.22,0-.39,.05-.5,.16-.11,.11-.16,.23-.16,.36,0,.11,.03,.2,.09,.27,.06,.07,.14,.13,.25,.18,.1,.05,.21,.09,.32,.13,.15,.06,.3,.12,.44,.18,.14,.06,.26,.15,.36,.26,.09,.11,.14,.26,.14,.44,0,.14-.04,.28-.11,.4s-.19,.22-.33,.3c-.14,.08-.32,.11-.53,.11Z"/><path class="cls-9" d="M285.24,229.44c-.06,0-.12-.02-.18-.07s-.08-.11-.08-.2,.03-.16,.08-.2,.11-.07,.18-.07c.07,0,.13,.02,.18,.07,.05,.05,.08,.12,.08,.2s-.02,.15-.08,.2c-.05,.05-.11,.07-.18,.07Zm0,2.29c-.06,0-.12-.02-.18-.07s-.08-.11-.08-.2,.03-.16,.08-.2,.11-.07,.18-.07c.07,0,.13,.02,.18,.07,.05,.05,.08,.12,.08,.2s-.02,.15-.08,.2c-.05,.05-.11,.07-.18,.07Z"/><path class="cls-9" d="M287.72,231.66v-.23h.9v-3.18h-.68v-.18c.16-.03,.3-.06,.42-.1s.23-.09,.32-.14h.22v3.6h.83v.23h-2Z"/><path class="cls-9" d="M291.51,231.74c-.2,0-.38-.03-.53-.08-.15-.05-.28-.12-.39-.2-.11-.08-.2-.16-.29-.24l.15-.19c.12,.12,.25,.22,.42,.32,.16,.1,.37,.15,.63,.15,.17,0,.33-.04,.47-.13,.14-.09,.26-.21,.35-.36,.09-.16,.13-.34,.13-.54,0-.31-.08-.55-.25-.73-.17-.18-.4-.26-.68-.26-.15,0-.27,.02-.38,.07-.11,.05-.22,.11-.33,.19l-.19-.11,.14-1.79h1.77v.23h-1.53l-.12,1.39c.1-.06,.2-.11,.31-.15,.11-.04,.23-.06,.37-.06,.22,0,.41,.04,.59,.13,.18,.09,.32,.22,.42,.4,.1,.18,.16,.41,.16,.69s-.06,.5-.18,.69c-.12,.19-.27,.34-.46,.44-.19,.1-.38,.15-.59,.15Z"/><path class="cls-9" d="M211.82,239.74c-.25,0-.47-.06-.67-.18-.2-.12-.35-.29-.47-.52-.11-.23-.17-.5-.17-.81s.06-.6,.18-.82c.12-.23,.28-.4,.48-.52s.42-.18,.65-.18c.2,0,.37,.04,.5,.11,.13,.07,.25,.15,.35,.25l-.16,.19c-.09-.09-.19-.16-.31-.22-.11-.06-.24-.09-.38-.09-.2,0-.37,.05-.53,.16-.16,.11-.28,.26-.38,.45-.09,.19-.14,.42-.14,.67s.04,.47,.13,.66c.09,.19,.21,.34,.37,.45s.34,.16,.55,.16c.15,0,.29-.03,.42-.1,.13-.07,.25-.14,.34-.23l.14,.19c-.12,.11-.26,.2-.41,.27-.15,.07-.32,.11-.5,.11Z"/><path class="cls-9" d="M214.33,239.74c-.3,0-.52-.09-.66-.27s-.21-.46-.21-.83v-1.85h.26v1.81c0,.3,.05,.53,.15,.68,.1,.15,.27,.22,.5,.22,.17,0,.33-.05,.47-.14,.14-.09,.29-.24,.46-.45v-2.12h.26v2.88h-.22l-.03-.48h-.01c-.14,.16-.29,.3-.44,.4-.16,.1-.33,.15-.53,.15Z"/><path class="cls-9" d="M216.74,239.66v-2.88h.23l.02,.53h.02c.1-.18,.21-.32,.35-.43,.14-.11,.29-.17,.47-.17,.06,0,.11,0,.15,.01s.09,.02,.14,.05l-.06,.24s-.09-.03-.13-.04-.08,0-.14,0c-.13,0-.26,.05-.41,.17s-.27,.3-.38,.57v1.96h-.26Z"/><path class="cls-9" d="M218.7,239.66v-2.88h.23l.02,.53h.02c.1-.18,.21-.32,.35-.43,.14-.11,.29-.17,.47-.17,.06,0,.11,0,.15,.01s.09,.02,.14,.05l-.06,.24s-.09-.03-.13-.04-.08,0-.14,0c-.13,0-.26,.05-.41,.17s-.27,.3-.38,.57v1.96h-.26Z"/><path class="cls-9" d="M221.69,239.74c-.24,0-.47-.06-.67-.18s-.36-.29-.48-.52c-.12-.23-.18-.5-.18-.81s.06-.59,.18-.81c.12-.23,.28-.4,.47-.52,.19-.12,.39-.18,.61-.18,.34,0,.61,.12,.81,.35,.2,.23,.29,.56,.29,.98,0,.04,0,.07,0,.11,0,.04,0,.07-.02,.11h-2.07c0,.24,.05,.45,.14,.64,.09,.19,.22,.34,.38,.44,.16,.11,.35,.16,.57,.16,.16,0,.3-.02,.42-.07s.24-.11,.35-.19l.11,.2c-.11,.07-.24,.13-.38,.19-.14,.06-.32,.09-.53,.09Zm-1.06-1.69h1.84c0-.37-.08-.64-.23-.83-.15-.18-.36-.28-.62-.28-.16,0-.32,.04-.46,.13-.14,.09-.26,.21-.36,.38s-.15,.36-.17,.59Z"/><path class="cls-9" d="M223.56,239.66v-2.88h.23l.02,.44h.02c.15-.15,.3-.27,.46-.37,.16-.1,.33-.15,.53-.15,.3,0,.51,.09,.66,.27,.14,.18,.21,.46,.21,.83v1.85h-.26v-1.81c0-.31-.05-.54-.15-.68-.1-.15-.27-.22-.51-.22-.17,0-.33,.04-.47,.13-.14,.09-.3,.22-.47,.41v2.17h-.26Z"/><path class="cls-9" d="M227.6,239.74c-.28,0-.47-.08-.57-.24-.1-.16-.15-.37-.15-.63v-1.85h-.45v-.2l.46-.02,.04-.83h.23v.83h.83v.23h-.83v1.88c0,.18,.03,.33,.1,.44,.06,.11,.19,.17,.39,.17,.06,0,.12,0,.18-.03,.07-.02,.12-.04,.18-.06l.07,.22c-.08,.03-.17,.05-.26,.08-.09,.02-.16,.03-.21,.03Z"/><path class="cls-9" d="M231.44,239.74c-.32,0-.61-.08-.86-.25s-.44-.41-.58-.71c-.14-.31-.21-.67-.21-1.09s.07-.78,.21-1.09c.14-.3,.34-.54,.59-.71,.25-.17,.55-.25,.88-.25,.23,0,.44,.05,.61,.14,.18,.1,.32,.21,.42,.33l-.16,.19c-.11-.12-.23-.22-.38-.3-.14-.07-.31-.11-.49-.11-.29,0-.54,.07-.75,.22-.21,.15-.37,.35-.49,.62-.11,.27-.17,.58-.17,.95s.06,.68,.17,.95,.27,.48,.48,.63c.21,.15,.45,.22,.73,.22,.2,0,.39-.04,.55-.12,.16-.08,.31-.2,.46-.36l.16,.17c-.15,.17-.32,.31-.51,.41-.19,.1-.41,.15-.67,.15Z"/><path class="cls-9" d="M233.48,239.66v-3.95h1c.45,0,.8,.08,1.05,.25s.38,.45,.38,.86-.12,.68-.38,.87c-.25,.19-.59,.29-1.04,.29h-.74v1.7h-.28Zm.28-1.93h.68c.4,0,.7-.07,.9-.22,.2-.14,.29-.38,.29-.7s-.1-.56-.3-.68-.51-.19-.92-.19h-.65v1.79Z"/><path class="cls-9" d="M238.15,239.74c-.17,0-.33-.02-.49-.07s-.3-.14-.43-.25c-.13-.12-.23-.28-.3-.49-.07-.21-.11-.46-.11-.77v-2.44h.28v2.41c0,.35,.05,.62,.15,.82,.1,.2,.23,.34,.39,.42,.16,.08,.33,.12,.52,.12s.37-.04,.53-.12c.16-.08,.3-.22,.4-.42,.1-.2,.15-.47,.15-.82v-2.41h.26v2.44c0,.31-.04,.57-.11,.77s-.17,.37-.3,.49c-.13,.12-.27,.21-.43,.25-.16,.05-.33,.07-.5,.07Z"/><path class="cls-9" d="M242.75,239.74c-.3,0-.51-.09-.66-.27-.14-.18-.21-.46-.21-.83v-1.85h.26v1.81c0,.3,.05,.53,.15,.68,.1,.15,.27,.22,.5,.22,.17,0,.33-.05,.47-.14,.14-.09,.29-.24,.46-.45v-2.12h.26v2.88h-.22l-.03-.48h-.01c-.14,.16-.29,.3-.44,.4-.16,.1-.33,.15-.53,.15Z"/><path class="cls-9" d="M245.86,239.74c-.21,0-.41-.04-.59-.12s-.34-.17-.46-.28l.16-.2c.12,.1,.26,.19,.4,.26,.14,.07,.31,.11,.52,.11,.22,0,.39-.06,.51-.17s.17-.25,.17-.4c0-.12-.04-.22-.11-.3-.07-.08-.16-.15-.27-.2-.11-.05-.21-.1-.33-.14-.14-.05-.29-.11-.42-.17-.14-.06-.25-.15-.34-.25-.09-.1-.13-.24-.13-.4,0-.21,.08-.39,.24-.54,.16-.15,.39-.22,.69-.22,.16,0,.31,.03,.45,.08,.15,.06,.27,.13,.38,.22l-.14,.19c-.1-.07-.2-.13-.31-.18-.11-.05-.23-.08-.38-.08-.22,0-.39,.05-.5,.16-.11,.11-.16,.23-.16,.36,0,.11,.03,.2,.09,.27,.06,.07,.14,.13,.25,.18,.1,.05,.21,.09,.32,.13,.15,.06,.3,.12,.44,.18,.14,.06,.26,.15,.36,.26,.09,.11,.14,.26,.14,.44,0,.14-.04,.28-.11,.4s-.19,.22-.33,.3c-.14,.08-.32,.11-.53,.11Z"/><path class="cls-9" d="M248.28,239.74c-.23,0-.42-.06-.59-.19-.16-.13-.25-.33-.25-.6,0-.32,.15-.56,.45-.73,.3-.17,.77-.29,1.41-.36,0-.15-.01-.29-.05-.43s-.1-.25-.2-.34c-.1-.09-.24-.14-.43-.14s-.37,.04-.53,.11-.29,.15-.39,.22l-.12-.2c.07-.05,.16-.1,.26-.16,.11-.06,.23-.11,.37-.15s.29-.06,.44-.06c.23,0,.41,.05,.54,.15,.13,.1,.23,.23,.28,.4,.06,.17,.09,.35,.09,.56v1.84h-.23l-.02-.37h-.02c-.15,.12-.31,.22-.48,.31-.17,.09-.35,.13-.54,.13Zm.05-.23c.16,0,.32-.04,.48-.12s.32-.2,.5-.35v-.98c-.4,.05-.71,.11-.94,.19-.23,.08-.4,.17-.5,.29-.1,.11-.15,.25-.15,.4,0,.21,.06,.36,.18,.44s.27,.13,.43,.13Z"/><path class="cls-9" d="M251.6,241.05c-.36,0-.65-.07-.86-.22-.21-.14-.32-.34-.32-.58,0-.13,.04-.25,.11-.37,.08-.12,.18-.23,.31-.32v-.02c-.07-.04-.13-.1-.18-.18-.05-.08-.07-.17-.07-.28,0-.13,.04-.24,.11-.33,.07-.09,.14-.16,.2-.2v-.02c-.09-.08-.17-.19-.25-.33-.08-.14-.11-.29-.11-.46,0-.2,.04-.38,.13-.53,.09-.15,.21-.27,.37-.36,.15-.09,.33-.13,.51-.13,.08,0,.15,0,.22,.02,.06,.01,.12,.03,.16,.05h.98v.22h-.67c.09,.08,.17,.18,.23,.31s.09,.27,.09,.42c0,.2-.04,.37-.13,.52s-.21,.27-.36,.36c-.15,.09-.32,.13-.51,.13-.08,0-.16,0-.25-.03-.09-.02-.16-.05-.23-.09-.06,.05-.12,.11-.17,.17-.05,.06-.07,.14-.07,.24,0,.1,.04,.19,.11,.27,.08,.07,.22,.11,.44,.11h.62c.32,0,.56,.05,.72,.16,.15,.11,.23,.27,.23,.5,0,.16-.06,.32-.17,.47-.11,.15-.27,.27-.47,.36-.2,.09-.44,.14-.72,.14Zm.03-.22c.22,0,.4-.04,.56-.11,.16-.07,.28-.16,.37-.27,.09-.11,.13-.23,.13-.35,0-.16-.06-.27-.17-.34-.11-.07-.28-.1-.5-.1h-.62s-.08,0-.14-.01c-.07,0-.14-.02-.22-.04-.13,.09-.23,.18-.29,.29-.06,.11-.09,.21-.09,.31,0,.18,.08,.33,.25,.44,.17,.11,.4,.17,.71,.17Zm-.07-2.3c.13,0,.25-.03,.37-.1,.11-.07,.21-.16,.27-.29,.07-.12,.1-.26,.1-.42,0-.24-.07-.44-.22-.58-.15-.14-.32-.22-.53-.22s-.38,.07-.53,.21c-.15,.14-.22,.34-.22,.58,0,.16,.04,.3,.11,.42,.07,.12,.16,.22,.28,.29,.11,.07,.24,.1,.37,.1Z"/><path class="cls-9" d="M254.66,239.74c-.24,0-.47-.06-.67-.18-.2-.12-.36-.29-.48-.52-.12-.23-.18-.5-.18-.81s.06-.59,.18-.81c.12-.23,.28-.4,.47-.52,.19-.12,.39-.18,.61-.18,.34,0,.61,.12,.81,.35,.2,.23,.29,.56,.29,.98,0,.04,0,.07,0,.11,0,.04,0,.07-.01,.11h-2.07c0,.24,.05,.45,.14,.64,.09,.19,.22,.34,.38,.44,.16,.11,.35,.16,.57,.16,.16,0,.3-.02,.42-.07s.24-.11,.35-.19l.11,.2c-.11,.07-.24,.13-.38,.19-.14,.06-.32,.09-.53,.09Zm-1.06-1.69h1.84c0-.37-.08-.64-.23-.83-.15-.18-.36-.28-.62-.28-.16,0-.32,.04-.46,.13-.14,.09-.26,.21-.36,.38-.1,.16-.15,.36-.17,.59Z"/><path class="cls-9" d="M256.64,237.44c-.06,0-.12-.02-.18-.07s-.08-.11-.08-.2,.03-.16,.08-.2,.11-.07,.18-.07c.07,0,.13,.02,.18,.07,.05,.05,.08,.12,.08,.2s-.02,.15-.08,.2c-.05,.05-.11,.07-.18,.07Zm0,2.29c-.06,0-.12-.02-.18-.07s-.08-.11-.08-.2,.03-.16,.08-.2,.11-.07,.18-.07c.07,0,.13,.02,.18,.07,.05,.05,.08,.12,.08,.2s-.02,.15-.08,.2c-.05,.05-.11,.07-.18,.07Z"/><path class="cls-9" d="M259.76,239.74c-.18,0-.33-.03-.46-.1s-.25-.16-.34-.27l.16-.18c.08,.1,.18,.18,.3,.24s.23,.08,.36,.08c.2,0,.39-.06,.56-.18,.17-.12,.31-.32,.42-.59,.11-.28,.16-.65,.16-1.12-.13,.16-.28,.29-.45,.38-.17,.1-.34,.14-.52,.14-.33,0-.59-.1-.78-.3-.19-.2-.28-.5-.28-.88,0-.23,.05-.44,.14-.62,.1-.18,.22-.32,.38-.42,.16-.1,.33-.15,.52-.15,.38,0,.68,.16,.91,.46,.23,.31,.34,.76,.34,1.34,0,.54-.07,.96-.2,1.28-.13,.32-.3,.55-.52,.68-.21,.14-.45,.21-.69,.21Zm-.62-2.78c0,.28,.07,.51,.2,.69,.13,.18,.34,.27,.64,.27,.14,0,.29-.05,.46-.14,.17-.09,.32-.24,.47-.44-.02-.4-.12-.73-.28-.98s-.4-.37-.71-.37c-.14,0-.28,.04-.39,.13-.12,.09-.21,.2-.28,.34-.07,.14-.1,.31-.1,.49Z"/><path class="cls-9" d="M263.11,239.74c-.38,0-.69-.16-.92-.47-.23-.31-.34-.76-.34-1.34,0-.4,.04-.74,.11-1.02,.08-.28,.18-.5,.31-.67,.13-.17,.28-.29,.45-.37s.35-.11,.53-.11,.33,.03,.46,.1c.13,.07,.25,.16,.34,.27l-.16,.18c-.08-.1-.18-.18-.29-.24-.11-.05-.23-.08-.35-.08-.2,0-.39,.06-.57,.18s-.31,.32-.42,.59c-.1,.28-.16,.65-.16,1.12,.13-.16,.28-.29,.45-.39,.17-.1,.34-.14,.52-.14,.34,0,.6,.1,.79,.3,.19,.2,.28,.5,.28,.89,0,.23-.05,.44-.14,.62-.1,.18-.22,.32-.38,.43-.16,.1-.33,.16-.52,.16Zm-.05-2.16c-.14,0-.29,.04-.45,.13s-.32,.23-.48,.45c.02,.4,.12,.73,.28,.98s.4,.38,.71,.38c.15,0,.28-.04,.4-.13,.12-.09,.21-.2,.28-.35,.07-.15,.1-.31,.1-.5,0-.28-.07-.5-.2-.69-.13-.18-.34-.27-.63-.27Z"/><path class="cls-9" d="M265.57,238.12c-.26,0-.47-.11-.62-.32-.15-.22-.23-.52-.23-.92s.08-.7,.23-.92c.15-.21,.36-.32,.62-.32s.47,.11,.62,.32,.23,.52,.23,.92-.08,.71-.23,.92-.36,.32-.62,.32Zm0-.2c.19,0,.34-.09,.45-.28,.11-.18,.17-.44,.17-.77s-.05-.59-.17-.77c-.11-.18-.26-.27-.45-.27s-.33,.09-.44,.27c-.11,.18-.17,.44-.17,.77s.06,.59,.17,.77c.11,.18,.26,.28,.44,.28Zm.1,1.81l2.21-4.1h.23l-2.2,4.1h-.23Zm2.56,0c-.26,0-.47-.11-.62-.32-.15-.22-.23-.52-.23-.92s.08-.7,.23-.92c.15-.21,.36-.32,.62-.32s.47,.11,.62,.32c.15,.21,.23,.52,.23,.92s-.08,.71-.23,.92-.36,.32-.62,.32Zm0-.2c.19,0,.34-.09,.45-.28,.11-.18,.17-.44,.17-.77s-.06-.59-.17-.77c-.11-.18-.26-.27-.45-.27s-.33,.09-.44,.27c-.11,.18-.17,.44-.17,.77s.06,.59,.17,.77c.11,.18,.26,.28,.44,.28Z"/><path class="cls-9" d="M211.54,247.74c-.28,0-.47-.08-.57-.24-.1-.16-.15-.37-.15-.63v-1.85h-.45v-.2l.46-.02,.04-.83h.23v.83h.83v.23h-.83v1.88c0,.18,.03,.33,.1,.44,.06,.11,.19,.17,.39,.17,.06,0,.12,0,.18-.03,.07-.02,.12-.04,.18-.06l.07,.22c-.08,.03-.17,.05-.25,.08-.09,.02-.16,.03-.21,.03Z"/><path class="cls-9" d="M213.18,247.74c-.23,0-.42-.06-.59-.19-.16-.13-.25-.33-.25-.6,0-.32,.15-.56,.45-.73,.3-.17,.77-.29,1.41-.36,0-.15-.01-.29-.05-.43s-.1-.25-.2-.34c-.1-.09-.24-.14-.43-.14s-.37,.04-.53,.11-.29,.15-.39,.22l-.12-.2c.07-.05,.16-.1,.26-.16,.11-.06,.23-.11,.37-.15s.29-.06,.44-.06c.23,0,.41,.05,.54,.15,.13,.1,.23,.23,.28,.4,.06,.17,.09,.35,.09,.56v1.84h-.23l-.02-.37h-.02c-.15,.12-.31,.22-.48,.31-.17,.09-.35,.13-.54,.13Zm.05-.23c.16,0,.32-.04,.48-.12s.32-.2,.5-.35v-.98c-.4,.05-.71,.11-.94,.19-.23,.08-.4,.17-.5,.29-.1,.11-.15,.25-.15,.4,0,.21,.06,.36,.18,.44s.27,.13,.43,.13Z"/><path class="cls-9" d="M215.56,247.66v-2.88h.23l.02,.53h.02c.1-.18,.21-.32,.35-.43,.14-.11,.29-.17,.47-.17,.06,0,.11,0,.15,.01s.09,.02,.14,.05l-.06,.24s-.09-.03-.13-.04-.08,0-.14,0c-.13,0-.26,.05-.41,.17s-.27,.3-.38,.57v1.96h-.26Z"/><path class="cls-9" d="M218.4,249.05c-.36,0-.65-.07-.86-.22-.21-.14-.32-.34-.32-.58,0-.13,.04-.25,.11-.37s.18-.23,.31-.32v-.02c-.07-.04-.13-.1-.18-.18-.05-.08-.07-.17-.07-.28,0-.13,.04-.24,.11-.33,.07-.09,.14-.16,.2-.2v-.02c-.09-.08-.17-.19-.25-.33-.08-.14-.11-.29-.11-.46,0-.2,.04-.38,.14-.53,.09-.15,.21-.27,.37-.36,.15-.09,.33-.13,.51-.13,.08,0,.15,0,.22,.02,.06,.01,.12,.03,.16,.05h.98v.22h-.67c.09,.08,.17,.18,.23,.31,.06,.13,.09,.27,.09,.42,0,.2-.04,.37-.13,.52-.09,.15-.21,.27-.36,.36-.15,.09-.32,.13-.51,.13-.08,0-.16,0-.25-.03-.09-.02-.16-.05-.23-.09-.06,.05-.12,.11-.17,.17-.05,.06-.07,.14-.07,.24,0,.1,.04,.19,.11,.27s.22,.11,.44,.11h.62c.32,0,.56,.05,.72,.16,.15,.11,.23,.27,.23,.5,0,.16-.06,.32-.17,.47-.11,.15-.27,.27-.47,.36-.2,.09-.44,.14-.72,.14Zm.03-.22c.22,0,.4-.04,.56-.11,.16-.07,.28-.16,.37-.27,.09-.11,.13-.23,.13-.35,0-.16-.06-.27-.17-.34-.11-.07-.28-.1-.5-.1h-.62s-.08,0-.14-.01c-.07,0-.14-.02-.22-.04-.13,.09-.23,.18-.29,.29-.06,.11-.09,.21-.09,.31,0,.18,.08,.33,.25,.44,.17,.11,.4,.17,.71,.17Zm-.07-2.3c.13,0,.25-.03,.37-.1,.11-.07,.21-.16,.27-.29s.1-.26,.1-.42c0-.24-.07-.44-.22-.58-.15-.14-.32-.22-.52-.22s-.38,.07-.53,.21c-.15,.14-.22,.34-.22,.58,0,.16,.03,.3,.1,.42s.16,.22,.28,.29c.11,.07,.24,.1,.37,.1Z"/><path class="cls-9" d="M221.47,247.74c-.24,0-.47-.06-.67-.18s-.36-.29-.48-.52c-.12-.23-.18-.5-.18-.81s.06-.59,.18-.81c.12-.23,.28-.4,.47-.52,.19-.12,.39-.18,.61-.18,.34,0,.61,.12,.81,.35,.2,.23,.29,.56,.29,.98,0,.04,0,.07,0,.11,0,.04,0,.07-.02,.11h-2.07c0,.24,.05,.45,.14,.64,.09,.19,.22,.34,.38,.44,.16,.11,.35,.16,.57,.16,.16,0,.3-.02,.42-.07s.24-.11,.35-.19l.11,.2c-.11,.07-.24,.13-.38,.19-.14,.06-.32,.09-.53,.09Zm-1.06-1.69h1.84c0-.37-.08-.64-.23-.83-.15-.18-.36-.28-.62-.28-.16,0-.32,.04-.46,.13-.14,.09-.26,.21-.36,.38s-.15,.36-.17,.59Z"/><path class="cls-9" d="M224.06,247.74c-.28,0-.47-.08-.57-.24-.1-.16-.15-.37-.15-.63v-1.85h-.45v-.2l.46-.02,.04-.83h.23v.83h.83v.23h-.83v1.88c0,.18,.03,.33,.1,.44,.06,.11,.19,.17,.39,.17,.06,0,.12,0,.18-.03,.07-.02,.12-.04,.18-.06l.07,.22c-.08,.03-.17,.05-.25,.08-.09,.02-.16,.03-.21,.03Z"/><path class="cls-9" d="M227.29,247.74c-.3,0-.52-.09-.66-.27s-.21-.46-.21-.83v-1.85h.26v1.81c0,.3,.05,.53,.15,.68,.1,.15,.27,.22,.5,.22,.17,0,.33-.05,.47-.14,.14-.09,.29-.24,.46-.45v-2.12h.26v2.88h-.22l-.03-.48h-.01c-.14,.16-.29,.3-.44,.4-.16,.1-.33,.15-.53,.15Z"/><path class="cls-9" d="M230.39,247.74c-.21,0-.41-.04-.59-.12s-.34-.17-.46-.28l.16-.2c.12,.1,.26,.19,.4,.26,.14,.07,.31,.11,.52,.11,.22,0,.39-.06,.51-.17s.17-.25,.17-.4c0-.12-.04-.22-.11-.3-.07-.08-.16-.15-.27-.2-.11-.05-.21-.1-.33-.14-.14-.05-.29-.11-.42-.17-.14-.06-.25-.15-.34-.25-.09-.1-.13-.24-.13-.4,0-.21,.08-.39,.24-.54,.16-.15,.39-.22,.69-.22,.16,0,.31,.03,.45,.08,.15,.06,.27,.13,.38,.22l-.14,.19c-.1-.07-.2-.13-.31-.18-.11-.05-.23-.08-.38-.08-.22,0-.39,.05-.5,.16-.11,.11-.16,.23-.16,.36,0,.11,.03,.2,.09,.27,.06,.07,.14,.13,.25,.18,.1,.05,.21,.09,.32,.13,.15,.06,.3,.12,.44,.18,.14,.06,.26,.15,.36,.26,.09,.11,.14,.26,.14,.44,0,.14-.04,.28-.11,.4s-.19,.22-.33,.3c-.14,.08-.32,.11-.53,.11Z"/><path class="cls-9" d="M232.82,247.74c-.23,0-.42-.06-.59-.19-.16-.13-.25-.33-.25-.6,0-.32,.15-.56,.45-.73,.3-.17,.77-.29,1.41-.36,0-.15-.01-.29-.05-.43s-.1-.25-.2-.34c-.1-.09-.24-.14-.43-.14s-.37,.04-.53,.11-.29,.15-.39,.22l-.12-.2c.07-.05,.16-.1,.26-.16,.11-.06,.23-.11,.37-.15s.29-.06,.44-.06c.23,0,.41,.05,.54,.15,.13,.1,.23,.23,.28,.4,.06,.17,.09,.35,.09,.56v1.84h-.23l-.02-.37h-.02c-.15,.12-.31,.22-.48,.31-.17,.09-.35,.13-.54,.13Zm.05-.23c.16,0,.32-.04,.48-.12s.32-.2,.5-.35v-.98c-.4,.05-.71,.11-.94,.19-.23,.08-.4,.17-.5,.29-.1,.11-.15,.25-.15,.4,0,.21,.06,.36,.18,.44s.27,.13,.43,.13Z"/><path class="cls-9" d="M236.14,249.05c-.36,0-.65-.07-.86-.22-.21-.14-.32-.34-.32-.58,0-.13,.04-.25,.11-.37,.08-.12,.18-.23,.31-.32v-.02c-.07-.04-.13-.1-.18-.18-.05-.08-.07-.17-.07-.28,0-.13,.04-.24,.11-.33,.07-.09,.14-.16,.2-.2v-.02c-.09-.08-.17-.19-.25-.33-.08-.14-.11-.29-.11-.46,0-.2,.04-.38,.13-.53,.09-.15,.21-.27,.37-.36,.15-.09,.33-.13,.51-.13,.08,0,.15,0,.22,.02,.06,.01,.12,.03,.16,.05h.98v.22h-.67c.09,.08,.17,.18,.23,.31s.09,.27,.09,.42c0,.2-.04,.37-.13,.52s-.21,.27-.36,.36c-.15,.09-.32,.13-.51,.13-.08,0-.16,0-.25-.03-.09-.02-.16-.05-.23-.09-.06,.05-.12,.11-.17,.17-.05,.06-.07,.14-.07,.24,0,.1,.04,.19,.11,.27,.08,.07,.22,.11,.44,.11h.62c.32,0,.56,.05,.72,.16,.15,.11,.23,.27,.23,.5,0,.16-.06,.32-.17,.47-.11,.15-.27,.27-.47,.36-.2,.09-.44,.14-.72,.14Zm.03-.22c.22,0,.4-.04,.56-.11,.16-.07,.28-.16,.37-.27,.09-.11,.13-.23,.13-.35,0-.16-.06-.27-.17-.34-.11-.07-.28-.1-.5-.1h-.62s-.08,0-.14-.01c-.07,0-.14-.02-.22-.04-.13,.09-.23,.18-.29,.29-.06,.11-.09,.21-.09,.31,0,.18,.08,.33,.25,.44,.17,.11,.4,.17,.71,.17Zm-.07-2.3c.13,0,.25-.03,.37-.1,.11-.07,.21-.16,.27-.29,.07-.12,.1-.26,.1-.42,0-.24-.07-.44-.22-.58-.15-.14-.32-.22-.53-.22s-.38,.07-.53,.21c-.15,.14-.22,.34-.22,.58,0,.16,.04,.3,.11,.42,.07,.12,.16,.22,.28,.29,.11,.07,.24,.1,.37,.1Z"/><path class="cls-9" d="M239.2,247.74c-.24,0-.47-.06-.67-.18-.2-.12-.36-.29-.48-.52-.12-.23-.18-.5-.18-.81s.06-.59,.18-.81c.12-.23,.28-.4,.47-.52,.19-.12,.39-.18,.61-.18,.34,0,.61,.12,.81,.35,.2,.23,.29,.56,.29,.98,0,.04,0,.07,0,.11,0,.04,0,.07-.01,.11h-2.07c0,.24,.05,.45,.14,.64,.09,.19,.22,.34,.38,.44,.16,.11,.35,.16,.57,.16,.16,0,.3-.02,.42-.07s.24-.11,.35-.19l.11,.2c-.11,.07-.24,.13-.38,.19-.14,.06-.32,.09-.53,.09Zm-1.06-1.69h1.84c0-.37-.08-.64-.23-.83-.15-.18-.36-.28-.62-.28-.16,0-.32,.04-.46,.13-.14,.09-.26,.21-.36,.38-.1,.16-.15,.36-.17,.59Z"/><path class="cls-9" d="M241.18,245.44c-.06,0-.12-.02-.18-.07s-.08-.11-.08-.2,.03-.16,.08-.2,.11-.07,.18-.07c.07,0,.13,.02,.18,.07,.05,.05,.08,.12,.08,.2s-.02,.15-.08,.2c-.05,.05-.11,.07-.18,.07Zm0,2.29c-.06,0-.12-.02-.18-.07s-.08-.11-.08-.2,.03-.16,.08-.2,.11-.07,.18-.07c.07,0,.13,.02,.18,.07,.05,.05,.08,.12,.08,.2s-.02,.15-.08,.2c-.05,.05-.11,.07-.18,.07Z"/><path class="cls-9" d="M244.51,247.74c-.2,0-.38-.03-.53-.08-.15-.05-.28-.12-.39-.2-.11-.08-.2-.16-.29-.24l.15-.19c.12,.12,.25,.22,.42,.32,.16,.1,.37,.15,.63,.15,.17,0,.33-.04,.47-.13,.14-.09,.26-.21,.35-.36,.09-.16,.13-.34,.13-.54,0-.31-.08-.55-.25-.73-.17-.18-.4-.26-.68-.26-.15,0-.27,.02-.38,.07-.11,.05-.22,.11-.33,.19l-.19-.11,.14-1.79h1.77v.23h-1.53l-.12,1.39c.1-.06,.2-.11,.31-.15,.11-.04,.23-.06,.37-.06,.22,0,.41,.04,.59,.13,.18,.09,.32,.22,.42,.4,.1,.18,.16,.41,.16,.69s-.06,.5-.18,.69c-.12,.19-.27,.34-.46,.44-.19,.1-.38,.15-.59,.15Z"/><path class="cls-9" d="M247.52,247.74c-.36,0-.65-.17-.85-.52s-.3-.84-.3-1.48,.1-1.12,.3-1.46,.48-.51,.85-.51,.65,.17,.85,.51c.2,.34,.3,.83,.3,1.46s-.1,1.13-.3,1.48c-.2,.35-.48,.52-.85,.52Zm0-.23c.27,0,.48-.15,.64-.45,.16-.3,.24-.74,.24-1.33s-.08-1.02-.24-1.31c-.16-.29-.37-.44-.64-.44s-.48,.15-.64,.44-.24,.73-.24,1.31,.08,1.03,.24,1.33,.37,.45,.64,.45Z"/><path class="cls-9" d="M250.1,246.12c-.26,0-.47-.11-.62-.32-.15-.22-.23-.52-.23-.92s.08-.7,.23-.92c.15-.21,.36-.32,.62-.32s.47,.11,.62,.32,.23,.52,.23,.92-.08,.71-.23,.92-.36,.32-.62,.32Zm0-.2c.19,0,.34-.09,.45-.28,.11-.18,.17-.44,.17-.77s-.05-.59-.17-.77c-.11-.18-.26-.27-.45-.27s-.33,.09-.44,.27c-.11,.18-.17,.44-.17,.77s.06,.59,.17,.77c.11,.18,.26,.28,.44,.28Zm.1,1.81l2.21-4.1h.23l-2.2,4.1h-.23Zm2.56,0c-.26,0-.47-.11-.62-.32-.15-.22-.23-.52-.23-.92s.08-.7,.23-.92c.15-.21,.36-.32,.62-.32s.47,.11,.62,.32c.15,.21,.23,.52,.23,.92s-.08,.71-.23,.92-.36,.32-.62,.32Zm0-.2c.19,0,.34-.09,.45-.28,.11-.18,.17-.44,.17-.77s-.06-.59-.17-.77c-.11-.18-.26-.27-.45-.27s-.33,.09-.44,.27c-.11,.18-.17,.44-.17,.77s.06,.59,.17,.77c.11,.18,.26,.28,.44,.28Z"/></g><g><path class="cls-9" d="M170.83,203.66v-.54h1.17v-3.76h-.93v-.42c.23-.04,.44-.09,.61-.16,.17-.06,.33-.13,.47-.22h.5v4.56h1.06v.54h-2.88Z"/><path class="cls-9" d="M175.67,203.66c.03-.64,.1-1.21,.2-1.72,.1-.51,.26-.99,.46-1.44,.21-.45,.48-.91,.81-1.37h-2.54v-.57h3.29v.41c-.3,.38-.55,.75-.74,1.11-.19,.35-.34,.71-.45,1.07-.11,.36-.19,.75-.24,1.16-.05,.41-.09,.86-.11,1.36h-.68Z"/><path class="cls-9" d="M180.65,205.3v-5.53h.54l.06,.45h.02c.18-.15,.37-.28,.58-.38s.43-.16,.66-.16c.5,0,.88,.18,1.14,.54,.26,.36,.39,.84,.39,1.44,0,.44-.08,.81-.24,1.13s-.36,.55-.62,.72-.53,.25-.83,.25c-.18,0-.36-.04-.54-.12s-.36-.19-.54-.33l.02,.68v1.31h-.66Zm1.61-2.1c.32,0,.58-.14,.8-.41,.21-.27,.32-.65,.32-1.13,0-.43-.08-.77-.24-1.04-.16-.26-.42-.4-.79-.4-.17,0-.33,.05-.5,.14s-.35,.22-.54,.39v2.04c.18,.15,.35,.25,.51,.32,.17,.06,.31,.09,.44,.09Z"/><path class="cls-9" d="M186.68,203.76c-.31,0-.61-.08-.88-.24s-.5-.39-.66-.7c-.17-.3-.25-.67-.25-1.1s.08-.81,.25-1.11c.17-.3,.39-.54,.66-.7s.57-.24,.88-.24,.62,.08,.89,.24c.27,.16,.49,.39,.66,.7,.17,.3,.25,.67,.25,1.11s-.08,.79-.25,1.1c-.17,.3-.39,.54-.66,.7-.27,.16-.57,.24-.89,.24Zm0-.54c.34,0,.61-.14,.81-.41,.21-.27,.31-.63,.31-1.08s-.1-.81-.31-1.09c-.21-.28-.48-.42-.81-.42s-.6,.14-.81,.42-.31,.64-.31,1.09,.1,.8,.31,1.08,.48,.41,.81,.41Z"/><path class="cls-9" d="M190.91,203.76c-.49,0-.88-.18-1.17-.53-.29-.35-.44-.85-.44-1.5,0-.42,.08-.79,.24-1.09s.37-.54,.62-.71,.53-.25,.83-.25c.22,0,.42,.04,.58,.12,.17,.08,.33,.19,.5,.33l-.03-.66v-1.5h.66v5.7h-.54l-.06-.46h-.02c-.15,.15-.33,.28-.53,.39-.2,.11-.42,.16-.65,.16Zm.14-.55c.34,0,.67-.18,.99-.54v-2.03c-.17-.15-.32-.25-.48-.32-.15-.06-.31-.09-.47-.09-.21,0-.4,.06-.56,.19s-.3,.3-.4,.52c-.1,.22-.15,.48-.15,.78,0,.46,.09,.83,.28,1.09,.19,.26,.45,.4,.79,.4Z"/><path class="cls-9" d="M195.12,203.76c-.28,0-.54-.05-.79-.16-.25-.1-.47-.23-.66-.38l.33-.44c.17,.13,.35,.24,.53,.33,.18,.09,.39,.13,.62,.13,.26,0,.45-.06,.58-.18,.13-.12,.19-.26,.19-.43,0-.13-.04-.25-.13-.34s-.2-.17-.34-.23c-.14-.06-.28-.12-.42-.17-.18-.07-.36-.15-.54-.24-.18-.09-.32-.2-.43-.34-.11-.14-.17-.32-.17-.54,0-.32,.12-.58,.36-.79s.57-.32,.99-.32c.24,0,.46,.04,.67,.13,.21,.09,.39,.19,.54,.31l-.32,.42c-.13-.1-.27-.18-.42-.25-.14-.06-.3-.1-.47-.1-.25,0-.43,.06-.54,.17-.12,.11-.17,.24-.17,.39,0,.12,.04,.22,.12,.3s.18,.14,.31,.2,.26,.11,.41,.17c.19,.07,.37,.15,.55,.24,.18,.09,.33,.21,.45,.35s.18,.34,.18,.59c0,.21-.05,.4-.16,.58s-.27,.32-.48,.42c-.21,.11-.47,.16-.78,.16Z"/></g><g><path class="cls-9" d="M219.52,203.66v-.39c.51-.51,.95-.96,1.3-1.35s.63-.74,.82-1.05c.19-.31,.28-.6,.28-.88,0-.29-.08-.53-.24-.72-.16-.19-.4-.28-.73-.28-.21,0-.41,.06-.59,.18-.18,.12-.35,.27-.5,.44l-.38-.38c.21-.24,.44-.42,.68-.56,.24-.14,.53-.21,.86-.21,.47,0,.85,.14,1.12,.41,.27,.27,.41,.64,.41,1.09,0,.32-.09,.64-.27,.97-.18,.33-.42,.67-.74,1.03-.31,.36-.67,.75-1.08,1.17,.14-.01,.28-.02,.43-.03s.29-.02,.42-.02h1.48v.57h-3.3Z"/><path class="cls-9" d="M225.59,205.3v-5.53h.54l.06,.45h.02c.18-.15,.37-.28,.58-.38,.21-.11,.43-.16,.66-.16,.5,0,.88,.18,1.14,.54,.26,.36,.39,.84,.39,1.44,0,.44-.08,.81-.24,1.13s-.36,.55-.62,.72c-.25,.17-.53,.25-.83,.25-.18,0-.36-.04-.54-.12s-.36-.19-.54-.33l.02,.68v1.31h-.66Zm1.61-2.1c.32,0,.58-.14,.8-.41s.32-.65,.32-1.13c0-.43-.08-.77-.24-1.04s-.42-.4-.79-.4c-.17,0-.33,.05-.5,.14s-.35,.22-.54,.39v2.04c.18,.15,.35,.25,.51,.32,.17,.06,.31,.09,.44,.09Z"/><path class="cls-9" d="M231.62,203.76c-.31,0-.61-.08-.88-.24s-.5-.39-.66-.7c-.17-.3-.25-.67-.25-1.1s.08-.81,.25-1.11c.17-.3,.39-.54,.66-.7s.57-.24,.88-.24,.62,.08,.89,.24c.27,.16,.49,.39,.66,.7,.17,.3,.25,.67,.25,1.11s-.08,.79-.25,1.1c-.17,.3-.39,.54-.66,.7-.27,.16-.57,.24-.89,.24Zm0-.54c.34,0,.61-.14,.81-.41,.21-.27,.31-.63,.31-1.08s-.1-.81-.31-1.09c-.21-.28-.48-.42-.81-.42s-.6,.14-.81,.42-.31,.64-.31,1.09,.1,.8,.31,1.08,.48,.41,.81,.41Z"/><path class="cls-9" d="M235.85,203.76c-.49,0-.87-.18-1.17-.53-.29-.35-.44-.85-.44-1.5,0-.42,.08-.79,.24-1.09s.37-.54,.62-.71,.54-.25,.83-.25c.22,0,.42,.04,.58,.12,.17,.08,.33,.19,.5,.33l-.03-.66v-1.5h.66v5.7h-.54l-.06-.46h-.02c-.15,.15-.33,.28-.53,.39-.2,.11-.42,.16-.65,.16Zm.14-.55c.34,0,.67-.18,.99-.54v-2.03c-.17-.15-.32-.25-.48-.32-.15-.06-.31-.09-.47-.09-.21,0-.4,.06-.56,.19s-.3,.3-.4,.52c-.1,.22-.15,.48-.15,.78,0,.46,.09,.83,.28,1.09,.19,.26,.45,.4,.79,.4Z"/><path class="cls-9" d="M240.06,203.76c-.28,0-.54-.05-.79-.16-.25-.1-.47-.23-.66-.38l.33-.44c.17,.13,.35,.24,.53,.33,.18,.09,.39,.13,.62,.13,.26,0,.45-.06,.58-.18,.13-.12,.19-.26,.19-.43,0-.13-.04-.25-.13-.34s-.2-.17-.34-.23c-.14-.06-.28-.12-.42-.17-.18-.07-.36-.15-.54-.24s-.32-.2-.43-.34c-.11-.14-.17-.32-.17-.54,0-.32,.12-.58,.36-.79s.57-.32,.99-.32c.24,0,.46,.04,.67,.13,.21,.09,.39,.19,.54,.31l-.32,.42c-.13-.1-.27-.18-.42-.25-.14-.06-.3-.1-.47-.1-.25,0-.43,.06-.54,.17-.11,.11-.17,.24-.17,.39,0,.12,.04,.22,.12,.3s.18,.14,.31,.2,.26,.11,.41,.17c.19,.07,.37,.15,.55,.24,.18,.09,.33,.21,.45,.35s.18,.34,.18,.59c0,.21-.06,.4-.16,.58-.11,.18-.27,.32-.48,.42s-.47,.16-.78,.16Z"/><path class="cls-9" d="M244.78,203.66l-1.08-3.89h.67l.58,2.25c.04,.18,.08,.36,.12,.54,.04,.18,.07,.36,.11,.54h.03c.04-.18,.08-.36,.13-.54s.09-.36,.14-.54l.6-2.25h.64l.61,2.25c.05,.18,.09,.36,.14,.54,.05,.18,.09,.36,.13,.54h.03c.04-.18,.08-.36,.12-.54s.08-.36,.12-.54l.57-2.25h.62l-1.04,3.89h-.8l-.56-2.09c-.05-.19-.09-.37-.13-.55-.04-.18-.08-.37-.13-.57h-.03c-.04,.2-.09,.39-.13,.57-.04,.18-.09,.37-.14,.56l-.54,2.08h-.77Z"/><path class="cls-9" d="M250.32,198.98c-.13,0-.23-.04-.32-.12-.08-.08-.12-.18-.12-.32s.04-.23,.12-.31,.19-.12,.32-.12,.23,.04,.32,.12,.12,.18,.12,.31-.04,.24-.12,.32c-.08,.08-.19,.12-.32,.12Zm-.34,4.69v-3.89h.66v3.89h-.66Z"/><path class="cls-9" d="M253.25,203.76c-.42,0-.71-.12-.87-.36-.16-.24-.24-.55-.24-.94v-2.15h-.58v-.5l.61-.04,.08-1.09h.55v1.09h1.05v.54h-1.05v2.16c0,.24,.04,.43,.13,.56,.09,.13,.24,.2,.47,.2,.07,0,.14-.01,.22-.04,.08-.02,.15-.05,.22-.07l.13,.5c-.11,.04-.22,.07-.35,.1-.13,.03-.25,.04-.37,.04Z"/><path class="cls-9" d="M254.81,203.66v-5.7h.66v1.55l-.02,.8c.19-.18,.38-.33,.59-.45,.21-.13,.44-.19,.71-.19,.41,0,.71,.13,.9,.39,.19,.26,.28,.64,.28,1.13v2.46h-.66v-2.38c0-.36-.06-.63-.18-.79s-.3-.25-.56-.25c-.2,0-.37,.05-.53,.15-.16,.1-.33,.25-.53,.45v2.82h-.66Z"/><path class="cls-9" d="M262.5,203.76c-.35,0-.66-.08-.94-.24-.28-.16-.51-.4-.67-.7-.17-.3-.25-.67-.25-1.09s.08-.79,.25-1.1,.39-.54,.65-.7,.55-.25,.84-.25c.5,0,.88,.17,1.15,.5,.27,.33,.4,.77,.4,1.33,0,.07,0,.14,0,.2s0,.12-.02,.17h-2.62c.03,.41,.16,.74,.39,.98,.23,.25,.53,.37,.91,.37,.19,0,.36-.03,.52-.08,.16-.06,.31-.13,.45-.22l.23,.43c-.17,.11-.35,.2-.56,.28s-.45,.12-.72,.12Zm-1.22-2.35h2.08c0-.39-.08-.7-.25-.9s-.4-.31-.71-.31c-.27,0-.52,.11-.73,.32-.22,.21-.35,.51-.39,.89Z"/><path class="cls-9" d="M264.97,203.66v-3.89h.54l.06,.7h.02c.13-.25,.3-.44,.49-.58,.19-.14,.4-.22,.62-.22,.16,0,.29,.03,.42,.08l-.13,.58c-.06-.02-.12-.04-.18-.05s-.12-.02-.2-.02c-.17,0-.34,.07-.52,.2-.18,.13-.33,.37-.47,.7v2.5h-.66Z"/><path class="cls-9" d="M267.83,203.66v-3.89h.54l.06,.7h.02c.13-.25,.3-.44,.49-.58,.19-.14,.4-.22,.62-.22,.15,0,.29,.03,.42,.08l-.13,.58c-.06-.02-.12-.04-.18-.05-.05-.01-.12-.02-.2-.02-.17,0-.34,.07-.52,.2-.18,.13-.33,.37-.47,.7v2.5h-.66Z"/><path class="cls-9" d="M272.12,203.76c-.31,0-.61-.08-.88-.24s-.5-.39-.66-.7c-.17-.3-.25-.67-.25-1.1s.08-.81,.25-1.11c.17-.3,.39-.54,.66-.7s.57-.24,.88-.24,.62,.08,.89,.24c.27,.16,.49,.39,.66,.7,.17,.3,.25,.67,.25,1.11s-.08,.79-.25,1.1c-.17,.3-.39,.54-.66,.7-.27,.16-.57,.24-.89,.24Zm0-.54c.34,0,.61-.14,.81-.41,.21-.27,.31-.63,.31-1.08s-.1-.81-.31-1.09c-.21-.28-.48-.42-.81-.42s-.6,.14-.81,.42-.31,.64-.31,1.09,.1,.8,.31,1.08,.48,.41,.81,.41Z"/><path class="cls-9" d="M275.02,203.66v-3.89h.54l.06,.7h.02c.13-.25,.3-.44,.49-.58,.19-.14,.4-.22,.62-.22,.15,0,.29,.03,.42,.08l-.13,.58c-.06-.02-.12-.04-.18-.05-.05-.01-.12-.02-.2-.02-.17,0-.34,.07-.52,.2-.18,.13-.33,.37-.47,.7v2.5h-.66Z"/><path class="cls-9" d="M278.86,203.76c-.28,0-.54-.05-.79-.16-.25-.1-.47-.23-.66-.38l.33-.44c.17,.13,.35,.24,.53,.33,.18,.09,.39,.13,.62,.13,.26,0,.45-.06,.58-.18,.13-.12,.19-.26,.19-.43,0-.13-.04-.25-.13-.34s-.2-.17-.34-.23c-.14-.06-.28-.12-.42-.17-.18-.07-.36-.15-.54-.24-.18-.09-.32-.2-.43-.34-.11-.14-.17-.32-.17-.54,0-.32,.12-.58,.36-.79s.57-.32,.99-.32c.24,0,.46,.04,.67,.13,.21,.09,.39,.19,.54,.31l-.32,.42c-.13-.1-.27-.18-.42-.25-.14-.06-.3-.1-.47-.1-.25,0-.43,.06-.54,.17-.12,.11-.17,.24-.17,.39,0,.12,.04,.22,.12,.3s.18,.14,.31,.2,.26,.11,.41,.17c.19,.07,.37,.15,.55,.24,.18,.09,.33,.21,.45,.35s.18,.34,.18,.59c0,.21-.05,.4-.16,.58s-.27,.32-.48,.42c-.21,.11-.47,.16-.78,.16Z"/></g><circle class="cls-10" cx="166.65" cy="201.5" r="1.5"/><circle class="cls-8" cx="215.65" cy="201.5" r="1.5"/><line class="cls-11" x1="99.65" y1="214.5" x2="440.65" y2="214.5"/><rect class="cls-4" x="99.15" y="256" width="335" height="20"/><rect class="cls-3" x="99.15" y="280" width="335" height="20"/><rect class="cls-4" x="99.15" y="304" width="335" height="20"/><rect class="cls-3" x="99.15" y="328" width="335" height="20"/><rect class="cls-4" x="99.15" y="352" width="335" height="20"/><g><path class="cls-7" d="M303.82,473.08c-5.88,0-11.43-2.61-15.19-7.35l-57.17-71.05c-3.76-4.74-5.23-10.78-3.76-16.66l20.42-88.69c1.31-5.88,5.23-10.62,10.62-13.23l82.65-39.53c2.61-1.31,5.55-1.96,8.49-1.96s5.88,.65,8.49,1.96l82.65,39.37c5.39,2.61,9.31,7.35,10.62,13.23l20.42,88.69c1.31,5.88,0,11.92-3.76,16.66l-57.17,71.05c-3.76,4.57-9.31,7.35-15.19,7.35l-92.12,.16h0Z"/><path class="cls-5" d="M349.72,238.69c2.29,0,4.57,.49,6.7,1.47l82.65,39.37c4.25,2.12,7.51,6.04,8.49,10.62l20.42,88.69c1.14,4.74,0,9.64-3.1,13.39l-57.17,71.05c-2.94,3.76-7.51,5.88-12.25,5.88h-91.63c-4.74,0-9.31-2.12-12.25-5.88l-57.17-71.05c-2.94-3.76-4.08-8.66-3.1-13.39l20.42-88.69c1.14-4.74,4.25-8.66,8.49-10.62l82.65-39.53c2.12-.82,4.57-1.31,6.86-1.31h0Zm0-7.68c-3.43,0-6.86,.82-10.13,2.29l-82.65,39.53c-6.53,3.1-11.11,8.82-12.74,15.84l-20.42,88.69c-1.63,7.02,0,14.21,4.57,19.93l57.17,71.05c4.41,5.55,11.11,8.66,18.13,8.66h91.63c7.02,0,13.72-3.1,18.13-8.66l57.17-71.05c4.57-5.55,6.21-12.9,4.57-19.93l-20.42-88.69c-1.63-7.02-6.21-12.74-12.74-15.84l-82.32-39.53c-3.1-1.47-6.53-2.29-9.96-2.29Z"/><path class="cls-5" d="M432.53,371.81q-.16,0,0,0h-.16c-.16,0-.33,0-.33-.16-.33,0-.65-.16-.98-.16-1.14-.16-2.12-.33-3.1-.33-.49,0-.98,0-1.63-.16h-.16c-3.43-.33-6.21-.65-8.82-1.47-1.14-.49-1.47-1.14-1.8-1.8,0-.16-.16-.16-.16-.33l-2.12-.65c1-7.68,.62-15.49-1.14-23.03-1.78-7.61-4.88-14.85-9.15-21.4l1.63-1.47v-.33c0-.82,.16-1.63,.82-2.45,1.96-1.8,4.41-3.27,7.35-5.06,.49-.33,.98-.49,1.47-.82,.98-.49,1.8-.98,2.78-1.63,.16-.16,.49-.33,.82-.65,.16-.16,.33-.16,.33-.33,2.29-1.96,2.78-5.23,1.14-7.35-.82-1.14-2.29-1.8-3.76-1.8-1.31,0-2.45,.49-3.59,1.31l-.33,.33c-.33,.16-.49,.49-.82,.65-.82,.82-1.47,1.47-2.12,2.29-.33,.33-.65,.82-1.14,1.14-2.29,2.45-4.41,4.41-6.53,5.88-.49,.33-.98,.49-1.47,.49-.33,0-.65,0-.98-.16h-.33l-1.96,1.31c-2.12-2.29-4.41-4.25-6.7-6.21-9.85-7.7-21.7-12.4-34.14-13.56l-.16-2.12-.33-.33c-.49-.49-1.14-.98-1.31-2.12-.16-2.61,.16-5.55,.49-8.82v-.16c0-.49,.16-1.14,.33-1.63,.16-.98,.33-1.96,.49-3.1v-1.47c0-2.94-2.29-5.39-5.06-5.39-1.31,0-2.61,.65-3.59,1.63-.98,.98-1.47,2.29-1.47,3.76v1.31c0,1.14,.16,2.12,.49,3.1,.16,.49,.16,.98,.33,1.63v.16c.33,3.27,.82,6.21,.49,8.82-.16,1.14-.82,1.63-1.31,2.12l-.33,.33-.16,2.12c-2.94,.33-5.88,.65-8.82,1.31-12.58,2.78-23.68,9.15-32.34,18.29l-1.63-1.14h-.33c-.33,0-.65,.16-.98,.16-.49,0-.98-.16-1.47-.49-2.12-1.47-4.25-3.59-6.53-6.04-.33-.33-.65-.82-1.14-1.14-.65-.82-1.31-1.47-2.12-2.29-.16-.16-.49-.33-.82-.65-.16-.16-.33-.16-.33-.33-1.01-.84-2.28-1.3-3.59-1.31-1.47,0-2.94,.65-3.76,1.8-1.63,2.12-1.14,5.39,1.14,7.35,.16,0,.16,.16,.33,.16,.33,.16,.49,.49,.82,.65,.98,.65,1.8,1.14,2.78,1.63,.49,.16,.98,.49,1.47,.82,2.94,1.8,5.39,3.27,7.35,5.06,.82,.82,.82,1.63,.82,2.45v.33l1.63,1.47c-.33,.49-.65,.82-.82,1.31-8.17,12.9-11.27,28.09-9.15,43.12l-2.12,.65c0,.16-.16,.16-.16,.33-.33,.65-.82,1.31-1.8,1.8-2.45,.82-5.39,1.14-8.82,1.47h-.16c-.49,0-1.14,0-1.63,.16-.98,0-1.96,.16-3.1,.33-.33,0-.65,.16-.98,.16-.16,0-.33,0-.49,.16-2.94,.65-4.74,3.43-4.25,6.04,.49,2.29,2.61,3.76,5.23,3.76,.49,0,.82,0,1.31-.16,.16,0,.33,0,.33-.16,.33,0,.65-.16,.98-.16,1.14-.33,1.96-.65,2.94-1.14,.49-.16,.98-.49,1.47-.65h.16c3.1-1.14,5.88-2.12,8.49-2.45h.33c.98,0,1.63,.49,2.12,.82,.16,0,.16,.16,.33,.16l2.29-.33c3.92,12.09,11.43,22.87,21.4,30.71,2.29,1.8,4.57,3.27,7.02,4.74l-.98,2.12c0,.16,.16,.16,.16,.33,.33,.65,.65,1.47,.33,2.61-.98,2.45-2.45,4.9-4.25,7.68v.16c-.33,.49-.65,.82-.98,1.31-.65,.82-1.14,1.63-1.8,2.61-.16,.16-.33,.49-.49,.82,0,.16-.16,.33-.16,.33-1.31,2.78-.33,5.88,2.12,7.02,.65,.33,1.31,.49,1.96,.49,1.96,0,3.92-1.31,4.9-3.1,0-.16,.16-.33,.16-.33,.16-.33,.33-.65,.49-.82,.49-1.14,.65-1.96,.98-2.94l.49-1.47c1.14-3.27,1.96-5.88,3.43-8.17,.65-.98,1.47-1.14,2.12-1.47q.16,0,.33-.16l1.14-2.12c7.19,2.78,15.03,4.25,22.87,4.25,4.74,0,9.64-.49,14.21-1.63,2.88-.64,5.71-1.46,8.49-2.45l.98,1.8q.16,0,.33,.16c.82,.16,1.47,.49,2.12,1.47,1.31,2.29,2.29,5.06,3.43,8.17v.16l.49,1.47c.33,.98,.49,1.96,.98,2.94,.16,.33,.33,.49,.49,.82,0,.16,.16,.33,.16,.33,.98,1.96,2.94,3.1,4.9,3.1,.65,0,1.31-.16,1.96-.49,1.14-.65,2.12-1.63,2.45-2.94,.33-1.31,.33-2.78-.33-4.08,0-.16-.16-.16-.16-.33-.16-.33-.33-.65-.49-.82-.49-.98-1.14-1.8-1.8-2.61-.33-.49-.65-.82-.98-1.31v-.16c-1.8-2.78-3.43-5.23-4.25-7.68-.33-1.14,0-1.8,.16-2.61,0-.16,.16-.16,.16-.33l-.82-1.96c8.66-5.06,16.01-12.25,21.56-21.07,2.94-4.57,5.23-9.64,6.86-14.7l1.96,.33c.16,0,.16-.16,.33-.16,.65-.33,1.14-.82,2.12-.82h.33c2.61,.33,5.39,1.31,8.49,2.45h.16c.49,.16,.98,.49,1.47,.65,.98,.49,1.8,.82,2.94,1.14,.33,0,.65,.16,.98,.16,.16,0,.33,0,.49,.16,.49,.16,.82,.16,1.31,.16,2.45,0,4.57-1.63,5.23-3.76,0-1.96-1.8-4.57-4.74-5.39h0Zm-75.63-8l-7.19,3.43-7.19-3.43-1.8-7.68,4.9-6.21h8l4.9,6.21-1.63,7.68h0Zm42.63-16.99c1.27,5.4,1.65,10.97,1.14,16.5l-24.99-7.19c-2.29-.65-3.59-2.94-3.1-5.23,.16-.65,.49-1.31,.98-1.8l19.76-17.8c2.78,4.57,4.9,9.8,6.21,15.52h0Zm-14.05-25.32l-21.4,15.19c-1.8,1.14-4.25,.82-5.72-.98-.49-.49-.65-1.14-.82-1.8l-1.47-26.63c11.12,1.28,21.49,6.29,29.4,14.21h0Zm-47.37-13.4c1.8-.33,3.43-.65,5.23-.98l-1.47,26.13c-.16,2.29-1.96,4.25-4.41,4.25-.65,0-1.47-.16-1.96-.49l-21.72-15.52c6.7-6.7,15.03-11.27,24.34-13.39h0Zm-32.18,23.19l19.44,17.31c1.8,1.47,1.96,4.25,.49,6.04-.49,.65-1.14,1.14-1.96,1.31l-25.32,7.35c-.98-11.11,1.47-22.38,7.35-32.02h0Zm-4.41,44.27l25.97-4.41c2.12-.16,4.08,1.31,4.57,3.43,.16,.98,.16,1.8-.16,2.61l-9.96,24.01c-9.15-5.88-16.5-14.86-20.42-25.64h0Zm59.62,32.5c-3.76,.82-7.51,1.31-11.43,1.31-5.72,0-11.27-.98-16.5-2.61l12.9-23.36c1.31-1.47,3.43-2.12,5.23-1.14,.76,.47,1.43,1.08,1.96,1.8l12.58,22.7c-1.47,.49-3.1,.82-4.74,1.31h0Zm31.85-22.7c-4.08,6.53-9.47,11.76-15.68,15.84l-10.29-24.66c-.49-1.96,.33-4.08,2.29-5.06,.65-.33,1.47-.49,2.29-.49l26.13,4.41c-.98,3.59-2.61,6.86-4.74,9.96h0Z"/></g></svg>