<svg width="160" height="44" viewBox="0 0 160 44" fill="none" xmlns="http://www.w3.org/2000/svg">
<path d="M31.5014 19.2753H18.1403C17.7956 19.2753 17.5161 19.5552 17.5161 19.9004V26.4324C17.5161 26.7772 17.7956 27.0579 18.1403 27.0579H23.3524V35.1738C23.3524 35.1738 22.1822 35.5729 18.9464 35.5729C15.1292 35.5729 9.79664 34.1779 9.79664 22.4515C9.79664 10.7233 15.3495 9.18003 20.5625 9.18003C25.0754 9.18003 27.019 9.97417 28.2564 10.3569C28.6453 10.4761 29.0046 10.0894 29.0046 9.74418L30.4949 3.43246C30.4949 3.27133 30.4402 3.07667 30.2565 2.94468C29.7542 2.58667 26.6893 0.871671 18.9464 0.871671C10.0271 0.871671 0.877319 4.66629 0.877319 22.9093C0.877319 41.1523 11.3527 43.8707 20.1802 43.8707C27.4892 43.8707 31.923 40.7475 31.923 40.7475C32.1057 40.6464 32.1256 40.3912 32.1256 40.2738V19.9004C32.1256 19.5552 31.8462 19.2753 31.5014 19.2753" fill="#9CA3AF"/>
<path d="M100.359 3.05723C100.359 2.70982 100.084 2.42906 99.7385 2.42906H92.2155C91.872 2.42906 91.5926 2.70982 91.5926 3.05723C91.5926 3.059 91.5948 17.5961 91.5948 17.5961H79.8679V3.05723C79.8679 2.70982 79.5916 2.42906 79.2472 2.42906H71.7246C71.3825 2.42906 71.1031 2.70982 71.1031 3.05723V42.4241C71.1031 42.7715 71.3825 43.054 71.7246 43.054H79.2472C79.5916 43.054 79.8679 42.7715 79.8679 42.4241V25.5857H91.5948C91.5948 25.5857 91.574 42.4227 91.574 42.4241C91.574 42.7715 91.853 43.054 92.1974 43.054H99.7381C100.083 43.054 100.358 42.7715 100.359 42.4241V3.05723" fill="#9CA3AF"/>
<path d="M45.6977 8.22297C45.6977 5.51429 43.5263 3.32518 40.8467 3.32518C38.1698 3.32518 35.9962 5.51429 35.9962 8.22297C35.9962 10.9294 38.1698 13.1243 40.8467 13.1243C43.5263 13.1243 45.6977 10.9294 45.6977 8.22297Z" fill="#9CA3AF"/>
<path d="M45.16 34.1201C45.16 33.111 45.16 15.9482 45.16 15.9482C45.16 15.603 44.8815 15.3209 44.5376 15.3209H37.038C36.6941 15.3209 36.3864 15.6758 36.3864 16.0206C36.3864 16.0206 36.3864 37.8874 36.3864 42.0555C36.3864 42.8205 36.8632 43.0483 37.4798 43.0483C37.4798 43.0483 40.6812 43.0483 44.2365 43.0483C44.9782 43.0483 45.16 42.6841 45.16 42.0431C45.16 40.6477 45.16 35.1809 45.16 34.1201" fill="#9CA3AF"/>
<path d="M128.95 15.38H121.485C121.143 15.38 120.864 15.6626 120.864 16.0095V35.3124C120.864 35.3124 118.967 36.6999 116.275 36.6999C113.583 36.6999 112.869 35.4784 112.869 32.8426C112.869 30.2036 112.869 16.0095 112.869 16.0095C112.869 15.6626 112.591 15.38 112.248 15.38H104.671C104.329 15.38 104.049 15.6626 104.049 16.0095C104.049 16.0095 104.049 26.2889 104.049 34.1175C104.049 41.9464 108.412 43.8614 114.415 43.8614C119.339 43.8614 123.31 41.1412 123.31 41.1412C123.31 41.1412 123.499 42.575 123.584 42.745C123.669 42.9145 123.892 43.0858 124.133 43.0858L128.953 43.0641C129.295 43.0641 129.575 42.7816 129.575 42.436L129.573 16.0095C129.573 15.6626 129.294 15.38 128.95 15.38" fill="#9CA3AF"/>
<path d="M146.41 36.6761C143.82 36.5975 142.064 35.4224 142.064 35.4224V22.9556C142.064 22.9556 143.796 21.8935 145.922 21.7037C148.611 21.4631 151.201 22.2749 151.201 28.6882C151.201 35.4506 150.032 36.7855 146.41 36.6761ZM149.354 14.4959C145.114 14.4959 142.23 16.3879 142.23 16.3879V3.05723C142.23 2.70982 141.952 2.42906 141.61 2.42906H134.065C133.722 2.42906 133.443 2.70982 133.443 3.05723V42.4241C133.443 42.7715 133.722 43.054 134.066 43.054C134.067 43.054 139.299 43.054 139.3 43.054C139.536 43.054 139.715 42.9326 139.846 42.7198C139.977 42.5079 140.164 40.9046 140.164 40.9046C140.164 40.9046 143.249 43.8279 149.089 43.8279C155.945 43.8279 159.877 40.3506 159.877 28.2163C159.877 16.0815 153.597 14.4959 149.354 14.4959" fill="#9CA3AF"/>
<path d="M66.7818 15.3174H61.1385C61.1385 15.3174 61.1301 7.86365 61.1301 7.86233C61.1301 7.57981 60.9844 7.43899 60.6582 7.43899H52.9683C52.669 7.43899 52.5087 7.57053 52.5087 7.85791V15.5619C52.5087 15.5619 48.6549 16.492 48.3941 16.5675C48.1349 16.6426 47.9438 16.8819 47.9438 17.1675V22.0087C47.9438 22.357 48.2219 22.6378 48.5658 22.6378H52.5087C52.5087 22.6378 52.5087 27.7016 52.5087 34.2848C52.5087 42.9357 58.5768 43.7855 62.6711 43.7855C64.5424 43.7855 66.7805 43.1847 67.15 43.0483C67.3734 42.9662 67.5032 42.7344 67.5032 42.4837L67.5098 37.1577C67.5098 36.8107 67.2162 36.5295 66.886 36.5295C66.5567 36.5295 65.7158 36.6633 64.8497 36.6633C62.0774 36.6633 61.1385 35.3747 61.1385 33.706C61.1385 32.0392 61.138 22.6378 61.138 22.6378H66.7818C67.1257 22.6378 67.4043 22.357 67.4043 22.0087V15.9447C67.4043 15.5973 67.1257 15.3174 66.7818 15.3174" fill="#9CA3AF"/>
</svg>
