<?xml version="1.0" encoding="UTF-8"?><svg id="Layer_1" xmlns="http://www.w3.org/2000/svg" viewBox="0 0 144.41 74.46"><defs><style>.cls-1{fill:#fff;}.cls-2{fill:#333152;}.cls-3{fill:#d8b7a0;}.cls-4{fill:#bc9375;}.cls-5{fill:#c49a7e;}.cls-6{fill:#dbdbdb;}.cls-7{fill:#c6c6c6;}.cls-8{fill:#091c30;}.cls-9{fill:#53537a;}.cls-10{fill:#3b3b63;}</style></defs><g id="logo-black"><g id="logo" transform="translate(46.000000, 50.000000)"><g id="snyk-wordmark" transform="translate(210.000000, 59.000000)"><path class="cls-8" d="M130.03,41.06h-.56v9.68h-6.97V26.64l6.97-10.87v22.49c1.39-1.7,6.06-8.13,6.06-8.13h8.6l-8.16,8.61,8.44,12.02h-8.8l-5.58-9.7Zm-19.42-1.58l2.86-9.29h6.9l-8.09,20.48c-2.41,6.16-5.86,10.32-11.01,10.32-1.98,0-3.65-.51-4.52-1l2.77-4.28c.41,.05,.84,.07,1.27,.07,2.38,0,4.16-2.31,5.32-5.04l-8.49-20.55h7.81l3.06,9.17c.59,1.75,1.02,5.07,1.02,5.07,0,0,.54-3.21,1.11-4.96Zm-21.06-.48c0-2.68-1.19-3.95-3.45-3.95-1.11,0-2.26,.31-3.06,.79v14.9h-6.97V30.39l6.82-.56-.17,3.33h.23c1.47-1.98,3.96-3.47,6.94-3.47,3.57,0,6.66,2.21,6.66,7.43v13.63h-7v-11.74Zm-33.42,10.69l.63-4.74c2.18,1.07,4.64,1.58,6.7,1.58,1.5,0,2.49-.51,2.49-1.42,0-2.6-9.4-1.98-9.4-8.78,0-4.35,4-6.64,9-6.64,2.49,0,5.07,.68,6.74,1.27l-.68,4.66c-1.75-.68-4.13-1.3-6.11-1.3-1.22,0-2.21,.43-2.21,1.22,0,2.57,9.59,2.06,9.59,8.69,0,4.41-3.93,6.95-9.31,6.95-2.97,0-5.38-.51-7.45-1.5Z"/></g><g id="snyk-dog"><g id="dog" transform="translate(56.466667, 15.730000)"><path id="shield-outline-ears" class="cls-1" d="M40.96,19.65H6.29c0-2.17,3.13-8.72,9.4-19.65l2.6,17.3h10.59L31.48,0c6.31,11.08,9.47,17.63,9.47,19.65Z"/><path id="shield-outline" class="cls-1" d="M23.57,74.46L0,57.97V19.47s8.71-3.21,23.6-3.21,23.54,3.21,23.54,3.21V57.97l-23.57,16.49Z"/><path id="shield-left" class="cls-6" d="M23.57,72.14L1.51,56.77V21.02s8.25-2.98,22.06-2.98v54.11Z"/><path id="shield-right" class="cls-7" d="M23.6,18.04s-.02,0-.03,0v54.06h0l21.87-15.33V21.02s-8.03-2.98-21.84-2.98Z"/><path id="neck-right" class="cls-10" d="M35.51,63.73l-1.86-16.15h-10.23v24.6l.15,.14c3.98-2.72,7.96-5.58,11.94-8.59Z"/><polygon id="neck-left" class="cls-9" points="11.64 63.86 23.57 72.32 23.58 47.09 13.24 47.09 11.64 63.86"/><path id="chin" class="cls-4" d="M28.68,59.08c0,2.77-2.64,4.15-5.05,4.15s-5.11-1.38-5.11-4.15"/><path id="teeth" class="cls-1" d="M23.6,60.51c-1.94,0-2.89-1.4-2.89-4.28h.93c0,3.37,1.32,3.37,1.96,3.37s1.96,0,1.96-3.37h.93c0,2.88-.94,4.28-2.88,4.28Z"/><path id="face-right" class="cls-5" d="M23.57,56.94c.6,1.54,1.75,2.32,3.46,2.32s3.42-.87,4.22-3.01c1.11-3,1.1-7.17,1.1-7.17,0,0,4.94-6.08,4.94-8.14h-13.73v16Z"/><path id="face-left" class="cls-3" d="M9.64,40.94c0,2.38,4.9,8.14,4.9,8.14,0,0-.01,4.17,1.1,7.17,.79,2.14,2.55,3.01,4.22,3.01s2.95-.77,3.7-2.32v-16H9.64Z"/><path id="brow-right" class="cls-10" d="M36.71,27.25c-3.81-3.84-4.76-11.85-4.76-11.85-.71,2.52-2.26,9.96-2.26,9.96,0,0-3-.95-6.24-.96-.11,0-.11,10.02,0,30.06l3.08-2.19,.57-10.62,3.28,3.68,4.22,1.21s1.58-1.11,1.58-1.1c.67-.92,.89-1.71,1.06-2.12,.59-1.49-.73-12.85-.73-12.85-.47-.96,.2-3.24,.2-3.24Z"/><path id="brow-left" class="cls-9" d="M17.53,25.36s-1.55-7.44-2.26-9.96c0,0-.95,8.01-4.76,11.85,0,0,.67,2.28,.2,3.24,0,0-1.32,11.36-.73,12.84,.16,.41,.39,1.2,1.06,2.12,0,0,1.58,1.1,1.58,1.1l4.22-1.21,3.28-3.68,.57,10.62,2.88,2.13V24.35c-3.25,0-6.04,1.02-6.04,1.02Z"/><path id="face-outline" class="cls-2" d="M34.04,7.98c.63,1.16,6.07,11.86,6.07,15.57l-2.41,6.45c.41,3.64,1.22,11.55,.61,13.1-.38,.96-1.82,2.92-3.05,4.51l1.69,15.11-2.28,1.61-1.27-11.04c-.17,1.12-.44,2.32-.83,3.39-.53,1.42-1.46,2.5-2.65,3.14-.07,3.41-3.27,5.25-6.28,5.25s-6.27-1.84-6.34-5.25c-1.2-.64-2.13-1.72-2.66-3.14-.38-1.03-.64-2.18-.82-3.26l-1.21,11.11-2.29-1.64,1.65-15.24c-1.24-1.6-2.71-3.6-3.09-4.56-.61-1.55,.17-9.45,.58-13.1l-2.55-6.68v-.22c0-3.71,5.58-13.97,6.21-15.12l1.81-3.25c1.1,7.53,1.65,11.3,1.65,11.31l.89,6.1,1.17,1.89c1.12-.37,3.03-.89,4.97-.89s3.86,.52,4.99,.89l1.17-1.89,2.53-17.41,1.77,3.25Zm-10.42,54.67c1.33,0,3.23-.59,3.71-2.16-.05,0-.1,0-.15,0-.26,0-.5-.02-.74-.06-.69,.94-1.76,1.23-2.85,1.23s-2.15-.29-2.84-1.23c-.24,.03-.48,.06-.74,.06-.05,0-.1,0-.15,0,.48,1.57,2.41,2.16,3.76,2.16Zm-1.56-2.58c.41,.3,.93,.47,1.54,.47s1.12-.17,1.53-.47c-.33-.14-.63-.32-.89-.5-.24,.07-.47,.07-.64,.07s-.41,0-.65-.07c-.26,.19-.56,.36-.89,.5Zm9.48-11.72c1.64-2,4.11-5.22,4.47-6.12,.27-.93-.19-7.08-.78-12.24l-.03-.29,.48-1.28c-1.59-1.67-2.71-3.96-3.47-6.12l-.1,.68-2.52,4.06-.98-.41s-2.59-1.07-5.03-1.07-4.98,1.05-5,1.07l-.98,.42-2.52-4.07-.07-.52c-.77,2.14-1.88,4.39-3.47,6.02l.46,1.22-.03,.29c-.59,5.16-1.05,11.31-.77,12.26,.35,.88,2.82,4.1,4.46,6.1l.27,.33v.43s0,4,1.03,6.75c.74,2,2.39,2.21,3.06,2.21,1.7,0,2.41-1.53,2.44-1.59,.4-.77,.6-2.03,.6-3.78h1.02c0,1.41,.21,2.67,.64,3.79,.03,.06,.76,1.59,2.46,1.59,.67,0,2.32-.22,3.06-2.21,1.03-2.76,1.03-6.71,1.03-6.75v-.43l.27-.34Z"/><path id="eye-shadow-right" class="cls-2" d="M31.26,37.59h-4.94v.05c0,1.69,1.49,3.06,3.24,3.06s3.24-1.37,3.24-3.06v-.05h-1.54Z"/><path id="eye-right" class="cls-1" d="M27.56,37.59v.05c0,1.01,.83,1.82,1.85,1.82s1.85-.82,1.85-1.82v-.05h-3.7Z"/><path id="eye-pupil-right" class="cls-2" d="M29.12,37.59s-.02,0-.02,0c.11,.02,.17,.26,.14,.42-.03,.24-.25,.41-.49,.42,.07,.32,.33,.57,.69,.62,.45,.06,.86-.24,.93-.68,.05-.32-.11-.79-.38-.79h-.87Z"/><path id="eye-shadow-left" class="cls-2" d="M19.35,37.59h-4.94v.05c0,1.69,1.49,3.06,3.24,3.06s3.24-1.37,3.24-3.06v-.05h-1.54Z"/><path id="eye-left" class="cls-1" d="M15.65,37.59v.05c0,1.01,.83,1.82,1.85,1.82s1.85-.82,1.85-1.82v-.05h-3.7Z"/><path id="eye-pupil-left" class="cls-2" d="M18.07,37.59h-.87s-.02,0-.02,0c.11,.02,.17,.26,.14,.42-.03,.24-.25,.41-.49,.42,.07,.32,.34,.57,.69,.62,.45,.06,.86-.24,.93-.68,.05-.32-.11-.79-.38-.79Z"/><path id="brow-right-2" class="cls-5" d="M30.89,36.15c.21-.22,1.97-2.18-.39-2.18-2.13,0-3.66,1.68-4.06,2.18h4.45Z"/><path id="brow-left-2" class="cls-3" d="M20.74,36.15c-.41-.5-1.93-2.18-4.06-2.18-2.35,0-.59,1.96-.39,2.18h4.45Z"/><path id="ear-left" class="cls-3" d="M9.43,22.91c.14-1.92,2.18-6.53,4.12-10.41l.52,3.55c-.2,1.33-1.1,6.53-3.52,9.81l-1.12-2.95Z"/><path id="ear-right" class="cls-5" d="M33.17,15.77l.48-3.27c1.94,3.88,3.98,8.49,4.12,10.41l-1.09,2.88c-2.62-3.61-3.44-9.48-3.51-10.02Z"/><g id="nose"><path id="path-1" class="cls-2" d="M21.78,54.85c-.91-.68-1.85-1.54-1.85-2.2,0-.43,.78-1.76,.78-1.76h5.79s.76,1.18,.76,1.76c0,.61-.95,1.45-1.89,2.13-.32-.54-.73-.64-.92-.21-.1,.22-.12,.54-.07,.87-.51,.33-.89,.54-.89,.54,0,0-.29-.17-.7-.43,.07-.37,.05-.73-.05-.98-.19-.43-.61-.33-.93,.23l-.03,.05Z"/></g></g></g></g></g></svg>