<?xml version="1.0" encoding="UTF-8"?><svg id="Layer_1" xmlns="http://www.w3.org/2000/svg" xmlns:xlink="http://www.w3.org/1999/xlink" viewBox="0 0 495.19 438.09"><defs><style>.cls-1,.cls-2,.cls-3,.cls-4,.cls-5,.cls-6,.cls-7,.cls-8{fill:#111827;}.cls-1,.cls-9{letter-spacing:0em;}.cls-2,.cls-10,.cls-11{letter-spacing:0em;}.cls-10{fill:#124ac4;}.cls-12{fill:url(#linear-gradient);}.cls-3{letter-spacing:-.02em;}.cls-13{fill:#00a58c;}.cls-14,.cls-15{fill:#fff;}.cls-16{fill:#ee7320;}.cls-17{fill:#7df3e1;}.cls-18{fill:#494f56;}.cls-19{letter-spacing:0em;}.cls-20{font-family:SourceSansPro-SemiBold, 'Source Sans Pro';font-size:24px;}.cls-5,.cls-21{letter-spacing:0em;}.cls-6{letter-spacing:-.02em;}.cls-7,.cls-22{letter-spacing:-.01em;}.cls-23{letter-spacing:0em;}.cls-15{filter:url(#drop-shadow-2);}.cls-24,.cls-8{letter-spacing:0em;}</style><linearGradient id="linear-gradient" x1="118.63" y1="177.78" x2="340.12" y2="-43.72" gradientTransform="matrix(1, 0, 0, 1, 0, 0)" gradientUnits="userSpaceOnUse"><stop offset="0" stop-color="#429bfb"/><stop offset="1" stop-color="#124ac4"/></linearGradient><filter id="drop-shadow-2" filterUnits="userSpaceOnUse"><feOffset dx="0" dy="1"/><feGaussianBlur result="blur" stdDeviation="3"/><feFlood flood-color="#000" flood-opacity=".2"/><feComposite in2="blur" operator="in"/><feComposite in="SourceGraphic"/></filter></defs><g><rect class="cls-12" x="27.85" y="47.06" width="403.06" height="39.94"/><g><rect class="cls-4" x="28.35" y="47.56" width="27.31" height="263.93"/><path class="cls-4" d="M55.15,48.06V310.98H28.85V48.06h26.31m1-1H27.85V311.98h28.31V47.06h0Z"/></g></g><g><path class="cls-13" d="M229.17,263.67v20.68c0,5.74-4.66,10.4-10.4,10.4h-9.84c-5.74,0-10.4-4.66-10.4-10.4v-20.68c0-5.74,4.66-10.4,10.4-10.4h9.84c5.74,0,10.4,4.66,10.4,10.4Z"/><path class="cls-17" d="M229.17,142.67v20.68c0,5.74-4.66,10.4-10.4,10.4h-9.84c-5.74,0-10.4-4.66-10.4-10.4v-20.68c0-5.74,4.66-10.4,10.4-10.4h9.84c5.74,0,10.4,4.66,10.4,10.4Z"/><path class="cls-16" d="M110.89,203.17v20.68c0,5.74-4.66,10.4-10.4,10.4h-9.84c-5.74,0-10.4-4.66-10.4-10.4v-20.68c0-5.74,4.66-10.4,10.4-10.4h9.84c5.74,0,10.4,4.66,10.4,10.4Z"/><g><path class="cls-13" d="M343.46,293.92v20.68c0,5.74-4.66,10.4-10.4,10.4h-9.84c-5.74,0-10.4-4.66-10.4-10.4v-20.68c0-5.74,4.66-10.4,10.4-10.4h9.84c5.74,0,10.4,4.66,10.4,10.4Z"/><path class="cls-13" d="M343.46,233.42v20.68c0,5.74-4.66,10.4-10.4,10.4h-9.84c-5.74,0-10.4-4.66-10.4-10.4v-20.68c0-5.74,4.66-10.4,10.4-10.4h9.84c5.74,0,10.4,4.66,10.4,10.4Z"/></g><g><path class="cls-17" d="M343.46,172.92v20.68c0,5.74-4.66,10.4-10.4,10.4h-9.84c-5.74,0-10.4-4.66-10.4-10.4v-20.68c0-5.74,4.66-10.4,10.4-10.4h9.84c5.74,0,10.4,4.66,10.4,10.4Z"/><path class="cls-17" d="M343.46,112.42v20.68c0,5.74-4.66,10.4-10.4,10.4h-9.84c-5.74,0-10.4-4.66-10.4-10.4v-20.68c0-5.74,4.66-10.4,10.4-10.4h9.84c5.74,0,10.4,4.66,10.4,10.4Z"/></g><g><g><path class="cls-18" d="M272.99,307.17c-1.61,0-2.92-1.31-2.92-2.92v-27.33h-31.68c-1.61,0-2.92-1.31-2.92-2.92s1.31-2.92,2.92-2.92h31.68v-27.33c0-1.61,1.31-2.92,2.92-2.92h28.22c1.61,0,2.92,1.31,2.92,2.92s-1.31,2.92-2.92,2.92h-25.3v54.66h25.3c1.61,0,2.92,1.31,2.92,2.92s-1.31,2.92-2.92,2.92h-28.22Z"/><path class="cls-14" d="M301.21,241.34c1.33,0,2.42,1.08,2.42,2.42s-1.08,2.42-2.42,2.42h-25.8v55.66h25.8c1.33,0,2.42,1.08,2.42,2.42s-1.08,2.42-2.42,2.42h-28.22c-1.33,0-2.42-1.08-2.42-2.42v-27.83h-32.18c-1.33,0-2.42-1.08-2.42-2.42s1.08-2.42,2.42-2.42h32.18v-27.83c0-1.33,1.08-2.42,2.42-2.42h28.22m0-1h-28.22c-1.89,0-3.42,1.53-3.42,3.42v26.83h-31.18c-1.89,0-3.42,1.53-3.42,3.42s1.53,3.42,3.42,3.42h31.18v26.83c0,1.89,1.53,3.42,3.42,3.42h28.22c1.89,0,3.42-1.53,3.42-3.42s-1.53-3.42-3.42-3.42h-24.8v-53.66h24.8c1.89,0,3.42-1.53,3.42-3.42s-1.53-3.42-3.42-3.42h0Z"/></g><g><path class="cls-18" d="M272.99,186.18c-1.61,0-2.92-1.31-2.92-2.92v-27.33h-31.68c-1.61,0-2.92-1.31-2.92-2.92s1.31-2.92,2.92-2.92h31.68v-27.33c0-1.61,1.31-2.92,2.91-2.92h28.22c1.61,0,2.92,1.31,2.92,2.92s-1.31,2.92-2.92,2.92h-25.3v54.66h25.3c1.61,0,2.92,1.31,2.92,2.92s-1.31,2.92-2.92,2.92h-28.22Z"/><path class="cls-14" d="M301.21,120.35c1.33,0,2.42,1.08,2.42,2.42s-1.08,2.42-2.42,2.42h-25.8v55.66h25.8c1.33,0,2.42,1.08,2.42,2.42s-1.08,2.42-2.42,2.42h-28.22c-1.33,0-2.42-1.08-2.42-2.42v-27.83h-32.18c-1.33,0-2.42-1.08-2.42-2.42s1.08-2.42,2.42-2.42h32.18v-27.83c0-1.33,1.08-2.42,2.42-2.42h28.22m-28.22-1c-1.89,0-3.42,1.53-3.42,3.42v26.83h-31.18c-1.89,0-3.42,1.53-3.42,3.42s1.53,3.42,3.42,3.42h31.18v26.83c0,1.89,1.53,3.42,3.42,3.42h28.22c1.89,0,3.42-1.53,3.42-3.42s-1.53-3.42-3.42-3.42h-24.8v-53.66h24.8c1.89,0,3.42-1.53,3.42-3.42s-1.53-3.42-3.42-3.42h-28.22Z"/></g><g><path class="cls-18" d="M157.5,276.92c-1.61,0-2.92-1.31-2.92-2.92v-57.58h-31.68c-1.61,0-2.92-1.31-2.92-2.92s1.31-2.92,2.92-2.92h31.68v-57.58c0-1.61,1.31-2.92,2.92-2.92h28.22c1.61,0,2.92,1.31,2.92,2.92s-1.31,2.92-2.92,2.92h-25.3v115.16h25.3c1.61,0,2.92,1.31,2.92,2.92s-1.31,2.92-2.92,2.92h-28.22Z"/><path class="cls-14" d="M185.72,150.6c1.33,0,2.42,1.08,2.42,2.42s-1.08,2.42-2.42,2.42h-25.8v116.16h25.8c1.33,0,2.42,1.08,2.42,2.42s-1.08,2.42-2.42,2.42h-28.22c-1.33,0-2.42-1.08-2.42-2.42v-58.08h-32.18c-1.33,0-2.42-1.08-2.42-2.42s1.08-2.42,2.42-2.42h32.18v-58.08c0-1.33,1.08-2.42,2.42-2.42h28.22m0-1h-28.22c-1.89,0-3.42,1.53-3.42,3.42v57.08h-31.18c-1.89,0-3.42,1.53-3.42,3.42s1.53,3.42,3.42,3.42h31.18v57.08c0,1.89,1.53,3.42,3.42,3.42h28.22c1.89,0,3.42-1.53,3.42-3.42s-1.53-3.42-3.42-3.42h-24.8v-114.16h24.8c1.89,0,3.42-1.53,3.42-3.42s-1.53-3.42-3.42-3.42h0Z"/></g></g></g><g><path id="Shape" class="cls-14" d="M67.53,70.25c.71-.56,.82-.24,1.45,.39,.31,.33,1.12,.86,.6,1.33-2.27,2-5.73,1.79-7.73-.48-.04-.04-.07-.08-.1-.12-.91-1.09-1.39-2.48-1.33-3.89,.04-1.5,.68-2.92,1.79-3.93,1.04-.87,2.37-1.33,3.73-1.29,1.13,.02,2.23,.38,3.15,1.05,.73,.56,.4,.92-.18,1.5l-.39,.39c-.29,.3-.49,.51-.88,.24-.73-.56-1.68-.77-2.58-.56-2.88,.77-2.71,5.99,.8,5.99,.6-.03,1.18-.25,1.66-.62Zm79.83,2.87c-.49,0-.88-.41-.88-.9h0v-11.57c0-.49,.39-.89,.88-.9h.93c.49,0,.88,.41,.88,.9v11.59c0,.49-.39,.89-.88,.9l-.93-.02Zm-4.92-1.31c-.88,.97-2.13,1.52-3.44,1.5-2.93,0-4.32-2.47-4.32-5.24v-4.71c0-.49,.39-.89,.88-.9h.93c.49,0,.88,.41,.88,.9h0v4.68c-.17,1.32,.75,2.54,2.07,2.73,.12,.02,.23,.02,.35,.02,1.48-.06,2.63-1.3,2.58-2.77v-4.66c0-.49,.39-.89,.88-.9h.93c.49,0,.88,.41,.88,.9v8.9c0,.48-.38,.87-.86,.88h-.79c-.48-.02-.85-.41-.86-.88v-.45h-.11Zm-11.24-9.3h1.83c.48,.01,.87,.41,.86,.9v.62c0,.48-.38,.87-.86,.89h-1.83v7.32c0,.49-.39,.89-.88,.9h-.93c-.49,0-.88-.41-.88-.9h0v-10.12c-.18-2.12,1.34-3.97,3.39-4.16h1.47c.48,.01,.87,.41,.86,.9v.56c0,.49-.38,.89-.86,.9h-.7c-1.04,0-1.48,.82-1.48,1.82l.02,.37Zm-6.52,0h2c.48,0,.87,.4,.86,.88h0v.6c0,.48-.38,.87-.86,.88h-2v4.46c0,.86,.4,1.37,1.26,1.37h.4c.48,0,.86,.4,.86,.88h0v.6c0,.48-.38,.87-.86,.88h-1.21c-2.16-.13-3.13-1.57-3.13-3.73v-8.67c0-.48,.38-.87,.86-.88h.92c.48,0,.87,.4,.86,.88h0l.04,1.85Zm-28.88,0h1.99c.48,0,.87,.4,.86,.88h0v.6c0,.48-.39,.86-.86,.86h-1.94v4.48c0,.86,.4,1.37,1.26,1.37h.4c.48,0,.86,.4,.86,.88h0v.6c0,.48-.38,.87-.86,.88h-.61c-2.36,0-3.72-1.03-3.72-3.75v-8.65c0-.48,.38-.87,.86-.88h.92c.48,0,.87,.4,.86,.88h0v1.84h-.03Zm-11.72,1.29c.86-.93,2.06-1.48,3.33-1.5,2.91,0,4.45,2.45,4.45,5.24v4.7c0,.49-.39,.89-.88,.9h-.93c-.49,0-.88-.41-.88-.9h0v-4.68c.18-1.32-.75-2.54-2.07-2.73-.12-.02-.23-.02-.35-.02-1.47,.05-2.62,1.28-2.56,2.75v4.67c0,.48-.38,.87-.86,.88h-.92c-.48,0-.87-.4-.86-.88h0v-8.88c0-.48,.38-.87,.86-.88h.79c.48,.02,.85,.4,.86,.88l.02,.45h0Zm28.9,0c.86-.93,2.06-1.48,3.33-1.5,2.91,0,4.45,2.45,4.45,5.24v4.7c0,.49-.39,.89-.88,.9h-.93c-.49,0-.88-.41-.88-.9h0v-4.68c.18-1.32-.75-2.54-2.07-2.73-.12-.02-.23-.02-.35-.02-1.47,.05-2.62,1.29-2.56,2.75v4.66c0,.48-.38,.87-.86,.88h-.94c-.48,0-.87-.4-.86-.88h0v-8.88c0-.48,.38-.87,.86-.88h.79c.47,.02,.85,.4,.86,.88v.47l.04-.02Zm-37.78-1.54c-2.89-.09-5.31,2.21-5.4,5.17v.39c0,3.07,2.43,5.55,5.42,5.55s5.42-2.49,5.42-5.55c.09-2.98-2.18-5.47-5.09-5.56h-.35Zm26.29,6.56c.31,1.36,1.6,2.27,2.99,2.1,.68-.02,1.34-.17,1.96-.45l.29-.15c.33-.19,.62-.3,.92,0l.47,.49c.15,.15,.29,.32,.42,.47,.44,.56,.13,.71-.37,1.05-1.11,.75-2.42,1.14-3.75,1.14-3.44,0-5.73-2.13-5.73-5.69-.13-2.94,2.09-5.45,4.98-5.58h.59c3.33,0,5.25,2,5.31,5.43,0,.94,.05,1.24-.9,1.24l-7.18-.04Zm-26.19-4.06c1.59,.06,2.83,1.39,2.77,2.98v.07c.15,1.52-.95,2.89-2.47,3.06-1.53,.12-2.86-1.02-2.98-2.55-.02-.17-.02-.34,0-.51-.14-1.53,.98-2.89,2.51-3.03h.22l-.04-.02Zm26.32,1.74h5.35c-.2-1.24-1.36-2.09-2.6-1.91-1.24-.04-2.36,.73-2.75,1.91Z"/><path class="cls-14" d="M39.12,59.08c.82,.81,1.13,2.01,.82,3.12,1-.6,2.15-.92,3.33-.92h.02c1.72,0,3.37,.7,4.58,1.92h0c.97,1.02,2.58,1.06,3.6,.09,1.02-.97,1.06-2.58,.09-3.6-.02-.03-.05-.05-.08-.08-2.16-2.19-5.11-3.42-8.18-3.43h-.04c-2.3,0-4.55,.68-6.46,1.97h.07c.85,0,1.66,.33,2.25,.93Z"/><path class="cls-14" d="M49.63,71.63c-.67,0-1.32,.27-1.79,.74h0c-1.21,1.21-2.86,1.89-4.57,1.88h-.02c-1.17,0-2.33-.33-3.33-.93,.08,.28,.11,.56,.11,.85,0,1.76-1.43,3.19-3.19,3.19h-.08c1.91,1.3,4.16,1.99,6.47,2h.04c3.06,0,5.99-1.21,8.16-3.36,1-.99,1.01-2.61,.01-3.6-.48-.48-1.13-.75-1.81-.75h0Z"/><path class="cls-14" d="M34.58,71.91c.6-.6,1.41-.94,2.25-.93,.29,0,.58,.04,.86,.12-1.24-2.06-1.23-4.64,.01-6.69-1.7,.47-3.45-.53-3.92-2.23-.08-.28-.11-.56-.11-.85v-.09c-2.67,3.92-2.68,9.06-.03,12.99v-.07c0-.85,.33-1.66,.93-2.25Z"/><path class="cls-14" d="M36.86,58.71c-.72,0-1.23,.3-1.85,.92-.59,.58-.77,1.1-.77,1.71,0,1.45,1.17,2.62,2.62,2.62,1.45,0,2.62-1.17,2.62-2.62,0-1.45-1.17-2.62-2.62-2.62Z"/><path class="cls-14" d="M34.21,74.17c0,.72,.3,1.23,.91,1.85,.59,.59,1.1,.77,1.71,.77,1.44,0,2.61-1.18,2.6-2.62,0-1.44-1.18-2.61-2.62-2.6-1.44,0-2.6,1.17-2.6,2.61h0Z"/></g><rect class="cls-15" x="46.15" y="284" width="424" height="100" rx="14.39" ry="14.39"/><text class="cls-20" transform="translate(64.51 325.33)"><tspan class="cls-4"><tspan class="cls-21" x="0" y="0">R</tspan><tspan class="cls-24" x="14.02" y="0">e</tspan><tspan class="cls-11" x="25.94" y="0">ad h</tspan><tspan class="cls-23" x="70.25" y="0">o</tspan><tspan class="cls-19" x="83.33" y="0">w Con</tspan><tspan class="cls-22" x="146.76" y="0">t</tspan><tspan class="cls-11" x="155.09" y="0">entful is using </tspan><tspan class="cls-21" x="304.51" y="0">R</tspan><tspan class="cls-24" x="318.52" y="0">o</tspan><tspan class="cls-9" x="331.46" y="0">adie </tspan></tspan><tspan class="cls-7" x="0" y="28.8">t</tspan><tspan class="cls-1" x="8.33" y="28.8">o ma</tspan><tspan class="cls-3" x="59.11" y="28.8">k</tspan><tspan class="cls-2" x="71.13" y="28.8">e Inner Sou</tspan><tspan class="cls-5" x="187.8" y="28.8">r</tspan><tspan class="cls-6" x="196.56" y="28.8">c</tspan><tspan class="cls-1" x="207.12" y="28.8">e </tspan><tspan class="cls-8" x="224.18" y="28.8">e</tspan><tspan class="cls-2" x="236.11" y="28.8">asy </tspan><tspan class="cls-10" x="275.71" y="28.8">→</tspan></text></svg>