<?xml version="1.0" encoding="UTF-8"?><svg id="Layer_1" xmlns="http://www.w3.org/2000/svg" xmlns:xlink="http://www.w3.org/1999/xlink" viewBox="0 0 495.19 497.59"><defs><style>.cls-1{fill:url(#linear-gradient);}.cls-2{clip-path:url(#clippath);}.cls-3{fill:#f2f2f2;}.cls-4{fill:#f9f9f9;}.cls-5,.cls-6{fill:#fff;}.cls-7,.cls-8{fill:#ee7320;}.cls-9{fill:#111827;}.cls-8{stroke:#ee7320;}.cls-8,.cls-10,.cls-11{stroke-miterlimit:10;}.cls-12{fill:url(#linear-gradient-2);}.cls-10,.cls-11{fill:none;stroke:#ccc;}.cls-6{filter:url(#drop-shadow-4);}.cls-11{stroke-width:.5px;}</style><filter id="drop-shadow-4" filterUnits="userSpaceOnUse"><feOffset dx="0" dy="0"/><feGaussianBlur result="blur" stdDeviation="3"/><feFlood flood-color="#000" flood-opacity=".25"/><feComposite in2="blur" operator="in"/><feComposite in="SourceGraphic"/></filter><linearGradient id="linear-gradient" x1="137.9" y1="255.77" x2="355.12" y2="38.55" gradientTransform="matrix(1, 0, 0, 1, 0, 0)" gradientUnits="userSpaceOnUse"><stop offset="0" stop-color="#ee7320"/><stop offset="1" stop-color="#e9580c"/></linearGradient><clipPath id="clippath"><path class="cls-7" d="M56.82,150.8v-.37l4.11-2.37-1.06-.61-3.06,1.76v-.37l4.09-2.36-1.06-.61-3.03,1.75v-.37l4.13-2.38-4.13-2.38-4.11,2.38v4.75l4.11,2.38,4.13-2.38-1.05-.61-3.08,1.77Z"/></clipPath><linearGradient id="linear-gradient-2" x1="-269.28" y1="248.98" x2="217.38" y2="248.98" gradientTransform="matrix(1, 0, 0, 1, 0, 0)" gradientUnits="userSpaceOnUse"><stop offset="0" stop-color="#00a58c"/><stop offset=".21" stop-color="#098d83"/><stop offset=".74" stop-color="#21556e"/><stop offset="1" stop-color="#2b4066"/></linearGradient></defs><rect class="cls-3" x="32.15" y="112" width="438" height="306" rx="17.11" ry="17.11"/><rect class="cls-6" x="79.04" y="179.68" width="368.12" height="47.32" rx="7.06" ry="7.06"/><g><rect class="cls-1" x="44.98" y="131.47" width="403.06" height="31.39"/><g><rect class="cls-9" x="45.48" y="131.97" width="22.11" height="263.93"/><path class="cls-9" d="M67.09,132.47V395.39h-21.11V132.47h21.11m1-1h-23.11V396.39h23.11V131.47h0Z"/></g><g><path class="cls-7" d="M56.82,150.8v-.37l4.11-2.37-1.06-.61-3.06,1.76v-.37l4.09-2.36-1.06-.61-3.03,1.75v-.37l4.13-2.38-4.13-2.38-4.11,2.38v4.75l4.11,2.38,4.13-2.38-1.05-.61-3.08,1.77Z"/><g class="cls-2"><rect class="cls-7" x="51.44" y="140.32" width="9.21" height="12.99" transform="translate(-99.35 123.4) rotate(-60.54)"/></g></g></g><g><path d="M81,256.43v-7.85h2.65c.54,0,1.03,.07,1.47,.22,.44,.14,.78,.39,1.03,.73,.25,.34,.38,.8,.38,1.39s-.14,1.08-.43,1.45c-.28,.37-.66,.63-1.13,.79l1.87,3.28h-1.56l-1.69-3.07h-1.2v3.07h-1.39Zm1.39-4.18h1.12c.54,0,.95-.11,1.23-.34,.28-.23,.43-.56,.43-1s-.14-.76-.43-.94-.69-.27-1.23-.27h-1.12v2.56Z"/><path d="M88.7,256.43v-7.85h4.73v1.18h-3.34v2h2.82v1.18h-2.82v2.32h3.46v1.18h-4.85Z"/><path d="M98.05,256.57c-.53,0-1.04-.1-1.53-.3-.49-.2-.93-.48-1.3-.85l.82-.95c.28,.26,.6,.48,.96,.64,.36,.16,.72,.25,1.08,.25,.45,0,.79-.09,1.02-.28,.23-.18,.35-.43,.35-.73,0-.33-.11-.56-.34-.71-.23-.14-.52-.29-.87-.44l-1.08-.47c-.26-.11-.51-.26-.75-.43-.24-.18-.44-.4-.6-.67-.16-.27-.23-.6-.23-.98,0-.42,.11-.79,.34-1.12s.54-.6,.94-.79c.4-.2,.85-.29,1.36-.29,.46,0,.9,.09,1.32,.27,.42,.18,.79,.42,1.09,.73l-.71,.89c-.25-.21-.51-.37-.79-.49-.28-.12-.58-.18-.92-.18-.37,0-.67,.08-.89,.25s-.34,.39-.34,.68c0,.2,.06,.37,.17,.5,.12,.13,.27,.24,.46,.34,.19,.09,.4,.18,.61,.27l1.07,.44c.46,.2,.84,.46,1.14,.79,.3,.32,.44,.77,.44,1.34,0,.42-.11,.81-.34,1.16-.22,.35-.55,.63-.97,.85s-.93,.32-1.52,.32Z"/><path d="M105.84,256.57c-.6,0-1.12-.12-1.57-.36-.45-.24-.79-.62-1.04-1.15-.24-.53-.37-1.22-.37-2.08v-4.4h1.39v4.51c0,.57,.07,1.02,.2,1.35,.13,.33,.32,.57,.56,.71,.24,.14,.52,.21,.83,.21s.6-.07,.85-.21c.24-.14,.44-.38,.58-.71s.21-.78,.21-1.35v-4.51h1.33v4.4c0,.86-.12,1.55-.36,2.08-.24,.53-.58,.91-1.03,1.15-.44,.24-.97,.36-1.58,.36Z"/><path d="M111.36,256.43v-7.85h1.39v6.67h3.26v1.18h-4.66Z"/><path d="M118.13,256.43v-6.67h-2.27v-1.18h5.93v1.18h-2.27v6.67h-1.39Z"/><path d="M128.28,256.43v-6.67h-2.27v-1.18h5.93v1.18h-2.27v6.67h-1.39Z"/><path d="M134.96,256.43v-2.92l-2.35-4.93h1.49l.85,2c.11,.3,.22,.58,.34,.86,.11,.28,.23,.57,.36,.87h.05c.13-.3,.25-.59,.37-.87,.12-.28,.24-.56,.35-.86l.85-2h1.45l-2.36,4.93v2.92h-1.39Z"/><path d="M140.27,256.43v-7.85h2.47c.58,0,1.1,.08,1.56,.23,.46,.15,.82,.4,1.08,.76,.26,.35,.4,.83,.4,1.44,0,.58-.13,1.05-.4,1.43-.26,.38-.62,.66-1.07,.84-.45,.18-.96,.28-1.52,.28h-1.13v2.88h-1.39Zm1.39-4h1.02c1.15,0,1.73-.48,1.73-1.43,0-.5-.15-.84-.45-1.03-.3-.19-.74-.28-1.33-.28h-.97v2.74Z"/><path d="M147.85,256.43v-7.85h4.73v1.18h-3.34v2h2.82v1.18h-2.82v2.32h3.46v1.18h-4.85Z"/></g><g><path class="cls-9" d="M127.73,209.11l3.55-10.5h1.5l3.55,10.5h-1.42l-.99-3.2h-3.82l-1.01,3.2h-1.36Zm3.2-5.87l-.5,1.6h3.15l-.5-1.6c-.19-.59-.37-1.17-.54-1.75-.17-.58-.34-1.18-.51-1.78h-.06c-.16,.61-.33,1.2-.5,1.78-.17,.58-.35,1.17-.54,1.75Z"/><path class="cls-9" d="M140.03,209.3c-.82,0-1.42-.26-1.81-.78-.38-.52-.58-1.27-.58-2.26v-4.93h1.33v4.75c0,.73,.11,1.25,.34,1.58,.23,.33,.6,.5,1.11,.5,.41,0,.77-.1,1.08-.31,.31-.21,.65-.54,1.02-1v-5.52h1.31v7.78h-1.09l-.11-1.22h-.05c-.36,.43-.75,.77-1.15,1.02-.41,.26-.88,.38-1.41,.38Z"/><path class="cls-9" d="M149.07,209.3c-.83,0-1.41-.24-1.74-.72-.33-.48-.49-1.1-.49-1.87v-4.3h-1.15v-.99l1.22-.08,.16-2.18h1.1v2.18h2.1v1.07h-2.1v4.32c0,.48,.09,.85,.26,1.11,.18,.26,.49,.39,.94,.39,.14,0,.29-.02,.45-.07,.16-.05,.3-.09,.43-.14l.26,.99c-.21,.07-.45,.14-.7,.2s-.5,.09-.74,.09Z"/><path class="cls-9" d="M152.19,209.11v-11.39h1.31v3.1l-.05,1.6c.37-.35,.77-.65,1.18-.9s.88-.38,1.42-.38c.82,0,1.42,.26,1.8,.78,.38,.52,.57,1.27,.57,2.26v4.93h-1.31v-4.75c0-.73-.12-1.25-.35-1.58-.23-.33-.61-.5-1.12-.5-.39,0-.75,.1-1.06,.3-.31,.2-.67,.5-1.06,.9v5.63h-1.31Z"/><path class="cls-9" d="M164.41,212.39v-11.06h1.09l.11,.9h.05c.35-.3,.74-.55,1.16-.77,.42-.21,.86-.32,1.32-.32,1,0,1.77,.36,2.29,1.08,.52,.72,.78,1.68,.78,2.89,0,.88-.16,1.63-.47,2.26s-.73,1.11-1.23,1.44c-.51,.33-1.06,.5-1.66,.5-.36,0-.72-.08-1.08-.24s-.72-.38-1.08-.66l.03,1.36v2.62h-1.31Zm3.22-4.19c.64,0,1.17-.27,1.59-.82,.42-.55,.63-1.3,.63-2.26,0-.85-.16-1.54-.47-2.07-.31-.53-.84-.79-1.58-.79-.33,0-.66,.09-1,.27s-.7,.44-1.08,.78v4.08c.35,.3,.69,.51,1.02,.63,.33,.12,.62,.18,.88,.18Z"/><path class="cls-9" d="M173.45,209.11v-7.78h1.09l.11,1.41h.05c.27-.49,.59-.88,.98-1.17,.38-.29,.79-.43,1.23-.43,.31,0,.59,.05,.83,.16l-.26,1.15c-.13-.04-.25-.07-.35-.1-.11-.02-.24-.03-.4-.03-.33,0-.67,.13-1.03,.4s-.67,.73-.94,1.39v4.99h-1.31Z"/><path class="cls-9" d="M182.03,209.3c-.63,0-1.22-.16-1.77-.48s-.99-.78-1.33-1.39c-.34-.61-.5-1.34-.5-2.19s.17-1.62,.5-2.22c.34-.61,.78-1.07,1.33-1.39,.55-.32,1.14-.48,1.77-.48s1.23,.16,1.78,.48c.54,.32,.98,.78,1.32,1.39,.34,.61,.5,1.35,.5,2.22s-.17,1.58-.5,2.19c-.34,.61-.78,1.07-1.32,1.39s-1.14,.48-1.78,.48Zm0-1.09c.67,0,1.21-.27,1.62-.82,.41-.55,.62-1.27,.62-2.15s-.21-1.62-.62-2.18-.95-.83-1.62-.83-1.2,.28-1.62,.83-.62,1.28-.62,2.18,.21,1.6,.62,2.15c.42,.55,.95,.82,1.62,.82Z"/><path class="cls-9" d="M186.48,209.11l2.54-4.06-2.35-3.71h1.42l1.04,1.71c.12,.2,.24,.42,.37,.64,.13,.22,.26,.44,.4,.66h.06c.12-.21,.23-.43,.35-.66,.12-.22,.23-.44,.35-.64l.94-1.71h1.38l-2.35,3.86,2.53,3.92h-1.42l-1.14-1.81c-.14-.24-.28-.47-.42-.7s-.28-.46-.43-.69h-.06c-.14,.22-.27,.45-.4,.68s-.26,.47-.38,.71l-1.06,1.81h-1.38Z"/><path class="cls-9" d="M194.99,212.45c-.17,0-.33-.02-.49-.05-.15-.03-.3-.07-.42-.11l.26-1.04c.08,.02,.18,.05,.29,.07,.11,.03,.21,.04,.3,.04,.44,0,.8-.16,1.09-.47s.51-.71,.67-1.19l.18-.58-3.12-7.79h1.36l1.58,4.3c.12,.33,.24,.69,.38,1.07,.13,.38,.26,.76,.38,1.12h.06c.12-.35,.23-.72,.34-1.1,.11-.38,.21-.75,.32-1.09l1.39-4.3h1.28l-2.93,8.42c-.18,.51-.4,.97-.65,1.38-.25,.41-.56,.73-.93,.97-.37,.24-.81,.36-1.34,.36Z"/></g><g><path d="M105.37,280.43l2.66-7.87h1.13l2.66,7.87h-1.07l-.74-2.4h-2.87l-.76,2.4h-1.02Zm2.4-4.4l-.37,1.2h2.36l-.37-1.2c-.14-.44-.28-.88-.41-1.31-.13-.44-.26-.88-.38-1.34h-.05c-.12,.46-.24,.9-.37,1.34-.13,.44-.26,.87-.41,1.31Z"/><path d="M114.01,280.57c-.37,0-.63-.11-.8-.34-.16-.23-.25-.55-.25-.98v-7.37h.98v7.44c0,.15,.03,.26,.08,.33,.06,.07,.12,.1,.19,.1,.03,0,.06,0,.09,0,.03,0,.07,0,.13-.02l.13,.74c-.06,.03-.14,.06-.23,.07-.09,.02-.2,.02-.34,.02Z"/><path d="M117.19,280.57c-.37,0-.63-.11-.8-.34-.16-.23-.25-.55-.25-.98v-7.37h.98v7.44c0,.15,.03,.26,.08,.33,.06,.07,.12,.1,.19,.1,.03,0,.06,0,.09,0,.03,0,.07,0,.13-.02l.13,.74c-.06,.03-.14,.06-.23,.07-.09,.02-.2,.02-.34,.02Z"/></g><g><path d="M108.6,307.57c-.55,0-1.06-.11-1.54-.32-.47-.21-.88-.49-1.22-.85l.6-.7c.28,.3,.61,.53,.99,.71,.38,.18,.77,.27,1.18,.27,.52,0,.92-.12,1.21-.35,.29-.24,.43-.55,.43-.93,0-.27-.06-.49-.17-.65-.12-.16-.27-.3-.47-.41-.2-.11-.42-.22-.67-.34l-1.13-.49c-.25-.1-.49-.24-.74-.41-.24-.17-.45-.38-.61-.65s-.25-.59-.25-.97,.11-.76,.32-1.07,.51-.56,.88-.74,.8-.27,1.27-.27,.91,.09,1.31,.27,.74,.41,1.02,.7l-.54,.65c-.24-.23-.51-.41-.8-.55-.29-.13-.62-.2-.99-.2-.44,0-.79,.1-1.06,.31s-.4,.49-.4,.84c0,.25,.07,.45,.2,.62,.13,.16,.3,.3,.5,.4,.2,.1,.4,.2,.61,.29l1.12,.48c.3,.13,.58,.28,.82,.46,.24,.18,.44,.4,.58,.66s.22,.59,.22,.98c0,.42-.11,.79-.32,1.13-.22,.34-.52,.61-.92,.81-.4,.2-.88,.3-1.43,.3Z"/><path d="M115.12,307.57c-.47,0-.91-.12-1.33-.36s-.74-.59-1-1.04-.38-1-.38-1.64,.13-1.21,.38-1.67,.58-.8,1-1.04,.85-.36,1.33-.36,.92,.12,1.33,.36,.74,.59,.99,1.04c.25,.46,.38,1.01,.38,1.67s-.13,1.19-.38,1.64c-.25,.46-.58,.8-.99,1.04s-.85,.36-1.33,.36Zm0-.82c.5,0,.91-.21,1.22-.62,.31-.41,.46-.95,.46-1.61s-.15-1.22-.46-1.63c-.31-.42-.71-.62-1.22-.62s-.9,.21-1.21,.62-.47,.96-.47,1.63,.16,1.2,.47,1.61,.72,.62,1.21,.62Z"/><path d="M119.64,307.43v-5.03h-.79v-.74l.79-.06v-.92c0-.59,.14-1.06,.41-1.41s.71-.52,1.29-.52c.18,0,.36,.02,.53,.05s.32,.08,.44,.14l-.22,.76c-.22-.1-.44-.14-.66-.14-.54,0-.82,.38-.82,1.13v.92h2.14l.12-1.63h.82v1.63h1.58v.8h-1.58v3.24c0,.36,.07,.64,.2,.83,.14,.2,.37,.29,.71,.29,.1,0,.22-.02,.34-.05s.23-.07,.32-.1l.19,.74c-.16,.06-.33,.11-.52,.15-.19,.04-.37,.07-.56,.07-.62,0-1.06-.18-1.3-.54-.24-.36-.37-.83-.37-1.4v-3.23h-2.09v5.03h-.98Z"/><path d="M127.65,307.43l-1.62-5.83h1.01l.86,3.37c.06,.27,.12,.54,.18,.81,.06,.27,.11,.54,.17,.81h.05c.06-.27,.13-.54,.19-.81,.06-.27,.13-.54,.2-.81l.9-3.37h.96l.91,3.37c.07,.27,.14,.54,.21,.81,.07,.27,.13,.54,.2,.81h.05c.06-.27,.13-.54,.19-.81,.06-.27,.12-.54,.17-.81l.85-3.37h.94l-1.56,5.83h-1.2l-.84-3.13c-.07-.28-.14-.56-.2-.83-.06-.27-.13-.56-.2-.85h-.05c-.06,.3-.13,.58-.19,.86s-.14,.55-.22,.83l-.82,3.12h-1.15Z"/><path d="M136.68,307.57c-.49,0-.89-.15-1.22-.44-.32-.29-.49-.7-.49-1.22,0-.64,.29-1.13,.86-1.47,.57-.34,1.48-.58,2.72-.71,0-.25-.03-.48-.1-.71-.07-.22-.19-.41-.36-.55-.17-.14-.42-.21-.74-.21-.34,0-.65,.06-.95,.19s-.56,.27-.79,.43l-.38-.68c.27-.18,.61-.35,1-.51,.4-.16,.83-.25,1.29-.25,.71,0,1.23,.22,1.55,.65,.32,.44,.48,1.02,.48,1.75v3.58h-.82l-.08-.7h-.04c-.27,.22-.57,.42-.89,.59-.32,.17-.67,.25-1.04,.25Zm.29-.79c.28,0,.54-.07,.79-.2,.25-.14,.51-.33,.79-.58v-1.62c-.97,.12-1.65,.3-2.03,.54-.39,.24-.58,.55-.58,.92,0,.33,.1,.57,.3,.71,.2,.15,.44,.22,.73,.22Z"/><path d="M141.51,307.43v-5.83h.82l.08,1.06h.04c.2-.37,.44-.66,.73-.88,.29-.22,.6-.32,.92-.32,.23,0,.44,.04,.62,.12l-.19,.86c-.1-.03-.18-.06-.26-.07-.08-.02-.18-.02-.3-.02-.25,0-.51,.1-.77,.3s-.5,.55-.7,1.04v3.74h-.98Z"/><path d="M148.03,307.57c-.52,0-.99-.12-1.42-.37-.42-.24-.76-.59-1.01-1.05-.25-.46-.37-1-.37-1.63s.13-1.19,.38-1.64,.58-.81,.98-1.06c.4-.25,.82-.37,1.26-.37,.74,0,1.32,.25,1.72,.74,.4,.5,.61,1.16,.61,1.99,0,.1,0,.21,0,.31,0,.1-.01,.19-.03,.26h-3.94c.04,.62,.23,1.11,.58,1.48s.8,.55,1.36,.55c.28,0,.54-.04,.77-.13,.24-.08,.46-.19,.68-.33l.35,.65c-.25,.16-.53,.3-.85,.42s-.67,.18-1.07,.18Zm-1.84-3.53h3.12c0-.59-.13-1.04-.38-1.35-.25-.31-.61-.46-1.06-.46-.41,0-.77,.16-1.1,.47-.32,.32-.52,.76-.58,1.34Z"/><path d="M157.33,307.57c-.66,0-1.24-.16-1.76-.49-.52-.32-.92-.79-1.22-1.4-.3-.61-.45-1.34-.45-2.2s.15-1.58,.46-2.18,.72-1.08,1.25-1.4c.53-.33,1.12-.49,1.79-.49,.48,0,.9,.1,1.27,.29,.37,.2,.66,.42,.89,.68l-.54,.65c-.21-.22-.44-.4-.71-.54-.26-.14-.56-.2-.9-.2-.5,0-.93,.13-1.3,.39s-.66,.63-.86,1.1c-.2,.47-.31,1.04-.31,1.69s.1,1.23,.3,1.71c.2,.48,.48,.86,.85,1.12,.36,.26,.79,.4,1.29,.4,.38,0,.71-.08,1.01-.24,.3-.16,.57-.38,.82-.65l.55,.62c-.31,.36-.66,.64-1.06,.84-.39,.2-.84,.3-1.36,.3Z"/><path d="M162.58,307.57c-.49,0-.89-.15-1.22-.44-.32-.29-.49-.7-.49-1.22,0-.64,.29-1.13,.86-1.47,.57-.34,1.48-.58,2.72-.71,0-.25-.03-.48-.1-.71-.07-.22-.19-.41-.36-.55-.17-.14-.42-.21-.74-.21-.34,0-.65,.06-.95,.19s-.56,.27-.79,.43l-.38-.68c.27-.18,.61-.35,1-.51,.4-.16,.83-.25,1.29-.25,.71,0,1.23,.22,1.55,.65,.32,.44,.48,1.02,.48,1.75v3.58h-.82l-.08-.7h-.04c-.27,.22-.57,.42-.89,.59-.32,.17-.67,.25-1.04,.25Zm.29-.79c.28,0,.54-.07,.79-.2,.25-.14,.51-.33,.79-.58v-1.62c-.97,.12-1.65,.3-2.03,.54-.39,.24-.58,.55-.58,.92,0,.33,.1,.57,.3,.71,.2,.15,.44,.22,.73,.22Z"/><path d="M169.07,307.57c-.62,0-1.06-.18-1.3-.54-.24-.36-.37-.83-.37-1.4v-3.23h-.86v-.74l.91-.06,.12-1.63h.83v1.63h1.57v.8h-1.57v3.24c0,.36,.07,.64,.2,.83,.13,.2,.37,.29,.7,.29,.1,0,.22-.02,.34-.05,.12-.04,.23-.07,.32-.1l.19,.74c-.16,.06-.33,.11-.52,.15s-.37,.07-.56,.07Z"/><path d="M172.5,307.57c-.49,0-.89-.15-1.22-.44-.32-.29-.49-.7-.49-1.22,0-.64,.29-1.13,.86-1.47,.57-.34,1.48-.58,2.72-.71,0-.25-.03-.48-.1-.71-.07-.22-.19-.41-.36-.55-.17-.14-.42-.21-.74-.21-.34,0-.65,.06-.95,.19s-.56,.27-.79,.43l-.38-.68c.27-.18,.61-.35,1-.51,.4-.16,.83-.25,1.29-.25,.71,0,1.23,.22,1.55,.65,.32,.44,.48,1.02,.48,1.75v3.58h-.82l-.08-.7h-.04c-.27,.22-.57,.42-.89,.59-.32,.17-.67,.25-1.04,.25Zm.29-.79c.28,0,.54-.07,.79-.2,.25-.14,.51-.33,.79-.58v-1.62c-.97,.12-1.65,.3-2.03,.54-.39,.24-.58,.55-.58,.92,0,.33,.1,.57,.3,.71,.2,.15,.44,.22,.73,.22Z"/><path d="M178.37,307.57c-.37,0-.63-.11-.8-.34-.16-.23-.25-.55-.25-.98v-7.37h.98v7.44c0,.15,.03,.26,.08,.33,.06,.07,.12,.1,.19,.1,.03,0,.06,0,.09,0,.03,0,.07,0,.13-.02l.13,.74c-.06,.03-.14,.06-.23,.07-.09,.02-.2,.02-.34,.02Z"/><path d="M182.77,307.57c-.47,0-.91-.12-1.33-.36s-.74-.59-1-1.04-.38-1-.38-1.64,.13-1.21,.38-1.67,.58-.8,1-1.04,.85-.36,1.33-.36,.92,.12,1.33,.36,.74,.59,.99,1.04c.25,.46,.38,1.01,.38,1.67s-.13,1.19-.38,1.64c-.25,.46-.58,.8-.99,1.04s-.85,.36-1.33,.36Zm0-.82c.5,0,.91-.21,1.22-.62,.31-.41,.46-.95,.46-1.61s-.15-1.22-.46-1.63c-.31-.42-.71-.62-1.22-.62s-.9,.21-1.21,.62-.47,.96-.47,1.63,.16,1.2,.47,1.61,.72,.62,1.21,.62Z"/><path d="M189.1,310.12c-.71,0-1.29-.14-1.74-.41-.45-.27-.67-.66-.67-1.16,0-.25,.08-.49,.23-.71,.15-.23,.36-.43,.62-.61v-.05c-.14-.09-.27-.21-.37-.37s-.15-.35-.15-.58c0-.25,.07-.46,.2-.65,.14-.18,.28-.33,.43-.43v-.05c-.19-.16-.37-.38-.52-.65-.16-.27-.23-.58-.23-.92,0-.42,.1-.79,.3-1.1,.2-.31,.47-.55,.8-.72s.7-.25,1.09-.25c.16,0,.31,.01,.46,.04,.14,.03,.27,.06,.37,.1h2.03v.76h-1.2c.14,.13,.25,.3,.34,.51,.09,.21,.14,.44,.14,.69,0,.42-.1,.78-.29,1.08-.19,.3-.45,.54-.77,.7-.32,.16-.68,.25-1.08,.25-.31,0-.6-.07-.88-.2-.1,.09-.19,.19-.26,.29-.07,.11-.11,.24-.11,.4,0,.18,.07,.34,.22,.46,.15,.12,.42,.18,.81,.18h1.13c.68,0,1.19,.11,1.53,.33,.34,.22,.51,.57,.51,1.06,0,.36-.12,.69-.36,1-.24,.3-.58,.55-1.02,.74-.44,.19-.96,.28-1.57,.28Zm.14-.68c.56,0,1.01-.12,1.34-.37s.5-.52,.5-.82c0-.27-.1-.46-.31-.56-.2-.1-.49-.16-.87-.16h-1.01c-.11,0-.23,0-.37-.02-.13-.02-.26-.04-.39-.07-.21,.15-.36,.31-.46,.48-.1,.17-.14,.34-.14,.5,0,.31,.15,.56,.45,.74,.3,.18,.71,.28,1.24,.28Zm-.14-4.51c.34,0,.63-.13,.87-.38s.37-.59,.37-1.01-.12-.76-.36-1c-.24-.24-.53-.36-.88-.36s-.64,.12-.88,.36c-.24,.24-.36,.57-.36,1s.12,.76,.37,1.01,.53,.38,.87,.38Z"/></g><rect class="cls-8" x="84.04" y="271.25" width="11.5" height="11.5" rx="3.57" ry="3.57"/><rect class="cls-10" x="84.04" y="298.44" width="11.5" height="11.5" rx="3.57" ry="3.57"/><g><path d="M106.42,329.43v-7.87h1.97c1.22,0,2.14,.34,2.77,1.01,.63,.68,.95,1.64,.95,2.89s-.31,2.23-.94,2.93c-.63,.7-1.54,1.04-2.73,1.04h-2.02Zm1-.82h.9c.92,0,1.61-.28,2.07-.83,.46-.56,.69-1.33,.69-2.32s-.23-1.75-.69-2.29-1.15-.8-2.07-.8h-.9v6.24Z"/><path d="M116.09,329.57c-.47,0-.91-.12-1.33-.36s-.74-.59-1-1.04-.38-1-.38-1.64,.13-1.21,.38-1.67,.58-.8,1-1.04,.85-.36,1.33-.36,.92,.12,1.33,.36,.74,.59,.99,1.04c.25,.46,.38,1.01,.38,1.67s-.13,1.19-.38,1.64c-.25,.46-.58,.8-.99,1.04s-.85,.36-1.33,.36Zm0-.82c.5,0,.91-.21,1.22-.62,.31-.41,.46-.95,.46-1.61s-.15-1.22-.46-1.63c-.31-.42-.71-.62-1.22-.62s-.9,.21-1.21,.62-.47,.96-.47,1.63,.16,1.2,.47,1.61,.72,.62,1.21,.62Z"/><path d="M122.75,329.57c-.51,0-.98-.12-1.39-.36s-.74-.59-.98-1.04c-.24-.46-.36-1-.36-1.64s.13-1.21,.39-1.67,.6-.8,1.03-1.04c.43-.24,.89-.36,1.39-.36,.38,0,.71,.07,.99,.2,.28,.14,.51,.3,.71,.48l-.5,.65c-.17-.15-.35-.28-.53-.37-.19-.1-.4-.14-.63-.14-.35,0-.67,.09-.94,.28-.28,.19-.49,.45-.65,.79-.16,.34-.23,.73-.23,1.18,0,.66,.17,1.2,.5,1.61s.77,.62,1.3,.62c.27,0,.52-.06,.76-.17s.44-.25,.61-.41l.43,.66c-.26,.23-.56,.41-.88,.55s-.66,.2-1.01,.2Z"/><path d="M127.74,329.57c-.62,0-1.07-.19-1.36-.58-.29-.39-.43-.95-.43-1.7v-3.7h1v3.56c0,.54,.09,.94,.26,1.19,.17,.25,.45,.37,.83,.37,.3,0,.57-.08,.81-.23,.24-.16,.49-.41,.76-.75v-4.14h.98v5.83h-.82l-.08-.91h-.04c-.27,.32-.56,.58-.86,.77-.3,.19-.66,.29-1.06,.29Z"/><path d="M132.69,329.43v-5.83h.82l.08,.84h.04c.26-.28,.54-.51,.84-.7,.3-.19,.63-.28,.97-.28,.45,0,.8,.1,1.05,.29,.25,.2,.44,.47,.56,.82,.3-.33,.61-.6,.92-.8s.64-.31,1-.31c.6,0,1.05,.19,1.34,.58,.29,.39,.44,.95,.44,1.7v3.7h-.98v-3.56c0-.54-.09-.94-.26-1.19-.18-.25-.45-.37-.82-.37-.43,0-.92,.3-1.46,.9v4.22h-.98v-3.56c0-.54-.09-.94-.26-1.19-.18-.25-.45-.37-.83-.37-.43,0-.92,.3-1.46,.9v4.22h-.98Z"/><path d="M145.12,329.57c-.52,0-.99-.12-1.42-.37-.42-.24-.76-.59-1.01-1.05-.25-.46-.37-1-.37-1.63s.13-1.19,.38-1.64,.58-.81,.98-1.06c.4-.25,.82-.37,1.26-.37,.74,0,1.32,.25,1.72,.74,.4,.5,.61,1.16,.61,1.99,0,.1,0,.21,0,.31,0,.1-.01,.19-.03,.26h-3.94c.04,.62,.23,1.11,.58,1.48s.8,.55,1.36,.55c.28,0,.54-.04,.77-.13,.24-.08,.46-.19,.68-.33l.35,.65c-.25,.16-.53,.3-.85,.42s-.67,.18-1.07,.18Zm-1.84-3.53h3.12c0-.59-.13-1.04-.38-1.35-.25-.31-.61-.46-1.06-.46-.41,0-.77,.16-1.1,.47-.32,.32-.52,.76-.58,1.34Z"/><path d="M148.83,329.43v-5.83h.82l.08,.84h.04c.28-.28,.58-.51,.89-.7,.31-.19,.67-.28,1.07-.28,.62,0,1.07,.19,1.35,.58,.28,.39,.43,.95,.43,1.7v3.7h-.98v-3.56c0-.54-.09-.94-.26-1.19-.18-.25-.46-.37-.84-.37-.3,0-.56,.08-.8,.23-.24,.15-.5,.38-.8,.67v4.22h-.98Z"/><path d="M157.35,329.57c-.62,0-1.06-.18-1.3-.54-.24-.36-.37-.83-.37-1.4v-3.23h-.86v-.74l.91-.06,.12-1.63h.83v1.63h1.57v.8h-1.57v3.24c0,.36,.07,.64,.2,.83,.13,.2,.37,.29,.7,.29,.1,0,.22-.02,.34-.05,.12-.04,.23-.07,.32-.1l.19,.74c-.16,.06-.33,.11-.52,.15s-.37,.07-.56,.07Z"/><path d="M160.78,329.57c-.49,0-.89-.15-1.22-.44-.32-.29-.49-.7-.49-1.22,0-.64,.29-1.13,.86-1.47,.57-.34,1.48-.58,2.72-.71,0-.25-.03-.48-.1-.71-.07-.22-.19-.41-.36-.55-.17-.14-.42-.21-.74-.21-.34,0-.65,.06-.95,.19s-.56,.27-.79,.43l-.38-.68c.27-.18,.61-.35,1-.51,.4-.16,.83-.25,1.29-.25,.71,0,1.23,.22,1.55,.65,.32,.44,.48,1.02,.48,1.75v3.58h-.82l-.08-.7h-.04c-.27,.22-.57,.42-.89,.59-.32,.17-.67,.25-1.04,.25Zm.29-.79c.28,0,.54-.07,.79-.2,.25-.14,.51-.33,.79-.58v-1.62c-.97,.12-1.65,.3-2.03,.54-.39,.24-.58,.55-.58,.92,0,.33,.1,.57,.3,.71,.2,.15,.44,.22,.73,.22Z"/><path d="M167.27,329.57c-.62,0-1.06-.18-1.3-.54-.24-.36-.37-.83-.37-1.4v-3.23h-.86v-.74l.91-.06,.12-1.63h.83v1.63h1.57v.8h-1.57v3.24c0,.36,.07,.64,.2,.83,.13,.2,.37,.29,.7,.29,.1,0,.22-.02,.34-.05,.12-.04,.23-.07,.32-.1l.19,.74c-.16,.06-.33,.11-.52,.15s-.37,.07-.56,.07Z"/><path d="M170.11,322.4c-.19,0-.35-.06-.47-.17-.12-.12-.19-.27-.19-.47s.06-.35,.19-.47c.12-.12,.28-.18,.47-.18s.35,.06,.47,.18c.12,.12,.19,.28,.19,.47s-.06,.36-.19,.47-.28,.17-.47,.17Zm-.5,7.03v-5.83h.98v5.83h-.98Z"/><path d="M174.95,329.57c-.47,0-.91-.12-1.33-.36s-.74-.59-1-1.04-.38-1-.38-1.64,.13-1.21,.38-1.67,.58-.8,1-1.04,.85-.36,1.33-.36,.92,.12,1.33,.36,.74,.59,.99,1.04c.25,.46,.38,1.01,.38,1.67s-.13,1.19-.38,1.64c-.25,.46-.58,.8-.99,1.04s-.85,.36-1.33,.36Zm0-.82c.5,0,.91-.21,1.22-.62,.31-.41,.46-.95,.46-1.61s-.15-1.22-.46-1.63c-.31-.42-.71-.62-1.22-.62s-.9,.21-1.21,.62-.47,.96-.47,1.63,.16,1.2,.47,1.61,.72,.62,1.21,.62Z"/><path d="M179.31,329.43v-5.83h.82l.08,.84h.04c.28-.28,.58-.51,.89-.7,.31-.19,.67-.28,1.07-.28,.62,0,1.07,.19,1.35,.58,.28,.39,.43,.95,.43,1.7v3.7h-.98v-3.56c0-.54-.09-.94-.26-1.19-.18-.25-.46-.37-.84-.37-.3,0-.56,.08-.8,.23-.24,.15-.5,.38-.8,.67v4.22h-.98Z"/></g><rect class="cls-10" x="84.04" y="320.44" width="11.5" height="11.5" rx="3.57" ry="3.57"/><g><path d="M109.39,351.57c-.66,0-1.24-.16-1.76-.49-.52-.32-.92-.79-1.22-1.4-.3-.61-.45-1.34-.45-2.2s.15-1.58,.46-2.18,.72-1.08,1.25-1.4c.53-.33,1.12-.49,1.79-.49,.48,0,.9,.1,1.27,.29,.37,.2,.66,.42,.89,.68l-.54,.65c-.21-.22-.44-.4-.71-.54-.26-.14-.56-.2-.9-.2-.5,0-.93,.13-1.3,.39s-.66,.63-.86,1.1c-.2,.47-.31,1.04-.31,1.69s.1,1.23,.3,1.71c.2,.48,.48,.86,.85,1.12,.36,.26,.79,.4,1.29,.4,.38,0,.71-.08,1.01-.24,.3-.16,.57-.38,.82-.65l.55,.62c-.31,.36-.66,.64-1.06,.84-.39,.2-.84,.3-1.36,.3Z"/><path d="M115.56,351.57c-.47,0-.91-.12-1.33-.36s-.74-.59-1-1.04-.38-1-.38-1.64,.13-1.21,.38-1.67,.58-.8,1-1.04,.85-.36,1.33-.36,.92,.12,1.33,.36,.74,.59,.99,1.04c.25,.46,.38,1.01,.38,1.67s-.13,1.19-.38,1.64c-.25,.46-.58,.8-.99,1.04s-.85,.36-1.33,.36Zm0-.82c.5,0,.91-.21,1.22-.62,.31-.41,.46-.95,.46-1.61s-.15-1.22-.46-1.63c-.31-.42-.71-.62-1.22-.62s-.9,.21-1.21,.62-.47,.96-.47,1.63,.16,1.2,.47,1.61,.72,.62,1.21,.62Z"/><path d="M119.92,351.43v-5.83h.82l.08,.84h.04c.28-.28,.58-.51,.89-.7,.31-.19,.67-.28,1.07-.28,.62,0,1.07,.19,1.35,.58,.28,.39,.43,.95,.43,1.7v3.7h-.98v-3.56c0-.54-.09-.94-.26-1.19-.18-.25-.46-.37-.84-.37-.3,0-.56,.08-.8,.23-.24,.15-.5,.38-.8,.67v4.22h-.98Z"/><path d="M126.77,351.43v-5.03h-.79v-.74l.79-.06v-.92c0-.59,.14-1.06,.41-1.41s.71-.52,1.29-.52c.18,0,.36,.02,.53,.05s.32,.08,.44,.14l-.22,.76c-.22-.1-.44-.14-.66-.14-.54,0-.82,.38-.82,1.13v.92h1.24v.8h-1.24v5.03h-.98Z"/><path d="M131.27,351.57c-.37,0-.63-.11-.8-.34-.16-.23-.25-.55-.25-.98v-7.37h.98v7.44c0,.15,.03,.26,.08,.33,.06,.07,.12,.1,.19,.1,.03,0,.06,0,.09,0,.03,0,.07,0,.13-.02l.13,.74c-.06,.03-.14,.06-.23,.07-.09,.02-.2,.02-.34,.02Z"/><path d="M135.11,351.57c-.62,0-1.07-.19-1.36-.58-.29-.39-.43-.95-.43-1.7v-3.7h1v3.56c0,.54,.09,.94,.26,1.19,.17,.25,.45,.37,.83,.37,.3,0,.57-.08,.81-.23,.24-.16,.49-.41,.76-.75v-4.14h.98v5.83h-.82l-.08-.91h-.04c-.27,.32-.56,.58-.86,.77-.3,.19-.66,.29-1.06,.29Z"/><path d="M142.42,351.57c-.52,0-.99-.12-1.42-.37-.42-.24-.76-.59-1.01-1.05-.25-.46-.37-1-.37-1.63s.13-1.19,.38-1.64,.58-.81,.98-1.06c.4-.25,.82-.37,1.26-.37,.74,0,1.32,.25,1.72,.74,.4,.5,.61,1.16,.61,1.99,0,.1,0,.21,0,.31,0,.1-.01,.19-.03,.26h-3.94c.04,.62,.23,1.11,.58,1.48s.8,.55,1.36,.55c.28,0,.54-.04,.77-.13,.24-.08,.46-.19,.68-.33l.35,.65c-.25,.16-.53,.3-.85,.42s-.67,.18-1.07,.18Zm-1.84-3.53h3.12c0-.59-.13-1.04-.38-1.35-.25-.31-.61-.46-1.06-.46-.41,0-.77,.16-1.1,.47-.32,.32-.52,.76-.58,1.34Z"/><path d="M146.13,351.43v-5.83h.82l.08,.84h.04c.28-.28,.58-.51,.89-.7,.31-.19,.67-.28,1.07-.28,.62,0,1.07,.19,1.35,.58,.28,.39,.43,.95,.43,1.7v3.7h-.98v-3.56c0-.54-.09-.94-.26-1.19-.18-.25-.46-.37-.84-.37-.3,0-.56,.08-.8,.23-.24,.15-.5,.38-.8,.67v4.22h-.98Z"/><path d="M155.11,351.57c-.51,0-.98-.12-1.39-.36s-.74-.59-.98-1.04c-.24-.46-.36-1-.36-1.64s.13-1.21,.39-1.67,.6-.8,1.03-1.04c.43-.24,.89-.36,1.39-.36,.38,0,.71,.07,.99,.2,.28,.14,.51,.3,.71,.48l-.5,.65c-.17-.15-.35-.28-.53-.37-.19-.1-.4-.14-.63-.14-.35,0-.67,.09-.94,.28-.28,.19-.49,.45-.65,.79-.16,.34-.23,.73-.23,1.18,0,.66,.17,1.2,.5,1.61s.77,.62,1.3,.62c.27,0,.52-.06,.76-.17s.44-.25,.61-.41l.43,.66c-.26,.23-.56,.41-.88,.55s-.66,.2-1.01,.2Z"/><path d="M160.51,351.57c-.52,0-.99-.12-1.42-.37-.42-.24-.76-.59-1.01-1.05-.25-.46-.37-1-.37-1.63s.13-1.19,.38-1.64,.58-.81,.98-1.06c.4-.25,.82-.37,1.26-.37,.74,0,1.32,.25,1.72,.74,.4,.5,.61,1.16,.61,1.99,0,.1,0,.21,0,.31,0,.1-.01,.19-.03,.26h-3.94c.04,.62,.23,1.11,.58,1.48s.8,.55,1.36,.55c.28,0,.54-.04,.77-.13,.24-.08,.46-.19,.68-.33l.35,.65c-.25,.16-.53,.3-.85,.42s-.67,.18-1.07,.18Zm-1.84-3.53h3.12c0-.59-.13-1.04-.38-1.35-.25-.31-.61-.46-1.06-.46-.41,0-.77,.16-1.1,.47-.32,.32-.52,.76-.58,1.34Z"/></g><rect class="cls-10" x="84.04" y="342.44" width="11.5" height="11.5" rx="3.57" ry="3.57"/><g><path d="M108.6,373.57c-.55,0-1.06-.11-1.54-.32-.47-.21-.88-.49-1.22-.85l.6-.7c.28,.3,.61,.53,.99,.71,.38,.18,.77,.27,1.18,.27,.52,0,.92-.12,1.21-.35,.29-.24,.43-.55,.43-.93,0-.27-.06-.49-.17-.65-.12-.16-.27-.3-.47-.41-.2-.11-.42-.22-.67-.34l-1.13-.49c-.25-.1-.49-.24-.74-.41-.24-.17-.45-.38-.61-.65s-.25-.59-.25-.97,.11-.76,.32-1.07,.51-.56,.88-.74,.8-.27,1.27-.27,.91,.09,1.31,.27,.74,.41,1.02,.7l-.54,.65c-.24-.23-.51-.41-.8-.55-.29-.13-.62-.2-.99-.2-.44,0-.79,.1-1.06,.31s-.4,.49-.4,.84c0,.25,.07,.45,.2,.62,.13,.16,.3,.3,.5,.4,.2,.1,.4,.2,.61,.29l1.12,.48c.3,.13,.58,.28,.82,.46,.24,.18,.44,.4,.58,.66s.22,.59,.22,.98c0,.42-.11,.79-.32,1.13-.22,.34-.52,.61-.92,.81-.4,.2-.88,.3-1.43,.3Z"/><path d="M114.4,373.57c-.62,0-1.06-.18-1.3-.54-.24-.36-.37-.83-.37-1.4v-3.23h-.86v-.74l.91-.06,.12-1.63h.83v1.63h1.57v.8h-1.57v3.24c0,.36,.07,.64,.2,.83,.13,.2,.37,.29,.7,.29,.1,0,.22-.02,.34-.05,.12-.04,.23-.07,.32-.1l.19,.74c-.16,.06-.33,.11-.52,.15s-.37,.07-.56,.07Z"/><path d="M117.83,373.57c-.49,0-.89-.15-1.22-.44-.32-.29-.49-.7-.49-1.22,0-.64,.29-1.13,.86-1.47,.57-.34,1.48-.58,2.72-.71,0-.25-.03-.48-.1-.71-.07-.22-.19-.41-.36-.55-.17-.14-.42-.21-.74-.21-.34,0-.65,.06-.95,.19s-.56,.27-.79,.43l-.38-.68c.27-.18,.61-.35,1-.51,.4-.16,.83-.25,1.29-.25,.71,0,1.23,.22,1.55,.65,.32,.44,.48,1.02,.48,1.75v3.58h-.82l-.08-.7h-.04c-.27,.22-.57,.42-.89,.59-.32,.17-.67,.25-1.04,.25Zm.29-.79c.28,0,.54-.07,.79-.2,.25-.14,.51-.33,.79-.58v-1.62c-.97,.12-1.65,.3-2.03,.54-.39,.24-.58,.55-.58,.92,0,.33,.1,.57,.3,.71,.2,.15,.44,.22,.73,.22Z"/><path d="M124.96,373.57c-.51,0-.98-.12-1.39-.36s-.74-.59-.98-1.04c-.24-.46-.36-1-.36-1.64s.13-1.21,.39-1.67,.6-.8,1.03-1.04c.43-.24,.89-.36,1.39-.36,.38,0,.71,.07,.99,.2,.28,.14,.51,.3,.71,.48l-.5,.65c-.17-.15-.35-.28-.53-.37-.19-.1-.4-.14-.63-.14-.35,0-.67,.09-.94,.28-.28,.19-.49,.45-.65,.79-.16,.34-.23,.73-.23,1.18,0,.66,.17,1.2,.5,1.61s.77,.62,1.3,.62c.27,0,.52-.06,.76-.17s.44-.25,.61-.41l.43,.66c-.26,.23-.56,.41-.88,.55s-.66,.2-1.01,.2Z"/><path d="M128.25,373.43v-8.54h.97v5.78h.04l2.48-3.07h1.09l-1.96,2.34,2.22,3.49h-1.08l-1.7-2.81-1.09,1.27v1.54h-.97Z"/><path d="M137.31,373.57c-.66,0-1.24-.17-1.75-.5-.51-.34-.9-.81-1.19-1.43-.28-.62-.43-1.34-.43-2.18s.14-1.56,.43-2.17c.28-.6,.68-1.07,1.19-1.39,.51-.32,1.09-.49,1.75-.49s1.25,.16,1.75,.49c.5,.32,.9,.79,1.19,1.39,.29,.6,.43,1.33,.43,2.17s-.14,1.57-.43,2.18c-.29,.62-.68,1.09-1.19,1.43-.5,.34-1.09,.5-1.75,.5Zm0-.88c.47,0,.88-.13,1.23-.4,.35-.27,.62-.64,.81-1.13,.19-.48,.29-1.05,.29-1.71,0-.98-.21-1.75-.64-2.32-.42-.57-.99-.85-1.69-.85s-1.27,.28-1.69,.85c-.42,.57-.64,1.34-.64,2.32,0,.66,.1,1.23,.29,1.71,.19,.48,.46,.86,.82,1.13,.35,.27,.76,.4,1.22,.4Z"/><path d="M143.65,373.43l-2.1-5.83h1.02l1.1,3.31c.09,.29,.18,.58,.27,.86,.09,.29,.18,.57,.27,.85h.05c.09-.28,.18-.56,.27-.85s.18-.58,.26-.86l1.1-3.31h.97l-2.06,5.83h-1.15Z"/><path d="M150.43,373.57c-.52,0-.99-.12-1.42-.37-.42-.24-.76-.59-1.01-1.05-.25-.46-.37-1-.37-1.63s.13-1.19,.38-1.64,.58-.81,.98-1.06c.4-.25,.82-.37,1.26-.37,.74,0,1.32,.25,1.72,.74,.4,.5,.61,1.16,.61,1.99,0,.1,0,.21,0,.31,0,.1-.01,.19-.03,.26h-3.94c.04,.62,.23,1.11,.58,1.48s.8,.55,1.36,.55c.28,0,.54-.04,.77-.13,.24-.08,.46-.19,.68-.33l.35,.65c-.25,.16-.53,.3-.85,.42s-.67,.18-1.07,.18Zm-1.84-3.53h3.12c0-.59-.13-1.04-.38-1.35-.25-.31-.61-.46-1.06-.46-.41,0-.77,.16-1.1,.47-.32,.32-.52,.76-.58,1.34Z"/><path d="M154.14,373.43v-5.83h.82l.08,1.06h.04c.2-.37,.44-.66,.73-.88,.29-.22,.6-.32,.92-.32,.23,0,.44,.04,.62,.12l-.19,.86c-.1-.03-.18-.06-.26-.07-.08-.02-.18-.02-.3-.02-.25,0-.51,.1-.77,.3s-.5,.55-.7,1.04v3.74h-.98Z"/><path d="M158.59,373.43v-5.03h-.79v-.74l.79-.06v-.92c0-.59,.14-1.06,.41-1.41s.71-.52,1.29-.52c.18,0,.36,.02,.53,.05s.32,.08,.44,.14l-.22,.76c-.22-.1-.44-.14-.66-.14-.54,0-.82,.38-.82,1.13v.92h1.24v.8h-1.24v5.03h-.98Z"/><path d="M163.09,373.57c-.37,0-.63-.11-.8-.34-.16-.23-.25-.55-.25-.98v-7.37h.98v7.44c0,.15,.03,.26,.08,.33,.06,.07,.12,.1,.19,.1,.03,0,.06,0,.09,0,.03,0,.07,0,.13-.02l.13,.74c-.06,.03-.14,.06-.23,.07-.09,.02-.2,.02-.34,.02Z"/><path d="M167.5,373.57c-.47,0-.91-.12-1.33-.36s-.74-.59-1-1.04-.38-1-.38-1.64,.13-1.21,.38-1.67,.58-.8,1-1.04,.85-.36,1.33-.36,.92,.12,1.33,.36,.74,.59,.99,1.04c.25,.46,.38,1.01,.38,1.67s-.13,1.19-.38,1.64c-.25,.46-.58,.8-.99,1.04s-.85,.36-1.33,.36Zm0-.82c.5,0,.91-.21,1.22-.62,.31-.41,.46-.95,.46-1.61s-.15-1.22-.46-1.63c-.31-.42-.71-.62-1.22-.62s-.9,.21-1.21,.62-.47,.96-.47,1.63,.16,1.2,.47,1.61,.72,.62,1.21,.62Z"/><path d="M172.73,373.43l-1.62-5.83h1.01l.86,3.37c.06,.27,.12,.54,.18,.81,.06,.27,.11,.54,.17,.81h.05c.06-.27,.13-.54,.19-.81,.06-.27,.13-.54,.2-.81l.9-3.37h.96l.91,3.37c.07,.27,.14,.54,.21,.81,.07,.27,.13,.54,.2,.81h.05c.06-.27,.13-.54,.19-.81,.06-.27,.12-.54,.17-.81l.85-3.37h.94l-1.56,5.83h-1.2l-.84-3.13c-.07-.28-.14-.56-.2-.83-.06-.27-.13-.56-.2-.85h-.05c-.06,.3-.13,.58-.19,.86s-.14,.55-.22,.83l-.82,3.12h-1.15Z"/></g><rect class="cls-10" x="84.04" y="364.44" width="11.5" height="11.5" rx="3.57" ry="3.57"/><g><path class="cls-5" d="M83.65,152.46c-.64,0-1.28-.12-1.91-.36-.64-.24-1.2-.59-1.7-1.05l1.26-1.52c.35,.3,.74,.55,1.17,.74,.43,.19,.84,.28,1.25,.28,.46,0,.8-.08,1.03-.25s.34-.4,.34-.69c0-.31-.13-.54-.38-.68-.25-.14-.6-.31-1.03-.49l-1.27-.54c-.33-.14-.65-.33-.94-.56-.3-.23-.55-.53-.73-.88-.19-.35-.29-.76-.29-1.23,0-.54,.15-1.03,.44-1.47s.71-.79,1.23-1.05,1.13-.39,1.81-.39c.56,0,1.12,.11,1.68,.33,.56,.22,1.05,.54,1.47,.96l-1.12,1.39c-.32-.25-.64-.44-.96-.58-.32-.13-.67-.2-1.06-.2s-.68,.08-.91,.23c-.22,.15-.34,.37-.34,.65,0,.3,.14,.52,.43,.67,.28,.15,.64,.31,1.06,.48l1.26,.51c.59,.24,1.06,.57,1.41,.99,.35,.42,.52,.97,.52,1.67,0,.54-.15,1.04-.44,1.5s-.71,.83-1.26,1.11c-.55,.28-1.21,.42-1.99,.42Z"/><path class="cls-5" d="M92.31,152.46c-.71,0-1.35-.16-1.92-.46-.57-.31-1.02-.76-1.35-1.34-.33-.58-.5-1.28-.5-2.1s.17-1.5,.5-2.08c.33-.58,.77-1.03,1.31-1.34,.54-.31,1.1-.47,1.69-.47,.71,0,1.3,.16,1.76,.47,.46,.32,.81,.74,1.05,1.28s.35,1.14,.35,1.82c0,.19,0,.38-.03,.56-.02,.19-.04,.32-.06,.41h-4.46c.1,.54,.32,.94,.68,1.19,.35,.25,.77,.38,1.26,.38,.53,0,1.06-.17,1.6-.5l.73,1.34c-.38,.26-.8,.46-1.27,.62-.47,.15-.92,.22-1.36,.22Zm-1.65-4.71h2.69c0-.41-.1-.75-.29-1.01-.19-.26-.51-.4-.95-.4-.34,0-.65,.12-.92,.35s-.45,.59-.53,1.06Z"/><path class="cls-5" d="M98.61,152.46c-.68,0-1.22-.22-1.62-.65-.4-.44-.6-.97-.6-1.6,0-.78,.33-1.39,.99-1.83,.66-.44,1.73-.73,3.19-.88-.02-.33-.12-.59-.29-.79-.17-.2-.47-.29-.88-.29-.31,0-.62,.06-.94,.18-.32,.12-.66,.29-1.02,.5l-.8-1.46c.47-.29,.97-.52,1.51-.71,.53-.18,1.09-.27,1.67-.27,.95,0,1.68,.28,2.19,.83,.51,.55,.77,1.39,.77,2.54v4.26h-1.8l-.15-.77h-.06c-.31,.28-.64,.51-1,.68-.36,.17-.74,.26-1.16,.26Zm.75-1.71c.25,0,.47-.06,.65-.17s.37-.27,.56-.46v-1.3c-.78,.1-1.32,.26-1.62,.47-.3,.22-.45,.47-.45,.76,0,.24,.08,.42,.23,.53,.15,.12,.36,.17,.62,.17Z"/><path class="cls-5" d="M104.79,152.28v-7.44h1.8l.15,1.31h.06c.27-.5,.6-.87,.98-1.12s.76-.37,1.14-.37c.21,0,.38,.01,.52,.04s.26,.06,.36,.11l-.36,1.91c-.13-.04-.26-.07-.38-.09-.13-.02-.27-.03-.43-.03-.28,0-.57,.1-.88,.31-.31,.21-.56,.56-.76,1.06v4.32h-2.21Z"/><path class="cls-5" d="M114,152.46c-.69,0-1.31-.15-1.87-.46-.56-.31-1-.75-1.32-1.34-.32-.58-.49-1.29-.49-2.11s.18-1.54,.54-2.12,.83-1.02,1.42-1.33c.59-.3,1.23-.46,1.91-.46,.46,0,.87,.08,1.22,.23s.67,.34,.95,.57l-1.04,1.43c-.35-.29-.69-.44-1-.44-.53,0-.95,.19-1.27,.57-.31,.38-.47,.89-.47,1.54s.16,1.15,.47,1.54c.31,.39,.71,.58,1.19,.58,.24,0,.47-.05,.7-.16,.23-.1,.44-.23,.63-.38l.87,1.44c-.37,.32-.77,.55-1.2,.68-.43,.13-.85,.2-1.26,.2Z"/><path class="cls-5" d="M117.91,152.28v-10.52h2.21v2.58l-.1,1.33c.28-.25,.61-.48,.98-.7s.81-.32,1.31-.32c.81,0,1.4,.27,1.76,.8,.37,.54,.55,1.27,.55,2.2v4.62h-2.21v-4.34c0-.54-.07-.91-.22-1.11s-.38-.3-.7-.3c-.28,0-.52,.06-.72,.19-.2,.13-.42,.3-.66,.53v5.03h-2.21Z"/></g><g id="surface1"><path class="cls-9" d="M109.17,205.84c3.61-5.1,2.4-12.15-2.69-15.76-5.1-3.61-12.15-2.4-15.76,2.7-3.61,5.1-2.4,12.15,2.7,15.76,3.64,2.58,8.45,2.77,12.28,.51l8.34,8.29c.9,.95,2.4,.99,3.35,.09,.95-.9,.99-2.4,.09-3.34-.03-.03-.06-.06-.09-.09l-8.2-8.14Zm-9.23,.77c-4.03,0-7.29-3.26-7.29-7.29,0-4.03,3.26-7.29,7.29-7.29,4.02,0,7.29,3.26,7.29,7.28,0,4.03-3.25,7.3-7.28,7.3h0Z"/></g><line class="cls-11" x1="219.65" y1="244" x2="219.65" y2="398"/><rect class="cls-5" x="243.15" y="246" width="185" height="20"/><rect class="cls-4" x="243.15" y="271.8" width="185" height="20"/><rect class="cls-5" x="243.15" y="297.6" width="185" height="20"/><rect class="cls-4" x="243.15" y="323.4" width="185" height="20"/><rect class="cls-5" x="243.15" y="349.2" width="185" height="20"/><rect class="cls-4" x="243.15" y="375" width="185" height="20"/><path class="cls-12" d="M349.15,122c-.14,0-.28-.03-.41-.09-.5-.23-.73-.82-.5-1.32l19-42c.23-.5,.82-.72,1.32-.5,.5,.23,.73,.82,.5,1.32l-19,42c-.17,.37-.53,.59-.91,.59ZM165.86,437.71l27-27c.39-.39,.39-1.02,0-1.41s-1.02-.39-1.41,0l-27,27c-.39,.39-.39,1.02,0,1.41,.2,.2,.45,.29,.71,.29s.51-.1,.71-.29ZM100.01,120.51c.28-.47,.13-1.09-.34-1.37l-35-21c-.47-.29-1.09-.13-1.37,.34-.28,.47-.13,1.09,.34,1.37l35,21c.16,.1,.34,.14,.51,.14,.34,0,.67-.17,.86-.49Zm12.54,350.82c-1.89,.96-3.99,1.45-6.11,1.43-5.59,0-8.99-3.6-8.99-8.99s3.3-9.06,8.82-9.06c2.72,0,4.58,.55,6.27,1.63v-3.12c-1.69-1.2-3.98-1.63-6.27-1.63-7.67,0-12.04,5.02-12.04,12.18s4.37,12.07,12.11,12.07c2.43,0,4.76-.43,6.23-1.4l-.02-3.11Zm10.79,4.53c5.34,0,8.46-3.99,8.46-9.37s-3.08-9.28-8.46-9.28-8.53,3.9-8.53,9.28,3.19,9.37,8.53,9.37Zm-5.51-9.37c0-3.4,1.7-6.41,5.51-6.41s5.44,3.01,5.44,6.41-1.62,6.49-5.45,6.49-5.52-3.08-5.52-6.49h0Zm32.79-1.5c0-4.93-2.37-7.78-6.49-7.78-2.36-.05-4.54,1.22-5.66,3.3v-2.94h-3.08v17.92h3.08v-9.96c0-3.62,1.99-5.52,4.84-5.52s4.23,1.43,4.23,4.66v10.82h3.08v-10.5Zm8.56-9.3c0-1.61,.95-2.72,2.85-2.72,.65,0,1.3,.06,1.93,.18v-2.85c-.68-.19-1.37-.29-2.08-.29-3.84,0-5.7,2.26-5.7,5.59v1.97h-2.9v2.85h2.9v15.07h3.01v-15.07h4.62v-2.85h-4.62l-.02-1.88Zm14.34,19.76v-2.76c-.3,.03-.6,.04-.9,.04-1.33,0-2.4-.56-2.4-2.19v-20.46h-3.08v20.82c0,3.3,1.86,4.69,4.8,4.69,.53,.02,1.06-.03,1.58-.14Zm2.62-7.38c0,4.92,2.37,7.77,6.49,7.77,2.36,.05,4.54-1.22,5.66-3.3v2.94h3.08v-17.92h-3.09v9.96c0,3.62-1.99,5.52-4.84,5.52s-4.23-1.43-4.23-4.66v-10.82h-3.08v10.5Zm34.01,6.7v-2.85c-1.75,.64-3.59,.97-5.45,.97-4.23,0-6.2-1.97-6.63-5.02h13.07v-1.4c0-5.44-2.22-9.28-7.74-9.28s-8.46,3.87-8.46,9.28,2.94,9.37,9.64,9.37c1.83,0,4.08-.29,5.56-1.07Zm-12.11-9.54c.32-3.12,1.97-5.23,5.23-5.21,3.08,0,4.58,1.9,4.76,5.23h-10v-.02Zm32-.25c0-4.93-2.37-7.78-6.49-7.78-2.36-.05-4.54,1.22-5.66,3.3v-2.94h-3.08v17.92h3.08v-9.96c0-3.62,1.99-5.52,4.84-5.52s4.23,1.43,4.23,4.66v10.82h3.08v-10.5Zm16.93,7.27c-1.31,.46-2.69,.68-4.07,.64-4.69,0-6.62-2.98-6.62-6.45s1.9-6.41,6.56-6.41c1.4-.03,2.78,.26,4.05,.86v-2.85c-1.34-.61-2.79-.91-4.26-.86-6.39,0-9.37,3.87-9.37,9.28s2.99,9.37,9.37,9.37c1.65,0,3.3-.24,4.37-.81l-.02-2.76Zm17.64,2.51v-2.85c-1.75,.64-3.59,.97-5.45,.97-4.23,0-6.2-1.97-6.63-5.02h13.08v-1.4c0-5.44-2.22-9.28-7.74-9.28s-8.46,3.87-8.46,9.28,2.94,9.37,9.64,9.37c1.83,0,4.08-.29,5.55-1.07Zm-12.11-9.54c.32-3.12,1.97-5.23,5.23-5.21,3.08,0,4.58,1.9,4.76,5.23h-10v-.02Zm-175.94,.64c1.98,.96,4.19,2,5.29,2.52,.4,.18,.59,.66,.41,1.07l-2.52,5.7v.02c-.2,.41-.69,.58-1.1,.39l-5.25-2.5c-3.8-1.82-5.91-2.24-8.01,1.22-.3,.49-.57,.95-.78,1.31h0c-.24,.39-.74,.51-1.12,.28l-5.29-3.26c-.38-.23-.5-.73-.27-1.11,.25-.4,.55-.9,.81-1.33,4.64-7.55,10.7-7.77,17.83-4.3Zm-11.95-4.32c-1.98-.96-4.19-2-5.29-2.52-.4-.18-.59-.66-.41-1.07l2.52-5.7v-.02c.2-.41,.69-.58,1.1-.39l5.23,2.48c3.8,1.82,5.91,2.24,8.01-1.22,.3-.49,.57-.95,.78-1.31,0-.02,.02-.03,.03-.05,.25-.37,.76-.47,1.13-.22l5.29,3.26c.38,.23,.5,.73,.27,1.11-.25,.4-.55,.9-.81,1.33-4.64,7.54-10.7,7.77-17.85,4.31ZM314,49.13v9.76c0,1.57,.73,2.51,2.33,2.51h1.32v2.16h-1.77c-2.92,0-4.38-2.05-4.38-4.59v-17.78h2.5v5.63h4.74l-2.32,2.32h-2.43Zm132.13,9.05c0,1.06,.44,1.61,1.57,1.61h1.71v3.77h-2.53c-3.66,0-5.2-2.57-5.2-5.1v-19.69h4.45v19.42h0Zm45.03-12.46l-5.44,17.83h-3.66l-3.73-11.19-3.73,11.19h-3.66l-5.48-17.83h4.72l2.87,11.02,3.63-11.02h3.25l3.66,11.02,2.88-11.02h4.69Zm-30.16,8.9c0-1.85-.1-3.39-1.03-4.31-.51-.51-1.2-.79-2.09-.79s-1.54,.27-2.05,.79c-.92,.92-1.03,2.46-1.03,4.31s.1,3.42,1.03,4.35c.51,.51,1.16,.79,2.05,.79s1.57-.27,2.09-.79c.92-.92,1.03-2.5,1.03-4.35Zm2.43-6.91c1.61,1.68,2.02,3.7,2.02,6.91s-.41,5.27-2.02,6.95c-1.1,1.16-2.91,2.19-5.54,2.19s-4.42-1.03-5.51-2.19c-1.61-1.68-2.02-3.7-2.02-6.95s.41-5.24,2.02-6.91c1.1-1.16,2.87-2.19,5.51-2.19s4.45,1.03,5.54,2.19Zm-26.4-8.94h2.53v3.76h-1.71c-1.06,0-1.57,.58-1.57,1.61v1.95h3.29v3.39h-3.29v14.06h-4.45v-19.67c0-2.53,1.57-5.1,5.2-5.1Zm-15.28,8.67c.86-1.03,2.57-1.92,4.48-1.92,1.75,0,2.98,.44,4.21,1.68l-3.37,3.38c-.69-.68-1.25-1.05-2.35-1.05-1.37,0-2.88,1.03-2.88,3.29v10.75h-4.45v-17.83h4.35v1.71h0Zm-10.94,5.55c-.03-.79-.14-1.27-.41-1.92-.48-1.06-1.47-1.85-2.98-1.85s-2.5,.79-2.98,1.85c-.27,.65-.38,1.13-.41,1.92h6.78Zm-3.39-7.46c4.96,0,7.77,3.63,7.77,8.52v1.99h-11.16c0,2.29,1.4,3.97,3.9,3.97,1.95,0,2.91-.55,4.04-1.68l2.7,2.64c-1.81,1.81-3.56,2.81-6.78,2.81-4.21,0-8.25-1.92-8.25-9.14,0-5.82,3.15-9.1,7.77-9.1h0Zm-7.57,.21l-6.54,17.83h-3.49l-6.57-17.83h4.69l3.63,11.02,3.59-11.02h4.69Zm-20.99,8.9c0-1.85-.1-3.39-1.03-4.31-.51-.51-1.2-.79-2.09-.79s-1.54,.27-2.05,.79c-.92,.92-1.03,2.46-1.03,4.31s.1,3.42,1.03,4.35c.51,.51,1.16,.79,2.05,.79s1.57-.27,2.09-.79c.92-.92,1.03-2.5,1.03-4.35Zm2.43-6.91c1.61,1.68,2.02,3.7,2.02,6.91s-.41,5.27-2.02,6.95c-1.1,1.16-2.91,2.19-5.54,2.19s-4.42-1.03-5.51-2.19c-1.61-1.68-2.02-3.7-2.02-6.95s.41-5.24,2.02-6.91c1.1-1.16,2.88-2.19,5.51-2.19s4.45,1.03,5.54,2.19Zm-23.43,4.81l7.1,11.03h-3.1l-5.74-9.3-3.04,3.05v6.25h-2.49v-24.77h2.51v15.19l7.75-7.56h3.12l-6.11,6.11Zm-15.34-4.07c-1.67,0-3.06,.66-3.97,1.95-.8,1.11-1.11,2.44-1.11,4.59s.31,3.48,1.11,4.59c.9,1.29,2.3,1.95,3.97,1.95s2.64-.52,3.93-1.95l1.7,1.64c-1.77,1.91-3.27,2.54-5.64,2.54-4.31,0-7.58-2.92-7.58-8.77s3.27-8.77,7.58-8.77c2.35,0,3.84,.62,5.59,2.5,.01,.01-1.66,1.64-1.66,1.64-1.29-1.43-2.3-1.91-3.93-1.91h0Zm-12.32,7.2h-4.8c-2.57,0-3.83,1.04-3.83,3.03s1.22,2.92,3.93,2.92c1.46,0,2.75-.1,3.83-1.15,.59-.56,.87-1.53,.87-2.96v-1.84Zm-4.35-9.43c4.59,0,6.85,1.98,6.85,5.71v11.62h-2.5v-1.64c-1.39,1.39-2.64,1.84-4.94,1.84s-3.76-.45-4.84-1.57c-.83-.84-1.29-2.12-1.29-3.48,0-2.99,2.09-4.94,5.91-4.94h5.15v-1.64c0-2.5-1.25-3.76-4.38-3.76-2.19,0-3.31,.52-4.31,1.95,0,0-1.66-1.62-1.64-1.64,1.52-1.92,3.25-2.46,5.99-2.46h0Zm-21.42,7.69c2.99,.28,5.04,1.43,5.04,4.63s-2.82,5.22-6.96,5.22c-2.89,0-5.15-.66-7.03-2.47l1.67-1.67c1.36,1.43,3.2,1.98,5.32,1.98,2.82,0,4.56-1.01,4.56-3.03,0-1.5-.87-2.33-2.85-2.51l-2.82-.24c-3.34-.28-5.11-1.77-5.11-4.59,0-3.13,2.64-5.01,6.3-5.01,2.44,0,4.63,.59,6.16,1.84l-1.64,1.64c-1.22-.94-2.78-1.36-4.56-1.36-2.51,0-3.83,1.08-3.83,2.82,0,1.46,.84,2.33,2.99,2.51l2.75,.24m-20.84,13.85h-29.59v-12.69h-4.23v16.92h38.05v-16.92h-4.23v12.69m-25.35-8.46h21.15v4.23h-21.15v-4.23Zm31.58-17.75l-3.39,2.52-12.62-16.97,3.39-2.52,12.62,16.97Zm-20.41-10.22l16.25,13.54-2.71,3.25-16.25-13.54,2.71-3.25Zm-6.23,8.82l19.17,8.93-1.79,3.83-19.17-8.93,1.79-3.83Zm-4.52,13.75l.87-4.14,20.7,4.35-.87,4.14-20.7-4.35M26.86,101.87l12.1-4.35,27.57-9.91c.62-.22,.93-.9,.71-1.51s-.9-.94-1.51-.71l-27.57,9.91-11.75,4.22-9.12-25.38c-.22-.62-.9-.93-1.51-.71-.62,.22-.93,.9-.71,1.51l9.25,25.74c.18,.5,.55,.9,1.02,1.12,.27,.13,.56,.19,.85,.19,.23,0,.46-.04,.67-.12Zm-.81-2.23h0Zm-11.29-29.04c.62-.22,.93-.9,.71-1.51L6.97,45.45c4.53-1.62,9.22-3.2,13.77-4.73,.62-.21,.95-.88,.74-1.5-.21-.62-.88-.95-1.5-.74-4.67,1.57-9.51,3.2-14.17,4.87-1.03,.37-1.56,1.51-1.2,2.55l8.63,23.99c.17,.48,.63,.78,1.11,.78,.13,0,.27-.02,.4-.07Zm15.72,23.21l12.68-2.18,28.63-4.91c.64-.11,1.08-.72,.97-1.37-.11-.64-.72-1.08-1.37-.97l-28.64,4.91-12.31,2.11-4.62-26.94-5.09-29.69,14.07-2.41c.64-.11,1.08-.72,.97-1.37-.11-.64-.72-1.08-1.37-.97l-14.45,2.48c-1.08,.19-1.81,1.22-1.62,2.3l5.16,30.06,4.68,27.31c.17,.96,1.02,1.65,1.97,1.65,.11,0,.22,0,.33-.03Zm-9.8-59.39h0Zm62.61,52.33H35.45c-1.12,0-2.02-.91-2.02-2.03v-23.41c0-.65,.53-1.18,1.18-1.18s1.18,.53,1.18,1.18v23.07h47.15V33.42s-.07-.07-.11-.11l-9.21-8.79c-.05-.05-.1-.1-.15-.14l-.05-.05H35.79v31.48c0,.65-.53,1.18-1.18,1.18s-1.18-.53-1.18-1.18V23.99c0-1.12,.91-2.02,2.02-2.02h38.21c.7,0,1.08,.36,1.44,.71l.14,.13,9.22,8.79h0c.06,.07,.12,.13,.17,.17,.28,.26,.66,.63,.66,1.33v51.61c0,1.12-.91,2.03-2.02,2.03Zm-8-52.32c-.7,0-1.83-.06-2.63-.85-.52-.52-.78-1.22-.78-2.08l-.02-8.34c0-.65,.53-1.18,1.18-1.19h0c.65,0,1.18,.53,1.18,1.18l.02,8.34c0,.24,.05,.37,.08,.41,.17,.17,.83,.16,1.12,.16h8.69c.65,0,1.18,.53,1.18,1.18s-.53,1.18-1.18,1.18h-8.67c-.05,0-.11,0-.17,0Zm1.25,7.11H42.68c-.65,0-1.18-.53-1.18-1.18s.53-1.18,1.18-1.18h33.84c.65,0,1.18,.53,1.18,1.18s-.53,1.18-1.18,1.18Zm0,8.41H42.68c-.65,0-1.18-.53-1.18-1.18s.53-1.18,1.18-1.18h33.84c.65,0,1.18,.53,1.18,1.18s-.53,1.18-1.18,1.18Zm0,8.41H42.68c-.65,0-1.18-.53-1.18-1.18s.53-1.18,1.18-1.18h33.84c.65,0,1.18,.53,1.18,1.18s-.53,1.18-1.18,1.18Zm0,8.41H42.68c-.65,0-1.18-.53-1.18-1.18s.53-1.18,1.18-1.18h33.84c.65,0,1.18,.53,1.18,1.18s-.53,1.18-1.18,1.18Zm0,8.41H42.68c-.65,0-1.18-.53-1.18-1.18s.53-1.18,1.18-1.18h33.84c.65,0,1.18,.53,1.18,1.18s-.53,1.18-1.18,1.18Z"/></svg>