<?xml version="1.0" encoding="UTF-8"?><svg id="Layer_1" xmlns="http://www.w3.org/2000/svg" xmlns:xlink="http://www.w3.org/1999/xlink" viewBox="0 0 495.19 497.59"><defs><style>.cls-1{fill:url(#linear-gradient);}.cls-2{clip-path:url(#clippath);}.cls-3{fill:#111827;}.cls-4{clip-path:url(#clippath-1);}.cls-5{opacity:.6;}</style><linearGradient id="linear-gradient" x1="296.32" y1="343.42" x2="-29.89" y2="-221.59" gradientTransform="matrix(1, 0, 0, 1, 0, 0)" gradientUnits="userSpaceOnUse"><stop offset="0" stop-color="#111827"/><stop offset=".61" stop-color="#223250"/><stop offset="1" stop-color="#2b4066"/></linearGradient><clipPath id="clippath"><rect class="cls-3" x="231.57" y="400" width="14.49" height="14.49" transform="translate(-218.46 289.85) rotate(-45.21)"/></clipPath><clipPath id="clippath-1"><rect class="cls-3" x="262.57" y="402.88" width="8.5" height="8.5" transform="translate(-210.1 309.69) rotate(-45.21)"/></clipPath></defs><path class="cls-1" d="M88.81,112.17l-.44,.34,.03,.06,9.69,16.08,1.33-.91c.94-.69,1.84-1.44,2.72-2.25l-13.27-13.27-.05-.05Zm-20.86-8.65h-18.84v.28l.04,.53v.23l.07,.61v.14l.09,.68s0,.04,0,.07l.1,.73c.22,1.51,.54,3,.98,4.46v.02l.23,.73v.04l.22,.62,.05,.16,.19,.53,.09,.24,.17,.45,.14,.33,.14,.34,.19,.42,.11,.25,.23,.5,.08,.16,.28,.57,.04,.09,.34,.65,.07,.13,16.14-9.74c-.63-1.34-1.03-2.76-1.18-4.21h0Zm-17.95,8.64v.02l.61-.19-.61,.17Zm46.86,17.25h0Zm0,0h0Zm.03-.03l.13-.06h0l-.12,.07h0Zm-.02,.01h0Zm0,0h0l-.02-.04,.02,.04Zm0,0h0Zm-.01,0h0Zm0,0h0Zm0,0h0Zm.03-.01l.13-.07-.13,.07Zm.12-.08h0Zm-.17,.1h0Zm0,0h0Zm-.17-.64l-9.37-15.55-.56,.31-.57,.29c-1.72,.82-3.6,1.24-5.5,1.24-1.24,0-2.47-.18-3.66-.53l-.6-.21-.6-.21-7.15,17.38,.05,.02,.05,.02h.01l1.37,.53c2.09,.74,4.25,1.26,6.45,1.54,.09,.01,.17,.02,.26,.03l.78,.08h.13l.62,.06h.21l.55,.04h.34l.43,.03h.78c1.76,0,3.51-.14,5.25-.43h.09l.55-.11,.32-.06,.32-.07,.54-.12,.1-.02c2.64-.62,5.19-1.57,7.58-2.83h0l.47-.26,.95-.53-.02-.04,.02,.04,.03-.02,.12-.07-.33-.56Zm-24.09-36.44l.44-.34-.03-.06-9.69-16.08-1.33,.92c-.94,.69-1.84,1.44-2.72,2.24l13.27,13.26,.05,.05Zm0,19.84l-13.32,13.31,.21,.19,.57,.5,.45,.38,.12,.1,.52,.42,.07,.05,.57,.44s.01,0,.02,.02l2.48,1.68,.09,.05,.49,.29,.3,.17,.28,.16,.52,.28,.07,.04,1.47,.71,7.17-17.41c-.73-.39-1.43-.85-2.08-1.39h0Zm-14.23-32.27l-.88,.92c-.98,1.06-1.88,2.17-2.68,3.33l-.12,.17-.27,.4-.27,.42-.1,.15c-3,4.71-4.69,10.12-4.91,15.69l-.02,.64v.64h18.78l.03-.64,.04-.64c.25-2.51,1.23-4.89,2.83-6.84,.13-.16,.28-.32,.43-.47s.28-.32,.43-.47l-13.29-13.29Zm38.78-4.67l-.08-.05-.5-.3-.29-.17-.29-.16-.51-.28-.08-.04c-1.1-.58-2.23-1.08-3.39-1.53l-.09-.03-.76-.28c-2.05-.72-4.18-1.22-6.33-1.5l-.26-.04-.26-.03-.51-.06h-.14l-.61-.06-.76-.05h-.28v18.83c.97,.1,1.92,.31,2.85,.62l13.87-13.86c-.51-.36-1.04-.7-1.57-1.03h0Zm15.15,25.46l-.03-.51-.02-.25-.05-.6v-.15l-.08-.66v-.08l-.11-.72s0-.02,0-.02c-.22-1.5-.54-2.99-.97-4.44v-.03l-.22-.68-.03-.09-.2-.61-.06-.16-.19-.52-.1-.25-.17-.43-.14-.34-.14-.34-.19-.43-.11-.24-.24-.51-.07-.15-.29-.58-.04-.08-.33-.64s0-.02-.01-.02c-.55-1.01-1.15-1.98-1.8-2.92l-13.87,13.87c.31,.92,.52,1.88,.62,2.85h18.84v-.28Zm-41.09,10.15l-.41-.49-.34-.44-.37-.52-.34-.54-16.11,9.7,.83,1.3,.07,.1h0l.87,1.23,.02,.03,.02,.03,.39,.51,.47,.58,.1,.12,.38,.45,.17,.19,.33,.38,.19,.21,.09,.09,.25,.27,.1,.1,.45,.46,13.29-13.29-.44-.47h0Zm-6.81-35.68l.33,.55-.33-.55Zm0,0h0Zm15.67-4.52h-.64c-1.33,.07-2.66,.2-3.97,.42h-.09l-.55,.11-.32,.06-.32,.07-.54,.12-.1,.02c-2.64,.62-5.19,1.57-7.58,2.83h0l-1.57,.89h0l9.7,16.11,.56-.31c.19-.1,.38-.2,.57-.29,1.32-.63,2.75-1.03,4.21-1.18l.64-.05s.42-.02,.64-.02v-18.79c-.21,0-.42,0-.64,.01h0Zm13.46,31.6l-.03,.64-.04,.64c-.24,2.45-1.19,4.84-2.83,6.84-.13,.16-.28,.32-.43,.47s-.28,.32-.43,.47l13.29,13.29c.15-.15,.29-.31,.44-.46l.44-.46c.98-1.06,1.88-2.18,2.69-3.34l.09-.14,.29-.43,.25-.39,.13-.19c3.05-4.79,4.68-10.21,4.9-15.68l.02-.64v-.64h-18.78Zm24.37-37.19c-3.44-3.44-9.01-3.44-12.45,0-2.74,2.74-3.29,6.84-1.66,10.13l-19.18,19.18c-3.29-1.63-7.39-1.09-10.13,1.66-3.44,3.44-3.44,9.01,0,12.45,3.44,3.44,9.01,3.44,12.45,0,2.74-2.74,3.29-6.84,1.66-10.13l19.18-19.18c3.29,1.63,7.39,1.09,10.13-1.66,3.44-3.44,3.44-9.01,0-12.45h0Zm8.12,25.32c0-7.52,5.5-12.9,13.05-12.9s13.01,5.38,13.01,12.9-5.5,12.9-13.01,12.9-13.05-5.38-13.05-12.9Zm20.6,0c0-4.67-2.95-8.19-7.55-8.19s-7.59,3.51-7.59,8.19,2.95,8.19,7.59,8.19,7.55-3.55,7.55-8.19Zm8.26,12.45v-24.94h11.67c5.42,0,8.37,3.67,8.37,8.04s-2.99,8-8.37,8h-6.36v8.9h-5.31Zm14.62-16.92c0-2.09-1.61-3.36-3.7-3.36h-5.61v6.69h5.61c2.09,0,3.7-1.27,3.7-3.33h0Zm7.81,16.92v-24.94h17.65v4.67h-12.34v5.23h12.08v4.67h-12.08v5.7h12.34v4.67l-17.65-.02Zm38.06,0l-11.89-16.26v16.26h-5.31v-24.94h5.46l11.55,15.66v-15.66h5.31v24.94h-5.12Zm27.6,0l-1.57-4.22h-10.7l-1.57,4.22h-6.02l9.61-24.94h6.66l9.61,24.94h-6.02Zm-6.92-19.63l-3.89,10.73h7.8l-3.91-10.73Zm14.31,19.63v-24.94h11.67c5.42,0,8.37,3.67,8.37,8.04s-2.99,8-8.37,8h-6.36v8.9h-5.31Zm14.62-16.92c0-2.09-1.61-3.36-3.7-3.36h-5.61v6.69h5.61c2.09,0,3.7-1.27,3.7-3.33h0Zm7.81,16.92v-24.94h5.31v24.94h-5.31Zm-84.16,16.04v-8.31h1.46v8.31h-1.46Zm12.57,0l-4.34-5.94v5.94h-1.46v-8.31h1.52l4.25,5.76v-5.76h1.46v8.31h-1.43Zm6.73,0v-8.31h1.46v8.31h-1.46Zm8.76,0v-7.03h-2.52v-1.28h6.49v1.28h-2.52v7.03h-1.46Zm8.76,0v-8.31h1.46v8.31h-1.46Zm12.61,0l-.61-1.61h-3.81l-.61,1.61h-1.66l3.27-8.31h1.82l3.27,8.31h-1.65Zm-2.52-6.86l-1.52,3.96h2.99l-1.48-3.96Zm9.79,6.86v-7.03h-2.52v-1.28h6.49v1.28h-2.52v7.03h-1.46Zm8.76,0v-8.31h1.46v8.31h-1.46Zm9.19,0l-3.27-8.31h1.66l2.52,6.72,2.52-6.72h1.66l-3.27,8.31h-1.82Zm9.53,0v-8.31h5.69v1.28h-4.24v2.14h4.15v1.28h-4.15v2.32h4.24v1.28h-5.69Zm-116.68,212.26h-4.04l-3.33-8.6h-14.19l-3.33,8.6h-4l12.22-31h4.52l12.15,31Zm-20.21-12.11h11.46l-5.75-15.27-5.7,15.27Zm32.55,12.59c-2.22,.02-4.41-.48-6.39-1.46-1.88-.91-3.45-2.35-4.49-4.14l3.23-2.3c.66,1.4,1.73,2.58,3.07,3.38,1.48,.85,3.16,1.27,4.87,1.22,1.69,0,3-.32,3.95-.96,.36-.21,.67-.5,.91-.85,.24-.34,.4-.73,.47-1.14s.06-.83-.04-1.23c-.1-.4-.29-.78-.55-1.11-.43-.56-1.25-.96-2.45-1.2l-5.71-1.19c-2.32-.47-3.97-1.25-4.97-2.35-1.01-1.12-1.55-2.58-1.5-4.09,0-1.26,.38-2.49,1.12-3.53,.81-1.12,1.91-2,3.18-2.56,1.53-.67,3.2-1,4.88-.96,2.07-.06,4.12,.41,5.94,1.37,1.59,.88,2.85,2.22,3.62,3.85l-3.19,2.09c-.46-1.29-1.4-2.37-2.62-3.03-1.15-.63-2.44-.96-3.75-.96-1-.02-1.99,.14-2.93,.47-.73,.26-1.37,.7-1.85,1.29-.43,.54-.66,1.21-.64,1.89s.27,1.35,.72,1.87c.47,.58,1.36,1,2.66,1.25l5.94,1.22c2.22,.44,3.77,1.16,4.65,2.16,.89,1.01,1.37,2.32,1.33,3.66,.03,1.38-.39,2.74-1.19,3.88-.84,1.15-1.99,2.04-3.33,2.56-1.57,.61-3.25,.91-4.94,.87h0Zm29.83-23.96h4.09l-11.17,27.43c-.47,1.3-1.14,2.53-1.97,3.64-.62,.82-1.44,1.48-2.38,1.93-.95,.41-1.98,.61-3.02,.59-1,0-2-.14-2.96-.45-.86-.27-1.67-.68-2.4-1.2l1.04-3.29c.59,.54,1.27,.96,2.02,1.25,.67,.27,1.39,.41,2.11,.42,.84,0,1.65-.27,2.33-.75,.73-.5,1.39-1.52,2-3.05l1.23-3.05-2.38-5.59-7.56-17.85h4.32l7.42,17.89,7.28-17.92Zm7.36,23.49v-23.49h3.32l.33,5.26-.62-.52c.44-1.15,1.14-2.19,2.05-3.03,.85-.77,1.86-1.34,2.96-1.67,1.13-.34,2.31-.52,3.5-.51,1.6-.02,3.19,.31,4.65,.96,1.38,.63,2.55,1.65,3.35,2.92,.85,1.32,1.27,2.99,1.27,5.01v15.04h-3.81v-13.7c0-2.6-.56-4.41-1.69-5.43-1.14-1.02-2.63-1.57-4.16-1.52-1.19,.01-2.36,.28-3.43,.8-1.18,.57-2.16,1.47-2.83,2.59-.74,1.19-1.12,2.79-1.12,4.79v12.49h-3.78Zm35.61-23.95c1.49-.03,2.96,.23,4.35,.75,1.23,.49,2.34,1.22,3.26,2.16,.94,.97,1.7,2.1,2.23,3.34l-3.61,1.67c-.4-1.35-1.21-2.55-2.3-3.45-1.16-.84-2.58-1.26-4.02-1.2-1.44-.04-2.85,.33-4.09,1.06-1.17,.73-2.08,1.8-2.62,3.05-1.2,3.09-1.2,6.51,0,9.61,.53,1.26,1.45,2.34,2.62,3.07,1.23,.73,2.65,1.1,4.09,1.06,1.1,.03,2.19-.17,3.21-.56,.87-.35,1.64-.92,2.24-1.64,.61-.77,1.02-1.67,1.21-2.63l3.52,1.22c-.49,1.36-1.25,2.62-2.21,3.71-.93,1.03-2.09,1.84-3.38,2.37-1.42,.57-2.95,.86-4.49,.84-2.08,.03-4.13-.47-5.95-1.46-1.75-.98-3.17-2.44-4.09-4.21-.97-2.05-1.48-4.29-1.48-6.55s.5-4.5,1.48-6.55c.92-1.77,2.34-3.23,4.09-4.21,1.82-.99,3.87-1.49,5.95-1.45Zm42.21,23.95h-5.37l-2.99-8.12h-13.17l-3,8.12h-5.23l11.84-31h6.09l11.84,31Zm-20.11-12.21h10.31l-5.14-14.46-5.18,14.46Zm35.03-18.79c2.01-.05,4,.35,5.83,1.17,1.56,.74,2.88,1.89,3.81,3.34,.9,1.59,1.38,3.38,1.38,5.2s-.47,3.61-1.38,5.2c-.92,1.45-2.24,2.61-3.81,3.34-1.83,.83-3.82,1.23-5.83,1.18h-6.99v11.55h-5.07v-30.99h12.06Zm-.81,15.12c2.26,0,3.91-.46,4.97-1.39,1.06-.92,1.59-2.26,1.6-4.01,0-1.78-.53-3.14-1.6-4.06-1.06-.93-2.72-1.39-4.97-1.39h-6.18v10.86h6.18Zm20-15.13v31h-5.07v-31h5.07Zm-224.04-11.67h-30.69c-7.61,0-13.78,6.09-13.78,13.61v30.32c0,7.52,6.17,13.61,13.78,13.61h30.69c7.61,0,13.78-6.09,13.78-13.61v-30.32c0-7.52-6.17-13.61-13.78-13.61Zm-2.06,36.87c0,5.54-5.97,10.05-13.31,10.05s-13.31-4.51-13.31-10.05v-.11h2.96v.11c0,3.93,4.65,7.13,10.36,7.13s10.36-3.2,10.36-7.13l-.02-.11h2.96v.11Zm-9.97-4.41l-1.73,2.36-.09-.07-13.54-9.71,1.73-2.36,.09,.07,13.54,9.71Zm-6.61-7.41l1.73-2.36,.09,.07,13.54,9.71-1.73,2.36-.09-.07-13.54-9.71Zm16.64-4.28h-2.96v-.11c0-3.93-4.65-7.13-10.36-7.13s-10.36,3.2-10.36,7.13v.11h-2.96v-.11c0-5.54,5.97-10.05,13.31-10.05s13.31,4.51,13.33,10.05v.11Zm188.85-93.05v-16.13c2.64-.64,4.61-3.02,4.61-5.86,0-3.34-2.7-6.04-6.04-6.04-1.72,0-3.26,.72-4.36,1.87l-13.97-8.07c.16-.54,.24-1.1,.24-1.69,0-3.34-2.7-6.04-6.04-6.04s-6.04,2.7-6.04,6.04c0,.59,.09,1.15,.24,1.69l-13.97,8.07c-1.1-1.15-2.65-1.87-4.36-1.87-3.34,0-6.04,2.7-6.04,6.04,0,2.84,1.97,5.22,4.61,5.86v16.13c-2.64,.64-4.61,3.02-4.61,5.86,0,3.34,2.7,6.04,6.04,6.04,1.72,0,3.26-.72,4.36-1.87l13.97,8.07c-.16,.54-.24,1.1-.24,1.69,0,3.34,2.7,6.04,6.04,6.04s6.04-2.7,6.04-6.04c0-.59-.09-1.15-.24-1.69l13.97-8.07c1.1,1.15,2.64,1.87,4.36,1.87,3.34,0,6.04-2.7,6.04-6.04,0-2.84-1.96-5.22-4.61-5.86Zm-7.23-23.69c-.16,.54-.24,1.1-.24,1.69,0,2.84,1.96,5.22,4.61,5.86v16.13c-.09,.02-.17,.04-.26,.07l-18.26-31.63c.06-.06,.13-.12,.19-.19l13.97,8.07Zm-.07,28.11h-36.53c-.28-1.13-.87-2.14-1.69-2.92l18.26-31.63c.54,.16,1.1,.24,1.69,.24s1.15-.09,1.69-.24l18.26,31.63c-.82,.78-1.41,1.79-1.69,2.93Zm-22.62-36.18c.06,.06,.12,.13,.19,.19l-18.26,31.63c-.08-.02-.17-.04-.26-.07v-16.14c2.64-.65,4.6-3.02,4.6-5.86,0-.59-.09-1.15-.24-1.69l13.97-8.07Zm8.72,47.37c-1.1-1.15-2.64-1.87-4.36-1.87s-3.26,.72-4.36,1.87l-13.97-8.07c.02-.08,.04-.17,.07-.25h36.53c.02,.09,.04,.17,.07,.26l-13.97,8.07Zm56.5-8.88c-3.57,0-6.33-1.03-8.3-3.08-1.97-2.05-3.01-4.81-3.12-8.26-.03-.86-.04-2.21-.04-4.07s.01-3.21,.04-4.07c.11-3.45,1.16-6.21,3.12-8.26s4.74-3.08,8.3-3.08c2.43,0,4.47,.46,6.12,1.37,1.65,.91,2.88,2,3.68,3.25,.83,1.23,1.27,2.33,1.33,3.3v.09c0,.23-.09,.41-.26,.56s-.38,.21-.64,.21h-.94c-.26,0-.44-.06-.56-.17s-.23-.34-.34-.68c-.48-1.51-1.43-2.78-2.82-3.81-1.37-1.03-3.22-1.54-5.56-1.54-2.65,0-4.75,.73-6.29,2.18-1.51,1.46-2.33,3.72-2.44,6.81-.03,.86-.04,2.14-.04,3.85s.01,3,.04,3.85c.11,3.08,.93,5.35,2.44,6.81,1.54,1.46,3.64,2.18,6.29,2.18s4.79-.76,6.42-2.27c1.63-1.51,2.44-3.75,2.44-6.72v-2.18h-7.45c-.29,0-.51-.09-.68-.26-.17-.2-.26-.44-.26-.73v-.6c0-.29,.09-.51,.26-.68,.17-.2,.4-.3,.68-.3h9.16c.31,0,.56,.09,.73,.26s.26,.41,.26,.73v3.77c0,2.28-.46,4.29-1.37,6.04-.91,1.74-2.24,3.1-3.98,4.07-1.74,.97-3.81,1.46-6.21,1.46Zm18.54-.43c-.28,0-.51-.09-.68-.26s-.26-.4-.26-.68v-20.33c0-.29,.09-.51,.26-.68,.17-.2,.4-.3,.68-.3h.68c.29,0,.51,.1,.68,.3,.2,.17,.3,.4,.3,.68v1.97c1.03-1.97,2.97-2.95,5.82-2.95h1.58c.29,0,.51,.09,.68,.26s.26,.4,.26,.68v.6c0,.29-.09,.51-.26,.68s-.4,.26-.68,.26h-1.84c-1.71,0-3.07,.5-4.07,1.5-1,1-1.5,2.35-1.5,4.07v13.27c0,.29-.1,.51-.3,.68-.17,.17-.4,.26-.68,.26h-.68Zm19.6,.43c-1.37,0-2.64-.29-3.81-.86-1.17-.57-2.11-1.34-2.82-2.31-.68-.97-1.03-2.04-1.03-3.21,0-1.88,.76-3.42,2.27-4.62,1.54-1.2,3.61-1.97,6.21-2.31l6.76-.94v-1.5c0-1.57-.48-2.77-1.46-3.6-.94-.86-2.4-1.28-4.37-1.28-1.46,0-2.65,.29-3.6,.86-.91,.57-1.5,1.26-1.75,2.05-.11,.34-.26,.58-.43,.73-.14,.11-.34,.17-.6,.17h-.6c-.26,0-.49-.09-.68-.26-.17-.2-.26-.43-.26-.68,0-.63,.28-1.36,.86-2.18,.57-.86,1.46-1.6,2.65-2.23s2.67-.94,4.41-.94c3.05,0,5.22,.73,6.51,2.18s1.93,3.22,1.93,5.31v14.25c0,.29-.09,.51-.26,.68s-.4,.26-.68,.26h-.73c-.29,0-.51-.09-.68-.26s-.26-.4-.26-.68v-2.01c-.63,.94-1.56,1.74-2.78,2.4-1.2,.66-2.8,.98-4.79,.98Zm.43-2.48c2.08,0,3.79-.68,5.14-2.05,1.34-1.37,2.01-3.34,2.01-5.91v-1.46l-5.52,.77c-2.34,.31-4.11,.86-5.31,1.63s-1.8,1.74-1.8,2.91c0,1.31,.54,2.33,1.63,3.04,1.11,.71,2.4,1.07,3.85,1.07Zm17.51,10.19c-.28,0-.51-.09-.68-.26s-.26-.4-.26-.68v-28.51c0-.29,.09-.51,.26-.68s.4-.26,.68-.26h.73c.29,0,.51,.09,.68,.26s.26,.4,.26,.68v2.01c1.66-2.25,4.05-3.38,7.19-3.38s5.35,.98,6.81,2.95c1.48,1.94,2.27,4.34,2.35,7.19,.03,.29,.04,.76,.04,1.41s-.01,1.13-.04,1.41c-.09,2.85-.87,5.26-2.35,7.23-1.46,1.94-3.72,2.91-6.81,2.91s-5.51-1.13-7.19-3.38v10.14c0,.29-.09,.51-.26,.68s-.4,.26-.68,.26h-.73Zm8.6-10.19c2.31,0,3.99-.73,5.05-2.18,1.08-1.48,1.67-3.38,1.75-5.69,.03-.29,.04-.68,.04-1.2,0-2.65-.51-4.82-1.54-6.51-1.03-1.71-2.8-2.57-5.31-2.57-2.25,0-3.95,.76-5.09,2.27-1.14,1.48-1.75,3.24-1.84,5.26l-.04,1.67,.04,1.67c.03,1.23,.3,2.4,.81,3.51,.51,1.08,1.28,1.98,2.31,2.7s2.3,1.07,3.81,1.07Zm16.27,2.05c-.28,0-.51-.09-.68-.26s-.26-.4-.26-.68v-28.51c0-.29,.09-.51,.26-.68s.4-.26,.68-.26h.73c.29,0,.51,.09,.68,.26s.26,.4,.26,.68v10.14c.86-1.11,1.83-1.95,2.91-2.53,1.11-.57,2.54-.86,4.28-.86,2.8,0,4.95,.9,6.46,2.7,1.51,1.77,2.27,4.07,2.27,6.89v12.16c0,.29-.09,.51-.26,.68s-.4,.26-.68,.26h-.73c-.28,0-.51-.09-.68-.26s-.26-.4-.26-.68v-11.94c0-2.31-.57-4.11-1.71-5.39-1.11-1.28-2.72-1.93-4.84-1.93s-3.7,.66-4.92,1.97c-1.23,1.28-1.84,3.07-1.84,5.35v11.94c0,.29-.09,.51-.26,.68s-.4,.26-.68,.26h-.73Zm44.25,2.78c-.43,0-.88-.33-1.37-.98l-1.88-2.61c-1.71,.83-3.71,1.24-5.99,1.24-7.33,0-11.1-3.94-11.3-11.81-.03-.86-.04-2.05-.04-3.6s.01-2.74,.04-3.6c.11-3.88,1.17-6.82,3.17-8.82,2-2,4.71-3,8.13-3s6.13,1,8.13,3c2,2,3.05,4.94,3.17,8.82,.06,1.71,.09,2.91,.09,3.6s-.03,1.88-.09,3.6c-.14,4.08-1.18,7.08-3.12,8.99l2.74,3.85c.09,.17,.13,.33,.13,.47,0,.23-.09,.43-.26,.6s-.37,.26-.6,.26h-.94Zm-9.25-4.92c2.57,0,4.61-.77,6.12-2.31,1.54-1.57,2.37-3.95,2.48-7.15,.06-1.71,.09-2.84,.09-3.38s-.03-1.67-.09-3.38c-.11-3.2-.94-5.56-2.48-7.11-1.54-1.57-3.58-2.35-6.12-2.35s-4.58,.78-6.12,2.35c-1.54,1.54-2.37,3.91-2.48,7.11-.03,.86-.04,1.98-.04,3.38s.01,2.53,.04,3.38c.11,3.2,.93,5.58,2.44,7.15,1.54,1.54,3.6,2.31,6.16,2.31Zm19.14,2.14c-.28,0-.51-.09-.68-.26s-.26-.4-.26-.68v-28.08c0-.29,.09-.51,.26-.68s.4-.26,.68-.26h.81c.29,0,.51,.09,.68,.26s.26,.4,.26,.68v26.45h14.77c.31,0,.56,.09,.73,.26s.26,.41,.26,.73v.64c0,.29-.1,.51-.3,.68-.17,.17-.4,.26-.68,.26h-16.52Z"/><g><path class="cls-3" d="M244.94,448.94c1.1,1.46,2.52,2.64,4.16,3.45,1.77,.88,3.73,1.32,5.71,1.3,1.6,.04,3.19-.23,4.69-.8,1.2-.47,2.26-1.22,3.12-2.18,.8-.94,1.38-2.04,1.71-3.23,.36-1.28,.53-2.61,.52-3.94v-4.63h-.11c-1.04,1.64-2.53,2.95-4.3,3.75-1.69,.73-3.51,1.11-5.35,1.1-1.8,.01-3.59-.32-5.27-.99-1.59-.63-3.04-1.56-4.27-2.73-1.23-1.18-2.2-2.6-2.87-4.16-.71-1.66-1.06-3.44-1.05-5.24-.02-1.79,.32-3.58,.99-5.24,.63-1.58,1.56-3.02,2.73-4.25,1.17-1.22,2.58-2.19,4.14-2.84,1.67-.69,3.46-1.04,5.27-1.02,.82,0,1.64,.08,2.45,.22,.89,.16,1.76,.41,2.59,.77,1.97,.86,3.68,2.23,4.94,3.97h.11v-4.3h3.64v25.59c-.01,1.5-.19,3-.52,4.47-.35,1.58-1.05,3.07-2.04,4.36-1.13,1.42-2.57,2.55-4.22,3.31-1.8,.88-4.16,1.32-7.06,1.32-2.36,.04-4.7-.39-6.89-1.27-2.1-.9-3.98-2.23-5.52-3.92l2.7-2.87Zm.66-18.42c0,1.31,.24,2.62,.74,3.83,.48,1.17,1.17,2.23,2.04,3.14,.87,.9,1.9,1.63,3.03,2.15,1.19,.54,2.48,.81,3.78,.8,2.58,0,5.07-.97,6.95-2.73,.93-.87,1.65-1.94,2.12-3.12,.51-1.3,.75-2.69,.69-4.08,0-1.31-.21-2.61-.66-3.83-.42-1.17-1.08-2.24-1.93-3.14-.87-.92-1.92-1.65-3.09-2.15-1.29-.55-2.68-.82-4.08-.8-1.3-.01-2.59,.26-3.78,.8-1.14,.52-2.17,1.25-3.03,2.15-.87,.91-1.56,1.98-2.04,3.14-.5,1.22-.75,2.52-.74,3.83Zm37.73,13.24h-3.97v-39.05h12.02c3.97,0,7.11,.86,9.4,2.59,2.3,1.73,3.45,4.34,3.45,7.83,.07,2.54-.85,5-2.56,6.87-1.71,1.86-4.18,2.93-7.42,3.23l11.25,18.53h-4.85l-10.7-18.15h-6.62v18.15Zm0-21.79h7.06c1.52,.03,3.03-.15,4.5-.55,1.07-.29,2.07-.78,2.95-1.46,.71-.57,1.26-1.31,1.6-2.15,.34-.85,.5-1.76,.5-2.68,0-.9-.16-1.79-.5-2.62-.35-.85-.89-1.6-1.6-2.18-.87-.69-1.87-1.19-2.95-1.46-1.47-.38-2.98-.55-4.5-.52h-7.06v13.62Zm29.01-17.26h11.36c3.97,0,7.11,.86,9.4,2.59,2.3,1.73,3.45,4.34,3.45,7.83,0,3.49-1.15,6.11-3.45,7.86-2.3,1.75-5.43,2.62-9.4,2.62h-7.39v18.15h-3.97v-39.05Zm3.97,17.27h6.4c1.52,.03,3.03-.15,4.5-.55,1.07-.29,2.07-.78,2.95-1.46,.71-.57,1.26-1.31,1.6-2.15,.34-.85,.5-1.76,.5-2.68,0-.9-.16-1.79-.5-2.62-.35-.85-.89-1.6-1.6-2.18-.87-.69-1.87-1.19-2.95-1.46-1.47-.38-2.98-.55-4.5-.52h-6.4v13.62Zm60.12,15.61c-.7,1.04-1.52,1.98-2.45,2.81-1.01,.91-2.13,1.67-3.34,2.29-1.29,.66-2.65,1.17-4.05,1.52-1.51,.37-3.05,.56-4.61,.55-2.77,.03-5.52-.5-8.08-1.54-4.89-1.98-8.76-5.86-10.73-10.76-1.05-2.61-1.58-5.4-1.54-8.22-.03-2.81,.49-5.61,1.54-8.22,1.96-4.9,5.84-8.78,10.73-10.76,2.56-1.05,5.31-1.57,8.08-1.54,2.5,.01,4.97,.5,7.28,1.43,2.47,.99,4.62,2.63,6.23,4.74l-3.47,2.59c-.47-.7-1.02-1.33-1.66-1.88-.73-.65-1.54-1.2-2.4-1.65-.92-.49-1.89-.87-2.9-1.16-1-.29-2.04-.44-3.09-.44-2.32-.04-4.61,.43-6.73,1.38-1.92,.87-3.64,2.13-5.05,3.7-1.39,1.57-2.47,3.4-3.17,5.38-1.47,4.16-1.47,8.69,0,12.85,.7,1.98,1.78,3.81,3.17,5.38,1.41,1.57,3.13,2.83,5.05,3.7,2.11,.95,4.41,1.42,6.73,1.38,1.03,0,2.05-.09,3.06-.28,1.03-.19,2.03-.5,2.98-.94,1-.46,1.93-1.06,2.76-1.79,.93-.83,1.74-1.79,2.4-2.84l3.25,2.32Z"/><g class="cls-5"><path class="cls-3" d="M238.85,417.49l-10.28-10.21,10.21-10.29,10.28,10.21-10.21,10.29Z"/><g><rect class="cls-3" x="231.57" y="400" width="14.49" height="14.49" transform="translate(-218.46 289.85) rotate(-45.21)"/><g class="cls-2"><g><path class="cls-3" d="M228.75,397l-.18,1.6v-1.6h.18Zm.24,0l-.42,3.73v-2.12l.18-1.6h.24Zm.24,0l-.66,5.85v-2.12l.42-3.73h.24Zm.24,0l-.9,7.97v-2.12l.66-5.85h.24Z"/><path class="cls-3" d="M229.71,397l-1.14,10.09v-2.12l.9-7.97h.24Z"/><path class="cls-3" d="M229.95,397l-1.38,12.21v-2.12l1.14-10.09h.24Zm.24,0l-1.62,14.33v-2.12l1.38-12.21h.24Z"/><path class="cls-3" d="M230.43,397l-1.86,16.45v-2.12l1.62-14.33h.24Z"/><path class="cls-3" d="M230.67,397l-2.1,18.57v-2.12l1.86-16.45h.24Z"/><path class="cls-3" d="M230.91,397l-2.31,20.48h-.02v-1.91l2.1-18.57h.24Z"/><path class="cls-3" d="M231.15,397l-2.32,20.49h-.24l2.31-20.49h.24Z"/><path class="cls-3" d="M231.39,397l-2.32,20.49h-.24l2.32-20.49h.24Z"/><path class="cls-3" d="M231.63,397l-2.32,20.49h-.24l2.32-20.49h.24Z"/><path class="cls-3" d="M231.87,397l-2.32,20.49h-.24l2.32-20.49h.24Z"/><path class="cls-3" d="M232.11,397l-2.32,20.49h-.24l2.32-20.49h.24Z"/><path class="cls-3" d="M232.34,397l-2.32,20.49h-.24l2.32-20.49h.24Z"/><path class="cls-3" d="M232.58,397l-2.32,20.49h-.24l2.32-20.49h.24Z"/><path class="cls-3" d="M232.82,397l-2.32,20.49h-.24l2.32-20.49h.24Z"/><path class="cls-3" d="M233.06,397l-2.32,20.49h-.24l2.32-20.49h.24Z"/><path class="cls-3" d="M233.3,397l-2.32,20.49h-.24l2.32-20.49h.24Z"/><path class="cls-3" d="M233.54,397l-2.32,20.49h-.24l2.32-20.49h.24Z"/><path class="cls-3" d="M233.78,397l-2.32,20.49h-.24l2.32-20.49h.24Z"/><path class="cls-3" d="M234.02,397l-2.32,20.49h-.24l2.32-20.49h.24Z"/><path class="cls-3" d="M234.26,397l-2.32,20.49h-.24l2.32-20.49h.24Z"/><path class="cls-3" d="M234.5,397l-2.32,20.49h-.24l2.32-20.49h.24Z"/><path class="cls-3" d="M234.74,397l-2.32,20.49h-.24l2.32-20.49h.24Zm.24,0l-2.32,20.49h-.24l2.32-20.49h.24Z"/><path class="cls-3" d="M235.22,397l-2.32,20.49h-.24l2.32-20.49h.24Z"/><path class="cls-3" d="M235.46,397l-2.32,20.49h-.24l2.32-20.49h.24Z"/><path class="cls-3" d="M235.7,397l-2.32,20.49h-.24l2.32-20.49h.24Z"/><path class="cls-3" d="M235.94,397l-2.32,20.49h-.24l2.32-20.49h.24Z"/><path class="cls-3" d="M236.18,397l-2.32,20.49h-.24l2.32-20.49h.24Z"/><path class="cls-3" d="M236.42,397l-2.32,20.49h-.24l2.32-20.49h.24Z"/><path class="cls-3" d="M236.66,397l-2.32,20.49h-.24l2.32-20.49h.24Z"/><path class="cls-3" d="M236.9,397l-2.32,20.49h-.24l2.32-20.49h.24Z"/><path class="cls-3" d="M237.14,397l-2.32,20.49h-.24l2.32-20.49h.24Z"/><path class="cls-3" d="M237.38,397l-2.32,20.49h-.24l2.32-20.49h.24Z"/><path class="cls-3" d="M237.62,397l-2.32,20.49h-.24l2.32-20.49h.24Z"/><path class="cls-3" d="M237.85,397l-2.32,20.49h-.24l2.32-20.49h.24Z"/><path class="cls-3" d="M238.09,397l-2.32,20.49h-.24l2.32-20.49h.24Z"/><path class="cls-3" d="M238.33,397l-2.32,20.49h-.24l2.32-20.49h.24Z"/><path class="cls-3" d="M238.57,397l-2.32,20.49h-.24l2.32-20.49h.24Z"/><path class="cls-3" d="M238.81,397l-2.32,20.49h-.24l2.32-20.49h.24Z"/><path class="cls-3" d="M239.05,397l-2.32,20.49h-.24l2.32-20.49h.24Z"/><path class="cls-3" d="M239.29,397l-2.32,20.49h-.24l2.32-20.49h.24Z"/><path class="cls-3" d="M239.53,397l-2.32,20.49h-.24l2.32-20.49h.24Z"/><path class="cls-3" d="M239.77,397l-2.32,20.49h-.24l2.32-20.49h.24Z"/><path class="cls-3" d="M240.01,397l-2.32,20.49h-.24l2.32-20.49h.24Z"/><path class="cls-3" d="M240.25,397l-2.32,20.49h-.24l2.32-20.49h.24Z"/><path class="cls-3" d="M240.49,397l-2.32,20.49h-.24l2.32-20.49h.24Z"/><path class="cls-3" d="M240.73,397l-2.32,20.49h-.24l2.32-20.49h.24Z"/><path class="cls-3" d="M240.97,397l-2.32,20.49h-.24l2.32-20.49h.24Z"/><path class="cls-3" d="M241.21,397l-2.32,20.49h-.24l2.32-20.49h.24Z"/><path class="cls-3" d="M241.45,397l-2.32,20.49h-.24l2.32-20.49h.24Z"/><path class="cls-3" d="M241.69,397l-2.32,20.49h-.24l2.32-20.49h.24Z"/><path class="cls-3" d="M241.93,397l-2.32,20.49h-.24l2.32-20.49h.24Z"/><path class="cls-3" d="M242.17,397l-2.32,20.49h-.24l2.32-20.49h.24Z"/><path class="cls-3" d="M242.41,397l-2.32,20.49h-.24l2.32-20.49h.24Z"/><path class="cls-3" d="M242.65,397l-2.32,20.49h-.24l2.32-20.49h.24Z"/><path class="cls-3" d="M242.89,397l-2.32,20.49h-.24l2.32-20.49h.24Z"/><path class="cls-3" d="M243.13,397l-2.32,20.49h-.24l2.32-20.49h.24Z"/><path class="cls-3" d="M243.37,397l-2.32,20.49h-.24l2.32-20.49h.24Z"/><path class="cls-3" d="M243.6,397l-2.32,20.49h-.24l2.32-20.49h.24Z"/><path class="cls-3" d="M243.84,397l-2.32,20.49h-.24l2.32-20.49h.24Z"/><path class="cls-3" d="M244.08,397l-2.32,20.49h-.24l2.32-20.49h.24Z"/><path class="cls-3" d="M244.32,397l-2.32,20.49h-.24l2.32-20.49h.24Z"/><path class="cls-3" d="M244.56,397l-2.32,20.49h-.24l2.32-20.49h.24Z"/><path class="cls-3" d="M244.8,397l-2.32,20.49h-.24l2.32-20.49h.24Z"/><path class="cls-3" d="M245.04,397l-2.32,20.49h-.24l2.32-20.49h.24Z"/><path class="cls-3" d="M248.93,397h.13v20.49h-6.34l2.32-20.49h3.89Z"/></g></g></g></g><g class="cls-5"><path class="cls-3" d="M266.84,413.14l-6.03-5.99,5.99-6.03,6.03,5.99-5.99,6.03Z"/><g><rect class="cls-3" x="262.57" y="402.88" width="8.5" height="8.5" transform="translate(-210.1 309.69) rotate(-45.21)"/><g class="cls-4"><g><path class="cls-3" d="M272.83,404.63l-.16-3.51h.16v3.51Z"/><path class="cls-3" d="M272.83,408.32l-.34-7.2h.17l.16,3.51v3.69Z"/><path class="cls-3" d="M272.83,412.01l-.51-10.89h.17l.34,7.2v3.69Zm-.12,1.13l-.56-12.02h.17l.51,10.89v1.13h-.12Z"/><path class="cls-3" d="M272.54,413.14l-.56-12.02h.17l.56,12.02h-.17Zm-.17,0l-.56-12.02h.17l.56,12.02h-.17Zm-.17,0l-.56-12.02h.17l.56,12.02h-.17Zm-.17,0l-.56-12.02h.17l.56,12.02h-.17Zm-.17,0l-.56-12.02h.17l.56,12.02h-.17Zm-.17,0l-.56-12.02h.17l.56,12.02h-.17Zm-.17,0l-.56-12.02h.17l.56,12.02h-.17Zm-.17,0l-.56-12.02h.17l.56,12.02h-.17Zm-.17,0l-.56-12.02h.17l.56,12.02h-.17Zm-.17,0l-.56-12.02h.17l.56,12.02h-.17Zm-.17,0l-.56-12.02h.17l.56,12.02h-.17Zm-.17,0l-.56-12.02h.17l.56,12.02h-.17Zm-.17,0l-.56-12.02h.17l.56,12.02h-.17Zm-.17,0l-.56-12.02h.17l.56,12.02h-.17Zm-.17,0l-.56-12.02h.17l.56,12.02h-.17Zm-.17,0l-.56-12.02h.17l.56,12.02h-.17Zm-.17,0l-.56-12.02h.17l.56,12.02h-.17Zm-.17,0l-.56-12.02h.17l.56,12.02h-.17Zm-.17,0l-.56-12.02h.17l.56,12.02h-.17Zm-.17,0l-.56-12.02h.17l.56,12.02h-.17Zm-.17,0l-.56-12.02h.17l.56,12.02h-.17Zm-.17,0l-.56-12.02h.17l.56,12.02h-.17Zm-.17,0l-.56-12.02h.17l.56,12.02h-.17Zm-.17,0l-.56-12.02h.17l.56,12.02h-.17Zm-.17,0l-.56-12.02h.17l.56,12.02h-.17Zm-.17,0l-.56-12.02h.17l.56,12.02h-.17Zm-.17,0l-.56-12.02h.17l.56,12.02h-.17Zm-.17,0l-.56-12.02h.17l.56,12.02h-.17Zm-.17,0l-.56-12.02h.17l.56,12.02h-.17Zm-.17,0l-.56-12.02h.17l.56,12.02h-.17Zm-.17,0l-.56-12.02h.17l.56,12.02h-.17Zm-.17,0l-.56-12.02h.17l.56,12.02h-.17Zm-.17,0l-.56-12.02h.17l.56,12.02h-.17Zm-.17,0l-.56-12.02h.17l.56,12.02h-.17Zm-.17,0l-.56-12.02h.17l.56,12.02h-.17Zm-.17,0l-.56-12.02h.17l.56,12.02h-.17Zm-.17,0l-.56-12.02h.17l.56,12.02h-.17Zm-.17,0l-.56-12.02h.17l.56,12.02h-.17Zm-.17,0l-.56-12.02h.17l.56,12.02h-.17Zm-.17,0l-.56-12.02h.17l.56,12.02h-.17Zm-.17,0l-.56-12.02h.17l.56,12.02h-.17Zm-.17,0l-.56-12.02h.17l.56,12.02h-.17Zm-.17,0l-.56-12.02h.17l.56,12.02h-.17Zm-.17,0l-.56-12.02h.17l.56,12.02h-.17Zm-.17,0l-.56-12.02h.17l.56,12.02h-.17Zm-.17,0l-.56-12.02h.17l.56,12.02h-.17Zm-.17,0l-.56-12.02h.17l.56,12.02h-.17Zm-.17,0l-.56-12.02h.17l.56,12.02h-.17Zm-.17,0l-.56-12.02h.17l.56,12.02h-.17Zm-.17,0l-.56-12.02h.17l.56,12.02h-.17Zm-.17,0l-.56-12.02h.17l.56,12.02h-.17Zm-.17,0l-.56-12.02h.17l.56,12.02h-.17Zm-.17,0l-.56-12.02h.17l.56,12.02h-.17Zm-.17,0l-.56-12.02h.17l.56,12.02h-.17Zm-.17,0l-.56-12.02h.17l.56,12.02h-.17Zm-.17,0l-.56-12.02h.17l.56,12.02h-.17Zm-.17,0l-.56-12.02h.17l.56,12.02h-.17Zm-.17,0l-.56-12.02h.17l.56,12.02h-.17Zm-.17,0l-.56-12.02h.17l.56,12.02h-.17Zm-.17,0l-.56-12.02h.17l.56,12.02h-.17Zm-.17,0l-.56-12.02h.17l.56,12.02h-.17Zm-.17,0l-.56-12.02h.17l.56,12.02h-.17Zm-.17,0l-.56-12.02h.17l.56,12.02h-.17Zm-.17,0l-.56-12.02h.17l.56,12.02h-.17Zm-.17,0l-.56-12.02h.17l.56,12.02h-.17Zm-.17,0l-.56-12.02h.17l.56,12.02h-.17Zm-.17,0l-.39-8.35v-3.67h0l.56,12.02h-.17Zm-.17,0l-.22-4.66v-3.69l.39,8.35h-.17Zm-.17,0l-.04-.97v-3.69l.22,4.66h-.17Zm-.04-.97l.04,.97h-.04v-.97Z"/></g></g></g></g><path class="cls-3" d="M239.23,401.05l-6.18,6.23,6.23,6.18,5.27-.02-5.53-5.48,27.28-.1-2.39,2.41h2.63l3.09-3.12-3.11-3.09h-2.63l2.41,2.4-27.28,.1,5.48-5.52-5.27,.02Z"/></g></svg>