<?xml version="1.0" encoding="UTF-8"?><svg id="Layer_1" xmlns="http://www.w3.org/2000/svg" xmlns:xlink="http://www.w3.org/1999/xlink" viewBox="0 0 495.19 497.59"><defs><style>.cls-1{fill:url(#linear-gradient);}.cls-2{clip-path:url(#clippath);}.cls-3{fill:#f2f2f2;}.cls-4,.cls-5{fill:#fff;}.cls-6{fill:#ee7320;}.cls-7{fill:#7df3e1;}.cls-8{fill:#b3b3b3;}.cls-9{fill:#111827;}.cls-5{filter:url(#drop-shadow-8);}.cls-10{opacity:.5;stroke:#fff;stroke-linecap:round;}.cls-10,.cls-11{fill:none;stroke-miterlimit:10;}.cls-11{stroke:#ccc;stroke-width:.5px;}</style><linearGradient id="linear-gradient" x1="109.23" y1="248.84" x2="377.01" y2="-18.94" gradientTransform="matrix(1, 0, 0, 1, 0, 0)" gradientUnits="userSpaceOnUse"><stop offset="0" stop-color="#ee7320"/><stop offset="1" stop-color="#e9580c"/></linearGradient><clipPath id="clippath"><path class="cls-6" d="M45.46,111.4v-1.07l11.92-6.86-3.06-1.77-8.86,5.1v-1.07l11.85-6.83-3.06-1.77-8.79,5.06v-1.07l11.96-6.89-11.96-6.88-11.9,6.88v13.77l11.9,6.88,11.96-6.88-3.04-1.75-8.92,5.14Z"/></clipPath><filter id="drop-shadow-8" filterUnits="userSpaceOnUse"><feOffset dx="0" dy="0"/><feGaussianBlur result="blur" stdDeviation="3"/><feFlood flood-color="#000" flood-opacity=".25"/><feComposite in2="blur" operator="in"/><feComposite in="SourceGraphic"/></filter></defs><rect class="cls-3" x="22.51" y="30" width="435.66" height="436" rx="175" ry="175"/><g><rect class="cls-1" x="23.49" y="66.8" width="439.26" height="96.3"/><g><rect class="cls-9" x="20.84" y="67.3" width="49.31" height="340.83"/><path class="cls-9" d="M69.65,67.8V407.63H21.34V67.8h48.31m1-1H20.34V408.63h50.31V66.8h0Z"/></g><g><path class="cls-6" d="M45.46,111.4v-1.07l11.92-6.86-3.06-1.77-8.86,5.1v-1.07l11.85-6.83-3.06-1.77-8.79,5.06v-1.07l11.96-6.89-11.96-6.88-11.9,6.88v13.77l11.9,6.88,11.96-6.88-3.04-1.75-8.92,5.14Z"/><g class="cls-2"><rect class="cls-6" x="29.89" y="81.03" width="26.67" height="37.63" transform="translate(-64.97 88.37) rotate(-60.54)"/></g></g></g><g><path d="M90.95,246.53c-.7,0-1.33-.14-1.9-.42-.57-.28-1.02-.7-1.36-1.27-.34-.57-.5-1.27-.5-2.12,0-.63,.1-1.18,.3-1.67,.2-.49,.47-.9,.82-1.23,.34-.34,.74-.59,1.19-.76,.45-.17,.92-.26,1.42-.26,.55,0,1.03,.1,1.43,.29,.41,.19,.74,.43,1,.69l-1.03,1.26c-.18-.16-.38-.29-.58-.4-.2-.1-.45-.16-.75-.16-.5,0-.93,.19-1.26,.57-.34,.38-.5,.91-.5,1.59s.16,1.23,.48,1.61c.32,.38,.81,.57,1.47,.57,.11,0,.21-.01,.32-.03,.1-.02,.19-.06,.26-.1v-1.03h-1.1v-1.61h2.84v3.56c-.26,.25-.61,.47-1.06,.65-.45,.18-.94,.27-1.46,.27Z"/><path d="M97.99,246.53c-.56,0-1.06-.12-1.51-.36-.45-.24-.8-.58-1.06-1.03-.26-.45-.39-.99-.39-1.62s.13-1.15,.4-1.6c.26-.45,.61-.79,1.03-1.04,.42-.24,.86-.37,1.33-.37,.57,0,1.03,.12,1.41,.37,.37,.25,.65,.58,.83,1,.18,.42,.27,.89,.27,1.4,0,.17,0,.33-.03,.49-.02,.16-.04,.27-.05,.34h-3.27c.09,.34,.26,.58,.49,.72,.24,.13,.52,.2,.84,.2,.37,0,.76-.12,1.17-.34l.64,1.17c-.31,.21-.65,.38-1.03,.49-.38,.11-.73,.17-1.06,.17Zm-1.08-3.69h1.7c0-.22-.06-.42-.17-.58-.11-.16-.32-.25-.61-.25-.21,0-.41,.07-.57,.2s-.28,.34-.34,.63Z"/><path d="M104.19,246.53c-.74,0-1.28-.22-1.61-.65-.33-.43-.5-1-.5-1.69v-2h-.76v-1.47l.87-.07,.23-1.49h1.63v1.49h1.31v1.54h-1.31v1.96c0,.31,.07,.53,.21,.65,.14,.12,.3,.18,.48,.18,.09,0,.18,0,.27-.03,.09-.02,.17-.04,.24-.06l.3,1.42c-.15,.05-.33,.09-.55,.14s-.49,.07-.8,.07Z"/><path d="M109.12,246.53c-.74,0-1.28-.22-1.61-.65-.33-.43-.5-1-.5-1.69v-2h-.76v-1.47l.87-.07,.23-1.49h1.63v1.49h1.31v1.54h-1.31v1.96c0,.31,.07,.53,.21,.65,.14,.12,.3,.18,.48,.18,.09,0,.18,0,.27-.03,.09-.02,.17-.04,.24-.06l.3,1.42c-.15,.05-.33,.09-.55,.14s-.49,.07-.8,.07Z"/><path d="M112.91,239.94c-.32,0-.58-.09-.78-.27s-.3-.42-.3-.72,.1-.54,.3-.72,.46-.27,.78-.27,.58,.09,.78,.27c.2,.18,.3,.42,.3,.72s-.1,.54-.3,.72c-.2,.18-.46,.27-.78,.27Zm-.99,6.45v-5.74h1.97v5.74h-1.97Z"/><path d="M115.8,246.39v-5.74h1.61l.14,.69h.05c.23-.22,.49-.41,.79-.58,.29-.16,.64-.25,1.03-.25,.63,0,1.09,.21,1.37,.64,.28,.42,.42,.99,.42,1.7v3.53h-1.97v-3.28c0-.37-.05-.61-.14-.73s-.24-.18-.44-.18c-.18,0-.34,.04-.46,.11-.12,.08-.26,.18-.41,.32v3.76h-1.97Z"/><path d="M125.14,248.75c-.44,0-.84-.05-1.21-.14s-.66-.25-.88-.45c-.22-.21-.33-.48-.33-.83,0-.45,.27-.82,.8-1.1v-.05c-.15-.11-.27-.24-.37-.4-.1-.16-.16-.35-.16-.59,0-.2,.06-.39,.18-.58,.12-.19,.27-.36,.46-.49v-.05c-.21-.14-.39-.33-.54-.59-.16-.26-.24-.55-.24-.88,0-.47,.12-.87,.35-1.18,.23-.31,.54-.54,.91-.69,.38-.15,.77-.22,1.19-.22,.34,0,.64,.05,.92,.14h2.13v1.42h-.83c.02,.07,.04,.16,.06,.26,.02,.11,.03,.22,.03,.33,0,.45-.1,.82-.31,1.1-.21,.28-.49,.48-.84,.61s-.74,.2-1.17,.2c-.19,0-.41-.03-.64-.08-.09,.08-.14,.2-.14,.33,0,.12,.06,.21,.19,.26,.13,.05,.33,.08,.61,.08h.86c.72,0,1.28,.12,1.67,.35,.39,.23,.59,.61,.59,1.14,0,.41-.14,.78-.41,1.09s-.66,.56-1.15,.73-1.09,.26-1.77,.26Zm.32-1.22c.32,0,.59-.05,.8-.14s.32-.22,.32-.38c0-.15-.07-.25-.2-.29-.13-.04-.32-.06-.57-.06h-.45c-.23,0-.4,0-.52-.02-.12-.01-.22-.03-.3-.05-.14,.14-.21,.28-.21,.41,0,.18,.11,.32,.32,.4,.21,.08,.48,.13,.81,.13Zm-.14-4.13c.18,0,.33-.06,.45-.19,.11-.13,.17-.33,.17-.61s-.06-.46-.17-.59c-.12-.13-.26-.19-.45-.19s-.33,.06-.45,.19c-.12,.13-.17,.32-.17,.59s.06,.48,.17,.61c.11,.13,.26,.19,.45,.19Z"/><path d="M135.28,246.53c-.47,0-.95-.09-1.46-.26s-.96-.44-1.37-.8l1.12-1.35c.27,.21,.56,.39,.87,.52,.31,.13,.6,.2,.88,.2,.3,0,.51-.05,.65-.14s.2-.22,.2-.39-.09-.31-.27-.4c-.18-.09-.43-.2-.74-.32l-.93-.39c-.4-.16-.75-.41-1.05-.76-.3-.34-.45-.78-.45-1.32,0-.43,.12-.82,.36-1.16s.56-.63,.98-.84c.42-.21,.9-.32,1.44-.32,.43,0,.86,.08,1.3,.25,.44,.16,.83,.42,1.18,.75l-.99,1.24c-.25-.18-.5-.31-.73-.4-.23-.09-.49-.14-.76-.14-.24,0-.43,.04-.57,.13-.14,.08-.21,.21-.21,.38s.1,.31,.3,.41c.2,.1,.47,.21,.8,.34l.91,.36c.47,.18,.83,.44,1.08,.77,.25,.33,.38,.75,.38,1.27,0,.42-.11,.81-.34,1.18-.23,.36-.56,.66-.99,.88-.44,.22-.96,.33-1.58,.33Z"/><path d="M141.82,246.53c-.74,0-1.28-.22-1.61-.65-.33-.43-.5-1-.5-1.69v-2h-.76v-1.47l.87-.07,.23-1.49h1.63v1.49h1.31v1.54h-1.31v1.96c0,.31,.07,.53,.21,.65,.14,.12,.3,.18,.48,.18,.09,0,.18,0,.27-.03,.09-.02,.17-.04,.24-.06l.3,1.42c-.15,.05-.33,.09-.55,.14s-.49,.07-.8,.07Z"/><path d="M145.88,246.53c-.36,0-.67-.08-.92-.25-.26-.16-.45-.38-.59-.65-.14-.27-.21-.56-.21-.87,0-.6,.25-1.07,.73-1.41,.49-.34,1.29-.57,2.39-.68-.05-.4-.31-.6-.8-.6-.21,0-.42,.04-.65,.12-.23,.08-.49,.2-.79,.36l-.69-1.29c.41-.25,.82-.43,1.23-.56s.85-.2,1.29-.2c.75,0,1.33,.21,1.76,.64,.42,.42,.63,1.11,.63,2.05v3.19h-1.61l-.14-.55h-.05c-.23,.21-.47,.37-.73,.5s-.54,.19-.85,.19Zm.69-1.51c.16,0,.29-.04,.4-.11,.11-.07,.21-.17,.31-.28v-.78c-.47,.07-.79,.17-.97,.31s-.27,.29-.27,.45c0,.28,.18,.41,.53,.41Z"/><path d="M151.12,246.39v-5.74h1.61l.14,.99h.05c.21-.39,.47-.67,.76-.85,.29-.18,.58-.27,.87-.27,.18,0,.32,0,.43,.03,.11,.02,.21,.05,.28,.09l-.32,1.7c-.1-.02-.2-.04-.3-.06-.1-.02-.21-.03-.34-.03-.21,0-.42,.07-.65,.21s-.41,.39-.54,.75v3.19h-1.97Z"/><path d="M158.85,246.53c-.74,0-1.28-.22-1.61-.65-.33-.43-.5-1-.5-1.69v-2h-.76v-1.47l.87-.07,.23-1.49h1.63v1.49h1.31v1.54h-1.31v1.96c0,.31,.07,.53,.21,.65,.14,.12,.3,.18,.48,.18,.09,0,.18,0,.27-.03,.09-.02,.17-.04,.24-.06l.3,1.42c-.15,.05-.33,.09-.55,.14s-.49,.07-.8,.07Z"/><path d="M164.08,246.53c-.56,0-1.06-.12-1.51-.36-.45-.24-.8-.58-1.06-1.03-.26-.45-.39-.99-.39-1.62s.13-1.15,.4-1.6c.26-.45,.61-.79,1.03-1.04,.42-.24,.86-.37,1.33-.37,.57,0,1.03,.12,1.41,.37,.37,.25,.65,.58,.83,1,.18,.42,.27,.89,.27,1.4,0,.17,0,.33-.03,.49-.02,.16-.04,.27-.05,.34h-3.27c.09,.34,.26,.58,.49,.72,.24,.13,.52,.2,.84,.2,.37,0,.76-.12,1.17-.34l.64,1.17c-.31,.21-.65,.38-1.03,.49-.38,.11-.73,.17-1.06,.17Zm-1.08-3.69h1.7c0-.22-.06-.42-.17-.58-.11-.16-.32-.25-.61-.25-.21,0-.41,.07-.57,.2s-.28,.34-.34,.63Z"/><path d="M170.12,246.53c-.71,0-1.28-.27-1.7-.81-.42-.54-.64-1.27-.64-2.2,0-.63,.11-1.17,.34-1.61,.23-.45,.52-.79,.88-1.03,.36-.24,.73-.36,1.12-.36,.31,0,.57,.05,.77,.16,.2,.1,.39,.24,.56,.42l-.07-.83v-1.86h1.97v7.99h-1.61l-.14-.53h-.05c-.19,.19-.42,.35-.68,.48s-.52,.19-.77,.19Zm.53-1.61c.15,0,.29-.03,.41-.09,.12-.06,.23-.17,.33-.33v-2.11c-.11-.11-.24-.18-.38-.22s-.27-.06-.4-.06c-.21,0-.39,.1-.56,.31-.16,.21-.25,.56-.25,1.07s.08,.88,.23,1.1c.15,.22,.36,.33,.62,.33Z"/></g><g><path d="M87.63,281.4v-7.5h4.52v1.12h-3.19v1.92h2.7v1.12h-2.7v2.21h3.3v1.12h-4.64Z"/><path d="M93.15,281.4l1.79-2.94-1.67-2.7h1.42l.63,1.07c.08,.15,.17,.31,.26,.48,.09,.17,.17,.32,.26,.48h.05c.07-.15,.14-.31,.22-.48,.08-.16,.15-.32,.22-.48l.54-1.07h1.37l-1.66,2.85,1.79,2.79h-1.42l-.69-1.11c-.09-.17-.19-.34-.28-.5-.1-.17-.19-.33-.29-.49h-.05c-.08,.16-.16,.32-.24,.49-.08,.16-.17,.33-.25,.51l-.6,1.11h-1.38Z"/><path d="M101.17,281.54c-.49,0-.89-.15-1.2-.46s-.46-.7-.46-1.19c0-.6,.26-1.07,.79-1.41,.53-.33,1.37-.56,2.52-.68,0-.3-.09-.56-.24-.77s-.42-.33-.8-.33c-.28,0-.54,.05-.81,.16-.26,.11-.52,.24-.77,.39l-.48-.88c.31-.2,.67-.37,1.06-.52,.39-.14,.81-.22,1.26-.22,.7,0,1.23,.21,1.58,.63,.35,.42,.52,1.02,.52,1.81v3.34h-1.09l-.09-.62h-.05c-.25,.21-.52,.39-.81,.54-.29,.14-.6,.22-.93,.22Zm.42-1.03c.23,0,.44-.06,.62-.17,.19-.11,.39-.26,.6-.45v-1.26c-.77,.1-1.3,.25-1.59,.44-.3,.2-.45,.43-.45,.72,0,.25,.08,.44,.23,.55,.15,.12,.35,.17,.59,.17Z"/><path d="M106.3,281.4v-5.63h1.09l.09,.77h.05c.24-.25,.5-.47,.77-.64,.28-.18,.59-.26,.95-.26,.41,0,.74,.09,.99,.27,.25,.18,.44,.43,.57,.74,.27-.29,.55-.53,.84-.72,.29-.19,.62-.29,.97-.29,.6,0,1.04,.2,1.32,.58,.28,.39,.42,.94,.42,1.65v3.53h-1.33v-3.36c0-.47-.07-.8-.21-.99s-.36-.29-.65-.29c-.35,0-.75,.23-1.18,.7v3.94h-1.32v-3.36c0-.47-.07-.8-.21-.99-.14-.19-.36-.29-.66-.29-.35,0-.75,.23-1.18,.7v3.94h-1.32Z"/><path d="M116.55,283.62v-7.86h1.09l.09,.6h.05c.24-.2,.5-.37,.8-.52,.29-.14,.59-.22,.9-.22,.7,0,1.25,.26,1.63,.78,.39,.52,.58,1.22,.58,2.09,0,.64-.11,1.19-.34,1.65-.23,.46-.53,.8-.89,1.04-.36,.24-.75,.36-1.18,.36-.25,0-.49-.06-.73-.17-.25-.11-.48-.26-.71-.45l.03,.94v1.77h-1.32Zm2.46-3.18c.38,0,.69-.17,.94-.49,.25-.33,.38-.81,.38-1.45,0-.57-.1-1.01-.29-1.32-.19-.31-.5-.47-.93-.47-.4,0-.81,.21-1.24,.63v2.63c.21,.17,.41,.29,.6,.36,.19,.07,.37,.11,.54,.11Z"/><path d="M124.88,281.54c-.47,0-.8-.14-.99-.42-.19-.28-.29-.67-.29-1.16v-6.66h1.32v6.72c0,.16,.03,.27,.09,.34,.06,.06,.13,.1,.2,.1,.03,0,.06,0,.09,0l.12-.02,.17,.99c-.08,.03-.17,.06-.29,.08-.12,.02-.25,.03-.41,.03Z"/><path d="M129.68,281.54c-.52,0-.99-.12-1.41-.35-.42-.23-.75-.57-1-1.01-.25-.44-.37-.97-.37-1.59s.12-1.14,.37-1.58c.25-.44,.57-.78,.97-1.02,.4-.24,.82-.36,1.25-.36,.51,0,.94,.11,1.29,.34,.34,.23,.6,.54,.78,.94s.26,.87,.26,1.39c0,.28-.02,.49-.06,.64h-3.58c.06,.5,.24,.88,.54,1.16,.3,.28,.67,.41,1.12,.41,.25,0,.47-.04,.68-.11,.21-.07,.42-.17,.63-.3l.45,.83c-.27,.18-.57,.32-.9,.44-.33,.11-.67,.17-1.03,.17Zm-1.5-3.49h2.5c0-.44-.1-.78-.29-1.03-.19-.25-.48-.37-.86-.37-.33,0-.62,.12-.88,.36-.26,.24-.42,.59-.48,1.04Z"/><path d="M135.24,281.54c-.38,0-.76-.07-1.15-.22-.38-.15-.71-.33-.99-.56l.62-.85c.25,.19,.5,.34,.76,.46,.25,.11,.52,.17,.8,.17,.31,0,.53-.07,.68-.2,.15-.13,.22-.29,.22-.48,0-.16-.06-.29-.18-.4-.12-.1-.27-.19-.45-.28-.18-.08-.38-.16-.57-.24-.25-.09-.49-.2-.73-.34s-.44-.31-.59-.52c-.15-.21-.23-.47-.23-.79,0-.5,.18-.9,.55-1.22s.86-.47,1.49-.47c.4,0,.75,.07,1.07,.21s.58,.29,.81,.47l-.61,.8c-.2-.15-.4-.26-.6-.35-.2-.09-.42-.13-.64-.13-.28,0-.49,.06-.63,.18-.14,.12-.21,.27-.21,.44,0,.22,.11,.39,.34,.5,.23,.11,.5,.23,.8,.33,.26,.09,.51,.2,.76,.34s.45,.31,.61,.52c.16,.21,.25,.5,.25,.85,0,.48-.19,.89-.56,1.23-.38,.34-.92,.51-1.63,.51Z"/></g><g><path d="M90.63,316.52c-.63,0-1.2-.15-1.71-.45-.51-.3-.92-.74-1.22-1.31-.3-.58-.45-1.28-.45-2.11s.15-1.52,.46-2.11c.31-.59,.72-1.03,1.24-1.34,.52-.31,1.09-.46,1.72-.46,.47,0,.89,.1,1.26,.29s.67,.41,.91,.67l-.71,.86c-.19-.2-.4-.36-.64-.48s-.5-.18-.79-.18c-.41,0-.77,.11-1.08,.33-.32,.22-.57,.53-.75,.93s-.27,.89-.27,1.46c0,.86,.19,1.53,.56,2.01,.37,.49,.88,.73,1.5,.73,.34,0,.63-.07,.89-.21s.5-.33,.71-.56l.71,.84c-.31,.35-.66,.62-1.05,.81-.39,.19-.83,.28-1.31,.28Z"/><path d="M97.01,316.52c-.47,0-.9-.12-1.31-.35-.41-.23-.73-.57-.99-1.01-.25-.44-.38-.97-.38-1.59s.13-1.16,.38-1.6c.25-.44,.58-.78,.99-1.01s.84-.35,1.31-.35,.91,.12,1.32,.35,.73,.57,.99,1.01c.25,.44,.38,.97,.38,1.6s-.13,1.15-.38,1.59c-.25,.44-.58,.78-.99,1.01-.41,.23-.84,.35-1.32,.35Zm0-1.08c.41,0,.74-.17,.98-.52,.24-.34,.36-.8,.36-1.35s-.12-1.02-.36-1.37c-.24-.34-.56-.52-.98-.52s-.74,.17-.97,.52c-.23,.34-.35,.8-.35,1.37s.12,1.01,.35,1.35c.23,.34,.56,.52,.97,.52Z"/><path d="M101.57,316.38v-5.63h1.09l.09,.76h.05c.25-.25,.53-.46,.83-.63,.3-.18,.64-.26,1.02-.26,.6,0,1.04,.2,1.32,.58,.28,.39,.41,.94,.41,1.65v3.53h-1.32v-3.36c0-.47-.07-.8-.21-.99s-.36-.29-.68-.29c-.25,0-.46,.06-.65,.18-.19,.12-.4,.29-.64,.52v3.94h-1.32Z"/><path d="M110.56,316.52c-.65,0-1.11-.19-1.38-.57-.27-.38-.41-.87-.41-1.47v-2.69h-.8v-.99l.87-.06,.16-1.54h1.1v1.54h1.43v1.04h-1.43v2.69c0,.66,.26,.99,.79,.99,.1,0,.2-.01,.31-.04s.2-.06,.28-.09l.23,.98c-.15,.05-.33,.1-.52,.14-.2,.04-.4,.06-.63,.06Z"/><path d="M113.29,316.38v-5.63h1.09l.09,1h.05c.2-.37,.44-.65,.72-.84s.57-.29,.87-.29c.27,0,.48,.04,.64,.12l-.23,1.15c-.1-.03-.19-.05-.28-.07-.08-.01-.19-.02-.31-.02-.22,0-.46,.09-.7,.26s-.46,.47-.63,.9v3.44h-1.32Z"/><path d="M118.81,309.76c-.24,0-.43-.07-.57-.21-.15-.14-.22-.32-.22-.55s.07-.4,.22-.54c.14-.14,.34-.21,.57-.21s.43,.07,.57,.21c.14,.14,.22,.32,.22,.54s-.07,.41-.22,.55c-.15,.14-.34,.21-.57,.21Zm-.67,6.62v-5.63h1.32v5.63h-1.32Z"/><path d="M124.45,316.52c-.54,0-1.05-.25-1.54-.73h-.04l-.11,.6h-1.04v-8.1h1.32v2.09l-.03,.94c.24-.21,.5-.38,.78-.5,.28-.13,.57-.2,.85-.2,.7,0,1.25,.26,1.64,.78,.39,.52,.58,1.21,.58,2.08,0,.64-.11,1.19-.34,1.65s-.53,.8-.89,1.04-.75,.36-1.18,.36Zm-.28-1.09c.38,0,.69-.17,.94-.49,.25-.33,.38-.81,.38-1.45,0-.57-.1-1.01-.29-1.32-.19-.31-.5-.47-.93-.47-.4,0-.81,.21-1.24,.63v2.63c.2,.17,.4,.29,.59,.36,.2,.07,.38,.11,.54,.11Z"/><path d="M130.43,316.52c-.6,0-1.04-.2-1.32-.58-.28-.39-.41-.94-.41-1.65v-3.53h1.32v3.36c0,.47,.07,.79,.21,.99s.36,.29,.67,.29c.25,0,.46-.06,.65-.18s.39-.32,.6-.6v-3.86h1.32v5.63h-1.08l-.1-.83h-.04c-.24,.29-.51,.52-.8,.7s-.63,.26-1.01,.26Z"/><path d="M137.69,316.52c-.65,0-1.11-.19-1.38-.57-.27-.38-.41-.87-.41-1.47v-2.69h-.8v-.99l.87-.06,.16-1.54h1.1v1.54h1.43v1.04h-1.43v2.69c0,.66,.26,.99,.79,.99,.1,0,.2-.01,.31-.04s.2-.06,.28-.09l.23,.98c-.15,.05-.33,.1-.52,.14-.2,.04-.4,.06-.63,.06Z"/><path d="M141.09,309.76c-.24,0-.43-.07-.57-.21-.15-.14-.22-.32-.22-.55s.07-.4,.22-.54c.14-.14,.34-.21,.57-.21s.43,.07,.57,.21c.14,.14,.22,.32,.22,.54s-.07,.41-.22,.55c-.15,.14-.34,.21-.57,.21Zm-.67,6.62v-5.63h1.32v5.63h-1.32Z"/><path d="M144,316.38v-5.63h1.09l.09,.76h.05c.25-.25,.53-.46,.83-.63,.3-.18,.64-.26,1.02-.26,.6,0,1.04,.2,1.32,.58,.28,.39,.41,.94,.41,1.65v3.53h-1.32v-3.36c0-.47-.07-.8-.21-.99s-.36-.29-.68-.29c-.25,0-.46,.06-.65,.18-.19,.12-.4,.29-.64,.52v3.94h-1.32Z"/><path d="M152.96,318.87c-.44,0-.84-.05-1.2-.16s-.63-.27-.84-.49c-.2-.22-.3-.49-.3-.82,0-.47,.27-.87,.8-1.21v-.05c-.14-.09-.27-.21-.36-.37s-.14-.34-.14-.57,.06-.42,.19-.6c.13-.18,.27-.33,.43-.44v-.05c-.19-.14-.36-.35-.51-.61s-.22-.55-.22-.88c0-.44,.1-.8,.31-1.1,.21-.3,.48-.53,.82-.68,.34-.16,.71-.24,1.1-.24,.15,0,.3,.01,.44,.04,.14,.03,.27,.06,.38,.1h2.02v.98h-1.03c.09,.11,.17,.24,.23,.41,.06,.17,.09,.35,.09,.54,0,.41-.1,.76-.29,1.05s-.45,.5-.77,.65-.68,.22-1.08,.22c-.12,0-.25-.01-.38-.03-.13-.02-.26-.06-.39-.12-.08,.08-.15,.15-.2,.23-.05,.08-.07,.18-.07,.31,0,.16,.07,.29,.2,.38s.37,.14,.72,.14h1c.68,0,1.2,.11,1.54,.33,.35,.22,.52,.57,.52,1.06,0,.37-.12,.7-.37,1-.25,.3-.59,.54-1.04,.72s-.98,.26-1.59,.26Zm.21-.86c.45,0,.82-.09,1.1-.28s.42-.39,.42-.63c0-.22-.09-.37-.26-.45-.17-.08-.42-.12-.74-.12h-.77c-.31,0-.56-.03-.77-.08-.29,.22-.44,.47-.44,.75,0,.25,.13,.45,.39,.59,.26,.14,.61,.21,1.06,.21Zm-.14-4.25c.27,0,.5-.1,.69-.3s.29-.48,.29-.84-.09-.62-.28-.82-.42-.29-.69-.29-.51,.1-.7,.29c-.19,.19-.29,.47-.29,.83s.1,.64,.29,.84c.19,.2,.42,.3,.7,.3Z"/></g><g><path class="cls-4" d="M90.99,137.18c-1.17,0-2.09-.37-2.78-1.12s-1.03-1.66-1.03-2.74c0-1.34,.57-2.38,1.7-3.14,1.13-.75,2.96-1.26,5.47-1.52-.04-.57-.2-1.02-.5-1.35-.3-.33-.8-.5-1.5-.5-.53,0-1.07,.1-1.62,.31-.55,.21-1.13,.49-1.75,.85l-1.36-2.49c.8-.5,1.67-.9,2.58-1.21s1.87-.46,2.87-.46c1.63,0,2.88,.47,3.75,1.41,.87,.94,1.31,2.39,1.31,4.34v7.3h-3.08l-.26-1.31h-.1c-.53,.48-1.1,.87-1.71,1.17-.61,.3-1.27,.45-1.99,.45Zm1.29-2.93c.43,0,.8-.1,1.12-.29,.32-.2,.64-.46,.96-.78v-2.24c-1.34,.17-2.26,.44-2.78,.81-.51,.37-.77,.8-.77,1.3,0,.41,.13,.72,.4,.91,.26,.2,.62,.29,1.07,.29Z"/><path class="cls-4" d="M105.41,137.18c-1.39,0-2.4-.46-3.02-1.38-.63-.92-.94-2.17-.94-3.77v-7.92h3.78v7.43c0,.91,.13,1.54,.39,1.89,.26,.35,.66,.53,1.21,.53,.48,0,.88-.11,1.21-.33s.68-.58,1.05-1.08v-8.43h3.78v12.75h-3.08l-.28-1.77h-.08c-.53,.63-1.11,1.14-1.75,1.52-.63,.38-1.39,.57-2.26,.57Z"/><path class="cls-4" d="M121.34,137.18c-1.58,0-2.7-.45-3.38-1.36-.68-.91-1.02-2.1-1.02-3.57v-5.17h-1.75v-2.8l1.95-.15,.44-3.39h3.14v3.39h3.06v2.96h-3.06v5.12c0,.72,.15,1.24,.45,1.55,.3,.32,.7,.48,1.2,.48,.21,0,.42-.03,.63-.08,.21-.05,.41-.11,.58-.18l.59,2.75c-.33,.1-.72,.21-1.2,.31s-1.01,.15-1.63,.15Z"/><path class="cls-4" d="M126.54,136.88v-18.02h3.78v4.42l-.18,2.29c.48-.43,1.04-.83,1.68-1.2,.64-.37,1.39-.55,2.25-.55,1.39,0,2.39,.46,3.02,1.38,.63,.92,.94,2.17,.94,3.77v7.92h-3.78v-7.43c0-.92-.12-1.56-.37-1.9s-.65-.51-1.2-.51c-.48,0-.89,.11-1.23,.32-.34,.21-.72,.52-1.13,.91v8.61h-3.78Z"/><path class="cls-4" d="M140.9,131.71v-2.67h6.32v2.67h-6.32Z"/><path class="cls-4" d="M154.6,137.18c-1.58,0-2.7-.45-3.38-1.36-.68-.91-1.02-2.1-1.02-3.57v-5.17h-1.75v-2.8l1.95-.15,.44-3.39h3.14v3.39h3.06v2.96h-3.06v5.12c0,.72,.15,1.24,.45,1.55,.3,.32,.7,.48,1.2,.48,.21,0,.42-.03,.63-.08,.21-.05,.41-.11,.58-.18l.59,2.75c-.33,.1-.72,.21-1.2,.31s-1.01,.15-1.63,.15Z"/><path class="cls-4" d="M165.04,137.18c-1.22,0-2.31-.27-3.29-.8s-1.75-1.29-2.31-2.29c-.57-.99-.85-2.19-.85-3.6s.29-2.58,.86-3.57c.57-.99,1.32-1.76,2.25-2.3,.93-.54,1.89-.81,2.9-.81,1.22,0,2.22,.27,3.02,.81,.8,.54,1.4,1.27,1.8,2.19,.4,.92,.6,1.96,.6,3.12,0,.33-.02,.65-.05,.96-.03,.32-.07,.55-.1,.71h-7.63c.17,.93,.56,1.61,1.16,2.04,.6,.44,1.32,.66,2.16,.66,.91,0,1.83-.28,2.75-.85l1.26,2.29c-.65,.45-1.38,.8-2.18,1.05s-1.58,.39-2.34,.39Zm-2.83-8.07h4.6c0-.7-.17-1.28-.5-1.73s-.88-.68-1.63-.68c-.58,0-1.1,.2-1.57,.6s-.76,1.01-.9,1.81Z"/><path class="cls-4" d="M176.66,137.18c-.84,0-1.7-.16-2.58-.49s-1.65-.75-2.3-1.29l1.7-2.37c.58,.43,1.14,.76,1.68,.99s1.08,.35,1.61,.35c.57,0,.98-.1,1.23-.3,.26-.2,.39-.46,.39-.78,0-.29-.12-.53-.37-.72-.25-.19-.57-.36-.96-.53-.39-.16-.81-.33-1.26-.5-.51-.21-1.02-.46-1.53-.77-.51-.31-.93-.71-1.27-1.2s-.51-1.08-.51-1.79c0-1.18,.45-2.14,1.35-2.88,.9-.74,2.08-1.11,3.53-1.11,.98,0,1.84,.17,2.58,.5,.75,.33,1.38,.71,1.92,1.12l-1.7,2.26c-.45-.34-.89-.61-1.34-.8-.45-.19-.89-.28-1.34-.28-.98,0-1.46,.33-1.46,1,0,.41,.24,.72,.73,.94,.49,.21,1.06,.44,1.71,.68,.55,.19,1.08,.43,1.61,.73s.96,.69,1.31,1.18,.53,1.13,.53,1.92c0,1.15-.45,2.12-1.34,2.92s-2.19,1.2-3.91,1.2Z"/><path class="cls-4" d="M188.94,137.18c-1.58,0-2.7-.45-3.38-1.36-.68-.91-1.02-2.1-1.02-3.57v-5.17h-1.75v-2.8l1.95-.15,.44-3.39h3.14v3.39h3.06v2.96h-3.06v5.12c0,.72,.15,1.24,.45,1.55,.3,.32,.7,.48,1.2,.48,.21,0,.42-.03,.63-.08,.21-.05,.41-.11,.58-.18l.59,2.75c-.33,.1-.72,.21-1.2,.31s-1.01,.15-1.63,.15Z"/><path class="cls-4" d="M192.65,131.71v-2.67h6.32v2.67h-6.32Z"/><path class="cls-4" d="M205.83,137.18c-1.39,0-2.4-.46-3.02-1.38-.63-.92-.94-2.17-.94-3.77v-7.92h3.78v7.43c0,.91,.13,1.54,.39,1.89,.26,.35,.66,.53,1.21,.53,.48,0,.88-.11,1.21-.33s.68-.58,1.05-1.08v-8.43h3.78v12.75h-3.08l-.28-1.77h-.08c-.53,.63-1.11,1.14-1.75,1.52-.63,.38-1.39,.57-2.26,.57Z"/><path class="cls-4" d="M221.77,137.18c-1.58,0-2.7-.45-3.38-1.36-.68-.91-1.02-2.1-1.02-3.57v-5.17h-1.75v-2.8l1.95-.15,.44-3.39h3.14v3.39h3.06v2.96h-3.06v5.12c0,.72,.15,1.24,.45,1.55,.3,.32,.7,.48,1.2,.48,.21,0,.42-.03,.63-.08,.21-.05,.41-.11,.58-.18l.59,2.75c-.33,.1-.72,.21-1.2,.31s-1.01,.15-1.63,.15Z"/><path class="cls-4" d="M228.83,122.25c-.63,0-1.15-.18-1.54-.54-.39-.36-.59-.84-.59-1.44s.2-1.08,.59-1.44c.39-.36,.91-.54,1.54-.54s1.15,.18,1.54,.54c.39,.36,.59,.84,.59,1.44s-.2,1.08-.59,1.44c-.39,.36-.91,.54-1.54,.54Zm-1.88,14.62v-12.75h3.78v12.75h-3.78Z"/><path class="cls-4" d="M237.78,137.18c-1.3,0-2.21-.39-2.71-1.17-.51-.78-.76-1.81-.76-3.1v-14.06h3.78v14.21c0,.39,.07,.67,.22,.82,.14,.15,.29,.23,.45,.23,.09,0,.16,0,.22-.01,.06,0,.14-.02,.24-.04l.46,2.8c-.21,.09-.47,.16-.78,.22-.32,.06-.69,.09-1.12,.09Z"/><path class="cls-4" d="M245.67,137.18c-.84,0-1.7-.16-2.58-.49s-1.65-.75-2.3-1.29l1.7-2.37c.58,.43,1.14,.76,1.68,.99s1.08,.35,1.61,.35c.57,0,.98-.1,1.23-.3,.26-.2,.39-.46,.39-.78,0-.29-.12-.53-.37-.72-.25-.19-.57-.36-.96-.53-.39-.16-.81-.33-1.26-.5-.51-.21-1.02-.46-1.53-.77-.51-.31-.93-.71-1.27-1.2s-.51-1.08-.51-1.79c0-1.18,.45-2.14,1.35-2.88,.9-.74,2.08-1.11,3.53-1.11,.98,0,1.84,.17,2.58,.5,.75,.33,1.38,.71,1.92,1.12l-1.7,2.26c-.45-.34-.89-.61-1.34-.8-.45-.19-.89-.28-1.34-.28-.98,0-1.46,.33-1.46,1,0,.41,.24,.72,.73,.94,.49,.21,1.06,.44,1.71,.68,.55,.19,1.08,.43,1.61,.73s.96,.69,1.31,1.18,.53,1.13,.53,1.92c0,1.15-.45,2.12-1.34,2.92s-2.19,1.2-3.91,1.2Z"/></g><g><path class="cls-4" d="M87.76,99.01v-12.04h3.01c1.86,0,3.27,.52,4.24,1.55s1.45,2.51,1.45,4.42-.48,3.41-1.44,4.48c-.96,1.06-2.35,1.6-4.18,1.6h-3.08Zm1.52-1.25h1.38c1.41,0,2.46-.43,3.17-1.28,.7-.85,1.06-2.03,1.06-3.55s-.35-2.68-1.06-3.5c-.7-.81-1.76-1.22-3.17-1.22h-1.38v9.55Z"/><path class="cls-4" d="M102.55,99.23c-.72,0-1.4-.18-2.03-.55s-1.14-.9-1.52-1.6c-.39-.7-.58-1.54-.58-2.51s.19-1.85,.58-2.55c.39-.7,.89-1.23,1.52-1.6s1.31-.55,2.03-.55,1.41,.18,2.04,.55,1.13,.9,1.51,1.6c.39,.7,.58,1.55,.58,2.55s-.19,1.82-.58,2.51c-.39,.7-.89,1.23-1.51,1.6s-1.3,.55-2.04,.55Zm0-1.25c.77,0,1.39-.31,1.86-.95,.47-.63,.71-1.45,.71-2.47s-.24-1.86-.71-2.5c-.47-.64-1.09-.95-1.86-.95s-1.38,.32-1.85,.95c-.48,.64-.72,1.47-.72,2.5s.24,1.84,.72,2.47c.48,.63,1.09,.95,1.85,.95Z"/><path class="cls-4" d="M112.74,99.23c-.78,0-1.49-.18-2.13-.55s-1.14-.9-1.5-1.6c-.37-.7-.55-1.54-.55-2.51s.2-1.85,.6-2.55c.4-.7,.92-1.23,1.58-1.6,.66-.37,1.36-.55,2.12-.55,.59,0,1.09,.1,1.51,.31,.42,.21,.79,.45,1.09,.73l-.77,.99c-.26-.23-.53-.42-.82-.57-.29-.15-.61-.22-.96-.22-.54,0-1.02,.14-1.44,.43-.42,.29-.75,.69-.99,1.21-.24,.52-.36,1.12-.36,1.81,0,1.02,.25,1.84,.76,2.47,.51,.63,1.17,.95,1.99,.95,.42,0,.8-.09,1.16-.27,.35-.18,.67-.39,.94-.63l.66,1.01c-.4,.36-.85,.63-1.34,.83-.49,.2-1,.3-1.54,.3Z"/><path class="cls-4" d="M120.38,99.23c-.94,0-1.63-.3-2.07-.89-.44-.59-.66-1.46-.66-2.6v-5.65h1.52v5.45c0,.83,.13,1.44,.39,1.82,.26,.38,.69,.57,1.28,.57,.46,0,.88-.12,1.24-.36,.36-.24,.75-.62,1.17-1.15v-6.33h1.51v8.92h-1.25l-.13-1.4h-.05c-.42,.49-.86,.88-1.32,1.17-.46,.29-1,.44-1.62,.44Z"/><path class="cls-4" d="M127.94,99.01v-8.92h1.25l.13,1.29h.06c.39-.43,.82-.79,1.29-1.07,.46-.29,.96-.43,1.49-.43,.69,0,1.22,.15,1.61,.45s.67,.72,.85,1.26c.46-.5,.94-.91,1.41-1.23s.98-.48,1.52-.48c.92,0,1.6,.3,2.05,.89,.45,.59,.67,1.46,.67,2.6v5.65h-1.5v-5.45c0-.83-.13-1.44-.4-1.82-.27-.38-.69-.57-1.25-.57-.66,0-1.41,.46-2.24,1.38v6.46h-1.51v-5.45c0-.83-.13-1.44-.4-1.82-.27-.38-.69-.57-1.27-.57-.66,0-1.41,.46-2.24,1.38v6.46h-1.51Z"/><path class="cls-4" d="M146.96,99.23c-.8,0-1.52-.19-2.17-.56-.65-.37-1.16-.91-1.54-1.61-.38-.7-.57-1.53-.57-2.5s.19-1.82,.58-2.52c.39-.7,.88-1.24,1.5-1.62,.61-.38,1.25-.57,1.93-.57,1.14,0,2.02,.38,2.63,1.14s.93,1.77,.93,3.05c0,.16,0,.32,0,.47s-.02,.28-.05,.39h-6.02c.06,.94,.36,1.7,.89,2.26,.53,.56,1.23,.84,2.08,.84,.43,0,.82-.06,1.18-.19,.36-.13,.71-.3,1.04-.5l.53,.99c-.38,.24-.81,.46-1.29,.64s-1.03,.28-1.64,.28Zm-2.81-5.4h4.77c0-.91-.19-1.59-.58-2.07-.39-.47-.93-.71-1.62-.71-.62,0-1.18,.24-1.68,.73-.5,.48-.79,1.17-.89,2.05Z"/><path class="cls-4" d="M152.63,99.01v-8.92h1.25l.13,1.29h.06c.43-.43,.88-.79,1.36-1.07,.48-.29,1.02-.43,1.63-.43,.94,0,1.63,.3,2.07,.89,.43,.59,.65,1.46,.65,2.6v5.65h-1.5v-5.45c0-.83-.13-1.44-.4-1.82-.27-.38-.7-.57-1.29-.57-.45,0-.86,.12-1.22,.35s-.77,.58-1.22,1.03v6.46h-1.51Z"/><path class="cls-4" d="M165.67,99.23c-.96,0-1.62-.28-1.99-.83s-.56-1.27-.56-2.15v-4.94h-1.32v-1.14l1.4-.09,.18-2.5h1.27v2.5h2.41v1.23h-2.41v4.96c0,.55,.1,.98,.3,1.28s.56,.45,1.07,.45c.16,0,.33-.03,.51-.08,.18-.05,.35-.11,.5-.16l.29,1.14c-.25,.09-.51,.16-.8,.23-.29,.07-.57,.1-.85,.1Z"/><path class="cls-4" d="M170.92,99.23c-.75,0-1.37-.22-1.86-.67-.5-.45-.74-1.07-.74-1.86,0-.98,.44-1.73,1.31-2.25,.87-.52,2.26-.88,4.16-1.09,0-.38-.05-.74-.16-1.08-.1-.34-.29-.62-.55-.83-.26-.21-.64-.32-1.13-.32-.51,0-1,.1-1.45,.29-.45,.2-.86,.42-1.21,.66l-.59-1.05c.42-.27,.93-.53,1.53-.78s1.26-.38,1.97-.38c1.09,0,1.88,.33,2.37,1,.49,.67,.73,1.56,.73,2.67v5.47h-1.25l-.13-1.06h-.06c-.42,.34-.87,.64-1.37,.9s-1.03,.39-1.59,.39Zm.44-1.21c.43,0,.83-.1,1.21-.31,.38-.21,.78-.5,1.21-.88v-2.48c-1.48,.18-2.52,.46-3.11,.83s-.89,.84-.89,1.41c0,.5,.15,.87,.46,1.09s.68,.34,1.12,.34Z"/><path class="cls-4" d="M180.85,99.23c-.96,0-1.62-.28-1.99-.83s-.56-1.27-.56-2.15v-4.94h-1.32v-1.14l1.4-.09,.18-2.5h1.27v2.5h2.41v1.23h-2.41v4.96c0,.55,.1,.98,.3,1.28s.56,.45,1.07,.45c.16,0,.33-.03,.51-.08,.18-.05,.35-.11,.5-.16l.29,1.14c-.25,.09-.51,.16-.8,.23-.29,.07-.57,.1-.85,.1Z"/><path class="cls-4" d="M185.2,88.25c-.29,0-.54-.09-.73-.27-.19-.18-.28-.42-.28-.73s.09-.53,.28-.72c.19-.18,.43-.28,.73-.28s.54,.09,.73,.28c.19,.18,.28,.42,.28,.72s-.09,.55-.28,.73c-.19,.18-.43,.27-.73,.27Zm-.77,10.76v-8.92h1.51v8.92h-1.51Z"/><path class="cls-4" d="M192.6,99.23c-.72,0-1.4-.18-2.03-.55s-1.14-.9-1.52-1.6c-.39-.7-.58-1.54-.58-2.51s.19-1.85,.58-2.55c.39-.7,.89-1.23,1.52-1.6s1.31-.55,2.03-.55,1.41,.18,2.04,.55,1.13,.9,1.51,1.6c.39,.7,.58,1.55,.58,2.55s-.19,1.82-.58,2.51c-.39,.7-.89,1.23-1.51,1.6s-1.3,.55-2.04,.55Zm0-1.25c.77,0,1.39-.31,1.86-.95,.47-.63,.71-1.45,.71-2.47s-.24-1.86-.71-2.5c-.47-.64-1.09-.95-1.86-.95s-1.38,.32-1.85,.95c-.48,.64-.72,1.47-.72,2.5s.24,1.84,.72,2.47c.48,.63,1.09,.95,1.85,.95Z"/><path class="cls-4" d="M199.26,99.01v-8.92h1.25l.13,1.29h.06c.43-.43,.88-.79,1.36-1.07,.48-.29,1.02-.43,1.63-.43,.94,0,1.63,.3,2.07,.89,.43,.59,.65,1.46,.65,2.6v5.65h-1.5v-5.45c0-.83-.13-1.44-.4-1.82-.27-.38-.7-.57-1.29-.57-.45,0-.86,.12-1.22,.35s-.77,.58-1.22,1.03v6.46h-1.51Z"/><path class="cls-4" d="M212.02,101.95l4.9-15.97h1.1l-4.9,15.97h-1.1Z"/><path class="cls-4" d="M223.95,99.01v-12.04h1.52v12.04h-1.52Z"/><path class="cls-4" d="M231.87,99.23c-1.11,0-2.01-.41-2.68-1.22-.67-.81-1.01-1.96-1.01-3.44,0-.97,.18-1.8,.54-2.51s.84-1.25,1.43-1.62c.59-.38,1.23-.57,1.9-.57,.51,0,.96,.09,1.34,.28,.38,.18,.76,.43,1.16,.75l-.07-1.52v-3.43h1.52v13.07h-1.25l-.13-1.05h-.06c-.34,.34-.75,.64-1.21,.89-.47,.25-.96,.38-1.49,.38Zm.33-1.27c.78,0,1.54-.41,2.28-1.23v-4.66c-.38-.34-.74-.58-1.09-.72s-.71-.21-1.07-.21c-.48,0-.91,.14-1.29,.43-.39,.29-.7,.69-.93,1.19-.23,.51-.35,1.1-.35,1.79,0,1.06,.21,1.9,.64,2.51,.43,.61,1.03,.91,1.82,.91Z"/><path class="cls-4" d="M242.81,99.23c-.8,0-1.52-.19-2.17-.56-.65-.37-1.16-.91-1.54-1.61-.38-.7-.57-1.53-.57-2.5s.19-1.82,.58-2.52c.39-.7,.88-1.24,1.5-1.62,.61-.38,1.25-.57,1.93-.57,1.14,0,2.02,.38,2.63,1.14s.93,1.77,.93,3.05c0,.16,0,.32,0,.47s-.02,.28-.05,.39h-6.02c.06,.94,.36,1.7,.89,2.26,.53,.56,1.23,.84,2.08,.84,.43,0,.82-.06,1.18-.19,.36-.13,.71-.3,1.04-.5l.53,.99c-.38,.24-.81,.46-1.29,.64s-1.03,.28-1.64,.28Zm-2.81-5.4h4.77c0-.91-.19-1.59-.58-2.07-.39-.47-.93-.71-1.62-.71-.62,0-1.18,.24-1.68,.73-.5,.48-.79,1.17-.89,2.05Z"/><path class="cls-4" d="M248.48,99.01v-8.92h1.25l.13,1.29h.06c.43-.43,.88-.79,1.36-1.07,.48-.29,1.02-.43,1.63-.43,.94,0,1.63,.3,2.07,.89,.43,.59,.65,1.46,.65,2.6v5.65h-1.5v-5.45c0-.83-.13-1.44-.4-1.82-.27-.38-.7-.57-1.29-.57-.45,0-.86,.12-1.22,.35s-.77,.58-1.22,1.03v6.46h-1.51Z"/><path class="cls-4" d="M261.51,99.23c-.96,0-1.62-.28-1.99-.83s-.56-1.27-.56-2.15v-4.94h-1.32v-1.14l1.4-.09,.18-2.5h1.27v2.5h2.41v1.23h-2.41v4.96c0,.55,.1,.98,.3,1.28s.56,.45,1.07,.45c.16,0,.33-.03,.51-.08,.18-.05,.35-.11,.5-.16l.29,1.14c-.25,.09-.51,.16-.8,.23-.29,.07-.57,.1-.85,.1Z"/><path class="cls-4" d="M265.86,88.25c-.29,0-.54-.09-.73-.27-.19-.18-.28-.42-.28-.73s.09-.53,.28-.72c.19-.18,.43-.28,.73-.28s.54,.09,.73,.28c.19,.18,.28,.42,.28,.72s-.09,.55-.28,.73c-.19,.18-.43,.27-.73,.27Zm-.77,10.76v-8.92h1.51v8.92h-1.51Z"/><path class="cls-4" d="M272.6,99.23c-.96,0-1.62-.28-1.99-.83s-.56-1.27-.56-2.15v-4.94h-1.32v-1.14l1.4-.09,.18-2.5h1.27v2.5h2.41v1.23h-2.41v4.96c0,.55,.1,.98,.3,1.28s.56,.45,1.07,.45c.16,0,.33-.03,.51-.08,.18-.05,.35-.11,.5-.16l.29,1.14c-.25,.09-.51,.16-.8,.23-.29,.07-.57,.1-.85,.1Z"/><path class="cls-4" d="M276.33,102.85c-.2,0-.38-.02-.56-.06-.18-.04-.34-.08-.49-.13l.29-1.19c.1,.02,.21,.05,.33,.08,.12,.03,.24,.05,.35,.05,.5,0,.92-.18,1.25-.54s.59-.82,.77-1.37l.2-.66-3.58-8.94h1.56l1.82,4.94c.13,.38,.28,.79,.43,1.23s.3,.87,.43,1.29h.07c.13-.4,.26-.83,.39-1.27s.25-.86,.37-1.25l1.6-4.94h1.47l-3.36,9.66c-.21,.59-.46,1.11-.74,1.58-.29,.46-.64,.83-1.06,1.11-.42,.28-.93,.41-1.53,.41Z"/><path class="cls-4" d="M287.47,101.95l4.9-15.97h1.1l-4.9,15.97h-1.1Z"/><path class="cls-4" d="M299.4,99.01v-12.04h3.43c.91,0,1.7,.11,2.37,.33,.67,.22,1.2,.59,1.58,1.11,.38,.52,.57,1.22,.57,2.1,0,1.26-.41,2.2-1.23,2.81-.82,.61-1.89,.92-3.21,.92h-1.98v4.77h-1.52Zm1.52-6.02h1.8c1.05,0,1.83-.2,2.34-.6,.51-.4,.76-1.02,.76-1.88s-.27-1.47-.8-1.81c-.53-.34-1.33-.5-2.38-.5h-1.73v4.79Z"/><path class="cls-4" d="M311.1,99.23c-.75,0-1.37-.22-1.86-.67-.5-.45-.74-1.07-.74-1.86,0-.98,.44-1.73,1.31-2.25,.87-.52,2.26-.88,4.16-1.09,0-.38-.05-.74-.16-1.08-.1-.34-.29-.62-.55-.83-.26-.21-.64-.32-1.13-.32-.51,0-1,.1-1.45,.29-.45,.2-.86,.42-1.21,.66l-.59-1.05c.42-.27,.93-.53,1.53-.78s1.26-.38,1.97-.38c1.09,0,1.88,.33,2.37,1,.49,.67,.73,1.56,.73,2.67v5.47h-1.25l-.13-1.06h-.06c-.42,.34-.87,.64-1.37,.9s-1.03,.39-1.59,.39Zm.44-1.21c.43,0,.83-.1,1.21-.31,.38-.21,.78-.5,1.21-.88v-2.48c-1.48,.18-2.52,.46-3.11,.83s-.89,.84-.89,1.41c0,.5,.15,.87,.46,1.09s.68,.34,1.12,.34Z"/><path class="cls-4" d="M318.62,102.85c-.2,0-.38-.02-.56-.06-.18-.04-.34-.08-.49-.13l.29-1.19c.1,.02,.21,.05,.33,.08,.12,.03,.24,.05,.35,.05,.5,0,.92-.18,1.25-.54s.59-.82,.77-1.37l.2-.66-3.58-8.94h1.56l1.82,4.94c.13,.38,.28,.79,.43,1.23s.3,.87,.43,1.29h.07c.13-.4,.26-.83,.39-1.27s.25-.86,.37-1.25l1.6-4.94h1.47l-3.36,9.66c-.21,.59-.46,1.11-.74,1.58-.29,.46-.64,.83-1.06,1.11-.42,.28-.93,.41-1.53,.41Z"/><path class="cls-4" d="M327.23,99.01v-8.92h1.25l.13,1.29h.06c.39-.43,.82-.79,1.29-1.07,.46-.29,.96-.43,1.49-.43,.69,0,1.22,.15,1.61,.45s.67,.72,.85,1.26c.46-.5,.94-.91,1.41-1.23s.98-.48,1.52-.48c.92,0,1.6,.3,2.05,.89,.45,.59,.67,1.46,.67,2.6v5.65h-1.5v-5.45c0-.83-.13-1.44-.4-1.82-.27-.38-.69-.57-1.25-.57-.66,0-1.41,.46-2.24,1.38v6.46h-1.51v-5.45c0-.83-.13-1.44-.4-1.82-.27-.38-.69-.57-1.27-.57-.66,0-1.41,.46-2.24,1.38v6.46h-1.51Z"/><path class="cls-4" d="M346.25,99.23c-.8,0-1.52-.19-2.17-.56-.65-.37-1.16-.91-1.54-1.61-.38-.7-.57-1.53-.57-2.5s.19-1.82,.58-2.52c.39-.7,.88-1.24,1.5-1.62,.61-.38,1.25-.57,1.93-.57,1.14,0,2.02,.38,2.63,1.14s.93,1.77,.93,3.05c0,.16,0,.32,0,.47s-.02,.28-.05,.39h-6.02c.06,.94,.36,1.7,.89,2.26,.53,.56,1.23,.84,2.08,.84,.43,0,.82-.06,1.18-.19,.36-.13,.71-.3,1.04-.5l.53,.99c-.38,.24-.81,.46-1.29,.64s-1.03,.28-1.64,.28Zm-2.81-5.4h4.77c0-.91-.19-1.59-.58-2.07-.39-.47-.93-.71-1.62-.71-.62,0-1.18,.24-1.68,.73-.5,.48-.79,1.17-.89,2.05Z"/><path class="cls-4" d="M351.92,99.01v-8.92h1.25l.13,1.29h.06c.43-.43,.88-.79,1.36-1.07,.48-.29,1.02-.43,1.63-.43,.94,0,1.63,.3,2.07,.89,.43,.59,.65,1.46,.65,2.6v5.65h-1.5v-5.45c0-.83-.13-1.44-.4-1.82-.27-.38-.7-.57-1.29-.57-.45,0-.86,.12-1.22,.35s-.77,.58-1.22,1.03v6.46h-1.51Z"/><path class="cls-4" d="M364.96,99.23c-.96,0-1.62-.28-1.99-.83s-.56-1.27-.56-2.15v-4.94h-1.32v-1.14l1.4-.09,.18-2.5h1.27v2.5h2.41v1.23h-2.41v4.96c0,.55,.1,.98,.3,1.28s.56,.45,1.07,.45c.16,0,.33-.03,.51-.08,.18-.05,.35-.11,.5-.16l.29,1.14c-.25,.09-.51,.16-.8,.23-.29,.07-.57,.1-.85,.1Z"/><path class="cls-4" d="M370.69,99.23c-.64,0-1.24-.12-1.82-.36s-1.08-.53-1.51-.87l.75-1.01c.39,.31,.8,.56,1.21,.76,.42,.2,.89,.3,1.41,.3,.59,0,1.03-.14,1.32-.41,.29-.28,.44-.6,.44-.98,0-.31-.1-.56-.3-.77-.2-.21-.46-.38-.77-.52-.31-.14-.63-.27-.96-.4-.42-.16-.83-.34-1.23-.54-.4-.2-.73-.46-.99-.79-.26-.32-.39-.74-.39-1.24,0-.72,.27-1.33,.82-1.81,.54-.48,1.3-.73,2.27-.73,.55,0,1.06,.1,1.54,.29,.48,.2,.89,.43,1.23,.72l-.73,.96c-.31-.23-.62-.42-.96-.57-.33-.15-.69-.22-1.08-.22-.56,0-.98,.13-1.24,.39-.26,.26-.39,.56-.39,.9,0,.28,.09,.51,.28,.69,.18,.18,.42,.33,.72,.46,.29,.13,.61,.26,.94,.39,.43,.16,.85,.34,1.27,.54s.76,.47,1.04,.81c.28,.34,.41,.79,.41,1.35,0,.48-.13,.92-.38,1.32-.25,.4-.62,.73-1.1,.97-.48,.24-1.08,.37-1.79,.37Z"/></g><line class="cls-10" x1="373.83" y1="102.28" x2="297.53" y2="102.28"/><line class="cls-10" x1="282.04" y1="102.86" x2="222.38" y2="102.86"/><line class="cls-10" x1="205.17" y1="102.86" x2="86.99" y2="102.86"/><line class="cls-11" x1="205.38" y1="180.88" x2="205.38" y2="399.61"/><rect class="cls-5" x="81.11" y="189.24" width="110.87" height="27.82" rx="7.06" ry="7.06"/><g id="surface1"><path class="cls-9" d="M97.22,204.58c1.84-2.6,1.22-6.2-1.37-8.04-2.6-1.84-6.2-1.22-8.04,1.37-1.84,2.6-1.22,6.2,1.37,8.04,1.85,1.31,4.31,1.41,6.26,.26l4.25,4.23c.46,.48,1.22,.5,1.71,.04,.48-.46,.5-1.22,.04-1.71-.01-.02-.03-.03-.04-.04l-4.18-4.15Zm-4.71,.39c-2.05,0-3.72-1.66-3.72-3.72,0-2.05,1.66-3.72,3.72-3.72,2.05,0,3.71,1.66,3.72,3.71,0,2.05-1.66,3.72-3.71,3.72h0Z"/></g><rect class="cls-4" x="221.81" y="189.48" width="253.57" height="219.15" rx="3.88" ry="3.88"/><g><path class="cls-9" d="M247.59,217.37c-.88,0-1.69-.19-2.41-.57s-1.29-.94-1.71-1.68c-.42-.74-.63-1.65-.63-2.74s.22-1.99,.65-2.75,1.01-1.34,1.72-1.75c.72-.4,1.51-.6,2.37-.6,.71,0,1.31,.13,1.82,.39,.51,.26,.92,.55,1.24,.88l-1.15,1.4c-.25-.22-.51-.4-.79-.55s-.63-.22-1.04-.22c-.76,0-1.37,.28-1.85,.83-.48,.56-.72,1.32-.72,2.3s.23,1.77,.69,2.33c.46,.56,1.14,.84,2.04,.84,.2,0,.39-.03,.58-.08,.19-.05,.34-.12,.46-.22v-1.67h-1.61v-1.79h3.55v4.47c-.34,.33-.79,.61-1.35,.83-.56,.23-1.18,.34-1.86,.34Z"/><path class="cls-9" d="M256.09,217.37c-.71,0-1.34-.15-1.91-.46-.57-.31-1.01-.75-1.34-1.33-.33-.58-.49-1.27-.49-2.09s.17-1.5,.5-2.07c.33-.58,.77-1.02,1.3-1.33s1.1-.47,1.69-.47c.71,0,1.29,.16,1.75,.47,.46,.31,.81,.74,1.04,1.27,.23,.53,.35,1.14,.35,1.81,0,.19-.01,.38-.03,.56s-.04,.32-.06,.41h-4.43c.1,.54,.32,.93,.67,1.19s.77,.38,1.25,.38c.53,0,1.06-.16,1.6-.49l.73,1.33c-.38,.26-.8,.46-1.27,.61-.47,.15-.92,.22-1.36,.22Zm-1.64-4.68h2.67c0-.41-.1-.74-.29-1.01-.19-.26-.51-.39-.95-.39-.34,0-.64,.12-.91,.35-.27,.23-.44,.58-.52,1.05Z"/><path class="cls-9" d="M263.36,217.37c-.92,0-1.57-.26-1.96-.79-.39-.53-.59-1.22-.59-2.07v-3h-1.01v-1.63l1.13-.09,.25-1.97h1.82v1.97h1.77v1.72h-1.77v2.97c0,.42,.09,.72,.26,.9,.17,.18,.41,.28,.69,.28,.12,0,.24-.01,.37-.04s.24-.06,.34-.1l.34,1.6c-.19,.06-.42,.12-.69,.18s-.59,.09-.95,.09Z"/><path class="cls-9" d="M268.92,217.37c-.92,0-1.57-.26-1.96-.79-.39-.53-.59-1.22-.59-2.07v-3h-1.01v-1.63l1.13-.09,.25-1.97h1.82v1.97h1.77v1.72h-1.77v2.97c0,.42,.09,.72,.26,.9,.17,.18,.41,.28,.69,.28,.12,0,.24-.01,.37-.04s.24-.06,.34-.1l.34,1.6c-.19,.06-.42,.12-.69,.18s-.59,.09-.95,.09Z"/><path class="cls-9" d="M273.02,208.7c-.37,0-.67-.1-.9-.31-.23-.21-.34-.49-.34-.83s.11-.63,.34-.83,.53-.31,.9-.31,.67,.1,.89,.31,.34,.49,.34,.83-.12,.63-.34,.83c-.23,.21-.53,.31-.89,.31Zm-1.09,8.49v-7.4h2.19v7.4h-2.19Z"/><path class="cls-9" d="M276.2,217.19v-7.4h1.79l.15,.94h.06c.32-.3,.67-.56,1.05-.78,.38-.22,.82-.34,1.32-.34,.81,0,1.39,.27,1.75,.8,.36,.53,.54,1.26,.54,2.19v4.59h-2.19v-4.31c0-.54-.07-.91-.22-1.1-.14-.2-.38-.3-.69-.3-.28,0-.52,.06-.72,.19-.2,.12-.42,.3-.66,.53v5h-2.19Z"/><path class="cls-9" d="M287.52,220.34c-.58,0-1.1-.07-1.57-.19-.47-.13-.84-.33-1.12-.61s-.42-.64-.42-1.07c0-.6,.35-1.09,1.06-1.49v-.06c-.19-.13-.35-.29-.49-.49-.13-.2-.2-.45-.2-.76,0-.27,.08-.53,.24-.78,.16-.25,.36-.45,.6-.61v-.06c-.26-.18-.49-.44-.69-.78s-.31-.72-.31-1.15c0-.6,.14-1.09,.43-1.48,.29-.39,.67-.69,1.13-.89,.47-.2,.96-.3,1.49-.3,.44,0,.82,.06,1.15,.18h2.7v1.6h-1.18c.07,.11,.13,.25,.17,.42s.07,.35,.07,.55c0,.57-.13,1.03-.39,1.4-.26,.37-.61,.64-1.04,.82s-.93,.27-1.48,.27c-.29,0-.59-.05-.89-.15-.18,.15-.27,.33-.27,.55,0,.19,.08,.33,.25,.42,.17,.09,.46,.13,.86,.13h1.19c.92,0,1.61,.15,2.1,.44,.48,.29,.72,.77,.72,1.44,0,.51-.17,.96-.51,1.37-.34,.4-.82,.72-1.43,.95-.62,.23-1.35,.34-2.19,.34Zm.34-1.37c.5,0,.9-.09,1.22-.27,.32-.18,.48-.39,.48-.64,0-.23-.1-.38-.29-.46-.19-.08-.47-.12-.84-.12h-.76c-.25,0-.46,0-.62-.02-.16-.01-.31-.04-.42-.07-.27,.24-.4,.48-.4,.73,0,.28,.15,.49,.46,.63,.3,.14,.7,.22,1.19,.22Zm-.18-5.44c.29,0,.53-.1,.72-.31s.29-.52,.29-.92-.1-.68-.29-.89c-.19-.2-.44-.31-.72-.31s-.53,.1-.72,.3c-.19,.2-.29,.5-.29,.89s.1,.72,.29,.92c.19,.21,.44,.31,.72,.31Z"/><path class="cls-9" d="M299.27,217.37c-.64,0-1.27-.12-1.9-.36-.63-.24-1.2-.59-1.69-1.04l1.25-1.51c.35,.3,.74,.54,1.16,.73,.43,.19,.84,.28,1.24,.28,.46,0,.8-.08,1.02-.25s.34-.4,.34-.69c0-.31-.13-.53-.38-.68-.25-.14-.59-.31-1.02-.48l-1.27-.54c-.33-.14-.64-.33-.94-.56-.3-.23-.54-.52-.73-.87-.19-.35-.28-.76-.28-1.22,0-.54,.15-1.02,.44-1.46,.29-.44,.7-.79,1.22-1.04,.52-.26,1.12-.39,1.8-.39,.56,0,1.11,.11,1.67,.33,.56,.22,1.04,.54,1.46,.96l-1.12,1.39c-.32-.25-.64-.44-.95-.57-.32-.13-.67-.2-1.06-.2s-.68,.08-.9,.23-.34,.37-.34,.65c0,.3,.14,.52,.43,.67,.28,.15,.63,.31,1.05,.48l1.25,.51c.59,.24,1.05,.57,1.4,.98,.35,.42,.52,.97,.52,1.66,0,.54-.14,1.03-.43,1.49-.29,.46-.71,.83-1.25,1.1s-1.21,.42-1.98,.42Z"/><path class="cls-9" d="M307,217.37c-.92,0-1.57-.26-1.96-.79-.39-.53-.59-1.22-.59-2.07v-3h-1.01v-1.63l1.13-.09,.25-1.97h1.82v1.97h1.77v1.72h-1.77v2.97c0,.42,.09,.72,.26,.9,.17,.18,.41,.28,.69,.28,.12,0,.24-.01,.37-.04s.24-.06,.34-.1l.34,1.6c-.19,.06-.42,.12-.69,.18s-.59,.09-.95,.09Z"/><path class="cls-9" d="M311.58,217.37c-.68,0-1.21-.22-1.61-.65-.4-.43-.6-.96-.6-1.59,0-.78,.33-1.38,.99-1.82s1.71-.73,3.18-.88c-.02-.33-.12-.59-.29-.78-.17-.19-.46-.29-.87-.29-.31,0-.62,.06-.94,.18s-.66,.28-1.01,.49l-.79-1.45c.47-.29,.97-.52,1.5-.7s1.09-.27,1.66-.27c.94,0,1.67,.27,2.18,.82s.76,1.39,.76,2.52v4.24h-1.79l-.15-.76h-.06c-.31,.28-.64,.5-.99,.68-.35,.17-.74,.26-1.16,.26Zm.75-1.7c.25,0,.46-.06,.65-.17,.18-.11,.37-.27,.56-.45v-1.3c-.78,.1-1.31,.26-1.61,.47-.3,.21-.45,.46-.45,.75,0,.24,.08,.42,.23,.53,.15,.12,.36,.17,.62,.17Z"/><path class="cls-9" d="M317.73,217.19v-7.4h1.79l.15,1.3h.06c.27-.5,.59-.87,.97-1.11,.38-.24,.76-.37,1.13-.37,.21,0,.38,.01,.52,.04,.14,.03,.26,.06,.36,.11l-.36,1.89c-.13-.04-.26-.07-.38-.09s-.27-.03-.42-.03c-.28,0-.57,.1-.87,.31-.3,.2-.55,.55-.75,1.05v4.3h-2.19Z"/><path class="cls-9" d="M326.66,217.37c-.92,0-1.57-.26-1.96-.79-.39-.53-.59-1.22-.59-2.07v-3h-1.01v-1.63l1.13-.09,.25-1.97h1.82v1.97h1.77v1.72h-1.77v2.97c0,.42,.09,.72,.26,.9,.17,.18,.41,.28,.69,.28,.12,0,.24-.01,.37-.04s.24-.06,.34-.1l.34,1.6c-.19,.06-.42,.12-.69,.18s-.59,.09-.95,.09Z"/><path class="cls-9" d="M332.72,217.37c-.71,0-1.34-.15-1.91-.46-.57-.31-1.01-.75-1.34-1.33-.33-.58-.49-1.27-.49-2.09s.17-1.5,.5-2.07c.33-.58,.77-1.02,1.3-1.33s1.1-.47,1.69-.47c.71,0,1.29,.16,1.75,.47,.46,.31,.81,.74,1.04,1.27,.23,.53,.35,1.14,.35,1.81,0,.19-.01,.38-.03,.56s-.04,.32-.06,.41h-4.43c.1,.54,.32,.93,.67,1.19s.77,.38,1.25,.38c.53,0,1.06-.16,1.6-.49l.73,1.33c-.38,.26-.8,.46-1.27,.61-.47,.15-.92,.22-1.36,.22Zm-1.64-4.68h2.67c0-.41-.1-.74-.29-1.01-.19-.26-.51-.39-.95-.39-.34,0-.64,.12-.91,.35-.27,.23-.44,.58-.52,1.05Z"/><path class="cls-9" d="M339.92,217.37c-.92,0-1.65-.34-2.2-1.04-.55-.69-.83-1.64-.83-2.84,0-.81,.15-1.5,.44-2.08,.29-.58,.68-1.03,1.15-1.33,.47-.31,.97-.46,1.48-.46,.41,0,.75,.07,1.03,.21,.28,.14,.54,.33,.79,.57l-.09-1.13v-2.52h2.19v10.46h-1.79l-.15-.73h-.06c-.26,.26-.56,.47-.91,.65-.35,.17-.7,.26-1.06,.26Zm.57-1.79c.24,0,.46-.05,.65-.15,.19-.1,.38-.27,.56-.52v-3.03c-.19-.18-.39-.3-.6-.37s-.42-.1-.62-.1c-.35,0-.66,.17-.92,.5-.27,.33-.4,.85-.4,1.56s.12,1.26,.35,1.6c.23,.34,.56,.51,.99,.51Z"/></g><g><path class="cls-8" d="M240.68,236.4h7.4v4.93h-7.4v-4.93Z"/><path class="cls-8" d="M247.85,236.4h7.4v4.93h-7.4v-4.93Z"/><path class="cls-8" d="M255.02,236.4h7.4v4.93h-7.4v-4.93Z"/><path class="cls-8" d="M262.19,236.4h7.4v4.93h-7.4v-4.93Z"/><path class="cls-8" d="M269.36,236.4h7.4v4.93h-7.4v-4.93Z"/><path class="cls-8" d="M290.92,236.4h7.4v4.93h-7.4v-4.93Z"/><path class="cls-8" d="M298.09,236.4h7.4v4.93h-7.4v-4.93Z"/><path class="cls-8" d="M305.26,236.4h7.4v4.93h-7.4v-4.93Z"/><path class="cls-8" d="M312.43,236.4h7.4v4.93h-7.4v-4.93Z"/><path class="cls-8" d="M319.6,236.4h7.4v4.93h-7.4v-4.93Z"/><path class="cls-8" d="M341.16,236.4h7.4v4.93h-7.4v-4.93Z"/><path class="cls-8" d="M348.33,236.4h7.4v4.93h-7.4v-4.93Z"/><path class="cls-8" d="M355.5,236.4h7.4v4.93h-7.4v-4.93Z"/><path class="cls-8" d="M362.67,236.4h7.4v4.93h-7.4v-4.93Z"/><path class="cls-8" d="M369.84,236.4h7.4v4.93h-7.4v-4.93Z"/><path class="cls-8" d="M391.4,236.4h7.4v4.93h-7.4v-4.93Z"/><path class="cls-8" d="M398.57,236.4h7.4v4.93h-7.4v-4.93Z"/><path class="cls-8" d="M405.74,236.4h7.4v4.93h-7.4v-4.93Z"/><path class="cls-8" d="M240.68,250.17h7.4v4.93h-7.4v-4.93Z"/><path class="cls-8" d="M247.85,250.17h7.4v4.93h-7.4v-4.93Z"/><path class="cls-8" d="M255.02,250.17h7.4v4.93h-7.4v-4.93Z"/><path class="cls-8" d="M262.19,250.17h7.4v4.93h-7.4v-4.93Z"/><path class="cls-8" d="M269.36,250.17h7.4v4.93h-7.4v-4.93Z"/><path class="cls-8" d="M290.92,250.17h7.4v4.93h-7.4v-4.93Z"/><path class="cls-8" d="M298.09,250.17h7.4v4.93h-7.4v-4.93Z"/><path class="cls-8" d="M305.26,250.17h7.4v4.93h-7.4v-4.93Z"/><path class="cls-8" d="M312.43,250.17h7.4v4.93h-7.4v-4.93Z"/><path class="cls-8" d="M319.6,250.17h7.4v4.93h-7.4v-4.93Z"/><path class="cls-8" d="M326.77,250.17h7.4v4.93h-7.4v-4.93Z"/><path class="cls-8" d="M333.94,250.17h7.4v4.93h-7.4v-4.93Z"/><path class="cls-8" d="M341.11,250.17h7.4v4.93h-7.4v-4.93Z"/><path class="cls-8" d="M348.29,250.17h7.4v4.93h-7.4v-4.93Z"/><path class="cls-8" d="M355.46,250.17h7.4v4.93h-7.4v-4.93Z"/><path class="cls-8" d="M362.63,250.17h7.4v4.93h-7.4v-4.93Z"/><path class="cls-8" d="M369.8,250.17h7.4v4.93h-7.4v-4.93Z"/><path class="cls-8" d="M391.36,250.17h7.4v4.93h-7.4v-4.93Z"/><path class="cls-8" d="M398.53,250.17h7.4v4.93h-7.4v-4.93Z"/><path class="cls-8" d="M405.7,250.17h7.4v4.93h-7.4v-4.93Z"/><path class="cls-8" d="M412.87,250.17h7.4v4.93h-7.4v-4.93Z"/><path class="cls-8" d="M420.04,250.17h7.4v4.93h-7.4v-4.93Z"/><path class="cls-8" d="M240.68,263.93h7.4v4.93h-7.4v-4.93Z"/><path class="cls-8" d="M247.85,263.93h7.4v4.93h-7.4v-4.93Z"/><path class="cls-8" d="M255.02,263.93h7.4v4.93h-7.4v-4.93Z"/><path class="cls-8" d="M262.19,263.93h7.4v4.93h-7.4v-4.93Z"/><path class="cls-8" d="M269.36,263.93h7.4v4.93h-7.4v-4.93Z"/><path class="cls-8" d="M276.53,263.93h7.4v4.93h-7.4v-4.93Z"/><path class="cls-8" d="M298.09,263.93h7.4v4.93h-7.4v-4.93Z"/><path class="cls-8" d="M305.26,263.93h7.4v4.93h-7.4v-4.93Z"/><path class="cls-8" d="M312.43,263.93h7.4v4.93h-7.4v-4.93Z"/><path class="cls-8" d="M319.6,263.93h7.4v4.93h-7.4v-4.93Z"/><path class="cls-8" d="M326.77,263.93h7.4v4.93h-7.4v-4.93Z"/><path class="cls-8" d="M348.33,263.93h7.4v4.93h-7.4v-4.93Z"/><path class="cls-8" d="M355.5,263.93h7.4v4.93h-7.4v-4.93Z"/><path class="cls-8" d="M362.67,263.93h7.4v4.93h-7.4v-4.93Z"/><path class="cls-8" d="M384.23,263.93h7.4v4.93h-7.4v-4.93Z"/><path class="cls-8" d="M391.4,263.93h7.4v4.93h-7.4v-4.93Z"/><path class="cls-8" d="M398.57,263.93h7.4v4.93h-7.4v-4.93Z"/><path class="cls-8" d="M405.74,263.93h7.4v4.93h-7.4v-4.93Z"/><path class="cls-8" d="M240.68,277.7h7.4v4.93h-7.4v-4.93Z"/><path class="cls-8" d="M247.85,277.7h7.4v4.93h-7.4v-4.93Z"/><path class="cls-8" d="M255.02,277.7h7.4v4.93h-7.4v-4.93Z"/><path class="cls-8" d="M262.19,277.7h7.4v4.93h-7.4v-4.93Z"/><path class="cls-8" d="M269.36,277.7h7.4v4.93h-7.4v-4.93Z"/></g><g><path class="cls-8" d="M240.68,339.66h7.4v4.93h-7.4v-4.93Z"/><path class="cls-8" d="M247.85,339.66h7.4v4.93h-7.4v-4.93Z"/><path class="cls-8" d="M255.02,339.66h7.4v4.93h-7.4v-4.93Z"/><path class="cls-8" d="M262.19,339.66h7.4v4.93h-7.4v-4.93Z"/><path class="cls-8" d="M269.36,339.66h7.4v4.93h-7.4v-4.93Z"/><path class="cls-8" d="M290.92,339.66h7.4v4.93h-7.4v-4.93Z"/><path class="cls-8" d="M298.09,339.66h7.4v4.93h-7.4v-4.93Z"/><path class="cls-8" d="M305.26,339.66h7.4v4.93h-7.4v-4.93Z"/><path class="cls-8" d="M312.43,339.66h7.4v4.93h-7.4v-4.93Z"/><path class="cls-8" d="M319.6,339.66h7.4v4.93h-7.4v-4.93Z"/><path class="cls-8" d="M341.16,339.66h7.4v4.93h-7.4v-4.93Z"/><path class="cls-8" d="M348.33,339.66h7.4v4.93h-7.4v-4.93Z"/><path class="cls-8" d="M355.5,339.66h7.4v4.93h-7.4v-4.93Z"/><path class="cls-8" d="M269.45,353.43h7.4v4.93h-7.4v-4.93Z"/><path class="cls-8" d="M276.62,353.43h7.4v4.93h-7.4v-4.93Z"/><path class="cls-8" d="M283.79,353.43h7.4v4.93h-7.4v-4.93Z"/><path class="cls-8" d="M290.96,353.43h7.4v4.93h-7.4v-4.93Z"/><path class="cls-8" d="M298.13,353.43h7.4v4.93h-7.4v-4.93Z"/><path class="cls-8" d="M305.3,353.43h7.4v4.93h-7.4v-4.93Z"/><path class="cls-8" d="M312.48,353.43h7.4v4.93h-7.4v-4.93Z"/><path class="cls-8" d="M319.65,353.43h7.4v4.93h-7.4v-4.93Z"/><path class="cls-8" d="M341.2,353.43h7.4v4.93h-7.4v-4.93Z"/><path class="cls-8" d="M362.76,353.43h7.4v4.93h-7.4v-4.93Z"/><path class="cls-8" d="M269.45,367.2h7.4v4.93h-7.4v-4.93Z"/><path class="cls-8" d="M276.62,367.2h7.4v4.93h-7.4v-4.93Z"/><path class="cls-8" d="M298.18,367.2h7.4v4.93h-7.4v-4.93Z"/><path class="cls-8" d="M305.35,367.2h7.4v4.93h-7.4v-4.93Z"/><path class="cls-8" d="M312.52,367.2h7.4v4.93h-7.4v-4.93Z"/><path class="cls-8" d="M319.69,367.2h7.4v4.93h-7.4v-4.93Z"/><path class="cls-8" d="M326.86,367.2h7.4v4.93h-7.4v-4.93Z"/><path class="cls-8" d="M269.45,380.97h7.4v4.93h-7.4v-4.93Z"/><path class="cls-8" d="M276.62,380.97h7.4v4.93h-7.4v-4.93Z"/><path class="cls-8" d="M283.79,380.97h7.4v4.93h-7.4v-4.93Z"/><path class="cls-8" d="M290.96,380.97h7.4v4.93h-7.4v-4.93Z"/><path class="cls-8" d="M312.52,380.97h7.4v4.93h-7.4v-4.93Z"/><path class="cls-8" d="M319.69,380.97h7.4v4.93h-7.4v-4.93Z"/><path class="cls-8" d="M341.25,380.97h7.4v4.93h-7.4v-4.93Z"/><path class="cls-8" d="M348.42,380.97h7.4v4.93h-7.4v-4.93Z"/><path class="cls-8" d="M355.59,380.97h7.4v4.93h-7.4v-4.93Z"/></g><rect class="cls-9" x="240.17" y="295.04" width="197.35" height="30.98" rx="5.04" ry="5.04"/><g><path class="cls-7" d="M254.45,308.68h7.4v4.93h-7.4v-4.93Z"/><path class="cls-7" d="M261.62,308.68h7.4v4.93h-7.4v-4.93Z"/><path class="cls-7" d="M268.79,308.68h7.4v4.93h-7.4v-4.93Z"/><path class="cls-7" d="M275.96,308.68h7.4v4.93h-7.4v-4.93Z"/><path class="cls-7" d="M283.13,308.68h7.4v4.93h-7.4v-4.93Z"/><path class="cls-7" d="M290.3,308.68h7.4v4.93h-7.4v-4.93Z"/><path class="cls-7" d="M311.86,308.68h7.4v4.93h-7.4v-4.93Z"/><path class="cls-7" d="M319.03,308.68h7.4v4.93h-7.4v-4.93Z"/><path class="cls-7" d="M340.59,308.68h7.4v4.93h-7.4v-4.93Z"/><path class="cls-7" d="M347.76,308.68h7.4v4.93h-7.4v-4.93Z"/><path class="cls-7" d="M354.93,308.68h7.4v4.93h-7.4v-4.93Z"/></g></svg>