<?xml version="1.0" encoding="UTF-8"?><svg id="Layer_1" xmlns="http://www.w3.org/2000/svg" viewBox="0 0 495.19 497.59"><defs><style>.cls-1{fill:#e6e6e6;}.cls-2{fill:#111827;}.cls-3{fill:#ff5f56;stroke:#e0443e;}.cls-3,.cls-4,.cls-5{stroke-width:.5px;}.cls-4{fill:#ffbd2e;stroke:#dea123;}.cls-5{fill:#27c93f;stroke:#1aab29;}</style></defs><rect class="cls-2" x="5.15" y="82" width="484" height="332" rx="12" ry="12"/><g><path class="cls-1" d="M34.97,160.02v-.91h6.59v.91h-6.59Zm.32-3.28v-.93h6.59v.93h-6.59Zm.56,6.54l1.28-10.4h.85l-1.26,10.4h-.86Zm2.98,0l1.28-10.4h.85l-1.26,10.4h-.86Z"/><path class="cls-1" d="M43.77,160.02v-.91h6.59v.91h-6.59Zm.32-3.28v-.93h6.59v.93h-6.59Zm.56,6.54l1.28-10.4h.85l-1.26,10.4h-.86Zm2.98,0l1.28-10.4h.85l-1.26,10.4h-.86Z"/><path class="cls-1" d="M61.24,163.29v-10.5h1.34v4.4h4.38v-4.4h1.34v10.5h-1.34v-4.94h-4.38v4.94h-1.34Z"/><path class="cls-1" d="M73.57,163.48c-.68,0-1.31-.16-1.9-.48-.58-.32-1.05-.78-1.41-1.39-.36-.61-.54-1.34-.54-2.19s.18-1.62,.54-2.22c.36-.61,.83-1.07,1.41-1.39,.58-.32,1.21-.48,1.9-.48s1.31,.16,1.9,.48c.58,.32,1.05,.78,1.41,1.39,.36,.61,.54,1.35,.54,2.22s-.18,1.58-.54,2.19c-.36,.61-.83,1.07-1.41,1.39-.58,.32-1.21,.48-1.9,.48Zm0-1.09c.5,0,.94-.12,1.31-.38,.37-.25,.66-.6,.86-1.05,.2-.45,.3-.96,.3-1.55s-.1-1.12-.3-1.58c-.2-.45-.49-.8-.86-1.06-.37-.25-.81-.38-1.31-.38s-.94,.12-1.3,.38-.66,.6-.86,1.06c-.21,.45-.31,.98-.31,1.58s.1,1.1,.31,1.55c.21,.45,.5,.8,.86,1.05,.37,.25,.8,.38,1.3,.38Z"/><path class="cls-1" d="M79.4,163.29l-1.7-7.78h1.31l.93,4.51c.07,.36,.14,.72,.2,1.06,.06,.35,.11,.71,.15,1.08h.06c.05-.37,.12-.73,.2-1.08s.16-.7,.25-1.06l.96-4.03h1.31l.93,4.03c.09,.36,.18,.72,.27,1.06s.17,.71,.21,1.08h.06c.06-.37,.12-.73,.17-1.08,.05-.35,.11-.7,.18-1.06l.93-4.51h1.22l-1.66,7.78h-1.7l-.9-3.71c-.06-.28-.13-.61-.19-.99-.06-.38-.13-.82-.19-1.31h-.06c-.06,.49-.13,.93-.19,1.31-.06,.38-.13,.71-.19,.99l-.86,3.71h-1.7Z"/><path class="cls-1" d="M101.48,163.48c-.76,0-1.35-.14-1.79-.41-.44-.27-.75-.65-.94-1.13-.19-.48-.28-1.04-.28-1.68v-3.68h-2.19v-.99l2.24-.08,.18-2.5h1.09v2.5h3.82v1.07h-3.82v3.7c0,.46,.06,.85,.18,1.17,.12,.32,.32,.56,.61,.72s.68,.24,1.18,.24c.37,0,.71-.03,1.01-.1,.3-.06,.59-.15,.86-.26l.29,.96c-.35,.13-.72,.24-1.11,.33-.39,.09-.83,.14-1.32,.14Z"/><path class="cls-1" d="M108.77,163.48c-.68,0-1.31-.16-1.9-.48-.58-.32-1.05-.78-1.41-1.39-.36-.61-.54-1.34-.54-2.19s.18-1.62,.54-2.22c.36-.61,.83-1.07,1.41-1.39,.58-.32,1.21-.48,1.9-.48s1.31,.16,1.9,.48c.58,.32,1.05,.78,1.41,1.39,.36,.61,.54,1.35,.54,2.22s-.18,1.58-.54,2.19c-.36,.61-.83,1.07-1.41,1.39-.58,.32-1.21,.48-1.9,.48Zm0-1.09c.5,0,.94-.12,1.31-.38,.37-.25,.66-.6,.86-1.05,.2-.45,.3-.96,.3-1.55s-.1-1.12-.3-1.58c-.2-.45-.49-.8-.86-1.06-.37-.25-.81-.38-1.31-.38s-.94,.12-1.3,.38-.66,.6-.86,1.06c-.21,.45-.31,.98-.31,1.58s.1,1.1,.31,1.55c.21,.45,.5,.8,.86,1.05,.37,.25,.8,.38,1.3,.38Z"/><path class="cls-1" d="M123.91,163.29v-7.78h1.09l.11,1.84h.05c.41-.63,.91-1.13,1.5-1.49s1.25-.54,1.97-.54c.29,0,.56,.02,.81,.07,.25,.05,.49,.13,.73,.25l-.3,1.14c-.27-.1-.5-.17-.69-.21-.19-.04-.44-.06-.75-.06-.59,0-1.15,.17-1.69,.5-.54,.34-1.04,.91-1.51,1.72v4.56h-1.31Z"/><path class="cls-1" d="M135.65,163.48c-.78,0-1.49-.16-2.12-.48s-1.14-.79-1.51-1.4c-.37-.61-.56-1.35-.56-2.22s.19-1.57,.56-2.18c.37-.61,.86-1.07,1.46-1.4,.6-.33,1.25-.49,1.94-.49,.75,0,1.38,.15,1.91,.46,.53,.3,.93,.73,1.22,1.27,.28,.54,.42,1.18,.42,1.92,0,.15,0,.29-.02,.43s-.03,.26-.05,.37h-6.58v-1.02h5.79l-.34,.37c0-.92-.21-1.61-.63-2.06-.42-.46-.99-.69-1.7-.69-.48,0-.93,.12-1.34,.35-.41,.24-.74,.58-.98,1.02-.25,.45-.37,1-.37,1.65s.13,1.23,.4,1.68c.27,.45,.63,.79,1.09,1.02,.46,.23,.98,.34,1.55,.34,.47,0,.89-.07,1.27-.2,.38-.13,.74-.31,1.1-.54l.48,.86c-.38,.26-.82,.47-1.32,.66s-1.06,.27-1.69,.27Z"/><path class="cls-1" d="M145.67,163.48c-.82,0-1.45-.24-1.89-.71-.44-.47-.66-1.17-.66-2.09v-7.71h-2.66v-1.07h3.97v8.88c0,.57,.14,.98,.42,1.23s.65,.38,1.1,.38c.22,0,.45-.03,.69-.09,.23-.06,.5-.15,.78-.28l.34,.99c-.35,.13-.68,.24-.99,.33-.31,.09-.68,.14-1.1,.14Z"/><path class="cls-1" d="M153.25,163.48c-.78,0-1.49-.16-2.12-.48s-1.14-.79-1.51-1.4c-.37-.61-.56-1.35-.56-2.22s.19-1.57,.56-2.18c.37-.61,.86-1.07,1.46-1.4,.6-.33,1.25-.49,1.94-.49,.75,0,1.38,.15,1.91,.46,.53,.3,.93,.73,1.22,1.27,.28,.54,.42,1.18,.42,1.92,0,.15,0,.29-.02,.43s-.03,.26-.05,.37h-6.58v-1.02h5.79l-.34,.37c0-.92-.21-1.61-.63-2.06-.42-.46-.99-.69-1.7-.69-.48,0-.93,.12-1.34,.35-.41,.24-.74,.58-.98,1.02-.25,.45-.37,1-.37,1.65s.13,1.23,.4,1.68c.27,.45,.63,.79,1.09,1.02,.46,.23,.98,.34,1.55,.34,.47,0,.89-.07,1.27-.2,.38-.13,.74-.31,1.1-.54l.48,.86c-.38,.26-.82,.47-1.32,.66s-1.06,.27-1.69,.27Z"/><path class="cls-1" d="M160.71,163.48c-.48,0-.92-.09-1.33-.26-.41-.18-.73-.43-.96-.76-.24-.33-.35-.73-.35-1.18,0-.88,.44-1.54,1.31-1.99,.87-.45,2.31-.76,4.32-.92-.01-.35-.08-.68-.22-.98-.13-.3-.35-.54-.65-.71-.3-.18-.7-.26-1.2-.26-.33,0-.66,.04-.98,.14s-.63,.21-.93,.35c-.29,.14-.56,.29-.81,.44l-.51-.9c.26-.17,.57-.34,.94-.52,.37-.18,.76-.32,1.19-.43,.43-.11,.87-.17,1.33-.17,.71,0,1.3,.13,1.77,.4,.46,.27,.81,.64,1.04,1.11,.23,.47,.34,1.04,.34,1.69v4.77h-1.07l-.11-1.06h-.05c-.43,.34-.91,.63-1.44,.88-.53,.25-1.08,.37-1.63,.37Zm.35-1.06c.45,0,.89-.1,1.33-.3,.44-.2,.87-.49,1.31-.85v-2.05c-1.11,.1-1.98,.23-2.62,.4-.63,.17-1.08,.39-1.34,.65-.26,.26-.39,.56-.39,.9,0,.29,.08,.53,.24,.71,.16,.19,.37,.32,.63,.41,.26,.09,.54,.13,.84,.13Z"/><path class="cls-1" d="M170.53,163.48c-.76,0-1.47-.12-2.13-.37s-1.23-.53-1.7-.85l.61-.86c.45,.32,.94,.58,1.49,.77,.54,.19,1.17,.29,1.89,.29,.66,0,1.15-.12,1.48-.37,.33-.25,.49-.53,.49-.85,0-.15-.03-.29-.09-.42s-.17-.25-.34-.37c-.17-.12-.41-.23-.73-.34-.32-.11-.75-.21-1.28-.32-1.01-.21-1.77-.5-2.28-.86-.51-.36-.76-.83-.76-1.41,0-.63,.27-1.15,.82-1.58,.54-.42,1.35-.63,2.42-.63,.6,0,1.17,.1,1.73,.3s1.02,.43,1.41,.7l-.64,.85c-.35-.26-.75-.46-1.2-.6-.45-.14-.92-.22-1.41-.22-.45,0-.8,.05-1.06,.15s-.45,.24-.56,.41c-.11,.17-.17,.36-.17,.56,0,.33,.18,.59,.54,.78,.36,.19,.93,.36,1.72,.52,.86,.18,1.53,.38,1.99,.61,.46,.22,.78,.48,.96,.77,.18,.29,.26,.63,.26,1.02,0,.43-.13,.81-.4,1.16s-.66,.63-1.17,.84c-.51,.21-1.14,.32-1.89,.32Z"/><path class="cls-1" d="M179.65,163.48c-.78,0-1.49-.16-2.12-.48s-1.14-.79-1.51-1.4c-.37-.61-.56-1.35-.56-2.22s.19-1.57,.56-2.18c.37-.61,.86-1.07,1.46-1.4,.6-.33,1.25-.49,1.94-.49,.75,0,1.38,.15,1.91,.46,.53,.3,.93,.73,1.22,1.27,.28,.54,.42,1.18,.42,1.92,0,.15,0,.29-.02,.43s-.03,.26-.05,.37h-6.58v-1.02h5.79l-.34,.37c0-.92-.21-1.61-.63-2.06-.42-.46-.99-.69-1.7-.69-.48,0-.93,.12-1.34,.35-.41,.24-.74,.58-.98,1.02-.25,.45-.37,1-.37,1.65s.13,1.23,.4,1.68c.27,.45,.63,.79,1.09,1.02,.46,.23,.98,.34,1.55,.34,.47,0,.89-.07,1.27-.2,.38-.13,.74-.31,1.1-.54l.48,.86c-.38,.26-.82,.47-1.32,.66s-1.06,.27-1.69,.27Z"/><path class="cls-1" d="M37.7,211.29v-9.38h-3.46v-1.12h8.26v1.12h-3.46v9.38h-1.34Z"/><path class="cls-1" d="M43.86,211.29v-11.39h1.31v3.1l-.08,1.84h.05c.39-.43,.83-.79,1.3-1.08,.47-.29,1.01-.44,1.62-.44,.92,0,1.59,.27,2.03,.8s.66,1.31,.66,2.34v4.83h-1.31v-4.66c0-.74-.14-1.28-.42-1.64s-.74-.54-1.38-.54c-.46,0-.87,.12-1.23,.35-.36,.24-.77,.59-1.23,1.06v5.42h-1.31Z"/><path class="cls-1" d="M56.23,211.29v-6.7h-3.62v-1.07h4.93v7.78h-1.31Zm.51-9.41c-.3,0-.55-.09-.75-.28-.2-.19-.3-.43-.3-.74s.1-.56,.3-.74c.2-.19,.45-.28,.75-.28s.55,.09,.75,.28c.2,.19,.3,.43,.3,.74s-.1,.56-.3,.74c-.2,.19-.45,.28-.75,.28Z"/><path class="cls-1" d="M64.93,211.48c-.76,0-1.47-.12-2.13-.37s-1.23-.53-1.7-.85l.61-.86c.45,.32,.94,.58,1.49,.77,.54,.19,1.17,.29,1.89,.29,.66,0,1.15-.12,1.48-.37,.33-.25,.49-.53,.49-.85,0-.15-.03-.29-.09-.42s-.17-.25-.34-.37c-.17-.12-.41-.23-.73-.34-.32-.11-.75-.21-1.28-.32-1.01-.21-1.77-.5-2.28-.86-.51-.36-.76-.83-.76-1.41,0-.63,.27-1.15,.82-1.58,.54-.42,1.35-.63,2.42-.63,.6,0,1.17,.1,1.73,.3s1.02,.43,1.41,.7l-.64,.85c-.35-.26-.75-.46-1.2-.6-.45-.14-.92-.22-1.41-.22-.45,0-.8,.05-1.06,.15s-.45,.24-.56,.41c-.11,.17-.17,.36-.17,.56,0,.33,.18,.59,.54,.78,.36,.19,.93,.36,1.72,.52,.86,.18,1.53,.38,1.99,.61,.46,.22,.78,.48,.96,.77,.18,.29,.26,.63,.26,1.02,0,.43-.13,.81-.4,1.16s-.66,.63-1.17,.84c-.51,.21-1.14,.32-1.89,.32Z"/><path class="cls-1" d="M79.06,214.57v-11.06h1.09l.11,.99h.05c.36-.34,.78-.62,1.26-.85,.47-.22,.95-.34,1.43-.34,.7,0,1.29,.16,1.77,.49,.47,.33,.83,.78,1.08,1.38,.25,.59,.37,1.29,.37,2.1,0,.88-.17,1.63-.5,2.26-.33,.63-.76,1.11-1.3,1.44-.53,.33-1.11,.5-1.74,.5-.35,0-.74-.09-1.16-.26-.42-.18-.81-.42-1.16-.74h-.05l.06,1.47v2.62h-1.31Zm3.39-4.19c.46,0,.87-.12,1.23-.37,.36-.25,.65-.6,.86-1.06s.31-1.02,.31-1.66c0-.57-.08-1.06-.22-1.5s-.38-.77-.7-1.01c-.32-.24-.74-.36-1.26-.36-.35,0-.72,.09-1.11,.28-.39,.19-.78,.48-1.18,.89v3.87c.37,.33,.75,.57,1.13,.7s.7,.21,.95,.21Z"/><path class="cls-1" d="M92.87,211.48c-.82,0-1.45-.24-1.89-.71-.44-.47-.66-1.17-.66-2.09v-7.71h-2.66v-1.07h3.97v8.88c0,.57,.14,.98,.42,1.23s.65,.38,1.1,.38c.22,0,.45-.03,.69-.09,.23-.06,.5-.15,.78-.28l.34,.99c-.35,.13-.68,.24-.99,.33-.31,.09-.68,.14-1.1,.14Z"/><path class="cls-1" d="M99.11,211.48c-.93,0-1.61-.27-2.05-.8-.44-.53-.66-1.31-.66-2.34v-4.83h1.33v4.66c0,.74,.14,1.28,.41,1.64,.27,.36,.73,.54,1.38,.54,.45,0,.86-.11,1.22-.34s.76-.59,1.19-1.1v-5.39h1.31v7.78h-1.07l-.11-1.36h-.06c-.39,.45-.83,.82-1.3,1.11-.47,.29-1,.44-1.6,.44Z"/><path class="cls-1" d="M108.71,214.87c-.76,0-1.4-.09-1.94-.26-.53-.17-.94-.42-1.22-.74-.28-.32-.42-.71-.42-1.17,0-.31,.11-.62,.33-.92,.22-.3,.54-.57,.95-.81v-.06c-.2-.12-.39-.28-.55-.48-.17-.2-.25-.47-.25-.8,0-.25,.08-.5,.24-.76,.16-.26,.39-.49,.69-.7v-.06c-.27-.2-.49-.47-.68-.82-.19-.34-.28-.74-.28-1.2,0-.57,.14-1.06,.42-1.47,.28-.42,.66-.74,1.12-.97,.46-.23,.97-.34,1.51-.34,.44,0,.82,.06,1.15,.19h3.22v1.07h-2.02c.18,.18,.34,.41,.46,.69s.19,.57,.19,.88c0,.55-.13,1.03-.4,1.43-.27,.4-.63,.71-1.08,.92-.45,.21-.96,.32-1.53,.32-.2,0-.42-.02-.65-.07s-.45-.12-.66-.22c-.19,.12-.34,.25-.45,.4-.11,.15-.16,.31-.16,.5,0,.3,.14,.52,.42,.67,.28,.15,.68,.22,1.19,.22h1.74c1,0,1.75,.14,2.23,.42s.73,.75,.73,1.41c0,.48-.18,.93-.53,1.34-.35,.42-.85,.75-1.5,1s-1.41,.38-2.3,.38Zm.1-.96c.61,0,1.13-.08,1.57-.22,.44-.15,.77-.34,1.01-.58,.23-.24,.35-.49,.35-.75,0-.37-.15-.62-.44-.75-.29-.13-.74-.19-1.34-.19h-1.52c-.22,0-.43-.01-.63-.03s-.38-.05-.55-.1c-.36,.2-.62,.41-.77,.63s-.22,.44-.22,.66c0,.41,.22,.73,.65,.97,.43,.24,1.06,.36,1.9,.36Zm-.18-5.97c.33,0,.63-.08,.9-.22,.27-.15,.49-.36,.65-.64s.24-.6,.24-.98-.08-.68-.24-.95c-.16-.27-.38-.49-.65-.64-.27-.15-.57-.23-.9-.23s-.62,.08-.89,.23c-.27,.16-.49,.37-.66,.64-.17,.27-.25,.59-.25,.95s.08,.7,.25,.98c.17,.28,.38,.49,.66,.64,.27,.15,.57,.22,.89,.22Z"/><path class="cls-1" d="M117.83,211.29v-6.7h-3.62v-1.07h4.93v7.78h-1.31Zm.51-9.41c-.3,0-.55-.09-.75-.28-.2-.19-.3-.43-.3-.74s.1-.56,.3-.74c.2-.19,.45-.28,.75-.28s.55,.09,.75,.28c.2,.19,.3,.43,.3,.74s-.1,.56-.3,.74c-.2,.19-.45,.28-.75,.28Z"/><path class="cls-1" d="M123.06,211.29v-7.78h1.09l.11,1.33h.06c.41-.44,.84-.8,1.31-1.09,.47-.29,1.01-.43,1.62-.43,.92,0,1.59,.27,2.03,.8s.66,1.31,.66,2.34v4.83h-1.31v-4.66c0-.74-.14-1.28-.42-1.64s-.74-.54-1.38-.54c-.46,0-.87,.12-1.23,.35-.36,.24-.77,.59-1.23,1.06v5.42h-1.31Z"/><path class="cls-1" d="M143.11,211.48c-.93,0-1.61-.27-2.05-.8-.44-.53-.66-1.31-.66-2.34v-4.83h1.33v4.66c0,.74,.14,1.28,.41,1.64,.27,.36,.73,.54,1.38,.54,.45,0,.86-.11,1.22-.34s.76-.59,1.19-1.1v-5.39h1.31v7.78h-1.07l-.11-1.36h-.06c-.39,.45-.83,.82-1.3,1.11-.47,.29-1,.44-1.6,.44Z"/><path class="cls-1" d="M152.93,211.48c-.76,0-1.47-.12-2.13-.37s-1.23-.53-1.7-.85l.61-.86c.45,.32,.94,.58,1.49,.77,.54,.19,1.17,.29,1.89,.29,.66,0,1.15-.12,1.48-.37,.33-.25,.49-.53,.49-.85,0-.15-.03-.29-.09-.42s-.17-.25-.34-.37c-.17-.12-.41-.23-.73-.34-.32-.11-.75-.21-1.28-.32-1.01-.21-1.77-.5-2.28-.86-.51-.36-.76-.83-.76-1.41,0-.63,.27-1.15,.82-1.58,.54-.42,1.35-.63,2.42-.63,.6,0,1.17,.1,1.73,.3s1.02,.43,1.41,.7l-.64,.85c-.35-.26-.75-.46-1.2-.6-.45-.14-.92-.22-1.41-.22-.45,0-.8,.05-1.06,.15s-.45,.24-.56,.41c-.11,.17-.17,.36-.17,.56,0,.33,.18,.59,.54,.78,.36,.19,.93,.36,1.72,.52,.86,.18,1.53,.38,1.99,.61,.46,.22,.78,.48,.96,.77,.18,.29,.26,.63,.26,1.02,0,.43-.13,.81-.4,1.16s-.66,.63-1.17,.84c-.51,.21-1.14,.32-1.89,.32Z"/><path class="cls-1" d="M162.05,211.48c-.78,0-1.49-.16-2.12-.48s-1.14-.79-1.51-1.4c-.37-.61-.56-1.35-.56-2.22s.19-1.57,.56-2.18c.37-.61,.86-1.07,1.46-1.4,.6-.33,1.25-.49,1.94-.49,.75,0,1.38,.15,1.91,.46,.53,.3,.93,.73,1.22,1.27,.28,.54,.42,1.18,.42,1.92,0,.15,0,.29-.02,.43s-.03,.26-.05,.37h-6.58v-1.02h5.79l-.34,.37c0-.92-.21-1.61-.63-2.06-.42-.46-.99-.69-1.7-.69-.48,0-.93,.12-1.34,.35-.41,.24-.74,.58-.98,1.02-.25,.45-.37,1-.37,1.65s.13,1.23,.4,1.68c.27,.45,.63,.79,1.09,1.02,.46,.23,.98,.34,1.55,.34,.47,0,.89-.07,1.27-.2,.38-.13,.74-.31,1.1-.54l.48,.86c-.38,.26-.82,.47-1.32,.66s-1.06,.27-1.69,.27Z"/><path class="cls-1" d="M170.53,211.48c-.76,0-1.47-.12-2.13-.37s-1.23-.53-1.7-.85l.61-.86c.45,.32,.94,.58,1.49,.77,.54,.19,1.17,.29,1.89,.29,.66,0,1.15-.12,1.48-.37,.33-.25,.49-.53,.49-.85,0-.15-.03-.29-.09-.42s-.17-.25-.34-.37c-.17-.12-.41-.23-.73-.34-.32-.11-.75-.21-1.28-.32-1.01-.21-1.77-.5-2.28-.86-.51-.36-.76-.83-.76-1.41,0-.63,.27-1.15,.82-1.58,.54-.42,1.35-.63,2.42-.63,.6,0,1.17,.1,1.73,.3s1.02,.43,1.41,.7l-.64,.85c-.35-.26-.75-.46-1.2-.6-.45-.14-.92-.22-1.41-.22-.45,0-.8,.05-1.06,.15s-.45,.24-.56,.41c-.11,.17-.17,.36-.17,.56,0,.33,.18,.59,.54,.78,.36,.19,.93,.36,1.72,.52,.86,.18,1.53,.38,1.99,.61,.46,.22,.78,.48,.96,.77,.18,.29,.26,.63,.26,1.02,0,.43-.13,.81-.4,1.16s-.66,.63-1.17,.84c-.51,.21-1.14,.32-1.89,.32Z"/><path class="cls-1" d="M189.47,211.48c-.76,0-1.35-.14-1.79-.41-.44-.27-.75-.65-.94-1.13-.19-.48-.28-1.04-.28-1.68v-3.68h-2.19v-.99l2.24-.08,.18-2.5h1.09v2.5h3.82v1.07h-3.82v3.7c0,.46,.06,.85,.18,1.17,.12,.32,.32,.56,.61,.72s.68,.24,1.18,.24c.37,0,.71-.03,1.01-.1,.3-.06,.59-.15,.86-.26l.29,.96c-.35,.13-.72,.24-1.11,.33-.39,.09-.83,.14-1.32,.14Z"/><path class="cls-1" d="M193.46,211.29v-11.39h1.31v3.1l-.08,1.84h.05c.39-.43,.83-.79,1.3-1.08,.47-.29,1.01-.44,1.62-.44,.92,0,1.59,.27,2.03,.8s.66,1.31,.66,2.34v4.83h-1.31v-4.66c0-.74-.14-1.28-.42-1.64s-.74-.54-1.38-.54c-.46,0-.87,.12-1.23,.35-.36,.24-.77,.59-1.23,1.06v5.42h-1.31Z"/><path class="cls-1" d="M206.05,211.48c-.78,0-1.49-.16-2.12-.48s-1.14-.79-1.51-1.4c-.37-.61-.56-1.35-.56-2.22s.19-1.57,.56-2.18c.37-.61,.86-1.07,1.46-1.4,.6-.33,1.25-.49,1.94-.49,.75,0,1.38,.15,1.91,.46,.53,.3,.93,.73,1.22,1.27,.28,.54,.42,1.18,.42,1.92,0,.15,0,.29-.02,.43s-.03,.26-.05,.37h-6.58v-1.02h5.79l-.34,.37c0-.92-.21-1.61-.63-2.06-.42-.46-.99-.69-1.7-.69-.48,0-.93,.12-1.34,.35-.41,.24-.74,.58-.98,1.02-.25,.45-.37,1-.37,1.65s.13,1.23,.4,1.68c.27,.45,.63,.79,1.09,1.02,.46,.23,.98,.34,1.55,.34,.47,0,.89-.07,1.27-.2,.38-.13,.74-.31,1.1-.54l.48,.86c-.38,.26-.82,.47-1.32,.66s-1.06,.27-1.69,.27Z"/><path class="cls-1" d="M37.18,237.72v-13.76h4.43v.75h-3.38v12.26h3.38v.75h-4.43Z"/><path class="cls-1" d="M43.86,235.29v-7.78h1.09l.11,1.33h.06c.41-.44,.84-.8,1.31-1.09,.47-.29,1.01-.43,1.62-.43,.92,0,1.59,.27,2.03,.8s.66,1.31,.66,2.34v4.83h-1.31v-4.66c0-.74-.14-1.28-.42-1.64s-.74-.54-1.38-.54c-.46,0-.87,.12-1.23,.35-.36,.24-.77,.59-1.23,1.06v5.42h-1.31Z"/><path class="cls-1" d="M52.66,238.57v-11.06h1.09l.11,.99h.05c.36-.34,.78-.62,1.26-.85,.47-.22,.95-.34,1.43-.34,.7,0,1.29,.16,1.77,.49,.47,.33,.83,.78,1.08,1.38,.25,.59,.37,1.29,.37,2.1,0,.88-.17,1.63-.5,2.26-.33,.63-.76,1.11-1.3,1.44-.53,.33-1.11,.5-1.74,.5-.35,0-.74-.09-1.16-.26-.42-.18-.81-.42-1.16-.74h-.05l.06,1.47v2.62h-1.31Zm3.39-4.19c.46,0,.87-.12,1.23-.37,.36-.25,.65-.6,.86-1.06s.31-1.02,.31-1.66c0-.57-.08-1.06-.22-1.5s-.38-.77-.7-1.01c-.32-.24-.74-.36-1.26-.36-.35,0-.72,.09-1.11,.28-.39,.19-.78,.48-1.18,.89v3.87c.37,.33,.75,.57,1.13,.7s.7,.21,.95,.21Z"/><path class="cls-1" d="M60.9,235.29v-7.78h1.06l.11,1.02h.03c.2-.36,.44-.66,.7-.88,.27-.22,.62-.34,1.07-.34,.38,0,.7,.11,.94,.34,.25,.22,.42,.56,.53,1.01,.22-.42,.47-.74,.74-.98,.27-.24,.63-.36,1.08-.36,.54,0,.97,.21,1.27,.62,.3,.41,.46,1,.46,1.78v5.57h-1.31v-5.47c0-.91-.28-1.36-.83-1.36-.27,0-.49,.1-.66,.3s-.37,.5-.58,.9v5.63h-1.22v-5.47c0-.45-.06-.79-.18-1.02-.12-.23-.33-.34-.62-.34-.27,0-.5,.1-.7,.3s-.39,.5-.58,.9v5.63h-1.31Z"/><path class="cls-1" d="M70.13,230.5v-.99h6.88v.99h-6.88Z"/><path class="cls-1" d="M79.06,238.57v-11.06h1.09l.11,.99h.05c.36-.34,.78-.62,1.26-.85,.47-.22,.95-.34,1.43-.34,.7,0,1.29,.16,1.77,.49,.47,.33,.83,.78,1.08,1.38,.25,.59,.37,1.29,.37,2.1,0,.88-.17,1.63-.5,2.26-.33,.63-.76,1.11-1.3,1.44-.53,.33-1.11,.5-1.74,.5-.35,0-.74-.09-1.16-.26-.42-.18-.81-.42-1.16-.74h-.05l.06,1.47v2.62h-1.31Zm3.39-4.19c.46,0,.87-.12,1.23-.37,.36-.25,.65-.6,.86-1.06s.31-1.02,.31-1.66c0-.57-.08-1.06-.22-1.5s-.38-.77-.7-1.01c-.32-.24-.74-.36-1.26-.36-.35,0-.72,.09-1.11,.28-.39,.19-.78,.48-1.18,.89v3.87c.37,.33,.75,.57,1.13,.7s.7,.21,.95,.21Z"/><path class="cls-1" d="M90.31,235.48c-.93,0-1.61-.27-2.05-.8-.44-.53-.66-1.31-.66-2.34v-4.83h1.33v4.66c0,.74,.14,1.28,.41,1.64,.27,.36,.73,.54,1.38,.54,.45,0,.86-.11,1.22-.34s.76-.59,1.19-1.1v-5.39h1.31v7.78h-1.07l-.11-1.36h-.06c-.39,.45-.83,.82-1.3,1.11-.47,.29-1,.44-1.6,.44Z"/><path class="cls-1" d="M100.29,235.48c-.38,0-.79-.09-1.22-.28-.43-.19-.83-.45-1.19-.78h-.05l-.11,.86h-1.06v-11.39h1.31v3.1l-.05,1.5h.05c.35-.36,.76-.65,1.22-.86,.46-.21,.92-.32,1.38-.32,.7,0,1.3,.16,1.78,.49,.48,.33,.84,.78,1.09,1.38,.25,.59,.37,1.29,.37,2.09,0,.88-.16,1.64-.49,2.27-.33,.63-.75,1.11-1.29,1.44-.53,.33-1.12,.5-1.74,.5Zm-.21-1.1c.45,0,.85-.12,1.21-.37,.36-.25,.64-.6,.85-1.06s.31-1.02,.31-1.66c0-.57-.08-1.06-.22-1.5s-.38-.77-.7-1.01c-.32-.24-.74-.36-1.26-.36-.35,0-.72,.09-1.11,.28-.39,.19-.78,.48-1.18,.89v3.87c.37,.33,.75,.57,1.13,.7s.71,.21,.98,.21Z"/><path class="cls-1" d="M110.47,235.48c-.82,0-1.45-.24-1.89-.71-.44-.47-.66-1.17-.66-2.09v-7.71h-2.66v-1.07h3.97v8.88c0,.57,.14,.98,.42,1.23s.65,.38,1.1,.38c.22,0,.45-.03,.69-.09,.23-.06,.5-.15,.78-.28l.34,.99c-.35,.13-.68,.24-.99,.33-.31,.09-.68,.14-1.1,.14Z"/><path class="cls-1" d="M117.83,235.29v-6.7h-3.62v-1.07h4.93v7.78h-1.31Zm.51-9.41c-.3,0-.55-.09-.75-.28-.2-.19-.3-.43-.3-.74s.1-.56,.3-.74c.2-.19,.45-.28,.75-.28s.55,.09,.75,.28c.2,.19,.3,.43,.3,.74s-.1,.56-.3,.74c-.2,.19-.45,.28-.75,.28Z"/><path class="cls-1" d="M126.53,235.48c-.76,0-1.47-.12-2.13-.37s-1.23-.53-1.7-.85l.61-.86c.45,.32,.94,.58,1.49,.77,.54,.19,1.17,.29,1.89,.29,.66,0,1.15-.12,1.48-.37,.33-.25,.49-.53,.49-.85,0-.15-.03-.29-.09-.42s-.17-.25-.34-.37c-.17-.12-.41-.23-.73-.34-.32-.11-.75-.21-1.28-.32-1.01-.21-1.77-.5-2.28-.86-.51-.36-.76-.83-.76-1.41,0-.63,.27-1.15,.82-1.58,.54-.42,1.35-.63,2.42-.63,.6,0,1.17,.1,1.73,.3s1.02,.43,1.41,.7l-.64,.85c-.35-.26-.75-.46-1.2-.6-.45-.14-.92-.22-1.41-.22-.45,0-.8,.05-1.06,.15s-.45,.24-.56,.41c-.11,.17-.17,.36-.17,.56,0,.33,.18,.59,.54,.78,.36,.19,.93,.36,1.72,.52,.86,.18,1.53,.38,1.99,.61,.46,.22,.78,.48,.96,.77,.18,.29,.26,.63,.26,1.02,0,.43-.13,.81-.4,1.16s-.66,.63-1.17,.84c-.51,.21-1.14,.32-1.89,.32Z"/><path class="cls-1" d="M131.86,235.29v-11.39h1.31v3.1l-.08,1.84h.05c.39-.43,.83-.79,1.3-1.08,.47-.29,1.01-.44,1.62-.44,.92,0,1.59,.27,2.03,.8s.66,1.31,.66,2.34v4.83h-1.31v-4.66c0-.74-.14-1.28-.42-1.64s-.74-.54-1.38-.54c-.46,0-.87,.12-1.23,.35-.36,.24-.77,.59-1.23,1.06v5.42h-1.31Z"/><path class="cls-1" d="M140.53,230.5v-.99h6.88v.99h-6.88Z"/><path class="cls-1" d="M151.91,235.48c-.48,0-.92-.09-1.33-.26-.41-.18-.73-.43-.96-.76-.24-.33-.35-.73-.35-1.18,0-.88,.44-1.54,1.31-1.99,.87-.45,2.31-.76,4.32-.92-.01-.35-.08-.68-.22-.98-.13-.3-.35-.54-.65-.71-.3-.18-.7-.26-1.2-.26-.33,0-.66,.04-.98,.14s-.63,.21-.93,.35c-.29,.14-.56,.29-.81,.44l-.51-.9c.26-.17,.57-.34,.94-.52,.37-.18,.76-.32,1.19-.43,.43-.11,.87-.17,1.33-.17,.71,0,1.3,.13,1.77,.4,.46,.27,.81,.64,1.04,1.11,.23,.47,.34,1.04,.34,1.69v4.77h-1.07l-.11-1.06h-.05c-.43,.34-.91,.63-1.44,.88-.53,.25-1.08,.37-1.63,.37Zm.35-1.06c.45,0,.89-.1,1.33-.3,.44-.2,.87-.49,1.31-.85v-2.05c-1.11,.1-1.98,.23-2.62,.4-.63,.17-1.08,.39-1.34,.65-.26,.26-.39,.56-.39,.9,0,.29,.08,.53,.24,.71,.16,.19,.37,.32,.63,.41,.26,.09,.54,.13,.84,.13Z"/><path class="cls-1" d="M162.31,235.48c-.81,0-1.54-.16-2.18-.48s-1.15-.78-1.52-1.39c-.37-.61-.55-1.34-.55-2.19s.2-1.62,.59-2.22c.39-.61,.92-1.07,1.58-1.39,.66-.32,1.38-.48,2.17-.48,.64,0,1.19,.11,1.66,.34,.46,.22,.86,.49,1.18,.8l-.66,.85c-.32-.28-.65-.5-.99-.66-.34-.16-.72-.24-1.14-.24-.6,0-1.13,.12-1.58,.38-.46,.25-.81,.6-1.06,1.06-.25,.45-.38,.98-.38,1.58s.12,1.1,.37,1.55c.25,.45,.59,.8,1.05,1.05,.45,.25,.98,.38,1.58,.38,.48,0,.92-.1,1.32-.29,.4-.19,.76-.42,1.08-.69l.59,.85c-.43,.38-.9,.68-1.43,.9-.53,.21-1.08,.32-1.66,.32Z"/><path class="cls-1" d="M171.87,235.48c-.76,0-1.35-.14-1.79-.41-.44-.27-.75-.65-.94-1.13-.19-.48-.28-1.04-.28-1.68v-3.68h-2.19v-.99l2.24-.08,.18-2.5h1.09v2.5h3.82v1.07h-3.82v3.7c0,.46,.06,.85,.18,1.17,.12,.32,.32,.56,.61,.72s.68,.24,1.18,.24c.37,0,.71-.03,1.01-.1,.3-.06,.59-.15,.86-.26l.29,.96c-.35,.13-.72,.24-1.11,.33-.39,.09-.83,.14-1.32,.14Z"/><path class="cls-1" d="M179.43,235.29v-6.7h-3.62v-1.07h4.93v7.78h-1.31Zm.51-9.41c-.3,0-.55-.09-.75-.28-.2-.19-.3-.43-.3-.74s.1-.56,.3-.74c.2-.19,.45-.28,.75-.28s.55,.09,.75,.28c.2,.19,.3,.43,.3,.74s-.1,.56-.3,.74c-.2,.19-.45,.28-.75,.28Z"/><path class="cls-1" d="M187.97,235.48c-.68,0-1.31-.16-1.9-.48-.58-.32-1.05-.78-1.41-1.39-.36-.61-.54-1.34-.54-2.19s.18-1.62,.54-2.22c.36-.61,.83-1.07,1.41-1.39,.58-.32,1.21-.48,1.9-.48s1.31,.16,1.9,.48c.58,.32,1.05,.78,1.41,1.39,.36,.61,.54,1.35,.54,2.22s-.18,1.58-.54,2.19c-.36,.61-.83,1.07-1.41,1.39-.58,.32-1.21,.48-1.9,.48Zm0-1.09c.5,0,.94-.12,1.31-.38,.37-.25,.66-.6,.86-1.05,.2-.45,.3-.96,.3-1.55s-.1-1.12-.3-1.58c-.2-.45-.49-.8-.86-1.06-.37-.25-.81-.38-1.31-.38s-.94,.12-1.3,.38-.66,.6-.86,1.06c-.21,.45-.31,.98-.31,1.58s.1,1.1,.31,1.55c.21,.45,.5,.8,.86,1.05,.37,.25,.8,.38,1.3,.38Z"/><path class="cls-1" d="M193.46,235.29v-7.78h1.09l.11,1.33h.06c.41-.44,.84-.8,1.31-1.09,.47-.29,1.01-.43,1.62-.43,.92,0,1.59,.27,2.03,.8s.66,1.31,.66,2.34v4.83h-1.31v-4.66c0-.74-.14-1.28-.42-1.64s-.74-.54-1.38-.54c-.46,0-.87,.12-1.23,.35-.36,.24-.77,.59-1.23,1.06v5.42h-1.31Z"/><path class="cls-1" d="M202.34,237.72v-.75h3.38v-12.26h-3.38v-.75h4.43v13.76h-4.43Z"/><path class="cls-1" d="M216.5,238.1c-1.11-.88-1.99-1.92-2.63-3.13-.65-1.21-.97-2.59-.97-4.14s.32-2.93,.97-4.14,1.52-2.26,2.63-3.12l.72,.67c-1.07,.9-1.86,1.88-2.37,2.96-.51,1.08-.77,2.29-.77,3.63s.26,2.55,.77,3.62c.51,1.07,1.3,2.06,2.37,2.97l-.72,.67Z"/><path class="cls-1" d="M219.86,235.29v-11.39h1.31v3.1l-.08,1.84h.05c.39-.43,.83-.79,1.3-1.08,.47-.29,1.01-.44,1.62-.44,.92,0,1.59,.27,2.03,.8s.66,1.31,.66,2.34v4.83h-1.31v-4.66c0-.74-.14-1.28-.42-1.64s-.74-.54-1.38-.54c-.46,0-.87,.12-1.23,.35-.36,.24-.77,.59-1.23,1.06v5.42h-1.31Z"/><path class="cls-1" d="M233.47,235.48c-.76,0-1.35-.14-1.79-.41-.44-.27-.75-.65-.94-1.13-.19-.48-.28-1.04-.28-1.68v-3.68h-2.19v-.99l2.24-.08,.18-2.5h1.09v2.5h3.82v1.07h-3.82v3.7c0,.46,.06,.85,.18,1.17,.12,.32,.32,.56,.61,.72s.68,.24,1.18,.24c.37,0,.71-.03,1.01-.1,.3-.06,.59-.15,.86-.26l.29,.96c-.35,.13-.72,.24-1.11,.33-.39,.09-.83,.14-1.32,.14Z"/><path class="cls-1" d="M242.27,235.48c-.76,0-1.35-.14-1.79-.41-.44-.27-.75-.65-.94-1.13-.19-.48-.28-1.04-.28-1.68v-3.68h-2.19v-.99l2.24-.08,.18-2.5h1.09v2.5h3.82v1.07h-3.82v3.7c0,.46,.06,.85,.18,1.17,.12,.32,.32,.56,.61,.72s.68,.24,1.18,.24c.37,0,.71-.03,1.01-.1,.3-.06,.59-.15,.86-.26l.29,.96c-.35,.13-.72,.24-1.11,.33-.39,.09-.83,.14-1.32,.14Z"/><path class="cls-1" d="M246.25,238.57v-11.06h1.09l.11,.99h.05c.36-.34,.78-.62,1.26-.85,.47-.22,.95-.34,1.43-.34,.7,0,1.29,.16,1.77,.49,.47,.33,.83,.78,1.08,1.38,.25,.59,.37,1.29,.37,2.1,0,.88-.17,1.63-.5,2.26-.33,.63-.76,1.11-1.3,1.44-.53,.33-1.11,.5-1.74,.5-.35,0-.74-.09-1.16-.26-.42-.18-.81-.42-1.16-.74h-.05l.06,1.47v2.62h-1.31Zm3.39-4.19c.46,0,.87-.12,1.23-.37,.36-.25,.65-.6,.86-1.06s.31-1.02,.31-1.66c0-.57-.08-1.06-.22-1.5s-.38-.77-.7-1.01c-.32-.24-.74-.36-1.26-.36-.35,0-.72,.09-1.11,.28-.39,.19-.78,.48-1.18,.89v3.87c.37,.33,.75,.57,1.13,.7s.7,.21,.95,.21Z"/><path class="cls-1" d="M258.53,235.48c-.76,0-1.47-.12-2.13-.37s-1.23-.53-1.7-.85l.61-.86c.45,.32,.94,.58,1.49,.77,.54,.19,1.17,.29,1.89,.29,.66,0,1.15-.12,1.48-.37,.33-.25,.49-.53,.49-.85,0-.15-.03-.29-.09-.42s-.17-.25-.34-.37c-.17-.12-.41-.23-.73-.34-.32-.11-.75-.21-1.28-.32-1.01-.21-1.77-.5-2.28-.86-.51-.36-.76-.83-.76-1.41,0-.63,.27-1.15,.82-1.58,.54-.42,1.35-.63,2.42-.63,.6,0,1.17,.1,1.73,.3s1.02,.43,1.41,.7l-.64,.85c-.35-.26-.75-.46-1.2-.6-.45-.14-.92-.22-1.41-.22-.45,0-.8,.05-1.06,.15s-.45,.24-.56,.41c-.11,.17-.17,.36-.17,.56,0,.33,.18,.59,.54,.78,.36,.19,.93,.36,1.72,.52,.86,.18,1.53,.38,1.99,.61,.46,.22,.78,.48,.96,.77,.18,.29,.26,.63,.26,1.02,0,.43-.13,.81-.4,1.16s-.66,.63-1.17,.84c-.51,.21-1.14,.32-1.89,.32Z"/><path class="cls-1" d="M267.17,229.75c-.35,0-.66-.12-.91-.38-.26-.25-.38-.57-.38-.97s.13-.73,.38-.98c.26-.25,.56-.38,.91-.38s.67,.13,.92,.38,.38,.58,.38,.98-.12,.72-.38,.97c-.25,.25-.56,.38-.92,.38Zm0,5.73c-.35,0-.66-.13-.91-.38-.26-.25-.38-.57-.38-.97s.13-.73,.38-.98,.56-.38,.91-.38,.67,.12,.92,.38c.25,.25,.38,.58,.38,.98s-.12,.72-.38,.97-.56,.38-.92,.38Z"/><path class="cls-1" d="M272.75,237.85l5.25-13.92h1.18l-5.25,13.92h-1.18Z"/><path class="cls-1" d="M281.55,237.85l5.25-13.92h1.18l-5.25,13.92h-1.18Z"/><path class="cls-1" d="M293.5,238.87c-.76,0-1.4-.09-1.94-.26-.53-.17-.94-.42-1.22-.74-.28-.32-.42-.71-.42-1.17,0-.31,.11-.62,.33-.92,.22-.3,.54-.57,.95-.81v-.06c-.2-.12-.39-.28-.55-.48-.17-.2-.25-.47-.25-.8,0-.25,.08-.5,.24-.76,.16-.26,.39-.49,.69-.7v-.06c-.27-.2-.49-.47-.68-.82-.19-.34-.28-.74-.28-1.2,0-.57,.14-1.06,.42-1.47,.28-.42,.66-.74,1.12-.97,.46-.23,.97-.34,1.51-.34,.44,0,.82,.06,1.15,.19h3.22v1.07h-2.02c.18,.18,.34,.41,.46,.69s.19,.57,.19,.88c0,.55-.13,1.03-.4,1.43-.27,.4-.63,.71-1.08,.92-.45,.21-.96,.32-1.53,.32-.2,0-.42-.02-.65-.07s-.45-.12-.66-.22c-.19,.12-.34,.25-.45,.4-.11,.15-.16,.31-.16,.5,0,.3,.14,.52,.42,.67,.28,.15,.68,.22,1.19,.22h1.74c1,0,1.75,.14,2.23,.42s.73,.75,.73,1.41c0,.48-.18,.93-.53,1.34-.35,.42-.85,.75-1.5,1s-1.41,.38-2.3,.38Zm.1-.96c.61,0,1.13-.08,1.57-.22,.44-.15,.77-.34,1.01-.58,.23-.24,.35-.49,.35-.75,0-.37-.15-.62-.44-.75-.29-.13-.74-.19-1.34-.19h-1.52c-.22,0-.43-.01-.63-.03s-.38-.05-.55-.1c-.36,.2-.62,.41-.77,.63s-.22,.44-.22,.66c0,.41,.22,.73,.65,.97,.43,.24,1.06,.36,1.9,.36Zm-.18-5.97c.33,0,.63-.08,.9-.22,.27-.15,.49-.36,.65-.64s.24-.6,.24-.98-.08-.68-.24-.95c-.16-.27-.38-.49-.65-.64-.27-.15-.57-.23-.9-.23s-.62,.08-.89,.23c-.27,.16-.49,.37-.66,.64-.17,.27-.25,.59-.25,.95s.08,.7,.25,.98c.17,.28,.38,.49,.66,.64,.27,.15,.57,.22,.89,.22Z"/><path class="cls-1" d="M302.62,235.29v-6.7h-3.62v-1.07h4.93v7.78h-1.31Zm.51-9.41c-.3,0-.55-.09-.75-.28-.2-.19-.3-.43-.3-.74s.1-.56,.3-.74c.2-.19,.45-.28,.75-.28s.55,.09,.75,.28c.2,.19,.3,.43,.3,.74s-.1,.56-.3,.74c-.2,.19-.45,.28-.75,.28Z"/><path class="cls-1" d="M312.67,235.48c-.76,0-1.35-.14-1.79-.41-.44-.27-.75-.65-.94-1.13-.19-.48-.28-1.04-.28-1.68v-3.68h-2.19v-.99l2.24-.08,.18-2.5h1.09v2.5h3.82v1.07h-3.82v3.7c0,.46,.06,.85,.18,1.17,.12,.32,.32,.56,.61,.72s.68,.24,1.18,.24c.37,0,.71-.03,1.01-.1,.3-.06,.59-.15,.86-.26l.29,.96c-.35,.13-.72,.24-1.11,.33-.39,.09-.83,.14-1.32,.14Z"/><path class="cls-1" d="M316.65,235.29v-11.39h1.31v3.1l-.08,1.84h.05c.39-.43,.83-.79,1.3-1.08,.47-.29,1.01-.44,1.62-.44,.92,0,1.59,.27,2.03,.8s.66,1.31,.66,2.34v4.83h-1.31v-4.66c0-.74-.14-1.28-.42-1.64s-.74-.54-1.38-.54c-.46,0-.87,.12-1.23,.35-.36,.24-.77,.59-1.23,1.06v5.42h-1.31Z"/><path class="cls-1" d="M327.9,235.48c-.93,0-1.61-.27-2.05-.8-.44-.53-.66-1.31-.66-2.34v-4.83h1.33v4.66c0,.74,.14,1.28,.41,1.64,.27,.36,.73,.54,1.38,.54,.45,0,.86-.11,1.22-.34s.76-.59,1.19-1.1v-5.39h1.31v7.78h-1.07l-.11-1.36h-.06c-.39,.45-.83,.82-1.3,1.11-.47,.29-1,.44-1.6,.44Z"/><path class="cls-1" d="M337.88,235.48c-.38,0-.79-.09-1.22-.28-.43-.19-.83-.45-1.19-.78h-.05l-.11,.86h-1.06v-11.39h1.31v3.1l-.05,1.5h.05c.35-.36,.76-.65,1.22-.86,.46-.21,.92-.32,1.38-.32,.7,0,1.3,.16,1.78,.49,.48,.33,.84,.78,1.09,1.38,.25,.59,.37,1.29,.37,2.09,0,.88-.16,1.64-.49,2.27-.33,.63-.75,1.11-1.29,1.44-.53,.33-1.12,.5-1.74,.5Zm-.21-1.1c.45,0,.85-.12,1.21-.37,.36-.25,.64-.6,.85-1.06s.31-1.02,.31-1.66c0-.57-.08-1.06-.22-1.5s-.38-.77-.7-1.01c-.32-.24-.74-.36-1.26-.36-.35,0-.72,.09-1.11,.28-.39,.19-.78,.48-1.18,.89v3.87c.37,.33,.75,.57,1.13,.7s.71,.21,.98,.21Z"/><path class="cls-1" d="M346.36,235.48c-.35,0-.66-.13-.91-.38-.26-.25-.38-.57-.38-.97s.13-.73,.38-.98,.56-.38,.91-.38,.67,.12,.92,.38c.25,.25,.38,.58,.38,.98s-.12,.72-.38,.97-.56,.38-.92,.38Z"/><path class="cls-1" d="M355.9,235.48c-.81,0-1.54-.16-2.18-.48s-1.15-.78-1.52-1.39c-.37-.61-.55-1.34-.55-2.19s.2-1.62,.59-2.22c.39-.61,.92-1.07,1.58-1.39,.66-.32,1.38-.48,2.17-.48,.64,0,1.19,.11,1.66,.34,.46,.22,.86,.49,1.18,.8l-.66,.85c-.32-.28-.65-.5-.99-.66-.34-.16-.72-.24-1.14-.24-.6,0-1.13,.12-1.58,.38-.46,.25-.81,.6-1.06,1.06-.25,.45-.38,.98-.38,1.58s.12,1.1,.37,1.55c.25,.45,.59,.8,1.05,1.05,.45,.25,.98,.38,1.58,.38,.48,0,.92-.1,1.32-.29,.4-.19,.76-.42,1.08-.69l.59,.85c-.43,.38-.9,.68-1.43,.9-.53,.21-1.08,.32-1.66,.32Z"/><path class="cls-1" d="M363.96,235.48c-.68,0-1.31-.16-1.9-.48-.58-.32-1.05-.78-1.41-1.39-.36-.61-.54-1.34-.54-2.19s.18-1.62,.54-2.22c.36-.61,.83-1.07,1.41-1.39,.58-.32,1.21-.48,1.9-.48s1.31,.16,1.9,.48c.58,.32,1.05,.78,1.41,1.39,.36,.61,.54,1.35,.54,2.22s-.18,1.58-.54,2.19c-.36,.61-.83,1.07-1.41,1.39-.58,.32-1.21,.48-1.9,.48Zm0-1.09c.5,0,.94-.12,1.31-.38,.37-.25,.66-.6,.86-1.05,.2-.45,.3-.96,.3-1.55s-.1-1.12-.3-1.58c-.2-.45-.49-.8-.86-1.06-.37-.25-.81-.38-1.31-.38s-.94,.12-1.3,.38-.66,.6-.86,1.06c-.21,.45-.31,.98-.31,1.58s.1,1.1,.31,1.55c.21,.45,.5,.8,.86,1.05,.37,.25,.8,.38,1.3,.38Z"/><path class="cls-1" d="M368.89,235.29v-7.78h1.06l.11,1.02h.03c.2-.36,.44-.66,.7-.88,.27-.22,.62-.34,1.07-.34,.38,0,.7,.11,.94,.34,.25,.22,.42,.56,.53,1.01,.22-.42,.47-.74,.74-.98,.27-.24,.63-.36,1.08-.36,.54,0,.97,.21,1.27,.62,.3,.41,.46,1,.46,1.78v5.57h-1.31v-5.47c0-.91-.28-1.36-.83-1.36-.27,0-.49,.1-.66,.3s-.37,.5-.58,.9v5.63h-1.22v-5.47c0-.45-.06-.79-.18-1.02-.12-.23-.33-.34-.62-.34-.27,0-.5,.1-.7,.3s-.39,.5-.58,.9v5.63h-1.31Z"/><path class="cls-1" d="M378.34,237.85l5.25-13.92h1.18l-5.25,13.92h-1.18Z"/><path class="cls-1" d="M386.49,235.29v-7.78h1.06l.11,1.02h.03c.2-.36,.44-.66,.7-.88,.27-.22,.62-.34,1.07-.34,.38,0,.7,.11,.94,.34,.25,.22,.42,.56,.53,1.01,.22-.42,.47-.74,.74-.98,.27-.24,.63-.36,1.08-.36,.54,0,.97,.21,1.27,.62,.3,.41,.46,1,.46,1.78v5.57h-1.31v-5.47c0-.91-.28-1.36-.83-1.36-.27,0-.49,.1-.66,.3s-.37,.5-.58,.9v5.63h-1.22v-5.47c0-.45-.06-.79-.18-1.02-.12-.23-.33-.34-.62-.34-.27,0-.5,.1-.7,.3s-.39,.5-.58,.9v5.63h-1.31Z"/><path class="cls-1" d="M398.3,235.48c-.48,0-.92-.09-1.33-.26-.41-.18-.73-.43-.96-.76-.24-.33-.35-.73-.35-1.18,0-.88,.44-1.54,1.31-1.99,.87-.45,2.31-.76,4.32-.92-.01-.35-.08-.68-.22-.98-.13-.3-.35-.54-.65-.71-.3-.18-.7-.26-1.2-.26-.33,0-.66,.04-.98,.14s-.63,.21-.93,.35c-.29,.14-.56,.29-.81,.44l-.51-.9c.26-.17,.57-.34,.94-.52,.37-.18,.76-.32,1.19-.43,.43-.11,.87-.17,1.33-.17,.71,0,1.3,.13,1.77,.4,.46,.27,.81,.64,1.04,1.11,.23,.47,.34,1.04,.34,1.69v4.77h-1.07l-.11-1.06h-.05c-.43,.34-.91,.63-1.44,.88-.53,.25-1.08,.37-1.63,.37Zm.35-1.06c.45,0,.89-.1,1.33-.3,.44-.2,.87-.49,1.31-.85v-2.05c-1.11,.1-1.98,.23-2.62,.4-.63,.17-1.08,.39-1.34,.65-.26,.26-.39,.56-.39,.9,0,.29,.08,.53,.24,.71,.16,.19,.37,.32,.63,.41,.26,.09,.54,.13,.84,.13Z"/><path class="cls-1" d="M405.5,235.29v-7.78h1.09l.11,1.84h.05c.41-.63,.91-1.13,1.5-1.49s1.25-.54,1.97-.54c.29,0,.56,.02,.81,.07,.25,.05,.49,.13,.73,.25l-.3,1.14c-.27-.1-.5-.17-.69-.21-.19-.04-.44-.06-.75-.06-.59,0-1.15,.17-1.69,.5-.54,.34-1.04,.91-1.51,1.72v4.56h-1.31Z"/><path class="cls-1" d="M413.66,235.29v-11.39h1.31v7.71h.06l4.19-4.1h1.5l-5.76,5.66v2.11h-1.31Zm6.02,0l-3.04-4.14,.8-.85,3.71,4.99h-1.47Z"/><path class="cls-1" d="M426.04,235.48c-.78,0-1.49-.16-2.12-.48s-1.14-.79-1.51-1.4c-.37-.61-.56-1.35-.56-2.22s.19-1.57,.56-2.18c.37-.61,.86-1.07,1.46-1.4,.6-.33,1.25-.49,1.94-.49,.75,0,1.38,.15,1.91,.46,.53,.3,.93,.73,1.22,1.27,.28,.54,.42,1.18,.42,1.92,0,.15,0,.29-.02,.43s-.03,.26-.05,.37h-6.58v-1.02h5.79l-.34,.37c0-.92-.21-1.61-.63-2.06-.42-.46-.99-.69-1.7-.69-.48,0-.93,.12-1.34,.35-.41,.24-.74,.58-.98,1.02-.25,.45-.37,1-.37,1.65s.13,1.23,.4,1.68c.27,.45,.63,.79,1.09,1.02,.46,.23,.98,.34,1.55,.34,.47,0,.89-.07,1.27-.2,.38-.13,.74-.31,1.1-.54l.48,.86c-.38,.26-.82,.47-1.32,.66s-1.06,.27-1.69,.27Z"/><path class="cls-1" d="M435.86,235.48c-.76,0-1.35-.14-1.79-.41-.44-.27-.75-.65-.94-1.13-.19-.48-.28-1.04-.28-1.68v-3.68h-2.19v-.99l2.24-.08,.18-2.5h1.09v2.5h3.82v1.07h-3.82v3.7c0,.46,.06,.85,.18,1.17,.12,.32,.32,.56,.61,.72s.68,.24,1.18,.24c.37,0,.71-.03,1.01-.1,.3-.06,.59-.15,.86-.26l.29,.96c-.35,.13-.72,.24-1.11,.33-.39,.09-.83,.14-1.32,.14Z"/><path class="cls-1" d="M439.85,238.57v-11.06h1.09l.11,.99h.05c.36-.34,.78-.62,1.26-.85,.47-.22,.95-.34,1.43-.34,.7,0,1.29,.16,1.77,.49,.47,.33,.83,.78,1.08,1.38,.25,.59,.37,1.29,.37,2.1,0,.88-.17,1.63-.5,2.26-.33,.63-.76,1.11-1.3,1.44-.53,.33-1.11,.5-1.74,.5-.35,0-.74-.09-1.16-.26-.42-.18-.81-.42-1.16-.74h-.05l.06,1.47v2.62h-1.31Zm3.39-4.19c.46,0,.87-.12,1.23-.37,.36-.25,.65-.6,.86-1.06s.31-1.02,.31-1.66c0-.57-.08-1.06-.22-1.5s-.38-.77-.7-1.01c-.32-.24-.74-.36-1.26-.36-.35,0-.72,.09-1.11,.28-.39,.19-.78,.48-1.18,.89v3.87c.37,.33,.75,.57,1.13,.7s.7,.21,.95,.21Z"/><path class="cls-1" d="M453.65,235.48c-.82,0-1.45-.24-1.89-.71-.44-.47-.66-1.17-.66-2.09v-7.71h-2.66v-1.07h3.97v8.88c0,.57,.14,.98,.42,1.23s.65,.38,1.1,.38c.22,0,.45-.03,.69-.09,.23-.06,.5-.15,.78-.28l.34,.99c-.35,.13-.68,.24-.99,.33-.31,.09-.68,.14-1.1,.14Z"/><path class="cls-1" d="M459.89,235.48c-.48,0-.92-.09-1.33-.26-.41-.18-.73-.43-.96-.76-.24-.33-.35-.73-.35-1.18,0-.88,.44-1.54,1.31-1.99,.87-.45,2.31-.76,4.32-.92-.01-.35-.08-.68-.22-.98-.13-.3-.35-.54-.65-.71-.3-.18-.7-.26-1.2-.26-.33,0-.66,.04-.98,.14s-.63,.21-.93,.35c-.29,.14-.56,.29-.81,.44l-.51-.9c.26-.17,.57-.34,.94-.52,.37-.18,.76-.32,1.19-.43,.43-.11,.87-.17,1.33-.17,.71,0,1.3,.13,1.77,.4,.46,.27,.81,.64,1.04,1.11,.23,.47,.34,1.04,.34,1.69v4.77h-1.07l-.11-1.06h-.05c-.43,.34-.91,.63-1.44,.88-.53,.25-1.08,.37-1.63,.37Zm.35-1.06c.45,0,.89-.1,1.33-.3,.44-.2,.87-.49,1.31-.85v-2.05c-1.11,.1-1.98,.23-2.62,.4-.63,.17-1.08,.39-1.34,.65-.26,.26-.39,.56-.39,.9,0,.29,.08,.53,.24,.71,.16,.19,.37,.32,.63,.41,.26,.09,.54,.13,.84,.13Z"/><path class="cls-1" d="M39.11,259.48c-.81,0-1.54-.16-2.18-.48s-1.15-.78-1.52-1.39c-.37-.61-.55-1.34-.55-2.19s.2-1.62,.59-2.22c.39-.61,.92-1.07,1.58-1.39,.66-.32,1.38-.48,2.17-.48,.64,0,1.19,.11,1.66,.34,.46,.22,.86,.49,1.18,.8l-.66,.85c-.32-.28-.65-.5-.99-.66-.34-.16-.72-.24-1.14-.24-.6,0-1.13,.12-1.58,.38-.46,.25-.81,.6-1.06,1.06-.25,.45-.38,.98-.38,1.58s.12,1.1,.37,1.55c.25,.45,.59,.8,1.05,1.05,.45,.25,.98,.38,1.58,.38,.48,0,.92-.1,1.32-.29,.4-.19,.76-.42,1.08-.69l.59,.85c-.43,.38-.9,.68-1.43,.9-.53,.21-1.08,.32-1.66,.32Z"/><path class="cls-1" d="M47.66,259.48c-.78,0-1.49-.16-2.12-.48s-1.14-.79-1.51-1.4c-.37-.61-.56-1.35-.56-2.22s.19-1.57,.56-2.18c.37-.61,.86-1.07,1.46-1.4,.6-.33,1.25-.49,1.94-.49,.75,0,1.38,.15,1.91,.46,.53,.3,.93,.73,1.22,1.27,.28,.54,.42,1.18,.42,1.92,0,.15,0,.29-.02,.43s-.03,.26-.05,.37h-6.58v-1.02h5.79l-.34,.37c0-.92-.21-1.61-.63-2.06-.42-.46-.99-.69-1.7-.69-.48,0-.93,.12-1.34,.35-.41,.24-.74,.58-.98,1.02-.25,.45-.37,1-.37,1.65s.13,1.23,.4,1.68c.27,.45,.63,.79,1.09,1.02,.46,.23,.98,.34,1.55,.34,.47,0,.89-.07,1.27-.2,.38-.13,.74-.31,1.1-.54l.48,.86c-.38,.26-.82,.47-1.32,.66s-1.06,.27-1.69,.27Z"/><path class="cls-1" d="M52.76,261.85l5.25-13.92h1.18l-5.25,13.92h-1.18Z"/><path class="cls-1" d="M63.91,259.48c-.48,0-.92-.09-1.33-.26-.41-.18-.73-.43-.96-.76-.24-.33-.35-.73-.35-1.18,0-.88,.44-1.54,1.31-1.99,.87-.45,2.31-.76,4.32-.92-.01-.35-.08-.68-.22-.98-.13-.3-.35-.54-.65-.71-.3-.18-.7-.26-1.2-.26-.33,0-.66,.04-.98,.14s-.63,.21-.93,.35c-.29,.14-.56,.29-.81,.44l-.51-.9c.26-.17,.57-.34,.94-.52,.37-.18,.76-.32,1.19-.43,.43-.11,.87-.17,1.33-.17,.71,0,1.3,.13,1.77,.4,.46,.27,.81,.64,1.04,1.11,.23,.47,.34,1.04,.34,1.69v4.77h-1.07l-.11-1.06h-.05c-.43,.34-.91,.63-1.44,.88-.53,.25-1.08,.37-1.63,.37Zm.35-1.06c.45,0,.89-.1,1.33-.3,.44-.2,.87-.49,1.31-.85v-2.05c-1.11,.1-1.98,.23-2.62,.4-.63,.17-1.08,.39-1.34,.65-.26,.26-.39,.56-.39,.9,0,.29,.08,.53,.24,.71,.16,.19,.37,.32,.63,.41,.26,.09,.54,.13,.84,.13Z"/><path class="cls-1" d="M74.31,259.48c-.81,0-1.54-.16-2.18-.48s-1.15-.78-1.52-1.39c-.37-.61-.55-1.34-.55-2.19s.2-1.62,.59-2.22c.39-.61,.92-1.07,1.58-1.39,.66-.32,1.38-.48,2.17-.48,.64,0,1.19,.11,1.66,.34,.46,.22,.86,.49,1.18,.8l-.66,.85c-.32-.28-.65-.5-.99-.66-.34-.16-.72-.24-1.14-.24-.6,0-1.13,.12-1.58,.38-.46,.25-.81,.6-1.06,1.06-.25,.45-.38,.98-.38,1.58s.12,1.1,.37,1.55c.25,.45,.59,.8,1.05,1.05,.45,.25,.98,.38,1.58,.38,.48,0,.92-.1,1.32-.29,.4-.19,.76-.42,1.08-.69l.59,.85c-.43,.38-.9,.68-1.43,.9-.53,.21-1.08,.32-1.66,.32Z"/><path class="cls-1" d="M83.88,259.48c-.76,0-1.35-.14-1.79-.41-.44-.27-.75-.65-.94-1.13-.19-.48-.28-1.04-.28-1.68v-3.68h-2.19v-.99l2.24-.08,.18-2.5h1.09v2.5h3.82v1.07h-3.82v3.7c0,.46,.06,.85,.18,1.17,.12,.32,.32,.56,.61,.72s.68,.24,1.18,.24c.37,0,.71-.03,1.01-.1,.3-.06,.59-.15,.86-.26l.29,.96c-.35,.13-.72,.24-1.11,.33-.39,.09-.83,.14-1.32,.14Z"/><path class="cls-1" d="M91.43,259.29v-6.7h-3.62v-1.07h4.93v7.78h-1.31Zm.51-9.41c-.3,0-.55-.09-.75-.28-.2-.19-.3-.43-.3-.74s.1-.56,.3-.74c.2-.19,.45-.28,.75-.28s.55,.09,.75,.28c.2,.19,.3,.43,.3,.74s-.1,.56-.3,.74c-.2,.19-.45,.28-.75,.28Z"/><path class="cls-1" d="M99.97,259.48c-.68,0-1.31-.16-1.9-.48-.58-.32-1.05-.78-1.41-1.39-.36-.61-.54-1.34-.54-2.19s.18-1.62,.54-2.22c.36-.61,.83-1.07,1.41-1.39,.58-.32,1.21-.48,1.9-.48s1.31,.16,1.9,.48c.58,.32,1.05,.78,1.41,1.39,.36,.61,.54,1.35,.54,2.22s-.18,1.58-.54,2.19c-.36,.61-.83,1.07-1.41,1.39-.58,.32-1.21,.48-1.9,.48Zm0-1.09c.5,0,.94-.12,1.31-.38,.37-.25,.66-.6,.86-1.05,.2-.45,.3-.96,.3-1.55s-.1-1.12-.3-1.58c-.2-.45-.49-.8-.86-1.06-.37-.25-.81-.38-1.31-.38s-.94,.12-1.3,.38-.66,.6-.86,1.06c-.21,.45-.31,.98-.31,1.58s.1,1.1,.31,1.55c.21,.45,.5,.8,.86,1.05,.37,.25,.8,.38,1.3,.38Z"/><path class="cls-1" d="M105.46,259.29v-7.78h1.09l.11,1.33h.06c.41-.44,.84-.8,1.31-1.09,.47-.29,1.01-.43,1.62-.43,.92,0,1.59,.27,2.03,.8s.66,1.31,.66,2.34v4.83h-1.31v-4.66c0-.74-.14-1.28-.42-1.64s-.74-.54-1.38-.54c-.46,0-.87,.12-1.23,.35-.36,.24-.77,.59-1.23,1.06v5.42h-1.31Z"/><path class="cls-1" d="M117.73,259.48c-.76,0-1.47-.12-2.13-.37s-1.23-.53-1.7-.85l.61-.86c.45,.32,.94,.58,1.49,.77,.54,.19,1.17,.29,1.89,.29,.66,0,1.15-.12,1.48-.37,.33-.25,.49-.53,.49-.85,0-.15-.03-.29-.09-.42s-.17-.25-.34-.37c-.17-.12-.41-.23-.73-.34-.32-.11-.75-.21-1.28-.32-1.01-.21-1.77-.5-2.28-.86-.51-.36-.76-.83-.76-1.41,0-.63,.27-1.15,.82-1.58,.54-.42,1.35-.63,2.42-.63,.6,0,1.17,.1,1.73,.3s1.02,.43,1.41,.7l-.64,.85c-.35-.26-.75-.46-1.2-.6-.45-.14-.92-.22-1.41-.22-.45,0-.8,.05-1.06,.15s-.45,.24-.56,.41c-.11,.17-.17,.36-.17,.56,0,.33,.18,.59,.54,.78,.36,.19,.93,.36,1.72,.52,.86,.18,1.53,.38,1.99,.61,.46,.22,.78,.48,.96,.77,.18,.29,.26,.63,.26,1.02,0,.43-.13,.81-.4,1.16s-.66,.63-1.17,.84c-.51,.21-1.14,.32-1.89,.32Z"/><path class="cls-1" d="M123.16,261.85l5.25-13.92h1.18l-5.25,13.92h-1.18Z"/><path class="cls-1" d="M131.86,262.57v-11.06h1.09l.11,.99h.05c.36-.34,.78-.62,1.26-.85,.47-.22,.95-.34,1.43-.34,.7,0,1.29,.16,1.77,.49,.47,.33,.83,.78,1.08,1.38,.25,.59,.37,1.29,.37,2.1,0,.88-.17,1.63-.5,2.26-.33,.63-.76,1.11-1.3,1.44-.53,.33-1.11,.5-1.74,.5-.35,0-.74-.09-1.16-.26-.42-.18-.81-.42-1.16-.74h-.05l.06,1.47v2.62h-1.31Zm3.39-4.19c.46,0,.87-.12,1.23-.37,.36-.25,.65-.6,.86-1.06s.31-1.02,.31-1.66c0-.57-.08-1.06-.22-1.5s-.38-.77-.7-1.01c-.32-.24-.74-.36-1.26-.36-.35,0-.72,.09-1.11,.28-.39,.19-.78,.48-1.18,.89v3.87c.37,.33,.75,.57,1.13,.7s.7,.21,.95,.21Z"/><path class="cls-1" d="M143.11,259.48c-.93,0-1.61-.27-2.05-.8-.44-.53-.66-1.31-.66-2.34v-4.83h1.33v4.66c0,.74,.14,1.28,.41,1.64,.27,.36,.73,.54,1.38,.54,.45,0,.86-.11,1.22-.34s.76-.59,1.19-1.1v-5.39h1.31v7.78h-1.07l-.11-1.36h-.06c-.39,.45-.83,.82-1.3,1.11-.47,.29-1,.44-1.6,.44Z"/><path class="cls-1" d="M153.09,259.48c-.38,0-.79-.09-1.22-.28-.43-.19-.83-.45-1.19-.78h-.05l-.11,.86h-1.06v-11.39h1.31v3.1l-.05,1.5h.05c.35-.36,.76-.65,1.22-.86,.46-.21,.92-.32,1.38-.32,.7,0,1.3,.16,1.78,.49,.48,.33,.84,.78,1.09,1.38,.25,.59,.37,1.29,.37,2.09,0,.88-.16,1.64-.49,2.27-.33,.63-.75,1.11-1.29,1.44-.53,.33-1.12,.5-1.74,.5Zm-.21-1.1c.45,0,.85-.12,1.21-.37,.36-.25,.64-.6,.85-1.06s.31-1.02,.31-1.66c0-.57-.08-1.06-.22-1.5s-.38-.77-.7-1.01c-.32-.24-.74-.36-1.26-.36-.35,0-.72,.09-1.11,.28-.39,.19-.78,.48-1.18,.89v3.87c.37,.33,.75,.57,1.13,.7s.71,.21,.98,.21Z"/><path class="cls-1" d="M163.27,259.48c-.82,0-1.45-.24-1.89-.71-.44-.47-.66-1.17-.66-2.09v-7.71h-2.66v-1.07h3.97v8.88c0,.57,.14,.98,.42,1.23s.65,.38,1.1,.38c.22,0,.45-.03,.69-.09,.23-.06,.5-.15,.78-.28l.34,.99c-.35,.13-.68,.24-.99,.33-.31,.09-.68,.14-1.1,.14Z"/><path class="cls-1" d="M170.63,259.29v-6.7h-3.62v-1.07h4.93v7.78h-1.31Zm.51-9.41c-.3,0-.55-.09-.75-.28-.2-.19-.3-.43-.3-.74s.1-.56,.3-.74c.2-.19,.45-.28,.75-.28s.55,.09,.75,.28c.2,.19,.3,.43,.3,.74s-.1,.56-.3,.74c-.2,.19-.45,.28-.75,.28Z"/><path class="cls-1" d="M179.33,259.48c-.76,0-1.47-.12-2.13-.37s-1.23-.53-1.7-.85l.61-.86c.45,.32,.94,.58,1.49,.77,.54,.19,1.17,.29,1.89,.29,.66,0,1.15-.12,1.48-.37,.33-.25,.49-.53,.49-.85,0-.15-.03-.29-.09-.42s-.17-.25-.34-.37c-.17-.12-.41-.23-.73-.34-.32-.11-.75-.21-1.28-.32-1.01-.21-1.77-.5-2.28-.86-.51-.36-.76-.83-.76-1.41,0-.63,.27-1.15,.82-1.58,.54-.42,1.35-.63,2.42-.63,.6,0,1.17,.1,1.73,.3s1.02,.43,1.41,.7l-.64,.85c-.35-.26-.75-.46-1.2-.6-.45-.14-.92-.22-1.41-.22-.45,0-.8,.05-1.06,.15s-.45,.24-.56,.41c-.11,.17-.17,.36-.17,.56,0,.33,.18,.59,.54,.78,.36,.19,.93,.36,1.72,.52,.86,.18,1.53,.38,1.99,.61,.46,.22,.78,.48,.96,.77,.18,.29,.26,.63,.26,1.02,0,.43-.13,.81-.4,1.16s-.66,.63-1.17,.84c-.51,.21-1.14,.32-1.89,.32Z"/><path class="cls-1" d="M184.66,259.29v-11.39h1.31v3.1l-.08,1.84h.05c.39-.43,.83-.79,1.3-1.08,.47-.29,1.01-.44,1.62-.44,.92,0,1.59,.27,2.03,.8s.66,1.31,.66,2.34v4.83h-1.31v-4.66c0-.74-.14-1.28-.42-1.64s-.74-.54-1.38-.54c-.46,0-.87,.12-1.23,.35-.36,.24-.77,.59-1.23,1.06v5.42h-1.31Z"/><path class="cls-1" d="M193.33,254.5v-.99h6.88v.99h-6.88Z"/><path class="cls-1" d="M207.07,259.48c-.76,0-1.35-.14-1.79-.41-.44-.27-.75-.65-.94-1.13-.19-.48-.28-1.04-.28-1.68v-3.68h-2.19v-.99l2.24-.08,.18-2.5h1.09v2.5h3.82v1.07h-3.82v3.7c0,.46,.06,.85,.18,1.17,.12,.32,.32,.56,.61,.72s.68,.24,1.18,.24c.37,0,.71-.03,1.01-.1,.3-.06,.59-.15,.86-.26l.29,.96c-.35,.13-.72,.24-1.11,.33-.39,.09-.83,.14-1.32,.14Z"/><path class="cls-1" d="M214.37,259.48c-.68,0-1.31-.16-1.9-.48-.58-.32-1.05-.78-1.41-1.39-.36-.61-.54-1.34-.54-2.19s.18-1.62,.54-2.22c.36-.61,.83-1.07,1.41-1.39,.58-.32,1.21-.48,1.9-.48s1.31,.16,1.9,.48c.58,.32,1.05,.78,1.41,1.39,.36,.61,.54,1.35,.54,2.22s-.18,1.58-.54,2.19c-.36,.61-.83,1.07-1.41,1.39-.58,.32-1.21,.48-1.9,.48Zm0-1.09c.5,0,.94-.12,1.31-.38,.37-.25,.66-.6,.86-1.05,.2-.45,.3-.96,.3-1.55s-.1-1.12-.3-1.58c-.2-.45-.49-.8-.86-1.06-.37-.25-.81-.38-1.31-.38s-.94,.12-1.3,.38-.66,.6-.86,1.06c-.21,.45-.31,.98-.31,1.58s.1,1.1,.31,1.55c.21,.45,.5,.8,.86,1.05,.37,.25,.8,.38,1.3,.38Z"/><path class="cls-1" d="M219.73,254.5v-.99h6.88v.99h-6.88Z"/><path class="cls-1" d="M228.66,259.29v-7.78h1.09l.11,1.33h.06c.41-.44,.84-.8,1.31-1.09,.47-.29,1.01-.43,1.62-.43,.92,0,1.59,.27,2.03,.8s.66,1.31,.66,2.34v4.83h-1.31v-4.66c0-.74-.14-1.28-.42-1.64s-.74-.54-1.38-.54c-.46,0-.87,.12-1.23,.35-.36,.24-.77,.59-1.23,1.06v5.42h-1.31Z"/><path class="cls-1" d="M237.46,262.57v-11.06h1.09l.11,.99h.05c.36-.34,.78-.62,1.26-.85,.47-.22,.95-.34,1.43-.34,.7,0,1.29,.16,1.77,.49,.47,.33,.83,.78,1.08,1.38,.25,.59,.37,1.29,.37,2.1,0,.88-.17,1.63-.5,2.26-.33,.63-.76,1.11-1.3,1.44-.53,.33-1.11,.5-1.74,.5-.35,0-.74-.09-1.16-.26-.42-.18-.81-.42-1.16-.74h-.05l.06,1.47v2.62h-1.31Zm3.39-4.19c.46,0,.87-.12,1.23-.37,.36-.25,.65-.6,.86-1.06s.31-1.02,.31-1.66c0-.57-.08-1.06-.22-1.5s-.38-.77-.7-1.01c-.32-.24-.74-.36-1.26-.36-.35,0-.72,.09-1.11,.28-.39,.19-.78,.48-1.18,.89v3.87c.37,.33,.75,.57,1.13,.7s.7,.21,.95,.21Z"/><path class="cls-1" d="M245.69,259.29v-7.78h1.06l.11,1.02h.03c.2-.36,.44-.66,.7-.88,.27-.22,.62-.34,1.07-.34,.38,0,.7,.11,.94,.34,.25,.22,.42,.56,.53,1.01,.22-.42,.47-.74,.74-.98,.27-.24,.63-.36,1.08-.36,.54,0,.97,.21,1.27,.62,.3,.41,.46,1,.46,1.78v5.57h-1.31v-5.47c0-.91-.28-1.36-.83-1.36-.27,0-.49,.1-.66,.3s-.37,.5-.58,.9v5.63h-1.22v-5.47c0-.45-.06-.79-.18-1.02-.12-.23-.33-.34-.62-.34-.27,0-.5,.1-.7,.3s-.39,.5-.58,.9v5.63h-1.31Z"/><path class="cls-1" d="M256.24,262.1l-.72-.67c1.07-.91,1.86-1.9,2.37-2.97,.51-1.07,.77-2.28,.77-3.62s-.26-2.55-.77-3.63c-.51-1.08-1.3-2.06-2.37-2.96l.72-.67c1.12,.86,2,1.9,2.64,3.12,.64,1.22,.96,2.6,.96,4.14s-.32,2.93-.96,4.14c-.64,1.21-1.52,2.25-2.64,3.13Z"/><path class="cls-1" d="M276.56,259.48c-.87,0-1.65-.22-2.34-.65s-1.22-1.05-1.62-1.86c-.4-.81-.59-1.79-.59-2.93s.2-2.1,.6-2.92c.4-.82,.95-1.44,1.65-1.87,.7-.43,1.5-.65,2.41-.65,.69,0,1.27,.14,1.74,.41,.47,.27,.85,.56,1.15,.87l-.75,.85c-.26-.28-.55-.51-.89-.69s-.75-.27-1.26-.27c-.65,0-1.22,.17-1.71,.52-.49,.35-.87,.83-1.14,1.46-.27,.63-.41,1.38-.41,2.26s.13,1.65,.38,2.29c.26,.64,.62,1.14,1.1,1.49,.48,.35,1.06,.53,1.74,.53,.36,0,.71-.06,1.04-.17,.33-.11,.59-.26,.78-.46v-2.74h-2.1v-1.1h3.33v4.42c-.33,.34-.77,.63-1.3,.86-.54,.23-1.15,.35-1.83,.35Z"/><path class="cls-1" d="M283.9,259.48c-.93,0-1.61-.27-2.05-.8-.44-.53-.66-1.31-.66-2.34v-4.83h1.33v4.66c0,.74,.14,1.28,.41,1.64,.27,.36,.73,.54,1.38,.54,.45,0,.86-.11,1.22-.34s.76-.59,1.19-1.1v-5.39h1.31v7.78h-1.07l-.11-1.36h-.06c-.39,.45-.83,.82-1.3,1.11-.47,.29-1,.44-1.6,.44Z"/><path class="cls-1" d="M295.07,259.48c-.76,0-1.35-.14-1.79-.41-.44-.27-.75-.65-.94-1.13-.19-.48-.28-1.04-.28-1.68v-3.68h-2.19v-.99l2.24-.08,.18-2.5h1.09v2.5h3.82v1.07h-3.82v3.7c0,.46,.06,.85,.18,1.17,.12,.32,.32,.56,.61,.72s.68,.24,1.18,.24c.37,0,.71-.03,1.01-.1,.3-.06,.59-.15,.86-.26l.29,.96c-.35,.13-.72,.24-1.11,.33-.39,.09-.83,.14-1.32,.14Z"/><path class="cls-1" d="M298.83,259.29v-10.5h1.34v4.4h4.38v-4.4h1.34v10.5h-1.34v-4.94h-4.38v4.94h-1.34Z"/><path class="cls-1" d="M310.3,259.48c-.93,0-1.61-.27-2.05-.8-.44-.53-.66-1.31-.66-2.34v-4.83h1.33v4.66c0,.74,.14,1.28,.41,1.64,.27,.36,.73,.54,1.38,.54,.45,0,.86-.11,1.22-.34s.76-.59,1.19-1.1v-5.39h1.31v7.78h-1.07l-.11-1.36h-.06c-.39,.45-.83,.82-1.3,1.11-.47,.29-1,.44-1.6,.44Z"/><path class="cls-1" d="M320.28,259.48c-.38,0-.79-.09-1.22-.28-.43-.19-.83-.45-1.19-.78h-.05l-.11,.86h-1.06v-11.39h1.31v3.1l-.05,1.5h.05c.35-.36,.76-.65,1.22-.86,.46-.21,.92-.32,1.38-.32,.7,0,1.3,.16,1.78,.49,.48,.33,.84,.78,1.09,1.38,.25,.59,.37,1.29,.37,2.09,0,.88-.16,1.64-.49,2.27-.33,.63-.75,1.11-1.29,1.44-.53,.33-1.12,.5-1.74,.5Zm-.21-1.1c.45,0,.85-.12,1.21-.37,.36-.25,.64-.6,.85-1.06s.31-1.02,.31-1.66c0-.57-.08-1.06-.22-1.5s-.38-.77-.7-1.01c-.32-.24-.74-.36-1.26-.36-.35,0-.72,.09-1.11,.28-.39,.19-.78,.48-1.18,.89v3.87c.37,.33,.75,.57,1.13,.7s.71,.21,.98,.21Z"/><path class="cls-1" d="M333.27,259.29l3.54-10.5h1.5l3.54,10.5h-1.41l-1.82-5.87c-.18-.59-.36-1.17-.54-1.75-.18-.58-.34-1.18-.5-1.78h-.06c-.17,.61-.34,1.2-.51,1.78-.17,.58-.35,1.17-.53,1.75l-1.84,5.87h-1.36Zm1.86-3.2v-1.07h4.82v1.07h-4.82Z"/><path class="cls-1" d="M347.1,259.48c-.81,0-1.54-.16-2.18-.48s-1.15-.78-1.52-1.39c-.37-.61-.55-1.34-.55-2.19s.2-1.62,.59-2.22c.39-.61,.92-1.07,1.58-1.39,.66-.32,1.38-.48,2.17-.48,.64,0,1.19,.11,1.66,.34,.46,.22,.86,.49,1.18,.8l-.66,.85c-.32-.28-.65-.5-.99-.66-.34-.16-.72-.24-1.14-.24-.6,0-1.13,.12-1.58,.38-.46,.25-.81,.6-1.06,1.06-.25,.45-.38,.98-.38,1.58s.12,1.1,.37,1.55c.25,.45,.59,.8,1.05,1.05,.45,.25,.98,.38,1.58,.38,.48,0,.92-.1,1.32-.29,.4-.19,.76-.42,1.08-.69l.59,.85c-.43,.38-.9,.68-1.43,.9-.53,.21-1.08,.32-1.66,.32Z"/><path class="cls-1" d="M356.67,259.48c-.76,0-1.35-.14-1.79-.41-.44-.27-.75-.65-.94-1.13-.19-.48-.28-1.04-.28-1.68v-3.68h-2.19v-.99l2.24-.08,.18-2.5h1.09v2.5h3.82v1.07h-3.82v3.7c0,.46,.06,.85,.18,1.17,.12,.32,.32,.56,.61,.72s.68,.24,1.18,.24c.37,0,.71-.03,1.01-.1,.3-.06,.59-.15,.86-.26l.29,.96c-.35,.13-.72,.24-1.11,.33-.39,.09-.83,.14-1.32,.14Z"/><path class="cls-1" d="M364.22,259.29v-6.7h-3.62v-1.07h4.93v7.78h-1.31Zm.51-9.41c-.3,0-.55-.09-.75-.28-.2-.19-.3-.43-.3-.74s.1-.56,.3-.74c.2-.19,.45-.28,.75-.28s.55,.09,.75,.28c.2,.19,.3,.43,.3,.74s-.1,.56-.3,.74c-.2,.19-.45,.28-.75,.28Z"/><path class="cls-1" d="M372.76,259.48c-.68,0-1.31-.16-1.9-.48-.58-.32-1.05-.78-1.41-1.39-.36-.61-.54-1.34-.54-2.19s.18-1.62,.54-2.22c.36-.61,.83-1.07,1.41-1.39,.58-.32,1.21-.48,1.9-.48s1.31,.16,1.9,.48c.58,.32,1.05,.78,1.41,1.39,.36,.61,.54,1.35,.54,2.22s-.18,1.58-.54,2.19c-.36,.61-.83,1.07-1.41,1.39-.58,.32-1.21,.48-1.9,.48Zm0-1.09c.5,0,.94-.12,1.31-.38,.37-.25,.66-.6,.86-1.05,.2-.45,.3-.96,.3-1.55s-.1-1.12-.3-1.58c-.2-.45-.49-.8-.86-1.06-.37-.25-.81-.38-1.31-.38s-.94,.12-1.3,.38-.66,.6-.86,1.06c-.21,.45-.31,.98-.31,1.58s.1,1.1,.31,1.55c.21,.45,.5,.8,.86,1.05,.37,.25,.8,.38,1.3,.38Z"/><path class="cls-1" d="M378.25,259.29v-7.78h1.09l.11,1.33h.06c.41-.44,.84-.8,1.31-1.09,.47-.29,1.01-.43,1.62-.43,.92,0,1.59,.27,2.03,.8s.66,1.31,.66,2.34v4.83h-1.31v-4.66c0-.74-.14-1.28-.42-1.64s-.74-.54-1.38-.54c-.46,0-.87,.12-1.23,.35-.36,.24-.77,.59-1.23,1.06v5.42h-1.31Z"/><path class="cls-1" d="M400.66,259.48c-.76,0-1.35-.14-1.79-.41-.44-.27-.75-.65-.94-1.13-.19-.48-.28-1.04-.28-1.68v-3.68h-2.19v-.99l2.24-.08,.18-2.5h1.09v2.5h3.82v1.07h-3.82v3.7c0,.46,.06,.85,.18,1.17,.12,.32,.32,.56,.61,.72s.68,.24,1.18,.24c.37,0,.71-.03,1.01-.1,.3-.06,.59-.15,.86-.26l.29,.96c-.35,.13-.72,.24-1.11,.33-.39,.09-.83,.14-1.32,.14Z"/><path class="cls-1" d="M407.96,259.48c-.68,0-1.31-.16-1.9-.48-.58-.32-1.05-.78-1.41-1.39-.36-.61-.54-1.34-.54-2.19s.18-1.62,.54-2.22c.36-.61,.83-1.07,1.41-1.39,.58-.32,1.21-.48,1.9-.48s1.31,.16,1.9,.48c.58,.32,1.05,.78,1.41,1.39,.36,.61,.54,1.35,.54,2.22s-.18,1.58-.54,2.19c-.36,.61-.83,1.07-1.41,1.39-.58,.32-1.21,.48-1.9,.48Zm0-1.09c.5,0,.94-.12,1.31-.38,.37-.25,.66-.6,.86-1.05,.2-.45,.3-.96,.3-1.55s-.1-1.12-.3-1.58c-.2-.45-.49-.8-.86-1.06-.37-.25-.81-.38-1.31-.38s-.94,.12-1.3,.38-.66,.6-.86,1.06c-.21,.45-.31,.98-.31,1.58s.1,1.1,.31,1.55c.21,.45,.5,.8,.86,1.05,.37,.25,.8,.38,1.3,.38Z"/><path class="cls-1" d="M37.51,283.48c-.48,0-.92-.09-1.33-.26-.41-.18-.73-.43-.96-.76-.24-.33-.35-.73-.35-1.18,0-.88,.44-1.54,1.31-1.99,.87-.45,2.31-.76,4.32-.92-.01-.35-.08-.68-.22-.98-.13-.3-.35-.54-.65-.71-.3-.18-.7-.26-1.2-.26-.33,0-.66,.04-.98,.14s-.63,.21-.93,.35c-.29,.14-.56,.29-.81,.44l-.51-.9c.26-.17,.57-.34,.94-.52,.37-.18,.76-.32,1.19-.43,.43-.11,.87-.17,1.33-.17,.71,0,1.3,.13,1.77,.4,.46,.27,.81,.64,1.04,1.11,.23,.47,.34,1.04,.34,1.69v4.77h-1.07l-.11-1.06h-.05c-.43,.34-.91,.63-1.44,.88-.53,.25-1.08,.37-1.63,.37Zm.35-1.06c.45,0,.89-.1,1.33-.3,.44-.2,.87-.49,1.31-.85v-2.05c-1.11,.1-1.98,.23-2.62,.4-.63,.17-1.08,.39-1.34,.65-.26,.26-.39,.56-.39,.9,0,.29,.08,.53,.24,.71,.16,.19,.37,.32,.63,.41,.26,.09,.54,.13,.84,.13Z"/><path class="cls-1" d="M46.31,283.48c-.93,0-1.61-.27-2.05-.8-.44-.53-.66-1.31-.66-2.34v-4.83h1.33v4.66c0,.74,.14,1.28,.41,1.64,.27,.36,.73,.54,1.38,.54,.45,0,.86-.11,1.22-.34s.76-.59,1.19-1.1v-5.39h1.31v7.78h-1.07l-.11-1.36h-.06c-.39,.45-.83,.82-1.3,1.11-.47,.29-1,.44-1.6,.44Z"/><path class="cls-1" d="M57.48,283.48c-.76,0-1.35-.14-1.79-.41-.44-.27-.75-.65-.94-1.13-.19-.48-.28-1.04-.28-1.68v-3.68h-2.19v-.99l2.24-.08,.18-2.5h1.09v2.5h3.82v1.07h-3.82v3.7c0,.46,.06,.85,.18,1.17,.12,.32,.32,.56,.61,.72s.68,.24,1.18,.24c.37,0,.71-.03,1.01-.1,.3-.06,.59-.15,.86-.26l.29,.96c-.35,.13-.72,.24-1.11,.33-.39,.09-.83,.14-1.32,.14Z"/><path class="cls-1" d="M64.77,283.48c-.68,0-1.31-.16-1.9-.48-.58-.32-1.05-.78-1.41-1.39-.36-.61-.54-1.34-.54-2.19s.18-1.62,.54-2.22c.36-.61,.83-1.07,1.41-1.39,.58-.32,1.21-.48,1.9-.48s1.31,.16,1.9,.48c.58,.32,1.05,.78,1.41,1.39,.36,.61,.54,1.35,.54,2.22s-.18,1.58-.54,2.19c-.36,.61-.83,1.07-1.41,1.39-.58,.32-1.21,.48-1.9,.48Zm0-1.09c.5,0,.94-.12,1.31-.38,.37-.25,.66-.6,.86-1.05,.2-.45,.3-.96,.3-1.55s-.1-1.12-.3-1.58c-.2-.45-.49-.8-.86-1.06-.37-.25-.81-.38-1.31-.38s-.94,.12-1.3,.38-.66,.6-.86,1.06c-.21,.45-.31,.98-.31,1.58s.1,1.1,.31,1.55c.21,.45,.5,.8,.86,1.05,.37,.25,.8,.38,1.3,.38Z"/><path class="cls-1" d="M69.7,283.29v-7.78h1.06l.11,1.02h.03c.2-.36,.44-.66,.7-.88,.27-.22,.62-.34,1.07-.34,.38,0,.7,.11,.94,.34,.25,.22,.42,.56,.53,1.01,.22-.42,.47-.74,.74-.98,.27-.24,.63-.36,1.08-.36,.54,0,.97,.21,1.27,.62,.3,.41,.46,1,.46,1.78v5.57h-1.31v-5.47c0-.91-.28-1.36-.83-1.36-.27,0-.49,.1-.66,.3s-.37,.5-.58,.9v5.63h-1.22v-5.47c0-.45-.06-.79-.18-1.02-.12-.23-.33-.34-.62-.34-.27,0-.5,.1-.7,.3s-.39,.5-.58,.9v5.63h-1.31Z"/><path class="cls-1" d="M81.51,283.48c-.48,0-.92-.09-1.33-.26-.41-.18-.73-.43-.96-.76-.24-.33-.35-.73-.35-1.18,0-.88,.44-1.54,1.31-1.99,.87-.45,2.31-.76,4.32-.92-.01-.35-.08-.68-.22-.98-.13-.3-.35-.54-.65-.71-.3-.18-.7-.26-1.2-.26-.33,0-.66,.04-.98,.14s-.63,.21-.93,.35c-.29,.14-.56,.29-.81,.44l-.51-.9c.26-.17,.57-.34,.94-.52,.37-.18,.76-.32,1.19-.43,.43-.11,.87-.17,1.33-.17,.71,0,1.3,.13,1.77,.4,.46,.27,.81,.64,1.04,1.11,.23,.47,.34,1.04,.34,1.69v4.77h-1.07l-.11-1.06h-.05c-.43,.34-.91,.63-1.44,.88-.53,.25-1.08,.37-1.63,.37Zm.35-1.06c.45,0,.89-.1,1.33-.3,.44-.2,.87-.49,1.31-.85v-2.05c-1.11,.1-1.98,.23-2.62,.4-.63,.17-1.08,.39-1.34,.65-.26,.26-.39,.56-.39,.9,0,.29,.08,.53,.24,.71,.16,.19,.37,.32,.63,.41,.26,.09,.54,.13,.84,.13Z"/><path class="cls-1" d="M92.68,283.48c-.76,0-1.35-.14-1.79-.41-.44-.27-.75-.65-.94-1.13-.19-.48-.28-1.04-.28-1.68v-3.68h-2.19v-.99l2.24-.08,.18-2.5h1.09v2.5h3.82v1.07h-3.82v3.7c0,.46,.06,.85,.18,1.17,.12,.32,.32,.56,.61,.72s.68,.24,1.18,.24c.37,0,.71-.03,1.01-.1,.3-.06,.59-.15,.86-.26l.29,.96c-.35,.13-.72,.24-1.11,.33-.39,.09-.83,.14-1.32,.14Z"/><path class="cls-1" d="M100.45,283.48c-.78,0-1.49-.16-2.12-.48s-1.14-.79-1.51-1.4c-.37-.61-.56-1.35-.56-2.22s.19-1.57,.56-2.18c.37-.61,.86-1.07,1.46-1.4,.6-.33,1.25-.49,1.94-.49,.75,0,1.38,.15,1.91,.46,.53,.3,.93,.73,1.22,1.27,.28,.54,.42,1.18,.42,1.92,0,.15,0,.29-.02,.43s-.03,.26-.05,.37h-6.58v-1.02h5.79l-.34,.37c0-.92-.21-1.61-.63-2.06-.42-.46-.99-.69-1.7-.69-.48,0-.93,.12-1.34,.35-.41,.24-.74,.58-.98,1.02-.25,.45-.37,1-.37,1.65s.13,1.23,.4,1.68c.27,.45,.63,.79,1.09,1.02,.46,.23,.98,.34,1.55,.34,.47,0,.89-.07,1.27-.2,.38-.13,.74-.31,1.1-.54l.48,.86c-.38,.26-.82,.47-1.32,.66s-1.06,.27-1.69,.27Z"/><path class="cls-1" d="M115.11,283.29v-7.78h1.09l.11,1.84h.05c.41-.63,.91-1.13,1.5-1.49s1.25-.54,1.97-.54c.29,0,.56,.02,.81,.07,.25,.05,.49,.13,.73,.25l-.3,1.14c-.27-.1-.5-.17-.69-.21-.19-.04-.44-.06-.75-.06-.59,0-1.15,.17-1.69,.5-.54,.34-1.04,.91-1.51,1.72v4.56h-1.31Z"/><path class="cls-1" d="M126.85,283.48c-.78,0-1.49-.16-2.12-.48s-1.14-.79-1.51-1.4c-.37-.61-.56-1.35-.56-2.22s.19-1.57,.56-2.18c.37-.61,.86-1.07,1.46-1.4,.6-.33,1.25-.49,1.94-.49,.75,0,1.38,.15,1.91,.46,.53,.3,.93,.73,1.22,1.27,.28,.54,.42,1.18,.42,1.92,0,.15,0,.29-.02,.43s-.03,.26-.05,.37h-6.58v-1.02h5.79l-.34,.37c0-.92-.21-1.61-.63-2.06-.42-.46-.99-.69-1.7-.69-.48,0-.93,.12-1.34,.35-.41,.24-.74,.58-.98,1.02-.25,.45-.37,1-.37,1.65s.13,1.23,.4,1.68c.27,.45,.63,.79,1.09,1.02,.46,.23,.98,.34,1.55,.34,.47,0,.89-.07,1.27-.2,.38-.13,.74-.31,1.1-.54l.48,.86c-.38,.26-.82,.47-1.32,.66s-1.06,.27-1.69,.27Z"/><path class="cls-1" d="M136.87,283.48c-.82,0-1.45-.24-1.89-.71-.44-.47-.66-1.17-.66-2.09v-7.71h-2.66v-1.07h3.97v8.88c0,.57,.14,.98,.42,1.23s.65,.38,1.1,.38c.22,0,.45-.03,.69-.09,.23-.06,.5-.15,.78-.28l.34,.99c-.35,.13-.68,.24-.99,.33-.31,.09-.68,.14-1.1,.14Z"/><path class="cls-1" d="M144.45,283.48c-.78,0-1.49-.16-2.12-.48s-1.14-.79-1.51-1.4c-.37-.61-.56-1.35-.56-2.22s.19-1.57,.56-2.18c.37-.61,.86-1.07,1.46-1.4,.6-.33,1.25-.49,1.94-.49,.75,0,1.38,.15,1.91,.46,.53,.3,.93,.73,1.22,1.27,.28,.54,.42,1.18,.42,1.92,0,.15,0,.29-.02,.43s-.03,.26-.05,.37h-6.58v-1.02h5.79l-.34,.37c0-.92-.21-1.61-.63-2.06-.42-.46-.99-.69-1.7-.69-.48,0-.93,.12-1.34,.35-.41,.24-.74,.58-.98,1.02-.25,.45-.37,1-.37,1.65s.13,1.23,.4,1.68c.27,.45,.63,.79,1.09,1.02,.46,.23,.98,.34,1.55,.34,.47,0,.89-.07,1.27-.2,.38-.13,.74-.31,1.1-.54l.48,.86c-.38,.26-.82,.47-1.32,.66s-1.06,.27-1.69,.27Z"/><path class="cls-1" d="M151.91,283.48c-.48,0-.92-.09-1.33-.26-.41-.18-.73-.43-.96-.76-.24-.33-.35-.73-.35-1.18,0-.88,.44-1.54,1.31-1.99,.87-.45,2.31-.76,4.32-.92-.01-.35-.08-.68-.22-.98-.13-.3-.35-.54-.65-.71-.3-.18-.7-.26-1.2-.26-.33,0-.66,.04-.98,.14s-.63,.21-.93,.35c-.29,.14-.56,.29-.81,.44l-.51-.9c.26-.17,.57-.34,.94-.52,.37-.18,.76-.32,1.19-.43,.43-.11,.87-.17,1.33-.17,.71,0,1.3,.13,1.77,.4,.46,.27,.81,.64,1.04,1.11,.23,.47,.34,1.04,.34,1.69v4.77h-1.07l-.11-1.06h-.05c-.43,.34-.91,.63-1.44,.88-.53,.25-1.08,.37-1.63,.37Zm.35-1.06c.45,0,.89-.1,1.33-.3,.44-.2,.87-.49,1.31-.85v-2.05c-1.11,.1-1.98,.23-2.62,.4-.63,.17-1.08,.39-1.34,.65-.26,.26-.39,.56-.39,.9,0,.29,.08,.53,.24,.71,.16,.19,.37,.32,.63,.41,.26,.09,.54,.13,.84,.13Z"/><path class="cls-1" d="M161.73,283.48c-.76,0-1.47-.12-2.13-.37s-1.23-.53-1.7-.85l.61-.86c.45,.32,.94,.58,1.49,.77,.54,.19,1.17,.29,1.89,.29,.66,0,1.15-.12,1.48-.37,.33-.25,.49-.53,.49-.85,0-.15-.03-.29-.09-.42s-.17-.25-.34-.37c-.17-.12-.41-.23-.73-.34-.32-.11-.75-.21-1.28-.32-1.01-.21-1.77-.5-2.28-.86-.51-.36-.76-.83-.76-1.41,0-.63,.27-1.15,.82-1.58,.54-.42,1.35-.63,2.42-.63,.6,0,1.17,.1,1.73,.3s1.02,.43,1.41,.7l-.64,.85c-.35-.26-.75-.46-1.2-.6-.45-.14-.92-.22-1.41-.22-.45,0-.8,.05-1.06,.15s-.45,.24-.56,.41c-.11,.17-.17,.36-.17,.56,0,.33,.18,.59,.54,.78,.36,.19,.93,.36,1.72,.52,.86,.18,1.53,.38,1.99,.61,.46,.22,.78,.48,.96,.77,.18,.29,.26,.63,.26,1.02,0,.43-.13,.81-.4,1.16s-.66,.63-1.17,.84c-.51,.21-1.14,.32-1.89,.32Z"/><path class="cls-1" d="M170.85,283.48c-.78,0-1.49-.16-2.12-.48s-1.14-.79-1.51-1.4c-.37-.61-.56-1.35-.56-2.22s.19-1.57,.56-2.18c.37-.61,.86-1.07,1.46-1.4,.6-.33,1.25-.49,1.94-.49,.75,0,1.38,.15,1.91,.46,.53,.3,.93,.73,1.22,1.27,.28,.54,.42,1.18,.42,1.92,0,.15,0,.29-.02,.43s-.03,.26-.05,.37h-6.58v-1.02h5.79l-.34,.37c0-.92-.21-1.61-.63-2.06-.42-.46-.99-.69-1.7-.69-.48,0-.93,.12-1.34,.35-.41,.24-.74,.58-.98,1.02-.25,.45-.37,1-.37,1.65s.13,1.23,.4,1.68c.27,.45,.63,.79,1.09,1.02,.46,.23,.98,.34,1.55,.34,.47,0,.89-.07,1.27-.2,.38-.13,.74-.31,1.1-.54l.48,.86c-.38,.26-.82,.47-1.32,.66s-1.06,.27-1.69,.27Z"/><path class="cls-1" d="M179.33,283.48c-.76,0-1.47-.12-2.13-.37s-1.23-.53-1.7-.85l.61-.86c.45,.32,.94,.58,1.49,.77,.54,.19,1.17,.29,1.89,.29,.66,0,1.15-.12,1.48-.37,.33-.25,.49-.53,.49-.85,0-.15-.03-.29-.09-.42s-.17-.25-.34-.37c-.17-.12-.41-.23-.73-.34-.32-.11-.75-.21-1.28-.32-1.01-.21-1.77-.5-2.28-.86-.51-.36-.76-.83-.76-1.41,0-.63,.27-1.15,.82-1.58,.54-.42,1.35-.63,2.42-.63,.6,0,1.17,.1,1.73,.3s1.02,.43,1.41,.7l-.64,.85c-.35-.26-.75-.46-1.2-.6-.45-.14-.92-.22-1.41-.22-.45,0-.8,.05-1.06,.15s-.45,.24-.56,.41c-.11,.17-.17,.36-.17,.56,0,.33,.18,.59,.54,.78,.36,.19,.93,.36,1.72,.52,.86,.18,1.53,.38,1.99,.61,.46,.22,.78,.48,.96,.77,.18,.29,.26,.63,.26,1.02,0,.43-.13,.81-.4,1.16s-.66,.63-1.17,.84c-.51,.21-1.14,.32-1.89,.32Z"/><path class="cls-1" d="M187.97,283.48c-.35,0-.66-.13-.91-.38-.26-.25-.38-.57-.38-.97s.13-.73,.38-.98,.56-.38,.91-.38,.67,.12,.92,.38c.25,.25,.38,.58,.38,.98s-.12,.72-.38,.97-.56,.38-.92,.38Z"/><path class="cls-1" d="M202.29,283.29v-1.14h2.61v-8.24h-2.61v-1.12h6.56v1.12h-2.61v8.24h2.61v1.14h-6.56Z"/><path class="cls-1" d="M215.87,283.48c-.76,0-1.35-.14-1.79-.41-.44-.27-.75-.65-.94-1.13-.19-.48-.28-1.04-.28-1.68v-3.68h-2.19v-.99l2.24-.08,.18-2.5h1.09v2.5h3.82v1.07h-3.82v3.7c0,.46,.06,.85,.18,1.17,.12,.32,.32,.56,.61,.72s.68,.24,1.18,.24c.37,0,.71-.03,1.01-.1,.3-.06,.59-.15,.86-.26l.29,.96c-.35,.13-.72,.24-1.11,.33-.39,.09-.83,.14-1.32,.14Z"/><path class="cls-1" d="M232.45,283.48c-.78,0-1.49-.16-2.12-.48s-1.14-.79-1.51-1.4c-.37-.61-.56-1.35-.56-2.22s.19-1.57,.56-2.18c.37-.61,.86-1.07,1.46-1.4,.6-.33,1.25-.49,1.94-.49,.75,0,1.38,.15,1.91,.46,.53,.3,.93,.73,1.22,1.27,.28,.54,.42,1.18,.42,1.92,0,.15,0,.29-.02,.43s-.03,.26-.05,.37h-6.58v-1.02h5.79l-.34,.37c0-.92-.21-1.61-.63-2.06-.42-.46-.99-.69-1.7-.69-.48,0-.93,.12-1.34,.35-.41,.24-.74,.58-.98,1.02-.25,.45-.37,1-.37,1.65s.13,1.23,.4,1.68c.27,.45,.63,.79,1.09,1.02,.46,.23,.98,.34,1.55,.34,.47,0,.89-.07,1.27-.2,.38-.13,.74-.31,1.1-.54l.48,.86c-.38,.26-.82,.47-1.32,.66s-1.06,.27-1.69,.27Z"/><path class="cls-1" d="M236.99,283.29l2.96-4.03-2.74-3.74h1.46l1.23,1.71c.14,.2,.29,.42,.45,.64,.16,.22,.31,.45,.46,.67h.06c.14-.22,.29-.45,.44-.68,.16-.23,.3-.45,.44-.66l1.17-1.68h1.39l-2.77,3.86,2.98,3.92h-1.44l-1.36-1.79c-.16-.22-.33-.46-.5-.7s-.35-.48-.52-.7h-.06c-.16,.22-.32,.45-.48,.69-.16,.23-.32,.47-.48,.72l-1.28,1.79h-1.41Z"/><path class="cls-1" d="M246.25,286.57v-11.06h1.09l.11,.99h.05c.36-.34,.78-.62,1.26-.85,.47-.22,.95-.34,1.43-.34,.7,0,1.29,.16,1.77,.49,.47,.33,.83,.78,1.08,1.38,.25,.59,.37,1.29,.37,2.1,0,.88-.17,1.63-.5,2.26-.33,.63-.76,1.11-1.3,1.44-.53,.33-1.11,.5-1.74,.5-.35,0-.74-.09-1.16-.26-.42-.18-.81-.42-1.16-.74h-.05l.06,1.47v2.62h-1.31Zm3.39-4.19c.46,0,.87-.12,1.23-.37,.36-.25,.65-.6,.86-1.06s.31-1.02,.31-1.66c0-.57-.08-1.06-.22-1.5s-.38-.77-.7-1.01c-.32-.24-.74-.36-1.26-.36-.35,0-.72,.09-1.11,.28-.39,.19-.78,.48-1.18,.89v3.87c.37,.33,.75,.57,1.13,.7s.7,.21,.95,.21Z"/><path class="cls-1" d="M258.85,283.48c-.78,0-1.49-.16-2.12-.48s-1.14-.79-1.51-1.4c-.37-.61-.56-1.35-.56-2.22s.19-1.57,.56-2.18c.37-.61,.86-1.07,1.46-1.4,.6-.33,1.25-.49,1.94-.49,.75,0,1.38,.15,1.91,.46,.53,.3,.93,.73,1.22,1.27,.28,.54,.42,1.18,.42,1.92,0,.15,0,.29-.02,.43s-.03,.26-.05,.37h-6.58v-1.02h5.79l-.34,.37c0-.92-.21-1.61-.63-2.06-.42-.46-.99-.69-1.7-.69-.48,0-.93,.12-1.34,.35-.41,.24-.74,.58-.98,1.02-.25,.45-.37,1-.37,1.65s.13,1.23,.4,1.68c.27,.45,.63,.79,1.09,1.02,.46,.23,.98,.34,1.55,.34,.47,0,.89-.07,1.27-.2,.38-.13,.74-.31,1.1-.54l.48,.86c-.38,.26-.82,.47-1.32,.66s-1.06,.27-1.69,.27Z"/><path class="cls-1" d="M267.9,283.48c-.81,0-1.54-.16-2.18-.48s-1.15-.78-1.52-1.39c-.37-.61-.55-1.34-.55-2.19s.2-1.62,.59-2.22c.39-.61,.92-1.07,1.58-1.39,.66-.32,1.38-.48,2.17-.48,.64,0,1.19,.11,1.66,.34,.46,.22,.86,.49,1.18,.8l-.66,.85c-.32-.28-.65-.5-.99-.66-.34-.16-.72-.24-1.14-.24-.6,0-1.13,.12-1.58,.38-.46,.25-.81,.6-1.06,1.06-.25,.45-.38,.98-.38,1.58s.12,1.1,.37,1.55c.25,.45,.59,.8,1.05,1.05,.45,.25,.98,.38,1.58,.38,.48,0,.92-.1,1.32-.29,.4-.19,.76-.42,1.08-.69l.59,.85c-.43,.38-.9,.68-1.43,.9-.53,.21-1.08,.32-1.66,.32Z"/><path class="cls-1" d="M277.47,283.48c-.76,0-1.35-.14-1.79-.41-.44-.27-.75-.65-.94-1.13-.19-.48-.28-1.04-.28-1.68v-3.68h-2.19v-.99l2.24-.08,.18-2.5h1.09v2.5h3.82v1.07h-3.82v3.7c0,.46,.06,.85,.18,1.17,.12,.32,.32,.56,.61,.72s.68,.24,1.18,.24c.37,0,.71-.03,1.01-.1,.3-.06,.59-.15,.86-.26l.29,.96c-.35,.13-.72,.24-1.11,.33-.39,.09-.83,.14-1.32,.14Z"/><path class="cls-1" d="M284.92,283.48c-.76,0-1.47-.12-2.13-.37s-1.23-.53-1.7-.85l.61-.86c.45,.32,.94,.58,1.49,.77,.54,.19,1.17,.29,1.89,.29,.66,0,1.15-.12,1.48-.37,.33-.25,.49-.53,.49-.85,0-.15-.03-.29-.09-.42s-.17-.25-.34-.37c-.17-.12-.41-.23-.73-.34-.32-.11-.75-.21-1.28-.32-1.01-.21-1.77-.5-2.28-.86-.51-.36-.76-.83-.76-1.41,0-.63,.27-1.15,.82-1.58,.54-.42,1.35-.63,2.42-.63,.6,0,1.17,.1,1.73,.3s1.02,.43,1.41,.7l-.64,.85c-.35-.26-.75-.46-1.2-.6-.45-.14-.92-.22-1.41-.22-.45,0-.8,.05-1.06,.15s-.45,.24-.56,.41c-.11,.17-.17,.36-.17,.56,0,.33,.18,.59,.54,.78,.36,.19,.93,.36,1.72,.52,.86,.18,1.53,.38,1.99,.61,.46,.22,.78,.48,.96,.77,.18,.29,.26,.63,.26,1.02,0,.43-.13,.81-.4,1.16s-.66,.63-1.17,.84c-.51,.21-1.14,.32-1.89,.32Z"/><path class="cls-1" d="M303.1,283.48c-.81,0-1.54-.16-2.18-.48s-1.15-.78-1.52-1.39c-.37-.61-.55-1.34-.55-2.19s.2-1.62,.59-2.22c.39-.61,.92-1.07,1.58-1.39,.66-.32,1.38-.48,2.17-.48,.64,0,1.19,.11,1.66,.34,.46,.22,.86,.49,1.18,.8l-.66,.85c-.32-.28-.65-.5-.99-.66-.34-.16-.72-.24-1.14-.24-.6,0-1.13,.12-1.58,.38-.46,.25-.81,.6-1.06,1.06-.25,.45-.38,.98-.38,1.58s.12,1.1,.37,1.55c.25,.45,.59,.8,1.05,1.05,.45,.25,.98,.38,1.58,.38,.48,0,.92-.1,1.32-.29,.4-.19,.76-.42,1.08-.69l.59,.85c-.43,.38-.9,.68-1.43,.9-.53,.21-1.08,.32-1.66,.32Z"/><path class="cls-1" d="M311.16,283.48c-.68,0-1.31-.16-1.9-.48-.58-.32-1.05-.78-1.41-1.39-.36-.61-.54-1.34-.54-2.19s.18-1.62,.54-2.22c.36-.61,.83-1.07,1.41-1.39,.58-.32,1.21-.48,1.9-.48s1.31,.16,1.9,.48c.58,.32,1.05,.78,1.41,1.39,.36,.61,.54,1.35,.54,2.22s-.18,1.58-.54,2.19c-.36,.61-.83,1.07-1.41,1.39-.58,.32-1.21,.48-1.9,.48Zm0-1.09c.5,0,.94-.12,1.31-.38,.37-.25,.66-.6,.86-1.05,.2-.45,.3-.96,.3-1.55s-.1-1.12-.3-1.58c-.2-.45-.49-.8-.86-1.06-.37-.25-.81-.38-1.31-.38s-.94,.12-1.3,.38-.66,.6-.86,1.06c-.21,.45-.31,.98-.31,1.58s.1,1.1,.31,1.55c.21,.45,.5,.8,.86,1.05,.37,.25,.8,.38,1.3,.38Z"/><path class="cls-1" d="M316.09,283.29v-7.78h1.06l.11,1.02h.03c.2-.36,.44-.66,.7-.88,.27-.22,.62-.34,1.07-.34,.38,0,.7,.11,.94,.34,.25,.22,.42,.56,.53,1.01,.22-.42,.47-.74,.74-.98,.27-.24,.63-.36,1.08-.36,.54,0,.97,.21,1.27,.62,.3,.41,.46,1,.46,1.78v5.57h-1.31v-5.47c0-.91-.28-1.36-.83-1.36-.27,0-.49,.1-.66,.3s-.37,.5-.58,.9v5.63h-1.22v-5.47c0-.45-.06-.79-.18-1.02-.12-.23-.33-.34-.62-.34-.27,0-.5,.1-.7,.3s-.39,.5-.58,.9v5.63h-1.31Z"/><path class="cls-1" d="M324.89,283.29v-7.78h1.06l.11,1.02h.03c.2-.36,.44-.66,.7-.88,.27-.22,.62-.34,1.07-.34,.38,0,.7,.11,.94,.34,.25,.22,.42,.56,.53,1.01,.22-.42,.47-.74,.74-.98,.27-.24,.63-.36,1.08-.36,.54,0,.97,.21,1.27,.62,.3,.41,.46,1,.46,1.78v5.57h-1.31v-5.47c0-.91-.28-1.36-.83-1.36-.27,0-.49,.1-.66,.3s-.37,.5-.58,.9v5.63h-1.22v-5.47c0-.45-.06-.79-.18-1.02-.12-.23-.33-.34-.62-.34-.27,0-.5,.1-.7,.3s-.39,.5-.58,.9v5.63h-1.31Z"/><path class="cls-1" d="M337.82,283.29v-6.7h-3.62v-1.07h4.93v7.78h-1.31Zm.51-9.41c-.3,0-.55-.09-.75-.28-.2-.19-.3-.43-.3-.74s.1-.56,.3-.74c.2-.19,.45-.28,.75-.28s.55,.09,.75,.28c.2,.19,.3,.43,.3,.74s-.1,.56-.3,.74c-.2,.19-.45,.28-.75,.28Z"/><path class="cls-1" d="M347.87,283.48c-.76,0-1.35-.14-1.79-.41-.44-.27-.75-.65-.94-1.13-.19-.48-.28-1.04-.28-1.68v-3.68h-2.19v-.99l2.24-.08,.18-2.5h1.09v2.5h3.82v1.07h-3.82v3.7c0,.46,.06,.85,.18,1.17,.12,.32,.32,.56,.61,.72s.68,.24,1.18,.24c.37,0,.71-.03,1.01-.1,.3-.06,.59-.15,.86-.26l.29,.96c-.35,.13-.72,.24-1.11,.33-.39,.09-.83,.14-1.32,.14Z"/><path class="cls-1" d="M355.32,283.48c-.76,0-1.47-.12-2.13-.37s-1.23-.53-1.7-.85l.61-.86c.45,.32,.94,.58,1.49,.77,.54,.19,1.17,.29,1.89,.29,.66,0,1.15-.12,1.48-.37,.33-.25,.49-.53,.49-.85,0-.15-.03-.29-.09-.42s-.17-.25-.34-.37c-.17-.12-.41-.23-.73-.34-.32-.11-.75-.21-1.28-.32-1.01-.21-1.77-.5-2.28-.86-.51-.36-.76-.83-.76-1.41,0-.63,.27-1.15,.82-1.58,.54-.42,1.35-.63,2.42-.63,.6,0,1.17,.1,1.73,.3s1.02,.43,1.41,.7l-.64,.85c-.35-.26-.75-.46-1.2-.6-.45-.14-.92-.22-1.41-.22-.45,0-.8,.05-1.06,.15s-.45,.24-.56,.41c-.11,.17-.17,.36-.17,.56,0,.33,.18,.59,.54,.78,.36,.19,.93,.36,1.72,.52,.86,.18,1.53,.38,1.99,.61,.46,.22,.78,.48,.96,.77,.18,.29,.26,.63,.26,1.02,0,.43-.13,.81-.4,1.16s-.66,.63-1.17,.84c-.51,.21-1.14,.32-1.89,.32Z"/><path class="cls-1" d="M374.26,283.48c-.76,0-1.35-.14-1.79-.41-.44-.27-.75-.65-.94-1.13-.19-.48-.28-1.04-.28-1.68v-3.68h-2.19v-.99l2.24-.08,.18-2.5h1.09v2.5h3.82v1.07h-3.82v3.7c0,.46,.06,.85,.18,1.17,.12,.32,.32,.56,.61,.72s.68,.24,1.18,.24c.37,0,.71-.03,1.01-.1,.3-.06,.59-.15,.86-.26l.29,.96c-.35,.13-.72,.24-1.11,.33-.39,.09-.83,.14-1.32,.14Z"/><path class="cls-1" d="M381.56,283.48c-.68,0-1.31-.16-1.9-.48-.58-.32-1.05-.78-1.41-1.39-.36-.61-.54-1.34-.54-2.19s.18-1.62,.54-2.22c.36-.61,.83-1.07,1.41-1.39,.58-.32,1.21-.48,1.9-.48s1.31,.16,1.9,.48c.58,.32,1.05,.78,1.41,1.39,.36,.61,.54,1.35,.54,2.22s-.18,1.58-.54,2.19c-.36,.61-.83,1.07-1.41,1.39-.58,.32-1.21,.48-1.9,.48Zm0-1.09c.5,0,.94-.12,1.31-.38,.37-.25,.66-.6,.86-1.05,.2-.45,.3-.96,.3-1.55s-.1-1.12-.3-1.58c-.2-.45-.49-.8-.86-1.06-.37-.25-.81-.38-1.31-.38s-.94,.12-1.3,.38-.66,.6-.86,1.06c-.21,.45-.31,.98-.31,1.58s.1,1.1,.31,1.55c.21,.45,.5,.8,.86,1.05,.37,.25,.8,.38,1.3,.38Z"/><path class="cls-1" d="M399.48,283.48c-.38,0-.79-.09-1.22-.28-.43-.19-.83-.45-1.19-.78h-.05l-.11,.86h-1.06v-11.39h1.31v3.1l-.05,1.5h.05c.35-.36,.76-.65,1.22-.86,.46-.21,.92-.32,1.38-.32,.7,0,1.3,.16,1.78,.49,.48,.33,.84,.78,1.09,1.38,.25,.59,.37,1.29,.37,2.09,0,.88-.16,1.64-.49,2.27-.33,.63-.75,1.11-1.29,1.44-.53,.33-1.12,.5-1.74,.5Zm-.21-1.1c.45,0,.85-.12,1.21-.37,.36-.25,.64-.6,.85-1.06s.31-1.02,.31-1.66c0-.57-.08-1.06-.22-1.5s-.38-.77-.7-1.01c-.32-.24-.74-.36-1.26-.36-.35,0-.72,.09-1.11,.28-.39,.19-.78,.48-1.18,.89v3.87c.37,.33,.75,.57,1.13,.7s.71,.21,.98,.21Z"/><path class="cls-1" d="M408.44,283.48c-.78,0-1.49-.16-2.12-.48s-1.14-.79-1.51-1.4c-.37-.61-.56-1.35-.56-2.22s.19-1.57,.56-2.18c.37-.61,.86-1.07,1.46-1.4,.6-.33,1.25-.49,1.94-.49,.75,0,1.38,.15,1.91,.46,.53,.3,.93,.73,1.22,1.27,.28,.54,.42,1.18,.42,1.92,0,.15,0,.29-.02,.43s-.03,.26-.05,.37h-6.58v-1.02h5.79l-.34,.37c0-.92-.21-1.61-.63-2.06-.42-.46-.99-.69-1.7-.69-.48,0-.93,.12-1.34,.35-.41,.24-.74,.58-.98,1.02-.25,.45-.37,1-.37,1.65s.13,1.23,.4,1.68c.27,.45,.63,.79,1.09,1.02,.46,.23,.98,.34,1.55,.34,.47,0,.89-.07,1.27-.2,.38-.13,.74-.31,1.1-.54l.48,.86c-.38,.26-.82,.47-1.32,.66s-1.06,.27-1.69,.27Z"/><path class="cls-1" d="M39.88,307.48c-.76,0-1.35-.14-1.79-.41-.44-.27-.75-.65-.94-1.13-.19-.48-.28-1.04-.28-1.68v-3.68h-2.19v-.99l2.24-.08,.18-2.5h1.09v2.5h3.82v1.07h-3.82v3.7c0,.46,.06,.85,.18,1.17,.12,.32,.32,.56,.61,.72s.68,.24,1.18,.24c.37,0,.71-.03,1.01-.1,.3-.06,.59-.15,.86-.26l.29,.96c-.35,.13-.72,.24-1.11,.33-.39,.09-.83,.14-1.32,.14Z"/><path class="cls-1" d="M47.43,307.29v-6.7h-3.62v-1.07h4.93v7.78h-1.31Zm.51-9.41c-.3,0-.55-.09-.75-.28-.2-.19-.3-.43-.3-.74s.1-.56,.3-.74c.2-.19,.45-.28,.75-.28s.55,.09,.75,.28c.2,.19,.3,.43,.3,.74s-.1,.56-.3,.74c-.2,.19-.45,.28-.75,.28Z"/><path class="cls-1" d="M57.48,307.48c-.76,0-1.35-.14-1.79-.41-.44-.27-.75-.65-.94-1.13-.19-.48-.28-1.04-.28-1.68v-3.68h-2.19v-.99l2.24-.08,.18-2.5h1.09v2.5h3.82v1.07h-3.82v3.7c0,.46,.06,.85,.18,1.17,.12,.32,.32,.56,.61,.72s.68,.24,1.18,.24c.37,0,.71-.03,1.01-.1,.3-.06,.59-.15,.86-.26l.29,.96c-.35,.13-.72,.24-1.11,.33-.39,.09-.83,.14-1.32,.14Z"/><path class="cls-1" d="M66.47,307.48c-.82,0-1.45-.24-1.89-.71-.44-.47-.66-1.17-.66-2.09v-7.71h-2.66v-1.07h3.97v8.88c0,.57,.14,.98,.42,1.23s.65,.38,1.1,.38c.22,0,.45-.03,.69-.09,.23-.06,.5-.15,.78-.28l.34,.99c-.35,.13-.68,.24-.99,.33-.31,.09-.68,.14-1.1,.14Z"/><path class="cls-1" d="M74.05,307.48c-.78,0-1.49-.16-2.12-.48s-1.14-.79-1.51-1.4c-.37-.61-.56-1.35-.56-2.22s.19-1.57,.56-2.18c.37-.61,.86-1.07,1.46-1.4,.6-.33,1.25-.49,1.94-.49,.75,0,1.38,.15,1.91,.46,.53,.3,.93,.73,1.22,1.27,.28,.54,.42,1.18,.42,1.92,0,.15,0,.29-.02,.43s-.03,.26-.05,.37h-6.58v-1.02h5.79l-.34,.37c0-.92-.21-1.61-.63-2.06-.42-.46-.99-.69-1.7-.69-.48,0-.93,.12-1.34,.35-.41,.24-.74,.58-.98,1.02-.25,.45-.37,1-.37,1.65s.13,1.23,.4,1.68c.27,.45,.63,.79,1.09,1.02,.46,.23,.98,.34,1.55,.34,.47,0,.89-.07,1.27-.2,.38-.13,.74-.31,1.1-.54l.48,.86c-.38,.26-.82,.47-1.32,.66s-1.06,.27-1.69,.27Z"/><path class="cls-1" d="M81.91,307.48c-1.01,0-1.83-.35-2.45-1.06-.62-.71-.93-1.71-.93-3,0-.84,.17-1.57,.5-2.18s.77-1.09,1.31-1.42c.54-.33,1.11-.5,1.72-.5,.46,0,.88,.09,1.26,.26s.73,.42,1.06,.74h.05l-.06-1.44v-2.99h1.31v11.39h-1.09l-.11-1.02h-.05c-.31,.33-.69,.62-1.13,.86-.44,.24-.91,.36-1.4,.36Zm.27-1.1c.38,0,.76-.1,1.12-.3,.36-.2,.72-.49,1.07-.87v-3.87c-.35-.33-.7-.57-1.03-.7s-.67-.21-1.02-.21c-.45,0-.86,.13-1.22,.38-.37,.25-.66,.6-.88,1.04-.22,.44-.33,.96-.33,1.56,0,.93,.2,1.66,.61,2.18s.97,.79,1.68,.79Z"/><path class="cls-1" d="M100.23,307.29v-6.7h-3.62v-1.07h4.93v7.78h-1.31Zm.51-9.41c-.3,0-.55-.09-.75-.28-.2-.19-.3-.43-.3-.74s.1-.56,.3-.74c.2-.19,.45-.28,.75-.28s.55,.09,.75,.28c.2,.19,.3,.43,.3,.74s-.1,.56-.3,.74c-.2,.19-.45,.28-.75,.28Z"/><path class="cls-1" d="M105.46,307.29v-7.78h1.09l.11,1.33h.06c.41-.44,.84-.8,1.31-1.09,.47-.29,1.01-.43,1.62-.43,.92,0,1.59,.27,2.03,.8s.66,1.31,.66,2.34v4.83h-1.31v-4.66c0-.74-.14-1.28-.42-1.64s-.74-.54-1.38-.54c-.46,0-.87,.12-1.23,.35-.36,.24-.77,.59-1.23,1.06v5.42h-1.31Z"/><path class="cls-1" d="M125.51,307.48c-.48,0-.92-.09-1.33-.26-.41-.18-.73-.43-.96-.76-.24-.33-.35-.73-.35-1.18,0-.88,.44-1.54,1.31-1.99,.87-.45,2.31-.76,4.32-.92-.01-.35-.08-.68-.22-.98-.13-.3-.35-.54-.65-.71-.3-.18-.7-.26-1.2-.26-.33,0-.66,.04-.98,.14s-.63,.21-.93,.35c-.29,.14-.56,.29-.81,.44l-.51-.9c.26-.17,.57-.34,.94-.52,.37-.18,.76-.32,1.19-.43,.43-.11,.87-.17,1.33-.17,.71,0,1.3,.13,1.77,.4,.46,.27,.81,.64,1.04,1.11,.23,.47,.34,1.04,.34,1.69v4.77h-1.07l-.11-1.06h-.05c-.43,.34-.91,.63-1.44,.88-.53,.25-1.08,.37-1.63,.37Zm.35-1.06c.45,0,.89-.1,1.33-.3,.44-.2,.87-.49,1.31-.85v-2.05c-1.11,.1-1.98,.23-2.62,.4-.63,.17-1.08,.39-1.34,.65-.26,.26-.39,.56-.39,.9,0,.29,.08,.53,.24,.71,.16,.19,.37,.32,.63,.41,.26,.09,.54,.13,.84,.13Z"/><path class="cls-1" d="M143.27,307.29l-3.28-7.78h1.33l1.79,4.42c.16,.38,.31,.77,.46,1.15,.14,.38,.29,.76,.42,1.14h.06c.14-.37,.28-.75,.42-1.14s.28-.77,.43-1.15l1.79-4.42h1.26l-3.22,7.78h-1.47Z"/><path class="cls-1" d="M153.25,307.48c-.78,0-1.49-.16-2.12-.48s-1.14-.79-1.51-1.4c-.37-.61-.56-1.35-.56-2.22s.19-1.57,.56-2.18c.37-.61,.86-1.07,1.46-1.4,.6-.33,1.25-.49,1.94-.49,.75,0,1.38,.15,1.91,.46,.53,.3,.93,.73,1.22,1.27,.28,.54,.42,1.18,.42,1.92,0,.15,0,.29-.02,.43s-.03,.26-.05,.37h-6.58v-1.02h5.79l-.34,.37c0-.92-.21-1.61-.63-2.06-.42-.46-.99-.69-1.7-.69-.48,0-.93,.12-1.34,.35-.41,.24-.74,.58-.98,1.02-.25,.45-.37,1-.37,1.65s.13,1.23,.4,1.68c.27,.45,.63,.79,1.09,1.02,.46,.23,.98,.34,1.55,.34,.47,0,.89-.07,1.27-.2,.38-.13,.74-.31,1.1-.54l.48,.86c-.38,.26-.82,.47-1.32,.66s-1.06,.27-1.69,.27Z"/><path class="cls-1" d="M159.11,307.29v-7.78h1.09l.11,1.84h.05c.41-.63,.91-1.13,1.5-1.49s1.25-.54,1.97-.54c.29,0,.56,.02,.81,.07,.25,.05,.49,.13,.73,.25l-.3,1.14c-.27-.1-.5-.17-.69-.21-.19-.04-.44-.06-.75-.06-.59,0-1.15,.17-1.69,.5-.54,.34-1.04,.91-1.51,1.72v4.56h-1.31Z"/><path class="cls-1" d="M167.67,310.63c-.17,0-.35-.02-.54-.05s-.35-.07-.49-.11l.27-1.04c.11,.03,.22,.06,.34,.08,.12,.02,.24,.03,.36,.03,.54,0,.99-.16,1.33-.47,.34-.31,.61-.71,.8-1.19l.24-.58-3.63-7.79h1.33l1.9,4.3c.15,.34,.31,.71,.47,1.1,.17,.39,.33,.78,.49,1.16h.06c.14-.37,.28-.75,.42-1.14,.14-.39,.28-.76,.41-1.11l1.7-4.3h1.25l-3.42,8.42c-.19,.51-.43,.97-.72,1.38-.29,.41-.64,.73-1.06,.97-.42,.23-.93,.35-1.51,.35Z"/><path class="cls-1" d="M188.13,307.48c-.76,0-1.47-.12-2.13-.37s-1.23-.53-1.7-.85l.61-.86c.45,.32,.94,.58,1.49,.77,.54,.19,1.17,.29,1.89,.29,.66,0,1.15-.12,1.48-.37,.33-.25,.49-.53,.49-.85,0-.15-.03-.29-.09-.42s-.17-.25-.34-.37c-.17-.12-.41-.23-.73-.34-.32-.11-.75-.21-1.28-.32-1.01-.21-1.77-.5-2.28-.86-.51-.36-.76-.83-.76-1.41,0-.63,.27-1.15,.82-1.58,.54-.42,1.35-.63,2.42-.63,.6,0,1.17,.1,1.73,.3s1.02,.43,1.41,.7l-.64,.85c-.35-.26-.75-.46-1.2-.6-.45-.14-.92-.22-1.41-.22-.45,0-.8,.05-1.06,.15s-.45,.24-.56,.41c-.11,.17-.17,.36-.17,.56,0,.33,.18,.59,.54,.78,.36,.19,.93,.36,1.72,.52,.86,.18,1.53,.38,1.99,.61,.46,.22,.78,.48,.96,.77,.18,.29,.26,.63,.26,1.02,0,.43-.13,.81-.4,1.16s-.66,.63-1.17,.84c-.51,.21-1.14,.32-1.89,.32Z"/><path class="cls-1" d="M193.46,310.57v-11.06h1.09l.11,.99h.05c.36-.34,.78-.62,1.26-.85,.47-.22,.95-.34,1.43-.34,.7,0,1.29,.16,1.77,.49,.47,.33,.83,.78,1.08,1.38,.25,.59,.37,1.29,.37,2.1,0,.88-.17,1.63-.5,2.26-.33,.63-.76,1.11-1.3,1.44-.53,.33-1.11,.5-1.74,.5-.35,0-.74-.09-1.16-.26-.42-.18-.81-.42-1.16-.74h-.05l.06,1.47v2.62h-1.31Zm3.39-4.19c.46,0,.87-.12,1.23-.37,.36-.25,.65-.6,.86-1.06s.31-1.02,.31-1.66c0-.57-.08-1.06-.22-1.5s-.38-.77-.7-1.01c-.32-.24-.74-.36-1.26-.36-.35,0-.72,.09-1.11,.28-.39,.19-.78,.48-1.18,.89v3.87c.37,.33,.75,.57,1.13,.7s.7,.21,.95,.21Z"/><path class="cls-1" d="M206.05,307.48c-.78,0-1.49-.16-2.12-.48s-1.14-.79-1.51-1.4c-.37-.61-.56-1.35-.56-2.22s.19-1.57,.56-2.18c.37-.61,.86-1.07,1.46-1.4,.6-.33,1.25-.49,1.94-.49,.75,0,1.38,.15,1.91,.46,.53,.3,.93,.73,1.22,1.27,.28,.54,.42,1.18,.42,1.92,0,.15,0,.29-.02,.43s-.03,.26-.05,.37h-6.58v-1.02h5.79l-.34,.37c0-.92-.21-1.61-.63-2.06-.42-.46-.99-.69-1.7-.69-.48,0-.93,.12-1.34,.35-.41,.24-.74,.58-.98,1.02-.25,.45-.37,1-.37,1.65s.13,1.23,.4,1.68c.27,.45,.63,.79,1.09,1.02,.46,.23,.98,.34,1.55,.34,.47,0,.89-.07,1.27-.2,.38-.13,.74-.31,1.1-.54l.48,.86c-.38,.26-.82,.47-1.32,.66s-1.06,.27-1.69,.27Z"/><path class="cls-1" d="M215.1,307.48c-.81,0-1.54-.16-2.18-.48s-1.15-.78-1.52-1.39c-.37-.61-.55-1.34-.55-2.19s.2-1.62,.59-2.22c.39-.61,.92-1.07,1.58-1.39,.66-.32,1.38-.48,2.17-.48,.64,0,1.19,.11,1.66,.34,.46,.22,.86,.49,1.18,.8l-.66,.85c-.32-.28-.65-.5-.99-.66-.34-.16-.72-.24-1.14-.24-.6,0-1.13,.12-1.58,.38-.46,.25-.81,.6-1.06,1.06-.25,.45-.38,.98-.38,1.58s.12,1.1,.37,1.55c.25,.45,.59,.8,1.05,1.05,.45,.25,.98,.38,1.58,.38,.48,0,.92-.1,1.32-.29,.4-.19,.76-.42,1.08-.69l.59,.85c-.43,.38-.9,.68-1.43,.9-.53,.21-1.08,.32-1.66,.32Z"/><path class="cls-1" d="M223.42,307.29v-6.7h-3.62v-1.07h4.93v7.78h-1.31Zm.51-9.41c-.3,0-.55-.09-.75-.28-.2-.19-.3-.43-.3-.74s.1-.56,.3-.74c.2-.19,.45-.28,.75-.28s.55,.09,.75,.28c.2,.19,.3,.43,.3,.74s-.1,.56-.3,.74c-.2,.19-.45,.28-.75,.28Z"/><path class="cls-1" d="M228.82,300.58v-.99l2.27-.08h4.51v1.07h-6.78Zm2.22,6.7v-8.43c0-.63,.11-1.18,.34-1.66s.57-.84,1.03-1.1c.46-.26,1.04-.39,1.76-.39,.38,0,.76,.04,1.13,.1,.37,.07,.74,.18,1.11,.34l-.3,.99c-.32-.15-.62-.25-.89-.3-.27-.05-.58-.07-.92-.07-.69,0-1.19,.18-1.5,.54s-.46,.86-.46,1.49v8.48h-1.3Z"/><path class="cls-1" d="M241.02,307.29v-6.7h-3.62v-1.07h4.93v7.78h-1.31Zm.51-9.41c-.3,0-.55-.09-.75-.28-.2-.19-.3-.43-.3-.74s.1-.56,.3-.74c.2-.19,.45-.28,.75-.28s.55,.09,.75,.28c.2,.19,.3,.43,.3,.74s-.1,.56-.3,.74c-.2,.19-.45,.28-.75,.28Z"/><path class="cls-1" d="M250.3,307.48c-.81,0-1.54-.16-2.18-.48s-1.15-.78-1.52-1.39c-.37-.61-.55-1.34-.55-2.19s.2-1.62,.59-2.22c.39-.61,.92-1.07,1.58-1.39,.66-.32,1.38-.48,2.17-.48,.64,0,1.19,.11,1.66,.34,.46,.22,.86,.49,1.18,.8l-.66,.85c-.32-.28-.65-.5-.99-.66-.34-.16-.72-.24-1.14-.24-.6,0-1.13,.12-1.58,.38-.46,.25-.81,.6-1.06,1.06-.25,.45-.38,.98-.38,1.58s.12,1.1,.37,1.55c.25,.45,.59,.8,1.05,1.05,.45,.25,.98,.38,1.58,.38,.48,0,.92-.1,1.32-.29,.4-.19,.76-.42,1.08-.69l.59,.85c-.43,.38-.9,.68-1.43,.9-.53,.21-1.08,.32-1.66,.32Z"/><path class="cls-1" d="M264.19,307.29l-1.7-7.78h1.31l.93,4.51c.07,.36,.14,.72,.2,1.06,.06,.35,.11,.71,.15,1.08h.06c.05-.37,.12-.73,.2-1.08s.16-.7,.25-1.06l.96-4.03h1.31l.93,4.03c.09,.36,.18,.72,.27,1.06s.17,.71,.21,1.08h.06c.06-.37,.12-.73,.17-1.08,.05-.35,.11-.7,.18-1.06l.93-4.51h1.22l-1.66,7.78h-1.7l-.9-3.71c-.06-.28-.13-.61-.19-.99-.06-.38-.13-.82-.19-1.31h-.06c-.06,.49-.13,.93-.19,1.31-.06,.38-.13,.71-.19,.99l-.86,3.71h-1.7Z"/><path class="cls-1" d="M275.1,307.48c-.48,0-.92-.09-1.33-.26-.41-.18-.73-.43-.96-.76-.24-.33-.35-.73-.35-1.18,0-.88,.44-1.54,1.31-1.99,.87-.45,2.31-.76,4.32-.92-.01-.35-.08-.68-.22-.98-.13-.3-.35-.54-.65-.71-.3-.18-.7-.26-1.2-.26-.33,0-.66,.04-.98,.14s-.63,.21-.93,.35c-.29,.14-.56,.29-.81,.44l-.51-.9c.26-.17,.57-.34,.94-.52,.37-.18,.76-.32,1.19-.43,.43-.11,.87-.17,1.33-.17,.71,0,1.3,.13,1.77,.4,.46,.27,.81,.64,1.04,1.11,.23,.47,.34,1.04,.34,1.69v4.77h-1.07l-.11-1.06h-.05c-.43,.34-.91,.63-1.44,.88-.53,.25-1.08,.37-1.63,.37Zm.35-1.06c.45,0,.89-.1,1.33-.3,.44-.2,.87-.49,1.31-.85v-2.05c-1.11,.1-1.98,.23-2.62,.4-.63,.17-1.08,.39-1.34,.65-.26,.26-.39,.56-.39,.9,0,.29,.08,.53,.24,.71,.16,.19,.37,.32,.63,.41,.26,.09,.54,.13,.84,.13Z"/><path class="cls-1" d="M282.06,310.63c-.17,0-.35-.02-.54-.05s-.35-.07-.49-.11l.27-1.04c.11,.03,.22,.06,.34,.08,.12,.02,.24,.03,.36,.03,.54,0,.99-.16,1.33-.47,.34-.31,.61-.71,.8-1.19l.24-.58-3.63-7.79h1.33l1.9,4.3c.15,.34,.31,.71,.47,1.1,.17,.39,.33,.78,.49,1.16h.06c.14-.37,.28-.75,.42-1.14,.14-.39,.28-.76,.41-1.11l1.7-4.3h1.25l-3.42,8.42c-.19,.51-.43,.97-.72,1.38-.29,.41-.64,.73-1.06,.97-.42,.23-.93,.35-1.51,.35Z"/><path class="cls-1" d="M293.56,307.48c-.35,0-.66-.13-.91-.38-.26-.25-.38-.57-.38-.97s.13-.73,.38-.98,.56-.38,.91-.38,.67,.12,.92,.38c.25,.25,.38,.58,.38,.98s-.12,.72-.38,.97-.56,.38-.92,.38Z"/><path class="cls-1" d="M37.7,355.29v-9.38h-3.46v-1.12h8.26v1.12h-3.46v9.38h-1.34Z"/><path class="cls-1" d="M47.18,355.48c-.68,0-1.31-.16-1.9-.48-.58-.32-1.05-.78-1.41-1.39-.36-.61-.54-1.34-.54-2.19s.18-1.62,.54-2.22c.36-.61,.83-1.07,1.41-1.39,.58-.32,1.21-.48,1.9-.48s1.31,.16,1.9,.48c.58,.32,1.05,.78,1.41,1.39,.36,.61,.54,1.35,.54,2.22s-.18,1.58-.54,2.19c-.36,.61-.83,1.07-1.41,1.39-.58,.32-1.21,.48-1.9,.48Zm0-1.09c.5,0,.94-.12,1.31-.38,.37-.25,.66-.6,.86-1.05,.2-.45,.3-.96,.3-1.55s-.1-1.12-.3-1.58c-.2-.45-.49-.8-.86-1.06-.37-.25-.81-.38-1.31-.38s-.94,.12-1.3,.38-.66,.6-.86,1.06c-.21,.45-.31,.98-.31,1.58s.1,1.1,.31,1.55c.21,.45,.5,.8,.86,1.05,.37,.25,.8,.38,1.3,.38Z"/><path class="cls-1" d="M61.46,358.57v-11.06h1.09l.11,.99h.05c.36-.34,.78-.62,1.26-.85,.47-.22,.95-.34,1.43-.34,.7,0,1.29,.16,1.77,.49,.47,.33,.83,.78,1.08,1.38,.25,.59,.37,1.29,.37,2.1,0,.88-.17,1.63-.5,2.26-.33,.63-.76,1.11-1.3,1.44-.53,.33-1.11,.5-1.74,.5-.35,0-.74-.09-1.16-.26-.42-.18-.81-.42-1.16-.74h-.05l.06,1.47v2.62h-1.31Zm3.39-4.19c.46,0,.87-.12,1.23-.37,.36-.25,.65-.6,.86-1.06s.31-1.02,.31-1.66c0-.57-.08-1.06-.22-1.5s-.38-.77-.7-1.01c-.32-.24-.74-.36-1.26-.36-.35,0-.72,.09-1.11,.28-.39,.19-.78,.48-1.18,.89v3.87c.37,.33,.75,.57,1.13,.7s.7,.21,.95,.21Z"/><path class="cls-1" d="M72.71,355.48c-.93,0-1.61-.27-2.05-.8-.44-.53-.66-1.31-.66-2.34v-4.83h1.33v4.66c0,.74,.14,1.28,.41,1.64,.27,.36,.73,.54,1.38,.54,.45,0,.86-.11,1.22-.34s.76-.59,1.19-1.1v-5.39h1.31v7.78h-1.07l-.11-1.36h-.06c-.39,.45-.83,.82-1.3,1.11-.47,.29-1,.44-1.6,.44Z"/><path class="cls-1" d="M82.69,355.48c-.38,0-.79-.09-1.22-.28-.43-.19-.83-.45-1.19-.78h-.05l-.11,.86h-1.06v-11.39h1.31v3.1l-.05,1.5h.05c.35-.36,.76-.65,1.22-.86,.46-.21,.92-.32,1.38-.32,.7,0,1.3,.16,1.78,.49,.48,.33,.84,.78,1.09,1.38,.25,.59,.37,1.29,.37,2.09,0,.88-.16,1.64-.49,2.27-.33,.63-.75,1.11-1.29,1.44-.53,.33-1.12,.5-1.74,.5Zm-.21-1.1c.45,0,.85-.12,1.21-.37,.36-.25,.64-.6,.85-1.06s.31-1.02,.31-1.66c0-.57-.08-1.06-.22-1.5s-.38-.77-.7-1.01c-.32-.24-.74-.36-1.26-.36-.35,0-.72,.09-1.11,.28-.39,.19-.78,.48-1.18,.89v3.87c.37,.33,.75,.57,1.13,.7s.71,.21,.98,.21Z"/><path class="cls-1" d="M92.87,355.48c-.82,0-1.45-.24-1.89-.71-.44-.47-.66-1.17-.66-2.09v-7.71h-2.66v-1.07h3.97v8.88c0,.57,.14,.98,.42,1.23s.65,.38,1.1,.38c.22,0,.45-.03,.69-.09,.23-.06,.5-.15,.78-.28l.34,.99c-.35,.13-.68,.24-.99,.33-.31,.09-.68,.14-1.1,.14Z"/><path class="cls-1" d="M100.23,355.29v-6.7h-3.62v-1.07h4.93v7.78h-1.31Zm.51-9.41c-.3,0-.55-.09-.75-.28-.2-.19-.3-.43-.3-.74s.1-.56,.3-.74c.2-.19,.45-.28,.75-.28s.55,.09,.75,.28c.2,.19,.3,.43,.3,.74s-.1,.56-.3,.74c-.2,.19-.45,.28-.75,.28Z"/><path class="cls-1" d="M108.93,355.48c-.76,0-1.47-.12-2.13-.37s-1.23-.53-1.7-.85l.61-.86c.45,.32,.94,.58,1.49,.77,.54,.19,1.17,.29,1.89,.29,.66,0,1.15-.12,1.48-.37,.33-.25,.49-.53,.49-.85,0-.15-.03-.29-.09-.42s-.17-.25-.34-.37c-.17-.12-.41-.23-.73-.34-.32-.11-.75-.21-1.28-.32-1.01-.21-1.77-.5-2.28-.86-.51-.36-.76-.83-.76-1.41,0-.63,.27-1.15,.82-1.58,.54-.42,1.35-.63,2.42-.63,.6,0,1.17,.1,1.73,.3s1.02,.43,1.41,.7l-.64,.85c-.35-.26-.75-.46-1.2-.6-.45-.14-.92-.22-1.41-.22-.45,0-.8,.05-1.06,.15s-.45,.24-.56,.41c-.11,.17-.17,.36-.17,.56,0,.33,.18,.59,.54,.78,.36,.19,.93,.36,1.72,.52,.86,.18,1.53,.38,1.99,.61,.46,.22,.78,.48,.96,.77,.18,.29,.26,.63,.26,1.02,0,.43-.13,.81-.4,1.16s-.66,.63-1.17,.84c-.51,.21-1.14,.32-1.89,.32Z"/><path class="cls-1" d="M114.26,355.29v-11.39h1.31v3.1l-.08,1.84h.05c.39-.43,.83-.79,1.3-1.08,.47-.29,1.01-.44,1.62-.44,.92,0,1.59,.27,2.03,.8s.66,1.31,.66,2.34v4.83h-1.31v-4.66c0-.74-.14-1.28-.42-1.64s-.74-.54-1.38-.54c-.46,0-.87,.12-1.23,.35-.36,.24-.77,.59-1.23,1.06v5.42h-1.31Z"/><path class="cls-1" d="M134.31,355.48c-.48,0-.92-.09-1.33-.26-.41-.18-.73-.43-.96-.76-.24-.33-.35-.73-.35-1.18,0-.88,.44-1.54,1.31-1.99,.87-.45,2.31-.76,4.32-.92-.01-.35-.08-.68-.22-.98-.13-.3-.35-.54-.65-.71-.3-.18-.7-.26-1.2-.26-.33,0-.66,.04-.98,.14s-.63,.21-.93,.35c-.29,.14-.56,.29-.81,.44l-.51-.9c.26-.17,.57-.34,.94-.52,.37-.18,.76-.32,1.19-.43,.43-.11,.87-.17,1.33-.17,.71,0,1.3,.13,1.77,.4,.46,.27,.81,.64,1.04,1.11,.23,.47,.34,1.04,.34,1.69v4.77h-1.07l-.11-1.06h-.05c-.43,.34-.91,.63-1.44,.88-.53,.25-1.08,.37-1.63,.37Zm.35-1.06c.45,0,.89-.1,1.33-.3,.44-.2,.87-.49,1.31-.85v-2.05c-1.11,.1-1.98,.23-2.62,.4-.63,.17-1.08,.39-1.34,.65-.26,.26-.39,.56-.39,.9,0,.29,.08,.53,.24,.71,.16,.19,.37,.32,.63,.41,.26,.09,.54,.13,.84,.13Z"/><path class="cls-1" d="M149.46,355.29v-7.78h1.09l.11,1.33h.06c.41-.44,.84-.8,1.31-1.09,.47-.29,1.01-.43,1.62-.43,.92,0,1.59,.27,2.03,.8s.66,1.31,.66,2.34v4.83h-1.31v-4.66c0-.74-.14-1.28-.42-1.64s-.74-.54-1.38-.54c-.46,0-.87,.12-1.23,.35-.36,.24-.77,.59-1.23,1.06v5.42h-1.31Z"/><path class="cls-1" d="M162.05,355.48c-.78,0-1.49-.16-2.12-.48s-1.14-.79-1.51-1.4c-.37-.61-.56-1.35-.56-2.22s.19-1.57,.56-2.18c.37-.61,.86-1.07,1.46-1.4,.6-.33,1.25-.49,1.94-.49,.75,0,1.38,.15,1.91,.46,.53,.3,.93,.73,1.22,1.27,.28,.54,.42,1.18,.42,1.92,0,.15,0,.29-.02,.43s-.03,.26-.05,.37h-6.58v-1.02h5.79l-.34,.37c0-.92-.21-1.61-.63-2.06-.42-.46-.99-.69-1.7-.69-.48,0-.93,.12-1.34,.35-.41,.24-.74,.58-.98,1.02-.25,.45-.37,1-.37,1.65s.13,1.23,.4,1.68c.27,.45,.63,.79,1.09,1.02,.46,.23,.98,.34,1.55,.34,.47,0,.89-.07,1.27-.2,.38-.13,.74-.31,1.1-.54l.48,.86c-.38,.26-.82,.47-1.32,.66s-1.06,.27-1.69,.27Z"/><path class="cls-1" d="M167.39,355.29l-1.7-7.78h1.31l.93,4.51c.07,.36,.14,.72,.2,1.06,.06,.35,.11,.71,.15,1.08h.06c.05-.37,.12-.73,.2-1.08s.16-.7,.25-1.06l.96-4.03h1.31l.93,4.03c.09,.36,.18,.72,.27,1.06s.17,.71,.21,1.08h.06c.06-.37,.12-.73,.17-1.08,.05-.35,.11-.7,.18-1.06l.93-4.51h1.22l-1.66,7.78h-1.7l-.9-3.71c-.06-.28-.13-.61-.19-.99-.06-.38-.13-.82-.19-1.31h-.06c-.06,.49-.13,.93-.19,1.31-.06,.38-.13,.71-.19,.99l-.86,3.71h-1.7Z"/><path class="cls-1" d="M187.27,355.29l-3.28-7.78h1.33l1.79,4.42c.16,.38,.31,.77,.46,1.15,.14,.38,.29,.76,.42,1.14h.06c.14-.37,.28-.75,.42-1.14s.28-.77,.43-1.15l1.79-4.42h1.26l-3.22,7.78h-1.47Z"/><path class="cls-1" d="M197.25,355.48c-.78,0-1.49-.16-2.12-.48s-1.14-.79-1.51-1.4c-.37-.61-.56-1.35-.56-2.22s.19-1.57,.56-2.18c.37-.61,.86-1.07,1.46-1.4,.6-.33,1.25-.49,1.94-.49,.75,0,1.38,.15,1.91,.46,.53,.3,.93,.73,1.22,1.27,.28,.54,.42,1.18,.42,1.92,0,.15,0,.29-.02,.43s-.03,.26-.05,.37h-6.58v-1.02h5.79l-.34,.37c0-.92-.21-1.61-.63-2.06-.42-.46-.99-.69-1.7-.69-.48,0-.93,.12-1.34,.35-.41,.24-.74,.58-.98,1.02-.25,.45-.37,1-.37,1.65s.13,1.23,.4,1.68c.27,.45,.63,.79,1.09,1.02,.46,.23,.98,.34,1.55,.34,.47,0,.89-.07,1.27-.2,.38-.13,.74-.31,1.1-.54l.48,.86c-.38,.26-.82,.47-1.32,.66s-1.06,.27-1.69,.27Z"/><path class="cls-1" d="M203.1,355.29v-7.78h1.09l.11,1.84h.05c.41-.63,.91-1.13,1.5-1.49s1.25-.54,1.97-.54c.29,0,.56,.02,.81,.07,.25,.05,.49,.13,.73,.25l-.3,1.14c-.27-.1-.5-.17-.69-.21-.19-.04-.44-.06-.75-.06-.59,0-1.15,.17-1.69,.5-.54,.34-1.04,.91-1.51,1.72v4.56h-1.31Z"/><path class="cls-1" d="M214.53,355.48c-.76,0-1.47-.12-2.13-.37s-1.23-.53-1.7-.85l.61-.86c.45,.32,.94,.58,1.49,.77,.54,.19,1.17,.29,1.89,.29,.66,0,1.15-.12,1.48-.37,.33-.25,.49-.53,.49-.85,0-.15-.03-.29-.09-.42s-.17-.25-.34-.37c-.17-.12-.41-.23-.73-.34-.32-.11-.75-.21-1.28-.32-1.01-.21-1.77-.5-2.28-.86-.51-.36-.76-.83-.76-1.41,0-.63,.27-1.15,.82-1.58,.54-.42,1.35-.63,2.42-.63,.6,0,1.17,.1,1.73,.3s1.02,.43,1.41,.7l-.64,.85c-.35-.26-.75-.46-1.2-.6-.45-.14-.92-.22-1.41-.22-.45,0-.8,.05-1.06,.15s-.45,.24-.56,.41c-.11,.17-.17,.36-.17,.56,0,.33,.18,.59,.54,.78,.36,.19,.93,.36,1.72,.52,.86,.18,1.53,.38,1.99,.61,.46,.22,.78,.48,.96,.77,.18,.29,.26,.63,.26,1.02,0,.43-.13,.81-.4,1.16s-.66,.63-1.17,.84c-.51,.21-1.14,.32-1.89,.32Z"/><path class="cls-1" d="M223.42,355.29v-6.7h-3.62v-1.07h4.93v7.78h-1.31Zm.51-9.41c-.3,0-.55-.09-.75-.28-.2-.19-.3-.43-.3-.74s.1-.56,.3-.74c.2-.19,.45-.28,.75-.28s.55,.09,.75,.28c.2,.19,.3,.43,.3,.74s-.1,.56-.3,.74c-.2,.19-.45,.28-.75,.28Z"/><path class="cls-1" d="M231.97,355.48c-.68,0-1.31-.16-1.9-.48-.58-.32-1.05-.78-1.41-1.39-.36-.61-.54-1.34-.54-2.19s.18-1.62,.54-2.22c.36-.61,.83-1.07,1.41-1.39,.58-.32,1.21-.48,1.9-.48s1.31,.16,1.9,.48c.58,.32,1.05,.78,1.41,1.39,.36,.61,.54,1.35,.54,2.22s-.18,1.58-.54,2.19c-.36,.61-.83,1.07-1.41,1.39-.58,.32-1.21,.48-1.9,.48Zm0-1.09c.5,0,.94-.12,1.31-.38,.37-.25,.66-.6,.86-1.05,.2-.45,.3-.96,.3-1.55s-.1-1.12-.3-1.58c-.2-.45-.49-.8-.86-1.06-.37-.25-.81-.38-1.31-.38s-.94,.12-1.3,.38-.66,.6-.86,1.06c-.21,.45-.31,.98-.31,1.58s.1,1.1,.31,1.55c.21,.45,.5,.8,.86,1.05,.37,.25,.8,.38,1.3,.38Z"/><path class="cls-1" d="M237.46,355.29v-7.78h1.09l.11,1.33h.06c.41-.44,.84-.8,1.31-1.09,.47-.29,1.01-.43,1.62-.43,.92,0,1.59,.27,2.03,.8s.66,1.31,.66,2.34v4.83h-1.31v-4.66c0-.74-.14-1.28-.42-1.64s-.74-.54-1.38-.54c-.46,0-.87,.12-1.23,.35-.36,.24-.77,.59-1.23,1.06v5.42h-1.31Z"/><path class="cls-1" d="M249.57,349.75c-.35,0-.66-.12-.91-.38-.26-.25-.38-.57-.38-.97s.13-.73,.38-.98c.26-.25,.56-.38,.91-.38s.67,.13,.92,.38,.38,.58,.38,.98-.12,.72-.38,.97c-.25,.25-.56,.38-.92,.38Zm0,5.73c-.35,0-.66-.13-.91-.38-.26-.25-.38-.57-.38-.97s.13-.73,.38-.98,.56-.38,.91-.38,.67,.12,.92,.38c.25,.25,.38,.58,.38,.98s-.12,.72-.38,.97-.56,.38-.92,.38Z"/></g><g transform="translate(1 1)"><circle class="cls-3" cx="30.58" cy="113.39" r="6"/><circle class="cls-4" cx="50.58" cy="113.39" r="6"/><circle class="cls-5" cx="70.58" cy="113.39" r="6"/></g></svg>