<?xml version="1.0" encoding="UTF-8"?><svg id="Layer_1" xmlns="http://www.w3.org/2000/svg" xmlns:xlink="http://www.w3.org/1999/xlink" viewBox="0 0 495.19 497.59"><defs><style>.cls-1{fill:url(#linear-gradient);}.cls-2{clip-path:url(#clippath);}.cls-3{opacity:.5;stroke:#111827;}.cls-3,.cls-4,.cls-5,.cls-6{stroke-miterlimit:10;}.cls-3,.cls-5,.cls-6{fill:none;}.cls-7{fill:#f2f2f2;}.cls-8,.cls-9{fill:#fff;}.cls-10,.cls-4{fill:#ee7320;}.cls-11{fill:#aa351d;}.cls-12{fill:#111827;}.cls-4{stroke:#ee7320;}.cls-5{stroke:#e6e6e6;}.cls-6{stroke:#ccc;}.cls-9{filter:url(#drop-shadow-6);}</style><filter id="drop-shadow-6" filterUnits="userSpaceOnUse"><feOffset dx="0" dy="0"/><feGaussianBlur result="blur" stdDeviation="3"/><feFlood flood-color="#000" flood-opacity=".25"/><feComposite in2="blur" operator="in"/><feComposite in="SourceGraphic"/></filter><linearGradient id="linear-gradient" x1="124.55" y1="199.19" x2="361.91" y2="-38.17" gradientTransform="matrix(1, 0, 0, 1, 0, 0)" gradientUnits="userSpaceOnUse"><stop offset="0" stop-color="#ee7320"/><stop offset="1" stop-color="#e9580c"/></linearGradient><clipPath id="clippath"><path class="cls-10" d="M41.5,87.44v-.55l6.17-3.55-1.58-.91-4.58,2.64v-.55l6.13-3.53-1.58-.91-4.55,2.62v-.55l6.19-3.56-6.19-3.56-6.16,3.56v7.13l6.16,3.56,6.19-3.56-1.57-.91-4.61,2.66Z"/></clipPath></defs><rect class="cls-7" x="12.15" y="28" width="466" height="447" rx="17.11" ry="17.11"/><rect class="cls-9" x="73.17" y="169.45" width="371.98" height="110.94" rx="7.06" ry="7.06"/><g><rect class="cls-1" x="29.31" y="57.07" width="427.84" height="46.88"/><g><rect class="cls-12" x="29.81" y="57.57" width="23.53" height="394.66"/><path class="cls-12" d="M52.84,58.07V451.73H30.31V58.07h22.53m1-1H29.31V452.73h24.53V57.07h0Z"/></g><g><path class="cls-10" d="M41.5,87.44v-.55l6.17-3.55-1.58-.91-4.58,2.64v-.55l6.13-3.53-1.58-.91-4.55,2.62v-.55l6.19-3.56-6.19-3.56-6.16,3.56v7.13l6.16,3.56,6.19-3.56-1.57-.91-4.61,2.66Z"/><g class="cls-2"><rect class="cls-10" x="33.44" y="71.72" width="13.8" height="19.47" transform="translate(-50.42 76.51) rotate(-60.54)"/></g></g></g><g><path d="M80.75,152.6v-10.74h3.38c.8,0,1.51,.1,2.14,.31,.62,.21,1.12,.55,1.48,1.04,.36,.48,.54,1.14,.54,1.97,0,.79-.18,1.44-.54,1.96-.36,.51-.85,.9-1.46,1.15s-1.31,.38-2.09,.38h-1.54v3.94h-1.91Zm1.91-5.47h1.4c1.58,0,2.37-.65,2.37-1.96,0-.68-.21-1.15-.62-1.4-.41-.26-1.02-.39-1.82-.39h-1.33v3.75Z"/><path d="M90.96,152.6v-8.07h1.56l.13,1.43h.07c.29-.53,.63-.93,1.04-1.21s.82-.42,1.25-.42c.38,0,.69,.06,.92,.17l-.33,1.64c-.14-.04-.27-.08-.39-.1s-.27-.03-.44-.03c-.32,0-.65,.12-1,.37-.35,.25-.65,.68-.9,1.29v4.93h-1.89Z"/><path d="M101.05,152.79c-.67,0-1.29-.17-1.87-.5-.58-.33-1.05-.82-1.41-1.45-.36-.63-.54-1.39-.54-2.27s.18-1.66,.54-2.29,.83-1.11,1.41-1.45c.58-.33,1.2-.5,1.87-.5s1.31,.17,1.89,.5c.58,.33,1.05,.82,1.41,1.45s.54,1.39,.54,2.29-.18,1.65-.54,2.27c-.36,.63-.83,1.11-1.41,1.45-.58,.33-1.21,.5-1.89,.5Zm0-1.54c.59,0,1.06-.25,1.4-.74,.34-.49,.51-1.14,.51-1.94s-.17-1.46-.51-1.96c-.34-.49-.8-.74-1.4-.74s-1.05,.25-1.39,.74c-.33,.49-.5,1.14-.5,1.96s.17,1.45,.5,1.94c.33,.49,.8,.74,1.39,.74Z"/><path d="M106.95,155.98c-.3,0-.55-.02-.76-.07-.21-.04-.4-.09-.55-.15l.36-1.41c.11,.03,.22,.06,.34,.09,.12,.03,.23,.04,.35,.04,.36,0,.6-.12,.73-.37s.19-.61,.19-1.08v-8.51h1.91v8.48c0,.57-.08,1.08-.25,1.53s-.43,.8-.8,1.06c-.37,.26-.88,.39-1.51,.39Zm1.61-12.86c-.34,0-.61-.1-.82-.29s-.31-.46-.31-.79,.1-.58,.31-.77c.21-.2,.48-.3,.82-.3s.61,.1,.82,.3c.21,.2,.31,.45,.31,.77s-.1,.59-.31,.79-.48,.29-.82,.29Z"/><path d="M116.18,152.79c-.75,0-1.42-.17-2.02-.5-.6-.33-1.08-.82-1.43-1.45-.35-.63-.53-1.39-.53-2.27s.18-1.63,.53-2.27c.36-.63,.82-1.12,1.39-1.46s1.17-.51,1.79-.51c.73,0,1.35,.16,1.84,.49,.49,.32,.86,.77,1.12,1.35,.25,.58,.38,1.24,.38,2,0,.39-.03,.7-.08,.92h-5.12c.09,.71,.34,1.26,.77,1.66,.43,.39,.96,.59,1.61,.59,.35,0,.68-.05,.98-.16,.3-.1,.6-.25,.9-.44l.64,1.18c-.38,.25-.81,.46-1.28,.62-.47,.16-.96,.25-1.48,.25Zm-2.15-4.99h3.58c0-.62-.14-1.11-.41-1.47-.27-.36-.68-.53-1.23-.53-.47,0-.89,.17-1.26,.52-.37,.35-.59,.84-.68,1.49Z"/><path d="M125.25,152.79c-.73,0-1.39-.17-1.98-.5-.59-.33-1.05-.82-1.4-1.45-.35-.63-.52-1.39-.52-2.27s.19-1.66,.56-2.29c.37-.63,.87-1.11,1.49-1.45,.62-.33,1.28-.5,2-.5,.51,0,.96,.09,1.35,.26,.38,.17,.72,.39,1.02,.64l-.92,1.23c-.21-.19-.42-.33-.64-.44-.22-.1-.45-.16-.71-.16-.65,0-1.17,.25-1.58,.74-.41,.49-.62,1.14-.62,1.96s.2,1.45,.6,1.94c.4,.49,.92,.74,1.55,.74,.32,0,.62-.07,.9-.21,.28-.14,.53-.3,.76-.48l.77,1.25c-.37,.33-.79,.57-1.25,.74-.46,.16-.92,.25-1.38,.25Z"/><path d="M132.97,152.79c-.93,0-1.59-.27-1.98-.81s-.58-1.25-.58-2.11v-3.84h-1.15v-1.41l1.25-.08,.23-2.2h1.58v2.2h2.05v1.5h-2.05v3.84c0,.94,.38,1.41,1.13,1.41,.14,0,.29-.02,.44-.06,.15-.04,.29-.08,.39-.12l.33,1.4c-.22,.08-.47,.15-.75,.21-.28,.06-.58,.09-.9,.09Z"/><path d="M141.15,152.6v-10.74h3.63c.75,0,1.42,.1,2.01,.3,.6,.2,1.07,.53,1.41,.99,.35,.47,.52,1.1,.52,1.9s-.19,1.48-.58,1.99c-.39,.5-.91,.87-1.55,1.08l2.56,4.49h-2.14l-2.32-4.21h-1.64v4.21h-1.91Zm1.91-5.72h1.53c.73,0,1.29-.16,1.68-.47,.39-.31,.58-.77,.58-1.37s-.2-1.04-.58-1.29-.95-.37-1.68-.37h-1.53v3.5Z"/><path d="M154.82,152.79c-.75,0-1.42-.17-2.02-.5-.6-.33-1.08-.82-1.43-1.45-.35-.63-.53-1.39-.53-2.27s.18-1.63,.53-2.27c.36-.63,.82-1.12,1.39-1.46s1.17-.51,1.79-.51c.73,0,1.35,.16,1.84,.49,.49,.32,.86,.77,1.12,1.35,.25,.58,.38,1.24,.38,2,0,.39-.03,.7-.08,.92h-5.12c.09,.71,.34,1.26,.77,1.66,.43,.39,.96,.59,1.61,.59,.35,0,.68-.05,.98-.16,.3-.1,.6-.25,.9-.44l.64,1.18c-.38,.25-.81,.46-1.28,.62-.47,.16-.96,.25-1.48,.25Zm-2.15-4.99h3.58c0-.62-.14-1.11-.41-1.47-.27-.36-.68-.53-1.23-.53-.47,0-.89,.17-1.26,.52-.37,.35-.59,.84-.68,1.49Z"/><path d="M160.52,155.78v-11.25h1.56l.13,.85h.07c.34-.29,.72-.53,1.14-.74s.85-.31,1.29-.31c1.01,0,1.79,.37,2.34,1.12,.55,.75,.83,1.74,.83,2.99,0,.92-.16,1.71-.49,2.36-.33,.65-.75,1.15-1.27,1.49-.52,.34-1.08,.51-1.68,.51-.35,0-.7-.08-1.05-.24s-.69-.38-1.02-.65l.05,1.35v2.53h-1.89Zm3.52-4.55c.54,0,.99-.24,1.35-.71,.36-.47,.54-1.16,.54-2.07,0-.81-.14-1.44-.41-1.89s-.72-.67-1.33-.67c-.57,0-1.16,.3-1.77,.9v3.76c.29,.24,.58,.41,.85,.52,.27,.1,.53,.16,.77,.16Z"/><path d="M173.91,152.79c-.67,0-1.29-.17-1.87-.5-.58-.33-1.05-.82-1.41-1.45-.36-.63-.54-1.39-.54-2.27s.18-1.66,.54-2.29,.83-1.11,1.41-1.45c.58-.33,1.2-.5,1.87-.5s1.31,.17,1.89,.5c.58,.33,1.05,.82,1.41,1.45s.54,1.39,.54,2.29-.18,1.65-.54,2.27c-.36,.63-.83,1.11-1.41,1.45-.58,.33-1.21,.5-1.89,.5Zm0-1.54c.59,0,1.06-.25,1.4-.74,.34-.49,.51-1.14,.51-1.94s-.17-1.46-.51-1.96c-.34-.49-.8-.74-1.4-.74s-1.05,.25-1.39,.74c-.33,.49-.5,1.14-.5,1.96s.17,1.45,.5,1.94c.33,.49,.8,.74,1.39,.74Z"/><path d="M182.63,152.79c-.55,0-1.1-.11-1.64-.32-.55-.21-1.02-.48-1.41-.8l.89-1.22c.36,.27,.72,.49,1.08,.66,.36,.16,.75,.25,1.15,.25,.44,0,.76-.09,.97-.28,.21-.19,.31-.42,.31-.69,0-.23-.08-.42-.25-.57-.17-.15-.39-.28-.65-.39-.26-.12-.54-.23-.82-.34-.35-.13-.7-.29-1.04-.48-.35-.19-.63-.44-.85-.74-.22-.3-.33-.68-.33-1.13,0-.71,.26-1.29,.79-1.74,.53-.45,1.24-.67,2.14-.67,.57,0,1.08,.1,1.53,.3,.45,.2,.84,.42,1.17,.67l-.87,1.15c-.28-.21-.57-.38-.86-.5-.29-.12-.59-.19-.91-.19-.41,0-.71,.08-.9,.25-.2,.17-.29,.38-.29,.63,0,.32,.16,.56,.49,.72,.33,.17,.71,.32,1.15,.48,.37,.13,.73,.29,1.08,.49s.64,.44,.88,.75,.35,.71,.35,1.22c0,.69-.27,1.28-.81,1.77-.54,.49-1.31,.73-2.33,.73Z"/><path d="M189.24,143.12c-.34,0-.61-.1-.82-.29-.21-.2-.31-.46-.31-.79s.1-.58,.31-.77c.21-.2,.48-.3,.82-.3s.61,.1,.82,.3c.21,.2,.31,.45,.31,.77s-.1,.59-.31,.79-.48,.29-.82,.29Zm-.95,9.48v-8.07h1.89v8.07h-1.89Z"/><path d="M196.25,152.79c-.93,0-1.59-.27-1.98-.81s-.58-1.25-.58-2.11v-3.84h-1.15v-1.41l1.25-.08,.23-2.2h1.58v2.2h2.05v1.5h-2.05v3.84c0,.94,.38,1.41,1.13,1.41,.14,0,.29-.02,.44-.06,.15-.04,.29-.08,.39-.12l.33,1.4c-.22,.08-.47,.15-.75,.21-.28,.06-.58,.09-.9,.09Z"/><path d="M203.2,152.79c-.67,0-1.29-.17-1.87-.5-.58-.33-1.05-.82-1.41-1.45-.36-.63-.54-1.39-.54-2.27s.18-1.66,.54-2.29,.83-1.11,1.41-1.45c.58-.33,1.2-.5,1.87-.5s1.31,.17,1.89,.5c.58,.33,1.05,.82,1.41,1.45s.54,1.39,.54,2.29-.18,1.65-.54,2.27c-.36,.63-.83,1.11-1.41,1.45-.58,.33-1.21,.5-1.89,.5Zm0-1.54c.59,0,1.06-.25,1.4-.74,.34-.49,.51-1.14,.51-1.94s-.17-1.46-.51-1.96c-.34-.49-.8-.74-1.4-.74s-1.05,.25-1.39,.74c-.33,.49-.5,1.14-.5,1.96s.17,1.45,.5,1.94c.33,.49,.8,.74,1.39,.74Z"/><path d="M209.74,152.6v-8.07h1.56l.13,1.43h.07c.29-.53,.63-.93,1.04-1.21s.82-.42,1.25-.42c.38,0,.69,.06,.92,.17l-.33,1.64c-.14-.04-.27-.08-.39-.1s-.27-.03-.44-.03c-.32,0-.65,.12-1,.37-.35,.25-.65,.68-.9,1.29v4.93h-1.89Z"/><path d="M217.49,155.91c-.22,0-.41-.02-.58-.05-.16-.03-.32-.07-.48-.12l.34-1.48c.08,.02,.17,.05,.27,.07,.1,.03,.21,.04,.3,.04,.43,0,.77-.13,1.03-.39s.45-.59,.58-.99l.15-.51-3.17-7.97h1.92l1.4,3.96c.12,.35,.24,.72,.35,1.11,.11,.39,.23,.77,.35,1.16h.07c.1-.37,.2-.75,.3-1.14,.1-.39,.21-.76,.3-1.13l1.22-3.96h1.82l-2.92,8.43c-.34,.91-.75,1.63-1.23,2.16-.48,.53-1.16,.8-2.04,.8Z"/></g><g><path d="M82.05,327.33l3.5-10.74h2.23l3.5,10.74h-2l-.84-2.91h-3.61l-.84,2.91h-1.94Zm3.6-5.72l-.38,1.31h2.74l-.38-1.31c-.18-.57-.34-1.16-.5-1.76-.16-.6-.32-1.2-.47-1.79h-.07c-.14,.6-.29,1.2-.45,1.8-.16,.6-.33,1.18-.5,1.75Z"/><path d="M95.11,327.53c-.67,0-1.14-.2-1.42-.61-.28-.4-.42-.96-.42-1.66v-9.53h1.89v9.63c0,.23,.04,.39,.13,.49,.09,.09,.18,.14,.28,.14,.04,0,.08,0,.12,0,.04,0,.1-.01,.17-.02l.25,1.41c-.11,.04-.25,.08-.42,.11-.17,.03-.36,.05-.58,.05Z"/><path d="M98.54,327.33v-8.07h1.56l.13,1.43h.07c.29-.53,.63-.93,1.04-1.21s.82-.42,1.25-.42c.38,0,.69,.06,.92,.17l-.33,1.64c-.14-.04-.27-.08-.39-.1s-.27-.03-.44-.03c-.32,0-.65,.12-1,.37-.35,.25-.65,.68-.9,1.29v4.93h-1.89Z"/><path d="M108.78,327.53c-.75,0-1.42-.17-2.02-.5-.6-.33-1.08-.82-1.43-1.45-.35-.63-.53-1.39-.53-2.27s.18-1.63,.53-2.27c.36-.63,.82-1.12,1.39-1.46s1.17-.51,1.79-.51c.73,0,1.35,.16,1.84,.49,.49,.32,.86,.77,1.12,1.35,.25,.58,.38,1.24,.38,2,0,.39-.03,.7-.08,.92h-5.12c.09,.71,.34,1.26,.77,1.66,.43,.39,.96,.59,1.61,.59,.35,0,.68-.05,.98-.16,.3-.1,.6-.25,.9-.44l.64,1.18c-.38,.25-.81,.46-1.28,.62-.47,.16-.96,.25-1.48,.25Zm-2.15-4.99h3.58c0-.62-.14-1.11-.41-1.47-.27-.36-.68-.53-1.23-.53-.47,0-.89,.17-1.26,.52-.37,.35-.59,.84-.68,1.49Z"/><path d="M116.24,327.53c-.7,0-1.27-.22-1.72-.66-.44-.44-.67-1.01-.67-1.71,0-.86,.38-1.54,1.13-2.01,.76-.48,1.96-.8,3.61-.98-.01-.43-.12-.8-.34-1.11-.21-.31-.59-.47-1.14-.47-.39,0-.78,.08-1.16,.23-.38,.15-.75,.34-1.11,.56l-.69-1.26c.45-.29,.96-.53,1.52-.74,.56-.21,1.16-.31,1.8-.31,1.01,0,1.76,.3,2.26,.9,.5,.6,.75,1.46,.75,2.59v4.78h-1.56l-.13-.89h-.07c-.36,.31-.75,.56-1.16,.77-.41,.21-.86,.31-1.34,.31Zm.61-1.48c.33,0,.63-.08,.9-.24s.56-.38,.86-.65v-1.81c-1.09,.14-1.86,.35-2.28,.63s-.64,.62-.64,1.03c0,.36,.11,.62,.33,.79,.22,.16,.5,.25,.84,.25Z"/><path d="M126.41,327.53c-1.01,0-1.81-.37-2.41-1.12-.6-.75-.9-1.78-.9-3.1,0-.88,.16-1.63,.49-2.27,.32-.63,.75-1.12,1.27-1.46,.53-.34,1.08-.51,1.66-.51,.46,0,.85,.08,1.17,.24,.32,.16,.64,.38,.95,.65l-.07-1.3v-2.92h1.89v11.6h-1.56l-.13-.87h-.07c-.3,.3-.64,.55-1.04,.76s-.81,.31-1.25,.31Zm.46-1.56c.6,0,1.17-.3,1.69-.9v-3.76c-.27-.25-.55-.43-.82-.53s-.55-.15-.82-.15c-.51,0-.96,.23-1.32,.7-.37,.47-.55,1.12-.55,1.96s.16,1.53,.48,1.99,.77,.69,1.35,.69Z"/><path d="M134.21,330.65c-.22,0-.41-.02-.58-.05-.16-.03-.32-.07-.48-.12l.34-1.48c.08,.02,.17,.05,.27,.07,.1,.03,.21,.04,.3,.04,.43,0,.77-.13,1.03-.39s.45-.59,.58-.99l.15-.51-3.17-7.97h1.92l1.4,3.96c.12,.35,.24,.72,.35,1.11,.11,.39,.23,.77,.35,1.16h.07c.1-.37,.2-.75,.3-1.14,.1-.39,.21-.76,.3-1.13l1.22-3.96h1.82l-2.92,8.43c-.34,.91-.75,1.63-1.23,2.16-.48,.53-1.16,.8-2.04,.8Z"/><path d="M149.12,327.53c-.87,0-1.5-.28-1.89-.84-.39-.56-.59-1.35-.59-2.37v-5.06h1.89v4.81c0,.67,.1,1.14,.3,1.41s.51,.41,.95,.41c.35,0,.66-.09,.93-.26,.27-.17,.56-.46,.86-.85v-5.52h1.89v8.07h-1.54l-.15-1.18h-.05c-.35,.42-.73,.75-1.15,1-.42,.25-.9,.38-1.45,.38Z"/><path d="M158.93,327.53c-.55,0-1.1-.11-1.64-.32-.55-.21-1.02-.48-1.41-.8l.89-1.22c.36,.27,.72,.49,1.08,.66,.36,.16,.75,.25,1.15,.25,.44,0,.76-.09,.97-.28,.21-.19,.31-.42,.31-.69,0-.23-.08-.42-.25-.57-.17-.15-.39-.28-.65-.39-.26-.12-.54-.23-.82-.34-.35-.13-.7-.29-1.04-.48-.35-.19-.63-.44-.85-.74-.22-.3-.33-.68-.33-1.13,0-.71,.26-1.29,.79-1.74,.53-.45,1.24-.67,2.14-.67,.57,0,1.08,.1,1.53,.3,.45,.2,.84,.42,1.17,.67l-.87,1.15c-.28-.21-.57-.38-.86-.5-.29-.12-.59-.19-.91-.19-.41,0-.71,.08-.9,.25-.2,.17-.29,.38-.29,.63,0,.32,.16,.56,.49,.72,.33,.17,.71,.32,1.15,.48,.37,.13,.73,.29,1.08,.49s.64,.44,.88,.75,.35,.71,.35,1.22c0,.69-.27,1.28-.81,1.77-.54,.49-1.31,.73-2.33,.73Z"/><path d="M165.54,317.85c-.34,0-.61-.1-.82-.29-.21-.2-.31-.46-.31-.79s.1-.58,.31-.77c.21-.2,.48-.3,.82-.3s.61,.1,.82,.3c.21,.2,.31,.45,.31,.77s-.1,.59-.31,.79-.48,.29-.82,.29Zm-.95,9.48v-8.07h1.89v8.07h-1.89Z"/><path d="M169.71,327.33v-8.07h1.56l.13,1.08h.07c.36-.35,.76-.65,1.18-.9,.43-.25,.92-.38,1.46-.38,.87,0,1.5,.28,1.89,.84s.59,1.35,.59,2.37v5.06h-1.89v-4.81c0-.67-.1-1.14-.3-1.41-.2-.27-.52-.41-.97-.41-.35,0-.66,.08-.93,.25s-.57,.42-.91,.75v5.63h-1.89Z"/><path d="M182.54,330.9c-.64,0-1.21-.08-1.72-.23-.51-.15-.91-.39-1.2-.7-.29-.31-.44-.7-.44-1.17,0-.67,.38-1.24,1.15-1.72v-.07c-.21-.13-.38-.31-.52-.53-.14-.22-.21-.49-.21-.82s.09-.6,.27-.86c.18-.26,.39-.47,.62-.63v-.07c-.27-.21-.52-.5-.73-.87-.21-.37-.32-.79-.32-1.26,0-.62,.15-1.15,.44-1.58,.3-.43,.69-.75,1.17-.98s1.01-.34,1.57-.34c.22,0,.43,.02,.63,.06,.2,.04,.39,.08,.55,.14h2.89v1.4h-1.48c.13,.15,.24,.35,.33,.58,.09,.24,.13,.5,.13,.78,0,.59-.14,1.09-.41,1.5-.27,.41-.64,.72-1.1,.93s-.97,.31-1.54,.31c-.18,0-.36-.02-.54-.05-.19-.03-.37-.09-.56-.16-.12,.11-.22,.22-.29,.33-.07,.11-.11,.26-.11,.44,0,.23,.1,.41,.29,.54,.19,.13,.53,.2,1.03,.2h1.43c.97,0,1.71,.16,2.21,.47,.5,.31,.75,.82,.75,1.52,0,.53-.17,1-.53,1.44s-.85,.77-1.5,1.03c-.65,.25-1.41,.38-2.28,.38Zm.29-1.23c.65,0,1.17-.13,1.58-.39s.61-.56,.61-.9c0-.32-.12-.53-.37-.64-.25-.11-.6-.16-1.06-.16h-1.1c-.44,0-.8-.04-1.1-.12-.42,.32-.62,.67-.62,1.07,0,.36,.19,.64,.56,.85,.37,.2,.88,.3,1.51,.3Zm-.2-6.08c.38,0,.71-.14,.99-.43,.27-.28,.41-.68,.41-1.2s-.13-.9-.4-1.17-.6-.42-.99-.42-.73,.14-1,.41c-.27,.27-.41,.67-.41,1.18s.14,.92,.41,1.2c.27,.29,.61,.43,1,.43Z"/><path d="M195.15,327.53c-.7,0-1.27-.22-1.72-.66-.44-.44-.67-1.01-.67-1.71,0-.86,.38-1.54,1.13-2.01,.76-.48,1.96-.8,3.61-.98-.01-.43-.12-.8-.34-1.11-.21-.31-.59-.47-1.14-.47-.39,0-.78,.08-1.16,.23-.38,.15-.75,.34-1.11,.56l-.69-1.26c.45-.29,.96-.53,1.52-.74,.56-.21,1.16-.31,1.8-.31,1.01,0,1.76,.3,2.26,.9,.5,.6,.75,1.46,.75,2.59v4.78h-1.56l-.13-.89h-.07c-.36,.31-.75,.56-1.16,.77-.41,.21-.86,.31-1.34,.31Zm.61-1.48c.33,0,.63-.08,.9-.24s.56-.38,.86-.65v-1.81c-1.09,.14-1.86,.35-2.28,.63s-.64,.62-.64,1.03c0,.36,.11,.62,.33,.79,.22,.16,.5,.25,.84,.25Z"/><path d="M202.5,327.33v-8.07h1.56l.13,1.08h.07c.36-.35,.76-.65,1.18-.9,.43-.25,.92-.38,1.46-.38,.87,0,1.5,.28,1.89,.84s.59,1.35,.59,2.37v5.06h-1.89v-4.81c0-.67-.1-1.14-.3-1.41-.2-.27-.52-.41-.97-.41-.35,0-.66,.08-.93,.25s-.57,.42-.91,.75v5.63h-1.89Z"/><path d="M213.06,330.65c-.22,0-.41-.02-.58-.05-.16-.03-.32-.07-.48-.12l.34-1.48c.08,.02,.17,.05,.27,.07,.1,.03,.21,.04,.3,.04,.43,0,.77-.13,1.03-.39s.45-.59,.58-.99l.15-.51-3.17-7.97h1.92l1.4,3.96c.12,.35,.24,.72,.35,1.11,.11,.39,.23,.77,.35,1.16h.07c.1-.37,.2-.75,.3-1.14,.1-.39,.21-.76,.3-1.13l1.22-3.96h1.82l-2.92,8.43c-.34,.91-.75,1.63-1.23,2.16-.48,.53-1.16,.8-2.04,.8Z"/><path d="M228.88,327.53c-.67,0-1.29-.17-1.87-.5-.58-.33-1.05-.82-1.41-1.45-.36-.63-.54-1.39-.54-2.27s.18-1.66,.54-2.29,.83-1.11,1.41-1.45c.58-.33,1.2-.5,1.87-.5s1.31,.17,1.89,.5c.58,.33,1.05,.82,1.41,1.45s.54,1.39,.54,2.29-.18,1.65-.54,2.27c-.36,.63-.83,1.11-1.41,1.45-.58,.33-1.21,.5-1.89,.5Zm0-1.54c.59,0,1.06-.25,1.4-.74,.34-.49,.51-1.14,.51-1.94s-.17-1.46-.51-1.96c-.34-.49-.8-.74-1.4-.74s-1.05,.25-1.39,.74c-.33,.49-.5,1.14-.5,1.96s.17,1.45,.5,1.94c.33,.49,.8,.74,1.39,.74Z"/><path d="M237.9,327.53c-.93,0-1.59-.27-1.98-.81s-.58-1.25-.58-2.11v-3.84h-1.15v-1.41l1.25-.08,.23-2.2h1.58v2.2h2.05v1.5h-2.05v3.84c0,.94,.38,1.41,1.13,1.41,.14,0,.29-.02,.44-.06,.15-.04,.29-.08,.39-.12l.33,1.4c-.22,.08-.47,.15-.75,.21-.28,.06-.58,.09-.9,.09Z"/><path d="M241.81,327.33v-11.6h1.89v2.99l-.07,1.56c.34-.32,.72-.6,1.13-.85s.9-.37,1.45-.37c.87,0,1.5,.28,1.89,.84s.59,1.35,.59,2.37v5.06h-1.89v-4.81c0-.67-.1-1.14-.3-1.41-.2-.27-.52-.41-.97-.41-.35,0-.66,.08-.93,.25s-.57,.42-.91,.75v5.63h-1.89Z"/><path d="M255.25,327.53c-.75,0-1.42-.17-2.02-.5-.6-.33-1.08-.82-1.43-1.45-.35-.63-.53-1.39-.53-2.27s.18-1.63,.53-2.27c.36-.63,.82-1.12,1.39-1.46s1.17-.51,1.79-.51c.73,0,1.35,.16,1.84,.49,.49,.32,.86,.77,1.12,1.35,.25,.58,.38,1.24,.38,2,0,.39-.03,.7-.08,.92h-5.12c.09,.71,.34,1.26,.77,1.66,.43,.39,.96,.59,1.61,.59,.35,0,.68-.05,.98-.16,.3-.1,.6-.25,.9-.44l.64,1.18c-.38,.25-.81,.46-1.28,.62-.47,.16-.96,.25-1.48,.25Zm-2.15-4.99h3.58c0-.62-.14-1.11-.41-1.47-.27-.36-.68-.53-1.23-.53-.47,0-.89,.17-1.26,.52-.37,.35-.59,.84-.68,1.49Z"/><path d="M260.95,327.33v-8.07h1.56l.13,1.43h.07c.29-.53,.63-.93,1.04-1.21s.82-.42,1.25-.42c.38,0,.69,.06,.92,.17l-.33,1.64c-.14-.04-.27-.08-.39-.1s-.27-.03-.44-.03c-.32,0-.65,.12-1,.37-.35,.25-.65,.68-.9,1.29v4.93h-1.89Z"/><path d="M275.3,327.53c-.67,0-1.29-.17-1.87-.5-.58-.33-1.05-.82-1.41-1.45-.36-.63-.54-1.39-.54-2.27s.18-1.66,.54-2.29,.83-1.11,1.41-1.45c.58-.33,1.2-.5,1.87-.5s1.31,.17,1.89,.5c.58,.33,1.05,.82,1.41,1.45s.54,1.39,.54,2.29-.18,1.65-.54,2.27c-.36,.63-.83,1.11-1.41,1.45-.58,.33-1.21,.5-1.89,.5Zm0-1.54c.59,0,1.06-.25,1.4-.74,.34-.49,.51-1.14,.51-1.94s-.17-1.46-.51-1.96c-.34-.49-.8-.74-1.4-.74s-1.05,.25-1.39,.74c-.33,.49-.5,1.14-.5,1.96s.17,1.45,.5,1.94c.33,.49,.8,.74,1.39,.74Z"/><path d="M285.75,327.53c-.77,0-1.5-.35-2.2-1.05h-.05l-.16,.85h-1.5v-11.6h1.89v2.99l-.05,1.35c.34-.3,.71-.54,1.12-.72,.41-.19,.81-.28,1.22-.28,1.01,0,1.79,.37,2.35,1.12,.56,.75,.84,1.74,.84,2.97,0,.92-.16,1.71-.49,2.36-.33,.65-.75,1.15-1.27,1.5s-1.08,.52-1.68,.52Zm-.39-1.56c.54,0,.99-.24,1.35-.71,.36-.47,.54-1.16,.54-2.07,0-.81-.14-1.44-.41-1.89s-.72-.67-1.33-.67c-.57,0-1.16,.3-1.77,.9v3.76c.28,.24,.57,.41,.85,.52s.54,.16,.78,.16Z"/><path d="M294.1,327.53c-.55,0-1.1-.11-1.64-.32-.55-.21-1.02-.48-1.41-.8l.89-1.22c.36,.27,.72,.49,1.08,.66,.36,.16,.75,.25,1.15,.25,.44,0,.76-.09,.97-.28,.21-.19,.31-.42,.31-.69,0-.23-.08-.42-.25-.57-.17-.15-.39-.28-.65-.39-.26-.12-.54-.23-.82-.34-.35-.13-.7-.29-1.04-.48-.35-.19-.63-.44-.85-.74-.22-.3-.33-.68-.33-1.13,0-.71,.26-1.29,.79-1.74,.53-.45,1.24-.67,2.14-.67,.57,0,1.08,.1,1.53,.3,.45,.2,.84,.42,1.17,.67l-.87,1.15c-.28-.21-.57-.38-.86-.5-.29-.12-.59-.19-.91-.19-.41,0-.71,.08-.9,.25-.2,.17-.29,.38-.29,.63,0,.32,.16,.56,.49,.72,.33,.17,.71,.32,1.15,.48,.37,.13,.73,.29,1.08,.49s.64,.44,.88,.75,.35,.71,.35,1.22c0,.69-.27,1.28-.81,1.77-.54,.49-1.31,.73-2.33,.73Z"/><path d="M303.2,327.53c-.75,0-1.42-.17-2.02-.5-.6-.33-1.08-.82-1.43-1.45-.35-.63-.53-1.39-.53-2.27s.18-1.63,.53-2.27c.36-.63,.82-1.12,1.39-1.46s1.17-.51,1.79-.51c.73,0,1.35,.16,1.84,.49,.49,.32,.86,.77,1.12,1.35,.25,.58,.38,1.24,.38,2,0,.39-.03,.7-.08,.92h-5.12c.09,.71,.34,1.26,.77,1.66,.43,.39,.96,.59,1.61,.59,.35,0,.68-.05,.98-.16,.3-.1,.6-.25,.9-.44l.64,1.18c-.38,.25-.81,.46-1.28,.62-.47,.16-.96,.25-1.48,.25Zm-2.15-4.99h3.58c0-.62-.14-1.11-.41-1.47-.27-.36-.68-.53-1.23-.53-.47,0-.89,.17-1.26,.52-.37,.35-.59,.84-.68,1.49Z"/><path d="M308.9,327.33v-8.07h1.56l.13,1.43h.07c.29-.53,.63-.93,1.04-1.21s.82-.42,1.25-.42c.38,0,.69,.06,.92,.17l-.33,1.64c-.14-.04-.27-.08-.39-.1s-.27-.03-.44-.03c-.32,0-.65,.12-1,.37-.35,.25-.65,.68-.9,1.29v4.93h-1.89Z"/><path d="M317.92,327.33l-2.81-8.07h1.92l1.28,4.19c.11,.39,.22,.79,.34,1.2s.23,.82,.34,1.23h.07c.12-.42,.24-.83,.35-1.23s.23-.8,.34-1.2l1.28-4.19h1.82l-2.74,8.07h-2.19Z"/><path d="M326.69,327.53c-.7,0-1.27-.22-1.72-.66-.44-.44-.67-1.01-.67-1.71,0-.86,.38-1.54,1.13-2.01,.76-.48,1.96-.8,3.61-.98-.01-.43-.12-.8-.34-1.11-.21-.31-.59-.47-1.14-.47-.39,0-.78,.08-1.16,.23-.38,.15-.75,.34-1.11,.56l-.69-1.26c.45-.29,.96-.53,1.52-.74,.56-.21,1.16-.31,1.8-.31,1.01,0,1.76,.3,2.26,.9,.5,.6,.75,1.46,.75,2.59v4.78h-1.56l-.13-.89h-.07c-.36,.31-.75,.56-1.16,.77-.41,.21-.86,.31-1.34,.31Zm.61-1.48c.33,0,.63-.08,.9-.24s.56-.38,.86-.65v-1.81c-1.09,.14-1.86,.35-2.28,.63s-.64,.62-.64,1.03c0,.36,.11,.62,.33,.79,.22,.16,.5,.25,.84,.25Z"/><path d="M337.94,327.53c-.77,0-1.5-.35-2.2-1.05h-.05l-.16,.85h-1.5v-11.6h1.89v2.99l-.05,1.35c.34-.3,.71-.54,1.12-.72,.41-.19,.81-.28,1.22-.28,1.01,0,1.79,.37,2.35,1.12,.56,.75,.84,1.74,.84,2.97,0,.92-.16,1.71-.49,2.36-.33,.65-.75,1.15-1.27,1.5s-1.08,.52-1.68,.52Zm-.39-1.56c.54,0,.99-.24,1.35-.71,.36-.47,.54-1.16,.54-2.07,0-.81-.14-1.44-.41-1.89s-.72-.67-1.33-.67c-.57,0-1.16,.3-1.77,.9v3.76c.28,.24,.57,.41,.85,.52s.54,.16,.78,.16Z"/><path d="M345.06,317.85c-.34,0-.61-.1-.82-.29-.21-.2-.31-.46-.31-.79s.1-.58,.31-.77c.21-.2,.48-.3,.82-.3s.61,.1,.82,.3c.21,.2,.31,.45,.31,.77s-.1,.59-.31,.79-.48,.29-.82,.29Zm-.95,9.48v-8.07h1.89v8.07h-1.89Z"/><path d="M351.07,327.53c-.67,0-1.14-.2-1.42-.61-.28-.4-.42-.96-.42-1.66v-9.53h1.89v9.63c0,.23,.04,.39,.13,.49,.09,.09,.18,.14,.28,.14,.04,0,.08,0,.12,0,.04,0,.1-.01,.17-.02l.25,1.41c-.11,.04-.25,.08-.42,.11-.17,.03-.36,.05-.58,.05Z"/><path d="M355.46,317.85c-.34,0-.61-.1-.82-.29-.21-.2-.31-.46-.31-.79s.1-.58,.31-.77c.21-.2,.48-.3,.82-.3s.61,.1,.82,.3c.21,.2,.31,.45,.31,.77s-.1,.59-.31,.79-.48,.29-.82,.29Zm-.95,9.48v-8.07h1.89v8.07h-1.89Z"/><path d="M362.47,327.53c-.93,0-1.59-.27-1.98-.81s-.58-1.25-.58-2.11v-3.84h-1.15v-1.41l1.25-.08,.23-2.2h1.58v2.2h2.05v1.5h-2.05v3.84c0,.94,.38,1.41,1.13,1.41,.14,0,.29-.02,.44-.06,.15-.04,.29-.08,.39-.12l.33,1.4c-.22,.08-.47,.15-.75,.21-.28,.06-.58,.09-.9,.09Z"/><path d="M366.92,330.65c-.22,0-.41-.02-.58-.05-.16-.03-.32-.07-.48-.12l.34-1.48c.08,.02,.17,.05,.27,.07,.1,.03,.21,.04,.3,.04,.43,0,.77-.13,1.03-.39s.45-.59,.58-.99l.15-.51-3.17-7.97h1.92l1.4,3.96c.12,.35,.24,.72,.35,1.11,.11,.39,.23,.77,.35,1.16h.07c.1-.37,.2-.75,.3-1.14,.1-.39,.21-.76,.3-1.13l1.22-3.96h1.82l-2.92,8.43c-.34,.91-.75,1.63-1.23,2.16-.48,.53-1.16,.8-2.04,.8Z"/><path d="M382.28,327.53c-.93,0-1.59-.27-1.98-.81s-.58-1.25-.58-2.11v-3.84h-1.15v-1.41l1.25-.08,.23-2.2h1.58v2.2h2.05v1.5h-2.05v3.84c0,.94,.38,1.41,1.13,1.41,.14,0,.29-.02,.44-.06,.15-.04,.29-.08,.39-.12l.33,1.4c-.22,.08-.47,.15-.75,.21-.28,.06-.58,.09-.9,.09Z"/><path d="M389.23,327.53c-.67,0-1.29-.17-1.87-.5-.58-.33-1.05-.82-1.41-1.45-.36-.63-.54-1.39-.54-2.27s.18-1.66,.54-2.29,.83-1.11,1.41-1.45c.58-.33,1.2-.5,1.87-.5s1.31,.17,1.89,.5c.58,.33,1.05,.82,1.41,1.45s.54,1.39,.54,2.29-.18,1.65-.54,2.27c-.36,.63-.83,1.11-1.41,1.45-.58,.33-1.21,.5-1.89,.5Zm0-1.54c.59,0,1.06-.25,1.4-.74,.34-.49,.51-1.14,.51-1.94s-.17-1.46-.51-1.96c-.34-.49-.8-.74-1.4-.74s-1.05,.25-1.39,.74c-.33,.49-.5,1.14-.5,1.96s.17,1.45,.5,1.94c.33,.49,.8,.74,1.39,.74Z"/><path d="M399.07,327.53c-.67,0-1.29-.17-1.87-.5-.58-.33-1.05-.82-1.41-1.45-.36-.63-.54-1.39-.54-2.27s.18-1.66,.54-2.29,.83-1.11,1.41-1.45c.58-.33,1.2-.5,1.87-.5s1.31,.17,1.89,.5c.58,.33,1.05,.82,1.41,1.45s.54,1.39,.54,2.29-.18,1.65-.54,2.27c-.36,.63-.83,1.11-1.41,1.45-.58,.33-1.21,.5-1.89,.5Zm0-1.54c.59,0,1.06-.25,1.4-.74,.34-.49,.51-1.14,.51-1.94s-.17-1.46-.51-1.96c-.34-.49-.8-.74-1.4-.74s-1.05,.25-1.39,.74c-.33,.49-.5,1.14-.5,1.96s.17,1.45,.5,1.94c.33,.49,.8,.74,1.39,.74Z"/><path d="M407.45,327.53c-.67,0-1.14-.2-1.42-.61-.28-.4-.42-.96-.42-1.66v-9.53h1.89v9.63c0,.23,.04,.39,.13,.49,.09,.09,.18,.14,.28,.14,.04,0,.08,0,.12,0,.04,0,.1-.01,.17-.02l.25,1.41c-.11,.04-.25,.08-.42,.11-.17,.03-.36,.05-.58,.05Z"/><path d="M411.84,317.85c-.34,0-.61-.1-.82-.29-.21-.2-.31-.46-.31-.79s.1-.58,.31-.77c.21-.2,.48-.3,.82-.3s.61,.1,.82,.3c.21,.2,.31,.45,.31,.77s-.1,.59-.31,.79-.48,.29-.82,.29Zm-.95,9.48v-8.07h1.89v8.07h-1.89Z"/><path d="M416.01,327.33v-8.07h1.56l.13,1.08h.07c.36-.35,.76-.65,1.18-.9,.43-.25,.92-.38,1.46-.38,.87,0,1.5,.28,1.89,.84s.59,1.35,.59,2.37v5.06h-1.89v-4.81c0-.67-.1-1.14-.3-1.41-.2-.27-.52-.41-.97-.41-.35,0-.66,.08-.93,.25s-.57,.42-.91,.75v5.63h-1.89Z"/><path d="M428.84,330.9c-.64,0-1.21-.08-1.72-.23-.51-.15-.91-.39-1.2-.7-.29-.31-.44-.7-.44-1.17,0-.67,.38-1.24,1.15-1.72v-.07c-.21-.13-.38-.31-.52-.53-.14-.22-.21-.49-.21-.82s.09-.6,.27-.86c.18-.26,.39-.47,.62-.63v-.07c-.27-.21-.52-.5-.73-.87-.21-.37-.32-.79-.32-1.26,0-.62,.15-1.15,.44-1.58,.3-.43,.69-.75,1.17-.98s1.01-.34,1.57-.34c.22,0,.43,.02,.63,.06,.2,.04,.39,.08,.55,.14h2.89v1.4h-1.48c.13,.15,.24,.35,.33,.58,.09,.24,.13,.5,.13,.78,0,.59-.14,1.09-.41,1.5-.27,.41-.64,.72-1.1,.93s-.97,.31-1.54,.31c-.18,0-.36-.02-.54-.05-.19-.03-.37-.09-.56-.16-.12,.11-.22,.22-.29,.33-.07,.11-.11,.26-.11,.44,0,.23,.1,.41,.29,.54,.19,.13,.53,.2,1.03,.2h1.43c.97,0,1.71,.16,2.21,.47,.5,.31,.75,.82,.75,1.52,0,.53-.17,1-.53,1.44s-.85,.77-1.5,1.03c-.65,.25-1.41,.38-2.28,.38Zm.29-1.23c.65,0,1.17-.13,1.58-.39s.61-.56,.61-.9c0-.32-.12-.53-.37-.64-.25-.11-.6-.16-1.06-.16h-1.1c-.44,0-.8-.04-1.1-.12-.42,.32-.62,.67-.62,1.07,0,.36,.19,.64,.56,.85,.37,.2,.88,.3,1.51,.3Zm-.2-6.08c.38,0,.71-.14,.99-.43,.27-.28,.41-.68,.41-1.2s-.13-.9-.4-1.17-.6-.42-.99-.42-.73,.14-1,.41c-.27,.27-.41,.67-.41,1.18s.14,.92,.41,1.2c.27,.29,.61,.43,1,.43Z"/><path d="M436.1,323.8c-.07-.48-.04-.91,.08-1.28,.12-.37,.29-.71,.52-1.02s.46-.6,.7-.87c.24-.27,.44-.54,.61-.8,.16-.26,.25-.54,.25-.84,0-.39-.12-.71-.35-.95-.24-.24-.56-.36-.98-.36-.34,0-.65,.08-.92,.23s-.53,.36-.77,.62l-1.05-.97c.36-.42,.79-.76,1.3-1.03,.5-.27,1.06-.4,1.68-.4,.85,0,1.56,.23,2.11,.69,.55,.46,.83,1.14,.83,2.04,0,.42-.08,.79-.25,1.12-.17,.33-.38,.63-.62,.92-.25,.28-.49,.57-.73,.85-.24,.29-.43,.59-.57,.92-.14,.33-.19,.71-.15,1.13h-1.66Zm.84,3.73c-.34,0-.63-.12-.86-.36-.24-.24-.35-.55-.35-.92s.12-.68,.35-.92c.24-.24,.52-.36,.86-.36s.64,.12,.88,.36c.24,.24,.35,.55,.35,.92s-.12,.68-.35,.92c-.24,.24-.53,.36-.88,.36Z"/></g><g><path class="cls-12" d="M99.31,198.14c-1,0-1.83-.24-2.5-.73s-1.16-1.1-1.48-1.83c-.78-.11-1.46-.4-2.05-.89-.59-.48-1.05-1.12-1.38-1.92-.33-.8-.49-1.73-.49-2.78,0-1.15,.19-2.14,.58-2.97,.39-.83,.93-1.46,1.63-1.91s1.49-.67,2.39-.67,1.71,.22,2.4,.67c.69,.44,1.23,1.08,1.63,1.91,.39,.83,.59,1.82,.59,2.97,0,1.03-.16,1.94-.48,2.73-.32,.79-.76,1.43-1.33,1.91-.57,.49-1.24,.8-2,.93,.25,.47,.61,.83,1.08,1.07s.99,.36,1.57,.36c.24,0,.45-.01,.64-.04,.19-.03,.35-.06,.49-.11l.26,1.05c-.17,.07-.38,.12-.66,.17-.27,.05-.57,.07-.89,.07Zm-3.3-3.65c.65,0,1.21-.18,1.68-.55,.48-.37,.85-.89,1.11-1.56,.26-.67,.39-1.47,.39-2.39,0-1.34-.29-2.39-.87-3.17-.58-.78-1.35-1.17-2.32-1.17s-1.74,.39-2.32,1.17c-.58,.78-.87,1.83-.87,3.17,0,.92,.13,1.72,.39,2.39,.26,.67,.64,1.19,1.12,1.56,.48,.37,1.04,.55,1.68,.55Z"/><path class="cls-12" d="M105.31,195.63c-.84,0-1.46-.27-1.86-.8-.39-.53-.59-1.31-.59-2.32v-5.06h1.36v4.88c0,.74,.12,1.29,.35,1.63,.24,.34,.62,.51,1.14,.51,.42,0,.79-.11,1.11-.32,.32-.21,.67-.56,1.04-1.03v-5.67h1.35v7.98h-1.12l-.12-1.25h-.05c-.37,.44-.77,.79-1.18,1.05-.42,.26-.9,.39-1.45,.39Z"/><path class="cls-12" d="M112.77,185.8c-.26,0-.48-.08-.65-.24-.17-.16-.25-.38-.25-.65s.08-.48,.25-.64c.17-.17,.39-.25,.65-.25s.48,.08,.65,.25c.17,.16,.25,.38,.25,.64s-.08,.49-.25,.65c-.17,.16-.39,.24-.65,.24Zm-.69,9.63v-7.98h1.35v7.98h-1.35Z"/><path class="cls-12" d="M119.44,195.63c-.7,0-1.34-.16-1.91-.49-.57-.33-1.02-.8-1.35-1.43-.33-.62-.49-1.38-.49-2.25s.18-1.66,.53-2.28c.36-.62,.83-1.1,1.41-1.43,.59-.33,1.22-.49,1.9-.49,.53,0,.98,.09,1.36,.28,.38,.19,.7,.41,.98,.66l-.69,.89c-.23-.21-.47-.38-.73-.51-.26-.13-.54-.2-.86-.2-.48,0-.91,.13-1.29,.39-.38,.26-.67,.62-.89,1.08-.21,.47-.32,1-.32,1.62,0,.91,.23,1.65,.68,2.21,.45,.56,1.05,.85,1.78,.85,.37,0,.72-.08,1.04-.24,.32-.16,.6-.35,.84-.57l.59,.9c-.36,.32-.76,.57-1.2,.75-.44,.18-.9,.27-1.38,.27Z"/><path class="cls-12" d="M123.94,195.43v-11.7h1.33v7.92h.05l3.4-4.21h1.5l-2.68,3.2,3.04,4.78h-1.48l-2.33-3.84-1.5,1.74v2.1h-1.33Z"/><path class="cls-12" d="M132.37,195.43v-10.78h3.07c.81,0,1.52,.1,2.12,.29s1.07,.53,1.41,.99c.34,.47,.51,1.09,.51,1.88,0,1.13-.37,1.97-1.1,2.51s-1.69,.82-2.88,.82h-1.77v4.27h-1.36Zm1.36-5.39h1.61c.94,0,1.64-.18,2.09-.53,.45-.36,.68-.92,.68-1.68s-.24-1.32-.71-1.62c-.48-.3-1.19-.45-2.13-.45h-1.54v4.29Z"/><path class="cls-12" d="M142.83,195.63c-.67,0-1.22-.2-1.67-.6s-.67-.96-.67-1.67c0-.88,.39-1.55,1.17-2.01,.78-.47,2.02-.79,3.72-.98,0-.34-.05-.66-.14-.97-.09-.31-.26-.56-.49-.75s-.57-.29-1.01-.29c-.46,0-.89,.09-1.3,.26-.41,.17-.77,.37-1.08,.59l-.53-.94c.37-.24,.83-.47,1.37-.7,.54-.22,1.13-.34,1.77-.34,.97,0,1.68,.3,2.12,.9,.44,.6,.66,1.39,.66,2.39v4.9h-1.12l-.12-.95h-.05c-.37,.31-.78,.58-1.22,.81-.44,.23-.92,.34-1.42,.34Zm.39-1.08c.38,0,.75-.09,1.08-.28,.34-.19,.7-.45,1.08-.79v-2.22c-1.33,.16-2.25,.41-2.79,.74-.53,.33-.8,.75-.8,1.26,0,.45,.14,.78,.41,.98,.27,.2,.61,.3,1,.3Z"/><path class="cls-12" d="M149.57,198.86c-.18,0-.34-.02-.5-.05-.16-.03-.3-.07-.44-.11l.26-1.07c.09,.02,.19,.05,.3,.07s.21,.04,.31,.04c.45,0,.82-.16,1.12-.48,.29-.32,.53-.73,.69-1.22l.18-.59-3.2-8h1.4l1.63,4.42c.12,.34,.25,.71,.39,1.1,.14,.39,.26,.78,.39,1.15h.07c.12-.36,.24-.74,.34-1.13,.11-.39,.22-.77,.33-1.12l1.43-4.42h1.31l-3.01,8.64c-.19,.53-.41,1-.67,1.41-.26,.42-.57,.75-.95,.99-.38,.25-.84,.37-1.37,.37Z"/><path class="cls-12" d="M157.27,195.43v-7.98h1.12l.12,1.15h.05c.35-.38,.73-.7,1.15-.96,.42-.26,.86-.39,1.33-.39,.61,0,1.09,.13,1.44,.4,.34,.27,.6,.64,.76,1.12,.42-.45,.84-.82,1.26-1.1,.43-.29,.88-.43,1.36-.43,.82,0,1.43,.27,1.83,.8,.4,.53,.6,1.31,.6,2.33v5.06h-1.35v-4.88c0-.75-.12-1.29-.36-1.63-.24-.34-.61-.51-1.12-.51-.59,0-1.26,.41-2,1.23v5.78h-1.35v-4.88c0-.75-.12-1.29-.36-1.63-.24-.34-.62-.51-1.13-.51-.59,0-1.26,.41-2,1.23v5.78h-1.35Z"/><path class="cls-12" d="M174.29,195.63c-.71,0-1.36-.17-1.94-.5-.58-.33-1.04-.81-1.38-1.44-.34-.62-.51-1.37-.51-2.23s.17-1.63,.52-2.25c.34-.62,.79-1.11,1.34-1.45,.55-.34,1.12-.51,1.72-.51,1.02,0,1.8,.34,2.36,1.02,.55,.68,.83,1.59,.83,2.73,0,.14,0,.28,0,.42s-.02,.25-.04,.35h-5.39c.05,.84,.32,1.52,.8,2.02s1.1,.76,1.87,.76c.38,0,.74-.06,1.06-.17,.32-.12,.63-.27,.93-.45l.48,.89c-.34,.22-.73,.41-1.16,.58-.43,.16-.92,.25-1.47,.25Zm-2.51-4.83h4.27c0-.81-.17-1.43-.52-1.85-.35-.42-.83-.63-1.45-.63-.56,0-1.06,.22-1.5,.65-.44,.43-.71,1.04-.8,1.83Z"/><path class="cls-12" d="M179.37,195.43v-7.98h1.12l.12,1.15h.05c.38-.38,.79-.7,1.21-.96,.43-.26,.92-.39,1.46-.39,.84,0,1.46,.27,1.85,.8,.39,.53,.58,1.31,.58,2.33v5.06h-1.35v-4.88c0-.75-.12-1.29-.36-1.63-.24-.34-.62-.51-1.15-.51-.41,0-.77,.1-1.09,.31-.32,.21-.69,.52-1.09,.92v5.78h-1.35Z"/><path class="cls-12" d="M191.03,195.63c-.85,0-1.45-.25-1.78-.74s-.5-1.13-.5-1.92v-4.42h-1.18v-1.02l1.25-.08,.16-2.23h1.13v2.23h2.15v1.1h-2.15v4.44c0,.49,.09,.87,.27,1.14s.5,.4,.96,.4c.14,0,.3-.02,.46-.07,.16-.05,.31-.1,.44-.14l.26,1.02c-.22,.08-.46,.15-.71,.21-.26,.06-.51,.09-.76,.09Z"/><path class="cls-12" d="M196.16,195.63c-.57,0-1.11-.11-1.63-.32s-.96-.47-1.35-.78l.67-.9c.35,.27,.71,.5,1.08,.68s.79,.27,1.26,.27c.53,0,.92-.12,1.18-.37,.26-.25,.39-.54,.39-.88,0-.27-.09-.5-.27-.69-.18-.19-.41-.34-.69-.47s-.57-.24-.86-.35c-.37-.14-.74-.3-1.1-.48s-.66-.42-.89-.71c-.23-.29-.35-.66-.35-1.11,0-.65,.24-1.19,.73-1.62s1.16-.65,2.03-.65c.49,0,.95,.09,1.38,.26,.43,.17,.79,.39,1.1,.64l-.66,.85c-.27-.21-.56-.38-.85-.51s-.62-.2-.97-.2c-.5,0-.87,.12-1.11,.34-.24,.23-.35,.5-.35,.81,0,.25,.08,.46,.25,.62,.16,.16,.38,.3,.64,.41,.26,.12,.54,.23,.84,.35,.38,.14,.76,.3,1.13,.48s.68,.42,.93,.72c.25,.3,.37,.7,.37,1.21,0,.43-.11,.82-.34,1.18s-.55,.65-.99,.87c-.43,.22-.97,.33-1.6,.33Z"/><path class="cls-12" d="M199.82,195.43l3.65-10.78h1.54l3.65,10.78h-1.46l-1.02-3.29h-3.93l-1.04,3.29h-1.4Zm3.29-6.03l-.51,1.64h3.24l-.51-1.64c-.2-.6-.38-1.2-.56-1.8-.18-.6-.35-1.21-.53-1.83h-.07c-.16,.62-.33,1.24-.51,1.83-.18,.6-.36,1.2-.56,1.8Z"/></g><g><path class="cls-12" d="M101.01,235.62c-1.06,0-1.96-.26-2.69-.77-.73-.51-1.27-1.17-1.62-1.97-.77-.14-1.44-.45-2.02-.93-.58-.48-1.03-1.11-1.35-1.89s-.48-1.69-.48-2.72c0-1.16,.2-2.15,.6-2.97,.4-.82,.96-1.45,1.67-1.89,.71-.44,1.53-.66,2.46-.66s1.77,.22,2.48,.66c.71,.44,1.27,1.07,1.67,1.89,.4,.82,.6,1.81,.6,2.97,0,1.49-.33,2.71-.99,3.67-.66,.96-1.53,1.56-2.63,1.82,.25,.43,.6,.74,1.05,.94,.45,.2,.93,.3,1.45,.3,.24,0,.46-.02,.65-.05,.19-.03,.36-.07,.52-.12l.35,1.41c-.18,.08-.41,.15-.71,.21-.3,.07-.64,.1-1.01,.1Zm-3.42-4.22c.84,0,1.52-.36,2.02-1.08,.5-.72,.76-1.71,.76-2.97s-.25-2.15-.76-2.83-1.18-1.03-2.02-1.03-1.52,.34-2.02,1.03-.76,1.63-.76,2.83,.25,2.25,.76,2.97c.5,.72,1.18,1.08,2.02,1.08Z"/><path class="cls-12" d="M106.89,232.96c-.87,0-1.5-.28-1.89-.84-.39-.56-.59-1.35-.59-2.37v-5.06h1.89v4.81c0,.67,.1,1.14,.3,1.41s.51,.41,.95,.41c.35,0,.66-.09,.93-.26,.27-.17,.56-.46,.86-.85v-5.52h1.89v8.07h-1.54l-.15-1.18h-.05c-.35,.42-.73,.75-1.15,1-.42,.25-.9,.38-1.45,.38Z"/><path class="cls-12" d="M114.74,223.29c-.34,0-.61-.1-.82-.29-.21-.2-.31-.46-.31-.79s.1-.58,.31-.77c.21-.2,.48-.3,.82-.3s.61,.1,.82,.3c.21,.2,.31,.45,.31,.77s-.1,.59-.31,.79-.48,.29-.82,.29Zm-.95,9.48v-8.07h1.89v8.07h-1.89Z"/><path class="cls-12" d="M121.62,232.96c-.73,0-1.39-.17-1.98-.5-.59-.33-1.05-.82-1.4-1.45-.35-.63-.52-1.39-.52-2.27s.19-1.66,.56-2.29c.37-.63,.87-1.11,1.49-1.45,.62-.33,1.28-.5,2-.5,.51,0,.96,.09,1.35,.26,.38,.17,.72,.39,1.02,.64l-.92,1.23c-.21-.19-.42-.33-.64-.44-.22-.1-.45-.16-.71-.16-.65,0-1.17,.25-1.58,.74-.41,.49-.62,1.14-.62,1.96s.2,1.45,.6,1.94c.4,.49,.92,.74,1.55,.74,.32,0,.62-.07,.9-.21,.28-.14,.53-.3,.76-.48l.77,1.25c-.37,.33-.79,.57-1.25,.74-.46,.16-.92,.25-1.38,.25Z"/><path class="cls-12" d="M126.01,232.77v-11.6h1.86v7.25h.05l2.99-3.71h2.07l-2.76,3.29,3.04,4.78h-2.05l-2.07-3.5-1.26,1.45v2.05h-1.86Z"/><path class="cls-12" d="M134.91,232.77v-10.74h3.38c.8,0,1.51,.1,2.14,.31,.62,.21,1.12,.55,1.48,1.04,.36,.48,.54,1.14,.54,1.97,0,.79-.18,1.44-.54,1.96-.36,.51-.85,.9-1.46,1.15s-1.31,.38-2.09,.38h-1.54v3.94h-1.91Zm1.91-5.47h1.4c1.58,0,2.37-.65,2.37-1.96,0-.68-.21-1.15-.62-1.4-.41-.26-1.02-.39-1.82-.39h-1.33v3.75Z"/><path class="cls-12" d="M145.8,232.96c-.7,0-1.27-.22-1.72-.66-.44-.44-.67-1.01-.67-1.71,0-.86,.38-1.54,1.13-2.01,.76-.48,1.96-.8,3.61-.98-.01-.43-.12-.8-.34-1.11-.21-.31-.59-.47-1.14-.47-.39,0-.78,.08-1.16,.23-.38,.15-.75,.34-1.11,.56l-.69-1.26c.45-.29,.96-.53,1.52-.74,.56-.21,1.16-.31,1.8-.31,1.01,0,1.76,.3,2.26,.9,.5,.6,.75,1.46,.75,2.59v4.78h-1.56l-.13-.89h-.07c-.36,.31-.75,.56-1.16,.77-.41,.21-.86,.31-1.34,.31Zm.61-1.48c.33,0,.63-.08,.9-.24s.56-.38,.86-.65v-1.81c-1.09,.14-1.86,.35-2.28,.63s-.64,.62-.64,1.03c0,.36,.11,.62,.33,.79,.22,.16,.5,.25,.84,.25Z"/><path class="cls-12" d="M153.03,236.08c-.22,0-.41-.02-.58-.05-.16-.03-.32-.07-.48-.12l.34-1.48c.08,.02,.17,.05,.27,.07,.1,.03,.21,.04,.3,.04,.43,0,.77-.13,1.03-.39s.45-.59,.58-.99l.15-.51-3.17-7.97h1.92l1.4,3.96c.12,.35,.24,.72,.35,1.11,.11,.39,.23,.77,.35,1.16h.07c.1-.37,.2-.75,.3-1.14,.1-.39,.21-.76,.3-1.13l1.22-3.96h1.82l-2.92,8.43c-.34,.91-.75,1.63-1.23,2.16-.48,.53-1.16,.8-2.04,.8Z"/><path class="cls-12" d="M160.79,232.77v-8.07h1.56l.13,1.1h.07c.34-.36,.71-.67,1.11-.92,.4-.25,.85-.38,1.35-.38,.59,0,1.07,.13,1.42,.39,.36,.26,.63,.61,.81,1.06,.38-.42,.79-.76,1.21-1.04,.42-.27,.88-.41,1.39-.41,.85,0,1.48,.28,1.89,.84s.61,1.35,.61,2.37v5.06h-1.91v-4.81c0-.67-.1-1.14-.3-1.41-.2-.27-.51-.41-.93-.41-.5,0-1.07,.33-1.69,1v5.63h-1.89v-4.81c0-.67-.1-1.14-.3-1.41-.2-.27-.52-.41-.95-.41-.5,0-1.07,.33-1.69,1v5.63h-1.89Z"/><path class="cls-12" d="M178.25,232.96c-.75,0-1.42-.17-2.02-.5-.6-.33-1.08-.82-1.43-1.45-.35-.63-.53-1.39-.53-2.27s.18-1.63,.53-2.27c.36-.63,.82-1.12,1.39-1.46s1.17-.51,1.79-.51c.73,0,1.35,.16,1.84,.49,.49,.32,.86,.77,1.12,1.35,.25,.58,.38,1.24,.38,2,0,.39-.03,.7-.08,.92h-5.12c.09,.71,.34,1.26,.77,1.66,.43,.39,.96,.59,1.61,.59,.35,0,.68-.05,.98-.16,.3-.1,.6-.25,.9-.44l.64,1.18c-.38,.25-.81,.46-1.28,.62-.47,.16-.96,.25-1.48,.25Zm-2.15-4.99h3.58c0-.62-.14-1.11-.41-1.47-.27-.36-.68-.53-1.23-.53-.47,0-.89,.17-1.26,.52-.37,.35-.59,.84-.68,1.49Z"/><path class="cls-12" d="M183.29,232.77v-8.07h1.56l.13,1.08h.07c.36-.35,.76-.65,1.18-.9,.43-.25,.92-.38,1.46-.38,.87,0,1.5,.28,1.89,.84s.59,1.35,.59,2.37v5.06h-1.89v-4.81c0-.67-.1-1.14-.3-1.41-.2-.27-.52-.41-.97-.41-.35,0-.66,.08-.93,.25s-.57,.42-.91,.75v5.63h-1.89Z"/><path class="cls-12" d="M195.5,232.96c-.93,0-1.59-.27-1.98-.81s-.58-1.25-.58-2.11v-3.84h-1.15v-1.41l1.25-.08,.23-2.2h1.58v2.2h2.05v1.5h-2.05v3.84c0,.94,.38,1.41,1.13,1.41,.14,0,.29-.02,.44-.06,.15-.04,.29-.08,.39-.12l.33,1.4c-.22,.08-.47,.15-.75,.21-.28,.06-.58,.09-.9,.09Z"/><path class="cls-12" d="M200.84,232.96c-.55,0-1.1-.11-1.64-.32-.55-.21-1.02-.48-1.41-.8l.89-1.22c.36,.27,.72,.49,1.08,.66,.36,.16,.75,.25,1.15,.25,.44,0,.76-.09,.97-.28,.21-.19,.31-.42,.31-.69,0-.23-.08-.42-.25-.57-.17-.15-.39-.28-.65-.39-.26-.12-.54-.23-.82-.34-.35-.13-.7-.29-1.04-.48-.35-.19-.63-.44-.85-.74-.22-.3-.33-.68-.33-1.13,0-.71,.26-1.29,.79-1.74,.53-.45,1.24-.67,2.14-.67,.57,0,1.08,.1,1.53,.3,.45,.2,.84,.42,1.17,.67l-.87,1.15c-.28-.21-.57-.38-.86-.5-.29-.12-.59-.19-.91-.19-.41,0-.71,.08-.9,.25-.2,.17-.29,.38-.29,.63,0,.32,.16,.56,.49,.72,.33,.17,.71,.32,1.15,.48,.37,.13,.73,.29,1.08,.49s.64,.44,.88,.75,.35,.71,.35,1.22c0,.69-.27,1.28-.81,1.77-.54,.49-1.31,.73-2.33,.73Z"/><path class="cls-12" d="M204.6,232.77l3.5-10.74h2.23l3.5,10.74h-2l-.84-2.91h-3.61l-.84,2.91h-1.94Zm3.6-5.72l-.38,1.31h2.74l-.38-1.31c-.18-.57-.34-1.16-.5-1.76-.16-.6-.32-1.2-.47-1.79h-.07c-.14,.6-.29,1.2-.45,1.8-.16,.6-.33,1.18-.5,1.75Z"/><path class="cls-12" d="M215.31,236.13v-11.35h1.12l.12,.92h.05c.36-.31,.76-.57,1.19-.79s.88-.33,1.36-.33c1.03,0,1.81,.37,2.35,1.11,.54,.74,.8,1.73,.8,2.96,0,.9-.16,1.67-.48,2.32-.32,.65-.75,1.14-1.27,1.48-.52,.34-1.09,.51-1.7,.51-.37,0-.74-.08-1.11-.25-.37-.17-.74-.39-1.11-.67l.03,1.4v2.69h-1.35Zm3.3-4.3c.66,0,1.2-.28,1.63-.85,.43-.56,.65-1.34,.65-2.33,0-.88-.16-1.58-.48-2.13-.32-.54-.86-.81-1.62-.81-.34,0-.68,.09-1.03,.28-.34,.19-.71,.46-1.11,.8v4.19c.36,.31,.71,.52,1.05,.65,.34,.13,.64,.19,.9,.19Z"/><path class="cls-12" d="M224.59,236.13v-11.35h1.12l.12,.92h.05c.36-.31,.76-.57,1.19-.79s.88-.33,1.36-.33c1.03,0,1.81,.37,2.35,1.11,.54,.74,.8,1.73,.8,2.96,0,.9-.16,1.67-.48,2.32-.32,.65-.75,1.14-1.27,1.48-.52,.34-1.09,.51-1.7,.51-.37,0-.74-.08-1.11-.25-.37-.17-.74-.39-1.11-.67l.03,1.4v2.69h-1.35Zm3.3-4.3c.66,0,1.2-.28,1.63-.85,.43-.56,.65-1.34,.65-2.33,0-.88-.16-1.58-.48-2.13-.32-.54-.86-.81-1.62-.81-.34,0-.68,.09-1.03,.28-.34,.19-.71,.46-1.11,.8v4.19c.36,.31,.71,.52,1.05,.65,.34,.13,.64,.19,.9,.19Z"/></g><g><path class="cls-12" d="M101.01,264c-1.06,0-1.96-.26-2.69-.77-.73-.51-1.27-1.17-1.62-1.97-.77-.14-1.44-.45-2.02-.93-.58-.48-1.03-1.11-1.35-1.89s-.48-1.69-.48-2.72c0-1.16,.2-2.15,.6-2.97,.4-.82,.96-1.45,1.67-1.89,.71-.44,1.53-.66,2.46-.66s1.77,.22,2.48,.66c.71,.44,1.27,1.07,1.67,1.89,.4,.82,.6,1.81,.6,2.97,0,1.49-.33,2.71-.99,3.67-.66,.96-1.53,1.56-2.63,1.82,.25,.43,.6,.74,1.05,.94,.45,.2,.93,.3,1.45,.3,.24,0,.46-.02,.65-.05,.19-.03,.36-.07,.52-.12l.35,1.41c-.18,.08-.41,.15-.71,.21-.3,.07-.64,.1-1.01,.1Zm-3.42-4.22c.84,0,1.52-.36,2.02-1.08,.5-.72,.76-1.71,.76-2.97s-.25-2.15-.76-2.83-1.18-1.03-2.02-1.03-1.52,.34-2.02,1.03-.76,1.63-.76,2.83,.25,2.25,.76,2.97c.5,.72,1.18,1.08,2.02,1.08Z"/><path class="cls-12" d="M106.89,261.34c-.87,0-1.5-.28-1.89-.84-.39-.56-.59-1.35-.59-2.37v-5.06h1.89v4.81c0,.67,.1,1.14,.3,1.41s.51,.41,.95,.41c.35,0,.66-.09,.93-.26,.27-.17,.56-.46,.86-.85v-5.52h1.89v8.07h-1.54l-.15-1.18h-.05c-.35,.42-.73,.75-1.15,1-.42,.25-.9,.38-1.45,.38Z"/><path class="cls-12" d="M114.74,251.66c-.34,0-.61-.1-.82-.29-.21-.2-.31-.46-.31-.79s.1-.58,.31-.77c.21-.2,.48-.3,.82-.3s.61,.1,.82,.3c.21,.2,.31,.45,.31,.77s-.1,.59-.31,.79-.48,.29-.82,.29Zm-.95,9.48v-8.07h1.89v8.07h-1.89Z"/><path class="cls-12" d="M121.62,261.34c-.73,0-1.39-.17-1.98-.5-.59-.33-1.05-.82-1.4-1.45-.35-.63-.52-1.39-.52-2.27s.19-1.66,.56-2.29c.37-.63,.87-1.11,1.49-1.45,.62-.33,1.28-.5,2-.5,.51,0,.96,.09,1.35,.26,.38,.17,.72,.39,1.02,.64l-.92,1.23c-.21-.19-.42-.33-.64-.44-.22-.1-.45-.16-.71-.16-.65,0-1.17,.25-1.58,.74-.41,.49-.62,1.14-.62,1.96s.2,1.45,.6,1.94c.4,.49,.92,.74,1.55,.74,.32,0,.62-.07,.9-.21,.28-.14,.53-.3,.76-.48l.77,1.25c-.37,.33-.79,.57-1.25,.74-.46,.16-.92,.25-1.38,.25Z"/><path class="cls-12" d="M126.01,261.14v-11.6h1.86v7.25h.05l2.99-3.71h2.07l-2.76,3.29,3.04,4.78h-2.05l-2.07-3.5-1.26,1.45v2.05h-1.86Z"/><path class="cls-12" d="M134.91,261.14v-10.74h3.38c.8,0,1.51,.1,2.14,.31,.62,.21,1.12,.55,1.48,1.04,.36,.48,.54,1.14,.54,1.97,0,.79-.18,1.44-.54,1.96-.36,.51-.85,.9-1.46,1.15s-1.31,.38-2.09,.38h-1.54v3.94h-1.91Zm1.91-5.47h1.4c1.58,0,2.37-.65,2.37-1.96,0-.68-.21-1.15-.62-1.4-.41-.26-1.02-.39-1.82-.39h-1.33v3.75Z"/><path class="cls-12" d="M145.8,261.34c-.7,0-1.27-.22-1.72-.66-.44-.44-.67-1.01-.67-1.71,0-.86,.38-1.54,1.13-2.01,.76-.48,1.96-.8,3.61-.98-.01-.43-.12-.8-.34-1.11-.21-.31-.59-.47-1.14-.47-.39,0-.78,.08-1.16,.23-.38,.15-.75,.34-1.11,.56l-.69-1.26c.45-.29,.96-.53,1.52-.74,.56-.21,1.16-.31,1.8-.31,1.01,0,1.76,.3,2.26,.9,.5,.6,.75,1.46,.75,2.59v4.78h-1.56l-.13-.89h-.07c-.36,.31-.75,.56-1.16,.77-.41,.21-.86,.31-1.34,.31Zm.61-1.48c.33,0,.63-.08,.9-.24s.56-.38,.86-.65v-1.81c-1.09,.14-1.86,.35-2.28,.63s-.64,.62-.64,1.03c0,.36,.11,.62,.33,.79,.22,.16,.5,.25,.84,.25Z"/><path class="cls-12" d="M153.03,264.46c-.22,0-.41-.02-.58-.05-.16-.03-.32-.07-.48-.12l.34-1.48c.08,.02,.17,.05,.27,.07,.1,.03,.21,.04,.3,.04,.43,0,.77-.13,1.03-.39s.45-.59,.58-.99l.15-.51-3.17-7.97h1.92l1.4,3.96c.12,.35,.24,.72,.35,1.11,.11,.39,.23,.77,.35,1.16h.07c.1-.37,.2-.75,.3-1.14,.1-.39,.21-.76,.3-1.13l1.22-3.96h1.82l-2.92,8.43c-.34,.91-.75,1.63-1.23,2.16-.48,.53-1.16,.8-2.04,.8Z"/><path class="cls-12" d="M160.79,261.14v-8.07h1.56l.13,1.1h.07c.34-.36,.71-.67,1.11-.92,.4-.25,.85-.38,1.35-.38,.59,0,1.07,.13,1.42,.39,.36,.26,.63,.61,.81,1.06,.38-.42,.79-.76,1.21-1.04,.42-.27,.88-.41,1.39-.41,.85,0,1.48,.28,1.89,.84s.61,1.35,.61,2.37v5.06h-1.91v-4.81c0-.67-.1-1.14-.3-1.41-.2-.27-.51-.41-.93-.41-.5,0-1.07,.33-1.69,1v5.63h-1.89v-4.81c0-.67-.1-1.14-.3-1.41-.2-.27-.52-.41-.95-.41-.5,0-1.07,.33-1.69,1v5.63h-1.89Z"/><path class="cls-12" d="M178.25,261.34c-.75,0-1.42-.17-2.02-.5-.6-.33-1.08-.82-1.43-1.45-.35-.63-.53-1.39-.53-2.27s.18-1.63,.53-2.27c.36-.63,.82-1.12,1.39-1.46s1.17-.51,1.79-.51c.73,0,1.35,.16,1.84,.49,.49,.32,.86,.77,1.12,1.35,.25,.58,.38,1.24,.38,2,0,.39-.03,.7-.08,.92h-5.12c.09,.71,.34,1.26,.77,1.66,.43,.39,.96,.59,1.61,.59,.35,0,.68-.05,.98-.16,.3-.1,.6-.25,.9-.44l.64,1.18c-.38,.25-.81,.46-1.28,.62-.47,.16-.96,.25-1.48,.25Zm-2.15-4.99h3.58c0-.62-.14-1.11-.41-1.47-.27-.36-.68-.53-1.23-.53-.47,0-.89,.17-1.26,.52-.37,.35-.59,.84-.68,1.49Z"/><path class="cls-12" d="M183.29,261.14v-8.07h1.56l.13,1.08h.07c.36-.35,.76-.65,1.18-.9,.43-.25,.92-.38,1.46-.38,.87,0,1.5,.28,1.89,.84s.59,1.35,.59,2.37v5.06h-1.89v-4.81c0-.67-.1-1.14-.3-1.41-.2-.27-.52-.41-.97-.41-.35,0-.66,.08-.93,.25s-.57,.42-.91,.75v5.63h-1.89Z"/><path class="cls-12" d="M195.5,261.34c-.93,0-1.59-.27-1.98-.81s-.58-1.25-.58-2.11v-3.84h-1.15v-1.41l1.25-.08,.23-2.2h1.58v2.2h2.05v1.5h-2.05v3.84c0,.94,.38,1.41,1.13,1.41,.14,0,.29-.02,.44-.06,.15-.04,.29-.08,.39-.12l.33,1.4c-.22,.08-.47,.15-.75,.21-.28,.06-.58,.09-.9,.09Z"/><path class="cls-12" d="M200.84,261.34c-.55,0-1.1-.11-1.64-.32-.55-.21-1.02-.48-1.41-.8l.89-1.22c.36,.27,.72,.49,1.08,.66,.36,.16,.75,.25,1.15,.25,.44,0,.76-.09,.97-.28,.21-.19,.31-.42,.31-.69,0-.23-.08-.42-.25-.57-.17-.15-.39-.28-.65-.39-.26-.12-.54-.23-.82-.34-.35-.13-.7-.29-1.04-.48-.35-.19-.63-.44-.85-.74-.22-.3-.33-.68-.33-1.13,0-.71,.26-1.29,.79-1.74,.53-.45,1.24-.67,2.14-.67,.57,0,1.08,.1,1.53,.3,.45,.2,.84,.42,1.17,.67l-.87,1.15c-.28-.21-.57-.38-.86-.5-.29-.12-.59-.19-.91-.19-.41,0-.71,.08-.9,.25-.2,.17-.29,.38-.29,.63,0,.32,.16,.56,.49,.72,.33,.17,.71,.32,1.15,.48,.37,.13,.73,.29,1.08,.49s.64,.44,.88,.75,.35,.71,.35,1.22c0,.69-.27,1.28-.81,1.77-.54,.49-1.31,.73-2.33,.73Z"/><path class="cls-12" d="M204.6,261.14l3.5-10.74h2.23l3.5,10.74h-2l-.84-2.91h-3.61l-.84,2.91h-1.94Zm3.6-5.72l-.38,1.31h2.74l-.38-1.31c-.18-.57-.34-1.16-.5-1.76-.16-.6-.32-1.2-.47-1.79h-.07c-.14,.6-.29,1.2-.45,1.8-.16,.6-.33,1.18-.5,1.75Z"/><path class="cls-12" d="M217.64,261.34c-.84,0-1.46-.27-1.86-.8-.39-.53-.59-1.31-.59-2.32v-5.06h1.36v4.88c0,.74,.12,1.29,.35,1.63,.24,.34,.62,.51,1.14,.51,.42,0,.79-.11,1.11-.32,.32-.21,.67-.56,1.04-1.03v-5.67h1.35v7.98h-1.12l-.12-1.25h-.05c-.37,.44-.77,.79-1.18,1.05-.42,.26-.9,.39-1.45,.39Z"/><path class="cls-12" d="M226.92,261.34c-.85,0-1.45-.25-1.78-.74s-.5-1.13-.5-1.92v-4.42h-1.18v-1.02l1.25-.08,.16-2.23h1.13v2.23h2.15v1.1h-2.15v4.44c0,.49,.09,.87,.27,1.14s.5,.4,.96,.4c.14,0,.3-.02,.46-.07,.16-.05,.31-.1,.44-.14l.26,1.02c-.22,.08-.46,.15-.71,.21-.26,.06-.51,.09-.76,.09Z"/><path class="cls-12" d="M230.13,261.14v-11.7h1.35v3.19l-.05,1.64c.38-.36,.79-.67,1.21-.93,.42-.26,.91-.39,1.45-.39,.84,0,1.46,.27,1.85,.8,.39,.53,.58,1.31,.58,2.33v5.06h-1.35v-4.88c0-.75-.12-1.29-.36-1.63-.24-.34-.62-.51-1.15-.51-.41,0-.77,.1-1.09,.31-.32,.21-.69,.52-1.09,.92v5.78h-1.35Z"/><path class="cls-12" d="M242.33,261.34c-.65,0-1.25-.16-1.82-.49-.56-.33-1.02-.8-1.36-1.43-.35-.62-.52-1.38-.52-2.25s.17-1.66,.52-2.28c.34-.62,.8-1.1,1.36-1.43,.56-.33,1.17-.49,1.82-.49s1.26,.17,1.82,.49c.56,.33,1.01,.8,1.36,1.43,.34,.62,.52,1.39,.52,2.28s-.17,1.63-.52,2.25c-.34,.62-.8,1.1-1.36,1.43-.56,.33-1.17,.49-1.82,.49Zm0-1.12c.69,0,1.25-.28,1.67-.85,.42-.56,.63-1.3,.63-2.21s-.21-1.67-.63-2.23-.98-.85-1.67-.85-1.23,.29-1.66,.85c-.43,.57-.64,1.31-.64,2.23s.21,1.65,.64,2.21c.43,.56,.98,.85,1.66,.85Z"/><path class="cls-12" d="M248.3,261.14v-7.98h1.12l.12,1.45h.05c.27-.5,.61-.9,1-1.2,.39-.3,.82-.44,1.26-.44,.32,0,.6,.06,.85,.17l-.26,1.18c-.13-.04-.25-.08-.36-.1-.11-.02-.25-.03-.41-.03-.34,0-.69,.14-1.06,.41s-.69,.75-.96,1.43v5.13h-1.35Z"/><path class="cls-12" d="M254.85,251.52c-.26,0-.48-.08-.65-.24-.17-.16-.25-.38-.25-.65s.08-.48,.25-.64c.17-.17,.39-.25,.65-.25s.48,.08,.65,.25c.17,.16,.25,.38,.25,.64s-.08,.49-.25,.65c-.17,.16-.39,.24-.65,.24Zm-.69,9.63v-7.98h1.35v7.98h-1.35Z"/><path class="cls-12" d="M257.53,261.14v-.72l4.21-6.16h-3.75v-1.1h5.45v.72l-4.21,6.16h4.34v1.1h-6.05Z"/><path class="cls-12" d="M266.98,261.34c-.67,0-1.22-.2-1.67-.6s-.67-.96-.67-1.67c0-.88,.39-1.55,1.17-2.01,.78-.47,2.02-.79,3.72-.98,0-.34-.05-.66-.14-.97-.09-.31-.26-.56-.49-.75s-.57-.29-1.01-.29c-.46,0-.89,.09-1.3,.26-.41,.17-.77,.37-1.08,.59l-.53-.94c.37-.24,.83-.47,1.37-.7,.54-.22,1.13-.34,1.77-.34,.97,0,1.68,.3,2.12,.9,.44,.6,.66,1.39,.66,2.39v4.9h-1.12l-.12-.95h-.05c-.37,.31-.78,.58-1.22,.81-.44,.23-.92,.34-1.42,.34Zm.39-1.08c.38,0,.75-.09,1.08-.28,.34-.19,.7-.45,1.08-.79v-2.22c-1.33,.16-2.25,.41-2.79,.74-.53,.33-.8,.75-.8,1.26,0,.45,.14,.78,.41,.98,.27,.2,.61,.3,1,.3Z"/><path class="cls-12" d="M275.86,261.34c-.85,0-1.45-.25-1.78-.74s-.5-1.13-.5-1.92v-4.42h-1.18v-1.02l1.25-.08,.16-2.23h1.13v2.23h2.15v1.1h-2.15v4.44c0,.49,.09,.87,.27,1.14s.5,.4,.96,.4c.14,0,.3-.02,.46-.07,.16-.05,.31-.1,.44-.14l.26,1.02c-.22,.08-.46,.15-.71,.21-.26,.06-.51,.09-.76,.09Z"/><path class="cls-12" d="M279.76,251.52c-.26,0-.48-.08-.65-.24-.17-.16-.25-.38-.25-.65s.08-.48,.25-.64c.17-.17,.39-.25,.65-.25s.48,.08,.65,.25c.17,.16,.25,.38,.25,.64s-.08,.49-.25,.65c-.17,.16-.39,.24-.65,.24Zm-.69,9.63v-7.98h1.35v7.98h-1.35Z"/><path class="cls-12" d="M286.38,261.34c-.65,0-1.25-.16-1.82-.49-.56-.33-1.02-.8-1.36-1.43-.35-.62-.52-1.38-.52-2.25s.17-1.66,.52-2.28c.34-.62,.8-1.1,1.36-1.43,.56-.33,1.17-.49,1.82-.49s1.26,.17,1.82,.49c.56,.33,1.01,.8,1.36,1.43,.34,.62,.52,1.39,.52,2.28s-.17,1.63-.52,2.25c-.34,.62-.8,1.1-1.36,1.43-.56,.33-1.17,.49-1.82,.49Zm0-1.12c.69,0,1.25-.28,1.67-.85,.42-.56,.63-1.3,.63-2.21s-.21-1.67-.63-2.23-.98-.85-1.67-.85-1.23,.29-1.66,.85c-.43,.57-.64,1.31-.64,2.23s.21,1.65,.64,2.21c.43,.56,.98,.85,1.66,.85Z"/><path class="cls-12" d="M292.34,261.14v-7.98h1.12l.12,1.15h.05c.38-.38,.79-.7,1.21-.96,.43-.26,.92-.39,1.46-.39,.84,0,1.46,.27,1.85,.8,.39,.53,.58,1.31,.58,2.33v5.06h-1.35v-4.88c0-.75-.12-1.29-.36-1.63-.24-.34-.62-.51-1.15-.51-.41,0-.77,.1-1.09,.31-.32,.21-.69,.52-1.09,.92v5.78h-1.35Z"/><path class="cls-12" d="M303.58,261.34c-.57,0-1.11-.11-1.63-.32s-.96-.47-1.35-.78l.67-.9c.35,.27,.71,.5,1.08,.68s.79,.27,1.26,.27c.53,0,.92-.12,1.18-.37,.26-.25,.39-.54,.39-.88,0-.27-.09-.5-.27-.69-.18-.19-.41-.34-.69-.47s-.57-.24-.86-.35c-.37-.14-.74-.3-1.1-.48s-.66-.42-.89-.71c-.23-.29-.35-.66-.35-1.11,0-.65,.24-1.19,.73-1.62s1.16-.65,2.03-.65c.49,0,.95,.09,1.38,.26,.43,.17,.79,.39,1.1,.64l-.66,.85c-.27-.21-.56-.38-.85-.51s-.62-.2-.97-.2c-.5,0-.87,.12-1.11,.34-.24,.23-.35,.5-.35,.81,0,.25,.08,.46,.25,.62,.16,.16,.38,.3,.64,.41,.26,.12,.54,.23,.84,.35,.38,.14,.76,.3,1.13,.48s.68,.42,.93,.72c.25,.3,.37,.7,.37,1.21,0,.43-.11,.82-.34,1.18s-.55,.65-.99,.87c-.43,.22-.97,.33-1.6,.33Z"/></g><g><path d="M125.88,360.19v-10.78h1.41l3.89,6.77,1.17,2.23h.07c-.03-.55-.07-1.11-.11-1.7s-.06-1.16-.06-1.73v-5.57h1.3v10.78h-1.41l-3.91-6.79-1.17-2.22h-.07c.04,.54,.08,1.09,.12,1.66,.04,.57,.06,1.14,.06,1.71v5.63h-1.3Z"/><path d="M139.65,360.38c-.65,0-1.25-.16-1.82-.49-.56-.33-1.02-.8-1.36-1.43-.35-.62-.52-1.38-.52-2.25s.17-1.66,.52-2.28c.34-.62,.8-1.1,1.36-1.43,.56-.33,1.17-.49,1.82-.49s1.26,.17,1.82,.49c.56,.33,1.01,.8,1.36,1.43,.34,.62,.52,1.39,.52,2.28s-.17,1.63-.52,2.25c-.34,.62-.8,1.1-1.36,1.43-.56,.33-1.17,.49-1.82,.49Zm0-1.12c.69,0,1.25-.28,1.67-.85,.42-.56,.63-1.3,.63-2.21s-.21-1.67-.63-2.23-.98-.85-1.67-.85-1.23,.29-1.66,.85c-.43,.57-.64,1.31-.64,2.23s.21,1.65,.64,2.21c.43,.56,.98,.85,1.66,.85Z"/></g><g><path d="M227.68,360.19v-4.17l-3.24-6.6h1.46l1.4,3.04c.18,.39,.35,.78,.52,1.17,.17,.38,.34,.78,.52,1.18h.07c.19-.41,.37-.8,.56-1.18,.19-.38,.36-.77,.53-1.17l1.38-3.04h1.43l-3.24,6.6v4.17h-1.38Z"/><path d="M236.36,360.38c-.71,0-1.36-.17-1.94-.5-.58-.33-1.04-.81-1.38-1.44-.34-.62-.51-1.37-.51-2.23s.17-1.63,.52-2.25c.34-.62,.79-1.11,1.34-1.45,.55-.34,1.12-.51,1.72-.51,1.02,0,1.8,.34,2.36,1.02,.55,.68,.83,1.59,.83,2.73,0,.14,0,.28,0,.42s-.02,.25-.04,.35h-5.39c.05,.84,.32,1.52,.8,2.02s1.1,.76,1.87,.76c.38,0,.74-.06,1.06-.17,.32-.12,.63-.27,.93-.45l.48,.89c-.34,.22-.73,.41-1.16,.58-.43,.16-.92,.25-1.47,.25Zm-2.51-4.83h4.27c0-.81-.17-1.43-.52-1.85-.35-.42-.83-.63-1.45-.63-.56,0-1.06,.22-1.5,.65-.44,.43-.71,1.04-.8,1.83Z"/><path d="M243.52,360.38c-.57,0-1.11-.11-1.63-.32s-.96-.47-1.35-.78l.67-.9c.35,.27,.71,.5,1.08,.68s.79,.27,1.26,.27c.53,0,.92-.12,1.18-.37,.26-.25,.39-.54,.39-.88,0-.27-.09-.5-.27-.69-.18-.19-.41-.34-.69-.47s-.57-.24-.86-.35c-.37-.14-.74-.3-1.1-.48s-.66-.42-.89-.71c-.23-.29-.35-.66-.35-1.11,0-.65,.24-1.19,.73-1.62s1.16-.65,2.03-.65c.49,0,.95,.09,1.38,.26,.43,.17,.79,.39,1.1,.64l-.66,.85c-.27-.21-.56-.38-.85-.51s-.62-.2-.97-.2c-.5,0-.87,.12-1.11,.34-.24,.23-.35,.5-.35,.81,0,.25,.08,.46,.25,.62,.16,.16,.38,.3,.64,.41,.26,.12,.54,.23,.84,.35,.38,.14,.76,.3,1.13,.48s.68,.42,.93,.72c.25,.3,.37,.7,.37,1.21,0,.43-.11,.82-.34,1.18s-.55,.65-.99,.87c-.43,.22-.97,.33-1.6,.33Z"/></g><rect class="cls-4" x="92.59" y="346.47" width="17.17" height="17.17" rx="3.57" ry="3.57"/><rect class="cls-6" x="192.65" y="346.77" width="17.17" height="17.17" rx="3.57" ry="3.57"/><g><path class="cls-8" d="M80.75,88.15l4.57-14.61h3.96l4.57,14.61h-3.5l-.9-3.47h-4.46l-.9,3.47h-3.36Zm5.29-7.39l-.36,1.34h3.11l-.34-1.34c-.19-.73-.39-1.51-.59-2.33-.2-.82-.4-1.61-.59-2.37h-.09c-.18,.78-.36,1.57-.55,2.39-.19,.81-.38,1.59-.59,2.32Z"/><path class="cls-8" d="M99.36,88.42c-1.37,0-2.47-.52-3.3-1.56s-1.24-2.46-1.24-4.27c0-1.21,.22-2.25,.66-3.12s1.02-1.54,1.73-2c.71-.46,1.45-.69,2.23-.69,.61,0,1.13,.1,1.55,.31s.81,.49,1.19,.85l-.13-1.7v-3.79h3.29v15.7h-2.69l-.22-1.1h-.09c-.39,.39-.84,.71-1.37,.97-.52,.26-1.05,.39-1.59,.39Zm.85-2.69c.36,0,.68-.08,.97-.22s.57-.41,.84-.78v-4.55c-.28-.27-.59-.46-.91-.56s-.63-.16-.93-.16c-.52,0-.99,.25-1.39,.75s-.6,1.28-.6,2.34,.17,1.89,.53,2.41c.35,.52,.85,.77,1.49,.77Z"/><path class="cls-8" d="M112.42,88.42c-1.37,0-2.47-.52-3.3-1.56s-1.24-2.46-1.24-4.27c0-1.21,.22-2.25,.66-3.12s1.02-1.54,1.73-2c.71-.46,1.45-.69,2.23-.69,.61,0,1.13,.1,1.55,.31s.81,.49,1.19,.85l-.13-1.7v-3.79h3.29v15.7h-2.69l-.22-1.1h-.09c-.39,.39-.84,.71-1.37,.97-.52,.26-1.05,.39-1.59,.39Zm.85-2.69c.36,0,.68-.08,.97-.22s.57-.41,.84-.78v-4.55c-.28-.27-.59-.46-.91-.56s-.63-.16-.93-.16c-.52,0-.99,.25-1.39,.75s-.6,1.28-.6,2.34,.17,1.89,.53,2.41c.35,.52,.85,.77,1.49,.77Z"/><path class="cls-8" d="M132.43,88.42c-1.31,0-2.47-.31-3.46-.92s-1.77-1.49-2.33-2.63c-.56-1.14-.84-2.5-.84-4.09s.28-2.95,.84-4.07c.56-1.11,1.34-1.96,2.33-2.55,.99-.59,2.15-.88,3.46-.88s2.47,.29,3.46,.88c.99,.59,1.77,1.45,2.33,2.57,.56,1.12,.84,2.47,.84,4.05s-.28,2.95-.84,4.09c-.56,1.14-1.34,2.02-2.33,2.63-.99,.61-2.15,.92-3.46,.92Zm0-2.84c1,0,1.79-.43,2.38-1.3,.58-.87,.87-2.03,.87-3.49s-.29-2.61-.87-3.43-1.37-1.23-2.38-1.23-1.79,.41-2.37,1.23c-.58,.82-.87,1.96-.87,3.43s.29,2.63,.87,3.49c.58,.87,1.37,1.3,2.37,1.3Z"/><path class="cls-8" d="M141.77,92.27v-15.23h2.69l.22,1.1h.09c.43-.39,.92-.71,1.47-.97,.54-.26,1.11-.39,1.69-.39,1.34,0,2.41,.51,3.18,1.53,.78,1.02,1.17,2.39,1.17,4.11,0,1.27-.22,2.35-.67,3.25-.45,.9-1.03,1.58-1.74,2.05-.71,.47-1.47,.71-2.27,.71-.48,0-.94-.1-1.39-.3-.45-.2-.87-.49-1.25-.86l.11,1.77v3.25h-3.29Zm5.06-6.54c.57,0,1.05-.26,1.46-.78,.4-.52,.6-1.35,.6-2.49,0-2-.64-3-1.93-3-.64,0-1.28,.34-1.9,1.01v4.55c.3,.27,.6,.46,.9,.56s.59,.16,.87,.16Z"/><path class="cls-8" d="M159.8,88.42c-1.06,0-2.02-.23-2.87-.69-.85-.46-1.52-1.13-2.02-1.99s-.74-1.91-.74-3.14,.25-2.25,.75-3.11c.5-.87,1.15-1.53,1.96-2,.81-.47,1.65-.71,2.53-.71,1.06,0,1.94,.24,2.63,.71,.69,.47,1.22,1.11,1.57,1.9,.35,.8,.53,1.71,.53,2.72,0,.28-.01,.56-.04,.84s-.06,.48-.09,.62h-6.65c.15,.81,.49,1.4,1.01,1.78,.52,.38,1.15,.57,1.88,.57,.79,0,1.59-.25,2.4-.74l1.1,1.99c-.57,.39-1.2,.69-1.9,.92-.7,.22-1.38,.34-2.04,.34Zm-2.46-7.03h4.01c0-.61-.15-1.12-.44-1.51s-.77-.59-1.42-.59c-.51,0-.96,.18-1.37,.53-.4,.35-.66,.88-.78,1.58Z"/><path class="cls-8" d="M166.66,88.15v-11.11h2.69l.22,1.41h.09c.48-.45,1-.84,1.58-1.18s1.24-.5,1.98-.5c1.21,0,2.09,.4,2.63,1.2,.54,.8,.82,1.89,.82,3.28v6.9h-3.29v-6.47c0-.81-.11-1.36-.33-1.66s-.56-.45-1.04-.45c-.42,0-.78,.09-1.08,.28-.3,.19-.63,.45-.99,.79v7.5h-3.29Z"/><path class="cls-8" d="M182.18,88.15v-11.83h-4.01v-2.78h11.34v2.78h-4.01v11.83h-3.32Z"/><path class="cls-8" d="M195.02,88.42c-1.06,0-2.02-.23-2.87-.69-.85-.46-1.52-1.13-2.02-1.99s-.74-1.91-.74-3.14,.25-2.25,.75-3.11c.5-.87,1.15-1.53,1.96-2,.81-.47,1.65-.71,2.53-.71,1.06,0,1.94,.24,2.63,.71,.69,.47,1.22,1.11,1.57,1.9,.35,.8,.53,1.71,.53,2.72,0,.28-.01,.56-.04,.84s-.06,.48-.09,.62h-6.65c.15,.81,.49,1.4,1.01,1.78,.52,.38,1.15,.57,1.88,.57,.79,0,1.59-.25,2.4-.74l1.1,1.99c-.57,.39-1.2,.69-1.9,.92-.7,.22-1.38,.34-2.04,.34Zm-2.46-7.03h4.01c0-.61-.15-1.12-.44-1.51s-.77-.59-1.42-.59c-.51,0-.96,.18-1.37,.53-.4,.35-.66,.88-.78,1.58Z"/><path class="cls-8" d="M204.89,88.42c-1.13,0-1.92-.34-2.36-1.02s-.66-1.58-.66-2.7v-12.25h3.29v12.39c0,.34,.06,.58,.19,.72s.26,.2,.39,.2c.07,0,.14,0,.19-.01,.05,0,.12-.02,.21-.03l.4,2.44c-.18,.07-.41,.14-.68,.19-.28,.05-.6,.08-.97,.08Z"/><path class="cls-8" d="M213.47,88.42c-1.06,0-2.02-.23-2.87-.69-.85-.46-1.52-1.13-2.02-1.99s-.74-1.91-.74-3.14,.25-2.25,.75-3.11c.5-.87,1.15-1.53,1.96-2,.81-.47,1.65-.71,2.53-.71,1.06,0,1.94,.24,2.63,.71,.69,.47,1.22,1.11,1.57,1.9,.35,.8,.53,1.71,.53,2.72,0,.28-.01,.56-.04,.84s-.06,.48-.09,.62h-6.65c.15,.81,.49,1.4,1.01,1.78,.52,.38,1.15,.57,1.88,.57,.79,0,1.59-.25,2.4-.74l1.1,1.99c-.57,.39-1.2,.69-1.9,.92-.7,.22-1.38,.34-2.04,.34Zm-2.46-7.03h4.01c0-.61-.15-1.12-.44-1.51s-.77-.59-1.42-.59c-.51,0-.96,.18-1.37,.53-.4,.35-.66,.88-.78,1.58Z"/><path class="cls-8" d="M220.33,88.15v-11.11h2.69l.22,1.43h.09c.46-.46,.96-.86,1.48-1.2,.52-.34,1.15-.5,1.88-.5,.79,0,1.43,.16,1.92,.48s.87,.78,1.15,1.38c.49-.51,1.01-.94,1.57-1.31s1.2-.55,1.93-.55c1.2,0,2.07,.4,2.63,1.2,.56,.8,.84,1.89,.84,3.28v6.9h-3.29v-6.47c0-.81-.11-1.36-.33-1.66s-.56-.45-1.04-.45c-.55,0-1.19,.36-1.9,1.08v7.5h-3.29v-6.47c0-.81-.11-1.36-.32-1.66-.22-.3-.56-.45-1.04-.45-.55,0-1.18,.36-1.88,1.08v7.5h-3.29Z"/><path class="cls-8" d="M244.72,88.42c-1.06,0-2.02-.23-2.87-.69-.85-.46-1.52-1.13-2.02-1.99s-.74-1.91-.74-3.14,.25-2.25,.75-3.11c.5-.87,1.15-1.53,1.96-2,.81-.47,1.65-.71,2.53-.71,1.06,0,1.94,.24,2.63,.71,.69,.47,1.22,1.11,1.57,1.9,.35,.8,.53,1.71,.53,2.72,0,.28-.01,.56-.04,.84s-.06,.48-.09,.62h-6.65c.15,.81,.49,1.4,1.01,1.78,.52,.38,1.15,.57,1.88,.57,.79,0,1.59-.25,2.4-.74l1.1,1.99c-.57,.39-1.2,.69-1.9,.92-.7,.22-1.38,.34-2.04,.34Zm-2.46-7.03h4.01c0-.61-.15-1.12-.44-1.51s-.77-.59-1.42-.59c-.51,0-.96,.18-1.37,.53-.4,.35-.66,.88-.78,1.58Z"/><path class="cls-8" d="M255.63,88.42c-1.38,0-2.36-.4-2.95-1.19-.59-.79-.88-1.83-.88-3.11v-4.5h-1.52v-2.44l1.7-.13,.38-2.96h2.73v2.96h2.67v2.58h-2.67v4.46c0,.63,.13,1.08,.39,1.36,.26,.28,.61,.41,1.04,.41,.18,0,.36-.02,.55-.07,.19-.04,.35-.1,.5-.16l.52,2.4c-.28,.09-.63,.18-1.04,.27-.41,.09-.88,.13-1.42,.13Z"/><path class="cls-8" d="M260.16,88.15v-11.11h2.69l.22,1.95h.09c.4-.75,.89-1.3,1.46-1.67s1.13-.55,1.7-.55c.31,0,.58,.02,.78,.06s.39,.09,.54,.17l-.54,2.84c-.19-.06-.38-.1-.57-.13s-.4-.04-.64-.04c-.42,0-.86,.15-1.31,.46-.46,.31-.83,.83-1.13,1.58v6.45h-3.29Z"/><path class="cls-8" d="M270.69,92.49c-.33,0-.62-.02-.86-.07-.25-.04-.48-.1-.71-.16l.58-2.51c.1,.01,.22,.04,.36,.08,.13,.04,.26,.06,.38,.06,.55,0,.98-.13,1.28-.4,.3-.27,.52-.62,.67-1.05l.16-.58-4.28-10.82h3.32l1.59,4.77c.16,.51,.31,1.02,.45,1.55,.13,.52,.28,1.06,.43,1.61h.09c.12-.52,.24-1.05,.37-1.58,.13-.53,.26-1.06,.39-1.58l1.34-4.77h3.16l-3.85,11.22c-.34,.93-.72,1.71-1.14,2.34-.42,.63-.92,1.11-1.51,1.42-.59,.31-1.33,.47-2.21,.47Z"/><path class="cls-8" d="M290.33,88.42c-1.38,0-2.36-.4-2.95-1.19-.59-.79-.88-1.83-.88-3.11v-4.5h-1.52v-2.44l1.7-.13,.38-2.96h2.73v2.96h2.67v2.58h-2.67v4.46c0,.63,.13,1.08,.39,1.36,.26,.28,.61,.41,1.04,.41,.18,0,.36-.02,.55-.07,.19-.04,.35-.1,.5-.16l.52,2.4c-.28,.09-.63,.18-1.04,.27-.41,.09-.88,.13-1.42,.13Z"/><path class="cls-8" d="M299.23,88.42c-.94,0-1.83-.23-2.65-.68-.83-.46-1.5-1.12-2-1.99-.51-.87-.76-1.92-.76-3.15s.25-2.29,.76-3.16c.51-.87,1.18-1.53,2-1.98,.83-.46,1.71-.68,2.65-.68s1.82,.23,2.64,.68c.82,.46,1.49,1.12,1.99,1.98,.51,.87,.76,1.92,.76,3.16s-.25,2.27-.76,3.15c-.51,.87-1.17,1.54-1.99,1.99-.82,.46-1.7,.68-2.64,.68Zm0-2.67c.67,0,1.18-.29,1.52-.86,.34-.57,.52-1.34,.52-2.3s-.17-1.74-.52-2.31c-.34-.57-.85-.85-1.52-.85s-1.2,.28-1.53,.85c-.34,.57-.5,1.34-.5,2.31s.17,1.72,.5,2.3c.34,.58,.85,.86,1.53,.86Z"/><path class="cls-8" d="M313.05,92.49c-.33,0-.62-.02-.86-.07-.25-.04-.48-.1-.71-.16l.58-2.51c.1,.01,.22,.04,.36,.08,.13,.04,.26,.06,.38,.06,.55,0,.98-.13,1.28-.4,.3-.27,.52-.62,.67-1.05l.16-.58-4.28-10.82h3.32l1.59,4.77c.16,.51,.31,1.02,.45,1.55,.13,.52,.28,1.06,.43,1.61h.09c.12-.52,.24-1.05,.37-1.58,.13-.53,.26-1.06,.39-1.58l1.34-4.77h3.16l-3.85,11.22c-.34,.93-.72,1.71-1.14,2.34-.42,.63-.92,1.11-1.51,1.42-.59,.31-1.33,.47-2.21,.47Z"/><path class="cls-8" d="M328.3,88.42c-.94,0-1.83-.23-2.65-.68-.83-.46-1.5-1.12-2-1.99-.51-.87-.76-1.92-.76-3.15s.25-2.29,.76-3.16c.51-.87,1.18-1.53,2-1.98,.83-.46,1.71-.68,2.65-.68s1.82,.23,2.64,.68c.82,.46,1.49,1.12,1.99,1.98,.51,.87,.76,1.92,.76,3.16s-.25,2.27-.76,3.15c-.51,.87-1.17,1.54-1.99,1.99-.82,.46-1.7,.68-2.64,.68Zm0-2.67c.67,0,1.18-.29,1.52-.86,.34-.57,.52-1.34,.52-2.3s-.17-1.74-.52-2.31c-.34-.57-.85-.85-1.52-.85s-1.2,.28-1.53,.85c-.34,.57-.5,1.34-.5,2.31s.17,1.72,.5,2.3c.34,.58,.85,.86,1.53,.86Z"/><path class="cls-8" d="M339.53,88.42c-1.21,0-2.09-.4-2.63-1.2-.55-.8-.82-1.89-.82-3.28v-6.9h3.29v6.47c0,.79,.11,1.34,.34,1.65,.22,.31,.57,.46,1.05,.46,.42,0,.77-.1,1.05-.29,.28-.19,.59-.51,.92-.94v-7.35h3.29v11.11h-2.69l-.25-1.55h-.07c-.46,.55-.97,.99-1.52,1.32-.55,.33-1.21,.49-1.97,.49Z"/><path class="cls-8" d="M349.14,88.15v-11.11h2.69l.22,1.95h.09c.4-.75,.89-1.3,1.46-1.67s1.13-.55,1.7-.55c.31,0,.58,.02,.78,.06s.39,.09,.54,.17l-.54,2.84c-.19-.06-.38-.1-.57-.13s-.4-.04-.64-.04c-.42,0-.86,.15-1.31,.46-.46,.31-.83,.83-1.13,1.58v6.45h-3.29Z"/><path class="cls-8" d="M365.78,88.42c-1.02,0-1.82-.32-2.42-.97-.6-.65-.9-1.44-.9-2.39,0-1.17,.49-2.08,1.48-2.73,.99-.66,2.58-1.1,4.77-1.32-.03-.49-.18-.88-.44-1.18-.26-.29-.7-.44-1.31-.44-.46,0-.93,.09-1.41,.27-.48,.18-.99,.43-1.52,.74l-1.19-2.17c.7-.43,1.45-.78,2.25-1.05,.8-.27,1.63-.4,2.5-.4,1.42,0,2.51,.41,3.27,1.23,.76,.82,1.14,2.08,1.14,3.79v6.36h-2.69l-.22-1.14h-.09c-.46,.42-.96,.76-1.49,1.02-.53,.26-1.11,.39-1.74,.39Zm1.12-2.55c.37,0,.7-.09,.97-.26,.28-.17,.56-.4,.84-.68v-1.95c-1.17,.15-1.97,.38-2.42,.71s-.67,.7-.67,1.13c0,.36,.12,.62,.35,.79,.23,.17,.54,.26,.93,.26Z"/><path class="cls-8" d="M375.01,92.27v-15.23h2.69l.22,1.1h.09c.43-.39,.92-.71,1.47-.97,.54-.26,1.11-.39,1.69-.39,1.34,0,2.41,.51,3.18,1.53,.78,1.02,1.17,2.39,1.17,4.11,0,1.27-.22,2.35-.67,3.25-.45,.9-1.03,1.58-1.74,2.05-.71,.47-1.47,.71-2.27,.71-.48,0-.94-.1-1.39-.3-.45-.2-.87-.49-1.25-.86l.11,1.77v3.25h-3.29Zm5.06-6.54c.57,0,1.05-.26,1.46-.78,.4-.52,.6-1.35,.6-2.49,0-2-.64-3-1.93-3-.64,0-1.28,.34-1.9,1.01v4.55c.3,.27,.6,.46,.9,.56s.59,.16,.87,.16Z"/><path class="cls-8" d="M388.07,92.27v-15.23h2.69l.22,1.1h.09c.43-.39,.92-.71,1.47-.97,.54-.26,1.11-.39,1.69-.39,1.34,0,2.41,.51,3.18,1.53,.78,1.02,1.17,2.39,1.17,4.11,0,1.27-.22,2.35-.67,3.25-.45,.9-1.03,1.58-1.74,2.05-.71,.47-1.47,.71-2.27,.71-.48,0-.94-.1-1.39-.3-.45-.2-.87-.49-1.25-.86l.11,1.77v3.25h-3.29Zm5.06-6.54c.57,0,1.05-.26,1.46-.78,.4-.52,.6-1.35,.6-2.49,0-2-.64-3-1.93-3-.64,0-1.28,.34-1.9,1.01v4.55c.3,.27,.6,.46,.9,.56s.59,.16,.87,.16Z"/></g><line class="cls-5" x1="82.31" y1="208.71" x2="436.65" y2="208.71"/><g><rect class="cls-11" x="346.22" y="392.07" width="91.25" height="26.56" rx="2.43" ry="2.43"/><g><path class="cls-8" d="M361.42,408.9v-9.88h2.29l2.58,4.91,.97,2.18h.06c-.04-.53-.1-1.11-.17-1.76-.07-.65-.11-1.26-.11-1.85v-3.49h2.12v9.88h-2.29l-2.58-4.93-.97-2.15h-.06c.05,.55,.11,1.13,.17,1.76,.07,.63,.1,1.23,.1,1.82v3.5h-2.12Z"/><path class="cls-8" d="M374.71,409.08c-.72,0-1.36-.16-1.94-.47-.58-.31-1.03-.76-1.36-1.35-.33-.59-.5-1.29-.5-2.12s.17-1.52,.51-2.11c.34-.59,.78-1.04,1.33-1.36,.54-.32,1.12-.48,1.71-.48,.72,0,1.31,.16,1.78,.48s.82,.75,1.06,1.29,.36,1.15,.36,1.84c0,.19,0,.38-.03,.57-.02,.19-.04,.33-.06,.42h-4.5c.1,.55,.33,.95,.68,1.21s.78,.39,1.27,.39c.54,0,1.08-.17,1.62-.5l.74,1.35c-.38,.26-.81,.47-1.29,.62-.48,.15-.94,.23-1.38,.23Zm-1.67-4.76h2.71c0-.41-.1-.75-.29-1.02-.2-.27-.52-.4-.96-.4-.34,0-.65,.12-.92,.36-.27,.24-.45,.59-.53,1.07Z"/><path class="cls-8" d="M378.21,408.9l2.3-3.91-2.17-3.61h2.39l.67,1.21c.1,.21,.21,.43,.32,.64,.11,.22,.22,.43,.32,.64h.06c.08-.21,.17-.43,.26-.64,.09-.22,.18-.43,.26-.64l.51-1.21h2.3l-2.18,3.87,2.32,3.65h-2.39l-.73-1.24c-.12-.21-.24-.43-.36-.65-.12-.22-.23-.44-.36-.65h-.06c-.09,.21-.19,.43-.29,.64-.1,.22-.2,.44-.29,.66l-.59,1.24h-2.3Z"/><path class="cls-8" d="M389.28,409.08c-.93,0-1.59-.27-1.99-.8-.4-.54-.6-1.24-.6-2.11v-3.05h-1.03v-1.65l1.15-.09,.26-2h1.85v2h1.8v1.74h-1.8v3.02c0,.42,.09,.73,.26,.92,.18,.19,.41,.28,.71,.28,.12,0,.25-.01,.37-.04s.24-.07,.34-.11l.35,1.62c-.19,.06-.43,.12-.7,.18-.28,.06-.6,.09-.96,.09Z"/><path class="cls-8" d="M397.49,409.08c-.5,0-1-.1-1.52-.29-.52-.19-.97-.44-1.36-.76l1-1.39c.34,.25,.67,.45,.99,.58s.63,.21,.95,.21c.33,0,.58-.06,.73-.17s.23-.27,.23-.46c0-.17-.07-.31-.22-.42-.15-.11-.34-.21-.57-.31-.23-.1-.48-.19-.74-.3-.3-.12-.6-.27-.9-.45-.3-.18-.55-.42-.75-.71s-.3-.64-.3-1.05c0-.7,.27-1.26,.8-1.7s1.22-.65,2.08-.65c.58,0,1.08,.1,1.52,.29,.44,.2,.82,.42,1.13,.66l-1,1.33c-.26-.2-.53-.36-.79-.47s-.53-.17-.79-.17c-.58,0-.86,.2-.86,.59,0,.24,.14,.43,.43,.55,.29,.13,.62,.26,1.01,.4,.32,.11,.64,.25,.95,.43s.57,.41,.77,.7c.21,.29,.31,.66,.31,1.13,0,.68-.26,1.25-.79,1.72-.53,.47-1.29,.7-2.3,.7Z"/><path class="cls-8" d="M404.62,409.08c-.93,0-1.59-.27-1.99-.8-.4-.54-.6-1.24-.6-2.11v-3.05h-1.03v-1.65l1.15-.09,.26-2h1.85v2h1.8v1.74h-1.8v3.02c0,.42,.09,.73,.26,.92,.18,.19,.41,.28,.71,.28,.12,0,.25-.01,.37-.04s.24-.07,.34-.11l.35,1.62c-.19,.06-.43,.12-.7,.18-.28,.06-.6,.09-.96,.09Z"/><path class="cls-8" d="M410.65,409.08c-.72,0-1.36-.16-1.94-.47-.58-.31-1.03-.76-1.36-1.35-.33-.59-.5-1.29-.5-2.12s.17-1.52,.51-2.11c.34-.59,.78-1.04,1.33-1.36,.54-.32,1.12-.48,1.71-.48,.72,0,1.31,.16,1.78,.48s.82,.75,1.06,1.29,.36,1.15,.36,1.84c0,.19,0,.38-.03,.57-.02,.19-.04,.33-.06,.42h-4.5c.1,.55,.33,.95,.68,1.21s.78,.39,1.27,.39c.54,0,1.08-.17,1.62-.5l.74,1.35c-.38,.26-.81,.47-1.29,.62-.48,.15-.94,.23-1.38,.23Zm-1.67-4.76h2.71c0-.41-.1-.75-.29-1.02-.2-.27-.52-.4-.96-.4-.34,0-.65,.12-.92,.36-.27,.24-.45,.59-.53,1.07Z"/><path class="cls-8" d="M415.16,411.69v-10.31h1.82l.15,.74h.06c.29-.26,.62-.48,.99-.66,.37-.18,.75-.26,1.14-.26,.91,0,1.63,.35,2.15,1.04s.79,1.62,.79,2.78c0,.86-.15,1.59-.46,2.2-.3,.61-.69,1.07-1.17,1.39-.48,.32-.99,.48-1.54,.48-.32,0-.64-.07-.94-.2-.3-.14-.59-.33-.85-.58l.08,1.2v2.2h-2.23Zm3.42-4.43c.38,0,.71-.18,.99-.53,.27-.35,.41-.92,.41-1.68,0-1.35-.43-2.03-1.3-2.03-.43,0-.86,.23-1.29,.68v3.08c.2,.18,.4,.31,.61,.38,.2,.07,.4,.11,.59,.11Z"/></g></g><line class="cls-3" x1="210.15" y1="178.5" x2="210.15" y2="199"/></svg>