<?xml version="1.0" encoding="UTF-8"?><svg id="Layer_1" xmlns="http://www.w3.org/2000/svg" xmlns:xlink="http://www.w3.org/1999/xlink" viewBox="0 0 859 734"><defs><style>.cls-1{letter-spacing:0em;}.cls-2{letter-spacing:-.04em;}.cls-3,.cls-4,.cls-5,.cls-6,.cls-7,.cls-8{font-family:SourceSansPro-Regular, 'Source Sans Pro';}.cls-3,.cls-4,.cls-9,.cls-8{font-size:13.76px;}.cls-10{letter-spacing:-.04em;}.cls-11{letter-spacing:-.01em;}.cls-12{letter-spacing:-.01em;}.cls-13{letter-spacing:-.01em;}.cls-14,.cls-15{letter-spacing:.05em;}.cls-16{letter-spacing:0em;}.cls-17{letter-spacing:-.02em;}.cls-18{fill:url(#linear-gradient);}.cls-19{letter-spacing:-.02em;}.cls-20{letter-spacing:.05em;}.cls-21{clip-path:url(#clippath);}.cls-22{letter-spacing:.04em;}.cls-23{letter-spacing:.05em;}.cls-24{font-size:14px;}.cls-24,.cls-25,.cls-6,.cls-26,.cls-27{fill:#fff;}.cls-24,.cls-28{font-family:SourceSansPro-Bold, 'Source Sans Pro';}.cls-29{letter-spacing:0em;}.cls-30{mask:url(#mask);}.cls-31{letter-spacing:0em;}.cls-32{letter-spacing:0em;}.cls-33{letter-spacing:0em;}.cls-34,.cls-35,.cls-36,.cls-15{fill:#ee7320;}.cls-34,.cls-15{font-size:11px;}.cls-34,.cls-15,.cls-9{font-family:SourceSansPro-SemiBold, 'Source Sans Pro';}.cls-37{letter-spacing:0em;}.cls-38{fill:#f2f2f2;}.cls-39{fill:#e6e6e6;}.cls-40{fill:#b5b5b5;}.cls-41{fill:#b3b3b3;}.cls-42{fill:#b2581b;}.cls-43{fill:#aa351d;}.cls-44,.cls-28{fill:#111827;}.cls-4,.cls-45{letter-spacing:0em;}.cls-46{letter-spacing:0em;}.cls-47{letter-spacing:-.02em;}.cls-48{letter-spacing:.01em;}.cls-49{letter-spacing:.01em;}.cls-50,.cls-8{letter-spacing:.01em;}.cls-51{letter-spacing:.01em;}.cls-52{letter-spacing:.01em;}.cls-53{letter-spacing:.02em;}.cls-5,.cls-7{font-size:12px;}.cls-54{letter-spacing:-.02em;}.cls-6{font-size:17px;}.cls-55{letter-spacing:-.03em;}.cls-56{letter-spacing:-.02em;}.cls-57{letter-spacing:0em;}.cls-58{letter-spacing:0em;}.cls-59{letter-spacing:0em;}.cls-60{letter-spacing:0em;}.cls-61{letter-spacing:0em;}.cls-62{letter-spacing:.02em;}.cls-36,.cls-63{stroke:#ee7320;}.cls-36,.cls-64,.cls-65,.cls-66{stroke-miterlimit:10;}.cls-67{letter-spacing:.03em;}.cls-68{letter-spacing:0em;}.cls-69{letter-spacing:-.01em;}.cls-70{letter-spacing:.03em;}.cls-71{letter-spacing:.03em;}.cls-72{letter-spacing:0em;}.cls-73{letter-spacing:0em;}.cls-74{letter-spacing:.03em;}.cls-63{stroke-linecap:square;stroke-width:3px;}.cls-63,.cls-64,.cls-65,.cls-66{fill:none;}.cls-75{letter-spacing:-.01em;}.cls-76{letter-spacing:-.01em;}.cls-77{letter-spacing:-.06em;}.cls-78{letter-spacing:0em;}.cls-79{letter-spacing:0em;}.cls-80{letter-spacing:0em;}.cls-81{letter-spacing:0em;}.cls-82{letter-spacing:-.01em;}.cls-83{letter-spacing:.03em;}.cls-84{letter-spacing:0em;}.cls-85{letter-spacing:0em;}.cls-64{stroke:#b3b3b3;}.cls-65,.cls-66{stroke:#ccc;}.cls-86{letter-spacing:.02em;}.cls-87{letter-spacing:-.01em;}.cls-88{letter-spacing:.02em;}.cls-89{letter-spacing:-.01em;}.cls-90{letter-spacing:.01em;}.cls-91{letter-spacing:0em;}.cls-26{filter:url(#drop-shadow-4);}.cls-28{font-size:15px;}.cls-92{letter-spacing:0em;}.cls-93{letter-spacing:0em;}.cls-94{letter-spacing:0em;}.cls-95{letter-spacing:0em;}.cls-96{letter-spacing:0em;}.cls-7{fill:#666;}.cls-27{font-family:Montserrat-Bold, Montserrat;font-size:20px;}.cls-97{letter-spacing:0em;}.cls-98{letter-spacing:0em;}.cls-99{mask:url(#mask-3);}.cls-100{mask:url(#mask-2);}.cls-101{mask:url(#mask-5);}.cls-102{mask:url(#mask-4);}.cls-103{mask:url(#mask-1);}.cls-104{letter-spacing:0em;}.cls-105{letter-spacing:0em;}.cls-106{letter-spacing:0em;}.cls-66{stroke-width:.5px;}</style><linearGradient id="linear-gradient" x1="193" y1="284" x2="670" y2="-193" gradientTransform="matrix(1, 0, 0, 1, 0, 0)" gradientUnits="userSpaceOnUse"><stop offset="0" stop-color="#ee7320"/><stop offset="1" stop-color="#e9580c"/></linearGradient><clipPath id="clippath"><path class="cls-35" d="M33.31,56.06v-1.07l11.93-6.87-3.06-1.77-8.86,5.1v-1.07l11.86-6.83-3.06-1.77-8.8,5.07v-1.07l11.97-6.89-11.97-6.89-11.91,6.89v13.78l11.91,6.89,11.97-6.89-3.04-1.76-8.92,5.14Z"/></clipPath><mask id="mask" x="-818.22" y="-12.31" width="1674" height="1318" maskUnits="userSpaceOnUse"><g id="mask-for-jss477811"><rect class="cls-25" x="-818.22" y="-12.31" width="1674" height="1318"/></g></mask><mask id="mask-1" x="811.78" y="33.34" width="24" height="24" maskUnits="userSpaceOnUse"><g id="mask-for-MuiSvgIcon-root-719811"><rect class="cls-25" x="811.78" y="33.34" width="24" height="24"/></g></mask><filter id="drop-shadow-4" filterUnits="userSpaceOnUse"><feOffset dx="0" dy="0"/><feGaussianBlur result="blur" stdDeviation="3"/><feFlood flood-color="#000" flood-opacity=".25"/><feComposite in2="blur" operator="in"/><feComposite in="SourceGraphic"/></filter><mask id="mask-2" x="499.25" y="133.58" width="17.89" height="17.89" maskUnits="userSpaceOnUse"><g id="mask-for-MuiSvgIcon-root-719851"><rect class="cls-25" x="499.25" y="133.58" width="17.89" height="17.89"/></g></mask><mask id="mask-3" x="499.25" y="445.58" width="17.89" height="17.89" maskUnits="userSpaceOnUse"><g id="mask-for-MuiSvgIcon-root-719851-2"><rect class="cls-25" x="499.25" y="445.58" width="17.89" height="17.89"/></g></mask><mask id="mask-4" x="778.25" y="445.58" width="17.89" height="17.89" maskUnits="userSpaceOnUse"><g id="mask-for-MuiSvgIcon-root-719851-3"><rect class="cls-25" x="778.25" y="445.58" width="17.89" height="17.89"/></g></mask><mask id="mask-5" x="779.25" y="133.58" width="17.89" height="17.89" maskUnits="userSpaceOnUse"><g id="mask-for-MuiSvgIcon-root-719851-4"><rect class="cls-25" x="779.25" y="133.58" width="17.89" height="17.89"/></g></mask></defs><rect class="cls-18" width="863" height="91"/><rect class="cls-38" y="90" width="1043" height="644"/><g><rect x=".33" y=".5" width="66" height="767"/><path d="M65.83,1V767H.83V1H65.83m1-1H-.17V768H66.83V0h0Z"/></g><text class="cls-27" transform="translate(81.74 44.13)"><tspan x="0" y="0">Sca</tspan><tspan class="cls-29" x="36.92" y="0">f</tspan><tspan class="cls-78" x="44.82" y="0">f</tspan><tspan x="52.42" y="0">older</tspan></text><text class="cls-6" transform="translate(84.96 66.69)"><tspan x="0" y="0">C</tspan><tspan class="cls-95" x="9.71" y="0">r</tspan><tspan class="cls-76" x="15.44" y="0">eat</tspan><tspan class="cls-1" x="37.47" y="0">e n</tspan><tspan class="cls-105" x="58.6" y="0">e</tspan><tspan x="67.12" y="0">w </tspan><tspan class="cls-19" x="82.72" y="0">c</tspan><tspan x="90.12" y="0">omponen</tspan><tspan class="cls-95" x="159.1" y="0">t</tspan><tspan class="cls-106" x="164.68" y="0">s, </tspan><tspan class="cls-95" x="179.43" y="0">r</tspan><tspan x="185.16" y="0">eque</tspan><tspan class="cls-17" x="220.71" y="0">s</tspan><tspan x="227.49" y="0">t inf</tspan><tspan class="cls-54" x="255.08" y="0">r</tspan><tspan class="cls-1" x="260.57" y="0">a</tspan><tspan class="cls-17" x="269.14" y="0">s</tspan><tspan x="275.92" y="0">tru</tspan><tspan class="cls-95" x="296.82" y="0">c</tspan><tspan x="304.4" y="0">tu</tspan><tspan class="cls-95" x="319.39" y="0">r</tspan><tspan x="325.12" y="0">e, or per</tspan><tspan class="cls-94" x="383.46" y="0">f</tspan><tspan x="388.26" y="0">orm a</tspan><tspan class="cls-95" x="429.43" y="0">c</tspan><tspan class="cls-106" x="437.01" y="0">tions in </tspan><tspan class="cls-80" x="492.86" y="0">y</tspan><tspan x="500.73" y="0">our </tspan><tspan class="cls-95" x="528.49" y="0">r</tspan><tspan x="534.22" y="0">epos</tspan></text><g><path class="cls-35" d="M33.31,56.06v-1.07l11.93-6.87-3.06-1.77-8.86,5.1v-1.07l11.86-6.83-3.06-1.77-8.8,5.07v-1.07l11.97-6.89-11.97-6.89-11.91,6.89v13.78l11.91,6.89,11.97-6.89-3.04-1.76-8.92,5.14Z"/><g class="cls-21"><rect class="cls-35" x="17.72" y="25.66" width="26.7" height="37.66" transform="translate(-22.95 49.65) rotate(-60.54)"/></g></g><line class="cls-63" x1="1.93" y1="363.55" x2="1.93" y2="409.21"/><g id="root"><g id="jss33271"><g class="cls-30"><g id="jss47781"><g id="jss70441"><g id="MuiGrid-root-70851"><g id="MuiButtonBase-root-71971"><g id="MuiIconButton-label-71961"><g class="cls-103"><g id="MuiSvgIcon-root-71981"><g transform="matrix(1 0 0 1 1854 45.6563)"><path class="cls-25" d="M823.78,41.34c1.1,0,2-.9,2-2s-.9-2-2-2-2,.9-2,2,.9,2,2,2Zm0,2c-1.1,0-2,.9-2,2s.9,2,2,2,2-.9,2-2-.9-2-2-2Zm0,6c-1.1,0-2,.9-2,2s.9,2,2,2,2-.9,2-2-.9-2-2-2Z"/></g></g></g></g></g></g></g></g></g></g></g><g><rect class="cls-26" x="85.48" y="118.49" width="151.19" height="41.6" rx="7.06" ry="7.06"/><text class="cls-9" transform="translate(86.69 250.72)"><tspan class="cls-20" x="0" y="0">C</tspan><tspan class="cls-69" x="8.61" y="0">A</tspan><tspan class="cls-20" x="16.1" y="0">TEGORIES</tspan></text><text class="cls-8" transform="translate(118.38 280.74)"><tspan x="0" y="0">All</tspan></text><text class="cls-3" transform="translate(118.38 314.52)"><tspan class="cls-33" x="0" y="0">F</tspan><tspan class="cls-45" x="6.71" y="0">un</tspan><tspan x="22" y="0">c</tspan><tspan class="cls-48" x="28.28" y="0">tions</tspan></text><rect class="cls-36" x="91.73" y="269.26" width="14.39" height="14.39" rx="3.57" ry="3.57"/><rect class="cls-65" x="91.73" y="303.28" width="14.39" height="14.39" rx="3.57" ry="3.57"/><text class="cls-4" transform="translate(118.38 342.03)"><tspan x="0" y="0">Web</tspan></text><rect class="cls-65" x="91.73" y="330.8" width="14.39" height="14.39" rx="3.57" ry="3.57"/><text class="cls-8" transform="translate(118.38 369.55)"><tspan x="0" y="0">Security</tspan></text><rect class="cls-65" x="91.73" y="358.32" width="14.39" height="14.39" rx="3.57" ry="3.57"/><text class="cls-3" transform="translate(118.38 397.07)"><tspan class="cls-50" x="0" y="0">Inf</tspan><tspan class="cls-69" x="15.58" y="0">r</tspan><tspan class="cls-50" x="20.16" y="0">a</tspan><tspan class="cls-11" x="27.23" y="0">s</tspan><tspan class="cls-50" x="32.86" y="0">tru</tspan><tspan x="50.18" y="0">c</tspan><tspan class="cls-50" x="56.46" y="0">tu</tspan><tspan x="68.87" y="0">r</tspan><tspan class="cls-50" x="73.64" y="0">e</tspan></text><rect class="cls-65" x="91.73" y="385.84" width="14.39" height="14.39" rx="3.57" ry="3.57"/><text class="cls-3" transform="translate(118.38 425.07)"><tspan class="cls-50" x="0" y="0">Cho</tspan><tspan x="23.21" y="0">r</tspan><tspan class="cls-48" x="27.99" y="0">es</tspan></text><rect class="cls-65" x="91.73" y="413.84" width="14.39" height="14.39" rx="3.57" ry="3.57"/><g id="surface1"><path class="cls-41" d="M111.51,141.39c2.7-3.82,1.8-9.11-2.02-11.81-3.82-2.7-9.11-1.8-11.81,2.02-2.7,3.82-1.8,9.11,2.02,11.81,2.73,1.93,6.33,2.08,9.21,.38l6.25,6.21c.67,.71,1.8,.74,2.51,.06,.71-.67,.74-1.8,.06-2.51-.02-.02-.04-.04-.06-.06l-6.15-6.1Zm-6.92,.58c-3.02,0-5.47-2.44-5.47-5.46,0-3.02,2.44-5.47,5.46-5.47,3.01,0,5.46,2.44,5.47,5.45,0,3.02-2.44,5.47-5.46,5.47h0Z"/></g><line class="cls-66" x1="249.49" y1="113.5" x2="249.49" y2="470"/><rect class="cls-39" x="87.81" y="181.97" width="143.85" height="33.77" rx="5.77" ry="5.77"/><text class="cls-3" transform="translate(118.38 203.68)"><tspan class="cls-69" x="0" y="0">S</tspan><tspan class="cls-87" x="7.16" y="0">t</tspan><tspan class="cls-50" x="11.65" y="0">ar</tspan><tspan x="23.64" y="0">r</tspan><tspan class="cls-48" x="28.41" y="0">ed</tspan></text><path class="cls-64" d="M103.7,203.16l4.61,2.78-1.22-5.24,4.07-3.53-5.36-.45-2.09-4.94-2.09,4.94-5.36,.45,4.07,3.53-1.22,5.24,4.61-2.78Z" pointer-events="none"/></g><rect class="cls-25" x="283.34" y="120" width="250" height="281" rx="5.09" ry="5.09"/><text class="cls-15" transform="translate(303.97 144.42)"><tspan x="0" y="0">WEB</tspan></text><text class="cls-28" transform="translate(303.97 166.42)"><tspan class="cls-49" x="0" y="0">C</tspan><tspan x="8.88" y="0">r</tspan><tspan class="cls-73" x="14.85" y="0">e</tspan><tspan class="cls-81" x="22.6" y="0">at</tspan><tspan class="cls-49" x="36.01" y="0">e a </tspan><tspan class="cls-46" x="58.29" y="0">R</tspan><tspan class="cls-73" x="67.48" y="0">e</tspan><tspan class="cls-49" x="75.24" y="0">a</tspan><tspan x="83.29" y="0">c</tspan><tspan class="cls-57" x="90.3" y="0">t</tspan><tspan class="cls-60" x="96.13" y="0">/Node App</tspan></text><g id="MuiListItemIcon-root-73381"><g class="cls-100"><g id="MuiSvgIcon-root-71985"><g transform="matrix(0.833333 0 0 0.833333 272 312.141)"><path class="cls-64" d="M508.19,146.45l4.61,2.78-1.22-5.24,4.07-3.53-5.36-.45-2.09-4.94-2.09,4.94-5.36,.45,4.07,3.53-1.22,5.24,4.61-2.78Z" pointer-events="none"/></g></g></g></g><text class="cls-5" transform="translate(303.91 202.19)"><tspan class="cls-51" x="0" y="0">G</tspan><tspan x="7.52" y="0">e</tspan><tspan class="cls-51" x="13.48" y="0">t a p</tspan><tspan x="35.64" y="0">r</tspan><tspan class="cls-51" x="39.8" y="0">odu</tspan><tspan class="cls-59" x="59.86" y="0">c</tspan><tspan class="cls-68" x="65.33" y="0">tion-g</tspan><tspan class="cls-75" x="95.91" y="0">r</tspan><tspan class="cls-51" x="99.9" y="0">ade </tspan><tspan x="121.44" y="0">R</tspan><tspan class="cls-79" x="128.27" y="0">e</tspan><tspan class="cls-51" x="134.17" y="0">a</tspan><tspan x="140.34" y="0">c</tspan><tspan class="cls-53" x="145.81" y="0">t</tspan><tspan class="cls-51" x="150.11" y="0">/Node </tspan><tspan x="0" y="18">r</tspan><tspan class="cls-51" x="4.16" y="18">eposi</tspan><tspan class="cls-79" x="31.86" y="18">t</tspan><tspan class="cls-51" x="35.87" y="18">o</tspan><tspan class="cls-74" x="42.49" y="18">r</tspan><tspan class="cls-51" x="47.08" y="18">y with </tspan><tspan class="cls-59" x="80.47" y="18">R</tspan><tspan class="cls-79" x="87.3" y="18">o</tspan><tspan class="cls-51" x="93.76" y="18">adi</tspan><tspan x="109.78" y="18">e</tspan><tspan class="cls-10" x="115.73" y="18">’</tspan><tspan class="cls-51" x="118.25" y="18">s </tspan><tspan class="cls-12" x="125.92" y="18">s</tspan><tspan class="cls-89" x="130.83" y="18">t</tspan><tspan class="cls-51" x="134.75" y="18">anda</tspan><tspan x="160.55" y="18">r</tspan><tspan class="cls-51" x="164.71" y="18">d </tspan><tspan class="cls-51" x="0" y="36">p</tspan><tspan class="cls-75" x="6.78" y="36">r</tspan><tspan class="cls-51" x="10.78" y="36">a</tspan><tspan x="16.94" y="36">c</tspan><tspan class="cls-68" x="22.42" y="36">ti</tspan><tspan class="cls-89" x="29.66" y="36">c</tspan><tspan class="cls-51" x="35" y="36">es </tspan><tspan class="cls-72" x="48.74" y="36">b</tspan><tspan class="cls-68" x="55.33" y="36">a</tspan><tspan class="cls-92" x="61.5" y="36">k</tspan><tspan class="cls-51" x="67.34" y="36">ed in.</tspan><tspan class="cls-51" x="0" y="60">B</tspan><tspan class="cls-79" x="7.18" y="60">a</tspan><tspan class="cls-12" x="13.18" y="60">t</tspan><tspan class="cls-72" x="17.11" y="60">t</tspan><tspan class="cls-104" x="21.12" y="60">eries included: CI</tspan><tspan class="cls-59" x="108.97" y="60">/</tspan><tspan class="cls-51" x="113.17" y="60">CD, </tspan><tspan class="cls-79" x="133.27" y="60">t</tspan><tspan class="cls-51" x="137.28" y="60">e</tspan><tspan class="cls-13" x="143.35" y="60">s</tspan><tspan class="cls-51" x="148.26" y="60">t harness, </tspan><tspan class="cls-51" x="0" y="78">analytics, and lo</tspan><tspan x="83.5" y="78">c</tspan><tspan class="cls-51" x="88.97" y="78">al and p</tspan><tspan x="129.77" y="78">r</tspan><tspan class="cls-51" x="133.93" y="78">od envs. </tspan></text><text class="cls-7" transform="translate(303.91 320.19)"><tspan class="cls-51" x="0" y="0">#</tspan><tspan x="6.08" y="0">r</tspan><tspan class="cls-79" x="10.25" y="0">e</tspan><tspan class="cls-51" x="16.15" y="0">a</tspan><tspan class="cls-61" x="22.32" y="0">c</tspan><tspan class="cls-51" x="27.79" y="0">t #node #full</tspan><tspan class="cls-96" x="91.97" y="0">s</tspan><tspan class="cls-89" x="96.88" y="0">t</tspan><tspan class="cls-68" x="100.8" y="0">ack </tspan></text><g><rect class="cls-42" x="369.49" y="357.72" width="77.71" height="24.53" rx="6.36" ry="6.36"/><rect class="cls-43" x="369.49" y="357.72" width="77.71" height="24.53" rx="2.43" ry="2.43"/><text class="cls-24" transform="translate(385.67 374.81)"><tspan class="cls-37" x="0" y="0">Cho</tspan><tspan class="cls-16" x="24" y="0">o</tspan><tspan class="cls-37" x="31.72" y="0">se</tspan></text></g><rect class="cls-25" x="283.34" y="432" width="250" height="281" rx="5.09" ry="5.09"/><text class="cls-34" transform="translate(303.97 456.42)"><tspan class="cls-23" x="0" y="0">INF</tspan><tspan class="cls-22" x="17.58" y="0">R</tspan><tspan class="cls-14" x="24.57" y="0">A</tspan><tspan class="cls-83" x="31.26" y="0">S</tspan><tspan class="cls-14" x="37.59" y="0">TRU</tspan><tspan class="cls-67" x="58.96" y="0">C</tspan><tspan class="cls-14" x="65.68" y="0">TURE</tspan></text><g><path class="cls-44" d="M303.88,478.42l3.06-9.78h2.66l3.06,9.78h-2.34l-.6-2.33h-2.99l-.6,2.33h-2.25Zm3.54-4.95l-.24,.9h2.08l-.22-.9c-.13-.49-.26-1.01-.4-1.56-.14-.55-.27-1.08-.4-1.59h-.06c-.12,.52-.24,1.05-.37,1.6s-.26,1.06-.4,1.55Z"/><path class="cls-44" d="M316.35,478.6c-.92,0-1.66-.35-2.21-1.04-.56-.7-.83-1.65-.83-2.86,0-.81,.15-1.51,.44-2.09,.29-.59,.68-1.03,1.16-1.34,.47-.31,.97-.47,1.49-.47,.41,0,.75,.07,1.04,.21,.28,.14,.54,.33,.79,.57l-.09-1.14v-2.54h2.21v10.52h-1.8l-.15-.74h-.06c-.26,.26-.57,.48-.92,.65-.35,.17-.71,.26-1.07,.26Zm.57-1.8c.24,0,.46-.05,.65-.15,.2-.1,.38-.27,.56-.52v-3.04c-.19-.18-.39-.31-.61-.38-.21-.07-.42-.11-.62-.11-.35,0-.66,.17-.93,.5-.27,.34-.41,.86-.41,1.57s.12,1.27,.35,1.61c.24,.35,.57,.52,1,.52Z"/><path class="cls-44" d="M325.09,478.6c-.92,0-1.66-.35-2.21-1.04-.56-.7-.83-1.65-.83-2.86,0-.81,.15-1.51,.44-2.09,.29-.59,.68-1.03,1.16-1.34,.47-.31,.97-.47,1.49-.47,.41,0,.75,.07,1.04,.21,.28,.14,.54,.33,.79,.57l-.09-1.14v-2.54h2.21v10.52h-1.8l-.15-.74h-.06c-.26,.26-.57,.48-.92,.65-.35,.17-.71,.26-1.07,.26Zm.57-1.8c.24,0,.46-.05,.65-.15,.2-.1,.38-.27,.56-.52v-3.04c-.19-.18-.39-.31-.61-.38-.21-.07-.42-.11-.62-.11-.35,0-.66,.17-.93,.5-.27,.34-.41,.86-.41,1.57s.12,1.27,.35,1.61c.24,.35,.57,.52,1,.52Z"/><path class="cls-44" d="M338.49,478.6c-.88,0-1.65-.21-2.32-.62s-1.18-1-1.56-1.76c-.38-.77-.56-1.68-.56-2.74s.19-1.98,.56-2.72c.38-.74,.89-1.31,1.56-1.71,.67-.39,1.44-.59,2.32-.59s1.65,.2,2.32,.59c.67,.4,1.19,.97,1.56,1.72s.56,1.66,.56,2.71-.19,1.97-.56,2.74c-.38,.76-.9,1.35-1.56,1.76s-1.44,.62-2.32,.62Zm0-1.91c.67,0,1.2-.29,1.59-.87,.39-.58,.58-1.36,.58-2.34s-.19-1.74-.58-2.29c-.39-.55-.92-.83-1.59-.83s-1.2,.28-1.59,.83c-.39,.55-.58,1.31-.58,2.29s.2,1.76,.58,2.34,.92,.87,1.59,.87Z"/><path class="cls-44" d="M344.74,481.18v-10.2h1.8l.15,.74h.06c.29-.26,.62-.48,.98-.65,.36-.18,.74-.26,1.13-.26,.9,0,1.61,.34,2.13,1.03,.52,.68,.78,1.6,.78,2.75,0,.85-.15,1.57-.45,2.17-.3,.6-.69,1.06-1.16,1.37s-.98,.47-1.52,.47c-.32,0-.63-.07-.93-.2-.3-.13-.58-.33-.84-.58l.07,1.18v2.18h-2.21Zm3.39-4.38c.38,0,.71-.17,.97-.52,.27-.35,.41-.91,.41-1.67,0-1.34-.43-2.01-1.29-2.01-.43,0-.86,.22-1.28,.67v3.04c.2,.18,.4,.31,.6,.38,.2,.07,.39,.1,.58,.1Z"/><path class="cls-44" d="M356.82,478.6c-.71,0-1.35-.16-1.92-.46-.57-.31-1.02-.76-1.35-1.34-.33-.58-.5-1.28-.5-2.1s.17-1.5,.5-2.08c.33-.58,.77-1.03,1.31-1.34,.54-.31,1.1-.47,1.69-.47,.71,0,1.3,.16,1.76,.47,.46,.32,.81,.74,1.05,1.28s.35,1.14,.35,1.82c0,.19,0,.38-.03,.56-.02,.19-.04,.32-.06,.41h-4.46c.1,.54,.33,.94,.67,1.19,.35,.25,.77,.38,1.26,.38,.53,0,1.06-.17,1.6-.5l.74,1.34c-.38,.26-.81,.46-1.28,.62-.47,.15-.92,.22-1.37,.22Zm-1.65-4.71h2.68c0-.41-.1-.75-.29-1.01-.2-.26-.51-.4-.95-.4-.34,0-.64,.12-.92,.35-.27,.23-.44,.59-.52,1.06Z"/><path class="cls-44" d="M361.41,478.42v-7.44h1.8l.15,.94h.06c.32-.3,.67-.56,1.06-.79,.38-.22,.83-.34,1.33-.34,.81,0,1.4,.27,1.76,.8,.36,.54,.55,1.27,.55,2.2v4.62h-2.21v-4.34c0-.54-.07-.91-.22-1.11-.15-.2-.38-.3-.7-.3-.28,0-.52,.06-.72,.19-.2,.13-.42,.3-.66,.53v5.03h-2.21Z"/><path class="cls-44" d="M371.8,478.42v-7.92h-2.68v-1.86h7.59v1.86h-2.68v7.92h-2.22Z"/><path class="cls-44" d="M380.4,478.6c-.71,0-1.35-.16-1.92-.46-.57-.31-1.02-.76-1.35-1.34-.33-.58-.5-1.28-.5-2.1s.17-1.5,.5-2.08c.33-.58,.77-1.03,1.31-1.34,.54-.31,1.1-.47,1.69-.47,.71,0,1.3,.16,1.76,.47,.46,.32,.81,.74,1.05,1.28s.35,1.14,.35,1.82c0,.19,0,.38-.03,.56-.02,.19-.04,.32-.06,.41h-4.46c.1,.54,.33,.94,.67,1.19,.35,.25,.77,.38,1.26,.38,.53,0,1.06-.17,1.6-.5l.74,1.34c-.38,.26-.81,.46-1.28,.62-.47,.15-.92,.22-1.37,.22Zm-1.65-4.71h2.68c0-.41-.1-.75-.29-1.01-.2-.26-.51-.4-.95-.4-.34,0-.64,.12-.92,.35-.27,.23-.44,.59-.52,1.06Z"/><path class="cls-44" d="M387.01,478.6c-.76,0-1.29-.23-1.58-.68-.3-.46-.44-1.06-.44-1.81v-8.21h2.21v8.29c0,.23,.04,.39,.13,.48s.17,.13,.26,.13c.05,0,.09,0,.13,0,.04,0,.08-.01,.14-.02l.27,1.63c-.12,.05-.27,.09-.46,.13-.18,.04-.4,.05-.65,.05Z"/><path class="cls-44" d="M392.76,478.6c-.71,0-1.35-.16-1.92-.46-.57-.31-1.02-.76-1.35-1.34-.33-.58-.5-1.28-.5-2.1s.17-1.5,.5-2.08c.33-.58,.77-1.03,1.31-1.34,.54-.31,1.1-.47,1.69-.47,.71,0,1.3,.16,1.76,.47,.46,.32,.81,.74,1.05,1.28s.35,1.14,.35,1.82c0,.19,0,.38-.03,.56-.02,.19-.04,.32-.06,.41h-4.46c.1,.54,.33,.94,.67,1.19,.35,.25,.77,.38,1.26,.38,.53,0,1.06-.17,1.6-.5l.74,1.34c-.38,.26-.81,.46-1.28,.62-.47,.15-.92,.22-1.37,.22Zm-1.65-4.71h2.68c0-.41-.1-.75-.29-1.01-.2-.26-.51-.4-.95-.4-.34,0-.64,.12-.92,.35-.27,.23-.44,.59-.52,1.06Z"/><path class="cls-44" d="M397.35,478.42v-7.44h1.8l.15,.96h.06c.31-.31,.64-.58,.99-.8,.35-.22,.77-.34,1.26-.34,.53,0,.96,.11,1.28,.32s.58,.52,.77,.92c.33-.34,.68-.63,1.05-.88s.8-.37,1.29-.37c.8,0,1.39,.27,1.76,.8s.56,1.27,.56,2.2v4.62h-2.21v-4.34c0-.54-.07-.91-.22-1.11-.14-.2-.38-.3-.7-.3-.37,0-.79,.24-1.28,.72v5.03h-2.2v-4.34c0-.54-.07-.91-.22-1.11-.15-.2-.38-.3-.7-.3-.37,0-.79,.24-1.26,.72v5.03h-2.21Z"/><path class="cls-44" d="M413.68,478.6c-.71,0-1.35-.16-1.92-.46-.57-.31-1.02-.76-1.35-1.34-.33-.58-.5-1.28-.5-2.1s.17-1.5,.5-2.08c.33-.58,.77-1.03,1.31-1.34,.54-.31,1.1-.47,1.69-.47,.71,0,1.3,.16,1.76,.47,.46,.32,.81,.74,1.05,1.28s.35,1.14,.35,1.82c0,.19,0,.38-.03,.56-.02,.19-.04,.32-.06,.41h-4.46c.1,.54,.33,.94,.67,1.19,.35,.25,.77,.38,1.26,.38,.53,0,1.06-.17,1.6-.5l.74,1.34c-.38,.26-.81,.46-1.28,.62-.47,.15-.92,.22-1.37,.22Zm-1.65-4.71h2.68c0-.41-.1-.75-.29-1.01-.2-.26-.51-.4-.95-.4-.34,0-.64,.12-.92,.35-.27,.23-.44,.59-.52,1.06Z"/><path class="cls-44" d="M420.99,478.6c-.92,0-1.58-.27-1.97-.79-.39-.53-.59-1.22-.59-2.09v-3.01h-1.02v-1.64l1.14-.09,.26-1.98h1.83v1.98h1.78v1.73h-1.78v2.98c0,.42,.09,.72,.26,.91,.17,.18,.41,.28,.7,.28,.12,0,.24-.02,.37-.04,.12-.03,.24-.07,.34-.11l.35,1.61c-.19,.06-.42,.12-.7,.18-.28,.06-.59,.09-.95,.09Z"/><path class="cls-44" d="M424.02,478.42v-7.44h1.8l.15,1.31h.06c.27-.5,.59-.87,.97-1.12s.76-.37,1.14-.37c.21,0,.38,.01,.53,.04,.14,.02,.26,.06,.36,.11l-.36,1.91c-.13-.04-.26-.07-.38-.09s-.27-.03-.43-.03c-.28,0-.57,.1-.88,.31s-.56,.56-.76,1.06v4.32h-2.21Z"/><path class="cls-44" d="M431.07,481.33c-.22,0-.41-.02-.58-.04-.17-.03-.32-.07-.47-.11l.39-1.68c.07,0,.15,.03,.24,.05s.17,.04,.25,.04c.37,0,.66-.09,.86-.27,.2-.18,.35-.42,.45-.71l.1-.39-2.87-7.25h2.22l1.06,3.19c.11,.34,.21,.69,.3,1.04,.09,.35,.19,.71,.29,1.08h.06c.08-.35,.16-.7,.25-1.06,.08-.36,.17-.71,.26-1.06l.9-3.19h2.12l-2.58,7.51c-.23,.62-.48,1.14-.76,1.57-.28,.42-.62,.74-1.01,.95-.39,.21-.89,.32-1.48,.32Z"/><path class="cls-44" d="M444.22,478.6c-.92,0-1.58-.27-1.97-.79-.39-.53-.59-1.22-.59-2.09v-3.01h-1.02v-1.64l1.14-.09,.26-1.98h1.83v1.98h1.78v1.73h-1.78v2.98c0,.42,.09,.72,.26,.91,.17,.18,.41,.28,.7,.28,.12,0,.24-.02,.37-.04,.12-.03,.24-.07,.34-.11l.35,1.61c-.19,.06-.42,.12-.7,.18-.28,.06-.59,.09-.95,.09Z"/><path class="cls-44" d="M450.18,478.6c-.63,0-1.22-.15-1.78-.46-.55-.31-1-.75-1.34-1.34-.34-.58-.51-1.29-.51-2.11s.17-1.54,.51-2.12,.79-1.02,1.34-1.33c.55-.3,1.15-.46,1.78-.46s1.22,.15,1.77,.46c.55,.31,.99,.75,1.33,1.33,.34,.58,.51,1.29,.51,2.12s-.17,1.52-.51,2.11c-.34,.59-.79,1.03-1.33,1.34-.55,.3-1.14,.46-1.77,.46Zm0-1.79c.45,0,.79-.19,1.02-.58,.23-.38,.34-.9,.34-1.54s-.12-1.16-.34-1.54c-.23-.38-.57-.57-1.02-.57s-.8,.19-1.03,.57c-.22,.38-.34,.89-.34,1.54s.11,1.15,.34,1.54c.22,.39,.57,.58,1.03,.58Z"/><path class="cls-44" d="M459.43,481.33c-.22,0-.41-.02-.58-.04-.17-.03-.32-.07-.47-.11l.39-1.68c.07,0,.15,.03,.24,.05s.17,.04,.25,.04c.37,0,.66-.09,.86-.27,.2-.18,.35-.42,.45-.71l.1-.39-2.87-7.25h2.22l1.06,3.19c.11,.34,.21,.69,.3,1.04,.09,.35,.19,.71,.29,1.08h.06c.08-.35,.16-.7,.25-1.06,.08-.36,.17-.71,.26-1.06l.9-3.19h2.12l-2.58,7.51c-.23,.62-.48,1.14-.76,1.57-.28,.42-.62,.74-1.01,.95-.39,.21-.89,.32-1.48,.32Z"/><path class="cls-44" d="M469.65,478.6c-.63,0-1.22-.15-1.78-.46-.55-.31-1-.75-1.34-1.34-.34-.58-.51-1.29-.51-2.11s.17-1.54,.51-2.12,.79-1.02,1.34-1.33c.55-.3,1.15-.46,1.78-.46s1.22,.15,1.77,.46c.55,.31,.99,.75,1.33,1.33,.34,.58,.51,1.29,.51,2.12s-.17,1.52-.51,2.11c-.34,.59-.79,1.03-1.33,1.34-.55,.3-1.14,.46-1.77,.46Zm0-1.79c.45,0,.79-.19,1.02-.58,.23-.38,.34-.9,.34-1.54s-.12-1.16-.34-1.54c-.23-.38-.57-.57-1.02-.57s-.8,.19-1.03,.57c-.22,.38-.34,.89-.34,1.54s.11,1.15,.34,1.54c.22,.39,.57,.58,1.03,.58Z"/><path class="cls-44" d="M477.16,478.6c-.81,0-1.4-.27-1.76-.8s-.55-1.27-.55-2.2v-4.62h2.21v4.33c0,.53,.07,.9,.22,1.1s.38,.31,.71,.31c.28,0,.51-.06,.71-.2,.19-.13,.39-.34,.62-.63v-4.92h2.2v7.44h-1.8l-.17-1.04h-.04c-.31,.37-.65,.67-1.02,.88-.37,.22-.81,.33-1.32,.33Z"/><path class="cls-44" d="M483.59,478.42v-7.44h1.8l.15,1.31h.06c.27-.5,.59-.87,.97-1.12s.76-.37,1.14-.37c.21,0,.38,.01,.53,.04,.14,.02,.26,.06,.36,.11l-.36,1.91c-.13-.04-.26-.07-.38-.09s-.27-.03-.43-.03c-.28,0-.57,.1-.88,.31s-.56,.56-.76,1.06v4.32h-2.21Z"/><path class="cls-44" d="M308.11,501.6c-.64,0-1.28-.12-1.91-.36-.63-.24-1.2-.59-1.7-1.05l1.26-1.52c.35,.3,.74,.55,1.17,.74,.43,.19,.84,.28,1.25,.28,.46,0,.8-.08,1.03-.25s.34-.4,.34-.69c0-.31-.13-.54-.38-.68-.25-.14-.6-.31-1.03-.49l-1.28-.54c-.33-.14-.64-.33-.95-.56-.3-.23-.54-.53-.73-.88-.19-.35-.29-.76-.29-1.23,0-.54,.15-1.03,.44-1.47s.71-.79,1.23-1.05c.52-.26,1.13-.39,1.81-.39,.56,0,1.12,.11,1.68,.33,.56,.22,1.05,.54,1.47,.96l-1.12,1.39c-.32-.25-.64-.44-.96-.58-.32-.13-.67-.2-1.07-.2s-.68,.08-.91,.23c-.22,.15-.34,.37-.34,.65,0,.3,.14,.52,.43,.67,.29,.15,.64,.31,1.06,.48l1.26,.51c.59,.24,1.06,.57,1.41,.99,.35,.42,.53,.97,.53,1.67,0,.54-.15,1.04-.44,1.5s-.71,.83-1.26,1.11c-.55,.28-1.21,.42-2,.42Z"/><path class="cls-44" d="M313.44,504.18v-10.2h1.8l.15,.74h.06c.29-.26,.62-.48,.98-.65,.36-.18,.74-.26,1.13-.26,.9,0,1.61,.34,2.13,1.03,.52,.68,.78,1.6,.78,2.75,0,.85-.15,1.57-.45,2.17-.3,.6-.69,1.06-1.16,1.37s-.98,.47-1.52,.47c-.32,0-.63-.07-.93-.2-.3-.13-.58-.33-.84-.58l.07,1.18v2.18h-2.21Zm3.39-4.38c.38,0,.71-.17,.97-.52,.27-.35,.41-.91,.41-1.67,0-1.34-.43-2.01-1.29-2.01-.43,0-.86,.22-1.28,.67v3.04c.2,.18,.4,.31,.6,.38,.2,.07,.39,.1,.58,.1Z"/><path class="cls-44" d="M322.18,501.42v-7.44h1.8l.15,1.31h.06c.27-.5,.59-.87,.97-1.12s.76-.37,1.14-.37c.21,0,.38,.01,.53,.04,.14,.02,.26,.06,.36,.11l-.36,1.91c-.13-.04-.26-.07-.38-.09s-.27-.03-.43-.03c-.28,0-.57,.1-.88,.31s-.56,.56-.76,1.06v4.32h-2.21Z"/><path class="cls-44" d="M329.4,492.89c-.37,0-.67-.11-.9-.32s-.34-.49-.34-.84,.11-.63,.34-.84,.53-.32,.9-.32,.67,.11,.9,.32c.23,.21,.35,.49,.35,.84s-.12,.63-.35,.84c-.23,.21-.53,.32-.9,.32Zm-1.1,8.54v-7.44h2.21v7.44h-2.21Z"/><path class="cls-44" d="M332.59,501.42v-7.44h1.8l.15,.94h.06c.32-.3,.67-.56,1.06-.79,.38-.22,.83-.34,1.33-.34,.81,0,1.4,.27,1.76,.8,.36,.54,.55,1.27,.55,2.2v4.62h-2.21v-4.34c0-.54-.07-.91-.22-1.11-.15-.2-.38-.3-.7-.3-.28,0-.52,.06-.72,.19-.2,.13-.42,.3-.66,.53v5.03h-2.21Z"/><path class="cls-44" d="M343.98,504.59c-.58,0-1.1-.06-1.58-.19-.47-.13-.84-.33-1.12-.62-.28-.28-.42-.64-.42-1.08,0-.6,.36-1.1,1.07-1.5v-.06c-.19-.13-.35-.29-.49-.5-.14-.2-.2-.46-.2-.76,0-.27,.08-.53,.24-.78,.16-.25,.36-.45,.6-.61v-.06c-.26-.18-.49-.44-.7-.78s-.31-.73-.31-1.16c0-.6,.15-1.1,.44-1.49s.67-.69,1.14-.89,.97-.3,1.5-.3c.44,0,.83,.06,1.16,.18h2.71v1.6h-1.18c.07,.11,.13,.25,.17,.42,.04,.17,.07,.36,.07,.56,0,.57-.13,1.04-.39,1.41-.26,.37-.61,.65-1.05,.83-.44,.18-.94,.27-1.49,.27-.29,0-.59-.05-.9-.15-.18,.15-.27,.34-.27,.55,0,.19,.08,.33,.25,.42,.17,.09,.46,.13,.87,.13h1.2c.92,0,1.62,.15,2.11,.44,.48,.29,.73,.78,.73,1.45,0,.51-.17,.97-.51,1.37-.34,.4-.82,.72-1.44,.95s-1.36,.34-2.21,.34Zm.34-1.38c.5,0,.91-.09,1.23-.27,.32-.18,.48-.4,.48-.65,0-.23-.1-.38-.29-.46s-.48-.12-.85-.12h-.76c-.25,0-.46,0-.62-.02-.17-.01-.31-.04-.43-.07-.27,.24-.41,.49-.41,.74,0,.28,.15,.49,.46,.64,.31,.15,.7,.22,1.19,.22Zm-.18-5.48c.29,0,.53-.1,.73-.32,.2-.21,.29-.52,.29-.93s-.1-.69-.29-.89-.44-.31-.73-.31-.53,.1-.73,.3c-.2,.2-.29,.5-.29,.9s.1,.72,.29,.93c.2,.21,.44,.32,.73,.32Z"/><path class="cls-44" d="M354.51,501.6c-.68,0-1.22-.22-1.62-.65-.4-.44-.6-.97-.6-1.6,0-.78,.33-1.39,.99-1.83s1.72-.73,3.2-.88c-.02-.33-.12-.59-.29-.79-.17-.2-.47-.29-.88-.29-.31,0-.62,.06-.94,.18-.32,.12-.66,.29-1.02,.5l-.79-1.46c.47-.29,.97-.52,1.51-.71,.54-.18,1.09-.27,1.67-.27,.95,0,1.68,.28,2.19,.83,.51,.55,.76,1.39,.76,2.54v4.26h-1.8l-.15-.77h-.06c-.31,.28-.64,.51-1,.68-.36,.17-.74,.26-1.16,.26Zm.75-1.71c.25,0,.47-.06,.65-.17,.18-.12,.37-.27,.56-.46v-1.3c-.78,.1-1.32,.26-1.62,.47-.3,.22-.45,.47-.45,.76,0,.24,.08,.42,.23,.53s.36,.17,.62,.17Z"/><path class="cls-44" d="M360.69,504.18v-10.2h1.8l.15,.74h.06c.29-.26,.62-.48,.98-.65,.36-.18,.74-.26,1.13-.26,.9,0,1.61,.34,2.13,1.03,.52,.68,.78,1.6,.78,2.75,0,.85-.15,1.57-.45,2.17-.3,.6-.69,1.06-1.16,1.37s-.98,.47-1.52,.47c-.32,0-.63-.07-.93-.2-.3-.13-.58-.33-.84-.58l.07,1.18v2.18h-2.21Zm3.39-4.38c.38,0,.71-.17,.97-.52,.27-.35,.41-.91,.41-1.67,0-1.34-.43-2.01-1.29-2.01-.43,0-.86,.22-1.28,.67v3.04c.2,.18,.4,.31,.6,.38,.2,.07,.39,.1,.58,.1Z"/><path class="cls-44" d="M369.43,504.18v-10.2h1.8l.15,.74h.06c.29-.26,.62-.48,.98-.65,.36-.18,.74-.26,1.13-.26,.9,0,1.61,.34,2.13,1.03,.52,.68,.78,1.6,.78,2.75,0,.85-.15,1.57-.45,2.17-.3,.6-.69,1.06-1.16,1.37s-.98,.47-1.52,.47c-.32,0-.63-.07-.93-.2-.3-.13-.58-.33-.84-.58l.07,1.18v2.18h-2.21Zm3.39-4.38c.38,0,.71-.17,.97-.52,.27-.35,.41-.91,.41-1.67,0-1.34-.43-2.01-1.29-2.01-.43,0-.86,.22-1.28,.67v3.04c.2,.18,.4,.31,.6,.38,.2,.07,.39,.1,.58,.1Z"/><path class="cls-44" d="M380.2,501.6c-.76,0-1.29-.23-1.58-.68-.3-.46-.44-1.06-.44-1.81v-8.21h2.21v8.29c0,.23,.04,.39,.13,.48s.17,.13,.26,.13c.05,0,.09,0,.13,0,.04,0,.08-.01,.14-.02l.27,1.63c-.12,.05-.27,.09-.46,.13-.18,.04-.4,.05-.65,.05Z"/><path class="cls-44" d="M383.71,492.89c-.37,0-.67-.11-.9-.32s-.34-.49-.34-.84,.11-.63,.34-.84,.53-.32,.9-.32,.67,.11,.9,.32c.23,.21,.35,.49,.35,.84s-.12,.63-.35,.84c-.23,.21-.53,.32-.9,.32Zm-1.1,8.54v-7.44h2.21v7.44h-2.21Z"/><path class="cls-44" d="M390.15,501.6c-.69,0-1.31-.15-1.87-.46-.55-.31-1-.75-1.32-1.34-.33-.58-.49-1.29-.49-2.11s.18-1.54,.54-2.12,.83-1.02,1.42-1.33c.59-.3,1.22-.46,1.91-.46,.46,0,.87,.08,1.22,.23,.35,.15,.67,.34,.95,.57l-1.04,1.43c-.35-.29-.68-.44-1-.44-.53,0-.95,.19-1.27,.57-.31,.38-.47,.89-.47,1.54s.16,1.15,.47,1.54c.32,.39,.71,.58,1.19,.58,.24,0,.48-.05,.71-.16,.23-.1,.44-.23,.63-.38l.87,1.44c-.37,.32-.77,.55-1.2,.68-.43,.13-.85,.2-1.26,.2Z"/><path class="cls-44" d="M395.79,501.6c-.68,0-1.22-.22-1.62-.65-.4-.44-.6-.97-.6-1.6,0-.78,.33-1.39,.99-1.83s1.72-.73,3.2-.88c-.02-.33-.12-.59-.29-.79-.17-.2-.47-.29-.88-.29-.31,0-.62,.06-.94,.18-.32,.12-.66,.29-1.02,.5l-.79-1.46c.47-.29,.97-.52,1.51-.71,.54-.18,1.09-.27,1.67-.27,.95,0,1.68,.28,2.19,.83,.51,.55,.76,1.39,.76,2.54v4.26h-1.8l-.15-.77h-.06c-.31,.28-.64,.51-1,.68-.36,.17-.74,.26-1.16,.26Zm.75-1.71c.25,0,.47-.06,.65-.17,.18-.12,.37-.27,.56-.46v-1.3c-.78,.1-1.32,.26-1.62,.47-.3,.22-.45,.47-.45,.76,0,.24,.08,.42,.23,.53s.36,.17,.62,.17Z"/><path class="cls-44" d="M404.56,501.6c-.92,0-1.58-.27-1.97-.79-.39-.53-.59-1.22-.59-2.09v-3.01h-1.02v-1.64l1.14-.09,.26-1.98h1.83v1.98h1.78v1.73h-1.78v2.98c0,.42,.09,.72,.26,.91,.17,.18,.41,.28,.7,.28,.12,0,.24-.02,.37-.04,.12-.03,.24-.07,.34-.11l.35,1.61c-.19,.06-.42,.12-.7,.18-.28,.06-.59,.09-.95,.09Z"/><path class="cls-44" d="M408.69,492.89c-.37,0-.67-.11-.9-.32s-.34-.49-.34-.84,.11-.63,.34-.84,.53-.32,.9-.32,.67,.11,.9,.32c.23,.21,.35,.49,.35,.84s-.12,.63-.35,.84c-.23,.21-.53,.32-.9,.32Zm-1.1,8.54v-7.44h2.21v7.44h-2.21Z"/><path class="cls-44" d="M415.08,501.6c-.63,0-1.22-.15-1.78-.46-.55-.31-1-.75-1.34-1.34-.34-.58-.51-1.29-.51-2.11s.17-1.54,.51-2.12,.79-1.02,1.34-1.33c.55-.3,1.15-.46,1.78-.46s1.22,.15,1.77,.46c.55,.31,.99,.75,1.33,1.33,.34,.58,.51,1.29,.51,2.12s-.17,1.52-.51,2.11c-.34,.59-.79,1.03-1.33,1.34-.55,.3-1.14,.46-1.77,.46Zm0-1.79c.45,0,.79-.19,1.02-.58,.23-.38,.34-.9,.34-1.54s-.12-1.16-.34-1.54c-.23-.38-.57-.57-1.02-.57s-.8,.19-1.03,.57c-.22,.38-.34,.89-.34,1.54s.11,1.15,.34,1.54c.22,.39,.57,.58,1.03,.58Z"/><path class="cls-44" d="M420.35,501.42v-7.44h1.8l.15,.94h.06c.32-.3,.67-.56,1.06-.79,.38-.22,.83-.34,1.33-.34,.81,0,1.4,.27,1.76,.8,.36,.54,.55,1.27,.55,2.2v4.62h-2.21v-4.34c0-.54-.07-.91-.22-1.11-.15-.2-.38-.3-.7-.3-.28,0-.52,.06-.72,.19-.2,.13-.42,.3-.66,.53v5.03h-2.21Z"/></g><g id="MuiListItemIcon-root-73381-2"><g class="cls-99"><g id="MuiSvgIcon-root-71985-2"><g transform="matrix(0.833333 0 0 0.833333 272 312.141)"><path class="cls-64" d="M508.19,458.45l4.61,2.78-1.22-5.24,4.07-3.53-5.36-.45-2.09-4.94-2.09,4.94-5.36,.45,4.07,3.53-1.22,5.24,4.61-2.78Z" pointer-events="none"/></g></g></g></g><text class="cls-5" transform="translate(303.91 528.54)"><tspan class="cls-51" x="0" y="0">Help </tspan><tspan x="26.5" y="0">R</tspan><tspan class="cls-79" x="33.32" y="0">o</tspan><tspan class="cls-51" x="39.78" y="0">adie imp</tspan><tspan x="84.31" y="0">r</tspan><tspan class="cls-58" x="88.48" y="0">ov</tspan><tspan class="cls-51" x="100.73" y="0">e the </tspan><tspan x="128.74" y="0">r</tspan><tspan class="cls-51" x="132.9" y="0">obu</tspan><tspan class="cls-96" x="152.93" y="0">s</tspan><tspan class="cls-68" x="157.84" y="0">tnes of </tspan><tspan class="cls-51" x="0" y="18">our se</tspan><tspan class="cls-74" x="31.3" y="18">r</tspan><tspan class="cls-51" x="35.88" y="18">vi</tspan><tspan class="cls-89" x="44.68" y="18">c</tspan><tspan class="cls-51" x="50.02" y="18">es </tspan><tspan class="cls-58" x="63.76" y="18">b</tspan><tspan class="cls-51" x="70.46" y="18">y adding Ope</tspan><tspan class="cls-75" x="137.82" y="18">n</tspan><tspan class="cls-77" x="144.22" y="18">T</tspan><tspan class="cls-51" x="149.98" y="18">elem</tspan><tspan x="175.37" y="18">e</tspan><tspan class="cls-52" x="181.32" y="18">t</tspan><tspan class="cls-74" x="185.5" y="18">r</tspan><tspan class="cls-51" x="190.08" y="18">y </tspan><tspan class="cls-79" x="0" y="36">t</tspan><tspan class="cls-51" x="4.01" y="36">o </tspan><tspan class="cls-58" x="13.15" y="36">y</tspan><tspan class="cls-68" x="18.83" y="36">our se</tspan><tspan class="cls-74" x="50.12" y="36">r</tspan><tspan class="cls-51" x="54.71" y="36">vi</tspan><tspan class="cls-89" x="63.5" y="36">c</tspan><tspan class="cls-51" x="68.84" y="36">e.</tspan><tspan class="cls-51" x="0" y="60">This </tspan><tspan class="cls-79" x="23.94" y="60">t</tspan><tspan class="cls-51" x="27.95" y="60">empl</tspan><tspan class="cls-79" x="54.05" y="60">at</tspan><tspan class="cls-68" x="64.06" y="60">e will open a PR a</tspan><tspan class="cls-32" x="153.25" y="60">g</tspan><tspan class="cls-51" x="159.23" y="60">ain</tspan><tspan class="cls-12" x="175.16" y="60">s</tspan><tspan class="cls-51" x="180.06" y="60">t </tspan><tspan class="cls-58" x="0" y="78">y</tspan><tspan class="cls-51" x="5.68" y="78">our </tspan><tspan x="25.75" y="78">r</tspan><tspan class="cls-51" x="29.92" y="78">epo with Ope</tspan><tspan class="cls-75" x="98.01" y="78">n</tspan><tspan class="cls-77" x="104.4" y="78">T</tspan><tspan class="cls-68" x="110.16" y="78">elem</tspan><tspan class="cls-59" x="135.55" y="78">e</tspan><tspan class="cls-51" x="141.51" y="78">t</tspan><tspan class="cls-74" x="145.68" y="78">r</tspan><tspan class="cls-51" x="150.27" y="78">y </tspan><tspan class="cls-98" x="158.51" y="78">t</tspan><tspan class="cls-51" x="162.52" y="78">ooling.</tspan></text><text class="cls-7" transform="translate(303.91 632.19)"><tspan class="cls-51" x="0" y="0">#obse</tspan><tspan class="cls-74" x="30.68" y="0">r</tspan><tspan class="cls-12" x="35.27" y="0">v</tspan><tspan class="cls-52" x="40.75" y="0">ability #ja</tspan><tspan class="cls-12" x="90.75" y="0">v</tspan><tspan class="cls-51" x="96.24" y="0">a</tspan></text><g><rect class="cls-42" x="369.49" y="669.72" width="77.71" height="24.53" rx="6.36" ry="6.36"/><rect class="cls-43" x="369.49" y="669.72" width="77.71" height="24.53" rx="2.43" ry="2.43"/><text class="cls-24" transform="translate(385.67 686.81)"><tspan class="cls-37" x="0" y="0">Cho</tspan><tspan class="cls-16" x="24" y="0">o</tspan><tspan class="cls-37" x="31.72" y="0">se</tspan></text></g><rect class="cls-25" x="562.34" y="432" width="250" height="281" rx="5.09" ry="5.09"/><text class="cls-15" transform="translate(582.97 456.42)"><tspan x="0" y="0">CHORES</tspan></text><text class="cls-28" transform="translate(582.97 478.42)"><tspan x="0" y="0">Re</tspan><tspan class="cls-49" x="16.96" y="0">gi</tspan><tspan class="cls-93" x="29.42" y="0">s</tspan><tspan class="cls-81" x="35.91" y="0">t</tspan><tspan class="cls-49" x="41.54" y="0">er </tspan><tspan class="cls-31" x="58.72" y="0">y</tspan><tspan class="cls-60" x="66.57" y="0">our se</tspan><tspan class="cls-62" x="107.7" y="0">r</tspan><tspan class="cls-49" x="113.92" y="0">vi</tspan><tspan class="cls-47" x="126.21" y="0">c</tspan><tspan class="cls-49" x="132.94" y="0">e</tspan><tspan class="cls-49" x="0" y="23">in </tspan><tspan class="cls-46" x="16.17" y="23">R</tspan><tspan class="cls-73" x="25.36" y="23">o</tspan><tspan class="cls-60" x="33.67" y="23">adi</tspan><tspan x="54.76" y="23">e</tspan><tspan class="cls-55" x="62.53" y="23">’</tspan><tspan class="cls-49" x="66.66" y="23">s C</tspan><tspan class="cls-81" x="85.48" y="23">a</tspan><tspan class="cls-93" x="93.27" y="23">t</tspan><tspan class="cls-60" x="98.86" y="23">alog</tspan></text><g id="MuiListItemIcon-root-73381-3"><g class="cls-102"><g id="MuiSvgIcon-root-71985-3"><g transform="matrix(0.833333 0 0 0.833333 272 312.141)"><path class="cls-64" d="M787.19,458.45l4.61,2.78-1.22-5.24,4.07-3.53-5.36-.45-2.09-4.94-2.09,4.94-5.36,.45,4.07,3.53-1.22,5.24,4.61-2.78Z" pointer-events="none"/></g></g></g></g><text class="cls-5" transform="translate(582.91 528.54)"><tspan class="cls-51" x="0" y="0">G</tspan><tspan x="7.52" y="0">e</tspan><tspan class="cls-51" x="13.48" y="0">t an in</tspan><tspan class="cls-79" x="45.3" y="0">t</tspan><tspan x="49.31" y="0">e</tspan><tspan class="cls-51" x="55.26" y="0">g</tspan><tspan class="cls-75" x="61.43" y="0">r</tspan><tspan class="cls-79" x="65.42" y="0">at</tspan><tspan class="cls-51" x="75.43" y="0">ed single glass </tspan><tspan class="cls-79" x="151.98" y="0">p</tspan><tspan class="cls-51" x="158.59" y="0">ane </tspan><tspan x="180.04" y="0">f</tspan><tspan class="cls-68" x="183.54" y="0">or </tspan><tspan class="cls-58" x="0" y="18">y</tspan><tspan class="cls-51" x="5.68" y="18">our se</tspan><tspan class="cls-74" x="36.97" y="18">r</tspan><tspan class="cls-51" x="41.56" y="18">vi</tspan><tspan class="cls-89" x="50.35" y="18">c</tspan><tspan class="cls-51" x="55.69" y="18">e and ma</tspan><tspan class="cls-85" x="102.67" y="18">k</tspan><tspan class="cls-68" x="108.52" y="18">e it </tspan><tspan class="cls-79" x="126.88" y="18">e</tspan><tspan class="cls-51" x="132.78" y="18">asy </tspan><tspan x="152.34" y="18">f</tspan><tspan class="cls-51" x="155.85" y="18">or </tspan><tspan class="cls-84" x="169.27" y="18">o</tspan><tspan class="cls-51" x="175.69" y="18">the</tspan><tspan class="cls-58" x="192.59" y="18">r</tspan><tspan class="cls-51" x="196.83" y="18">s </tspan><tspan class="cls-79" x="0" y="36">t</tspan><tspan class="cls-51" x="4.01" y="36">o find </tspan><tspan class="cls-58" x="35.83" y="36">y</tspan><tspan class="cls-51" x="41.51" y="36">our </tspan><tspan class="cls-58" x="61.58" y="36">w</tspan><tspan class="cls-51" x="70.27" y="36">ork and </tspan><tspan class="cls-89" x="111.91" y="36">c</tspan><tspan class="cls-51" x="117.25" y="36">ollabo</tspan><tspan class="cls-82" x="149.78" y="36">r</tspan><tspan class="cls-79" x="153.78" y="36">at</tspan><tspan class="cls-51" x="163.79" y="36">e. </tspan><tspan class="cls-51" x="0" y="60">This </tspan><tspan class="cls-79" x="23.94" y="60">t</tspan><tspan class="cls-51" x="27.95" y="60">empl</tspan><tspan class="cls-79" x="54.05" y="60">at</tspan><tspan class="cls-68" x="64.06" y="60">e will open a PR a</tspan><tspan class="cls-32" x="153.25" y="60">g</tspan><tspan class="cls-51" x="159.23" y="60">ain</tspan><tspan class="cls-12" x="175.16" y="60">s</tspan><tspan class="cls-51" x="180.06" y="60">t </tspan><tspan class="cls-58" x="0" y="78">y</tspan><tspan class="cls-51" x="5.68" y="78">our </tspan><tspan x="25.75" y="78">r</tspan><tspan class="cls-51" x="29.92" y="78">epo with a </tspan><tspan class="cls-79" x="85.75" y="78">Y</tspan><tspan class="cls-51" x="91.42" y="78">AML file th</tspan><tspan class="cls-98" x="144.67" y="78">a</tspan><tspan class="cls-51" x="150.67" y="78">t </tspan><tspan x="157.37" y="78">R</tspan><tspan class="cls-79" x="164.2" y="78">o</tspan><tspan class="cls-51" x="170.65" y="78">adie </tspan><tspan x="0" y="96">c</tspan><tspan class="cls-51" x="5.47" y="96">an t</tspan><tspan class="cls-75" x="25.02" y="96">r</tspan><tspan class="cls-51" x="29.01" y="96">ac</tspan><tspan class="cls-88" x="40.77" y="96">k</tspan><tspan class="cls-51" x="46.99" y="96">.</tspan></text><g><rect class="cls-42" x="648.49" y="669.72" width="77.71" height="24.53" rx="6.36" ry="6.36"/><rect class="cls-43" x="648.49" y="669.72" width="77.71" height="24.53" rx="2.43" ry="2.43"/><text class="cls-24" transform="translate(664.67 686.81)"><tspan class="cls-37" x="0" y="0">Cho</tspan><tspan class="cls-16" x="24" y="0">o</tspan><tspan class="cls-37" x="31.72" y="0">se</tspan></text></g><rect class="cls-25" x="563.34" y="120" width="250" height="281" rx="5.09" ry="5.09"/><text class="cls-34" transform="translate(583.97 144.42)"><tspan class="cls-14" x="0" y="0">SE</tspan><tspan class="cls-70" x="13.01" y="0">C</tspan><tspan class="cls-14" x="19.72" y="0">URI</tspan><tspan class="cls-71" x="38.19" y="0">T</tspan><tspan class="cls-14" x="44.57" y="0">Y</tspan></text><text class="cls-28" transform="translate(583.97 166.42)"><tspan class="cls-49" x="0" y="0">Add Snyk </tspan><tspan class="cls-81" x="66.09" y="0">t</tspan><tspan class="cls-60" x="71.71" y="0">o </tspan><tspan class="cls-97" x="83.34" y="0">y</tspan><tspan class="cls-60" x="91.18" y="0">our se</tspan><tspan class="cls-62" x="132.31" y="0">r</tspan><tspan class="cls-49" x="138.54" y="0">vi</tspan><tspan class="cls-47" x="150.82" y="0">c</tspan><tspan class="cls-49" x="157.56" y="0">e</tspan></text><g id="MuiListItemIcon-root-73381-4"><g class="cls-101"><g id="MuiSvgIcon-root-71985-4"><g transform="matrix(0.833333 0 0 0.833333 272 312.141)"><path class="cls-64" d="M788.19,146.45l4.61,2.78-1.22-5.24,4.07-3.53-5.36-.45-2.09-4.94-2.09,4.94-5.36,.45,4.07,3.53-1.22,5.24,4.61-2.78Z" pointer-events="none"/></g></g></g></g><text class="cls-5" transform="translate(583.91 202.19)"><tspan class="cls-51" x="0" y="0">Imp</tspan><tspan x="20.12" y="0">r</tspan><tspan class="cls-91" x="24.29" y="0">ov</tspan><tspan class="cls-51" x="36.54" y="0">e </tspan><tspan class="cls-58" x="45.13" y="0">y</tspan><tspan class="cls-51" x="50.81" y="0">our se</tspan><tspan class="cls-74" x="82.11" y="0">r</tspan><tspan class="cls-51" x="86.69" y="0">vi</tspan><tspan class="cls-89" x="95.49" y="0">c</tspan><tspan x="100.83" y="0">e</tspan><tspan class="cls-2" x="106.78" y="0">’</tspan><tspan class="cls-51" x="109.3" y="0">s security </tspan><tspan class="cls-58" x="160.2" y="0">b</tspan><tspan class="cls-51" x="166.91" y="0">y </tspan><tspan class="cls-51" x="0" y="18">adding Snyk </tspan><tspan class="cls-98" x="65.69" y="18">t</tspan><tspan class="cls-51" x="69.69" y="18">o </tspan><tspan class="cls-58" x="78.84" y="18">y</tspan><tspan class="cls-51" x="84.51" y="18">our appli</tspan><tspan x="130.57" y="18">c</tspan><tspan class="cls-79" x="136.04" y="18">a</tspan><tspan class="cls-51" x="142.04" y="18">tion, the </tspan><tspan x="0" y="36">R</tspan><tspan class="cls-79" x="6.83" y="36">o</tspan><tspan class="cls-51" x="13.28" y="36">adie </tspan><tspan x="37.9" y="36">w</tspan><tspan class="cls-51" x="46.51" y="36">a</tspan><tspan class="cls-56" x="52.68" y="36">y</tspan><tspan class="cls-51" x="57.98" y="36">.</tspan><tspan class="cls-51" x="0" y="54">This </tspan><tspan class="cls-79" x="23.94" y="54">t</tspan><tspan class="cls-51" x="27.95" y="54">empl</tspan><tspan class="cls-79" x="54.05" y="54">at</tspan><tspan class="cls-68" x="64.06" y="54">e will open a PR a</tspan><tspan class="cls-32" x="153.25" y="54">g</tspan><tspan class="cls-51" x="159.23" y="54">ain</tspan><tspan class="cls-12" x="175.16" y="54">s</tspan><tspan class="cls-51" x="180.06" y="54">t </tspan><tspan class="cls-58" x="0" y="72">y</tspan><tspan class="cls-51" x="5.68" y="72">our </tspan><tspan x="25.75" y="72">r</tspan><tspan class="cls-51" x="29.92" y="72">epo with </tspan><tspan class="cls-90" x="77.07" y="72">e</tspan><tspan class="cls-58" x="83.2" y="72">v</tspan><tspan class="cls-51" x="88.87" y="72">e</tspan><tspan class="cls-74" x="94.95" y="72">r</tspan><tspan class="cls-51" x="99.53" y="72">ything </tspan><tspan class="cls-58" x="134.52" y="72">y</tspan><tspan class="cls-51" x="140.2" y="72">ou need </tspan><tspan class="cls-79" x="184.12" y="72">t</tspan><tspan class="cls-51" x="188.13" y="72">o </tspan><tspan class="cls-79" x="0" y="90">g</tspan><tspan x="6" y="90">e</tspan><tspan class="cls-51" x="11.95" y="90">t </tspan><tspan class="cls-12" x="18.65" y="90">s</tspan><tspan class="cls-89" x="23.56" y="90">t</tspan><tspan class="cls-51" x="27.48" y="90">ar</tspan><tspan class="cls-79" x="37.93" y="90">t</tspan><tspan class="cls-51" x="41.94" y="90">ed with Sny</tspan><tspan class="cls-86" x="101.4" y="90">k</tspan><tspan class="cls-51" x="107.62" y="90">.</tspan></text><text class="cls-7" transform="translate(583.91 320.19)"><tspan class="cls-51" x="0" y="0">#</tspan><tspan class="cls-58" x="6.08" y="0">v</tspan><tspan class="cls-51" x="11.76" y="0">endo</tspan><tspan class="cls-58" x="37.92" y="0">r</tspan><tspan class="cls-51" x="42.16" y="0">s</tspan></text><g><rect class="cls-42" x="639.49" y="357.72" width="77.71" height="24.53" rx="6.36" ry="6.36"/><rect class="cls-43" x="639.49" y="357.72" width="77.71" height="24.53" rx="2.43" ry="2.43"/><text class="cls-24" transform="translate(655.67 374.81)"><tspan class="cls-37" x="0" y="0">Cho</tspan><tspan class="cls-16" x="24" y="0">o</tspan><tspan class="cls-37" x="31.72" y="0">se</tspan></text></g><g><path class="cls-40" d="M31.77,118.04v-4.71h3.13v4.71h3.91v-6.27h2.35l-7.84-7.06-7.84,7.06h2.35v6.27h3.92Z"/><path class="cls-40" d="M27.07,152.5h-1.57v10.97c0,.86,.7,1.57,1.57,1.57h10.97v-1.57h-10.97v-10.97Zm12.53-3.13h-9.4c-.86,0-1.57,.7-1.57,1.57v9.4c0,.86,.7,1.57,1.57,1.57h9.4c.86,0,1.57-.7,1.57-1.57v-9.4c0-.86-.7-1.57-1.57-1.57Zm-.78,7.06h-7.84v-1.57h7.84v1.57Zm-3.13,3.13h-4.71v-1.57h4.71v1.57Zm3.13-6.27h-7.84v-1.57h7.84v1.57Z"/><path class="cls-40" d="M39.61,202.64h-1.18v-3.13c0-.86-.7-1.57-1.57-1.57h-3.13v-1.18c0-1.08-.88-1.96-1.96-1.96s-1.96,.88-1.96,1.96v1.18h-3.13c-.86,0-1.56,.7-1.56,1.57v2.98h1.17c1.17,0,2.12,.95,2.12,2.12s-.95,2.12-2.12,2.12h-1.18v2.98c0,.86,.7,1.57,1.57,1.57h2.98v-1.18c0-1.17,.95-2.12,2.12-2.12s2.12,.95,2.12,2.12v1.18h2.98c.86,0,1.57-.7,1.57-1.57v-3.13h1.18c1.08,0,1.96-.88,1.96-1.96s-.88-1.96-1.96-1.96Z"/><path class="cls-40" d="M40.37,242.59c-.87-.28-1.83-.4-2.74-.4-1.53,0-3.17,.32-4.31,1.18-1.14-.86-2.78-1.18-4.31-1.18s-3.17,.32-4.31,1.18v11.48c0,.2,.2,.4,.4,.4,.08,0,.12-.04,.2-.04,1.06-.51,2.59-.86,3.73-.86,1.53,0,3.17,.32,4.31,1.18,1.06-.66,2.98-1.18,4.31-1.18s2.63,.24,3.73,.82c.08,.04,.12,.04,.2,.04,.2,0,.4-.2,.4-.4v-11.44c-.47-.36-.98-.58-1.57-.78h-.02Zm0,10.58c-.86-.28-1.8-.4-2.74-.4-1.33,0-3.25,.51-4.31,1.18v-9.01c1.06-.66,2.98-1.18,4.31-1.18,.94,0,1.88,.12,2.74,.4v9.01Zm-2.75-6.27c.69,0,1.35,.07,1.96,.21v-1.2c-.62-.12-1.29-.19-1.96-.19-1.33,0-2.54,.23-3.53,.65v1.3c.89-.5,2.12-.77,3.53-.77h0Zm-3.53,1.55v1.3c.89-.5,2.12-.77,3.53-.77,.69,0,1.35,.07,1.96,.21v-1.2c-.62-.12-1.29-.19-1.96-.19-1.33,0-2.54,.24-3.53,.65h0Zm3.53,1.43c-1.33,0-2.54,.23-3.53,.65v1.3c.89-.5,2.12-.77,3.53-.77,.69,0,1.35,.07,1.96,.21v-1.2c-.62-.13-1.29-.19-1.96-.19h0Z"/><path class="cls-40" d="M33.33,293.82c-.47,0-.86,.39-.86,.86s.39,.86,.86,.86,.86-.39,.86-.86-.39-.86-.86-.86Zm0-6.98c-4.33,0-7.84,3.51-7.84,7.84s3.51,7.84,7.84,7.84,7.84-3.51,7.84-7.84-3.51-7.84-7.84-7.84Zm1.72,9.55l-6.42,2.99,2.99-6.42,6.42-2.99-2.99,6.42Z"/><path class="cls-40" d="M41.75,345.95l-7.13-7.13c.7-1.8,.32-3.91-1.18-5.41-1.57-1.57-3.91-1.88-5.8-1.02l3.37,3.37-2.35,2.35-3.45-3.37c-.94,1.88-.54,4.23,1.02,5.8,1.49,1.49,3.61,1.88,5.41,1.18l7.13,7.13c.32,.32,.78,.32,1.1,0l1.8-1.8c.4-.32,.4-.86,.08-1.1h0Z"/><path class="cls-25" d="M34.12,382.41h-1.57v3.13h-3.13v1.57h3.13v3.13h1.57v-3.13h3.13v-1.57h-3.13v-3.13Zm-.78-3.91c-4.33,0-7.84,3.51-7.84,7.84s3.51,7.84,7.84,7.84,7.84-3.51,7.84-7.84-3.51-7.84-7.84-7.84Zm0,14.11c-3.46,0-6.27-2.82-6.27-6.27s2.82-6.27,6.27-6.27,6.27,2.82,6.27,6.27-2.82,6.27-6.27,6.27Z"/><path class="cls-40" d="M31.76,435.69l4.71-3.53-4.71-3.53v7.06Zm1.57-11.37c-4.33,0-7.84,3.51-7.84,7.84s3.51,7.84,7.84,7.84,7.84-3.51,7.84-7.84-3.51-7.84-7.84-7.84Zm0,14.11c-3.46,0-6.27-2.82-6.27-6.27s2.82-6.27,6.27-6.27,6.27,2.82,6.27,6.27-2.82,6.27-6.27,6.27Z"/></g></svg>