<?xml version="1.0" encoding="UTF-8"?><svg id="Layer_1" xmlns="http://www.w3.org/2000/svg" viewBox="0 0 495.19 497.59"><defs><style>.cls-1{fill:#f7e7cb;}.cls-2{fill:#f2f2f2;}.cls-3{fill:#e6e6e6;}.cls-4{fill:#c3d9ea;}.cls-5{fill:#111827;}.cls-6{fill:#ff5f56;stroke:#e0443e;}.cls-6,.cls-7,.cls-8{stroke-width:.5px;}.cls-7{fill:#ffbd2e;stroke:#dea123;}.cls-8{fill:#27c93f;stroke:#1aab29;}</style></defs><rect class="cls-5" x="5.15" y="82" width="484" height="332" rx="12" ry="12"/><g><path class="cls-3" d="M25.94,184.5v-.99h6.88v.99h-6.88Z"/><path class="cls-4" d="M47.23,189.29v-6.7h-3.62v-1.07h4.93v7.78h-1.31Zm.51-9.41c-.3,0-.55-.09-.75-.28-.2-.19-.3-.43-.3-.74s.1-.56,.3-.74c.2-.19,.45-.28,.75-.28s.55,.09,.75,.28c.2,.19,.3,.43,.3,.74s-.1,.56-.3,.74c-.2,.19-.45,.28-.75,.28Z"/><path class="cls-4" d="M55.31,189.48c-1.01,0-1.83-.35-2.45-1.06-.62-.71-.93-1.71-.93-3,0-.84,.17-1.57,.5-2.18s.77-1.09,1.31-1.42c.54-.33,1.11-.5,1.72-.5,.46,0,.88,.09,1.26,.26s.73,.42,1.06,.74h.05l-.06-1.44v-2.99h1.31v11.39h-1.09l-.11-1.02h-.05c-.31,.33-.69,.62-1.13,.86-.44,.24-.91,.36-1.4,.36Zm.27-1.1c.38,0,.76-.1,1.12-.3,.36-.2,.72-.49,1.07-.87v-3.87c-.35-.33-.7-.57-1.03-.7s-.67-.21-1.02-.21c-.45,0-.86,.13-1.22,.38-.37,.25-.66,.6-.88,1.04-.22,.44-.33,.96-.33,1.56,0,.93,.2,1.66,.61,2.18s.97,.79,1.68,.79Z"/><path class="cls-4" d="M64.57,183.75c-.35,0-.66-.12-.91-.38-.26-.25-.38-.57-.38-.97s.13-.73,.38-.98c.26-.25,.56-.38,.91-.38s.67,.13,.92,.38,.38,.58,.38,.98-.12,.72-.38,.97c-.25,.25-.56,.38-.92,.38Zm0,5.73c-.35,0-.66-.13-.91-.38-.26-.25-.38-.57-.38-.97s.13-.73,.38-.98,.56-.38,.91-.38,.67,.12,.92,.38c.25,.25,.38,.58,.38,.98s-.12,.72-.38,.97-.56,.38-.92,.38Z"/><path class="cls-3" d="M78.86,192.57v-11.06h1.09l.11,.99h.05c.36-.34,.78-.62,1.26-.85,.47-.22,.95-.34,1.43-.34,.7,0,1.29,.16,1.77,.49,.47,.33,.83,.78,1.08,1.38,.25,.59,.37,1.29,.37,2.1,0,.88-.17,1.63-.5,2.26-.33,.63-.76,1.11-1.3,1.44-.53,.33-1.11,.5-1.74,.5-.35,0-.74-.09-1.16-.26-.42-.18-.81-.42-1.16-.74h-.05l.06,1.47v2.62h-1.31Zm3.39-4.19c.46,0,.87-.12,1.23-.37,.36-.25,.65-.6,.86-1.06s.31-1.02,.31-1.66c0-.57-.08-1.06-.22-1.5s-.38-.77-.7-1.01c-.32-.24-.74-.36-1.26-.36-.35,0-.72,.09-1.11,.28-.39,.19-.78,.48-1.18,.89v3.87c.37,.33,.75,.57,1.13,.7s.7,.21,.95,.21Z"/><path class="cls-3" d="M90.11,189.48c-.93,0-1.61-.27-2.05-.8-.44-.53-.66-1.31-.66-2.34v-4.83h1.33v4.66c0,.74,.14,1.28,.41,1.64,.27,.36,.73,.54,1.38,.54,.45,0,.86-.11,1.22-.34s.76-.59,1.19-1.1v-5.39h1.31v7.78h-1.07l-.11-1.36h-.06c-.39,.45-.83,.82-1.3,1.11-.47,.29-1,.44-1.6,.44Z"/><path class="cls-3" d="M100.09,189.48c-.38,0-.79-.09-1.22-.28-.43-.19-.83-.45-1.19-.78h-.05l-.11,.86h-1.06v-11.39h1.31v3.1l-.05,1.5h.05c.35-.36,.76-.65,1.22-.86,.46-.21,.92-.32,1.38-.32,.7,0,1.3,.16,1.78,.49,.48,.33,.84,.78,1.09,1.38,.25,.59,.37,1.29,.37,2.09,0,.88-.16,1.64-.49,2.27-.33,.63-.75,1.11-1.29,1.44-.53,.33-1.12,.5-1.74,.5Zm-.21-1.1c.45,0,.85-.12,1.21-.37,.36-.25,.64-.6,.85-1.06s.31-1.02,.31-1.66c0-.57-.08-1.06-.22-1.5s-.38-.77-.7-1.01c-.32-.24-.74-.36-1.26-.36-.35,0-.72,.09-1.11,.28-.39,.19-.78,.48-1.18,.89v3.87c.37,.33,.75,.57,1.13,.7s.71,.21,.98,.21Z"/><path class="cls-3" d="M110.27,189.48c-.82,0-1.45-.24-1.89-.71-.44-.47-.66-1.17-.66-2.09v-7.71h-2.66v-1.07h3.97v8.88c0,.57,.14,.98,.42,1.23s.65,.38,1.1,.38c.22,0,.45-.03,.69-.09,.23-.06,.5-.15,.78-.28l.34,.99c-.35,.13-.68,.24-.99,.33-.31,.09-.68,.14-1.1,.14Z"/><path class="cls-3" d="M117.63,189.29v-6.7h-3.62v-1.07h4.93v7.78h-1.31Zm.51-9.41c-.3,0-.55-.09-.75-.28-.2-.19-.3-.43-.3-.74s.1-.56,.3-.74c.2-.19,.45-.28,.75-.28s.55,.09,.75,.28c.2,.19,.3,.43,.3,.74s-.1,.56-.3,.74c-.2,.19-.45,.28-.75,.28Z"/><path class="cls-3" d="M126.33,189.48c-.76,0-1.47-.12-2.13-.37s-1.23-.53-1.7-.85l.61-.86c.45,.32,.94,.58,1.49,.77,.54,.19,1.17,.29,1.89,.29,.66,0,1.15-.12,1.48-.37,.33-.25,.49-.53,.49-.85,0-.15-.03-.29-.09-.42s-.17-.25-.34-.37c-.17-.12-.41-.23-.73-.34-.32-.11-.75-.21-1.28-.32-1.01-.21-1.77-.5-2.28-.86-.51-.36-.76-.83-.76-1.41,0-.63,.27-1.15,.82-1.58,.54-.42,1.35-.63,2.42-.63,.6,0,1.17,.1,1.73,.3s1.02,.43,1.41,.7l-.64,.85c-.35-.26-.75-.46-1.2-.6-.45-.14-.92-.22-1.41-.22-.45,0-.8,.05-1.06,.15s-.45,.24-.56,.41c-.11,.17-.17,.36-.17,.56,0,.33,.18,.59,.54,.78,.36,.19,.93,.36,1.72,.52,.86,.18,1.53,.38,1.99,.61,.46,.22,.78,.48,.96,.77,.18,.29,.26,.63,.26,1.02,0,.43-.13,.81-.4,1.16s-.66,.63-1.17,.84c-.51,.21-1.14,.32-1.89,.32Z"/><path class="cls-3" d="M131.66,189.29v-11.39h1.31v3.1l-.08,1.84h.05c.39-.43,.83-.79,1.3-1.08,.47-.29,1.01-.44,1.62-.44,.92,0,1.59,.27,2.03,.8s.66,1.31,.66,2.34v4.83h-1.31v-4.66c0-.74-.14-1.28-.42-1.64s-.74-.54-1.38-.54c-.46,0-.87,.12-1.23,.35-.36,.24-.77,.59-1.23,1.06v5.42h-1.31Z"/><path class="cls-3" d="M140.33,184.5v-.99h6.88v.99h-6.88Z"/><path class="cls-3" d="M149.26,192.57v-11.06h1.09l.11,.99h.05c.36-.34,.78-.62,1.26-.85,.47-.22,.95-.34,1.43-.34,.7,0,1.29,.16,1.77,.49,.47,.33,.83,.78,1.08,1.38,.25,.59,.37,1.29,.37,2.1,0,.88-.17,1.63-.5,2.26-.33,.63-.76,1.11-1.3,1.44-.53,.33-1.11,.5-1.74,.5-.35,0-.74-.09-1.16-.26-.42-.18-.81-.42-1.16-.74h-.05l.06,1.47v2.62h-1.31Zm3.39-4.19c.46,0,.87-.12,1.23-.37,.36-.25,.65-.6,.86-1.06s.31-1.02,.31-1.66c0-.57-.08-1.06-.22-1.5s-.38-.77-.7-1.01c-.32-.24-.74-.36-1.26-.36-.35,0-.72,.09-1.11,.28-.39,.19-.78,.48-1.18,.89v3.87c.37,.33,.75,.57,1.13,.7s.7,.21,.95,.21Z"/><path class="cls-3" d="M158.91,189.29v-7.78h1.09l.11,1.84h.05c.41-.63,.91-1.13,1.5-1.49s1.25-.54,1.97-.54c.29,0,.56,.02,.81,.07,.25,.05,.49,.13,.73,.25l-.3,1.14c-.27-.1-.5-.17-.69-.21-.19-.04-.44-.06-.75-.06-.59,0-1.15,.17-1.69,.5-.54,.34-1.04,.91-1.51,1.72v4.56h-1.31Z"/><path class="cls-4" d="M43.66,213.29v-7.78h1.09l.11,1.33h.06c.41-.44,.84-.8,1.31-1.09,.47-.29,1.01-.43,1.62-.43,.92,0,1.59,.27,2.03,.8s.66,1.31,.66,2.34v4.83h-1.31v-4.66c0-.74-.14-1.28-.42-1.64s-.74-.54-1.38-.54c-.46,0-.87,.12-1.23,.35-.36,.24-.77,.59-1.23,1.06v5.42h-1.31Z"/><path class="cls-4" d="M54.91,213.48c-.48,0-.92-.09-1.33-.26-.41-.18-.73-.43-.96-.76-.24-.33-.35-.73-.35-1.18,0-.88,.44-1.54,1.31-1.99,.87-.45,2.31-.76,4.32-.92-.01-.35-.08-.68-.22-.98-.13-.3-.35-.54-.65-.71-.3-.18-.7-.26-1.2-.26-.33,0-.66,.04-.98,.14s-.63,.21-.93,.35c-.29,.14-.56,.29-.81,.44l-.51-.9c.26-.17,.57-.34,.94-.52,.37-.18,.76-.32,1.19-.43,.43-.11,.87-.17,1.33-.17,.71,0,1.3,.13,1.77,.4,.46,.27,.81,.64,1.04,1.11,.23,.47,.34,1.04,.34,1.69v4.77h-1.07l-.11-1.06h-.05c-.43,.34-.91,.63-1.44,.88-.53,.25-1.08,.37-1.63,.37Zm.35-1.06c.45,0,.89-.1,1.33-.3,.44-.2,.87-.49,1.31-.85v-2.05c-1.11,.1-1.98,.23-2.62,.4-.63,.17-1.08,.39-1.34,.65-.26,.26-.39,.56-.39,.9,0,.29,.08,.53,.24,.71,.16,.19,.37,.32,.63,.41,.26,.09,.54,.13,.84,.13Z"/><path class="cls-4" d="M60.7,213.29v-7.78h1.06l.11,1.02h.03c.2-.36,.44-.66,.7-.88,.27-.22,.62-.34,1.07-.34,.38,0,.7,.11,.94,.34,.25,.22,.42,.56,.53,1.01,.22-.42,.47-.74,.74-.98,.27-.24,.63-.36,1.08-.36,.54,0,.97,.21,1.27,.62,.3,.41,.46,1,.46,1.78v5.57h-1.31v-5.47c0-.91-.28-1.36-.83-1.36-.27,0-.49,.1-.66,.3s-.37,.5-.58,.9v5.63h-1.22v-5.47c0-.45-.06-.79-.18-1.02-.12-.23-.33-.34-.62-.34-.27,0-.5,.1-.7,.3s-.39,.5-.58,.9v5.63h-1.31Z"/><path class="cls-4" d="M73.85,213.48c-.78,0-1.49-.16-2.12-.48s-1.14-.79-1.51-1.4c-.37-.61-.56-1.35-.56-2.22s.19-1.57,.56-2.18c.37-.61,.86-1.07,1.46-1.4,.6-.33,1.25-.49,1.94-.49,.75,0,1.38,.15,1.91,.46,.53,.3,.93,.73,1.22,1.27,.28,.54,.42,1.18,.42,1.92,0,.15,0,.29-.02,.43s-.03,.26-.05,.37h-6.58v-1.02h5.79l-.34,.37c0-.92-.21-1.61-.63-2.06-.42-.46-.99-.69-1.7-.69-.48,0-.93,.12-1.34,.35-.41,.24-.74,.58-.98,1.02-.25,.45-.37,1-.37,1.65s.13,1.23,.4,1.68c.27,.45,.63,.79,1.09,1.02,.46,.23,.98,.34,1.55,.34,.47,0,.89-.07,1.27-.2,.38-.13,.74-.31,1.1-.54l.48,.86c-.38,.26-.82,.47-1.32,.66s-1.06,.27-1.69,.27Z"/><path class="cls-4" d="M82.17,207.75c-.35,0-.66-.12-.91-.38-.26-.25-.38-.57-.38-.97s.13-.73,.38-.98c.26-.25,.56-.38,.91-.38s.67,.13,.92,.38,.38,.58,.38,.98-.12,.72-.38,.97c-.25,.25-.56,.38-.92,.38Zm0,5.73c-.35,0-.66-.13-.91-.38-.26-.25-.38-.57-.38-.97s.13-.73,.38-.98,.56-.38,.91-.38,.67,.12,.92,.38c.25,.25,.38,.58,.38,.98s-.12,.72-.38,.97-.56,.38-.92,.38Z"/><path class="cls-3" d="M96.6,213.29v-10.5h3.17c.78,0,1.46,.1,2.04,.3s1.03,.52,1.36,.97c.33,.45,.49,1.06,.49,1.82s-.16,1.34-.49,1.82c-.33,.47-.78,.83-1.37,1.07-.59,.24-1.26,.36-2.03,.36h-1.84v4.16h-1.33Zm1.33-5.25h1.68c.92,0,1.6-.18,2.04-.53,.44-.35,.66-.9,.66-1.63s-.22-1.28-.67-1.58c-.45-.29-1.12-.44-2.03-.44h-1.68v4.18Z"/><path class="cls-3" d="M107.71,213.48c-.93,0-1.61-.27-2.05-.8-.44-.53-.66-1.31-.66-2.34v-4.83h1.33v4.66c0,.74,.14,1.28,.41,1.64,.27,.36,.73,.54,1.38,.54,.45,0,.86-.11,1.22-.34s.76-.59,1.19-1.1v-5.39h1.31v7.78h-1.07l-.11-1.36h-.06c-.39,.45-.83,.82-1.3,1.11-.47,.29-1,.44-1.6,.44Z"/><path class="cls-3" d="M117.69,213.48c-.38,0-.79-.09-1.22-.28-.43-.19-.83-.45-1.19-.78h-.05l-.11,.86h-1.06v-11.39h1.31v3.1l-.05,1.5h.05c.35-.36,.76-.65,1.22-.86,.46-.21,.92-.32,1.38-.32,.7,0,1.3,.16,1.78,.49,.48,.33,.84,.78,1.09,1.38,.25,.59,.37,1.29,.37,2.09,0,.88-.16,1.64-.49,2.27-.33,.63-.75,1.11-1.29,1.44-.53,.33-1.12,.5-1.74,.5Zm-.21-1.1c.45,0,.85-.12,1.21-.37,.36-.25,.64-.6,.85-1.06s.31-1.02,.31-1.66c0-.57-.08-1.06-.22-1.5s-.38-.77-.7-1.01c-.32-.24-.74-.36-1.26-.36-.35,0-.72,.09-1.11,.28-.39,.19-.78,.48-1.18,.89v3.87c.37,.33,.75,.57,1.13,.7s.71,.21,.98,.21Z"/><path class="cls-3" d="M127.87,213.48c-.82,0-1.45-.24-1.89-.71-.44-.47-.66-1.17-.66-2.09v-7.71h-2.66v-1.07h3.97v8.88c0,.57,.14,.98,.42,1.23s.65,.38,1.1,.38c.22,0,.45-.03,.69-.09,.23-.06,.5-.15,.78-.28l.34,.99c-.35,.13-.68,.24-.99,.33-.31,.09-.68,.14-1.1,.14Z"/><path class="cls-3" d="M135.23,213.29v-6.7h-3.62v-1.07h4.93v7.78h-1.31Zm.51-9.41c-.3,0-.55-.09-.75-.28-.2-.19-.3-.43-.3-.74s.1-.56,.3-.74c.2-.19,.45-.28,.75-.28s.55,.09,.75,.28c.2,.19,.3,.43,.3,.74s-.1,.56-.3,.74c-.2,.19-.45,.28-.75,.28Z"/><path class="cls-3" d="M143.93,213.48c-.76,0-1.47-.12-2.13-.37s-1.23-.53-1.7-.85l.61-.86c.45,.32,.94,.58,1.49,.77,.54,.19,1.17,.29,1.89,.29,.66,0,1.15-.12,1.48-.37,.33-.25,.49-.53,.49-.85,0-.15-.03-.29-.09-.42s-.17-.25-.34-.37c-.17-.12-.41-.23-.73-.34-.32-.11-.75-.21-1.28-.32-1.01-.21-1.77-.5-2.28-.86-.51-.36-.76-.83-.76-1.41,0-.63,.27-1.15,.82-1.58,.54-.42,1.35-.63,2.42-.63,.6,0,1.17,.1,1.73,.3s1.02,.43,1.41,.7l-.64,.85c-.35-.26-.75-.46-1.2-.6-.45-.14-.92-.22-1.41-.22-.45,0-.8,.05-1.06,.15s-.45,.24-.56,.41c-.11,.17-.17,.36-.17,.56,0,.33,.18,.59,.54,.78,.36,.19,.93,.36,1.72,.52,.86,.18,1.53,.38,1.99,.61,.46,.22,.78,.48,.96,.77,.18,.29,.26,.63,.26,1.02,0,.43-.13,.81-.4,1.16s-.66,.63-1.17,.84c-.51,.21-1.14,.32-1.89,.32Z"/><path class="cls-3" d="M149.26,213.29v-11.39h1.31v3.1l-.08,1.84h.05c.39-.43,.83-.79,1.3-1.08,.47-.29,1.01-.44,1.62-.44,.92,0,1.59,.27,2.03,.8s.66,1.31,.66,2.34v4.83h-1.31v-4.66c0-.74-.14-1.28-.42-1.64s-.74-.54-1.38-.54c-.46,0-.87,.12-1.23,.35-.36,.24-.77,.59-1.23,1.06v5.42h-1.31Z"/><path class="cls-3" d="M167,213.29v-10.5h3.17c.78,0,1.46,.1,2.04,.3s1.03,.52,1.36,.97c.33,.45,.49,1.06,.49,1.82s-.16,1.34-.49,1.82c-.33,.47-.78,.83-1.37,1.07-.59,.24-1.26,.36-2.03,.36h-1.84v4.16h-1.33Zm1.33-5.25h1.68c.92,0,1.6-.18,2.04-.53,.44-.35,.66-.9,.66-1.63s-.22-1.28-.67-1.58c-.45-.29-1.12-.44-2.03-.44h-1.68v4.18Z"/><path class="cls-3" d="M175.77,213.29v-10.5h3.26c.71,0,1.35,.09,1.9,.28,.55,.19,.98,.5,1.3,.93s.47,1.01,.47,1.74-.16,1.29-.47,1.74c-.31,.46-.75,.8-1.3,1.03-.55,.23-1.18,.34-1.9,.34h-1.94v4.43h-1.33Zm1.33-5.52h1.74c.82,0,1.45-.17,1.88-.5,.43-.34,.65-.84,.65-1.53s-.22-1.17-.65-1.45c-.43-.28-1.06-.42-1.88-.42h-1.74v3.9Zm1.66,.72l1.06-.7,3.2,5.5h-1.52l-2.74-4.8Z"/><path class="cls-4" d="M46.11,237.48c-.48,0-.92-.09-1.33-.26-.41-.18-.73-.43-.96-.76-.24-.33-.35-.73-.35-1.18,0-.88,.44-1.54,1.31-1.99,.87-.45,2.31-.76,4.32-.92-.01-.35-.08-.68-.22-.98-.13-.3-.35-.54-.65-.71-.3-.18-.7-.26-1.2-.26-.33,0-.66,.04-.98,.14s-.63,.21-.93,.35c-.29,.14-.56,.29-.81,.44l-.51-.9c.26-.17,.57-.34,.94-.52,.37-.18,.76-.32,1.19-.43,.43-.11,.87-.17,1.33-.17,.71,0,1.3,.13,1.77,.4,.46,.27,.81,.64,1.04,1.11,.23,.47,.34,1.04,.34,1.69v4.77h-1.07l-.11-1.06h-.05c-.43,.34-.91,.63-1.44,.88-.53,.25-1.08,.37-1.63,.37Zm.35-1.06c.45,0,.89-.1,1.33-.3,.44-.2,.87-.49,1.31-.85v-2.05c-1.11,.1-1.98,.23-2.62,.4-.63,.17-1.08,.39-1.34,.65-.26,.26-.39,.56-.39,.9,0,.29,.08,.53,.24,.71,.16,.19,.37,.32,.63,.41,.26,.09,.54,.13,.84,.13Z"/><path class="cls-4" d="M56.51,237.48c-.81,0-1.54-.16-2.18-.48s-1.15-.78-1.52-1.39c-.37-.61-.55-1.34-.55-2.19s.2-1.62,.59-2.22c.39-.61,.92-1.07,1.58-1.39,.66-.32,1.38-.48,2.17-.48,.64,0,1.19,.11,1.66,.34,.46,.22,.86,.49,1.18,.8l-.66,.85c-.32-.28-.65-.5-.99-.66-.34-.16-.72-.24-1.14-.24-.6,0-1.13,.12-1.58,.38-.46,.25-.81,.6-1.06,1.06-.25,.45-.38,.98-.38,1.58s.12,1.1,.37,1.55c.25,.45,.59,.8,1.05,1.05,.45,.25,.98,.38,1.58,.38,.48,0,.92-.1,1.32-.29,.4-.19,.76-.42,1.08-.69l.59,.85c-.43,.38-.9,.68-1.43,.9-.53,.21-1.08,.32-1.66,.32Z"/><path class="cls-4" d="M66.08,237.48c-.76,0-1.35-.14-1.79-.41-.44-.27-.75-.65-.94-1.13-.19-.48-.28-1.04-.28-1.68v-3.68h-2.19v-.99l2.24-.08,.18-2.5h1.09v2.5h3.82v1.07h-3.82v3.7c0,.46,.06,.85,.18,1.17,.12,.32,.32,.56,.61,.72s.68,.24,1.18,.24c.37,0,.71-.03,1.01-.1,.3-.06,.59-.15,.86-.26l.29,.96c-.35,.13-.72,.24-1.11,.33-.39,.09-.83,.14-1.32,.14Z"/><path class="cls-4" d="M73.63,237.29v-6.7h-3.62v-1.07h4.93v7.78h-1.31Zm.51-9.41c-.3,0-.55-.09-.75-.28-.2-.19-.3-.43-.3-.74s.1-.56,.3-.74c.2-.19,.45-.28,.75-.28s.55,.09,.75,.28c.2,.19,.3,.43,.3,.74s-.1,.56-.3,.74c-.2,.19-.45,.28-.75,.28Z"/><path class="cls-4" d="M82.17,237.48c-.68,0-1.31-.16-1.9-.48-.58-.32-1.05-.78-1.41-1.39-.36-.61-.54-1.34-.54-2.19s.18-1.62,.54-2.22c.36-.61,.83-1.07,1.41-1.39,.58-.32,1.21-.48,1.9-.48s1.31,.16,1.9,.48c.58,.32,1.05,.78,1.41,1.39,.36,.61,.54,1.35,.54,2.22s-.18,1.58-.54,2.19c-.36,.61-.83,1.07-1.41,1.39-.58,.32-1.21,.48-1.9,.48Zm0-1.09c.5,0,.94-.12,1.31-.38,.37-.25,.66-.6,.86-1.05,.2-.45,.3-.96,.3-1.55s-.1-1.12-.3-1.58c-.2-.45-.49-.8-.86-1.06-.37-.25-.81-.38-1.31-.38s-.94,.12-1.3,.38-.66,.6-.86,1.06c-.21,.45-.31,.98-.31,1.58s.1,1.1,.31,1.55c.21,.45,.5,.8,.86,1.05,.37,.25,.8,.38,1.3,.38Z"/><path class="cls-4" d="M87.66,237.29v-7.78h1.09l.11,1.33h.06c.41-.44,.84-.8,1.31-1.09,.47-.29,1.01-.43,1.62-.43,.92,0,1.59,.27,2.03,.8s.66,1.31,.66,2.34v4.83h-1.31v-4.66c0-.74-.14-1.28-.42-1.64s-.74-.54-1.38-.54c-.46,0-.87,.12-1.23,.35-.36,.24-.77,.59-1.23,1.06v5.42h-1.31Z"/><path class="cls-4" d="M99.77,231.75c-.35,0-.66-.12-.91-.38-.26-.25-.38-.57-.38-.97s.13-.73,.38-.98c.26-.25,.56-.38,.91-.38s.67,.13,.92,.38,.38,.58,.38,.98-.12,.72-.38,.97c-.25,.25-.56,.38-.92,.38Zm0,5.73c-.35,0-.66-.13-.91-.38-.26-.25-.38-.57-.38-.97s.13-.73,.38-.98,.56-.38,.91-.38,.67,.12,.92,.38c.25,.25,.38,.58,.38,.98s-.12,.72-.38,.97-.56,.38-.92,.38Z"/><path class="cls-3" d="M114.06,240.57v-11.06h1.09l.11,.99h.05c.36-.34,.78-.62,1.26-.85,.47-.22,.95-.34,1.43-.34,.7,0,1.29,.16,1.77,.49,.47,.33,.83,.78,1.08,1.38,.25,.59,.37,1.29,.37,2.1,0,.88-.17,1.63-.5,2.26-.33,.63-.76,1.11-1.3,1.44-.53,.33-1.11,.5-1.74,.5-.35,0-.74-.09-1.16-.26-.42-.18-.81-.42-1.16-.74h-.05l.06,1.47v2.62h-1.31Zm3.39-4.19c.46,0,.87-.12,1.23-.37,.36-.25,.65-.6,.86-1.06s.31-1.02,.31-1.66c0-.57-.08-1.06-.22-1.5s-.38-.77-.7-1.01c-.32-.24-.74-.36-1.26-.36-.35,0-.72,.09-1.11,.28-.39,.19-.78,.48-1.18,.89v3.87c.37,.33,.75,.57,1.13,.7s.7,.21,.95,.21Z"/><path class="cls-3" d="M125.31,237.48c-.93,0-1.61-.27-2.05-.8-.44-.53-.66-1.31-.66-2.34v-4.83h1.33v4.66c0,.74,.14,1.28,.41,1.64,.27,.36,.73,.54,1.38,.54,.45,0,.86-.11,1.22-.34s.76-.59,1.19-1.1v-5.39h1.31v7.78h-1.07l-.11-1.36h-.06c-.39,.45-.83,.82-1.3,1.11-.47,.29-1,.44-1.6,.44Z"/><path class="cls-3" d="M135.29,237.48c-.38,0-.79-.09-1.22-.28-.43-.19-.83-.45-1.19-.78h-.05l-.11,.86h-1.06v-11.39h1.31v3.1l-.05,1.5h.05c.35-.36,.76-.65,1.22-.86,.46-.21,.92-.32,1.38-.32,.7,0,1.3,.16,1.78,.49,.48,.33,.84,.78,1.09,1.38,.25,.59,.37,1.29,.37,2.09,0,.88-.16,1.64-.49,2.27-.33,.63-.75,1.11-1.29,1.44-.53,.33-1.12,.5-1.74,.5Zm-.21-1.1c.45,0,.85-.12,1.21-.37,.36-.25,.64-.6,.85-1.06s.31-1.02,.31-1.66c0-.57-.08-1.06-.22-1.5s-.38-.77-.7-1.01c-.32-.24-.74-.36-1.26-.36-.35,0-.72,.09-1.11,.28-.39,.19-.78,.48-1.18,.89v3.87c.37,.33,.75,.57,1.13,.7s.71,.21,.98,.21Z"/><path class="cls-3" d="M145.47,237.48c-.82,0-1.45-.24-1.89-.71-.44-.47-.66-1.17-.66-2.09v-7.71h-2.66v-1.07h3.97v8.88c0,.57,.14,.98,.42,1.23s.65,.38,1.1,.38c.22,0,.45-.03,.69-.09,.23-.06,.5-.15,.78-.28l.34,.99c-.35,.13-.68,.24-.99,.33-.31,.09-.68,.14-1.1,.14Z"/><path class="cls-3" d="M152.83,237.29v-6.7h-3.62v-1.07h4.93v7.78h-1.31Zm.51-9.41c-.3,0-.55-.09-.75-.28-.2-.19-.3-.43-.3-.74s.1-.56,.3-.74c.2-.19,.45-.28,.75-.28s.55,.09,.75,.28c.2,.19,.3,.43,.3,.74s-.1,.56-.3,.74c-.2,.19-.45,.28-.75,.28Z"/><path class="cls-3" d="M161.53,237.48c-.76,0-1.47-.12-2.13-.37s-1.23-.53-1.7-.85l.61-.86c.45,.32,.94,.58,1.49,.77,.54,.19,1.17,.29,1.89,.29,.66,0,1.15-.12,1.48-.37,.33-.25,.49-.53,.49-.85,0-.15-.03-.29-.09-.42s-.17-.25-.34-.37c-.17-.12-.41-.23-.73-.34-.32-.11-.75-.21-1.28-.32-1.01-.21-1.77-.5-2.28-.86-.51-.36-.76-.83-.76-1.41,0-.63,.27-1.15,.82-1.58,.54-.42,1.35-.63,2.42-.63,.6,0,1.17,.1,1.73,.3s1.02,.43,1.41,.7l-.64,.85c-.35-.26-.75-.46-1.2-.6-.45-.14-.92-.22-1.41-.22-.45,0-.8,.05-1.06,.15s-.45,.24-.56,.41c-.11,.17-.17,.36-.17,.56,0,.33,.18,.59,.54,.78,.36,.19,.93,.36,1.72,.52,.86,.18,1.53,.38,1.99,.61,.46,.22,.78,.48,.96,.77,.18,.29,.26,.63,.26,1.02,0,.43-.13,.81-.4,1.16s-.66,.63-1.17,.84c-.51,.21-1.14,.32-1.89,.32Z"/><path class="cls-3" d="M166.86,237.29v-11.39h1.31v3.1l-.08,1.84h.05c.39-.43,.83-.79,1.3-1.08,.47-.29,1.01-.44,1.62-.44,.92,0,1.59,.27,2.03,.8s.66,1.31,.66,2.34v4.83h-1.31v-4.66c0-.74-.14-1.28-.42-1.64s-.74-.54-1.38-.54c-.46,0-.87,.12-1.23,.35-.36,.24-.77,.59-1.23,1.06v5.42h-1.31Z"/><path class="cls-3" d="M178.97,231.75c-.35,0-.66-.12-.91-.38-.26-.25-.38-.57-.38-.97s.13-.73,.38-.98c.26-.25,.56-.38,.91-.38s.67,.13,.92,.38,.38,.58,.38,.98-.12,.72-.38,.97c-.25,.25-.56,.38-.92,.38Zm0,5.73c-.35,0-.66-.13-.91-.38-.26-.25-.38-.57-.38-.97s.13-.73,.38-.98,.56-.38,.91-.38,.67,.12,.92,.38c.25,.25,.38,.58,.38,.98s-.12,.72-.38,.97-.56,.38-.92,.38Z"/><path class="cls-3" d="M187.71,240.87c-.76,0-1.4-.09-1.94-.26-.53-.17-.94-.42-1.22-.74-.28-.32-.42-.71-.42-1.17,0-.31,.11-.62,.33-.92,.22-.3,.54-.57,.95-.81v-.06c-.2-.12-.39-.28-.55-.48-.17-.2-.25-.47-.25-.8,0-.25,.08-.5,.24-.76,.16-.26,.39-.49,.69-.7v-.06c-.27-.2-.49-.47-.68-.82-.19-.34-.28-.74-.28-1.2,0-.57,.14-1.06,.42-1.47,.28-.42,.66-.74,1.12-.97,.46-.23,.97-.34,1.51-.34,.44,0,.82,.06,1.15,.19h3.22v1.07h-2.02c.18,.18,.34,.41,.46,.69s.19,.57,.19,.88c0,.55-.13,1.03-.4,1.43-.27,.4-.63,.71-1.08,.92-.45,.21-.96,.32-1.53,.32-.2,0-.42-.02-.65-.07s-.45-.12-.66-.22c-.19,.12-.34,.25-.45,.4-.11,.15-.16,.31-.16,.5,0,.3,.14,.52,.42,.67,.28,.15,.68,.22,1.19,.22h1.74c1,0,1.75,.14,2.23,.42s.73,.75,.73,1.41c0,.48-.18,.93-.53,1.34-.35,.42-.85,.75-1.5,1s-1.41,.38-2.3,.38Zm.1-.96c.61,0,1.13-.08,1.57-.22,.44-.15,.77-.34,1.01-.58,.23-.24,.35-.49,.35-.75,0-.37-.15-.62-.44-.75-.29-.13-.74-.19-1.34-.19h-1.52c-.22,0-.43-.01-.63-.03s-.38-.05-.55-.1c-.36,.2-.62,.41-.77,.63s-.22,.44-.22,.66c0,.41,.22,.73,.65,.97,.43,.24,1.06,.36,1.9,.36Zm-.18-5.97c.33,0,.63-.08,.9-.22,.27-.15,.49-.36,.65-.64s.24-.6,.24-.98-.08-.68-.24-.95c-.16-.27-.38-.49-.65-.64-.27-.15-.57-.23-.9-.23s-.62,.08-.89,.23c-.27,.16-.49,.37-.66,.64-.17,.27-.25,.59-.25,.95s.08,.7,.25,.98c.17,.28,.38,.49,.66,.64,.27,.15,.57,.22,.89,.22Z"/><path class="cls-3" d="M196.82,237.29v-6.7h-3.62v-1.07h4.93v7.78h-1.31Zm.51-9.41c-.3,0-.55-.09-.75-.28-.2-.19-.3-.43-.3-.74s.1-.56,.3-.74c.2-.19,.45-.28,.75-.28s.55,.09,.75,.28c.2,.19,.3,.43,.3,.74s-.1,.56-.3,.74c-.2,.19-.45,.28-.75,.28Z"/><path class="cls-3" d="M206.87,237.48c-.76,0-1.35-.14-1.79-.41-.44-.27-.75-.65-.94-1.13-.19-.48-.28-1.04-.28-1.68v-3.68h-2.19v-.99l2.24-.08,.18-2.5h1.09v2.5h3.82v1.07h-3.82v3.7c0,.46,.06,.85,.18,1.17,.12,.32,.32,.56,.61,.72s.68,.24,1.18,.24c.37,0,.71-.03,1.01-.1,.3-.06,.59-.15,.86-.26l.29,.96c-.35,.13-.72,.24-1.11,.33-.39,.09-.83,.14-1.32,.14Z"/><path class="cls-3" d="M210.86,237.29v-11.39h1.31v3.1l-.08,1.84h.05c.39-.43,.83-.79,1.3-1.08,.47-.29,1.01-.44,1.62-.44,.92,0,1.59,.27,2.03,.8s.66,1.31,.66,2.34v4.83h-1.31v-4.66c0-.74-.14-1.28-.42-1.64s-.74-.54-1.38-.54c-.46,0-.87,.12-1.23,.35-.36,.24-.77,.59-1.23,1.06v5.42h-1.31Z"/><path class="cls-3" d="M222.1,237.48c-.93,0-1.61-.27-2.05-.8-.44-.53-.66-1.31-.66-2.34v-4.83h1.33v4.66c0,.74,.14,1.28,.41,1.64,.27,.36,.73,.54,1.38,.54,.45,0,.86-.11,1.22-.34s.76-.59,1.19-1.1v-5.39h1.31v7.78h-1.07l-.11-1.36h-.06c-.39,.45-.83,.82-1.3,1.11-.47,.29-1,.44-1.6,.44Z"/><path class="cls-3" d="M232.09,237.48c-.38,0-.79-.09-1.22-.28-.43-.19-.83-.45-1.19-.78h-.05l-.11,.86h-1.06v-11.39h1.31v3.1l-.05,1.5h.05c.35-.36,.76-.65,1.22-.86,.46-.21,.92-.32,1.38-.32,.7,0,1.3,.16,1.78,.49,.48,.33,.84,.78,1.09,1.38,.25,.59,.37,1.29,.37,2.09,0,.88-.16,1.64-.49,2.27-.33,.63-.75,1.11-1.29,1.44-.53,.33-1.12,.5-1.74,.5Zm-.21-1.1c.45,0,.85-.12,1.21-.37,.36-.25,.64-.6,.85-1.06s.31-1.02,.31-1.66c0-.57-.08-1.06-.22-1.5s-.38-.77-.7-1.01c-.32-.24-.74-.36-1.26-.36-.35,0-.72,.09-1.11,.28-.39,.19-.78,.48-1.18,.89v3.87c.37,.33,.75,.57,1.13,.7s.71,.21,.98,.21Z"/><path class="cls-3" d="M240.57,231.75c-.35,0-.66-.12-.91-.38-.26-.25-.38-.57-.38-.97s.13-.73,.38-.98c.26-.25,.56-.38,.91-.38s.67,.13,.92,.38,.38,.58,.38,.98-.12,.72-.38,.97c-.25,.25-.56,.38-.92,.38Zm0,5.73c-.35,0-.66-.13-.91-.38-.26-.25-.38-.57-.38-.97s.13-.73,.38-.98,.56-.38,.91-.38,.67,.12,.92,.38c.25,.25,.38,.58,.38,.98s-.12,.72-.38,.97-.56,.38-.92,.38Z"/><path class="cls-3" d="M246.05,240.57v-11.06h1.09l.11,.99h.05c.36-.34,.78-.62,1.26-.85,.47-.22,.95-.34,1.43-.34,.7,0,1.29,.16,1.77,.49,.47,.33,.83,.78,1.08,1.38,.25,.59,.37,1.29,.37,2.1,0,.88-.17,1.63-.5,2.26-.33,.63-.76,1.11-1.3,1.44-.53,.33-1.11,.5-1.74,.5-.35,0-.74-.09-1.16-.26-.42-.18-.81-.42-1.16-.74h-.05l.06,1.47v2.62h-1.31Zm3.39-4.19c.46,0,.87-.12,1.23-.37,.36-.25,.65-.6,.86-1.06s.31-1.02,.31-1.66c0-.57-.08-1.06-.22-1.5s-.38-.77-.7-1.01c-.32-.24-.74-.36-1.26-.36-.35,0-.72,.09-1.11,.28-.39,.19-.78,.48-1.18,.89v3.87c.37,.33,.75,.57,1.13,.7s.7,.21,.95,.21Z"/><path class="cls-3" d="M257.3,237.48c-.93,0-1.61-.27-2.05-.8-.44-.53-.66-1.31-.66-2.34v-4.83h1.33v4.66c0,.74,.14,1.28,.41,1.64,.27,.36,.73,.54,1.38,.54,.45,0,.86-.11,1.22-.34s.76-.59,1.19-1.1v-5.39h1.31v7.78h-1.07l-.11-1.36h-.06c-.39,.45-.83,.82-1.3,1.11-.47,.29-1,.44-1.6,.44Z"/><path class="cls-3" d="M268.66,237.48c-.82,0-1.45-.24-1.89-.71-.44-.47-.66-1.17-.66-2.09v-7.71h-2.66v-1.07h3.97v8.88c0,.57,.14,.98,.42,1.23s.65,.38,1.1,.38c.22,0,.45-.03,.69-.09,.23-.06,.5-.15,.78-.28l.34,.99c-.35,.13-.68,.24-.99,.33-.31,.09-.68,.14-1.1,.14Z"/><path class="cls-3" d="M277.46,237.48c-.82,0-1.45-.24-1.89-.71-.44-.47-.66-1.17-.66-2.09v-7.71h-2.66v-1.07h3.97v8.88c0,.57,.14,.98,.42,1.23s.65,.38,1.1,.38c.22,0,.45-.03,.69-.09,.23-.06,.5-.15,.78-.28l.34,.99c-.35,.13-.68,.24-.99,.33-.31,.09-.68,.14-1.1,.14Z"/><path class="cls-3" d="M281.12,232.5v-.99h6.88v.99h-6.88Z"/><path class="cls-3" d="M290.9,237.29v-7.78h1.09l.11,1.84h.05c.41-.63,.91-1.13,1.5-1.49s1.25-.54,1.97-.54c.29,0,.56,.02,.81,.07,.25,.05,.49,.13,.73,.25l-.3,1.14c-.27-.1-.5-.17-.69-.21-.19-.04-.44-.06-.75-.06-.59,0-1.15,.17-1.69,.5-.54,.34-1.04,.91-1.51,1.72v4.56h-1.31Z"/><path class="cls-3" d="M302.64,237.48c-.78,0-1.49-.16-2.12-.48s-1.14-.79-1.51-1.4c-.37-.61-.56-1.35-.56-2.22s.19-1.57,.56-2.18c.37-.61,.86-1.07,1.46-1.4,.6-.33,1.25-.49,1.94-.49,.75,0,1.38,.15,1.91,.46,.53,.3,.93,.73,1.22,1.27,.28,.54,.42,1.18,.42,1.92,0,.15,0,.29-.02,.43s-.03,.26-.05,.37h-6.58v-1.02h5.79l-.34,.37c0-.92-.21-1.61-.63-2.06-.42-.46-.99-.69-1.7-.69-.48,0-.93,.12-1.34,.35-.41,.24-.74,.58-.98,1.02-.25,.45-.37,1-.37,1.65s.13,1.23,.4,1.68c.27,.45,.63,.79,1.09,1.02,.46,.23,.98,.34,1.55,.34,.47,0,.89-.07,1.27-.2,.38-.13,.74-.31,1.1-.54l.48,.86c-.38,.26-.82,.47-1.32,.66s-1.06,.27-1.69,.27Z"/><path class="cls-3" d="M312.96,240.57v-2.83l.06-1.44h-.05c-.31,.33-.68,.61-1.12,.84-.44,.23-.9,.34-1.38,.34-1,0-1.81-.35-2.43-1.06-.62-.71-.93-1.71-.93-3,0-.84,.17-1.57,.5-2.18s.77-1.09,1.31-1.42c.54-.33,1.11-.5,1.72-.5,.47,0,.9,.09,1.28,.26,.38,.18,.76,.44,1.12,.79h.05l.11-.86h1.06v11.06h-1.31Zm-2.19-4.19c.38,0,.76-.1,1.12-.3,.36-.2,.72-.49,1.07-.87v-3.87c-.35-.33-.7-.57-1.03-.7s-.67-.21-1.02-.21c-.45,0-.86,.13-1.22,.38-.37,.25-.66,.6-.88,1.04-.22,.44-.33,.96-.33,1.56,0,.93,.2,1.66,.61,2.18s.97,.79,1.68,.79Z"/><path class="cls-3" d="M318.9,237.48c-.93,0-1.61-.27-2.05-.8-.44-.53-.66-1.31-.66-2.34v-4.83h1.33v4.66c0,.74,.14,1.28,.41,1.64,.27,.36,.73,.54,1.38,.54,.45,0,.86-.11,1.22-.34s.76-.59,1.19-1.1v-5.39h1.31v7.78h-1.07l-.11-1.36h-.06c-.39,.45-.83,.82-1.3,1.11-.47,.29-1,.44-1.6,.44Z"/><path class="cls-3" d="M329.04,237.48c-.78,0-1.49-.16-2.12-.48s-1.14-.79-1.51-1.4c-.37-.61-.56-1.35-.56-2.22s.19-1.57,.56-2.18c.37-.61,.86-1.07,1.46-1.4,.6-.33,1.25-.49,1.94-.49,.75,0,1.38,.15,1.91,.46,.53,.3,.93,.73,1.22,1.27,.28,.54,.42,1.18,.42,1.92,0,.15,0,.29-.02,.43s-.03,.26-.05,.37h-6.58v-1.02h5.79l-.34,.37c0-.92-.21-1.61-.63-2.06-.42-.46-.99-.69-1.7-.69-.48,0-.93,.12-1.34,.35-.41,.24-.74,.58-.98,1.02-.25,.45-.37,1-.37,1.65s.13,1.23,.4,1.68c.27,.45,.63,.79,1.09,1.02,.46,.23,.98,.34,1.55,.34,.47,0,.89-.07,1.27-.2,.38-.13,.74-.31,1.1-.54l.48,.86c-.38,.26-.82,.47-1.32,.66s-1.06,.27-1.69,.27Z"/><path class="cls-3" d="M337.52,237.48c-.76,0-1.47-.12-2.13-.37s-1.23-.53-1.7-.85l.61-.86c.45,.32,.94,.58,1.49,.77,.54,.19,1.17,.29,1.89,.29,.66,0,1.15-.12,1.48-.37,.33-.25,.49-.53,.49-.85,0-.15-.03-.29-.09-.42s-.17-.25-.34-.37c-.17-.12-.41-.23-.73-.34-.32-.11-.75-.21-1.28-.32-1.01-.21-1.77-.5-2.28-.86-.51-.36-.76-.83-.76-1.41,0-.63,.27-1.15,.82-1.58,.54-.42,1.35-.63,2.42-.63,.6,0,1.17,.1,1.73,.3s1.02,.43,1.41,.7l-.64,.85c-.35-.26-.75-.46-1.2-.6-.45-.14-.92-.22-1.41-.22-.45,0-.8,.05-1.06,.15s-.45,.24-.56,.41c-.11,.17-.17,.36-.17,.56,0,.33,.18,.59,.54,.78,.36,.19,.93,.36,1.72,.52,.86,.18,1.53,.38,1.99,.61,.46,.22,.78,.48,.96,.77,.18,.29,.26,.63,.26,1.02,0,.43-.13,.81-.4,1.16s-.66,.63-1.17,.84c-.51,.21-1.14,.32-1.89,.32Z"/><path class="cls-3" d="M347.67,237.48c-.76,0-1.35-.14-1.79-.41-.44-.27-.75-.65-.94-1.13-.19-.48-.28-1.04-.28-1.68v-3.68h-2.19v-.99l2.24-.08,.18-2.5h1.09v2.5h3.82v1.07h-3.82v3.7c0,.46,.06,.85,.18,1.17,.12,.32,.32,.56,.61,.72s.68,.24,1.18,.24c.37,0,.71-.03,1.01-.1,.3-.06,.59-.15,.86-.26l.29,.96c-.35,.13-.72,.24-1.11,.33-.39,.09-.83,.14-1.32,.14Z"/><path class="cls-4" d="M47.23,261.29v-6.7h-3.62v-1.07h4.93v7.78h-1.31Zm.51-9.41c-.3,0-.55-.09-.75-.28-.2-.19-.3-.43-.3-.74s.1-.56,.3-.74c.2-.19,.45-.28,.75-.28s.55,.09,.75,.28c.2,.19,.3,.43,.3,.74s-.1,.56-.3,.74c-.2,.19-.45,.28-.75,.28Z"/><path class="cls-4" d="M52.46,261.29v-7.78h1.09l.11,1.33h.06c.41-.44,.84-.8,1.31-1.09,.47-.29,1.01-.43,1.62-.43,.92,0,1.59,.27,2.03,.8s.66,1.31,.66,2.34v4.83h-1.31v-4.66c0-.74-.14-1.28-.42-1.64s-.74-.54-1.38-.54c-.46,0-.87,.12-1.23,.35-.36,.24-.77,.59-1.23,1.06v5.42h-1.31Z"/><path class="cls-4" d="M61.26,264.57v-11.06h1.09l.11,.99h.05c.36-.34,.78-.62,1.26-.85,.47-.22,.95-.34,1.43-.34,.7,0,1.29,.16,1.77,.49,.47,.33,.83,.78,1.08,1.38,.25,.59,.37,1.29,.37,2.1,0,.88-.17,1.63-.5,2.26-.33,.63-.76,1.11-1.3,1.44-.53,.33-1.11,.5-1.74,.5-.35,0-.74-.09-1.16-.26-.42-.18-.81-.42-1.16-.74h-.05l.06,1.47v2.62h-1.31Zm3.39-4.19c.46,0,.87-.12,1.23-.37,.36-.25,.65-.6,.86-1.06s.31-1.02,.31-1.66c0-.57-.08-1.06-.22-1.5s-.38-.77-.7-1.01c-.32-.24-.74-.36-1.26-.36-.35,0-.72,.09-1.11,.28-.39,.19-.78,.48-1.18,.89v3.87c.37,.33,.75,.57,1.13,.7s.7,.21,.95,.21Z"/><path class="cls-4" d="M72.51,261.48c-.93,0-1.61-.27-2.05-.8-.44-.53-.66-1.31-.66-2.34v-4.83h1.33v4.66c0,.74,.14,1.28,.41,1.64,.27,.36,.73,.54,1.38,.54,.45,0,.86-.11,1.22-.34s.76-.59,1.19-1.1v-5.39h1.31v7.78h-1.07l-.11-1.36h-.06c-.39,.45-.83,.82-1.3,1.11-.47,.29-1,.44-1.6,.44Z"/><path class="cls-4" d="M83.68,261.48c-.76,0-1.35-.14-1.79-.41-.44-.27-.75-.65-.94-1.13-.19-.48-.28-1.04-.28-1.68v-3.68h-2.19v-.99l2.24-.08,.18-2.5h1.09v2.5h3.82v1.07h-3.82v3.7c0,.46,.06,.85,.18,1.17,.12,.32,.32,.56,.61,.72s.68,.24,1.18,.24c.37,0,.71-.03,1.01-.1,.3-.06,.59-.15,.86-.26l.29,.96c-.35,.13-.72,.24-1.11,.33-.39,.09-.83,.14-1.32,.14Z"/><path class="cls-4" d="M90.97,255.75c-.35,0-.66-.12-.91-.38-.26-.25-.38-.57-.38-.97s.13-.73,.38-.98c.26-.25,.56-.38,.91-.38s.67,.13,.92,.38,.38,.58,.38,.98-.12,.72-.38,.97c-.25,.25-.56,.38-.92,.38Zm0,5.73c-.35,0-.66-.13-.91-.38-.26-.25-.38-.57-.38-.97s.13-.73,.38-.98,.56-.38,.91-.38,.67,.12,.92,.38c.25,.25,.38,.58,.38,.98s-.12,.72-.38,.97-.56,.38-.92,.38Z"/><path class="cls-4" d="M62.11,285.29v-7.78h1.09l.11,1.84h.05c.41-.63,.91-1.13,1.5-1.49s1.25-.54,1.97-.54c.29,0,.56,.02,.81,.07,.25,.05,.49,.13,.73,.25l-.3,1.14c-.27-.1-.5-.17-.69-.21-.19-.04-.44-.06-.75-.06-.59,0-1.15,.17-1.69,.5-.54,.34-1.04,.91-1.51,1.72v4.56h-1.31Z"/><path class="cls-4" d="M73.85,285.48c-.78,0-1.49-.16-2.12-.48s-1.14-.79-1.51-1.4c-.37-.61-.56-1.35-.56-2.22s.19-1.57,.56-2.18c.37-.61,.86-1.07,1.46-1.4,.6-.33,1.25-.49,1.94-.49,.75,0,1.38,.15,1.91,.46,.53,.3,.93,.73,1.22,1.27,.28,.54,.42,1.18,.42,1.92,0,.15,0,.29-.02,.43s-.03,.26-.05,.37h-6.58v-1.02h5.79l-.34,.37c0-.92-.21-1.61-.63-2.06-.42-.46-.99-.69-1.7-.69-.48,0-.93,.12-1.34,.35-.41,.24-.74,.58-.98,1.02-.25,.45-.37,1-.37,1.65s.13,1.23,.4,1.68c.27,.45,.63,.79,1.09,1.02,.46,.23,.98,.34,1.55,.34,.47,0,.89-.07,1.27-.2,.38-.13,.74-.31,1.1-.54l.48,.86c-.38,.26-.82,.47-1.32,.66s-1.06,.27-1.69,.27Z"/><path class="cls-4" d="M78.86,288.57v-11.06h1.09l.11,.99h.05c.36-.34,.78-.62,1.26-.85,.47-.22,.95-.34,1.43-.34,.7,0,1.29,.16,1.77,.49,.47,.33,.83,.78,1.08,1.38,.25,.59,.37,1.29,.37,2.1,0,.88-.17,1.63-.5,2.26-.33,.63-.76,1.11-1.3,1.44-.53,.33-1.11,.5-1.74,.5-.35,0-.74-.09-1.16-.26-.42-.18-.81-.42-1.16-.74h-.05l.06,1.47v2.62h-1.31Zm3.39-4.19c.46,0,.87-.12,1.23-.37,.36-.25,.65-.6,.86-1.06s.31-1.02,.31-1.66c0-.57-.08-1.06-.22-1.5s-.38-.77-.7-1.01c-.32-.24-.74-.36-1.26-.36-.35,0-.72,.09-1.11,.28-.39,.19-.78,.48-1.18,.89v3.87c.37,.33,.75,.57,1.13,.7s.7,.21,.95,.21Z"/><path class="cls-4" d="M90.97,285.48c-.68,0-1.31-.16-1.9-.48-.58-.32-1.05-.78-1.41-1.39-.36-.61-.54-1.34-.54-2.19s.18-1.62,.54-2.22c.36-.61,.83-1.07,1.41-1.39,.58-.32,1.21-.48,1.9-.48s1.31,.16,1.9,.48c.58,.32,1.05,.78,1.41,1.39,.36,.61,.54,1.35,.54,2.22s-.18,1.58-.54,2.19c-.36,.61-.83,1.07-1.41,1.39-.58,.32-1.21,.48-1.9,.48Zm0-1.09c.5,0,.94-.12,1.31-.38,.37-.25,.66-.6,.86-1.05,.2-.45,.3-.96,.3-1.55s-.1-1.12-.3-1.58c-.2-.45-.49-.8-.86-1.06-.37-.25-.81-.38-1.31-.38s-.94,.12-1.3,.38-.66,.6-.86,1.06c-.21,.45-.31,.98-.31,1.58s.1,1.1,.31,1.55c.21,.45,.5,.8,.86,1.05,.37,.25,.8,.38,1.3,.38Z"/><path class="cls-4" d="M99.79,285.48c-.51,0-.98-.08-1.42-.23-.43-.15-.81-.39-1.13-.72-.32-.33-.57-.75-.74-1.29-.18-.53-.26-1.17-.26-1.92v-6.53h1.34v6.56c0,.72,.1,1.3,.29,1.74,.19,.43,.46,.74,.79,.94,.34,.19,.71,.29,1.13,.29s.81-.1,1.14-.29c.34-.19,.6-.5,.79-.94,.19-.43,.29-1.01,.29-1.74v-6.56h1.3v6.53c0,.75-.09,1.39-.26,1.92s-.42,.96-.74,1.29-.69,.57-1.11,.72-.9,.23-1.41,.23Z"/><path class="cls-4" d="M106.11,285.29v-7.78h1.09l.11,1.84h.05c.41-.63,.91-1.13,1.5-1.49s1.25-.54,1.97-.54c.29,0,.56,.02,.81,.07,.25,.05,.49,.13,.73,.25l-.3,1.14c-.27-.1-.5-.17-.69-.21-.19-.04-.44-.06-.75-.06-.59,0-1.15,.17-1.69,.5-.54,.34-1.04,.91-1.51,1.72v4.56h-1.31Z"/><path class="cls-4" d="M119.07,285.48c-.82,0-1.45-.24-1.89-.71-.44-.47-.66-1.17-.66-2.09v-7.71h-2.66v-1.07h3.97v8.88c0,.57,.14,.98,.42,1.23s.65,.38,1.1,.38c.22,0,.45-.03,.69-.09,.23-.06,.5-.15,.78-.28l.34,.99c-.35,.13-.68,.24-.99,.33-.31,.09-.68,.14-1.1,.14Z"/><path class="cls-4" d="M126.17,279.75c-.35,0-.66-.12-.91-.38-.26-.25-.38-.57-.38-.97s.13-.73,.38-.98c.26-.25,.56-.38,.91-.38s.67,.13,.92,.38,.38,.58,.38,.98-.12,.72-.38,.97c-.25,.25-.56,.38-.92,.38Zm0,5.73c-.35,0-.66-.13-.91-.38-.26-.25-.38-.57-.38-.97s.13-.73,.38-.98,.56-.38,.91-.38,.67,.12,.92,.38c.25,.25,.38,.58,.38,.98s-.12,.72-.38,.97-.56,.38-.92,.38Z"/><path class="cls-2" d="M140.15,283.46l.83-1.26c.46,.3,.93,.55,1.4,.74s.98,.3,1.53,.3c.51,0,.9-.1,1.16-.29,.26-.19,.39-.45,.39-.77,0-.28-.12-.51-.35-.7-.23-.19-.54-.35-.9-.5s-.76-.3-1.18-.46-.81-.34-1.18-.56c-.37-.22-.67-.49-.9-.81-.24-.32-.35-.72-.35-1.2,0-.52,.14-.98,.42-1.36,.28-.38,.67-.68,1.18-.89s1.09-.31,1.74-.31c.73,0,1.33,.12,1.82,.37,.49,.25,.91,.55,1.29,.93l-.93,1.07c-.37-.28-.73-.49-1.06-.64s-.75-.22-1.24-.22c-.44,0-.78,.09-1.04,.27-.26,.18-.38,.43-.38,.75,0,.24,.12,.44,.35,.61s.54,.33,.91,.46,.77,.29,1.18,.44c.41,.15,.8,.34,1.17,.57,.37,.22,.67,.5,.91,.82,.24,.33,.36,.73,.36,1.22,0,.52-.15,.99-.44,1.39-.29,.41-.7,.72-1.23,.95-.53,.23-1.17,.34-1.91,.34-.41,0-.82-.06-1.26-.17-.43-.11-.84-.26-1.23-.46s-.73-.41-1.03-.66Zm3.06-7.46v-2.66h1.28v2.66h-1.28Zm0,8.02h1.28v3.02h-1.28v-3.02Z"/><path class="cls-2" d="M154.65,287.72c-1.01,0-1.76-.16-2.25-.47s-.73-.89-.73-1.74c0-.38,.01-.73,.04-1.03,.03-.3,.05-.61,.08-.9,.03-.3,.04-.62,.04-.98,0-.19-.06-.38-.19-.56s-.35-.33-.68-.46c-.33-.12-.79-.18-1.38-.18v-1.12c.6,0,1.06-.06,1.38-.18,.33-.12,.55-.27,.68-.46,.13-.18,.19-.37,.19-.56,0-.34-.01-.66-.04-.97-.03-.3-.05-.61-.08-.92-.03-.31-.04-.65-.04-1.02,0-.84,.24-1.42,.73-1.74,.49-.31,1.23-.47,2.25-.47h1.1v1.01h-.74c-.49,0-.87,.04-1.13,.12-.26,.08-.44,.21-.54,.4s-.14,.44-.14,.76c0,.44,.01,.88,.04,1.34,.03,.45,.04,.93,.04,1.42,0,.57-.11,.98-.34,1.26-.22,.27-.62,.46-1.18,.55v.06c.57,.1,.96,.28,1.18,.55,.22,.27,.34,.69,.34,1.26,0,.51-.01,.98-.04,1.42-.03,.43-.04,.88-.04,1.34,0,.32,.05,.57,.14,.76,.1,.19,.27,.32,.54,.4,.26,.08,.64,.12,1.13,.12h.74v1.01h-1.1Z"/><path class="cls-2" d="M163.45,287.72c-1.01,0-1.76-.16-2.25-.47s-.73-.89-.73-1.74c0-.38,.01-.73,.04-1.03,.03-.3,.05-.61,.08-.9,.03-.3,.04-.62,.04-.98,0-.19-.06-.38-.19-.56s-.35-.33-.68-.46c-.33-.12-.79-.18-1.38-.18v-1.12c.6,0,1.06-.06,1.38-.18,.33-.12,.55-.27,.68-.46,.13-.18,.19-.37,.19-.56,0-.34-.01-.66-.04-.97-.03-.3-.05-.61-.08-.92-.03-.31-.04-.65-.04-1.02,0-.84,.24-1.42,.73-1.74,.49-.31,1.23-.47,2.25-.47h1.1v1.01h-.74c-.49,0-.87,.04-1.13,.12-.26,.08-.44,.21-.54,.4s-.14,.44-.14,.76c0,.44,.01,.88,.04,1.34,.03,.45,.04,.93,.04,1.42,0,.57-.11,.98-.34,1.26-.22,.27-.62,.46-1.18,.55v.06c.57,.1,.96,.28,1.18,.55,.22,.27,.34,.69,.34,1.26,0,.51-.01,.98-.04,1.42-.03,.43-.04,.88-.04,1.34,0,.32,.05,.57,.14,.76,.1,.19,.27,.32,.54,.4,.26,.08,.64,.12,1.13,.12h.74v1.01h-1.1Z"/><path class="cls-1" d="M175.48,288.39v-10.96h1.52l.14,.9h.05c.34-.32,.73-.58,1.18-.78,.44-.2,.89-.3,1.34-.3,.69,0,1.27,.17,1.74,.5,.47,.33,.83,.79,1.09,1.39,.26,.6,.38,1.3,.38,2.11,0,.9-.17,1.66-.5,2.29-.33,.63-.76,1.11-1.29,1.45-.53,.34-1.1,.5-1.7,.5-.35,0-.72-.08-1.1-.24s-.73-.39-1.05-.69h-.05l.1,1.38v2.46h-1.86Zm3.57-4.43c.37,0,.71-.1,1.01-.3,.3-.2,.53-.5,.7-.9,.17-.4,.26-.9,.26-1.5,0-.52-.06-.97-.19-1.34s-.32-.66-.58-.86c-.26-.2-.61-.3-1.05-.3-.3,0-.6,.08-.91,.22-.31,.15-.62,.39-.94,.72v3.54c.29,.26,.59,.44,.9,.55,.31,.11,.58,.17,.82,.17Z"/><path class="cls-1" d="M186.73,285.48c-.51,0-.96-.1-1.36-.3-.4-.2-.7-.47-.93-.81-.22-.34-.34-.74-.34-1.2,0-.87,.42-1.54,1.26-2.01,.84-.46,2.23-.76,4.17-.9-.02-.29-.1-.55-.23-.78-.13-.24-.33-.42-.6-.55-.27-.13-.61-.2-1.04-.2-.3,0-.59,.04-.88,.11-.29,.08-.57,.18-.86,.3-.28,.13-.56,.27-.84,.42l-.67-1.23c.32-.19,.67-.37,1.06-.54,.38-.17,.79-.3,1.22-.4,.43-.1,.86-.15,1.31-.15,.74,0,1.35,.13,1.85,.39,.5,.26,.87,.65,1.14,1.15s.39,1.12,.39,1.85v4.66h-1.5l-.14-.98h-.05c-.42,.32-.88,.59-1.38,.82-.51,.23-1.03,.34-1.56,.34Zm.56-1.44c.39,0,.78-.09,1.14-.26,.37-.18,.73-.41,1.1-.7v-1.66c-.94,.06-1.67,.17-2.21,.31-.53,.14-.91,.33-1.12,.55-.21,.22-.32,.47-.32,.75,0,.23,.06,.43,.19,.58,.13,.15,.3,.26,.5,.33s.45,.1,.71,.1Z"/><path class="cls-1" d="M193.85,285.29v-7.86h1.52l.16,1.78h.05c.39-.64,.88-1.13,1.46-1.46,.58-.34,1.21-.5,1.88-.5,.32,0,.6,.03,.83,.08,.23,.05,.46,.13,.69,.24l-.38,1.55c-.26-.09-.48-.15-.68-.18-.2-.04-.45-.06-.74-.06-.53,0-1.05,.15-1.56,.46s-.96,.85-1.37,1.62v4.34h-1.86Z"/><path class="cls-1" d="M204.33,285.48c-.51,0-.96-.1-1.36-.3-.4-.2-.7-.47-.93-.81-.22-.34-.34-.74-.34-1.2,0-.87,.42-1.54,1.26-2.01,.84-.46,2.23-.76,4.17-.9-.02-.29-.1-.55-.23-.78-.13-.24-.33-.42-.6-.55-.27-.13-.61-.2-1.04-.2-.3,0-.59,.04-.88,.11-.29,.08-.57,.18-.86,.3-.28,.13-.56,.27-.84,.42l-.67-1.23c.32-.19,.67-.37,1.06-.54,.38-.17,.79-.3,1.22-.4,.43-.1,.86-.15,1.31-.15,.74,0,1.35,.13,1.85,.39,.5,.26,.87,.65,1.14,1.15s.39,1.12,.39,1.85v4.66h-1.5l-.14-.98h-.05c-.42,.32-.88,.59-1.38,.82-.51,.23-1.03,.34-1.56,.34Zm.56-1.44c.39,0,.78-.09,1.14-.26,.37-.18,.73-.41,1.1-.7v-1.66c-.94,.06-1.67,.17-2.21,.31-.53,.14-.91,.33-1.12,.55-.21,.22-.32,.47-.32,.75,0,.23,.06,.43,.19,.58,.13,.15,.3,.26,.5,.33s.45,.1,.71,.1Z"/><path class="cls-1" d="M210.1,285.29v-7.86h1.42l.14,1.01h.03c.18-.35,.41-.64,.67-.86s.62-.34,1.07-.34c.37,0,.68,.11,.92,.34s.41,.55,.52,.99c.18-.39,.41-.71,.7-.96s.65-.37,1.1-.37c.55,0,.98,.22,1.29,.65,.3,.43,.46,1.04,.46,1.83v5.57h-1.79v-5.44c0-.69-.2-1.04-.61-1.04-.21,0-.39,.08-.54,.24-.14,.16-.3,.41-.46,.75v5.49h-1.52v-5.44c0-.34-.05-.6-.15-.78-.1-.18-.26-.26-.49-.26-.2,0-.38,.08-.53,.24s-.3,.41-.45,.75v5.49h-1.79Z"/><path class="cls-1" d="M223.45,285.48c-.8,0-1.53-.16-2.18-.49-.65-.33-1.17-.8-1.55-1.42-.38-.62-.58-1.36-.58-2.22s.19-1.59,.58-2.2,.89-1.09,1.5-1.42c.62-.33,1.28-.5,1.98-.5,.78,0,1.44,.16,1.98,.48,.54,.32,.95,.76,1.23,1.32,.28,.56,.42,1.2,.42,1.93,0,.18,0,.36-.02,.53-.01,.17-.03,.3-.05,.4h-6.3v-1.3h5.1l-.35,.4c0-.78-.17-1.37-.52-1.76s-.83-.59-1.45-.59c-.44,0-.83,.1-1.18,.31s-.62,.51-.82,.91c-.2,.4-.3,.89-.3,1.46,0,.62,.11,1.13,.34,1.53,.23,.4,.55,.7,.96,.9,.41,.2,.89,.3,1.43,.3,.42,0,.8-.06,1.15-.18,.35-.12,.7-.28,1.06-.48l.62,1.15c-.42,.27-.89,.49-1.42,.66-.53,.18-1.08,.26-1.66,.26Z"/><path class="cls-1" d="M233.22,285.48c-.8,0-1.43-.14-1.9-.42-.47-.28-.8-.67-1.01-1.18-.2-.5-.3-1.08-.3-1.74v-3.23h-2.08v-1.38l2.14-.1,.26-2.46h1.5v2.46h3.6v1.47h-3.6v3.22c0,.43,.06,.78,.18,1.06,.12,.28,.31,.49,.58,.62,.27,.13,.63,.2,1.06,.2,.34,0,.65-.03,.93-.08,.28-.05,.54-.13,.78-.22l.38,1.33c-.35,.12-.73,.22-1.14,.31-.41,.09-.87,.14-1.38,.14Z"/><path class="cls-1" d="M241.05,285.48c-.8,0-1.53-.16-2.18-.49-.65-.33-1.17-.8-1.55-1.42-.38-.62-.58-1.36-.58-2.22s.19-1.59,.58-2.2,.89-1.09,1.5-1.42c.62-.33,1.28-.5,1.98-.5,.78,0,1.44,.16,1.98,.48,.54,.32,.95,.76,1.23,1.32,.28,.56,.42,1.2,.42,1.93,0,.18,0,.36-.02,.53-.01,.17-.03,.3-.05,.4h-6.3v-1.3h5.1l-.35,.4c0-.78-.17-1.37-.52-1.76s-.83-.59-1.45-.59c-.44,0-.83,.1-1.18,.31s-.62,.51-.82,.91c-.2,.4-.3,.89-.3,1.46,0,.62,.11,1.13,.34,1.53,.23,.4,.55,.7,.96,.9,.41,.2,.89,.3,1.43,.3,.42,0,.8-.06,1.15-.18,.35-.12,.7-.28,1.06-.48l.62,1.15c-.42,.27-.89,.49-1.42,.66-.53,.18-1.08,.26-1.66,.26Z"/><path class="cls-1" d="M246.65,285.29v-7.86h1.52l.16,1.78h.05c.39-.64,.88-1.13,1.46-1.46,.58-.34,1.21-.5,1.88-.5,.32,0,.6,.03,.83,.08,.23,.05,.46,.13,.69,.24l-.38,1.55c-.26-.09-.48-.15-.68-.18-.2-.04-.45-.06-.74-.06-.53,0-1.05,.15-1.56,.46s-.96,.85-1.37,1.62v4.34h-1.86Z"/><path class="cls-1" d="M258.21,285.48c-.74,0-1.44-.12-2.11-.36s-1.25-.53-1.74-.86l.8-1.17c.47,.31,.98,.55,1.52,.73,.54,.18,1.14,.26,1.78,.26,.54,0,.95-.09,1.21-.28,.26-.19,.39-.41,.39-.66,0-.13-.03-.25-.09-.35s-.16-.21-.31-.3-.37-.18-.66-.26c-.29-.09-.66-.18-1.12-.27-1.04-.22-1.81-.53-2.3-.91-.49-.38-.74-.87-.74-1.46,0-.69,.3-1.26,.9-1.7s1.45-.66,2.55-.66c.65,0,1.26,.11,1.83,.32,.57,.21,1.05,.45,1.45,.72l-.85,1.14c-.37-.26-.78-.45-1.23-.58-.45-.13-.9-.2-1.36-.2-.35,0-.63,.04-.84,.11s-.36,.18-.46,.31c-.1,.13-.15,.28-.15,.44,0,.28,.16,.49,.48,.62s.84,.29,1.57,.45c.84,.18,1.49,.39,1.95,.62,.46,.23,.78,.49,.95,.78,.18,.29,.26,.65,.26,1.08,0,.45-.14,.86-.42,1.22-.28,.37-.7,.66-1.24,.88-.54,.22-1.22,.33-2.02,.33Z"/><path class="cls-1" d="M266.96,285.48c-.45,0-.82-.16-1.13-.46-.3-.31-.46-.69-.46-1.15s.15-.86,.46-1.16,.68-.46,1.13-.46,.84,.15,1.14,.46c.3,.3,.45,.69,.45,1.16s-.15,.84-.45,1.15c-.3,.31-.68,.46-1.14,.46Z"/><path class="cls-1" d="M273.04,285.29v-7.86h1.52l.16,1.78h.05c.39-.64,.88-1.13,1.46-1.46,.58-.34,1.21-.5,1.88-.5,.32,0,.6,.03,.83,.08,.23,.05,.46,.13,.69,.24l-.38,1.55c-.26-.09-.48-.15-.68-.18-.2-.04-.45-.06-.74-.06-.53,0-1.05,.15-1.56,.46s-.96,.85-1.37,1.62v4.34h-1.86Z"/><path class="cls-1" d="M285.04,285.48c-.8,0-1.53-.16-2.18-.49-.65-.33-1.17-.8-1.55-1.42-.38-.62-.58-1.36-.58-2.22s.19-1.59,.58-2.2,.89-1.09,1.5-1.42c.62-.33,1.28-.5,1.98-.5,.78,0,1.44,.16,1.98,.48,.54,.32,.95,.76,1.23,1.32,.28,.56,.42,1.2,.42,1.93,0,.18,0,.36-.02,.53-.01,.17-.03,.3-.05,.4h-6.3v-1.3h5.1l-.35,.4c0-.78-.17-1.37-.52-1.76s-.83-.59-1.45-.59c-.44,0-.83,.1-1.18,.31s-.62,.51-.82,.91c-.2,.4-.3,.89-.3,1.46,0,.62,.11,1.13,.34,1.53,.23,.4,.55,.7,.96,.9,.41,.2,.89,.3,1.43,.3,.42,0,.8-.06,1.15-.18,.35-.12,.7-.28,1.06-.48l.62,1.15c-.42,.27-.89,.49-1.42,.66-.53,.18-1.08,.26-1.66,.26Z"/><path class="cls-1" d="M289.88,288.39v-10.96h1.52l.14,.9h.05c.34-.32,.73-.58,1.18-.78,.44-.2,.89-.3,1.34-.3,.69,0,1.27,.17,1.74,.5,.47,.33,.83,.79,1.09,1.39,.26,.6,.38,1.3,.38,2.11,0,.9-.17,1.66-.5,2.29-.33,.63-.76,1.11-1.29,1.45-.53,.34-1.1,.5-1.7,.5-.35,0-.72-.08-1.1-.24s-.73-.39-1.05-.69h-.05l.1,1.38v2.46h-1.86Zm3.57-4.43c.37,0,.71-.1,1.01-.3,.3-.2,.53-.5,.7-.9,.17-.4,.26-.9,.26-1.5,0-.52-.06-.97-.19-1.34s-.32-.66-.58-.86c-.26-.2-.61-.3-1.05-.3-.3,0-.6,.08-.91,.22-.31,.15-.62,.39-.94,.72v3.54c.29,.26,.59,.44,.9,.55,.31,.11,.58,.17,.82,.17Z"/><path class="cls-1" d="M302.16,285.48c-.69,0-1.34-.16-1.94-.49-.6-.33-1.08-.79-1.46-1.41-.37-.61-.56-1.35-.56-2.22s.19-1.62,.56-2.23c.37-.61,.86-1.08,1.46-1.41,.6-.33,1.24-.49,1.94-.49s1.34,.16,1.94,.49c.6,.33,1.08,.79,1.46,1.41,.37,.61,.56,1.36,.56,2.23s-.19,1.6-.56,2.22c-.37,.61-.86,1.08-1.46,1.41-.6,.33-1.24,.49-1.94,.49Zm0-1.5c.43,0,.79-.11,1.1-.32,.31-.21,.54-.52,.7-.91,.16-.39,.24-.85,.24-1.38s-.08-.98-.24-1.38c-.16-.39-.4-.7-.7-.92-.31-.22-.68-.33-1.1-.33s-.79,.11-1.1,.33-.54,.53-.7,.92-.25,.85-.25,1.38,.08,.98,.25,1.38,.4,.7,.7,.91c.3,.21,.67,.32,1.1,.32Z"/><path class="cls-1" d="M311.01,285.48c-.74,0-1.44-.12-2.11-.36s-1.25-.53-1.74-.86l.8-1.17c.47,.31,.98,.55,1.52,.73,.54,.18,1.14,.26,1.78,.26,.54,0,.95-.09,1.21-.28,.26-.19,.39-.41,.39-.66,0-.13-.03-.25-.09-.35s-.16-.21-.31-.3-.37-.18-.66-.26c-.29-.09-.66-.18-1.12-.27-1.04-.22-1.81-.53-2.3-.91-.49-.38-.74-.87-.74-1.46,0-.69,.3-1.26,.9-1.7s1.45-.66,2.55-.66c.65,0,1.26,.11,1.83,.32,.57,.21,1.05,.45,1.45,.72l-.85,1.14c-.37-.26-.78-.45-1.23-.58-.45-.13-.9-.2-1.36-.2-.35,0-.63,.04-.84,.11s-.36,.18-.46,.31c-.1,.13-.15,.28-.15,.44,0,.28,.16,.49,.48,.62s.84,.29,1.57,.45c.84,.18,1.49,.39,1.95,.62,.46,.23,.78,.49,.95,.78,.18,.29,.26,.65,.26,1.08,0,.45-.14,.86-.42,1.22-.28,.37-.7,.66-1.24,.88-.54,.22-1.22,.33-2.02,.33Z"/><path class="cls-1" d="M319.71,285.29v-6.38h-3.41v-1.47h5.25v7.86h-1.84Zm.78-9.3c-.37,0-.69-.11-.94-.34-.25-.22-.38-.52-.38-.9s.13-.67,.38-.9c.25-.23,.56-.34,.94-.34s.7,.12,.94,.34c.25,.23,.37,.53,.37,.9s-.12,.67-.37,.9c-.25,.22-.56,.34-.94,.34Z"/><path class="cls-1" d="M330.02,285.48c-.8,0-1.43-.14-1.9-.42-.47-.28-.8-.67-1.01-1.18-.2-.5-.3-1.08-.3-1.74v-3.23h-2.08v-1.38l2.14-.1,.26-2.46h1.5v2.46h3.6v1.47h-3.6v3.22c0,.43,.06,.78,.18,1.06,.12,.28,.31,.49,.58,.62,.27,.13,.63,.2,1.06,.2,.34,0,.65-.03,.93-.08,.28-.05,.54-.13,.78-.22l.38,1.33c-.35,.12-.73,.22-1.14,.31-.41,.09-.87,.14-1.38,.14Z"/><path class="cls-1" d="M337.36,285.48c-.69,0-1.34-.16-1.94-.49-.6-.33-1.08-.79-1.46-1.41-.37-.61-.56-1.35-.56-2.22s.19-1.62,.56-2.23c.37-.61,.86-1.08,1.46-1.41,.6-.33,1.24-.49,1.94-.49s1.34,.16,1.94,.49c.6,.33,1.08,.79,1.46,1.41,.37,.61,.56,1.36,.56,2.23s-.19,1.6-.56,2.22c-.37,.61-.86,1.08-1.46,1.41-.6,.33-1.24,.49-1.94,.49Zm0-1.5c.43,0,.79-.11,1.1-.32,.31-.21,.54-.52,.7-.91,.16-.39,.24-.85,.24-1.38s-.08-.98-.24-1.38c-.16-.39-.4-.7-.7-.92-.31-.22-.68-.33-1.1-.33s-.79,.11-1.1,.33-.54,.53-.7,.92-.25,.85-.25,1.38,.08,.98,.25,1.38,.4,.7,.7,.91c.3,.21,.67,.32,1.1,.32Z"/><path class="cls-1" d="M343.44,285.29v-7.86h1.52l.16,1.78h.05c.39-.64,.88-1.13,1.46-1.46,.58-.34,1.21-.5,1.88-.5,.32,0,.6,.03,.83,.08,.23,.05,.46,.13,.69,.24l-.38,1.55c-.26-.09-.48-.15-.68-.18-.2-.04-.45-.06-.74-.06-.53,0-1.05,.15-1.56,.46s-.96,.85-1.37,1.62v4.34h-1.86Z"/><path class="cls-1" d="M352.35,288.52c-.2,0-.4-.02-.6-.05-.2-.03-.37-.07-.52-.11l.35-1.44c.11,.03,.22,.06,.33,.08s.22,.03,.33,.03c.5,0,.9-.13,1.2-.38,.3-.26,.53-.58,.69-.96l.19-.5-3.52-7.76h1.84l1.62,3.86c.14,.35,.28,.73,.43,1.12s.29,.79,.43,1.18h.06c.13-.37,.26-.76,.39-1.16,.13-.4,.26-.78,.39-1.14l1.42-3.86h1.74l-3.28,8.21c-.21,.59-.47,1.1-.78,1.53s-.68,.77-1.12,1-.97,.35-1.6,.35Z"/><path class="cls-2" d="M369.39,287.72v-1.01h.74c.49,0,.87-.04,1.13-.12,.26-.08,.44-.21,.54-.4,.1-.19,.14-.44,.14-.76,0-.46-.01-.9-.04-1.34-.03-.43-.04-.9-.04-1.42,0-.56,.11-.98,.34-1.26,.22-.27,.62-.46,1.18-.55v-.06c-.57-.1-.96-.28-1.18-.55-.22-.27-.34-.69-.34-1.26,0-.49,.01-.96,.04-1.42s.04-.9,.04-1.34c0-.32-.05-.57-.14-.76-.1-.19-.28-.32-.54-.4-.26-.08-.64-.12-1.13-.12h-.74v-1.01h1.1c1.01,0,1.76,.16,2.24,.47,.48,.32,.72,.89,.72,1.74,0,.37-.01,.71-.03,1.02s-.05,.62-.08,.92c-.03,.3-.05,.63-.05,.97,0,.19,.06,.38,.19,.56,.13,.18,.35,.33,.68,.46,.33,.12,.79,.18,1.38,.18v1.12c-.6,0-1.06,.06-1.38,.18-.33,.12-.55,.27-.68,.46-.13,.18-.19,.37-.19,.56,0,.35,.02,.68,.05,.98s.06,.6,.08,.9c.02,.3,.03,.65,.03,1.03,0,.84-.24,1.42-.72,1.74-.48,.31-1.23,.47-2.24,.47h-1.1Z"/><path class="cls-2" d="M378.19,287.72v-1.01h.74c.49,0,.87-.04,1.13-.12,.26-.08,.44-.21,.54-.4,.1-.19,.14-.44,.14-.76,0-.46-.01-.9-.04-1.34-.03-.43-.04-.9-.04-1.42,0-.56,.11-.98,.34-1.26,.22-.27,.62-.46,1.18-.55v-.06c-.57-.1-.96-.28-1.18-.55-.22-.27-.34-.69-.34-1.26,0-.49,.01-.96,.04-1.42s.04-.9,.04-1.34c0-.32-.05-.57-.14-.76-.1-.19-.28-.32-.54-.4-.26-.08-.64-.12-1.13-.12h-.74v-1.01h1.1c1.01,0,1.76,.16,2.24,.47,.48,.32,.72,.89,.72,1.74,0,.37-.01,.71-.03,1.02s-.05,.62-.08,.92c-.03,.3-.05,.63-.05,.97,0,.19,.06,.38,.19,.56,.13,.18,.35,.33,.68,.46,.33,.12,.79,.18,1.38,.18v1.12c-.6,0-1.06,.06-1.38,.18-.33,.12-.55,.27-.68,.46-.13,.18-.19,.37-.19,.56,0,.35,.02,.68,.05,.98s.06,.6,.08,.9c.02,.3,.03,.65,.03,1.03,0,.84-.24,1.42-.72,1.74-.48,.31-1.23,.47-2.24,.47h-1.1Z"/><path class="cls-4" d="M64.89,309.48c-.38,0-.79-.09-1.22-.28-.43-.19-.83-.45-1.19-.78h-.05l-.11,.86h-1.06v-11.39h1.31v3.1l-.05,1.5h.05c.35-.36,.76-.65,1.22-.86,.46-.21,.92-.32,1.38-.32,.7,0,1.3,.16,1.78,.49,.48,.33,.84,.78,1.09,1.38,.25,.59,.37,1.29,.37,2.09,0,.88-.16,1.64-.49,2.27-.33,.63-.75,1.11-1.29,1.44-.53,.33-1.12,.5-1.74,.5Zm-.21-1.1c.45,0,.85-.12,1.21-.37,.36-.25,.64-.6,.85-1.06s.31-1.02,.31-1.66c0-.57-.08-1.06-.22-1.5s-.38-.77-.7-1.01c-.32-.24-.74-.36-1.26-.36-.35,0-.72,.09-1.11,.28-.39,.19-.78,.48-1.18,.89v3.87c.37,.33,.75,.57,1.13,.7s.71,.21,.98,.21Z"/><path class="cls-4" d="M70.91,309.29v-7.78h1.09l.11,1.84h.05c.41-.63,.91-1.13,1.5-1.49s1.25-.54,1.97-.54c.29,0,.56,.02,.81,.07,.25,.05,.49,.13,.73,.25l-.3,1.14c-.27-.1-.5-.17-.69-.21-.19-.04-.44-.06-.75-.06-.59,0-1.15,.17-1.69,.5-.54,.34-1.04,.91-1.51,1.72v4.56h-1.31Z"/><path class="cls-4" d="M81.31,309.48c-.48,0-.92-.09-1.33-.26-.41-.18-.73-.43-.96-.76-.24-.33-.35-.73-.35-1.18,0-.88,.44-1.54,1.31-1.99,.87-.45,2.31-.76,4.32-.92-.01-.35-.08-.68-.22-.98-.13-.3-.35-.54-.65-.71-.3-.18-.7-.26-1.2-.26-.33,0-.66,.04-.98,.14s-.63,.21-.93,.35c-.29,.14-.56,.29-.81,.44l-.51-.9c.26-.17,.57-.34,.94-.52,.37-.18,.76-.32,1.19-.43,.43-.11,.87-.17,1.33-.17,.71,0,1.3,.13,1.77,.4,.46,.27,.81,.64,1.04,1.11,.23,.47,.34,1.04,.34,1.69v4.77h-1.07l-.11-1.06h-.05c-.43,.34-.91,.63-1.44,.88-.53,.25-1.08,.37-1.63,.37Zm.35-1.06c.45,0,.89-.1,1.33-.3,.44-.2,.87-.49,1.31-.85v-2.05c-1.11,.1-1.98,.23-2.62,.4-.63,.17-1.08,.39-1.34,.65-.26,.26-.39,.56-.39,.9,0,.29,.08,.53,.24,.71,.16,.19,.37,.32,.63,.41,.26,.09,.54,.13,.84,.13Z"/><path class="cls-4" d="M87.66,309.29v-7.78h1.09l.11,1.33h.06c.41-.44,.84-.8,1.31-1.09,.47-.29,1.01-.43,1.62-.43,.92,0,1.59,.27,2.03,.8s.66,1.31,.66,2.34v4.83h-1.31v-4.66c0-.74-.14-1.28-.42-1.64s-.74-.54-1.38-.54c-.46,0-.87,.12-1.23,.35-.36,.24-.77,.59-1.23,1.06v5.42h-1.31Z"/><path class="cls-4" d="M100.51,309.48c-.81,0-1.54-.16-2.18-.48s-1.15-.78-1.52-1.39c-.37-.61-.55-1.34-.55-2.19s.2-1.62,.59-2.22c.39-.61,.92-1.07,1.58-1.39,.66-.32,1.38-.48,2.17-.48,.64,0,1.19,.11,1.66,.34,.46,.22,.86,.49,1.18,.8l-.66,.85c-.32-.28-.65-.5-.99-.66-.34-.16-.72-.24-1.14-.24-.6,0-1.13,.12-1.58,.38-.46,.25-.81,.6-1.06,1.06-.25,.45-.38,.98-.38,1.58s.12,1.1,.37,1.55c.25,.45,.59,.8,1.05,1.05,.45,.25,.98,.38,1.58,.38,.48,0,.92-.1,1.32-.29,.4-.19,.76-.42,1.08-.69l.59,.85c-.43,.38-.9,.68-1.43,.9-.53,.21-1.08,.32-1.66,.32Z"/><path class="cls-4" d="M105.26,309.29v-11.39h1.31v3.1l-.08,1.84h.05c.39-.43,.83-.79,1.3-1.08,.47-.29,1.01-.44,1.62-.44,.92,0,1.59,.27,2.03,.8s.66,1.31,.66,2.34v4.83h-1.31v-4.66c0-.74-.14-1.28-.42-1.64s-.74-.54-1.38-.54c-.46,0-.87,.12-1.23,.35-.36,.24-.77,.59-1.23,1.06v5.42h-1.31Z"/><path class="cls-4" d="M113.88,309.29v-10.5h1.47l3.36,6.59,1.01,2.18h.03c-.02-.52-.06-1.07-.1-1.64-.05-.57-.07-1.13-.07-1.69v-5.44h1.28v10.5h-1.47l-3.36-6.59-1.01-2.18h-.03c.02,.53,.06,1.08,.1,1.63,.05,.55,.07,1.1,.07,1.65v5.49h-1.28Z"/><path class="cls-4" d="M125.31,309.48c-.48,0-.92-.09-1.33-.26-.41-.18-.73-.43-.96-.76-.24-.33-.35-.73-.35-1.18,0-.88,.44-1.54,1.31-1.99,.87-.45,2.31-.76,4.32-.92-.01-.35-.08-.68-.22-.98-.13-.3-.35-.54-.65-.71-.3-.18-.7-.26-1.2-.26-.33,0-.66,.04-.98,.14s-.63,.21-.93,.35c-.29,.14-.56,.29-.81,.44l-.51-.9c.26-.17,.57-.34,.94-.52,.37-.18,.76-.32,1.19-.43,.43-.11,.87-.17,1.33-.17,.71,0,1.3,.13,1.77,.4,.46,.27,.81,.64,1.04,1.11,.23,.47,.34,1.04,.34,1.69v4.77h-1.07l-.11-1.06h-.05c-.43,.34-.91,.63-1.44,.88-.53,.25-1.08,.37-1.63,.37Zm.35-1.06c.45,0,.89-.1,1.33-.3,.44-.2,.87-.49,1.31-.85v-2.05c-1.11,.1-1.98,.23-2.62,.4-.63,.17-1.08,.39-1.34,.65-.26,.26-.39,.56-.39,.9,0,.29,.08,.53,.24,.71,.16,.19,.37,.32,.63,.41,.26,.09,.54,.13,.84,.13Z"/><path class="cls-4" d="M131.1,309.29v-7.78h1.06l.11,1.02h.03c.2-.36,.44-.66,.7-.88,.27-.22,.62-.34,1.07-.34,.38,0,.7,.11,.94,.34,.25,.22,.42,.56,.53,1.01,.22-.42,.47-.74,.74-.98,.27-.24,.63-.36,1.08-.36,.54,0,.97,.21,1.27,.62,.3,.41,.46,1,.46,1.78v5.57h-1.31v-5.47c0-.91-.28-1.36-.83-1.36-.27,0-.49,.1-.66,.3s-.37,.5-.58,.9v5.63h-1.22v-5.47c0-.45-.06-.79-.18-1.02-.12-.23-.33-.34-.62-.34-.27,0-.5,.1-.7,.3s-.39,.5-.58,.9v5.63h-1.31Z"/><path class="cls-4" d="M144.25,309.48c-.78,0-1.49-.16-2.12-.48s-1.14-.79-1.51-1.4c-.37-.61-.56-1.35-.56-2.22s.19-1.57,.56-2.18c.37-.61,.86-1.07,1.46-1.4,.6-.33,1.25-.49,1.94-.49,.75,0,1.38,.15,1.91,.46,.53,.3,.93,.73,1.22,1.27,.28,.54,.42,1.18,.42,1.92,0,.15,0,.29-.02,.43s-.03,.26-.05,.37h-6.58v-1.02h5.79l-.34,.37c0-.92-.21-1.61-.63-2.06-.42-.46-.99-.69-1.7-.69-.48,0-.93,.12-1.34,.35-.41,.24-.74,.58-.98,1.02-.25,.45-.37,1-.37,1.65s.13,1.23,.4,1.68c.27,.45,.63,.79,1.09,1.02,.46,.23,.98,.34,1.55,.34,.47,0,.89-.07,1.27-.2,.38-.13,.74-.31,1.1-.54l.48,.86c-.38,.26-.82,.47-1.32,.66s-1.06,.27-1.69,.27Z"/><path class="cls-4" d="M152.57,303.75c-.35,0-.66-.12-.91-.38-.26-.25-.38-.57-.38-.97s.13-.73,.38-.98c.26-.25,.56-.38,.91-.38s.67,.13,.92,.38,.38,.58,.38,.98-.12,.72-.38,.97c-.25,.25-.56,.38-.92,.38Zm0,5.73c-.35,0-.66-.13-.91-.38-.26-.25-.38-.57-.38-.97s.13-.73,.38-.98,.56-.38,.91-.38,.67,.12,.92,.38c.25,.25,.38,.58,.38,.98s-.12,.72-.38,.97-.56,.38-.92,.38Z"/><path class="cls-2" d="M175.35,307.46l.83-1.26c.46,.3,.93,.55,1.4,.74s.98,.3,1.53,.3c.51,0,.9-.1,1.16-.29,.26-.19,.39-.45,.39-.77,0-.28-.12-.51-.35-.7-.23-.19-.54-.35-.9-.5s-.76-.3-1.18-.46-.81-.34-1.18-.56c-.37-.22-.67-.49-.9-.81-.24-.32-.35-.72-.35-1.2,0-.52,.14-.98,.42-1.36,.28-.38,.67-.68,1.18-.89s1.09-.31,1.74-.31c.73,0,1.33,.12,1.82,.37,.49,.25,.91,.55,1.29,.93l-.93,1.07c-.37-.28-.73-.49-1.06-.64s-.75-.22-1.24-.22c-.44,0-.78,.09-1.04,.27-.26,.18-.38,.43-.38,.75,0,.24,.12,.44,.35,.61s.54,.33,.91,.46,.77,.29,1.18,.44c.41,.15,.8,.34,1.17,.57,.37,.22,.67,.5,.91,.82,.24,.33,.36,.73,.36,1.22,0,.52-.15,.99-.44,1.39-.29,.41-.7,.72-1.23,.95-.53,.23-1.17,.34-1.91,.34-.41,0-.82-.06-1.26-.17-.43-.11-.84-.26-1.23-.46s-.73-.41-1.03-.66Zm3.06-7.46v-2.66h1.28v2.66h-1.28Zm0,8.02h1.28v3.02h-1.28v-3.02Z"/><path class="cls-2" d="M189.85,311.72c-1.01,0-1.76-.16-2.25-.47s-.73-.89-.73-1.74c0-.38,.01-.73,.04-1.03,.03-.3,.05-.61,.08-.9,.03-.3,.04-.62,.04-.98,0-.19-.06-.38-.19-.56s-.35-.33-.68-.46c-.33-.12-.79-.18-1.38-.18v-1.12c.6,0,1.06-.06,1.38-.18,.33-.12,.55-.27,.68-.46,.13-.18,.19-.37,.19-.56,0-.34-.01-.66-.04-.97-.03-.3-.05-.61-.08-.92-.03-.31-.04-.65-.04-1.02,0-.84,.24-1.42,.73-1.74,.49-.31,1.23-.47,2.25-.47h1.1v1.01h-.74c-.49,0-.87,.04-1.13,.12-.26,.08-.44,.21-.54,.4s-.14,.44-.14,.76c0,.44,.01,.88,.04,1.34,.03,.45,.04,.93,.04,1.42,0,.57-.11,.98-.34,1.26-.22,.27-.62,.46-1.18,.55v.06c.57,.1,.96,.28,1.18,.55,.22,.27,.34,.69,.34,1.26,0,.51-.01,.98-.04,1.42-.03,.43-.04,.88-.04,1.34,0,.32,.05,.57,.14,.76,.1,.19,.27,.32,.54,.4,.26,.08,.64,.12,1.13,.12h.74v1.01h-1.1Z"/><path class="cls-2" d="M198.65,311.72c-1.01,0-1.76-.16-2.25-.47s-.73-.89-.73-1.74c0-.38,.01-.73,.04-1.03,.03-.3,.05-.61,.08-.9,.03-.3,.04-.62,.04-.98,0-.19-.06-.38-.19-.56s-.35-.33-.68-.46c-.33-.12-.79-.18-1.38-.18v-1.12c.6,0,1.06-.06,1.38-.18,.33-.12,.55-.27,.68-.46,.13-.18,.19-.37,.19-.56,0-.34-.01-.66-.04-.97-.03-.3-.05-.61-.08-.92-.03-.31-.04-.65-.04-1.02,0-.84,.24-1.42,.73-1.74,.49-.31,1.23-.47,2.25-.47h1.1v1.01h-.74c-.49,0-.87,.04-1.13,.12-.26,.08-.44,.21-.54,.4s-.14,.44-.14,.76c0,.44,.01,.88,.04,1.34,.03,.45,.04,.93,.04,1.42,0,.57-.11,.98-.34,1.26-.22,.27-.62,.46-1.18,.55v.06c.57,.1,.96,.28,1.18,.55,.22,.27,.34,.69,.34,1.26,0,.51-.01,.98-.04,1.42-.03,.43-.04,.88-.04,1.34,0,.32,.05,.57,.14,.76,.1,.19,.27,.32,.54,.4,.26,.08,.64,.12,1.13,.12h.74v1.01h-1.1Z"/><path class="cls-1" d="M210.68,312.39v-10.96h1.52l.14,.9h.05c.34-.32,.73-.58,1.18-.78,.44-.2,.89-.3,1.34-.3,.69,0,1.27,.17,1.74,.5,.47,.33,.83,.79,1.09,1.39,.26,.6,.38,1.3,.38,2.11,0,.9-.17,1.66-.5,2.29-.33,.63-.76,1.11-1.29,1.45-.53,.34-1.1,.5-1.7,.5-.35,0-.72-.08-1.1-.24s-.73-.39-1.05-.69h-.05l.1,1.38v2.46h-1.86Zm3.57-4.43c.37,0,.71-.1,1.01-.3,.3-.2,.53-.5,.7-.9,.17-.4,.26-.9,.26-1.5,0-.52-.06-.97-.19-1.34s-.32-.66-.58-.86c-.26-.2-.61-.3-1.05-.3-.3,0-.6,.08-.91,.22-.31,.15-.62,.39-.94,.72v3.54c.29,.26,.59,.44,.9,.55,.31,.11,.58,.17,.82,.17Z"/><path class="cls-1" d="M221.93,309.48c-.51,0-.96-.1-1.36-.3-.4-.2-.7-.47-.93-.81-.22-.34-.34-.74-.34-1.2,0-.87,.42-1.54,1.26-2.01,.84-.46,2.23-.76,4.17-.9-.02-.29-.1-.55-.23-.78-.13-.24-.33-.42-.6-.55-.27-.13-.61-.2-1.04-.2-.3,0-.59,.04-.88,.11-.29,.08-.57,.18-.86,.3-.28,.13-.56,.27-.84,.42l-.67-1.23c.32-.19,.67-.37,1.06-.54,.38-.17,.79-.3,1.22-.4,.43-.1,.86-.15,1.31-.15,.74,0,1.35,.13,1.85,.39,.5,.26,.87,.65,1.14,1.15s.39,1.12,.39,1.85v4.66h-1.5l-.14-.98h-.05c-.42,.32-.88,.59-1.38,.82-.51,.23-1.03,.34-1.56,.34Zm.56-1.44c.39,0,.78-.09,1.14-.26,.37-.18,.73-.41,1.1-.7v-1.66c-.94,.06-1.67,.17-2.21,.31-.53,.14-.91,.33-1.12,.55-.21,.22-.32,.47-.32,.75,0,.23,.06,.43,.19,.58,.13,.15,.3,.26,.5,.33s.45,.1,.71,.1Z"/><path class="cls-1" d="M229.05,309.29v-7.86h1.52l.16,1.78h.05c.39-.64,.88-1.13,1.46-1.46,.58-.34,1.21-.5,1.88-.5,.32,0,.6,.03,.83,.08,.23,.05,.46,.13,.69,.24l-.38,1.55c-.26-.09-.48-.15-.68-.18-.2-.04-.45-.06-.74-.06-.53,0-1.05,.15-1.56,.46s-.96,.85-1.37,1.62v4.34h-1.86Z"/><path class="cls-1" d="M239.53,309.48c-.51,0-.96-.1-1.36-.3-.4-.2-.7-.47-.93-.81-.22-.34-.34-.74-.34-1.2,0-.87,.42-1.54,1.26-2.01,.84-.46,2.23-.76,4.17-.9-.02-.29-.1-.55-.23-.78-.13-.24-.33-.42-.6-.55-.27-.13-.61-.2-1.04-.2-.3,0-.59,.04-.88,.11-.29,.08-.57,.18-.86,.3-.28,.13-.56,.27-.84,.42l-.67-1.23c.32-.19,.67-.37,1.06-.54,.38-.17,.79-.3,1.22-.4,.43-.1,.86-.15,1.31-.15,.74,0,1.35,.13,1.85,.39,.5,.26,.87,.65,1.14,1.15s.39,1.12,.39,1.85v4.66h-1.5l-.14-.98h-.05c-.42,.32-.88,.59-1.38,.82-.51,.23-1.03,.34-1.56,.34Zm.56-1.44c.39,0,.78-.09,1.14-.26,.37-.18,.73-.41,1.1-.7v-1.66c-.94,.06-1.67,.17-2.21,.31-.53,.14-.91,.33-1.12,.55-.21,.22-.32,.47-.32,.75,0,.23,.06,.43,.19,.58,.13,.15,.3,.26,.5,.33s.45,.1,.71,.1Z"/><path class="cls-1" d="M245.3,309.29v-7.86h1.42l.14,1.01h.03c.18-.35,.41-.64,.67-.86s.62-.34,1.07-.34c.37,0,.68,.11,.92,.34s.41,.55,.52,.99c.18-.39,.41-.71,.7-.96s.65-.37,1.1-.37c.55,0,.98,.22,1.29,.65,.3,.43,.46,1.04,.46,1.83v5.57h-1.79v-5.44c0-.69-.2-1.04-.61-1.04-.21,0-.39,.08-.54,.24-.14,.16-.3,.41-.46,.75v5.49h-1.52v-5.44c0-.34-.05-.6-.15-.78-.1-.18-.26-.26-.49-.26-.2,0-.38,.08-.53,.24s-.3,.41-.45,.75v5.49h-1.79Z"/><path class="cls-1" d="M258.65,309.48c-.8,0-1.53-.16-2.18-.49-.65-.33-1.17-.8-1.55-1.42-.38-.62-.58-1.36-.58-2.22s.19-1.59,.58-2.2,.89-1.09,1.5-1.42c.62-.33,1.28-.5,1.98-.5,.78,0,1.44,.16,1.98,.48,.54,.32,.95,.76,1.23,1.32,.28,.56,.42,1.2,.42,1.93,0,.18,0,.36-.02,.53-.01,.17-.03,.3-.05,.4h-6.3v-1.3h5.1l-.35,.4c0-.78-.17-1.37-.52-1.76s-.83-.59-1.45-.59c-.44,0-.83,.1-1.18,.31s-.62,.51-.82,.91c-.2,.4-.3,.89-.3,1.46,0,.62,.11,1.13,.34,1.53,.23,.4,.55,.7,.96,.9,.41,.2,.89,.3,1.43,.3,.42,0,.8-.06,1.15-.18,.35-.12,.7-.28,1.06-.48l.62,1.15c-.42,.27-.89,.49-1.42,.66-.53,.18-1.08,.26-1.66,.26Z"/><path class="cls-1" d="M268.42,309.48c-.8,0-1.43-.14-1.9-.42-.47-.28-.8-.67-1.01-1.18-.2-.5-.3-1.08-.3-1.74v-3.23h-2.08v-1.38l2.14-.1,.26-2.46h1.5v2.46h3.6v1.47h-3.6v3.22c0,.43,.06,.78,.18,1.06,.12,.28,.31,.49,.58,.62,.27,.13,.63,.2,1.06,.2,.34,0,.65-.03,.93-.08,.28-.05,.54-.13,.78-.22l.38,1.33c-.35,.12-.73,.22-1.14,.31-.41,.09-.87,.14-1.38,.14Z"/><path class="cls-1" d="M276.25,309.48c-.8,0-1.53-.16-2.18-.49-.65-.33-1.17-.8-1.55-1.42-.38-.62-.58-1.36-.58-2.22s.19-1.59,.58-2.2,.89-1.09,1.5-1.42c.62-.33,1.28-.5,1.98-.5,.78,0,1.44,.16,1.98,.48,.54,.32,.95,.76,1.23,1.32,.28,.56,.42,1.2,.42,1.93,0,.18,0,.36-.02,.53-.01,.17-.03,.3-.05,.4h-6.3v-1.3h5.1l-.35,.4c0-.78-.17-1.37-.52-1.76s-.83-.59-1.45-.59c-.44,0-.83,.1-1.18,.31s-.62,.51-.82,.91c-.2,.4-.3,.89-.3,1.46,0,.62,.11,1.13,.34,1.53,.23,.4,.55,.7,.96,.9,.41,.2,.89,.3,1.43,.3,.42,0,.8-.06,1.15-.18,.35-.12,.7-.28,1.06-.48l.62,1.15c-.42,.27-.89,.49-1.42,.66-.53,.18-1.08,.26-1.66,.26Z"/><path class="cls-1" d="M281.85,309.29v-7.86h1.52l.16,1.78h.05c.39-.64,.88-1.13,1.46-1.46,.58-.34,1.21-.5,1.88-.5,.32,0,.6,.03,.83,.08,.23,.05,.46,.13,.69,.24l-.38,1.55c-.26-.09-.48-.15-.68-.18-.2-.04-.45-.06-.74-.06-.53,0-1.05,.15-1.56,.46s-.96,.85-1.37,1.62v4.34h-1.86Z"/><path class="cls-1" d="M293.41,309.48c-.74,0-1.44-.12-2.11-.36s-1.25-.53-1.74-.86l.8-1.17c.47,.31,.98,.55,1.52,.73,.54,.18,1.14,.26,1.78,.26,.54,0,.95-.09,1.21-.28,.26-.19,.39-.41,.39-.66,0-.13-.03-.25-.09-.35s-.16-.21-.31-.3-.37-.18-.66-.26c-.29-.09-.66-.18-1.12-.27-1.04-.22-1.81-.53-2.3-.91-.49-.38-.74-.87-.74-1.46,0-.69,.3-1.26,.9-1.7s1.45-.66,2.55-.66c.65,0,1.26,.11,1.83,.32,.57,.21,1.05,.45,1.45,.72l-.85,1.14c-.37-.26-.78-.45-1.23-.58-.45-.13-.9-.2-1.36-.2-.35,0-.63,.04-.84,.11s-.36,.18-.46,.31c-.1,.13-.15,.28-.15,.44,0,.28,.16,.49,.48,.62s.84,.29,1.57,.45c.84,.18,1.49,.39,1.95,.62,.46,.23,.78,.49,.95,.78,.18,.29,.26,.65,.26,1.08,0,.45-.14,.86-.42,1.22-.28,.37-.7,.66-1.24,.88-.54,.22-1.22,.33-2.02,.33Z"/><path class="cls-1" d="M302.16,309.48c-.45,0-.82-.16-1.13-.46-.3-.31-.46-.69-.46-1.15s.15-.86,.46-1.16,.68-.46,1.13-.46,.84,.15,1.14,.46c.3,.3,.45,.69,.45,1.16s-.15,.84-.45,1.15c-.3,.31-.68,.46-1.14,.46Z"/><path class="cls-1" d="M307.48,312.39v-10.96h1.52l.14,.9h.05c.34-.32,.73-.58,1.18-.78,.44-.2,.89-.3,1.34-.3,.69,0,1.27,.17,1.74,.5,.47,.33,.83,.79,1.09,1.39,.26,.6,.38,1.3,.38,2.11,0,.9-.17,1.66-.5,2.29-.33,.63-.76,1.11-1.29,1.45-.53,.34-1.1,.5-1.7,.5-.35,0-.72-.08-1.1-.24s-.73-.39-1.05-.69h-.05l.1,1.38v2.46h-1.86Zm3.57-4.43c.37,0,.71-.1,1.01-.3,.3-.2,.53-.5,.7-.9,.17-.4,.26-.9,.26-1.5,0-.52-.06-.97-.19-1.34s-.32-.66-.58-.86c-.26-.2-.61-.3-1.05-.3-.3,0-.6,.08-.91,.22-.31,.15-.62,.39-.94,.72v3.54c.29,.26,.59,.44,.9,.55,.31,.11,.58,.17,.82,.17Z"/><path class="cls-1" d="M317.04,309.29v-7.86h1.52l.16,1.78h.05c.39-.64,.88-1.13,1.46-1.46,.58-.34,1.21-.5,1.88-.5,.32,0,.6,.03,.83,.08,.23,.05,.46,.13,.69,.24l-.38,1.55c-.26-.09-.48-.15-.68-.18-.2-.04-.45-.06-.74-.06-.53,0-1.05,.15-1.56,.46s-.96,.85-1.37,1.62v4.34h-1.86Z"/><path class="cls-1" d="M324.72,311.72v-1.44h7.68v1.44h-7.68Z"/><path class="cls-1" d="M337.83,309.48c-.37,0-.76-.09-1.16-.27-.4-.18-.78-.44-1.13-.78h-.05l-.16,.86h-1.46v-11.3h1.86v2.91l-.08,1.38h.05c.33-.32,.71-.57,1.13-.76,.42-.19,.85-.28,1.27-.28,.68,0,1.26,.17,1.74,.5,.47,.33,.84,.79,1.1,1.38s.38,1.29,.38,2.1c0,.9-.17,1.66-.5,2.3s-.76,1.12-1.29,1.46c-.53,.34-1.1,.5-1.7,.5Zm-.37-1.52c.36,0,.69-.1,.99-.3,.3-.2,.53-.5,.7-.9,.17-.4,.26-.9,.26-1.5,0-.52-.06-.97-.19-1.34s-.32-.66-.58-.86c-.26-.2-.61-.3-1.05-.3-.3,0-.6,.08-.91,.22-.31,.15-.62,.39-.94,.72v3.54c.29,.26,.59,.44,.9,.55,.31,.11,.59,.17,.83,.17Z"/><path class="cls-1" d="M343.44,309.29v-7.86h1.52l.16,1.78h.05c.39-.64,.88-1.13,1.46-1.46,.58-.34,1.21-.5,1.88-.5,.32,0,.6,.03,.83,.08,.23,.05,.46,.13,.69,.24l-.38,1.55c-.26-.09-.48-.15-.68-.18-.2-.04-.45-.06-.74-.06-.53,0-1.05,.15-1.56,.46s-.96,.85-1.37,1.62v4.34h-1.86Z"/><path class="cls-1" d="M353.92,309.48c-.51,0-.96-.1-1.36-.3-.4-.2-.7-.47-.93-.81-.22-.34-.34-.74-.34-1.2,0-.87,.42-1.54,1.26-2.01,.84-.46,2.23-.76,4.17-.9-.02-.29-.1-.55-.23-.78-.13-.24-.33-.42-.6-.55-.27-.13-.61-.2-1.04-.2-.3,0-.59,.04-.88,.11-.29,.08-.57,.18-.86,.3-.28,.13-.56,.27-.84,.42l-.67-1.23c.32-.19,.67-.37,1.06-.54,.38-.17,.79-.3,1.22-.4,.43-.1,.86-.15,1.31-.15,.74,0,1.35,.13,1.85,.39,.5,.26,.87,.65,1.14,1.15s.39,1.12,.39,1.85v4.66h-1.5l-.14-.98h-.05c-.42,.32-.88,.59-1.38,.82-.51,.23-1.03,.34-1.56,.34Zm.56-1.44c.39,0,.78-.09,1.14-.26,.37-.18,.73-.41,1.1-.7v-1.66c-.94,.06-1.67,.17-2.21,.31-.53,.14-.91,.33-1.12,.55-.21,.22-.32,.47-.32,.75,0,.23,.06,.43,.19,.58,.13,.15,.3,.26,.5,.33s.45,.1,.71,.1Z"/><path class="cls-1" d="M360.27,309.29v-7.86h1.52l.14,1.18h.06c.37-.38,.79-.71,1.24-.98,.45-.27,.98-.4,1.59-.4,.91,0,1.57,.28,2,.83s.64,1.34,.64,2.35v4.86h-1.86v-4.62c0-.63-.11-1.09-.34-1.39-.22-.3-.6-.45-1.14-.45-.38,0-.72,.09-1.02,.27-.3,.18-.63,.46-.99,.83v5.36h-1.86Z"/><path class="cls-1" d="M373.27,309.48c-.82,0-1.56-.16-2.22-.49s-1.17-.79-1.55-1.41c-.38-.61-.57-1.35-.57-2.22s.21-1.62,.62-2.23c.41-.61,.96-1.08,1.64-1.41s1.42-.49,2.21-.49c.64,0,1.21,.1,1.7,.31,.49,.21,.9,.47,1.22,.79l-.88,1.15c-.31-.25-.62-.43-.94-.56-.31-.13-.65-.19-1-.19-.52,0-.98,.11-1.38,.33-.4,.22-.71,.53-.94,.92-.22,.39-.34,.85-.34,1.38s.11,.98,.33,1.38c.22,.39,.52,.7,.91,.91,.39,.21,.85,.32,1.37,.32,.45,0,.86-.09,1.23-.26,.37-.17,.71-.37,1.01-.61l.77,1.18c-.45,.38-.95,.68-1.5,.88-.55,.2-1.11,.3-1.68,.3Z"/><path class="cls-1" d="M377.87,309.29v-11.3h1.86v2.91l-.11,1.68h.05c.34-.36,.74-.68,1.19-.94,.45-.27,.98-.4,1.58-.4,.91,0,1.57,.28,2,.83s.64,1.34,.64,2.35v4.86h-1.86v-4.62c0-.63-.11-1.09-.34-1.39-.22-.3-.6-.45-1.14-.45-.38,0-.72,.09-1.02,.27-.3,.18-.63,.46-.99,.83v5.36h-1.86Z"/><path class="cls-2" d="M395.79,311.72v-1.01h.74c.49,0,.87-.04,1.13-.12,.26-.08,.44-.21,.54-.4,.1-.19,.14-.44,.14-.76,0-.46-.01-.9-.04-1.34-.03-.43-.04-.9-.04-1.42,0-.56,.11-.98,.34-1.26,.22-.27,.62-.46,1.18-.55v-.06c-.57-.1-.96-.28-1.18-.55-.22-.27-.34-.69-.34-1.26,0-.49,.01-.96,.04-1.42s.04-.9,.04-1.34c0-.32-.05-.57-.14-.76-.1-.19-.28-.32-.54-.4-.26-.08-.64-.12-1.13-.12h-.74v-1.01h1.1c1.01,0,1.76,.16,2.24,.47,.48,.32,.72,.89,.72,1.74,0,.37-.01,.71-.03,1.02s-.05,.62-.08,.92c-.03,.3-.05,.63-.05,.97,0,.19,.06,.38,.19,.56,.13,.18,.35,.33,.68,.46,.33,.12,.79,.18,1.38,.18v1.12c-.6,0-1.06,.06-1.38,.18-.33,.12-.55,.27-.68,.46-.13,.18-.19,.37-.19,.56,0,.35,.02,.68,.05,.98s.06,.6,.08,.9c.02,.3,.03,.65,.03,1.03,0,.84-.24,1.42-.72,1.74-.48,.31-1.23,.47-2.24,.47h-1.1Z"/><path class="cls-2" d="M404.59,311.72v-1.01h.74c.49,0,.87-.04,1.13-.12,.26-.08,.44-.21,.54-.4,.1-.19,.14-.44,.14-.76,0-.46-.01-.9-.04-1.34-.03-.43-.04-.9-.04-1.42,0-.56,.11-.98,.34-1.26,.22-.27,.62-.46,1.18-.55v-.06c-.57-.1-.96-.28-1.18-.55-.22-.27-.34-.69-.34-1.26,0-.49,.01-.96,.04-1.42s.04-.9,.04-1.34c0-.32-.05-.57-.14-.76-.1-.19-.28-.32-.54-.4-.26-.08-.64-.12-1.13-.12h-.74v-1.01h1.1c1.01,0,1.76,.16,2.24,.47,.48,.32,.72,.89,.72,1.74,0,.37-.01,.71-.03,1.02s-.05,.62-.08,.92c-.03,.3-.05,.63-.05,.97,0,.19,.06,.38,.19,.56,.13,.18,.35,.33,.68,.46,.33,.12,.79,.18,1.38,.18v1.12c-.6,0-1.06,.06-1.38,.18-.33,.12-.55,.27-.68,.46-.13,.18-.19,.37-.19,.56,0,.35,.02,.68,.05,.98s.06,.6,.08,.9c.02,.3,.03,.65,.03,1.03,0,.84-.24,1.42-.72,1.74-.48,.31-1.23,.47-2.24,.47h-1.1Z"/><path class="cls-4" d="M66.08,333.48c-.76,0-1.35-.14-1.79-.41-.44-.27-.75-.65-.94-1.13-.19-.48-.28-1.04-.28-1.68v-3.68h-2.19v-.99l2.24-.08,.18-2.5h1.09v2.5h3.82v1.07h-3.82v3.7c0,.46,.06,.85,.18,1.17,.12,.32,.32,.56,.61,.72s.68,.24,1.18,.24c.37,0,.71-.03,1.01-.1,.3-.06,.59-.15,.86-.26l.29,.96c-.35,.13-.72,.24-1.11,.33-.39,.09-.83,.14-1.32,.14Z"/><path class="cls-4" d="M73.63,333.29v-6.7h-3.62v-1.07h4.93v7.78h-1.31Zm.51-9.41c-.3,0-.55-.09-.75-.28-.2-.19-.3-.43-.3-.74s.1-.56,.3-.74c.2-.19,.45-.28,.75-.28s.55,.09,.75,.28c.2,.19,.3,.43,.3,.74s-.1,.56-.3,.74c-.2,.19-.45,.28-.75,.28Z"/><path class="cls-4" d="M83.68,333.48c-.76,0-1.35-.14-1.79-.41-.44-.27-.75-.65-.94-1.13-.19-.48-.28-1.04-.28-1.68v-3.68h-2.19v-.99l2.24-.08,.18-2.5h1.09v2.5h3.82v1.07h-3.82v3.7c0,.46,.06,.85,.18,1.17,.12,.32,.32,.56,.61,.72s.68,.24,1.18,.24c.37,0,.71-.03,1.01-.1,.3-.06,.59-.15,.86-.26l.29,.96c-.35,.13-.72,.24-1.11,.33-.39,.09-.83,.14-1.32,.14Z"/><path class="cls-4" d="M92.67,333.48c-.82,0-1.45-.24-1.89-.71-.44-.47-.66-1.17-.66-2.09v-7.71h-2.66v-1.07h3.97v8.88c0,.57,.14,.98,.42,1.23s.65,.38,1.1,.38c.22,0,.45-.03,.69-.09,.23-.06,.5-.15,.78-.28l.34,.99c-.35,.13-.68,.24-.99,.33-.31,.09-.68,.14-1.1,.14Z"/><path class="cls-4" d="M100.25,333.48c-.78,0-1.49-.16-2.12-.48s-1.14-.79-1.51-1.4c-.37-.61-.56-1.35-.56-2.22s.19-1.57,.56-2.18c.37-.61,.86-1.07,1.46-1.4,.6-.33,1.25-.49,1.94-.49,.75,0,1.38,.15,1.91,.46,.53,.3,.93,.73,1.22,1.27,.28,.54,.42,1.18,.42,1.92,0,.15,0,.29-.02,.43s-.03,.26-.05,.37h-6.58v-1.02h5.79l-.34,.37c0-.92-.21-1.61-.63-2.06-.42-.46-.99-.69-1.7-.69-.48,0-.93,.12-1.34,.35-.41,.24-.74,.58-.98,1.02-.25,.45-.37,1-.37,1.65s.13,1.23,.4,1.68c.27,.45,.63,.79,1.09,1.02,.46,.23,.98,.34,1.55,.34,.47,0,.89-.07,1.27-.2,.38-.13,.74-.31,1.1-.54l.48,.86c-.38,.26-.82,.47-1.32,.66s-1.06,.27-1.69,.27Z"/><path class="cls-4" d="M108.57,327.75c-.35,0-.66-.12-.91-.38-.26-.25-.38-.57-.38-.97s.13-.73,.38-.98c.26-.25,.56-.38,.91-.38s.67,.13,.92,.38,.38,.58,.38,.98-.12,.72-.38,.97c-.25,.25-.56,.38-.92,.38Zm0,5.73c-.35,0-.66-.13-.91-.38-.26-.25-.38-.57-.38-.97s.13-.73,.38-.98,.56-.38,.91-.38,.67,.12,.92,.38c.25,.25,.38,.58,.38,.98s-.12,.72-.38,.97-.56,.38-.92,.38Z"/><path class="cls-3" d="M121.88,333.29l3.54-10.5h1.5l3.54,10.5h-1.41l-1.82-5.87c-.18-.59-.36-1.17-.54-1.75-.18-.58-.34-1.18-.5-1.78h-.06c-.17,.61-.34,1.2-.51,1.78-.17,.58-.35,1.17-.53,1.75l-1.84,5.87h-1.36Zm1.86-3.2v-1.07h4.82v1.07h-4.82Z"/><path class="cls-3" d="M134.51,333.48c-1.01,0-1.83-.35-2.45-1.06-.62-.71-.93-1.71-.93-3,0-.84,.17-1.57,.5-2.18s.77-1.09,1.31-1.42c.54-.33,1.11-.5,1.72-.5,.46,0,.88,.09,1.26,.26s.73,.42,1.06,.74h.05l-.06-1.44v-2.99h1.31v11.39h-1.09l-.11-1.02h-.05c-.31,.33-.69,.62-1.13,.86-.44,.24-.91,.36-1.4,.36Zm.27-1.1c.38,0,.76-.1,1.12-.3,.36-.2,.72-.49,1.07-.87v-3.87c-.35-.33-.7-.57-1.03-.7s-.67-.21-1.02-.21c-.45,0-.86,.13-1.22,.38-.37,.25-.66,.6-.88,1.04-.22,.44-.33,.96-.33,1.56,0,.93,.2,1.66,.61,2.18s.97,.79,1.68,.79Z"/><path class="cls-3" d="M143.31,333.48c-1.01,0-1.83-.35-2.45-1.06-.62-.71-.93-1.71-.93-3,0-.84,.17-1.57,.5-2.18s.77-1.09,1.31-1.42c.54-.33,1.11-.5,1.72-.5,.46,0,.88,.09,1.26,.26s.73,.42,1.06,.74h.05l-.06-1.44v-2.99h1.31v11.39h-1.09l-.11-1.02h-.05c-.31,.33-.69,.62-1.13,.86-.44,.24-.91,.36-1.4,.36Zm.27-1.1c.38,0,.76-.1,1.12-.3,.36-.2,.72-.49,1.07-.87v-3.87c-.35-.33-.7-.57-1.03-.7s-.67-.21-1.02-.21c-.45,0-.86,.13-1.22,.38-.37,.25-.66,.6-.88,1.04-.22,.44-.33,.96-.33,1.56,0,.93,.2,1.66,.61,2.18s.97,.79,1.68,.79Z"/><path class="cls-3" d="M161.85,333.48c-.78,0-1.49-.16-2.12-.48s-1.14-.79-1.51-1.4c-.37-.61-.56-1.35-.56-2.22s.19-1.57,.56-2.18c.37-.61,.86-1.07,1.46-1.4,.6-.33,1.25-.49,1.94-.49,.75,0,1.38,.15,1.91,.46,.53,.3,.93,.73,1.22,1.27,.28,.54,.42,1.18,.42,1.92,0,.15,0,.29-.02,.43s-.03,.26-.05,.37h-6.58v-1.02h5.79l-.34,.37c0-.92-.21-1.61-.63-2.06-.42-.46-.99-.69-1.7-.69-.48,0-.93,.12-1.34,.35-.41,.24-.74,.58-.98,1.02-.25,.45-.37,1-.37,1.65s.13,1.23,.4,1.68c.27,.45,.63,.79,1.09,1.02,.46,.23,.98,.34,1.55,.34,.47,0,.89-.07,1.27-.2,.38-.13,.74-.31,1.1-.54l.48,.86c-.38,.26-.82,.47-1.32,.66s-1.06,.27-1.69,.27Z"/><path class="cls-3" d="M166.86,333.29v-7.78h1.09l.11,1.33h.06c.41-.44,.84-.8,1.31-1.09,.47-.29,1.01-.43,1.62-.43,.92,0,1.59,.27,2.03,.8s.66,1.31,.66,2.34v4.83h-1.31v-4.66c0-.74-.14-1.28-.42-1.64s-.74-.54-1.38-.54c-.46,0-.87,.12-1.23,.35-.36,.24-.77,.59-1.23,1.06v5.42h-1.31Z"/><path class="cls-3" d="M180.47,333.48c-.76,0-1.35-.14-1.79-.41-.44-.27-.75-.65-.94-1.13-.19-.48-.28-1.04-.28-1.68v-3.68h-2.19v-.99l2.24-.08,.18-2.5h1.09v2.5h3.82v1.07h-3.82v3.7c0,.46,.06,.85,.18,1.17,.12,.32,.32,.56,.61,.72s.68,.24,1.18,.24c.37,0,.71-.03,1.01-.1,.3-.06,.59-.15,.86-.26l.29,.96c-.35,.13-.72,.24-1.11,.33-.39,.09-.83,.14-1.32,.14Z"/><path class="cls-3" d="M188.02,333.29v-6.7h-3.62v-1.07h4.93v7.78h-1.31Zm.51-9.41c-.3,0-.55-.09-.75-.28-.2-.19-.3-.43-.3-.74s.1-.56,.3-.74c.2-.19,.45-.28,.75-.28s.55,.09,.75,.28c.2,.19,.3,.43,.3,.74s-.1,.56-.3,.74c-.2,.19-.45,.28-.75,.28Z"/><path class="cls-3" d="M198.07,333.48c-.76,0-1.35-.14-1.79-.41-.44-.27-.75-.65-.94-1.13-.19-.48-.28-1.04-.28-1.68v-3.68h-2.19v-.99l2.24-.08,.18-2.5h1.09v2.5h3.82v1.07h-3.82v3.7c0,.46,.06,.85,.18,1.17,.12,.32,.32,.56,.61,.72s.68,.24,1.18,.24c.37,0,.71-.03,1.01-.1,.3-.06,.59-.15,.86-.26l.29,.96c-.35,.13-.72,.24-1.11,.33-.39,.09-.83,.14-1.32,.14Z"/><path class="cls-3" d="M202.66,336.63c-.17,0-.35-.02-.54-.05s-.35-.07-.49-.11l.27-1.04c.11,.03,.22,.06,.34,.08,.12,.02,.24,.03,.36,.03,.54,0,.99-.16,1.33-.47,.34-.31,.61-.71,.8-1.19l.24-.58-3.63-7.79h1.33l1.9,4.3c.15,.34,.31,.71,.47,1.1,.17,.39,.33,.78,.49,1.16h.06c.14-.37,.28-.75,.42-1.14,.14-.39,.28-.76,.41-1.11l1.7-4.3h1.25l-3.42,8.42c-.19,.51-.43,.97-.72,1.38-.29,.41-.64,.73-1.06,.97-.42,.23-.93,.35-1.51,.35Z"/><path class="cls-3" d="M224.47,333.48c-.76,0-1.35-.14-1.79-.41-.44-.27-.75-.65-.94-1.13-.19-.48-.28-1.04-.28-1.68v-3.68h-2.19v-.99l2.24-.08,.18-2.5h1.09v2.5h3.82v1.07h-3.82v3.7c0,.46,.06,.85,.18,1.17,.12,.32,.32,.56,.61,.72s.68,.24,1.18,.24c.37,0,.71-.03,1.01-.1,.3-.06,.59-.15,.86-.26l.29,.96c-.35,.13-.72,.24-1.11,.33-.39,.09-.83,.14-1.32,.14Z"/><path class="cls-3" d="M231.77,333.48c-.68,0-1.31-.16-1.9-.48-.58-.32-1.05-.78-1.41-1.39-.36-.61-.54-1.34-.54-2.19s.18-1.62,.54-2.22c.36-.61,.83-1.07,1.41-1.39,.58-.32,1.21-.48,1.9-.48s1.31,.16,1.9,.48c.58,.32,1.05,.78,1.41,1.39,.36,.61,.54,1.35,.54,2.22s-.18,1.58-.54,2.19c-.36,.61-.83,1.07-1.41,1.39-.58,.32-1.21,.48-1.9,.48Zm0-1.09c.5,0,.94-.12,1.31-.38,.37-.25,.66-.6,.86-1.05,.2-.45,.3-.96,.3-1.55s-.1-1.12-.3-1.58c-.2-.45-.49-.8-.86-1.06-.37-.25-.81-.38-1.31-.38s-.94,.12-1.3,.38-.66,.6-.86,1.06c-.21,.45-.31,.98-.31,1.58s.1,1.1,.31,1.55c.21,.45,.5,.8,.86,1.05,.37,.25,.8,.38,1.3,.38Z"/><path class="cls-2" d="M245.75,331.46l.83-1.26c.46,.3,.93,.55,1.4,.74s.98,.3,1.53,.3c.51,0,.9-.1,1.16-.29,.26-.19,.39-.45,.39-.77,0-.28-.12-.51-.35-.7-.23-.19-.54-.35-.9-.5s-.76-.3-1.18-.46-.81-.34-1.18-.56c-.37-.22-.67-.49-.9-.81-.24-.32-.35-.72-.35-1.2,0-.52,.14-.98,.42-1.36,.28-.38,.67-.68,1.18-.89s1.09-.31,1.74-.31c.73,0,1.33,.12,1.82,.37,.49,.25,.91,.55,1.29,.93l-.93,1.07c-.37-.28-.73-.49-1.06-.64s-.75-.22-1.24-.22c-.44,0-.78,.09-1.04,.27-.26,.18-.38,.43-.38,.75,0,.24,.12,.44,.35,.61s.54,.33,.91,.46,.77,.29,1.18,.44c.41,.15,.8,.34,1.17,.57,.37,.22,.67,.5,.91,.82,.24,.33,.36,.73,.36,1.22,0,.52-.15,.99-.44,1.39-.29,.41-.7,.72-1.23,.95-.53,.23-1.17,.34-1.91,.34-.41,0-.82-.06-1.26-.17-.43-.11-.84-.26-1.23-.46s-.73-.41-1.03-.66Zm3.06-7.46v-2.66h1.28v2.66h-1.28Zm0,8.02h1.28v3.02h-1.28v-3.02Z"/><path class="cls-2" d="M260.25,335.72c-1.01,0-1.76-.16-2.25-.47s-.73-.89-.73-1.74c0-.38,.01-.73,.04-1.03,.03-.3,.05-.61,.08-.9,.03-.3,.04-.62,.04-.98,0-.19-.06-.38-.19-.56s-.35-.33-.68-.46c-.33-.12-.79-.18-1.38-.18v-1.12c.6,0,1.06-.06,1.38-.18,.33-.12,.55-.27,.68-.46,.13-.18,.19-.37,.19-.56,0-.34-.01-.66-.04-.97-.03-.3-.05-.61-.08-.92-.03-.31-.04-.65-.04-1.02,0-.84,.24-1.42,.73-1.74,.49-.31,1.23-.47,2.25-.47h1.1v1.01h-.74c-.49,0-.87,.04-1.13,.12-.26,.08-.44,.21-.54,.4s-.14,.44-.14,.76c0,.44,.01,.88,.04,1.34,.03,.45,.04,.93,.04,1.42,0,.57-.11,.98-.34,1.26-.22,.27-.62,.46-1.18,.55v.06c.57,.1,.96,.28,1.18,.55,.22,.27,.34,.69,.34,1.26,0,.51-.01,.98-.04,1.42-.03,.43-.04,.88-.04,1.34,0,.32,.05,.57,.14,.76,.1,.19,.27,.32,.54,.4,.26,.08,.64,.12,1.13,.12h.74v1.01h-1.1Z"/><path class="cls-2" d="M269.05,335.72c-1.01,0-1.76-.16-2.25-.47s-.73-.89-.73-1.74c0-.38,.01-.73,.04-1.03,.03-.3,.05-.61,.08-.9,.03-.3,.04-.62,.04-.98,0-.19-.06-.38-.19-.56s-.35-.33-.68-.46c-.33-.12-.79-.18-1.38-.18v-1.12c.6,0,1.06-.06,1.38-.18,.33-.12,.55-.27,.68-.46,.13-.18,.19-.37,.19-.56,0-.34-.01-.66-.04-.97-.03-.3-.05-.61-.08-.92-.03-.31-.04-.65-.04-1.02,0-.84,.24-1.42,.73-1.74,.49-.31,1.23-.47,2.25-.47h1.1v1.01h-.74c-.49,0-.87,.04-1.13,.12-.26,.08-.44,.21-.54,.4s-.14,.44-.14,.76c0,.44,.01,.88,.04,1.34,.03,.45,.04,.93,.04,1.42,0,.57-.11,.98-.34,1.26-.22,.27-.62,.46-1.18,.55v.06c.57,.1,.96,.28,1.18,.55,.22,.27,.34,.69,.34,1.26,0,.51-.01,.98-.04,1.42-.03,.43-.04,.88-.04,1.34,0,.32,.05,.57,.14,.76,.1,.19,.27,.32,.54,.4,.26,.08,.64,.12,1.13,.12h.74v1.01h-1.1Z"/><path class="cls-1" d="M281.08,336.39v-10.96h1.52l.14,.9h.05c.34-.32,.73-.58,1.18-.78,.44-.2,.89-.3,1.34-.3,.69,0,1.27,.17,1.74,.5,.47,.33,.83,.79,1.09,1.39,.26,.6,.38,1.3,.38,2.11,0,.9-.17,1.66-.5,2.29-.33,.63-.76,1.11-1.29,1.45-.53,.34-1.1,.5-1.7,.5-.35,0-.72-.08-1.1-.24s-.73-.39-1.05-.69h-.05l.1,1.38v2.46h-1.86Zm3.57-4.43c.37,0,.71-.1,1.01-.3,.3-.2,.53-.5,.7-.9,.17-.4,.26-.9,.26-1.5,0-.52-.06-.97-.19-1.34s-.32-.66-.58-.86c-.26-.2-.61-.3-1.05-.3-.3,0-.6,.08-.91,.22-.31,.15-.62,.39-.94,.72v3.54c.29,.26,.59,.44,.9,.55,.31,.11,.58,.17,.82,.17Z"/><path class="cls-1" d="M292.32,333.48c-.51,0-.96-.1-1.36-.3-.4-.2-.7-.47-.93-.81-.22-.34-.34-.74-.34-1.2,0-.87,.42-1.54,1.26-2.01,.84-.46,2.23-.76,4.17-.9-.02-.29-.1-.55-.23-.78-.13-.24-.33-.42-.6-.55-.27-.13-.61-.2-1.04-.2-.3,0-.59,.04-.88,.11-.29,.08-.57,.18-.86,.3-.28,.13-.56,.27-.84,.42l-.67-1.23c.32-.19,.67-.37,1.06-.54,.38-.17,.79-.3,1.22-.4,.43-.1,.86-.15,1.31-.15,.74,0,1.35,.13,1.85,.39,.5,.26,.87,.65,1.14,1.15s.39,1.12,.39,1.85v4.66h-1.5l-.14-.98h-.05c-.42,.32-.88,.59-1.38,.82-.51,.23-1.03,.34-1.56,.34Zm.56-1.44c.39,0,.78-.09,1.14-.26,.37-.18,.73-.41,1.1-.7v-1.66c-.94,.06-1.67,.17-2.21,.31-.53,.14-.91,.33-1.12,.55-.21,.22-.32,.47-.32,.75,0,.23,.06,.43,.19,.58,.13,.15,.3,.26,.5,.33s.45,.1,.71,.1Z"/><path class="cls-1" d="M299.44,333.29v-7.86h1.52l.16,1.78h.05c.39-.64,.88-1.13,1.46-1.46,.58-.34,1.21-.5,1.88-.5,.32,0,.6,.03,.83,.08,.23,.05,.46,.13,.69,.24l-.38,1.55c-.26-.09-.48-.15-.68-.18-.2-.04-.45-.06-.74-.06-.53,0-1.05,.15-1.56,.46s-.96,.85-1.37,1.62v4.34h-1.86Z"/><path class="cls-1" d="M309.92,333.48c-.51,0-.96-.1-1.36-.3-.4-.2-.7-.47-.93-.81-.22-.34-.34-.74-.34-1.2,0-.87,.42-1.54,1.26-2.01,.84-.46,2.23-.76,4.17-.9-.02-.29-.1-.55-.23-.78-.13-.24-.33-.42-.6-.55-.27-.13-.61-.2-1.04-.2-.3,0-.59,.04-.88,.11-.29,.08-.57,.18-.86,.3-.28,.13-.56,.27-.84,.42l-.67-1.23c.32-.19,.67-.37,1.06-.54,.38-.17,.79-.3,1.22-.4,.43-.1,.86-.15,1.31-.15,.74,0,1.35,.13,1.85,.39,.5,.26,.87,.65,1.14,1.15s.39,1.12,.39,1.85v4.66h-1.5l-.14-.98h-.05c-.42,.32-.88,.59-1.38,.82-.51,.23-1.03,.34-1.56,.34Zm.56-1.44c.39,0,.78-.09,1.14-.26,.37-.18,.73-.41,1.1-.7v-1.66c-.94,.06-1.67,.17-2.21,.31-.53,.14-.91,.33-1.12,.55-.21,.22-.32,.47-.32,.75,0,.23,.06,.43,.19,.58,.13,.15,.3,.26,.5,.33s.45,.1,.71,.1Z"/><path class="cls-1" d="M315.7,333.29v-7.86h1.42l.14,1.01h.03c.18-.35,.41-.64,.67-.86s.62-.34,1.07-.34c.37,0,.68,.11,.92,.34s.41,.55,.52,.99c.18-.39,.41-.71,.7-.96s.65-.37,1.1-.37c.55,0,.98,.22,1.29,.65,.3,.43,.46,1.04,.46,1.83v5.57h-1.79v-5.44c0-.69-.2-1.04-.61-1.04-.21,0-.39,.08-.54,.24-.14,.16-.3,.41-.46,.75v5.49h-1.52v-5.44c0-.34-.05-.6-.15-.78-.1-.18-.26-.26-.49-.26-.2,0-.38,.08-.53,.24s-.3,.41-.45,.75v5.49h-1.79Z"/><path class="cls-1" d="M329.04,333.48c-.8,0-1.53-.16-2.18-.49-.65-.33-1.17-.8-1.55-1.42-.38-.62-.58-1.36-.58-2.22s.19-1.59,.58-2.2,.89-1.09,1.5-1.42c.62-.33,1.28-.5,1.98-.5,.78,0,1.44,.16,1.98,.48,.54,.32,.95,.76,1.23,1.32,.28,.56,.42,1.2,.42,1.93,0,.18,0,.36-.02,.53-.01,.17-.03,.3-.05,.4h-6.3v-1.3h5.1l-.35,.4c0-.78-.17-1.37-.52-1.76s-.83-.59-1.45-.59c-.44,0-.83,.1-1.18,.31s-.62,.51-.82,.91c-.2,.4-.3,.89-.3,1.46,0,.62,.11,1.13,.34,1.53,.23,.4,.55,.7,.96,.9,.41,.2,.89,.3,1.43,.3,.42,0,.8-.06,1.15-.18,.35-.12,.7-.28,1.06-.48l.62,1.15c-.42,.27-.89,.49-1.42,.66-.53,.18-1.08,.26-1.66,.26Z"/><path class="cls-1" d="M338.82,333.48c-.8,0-1.43-.14-1.9-.42-.47-.28-.8-.67-1.01-1.18-.2-.5-.3-1.08-.3-1.74v-3.23h-2.08v-1.38l2.14-.1,.26-2.46h1.5v2.46h3.6v1.47h-3.6v3.22c0,.43,.06,.78,.18,1.06,.12,.28,.31,.49,.58,.62,.27,.13,.63,.2,1.06,.2,.34,0,.65-.03,.93-.08,.28-.05,.54-.13,.78-.22l.38,1.33c-.35,.12-.73,.22-1.14,.31-.41,.09-.87,.14-1.38,.14Z"/><path class="cls-1" d="M346.64,333.48c-.8,0-1.53-.16-2.18-.49-.65-.33-1.17-.8-1.55-1.42-.38-.62-.58-1.36-.58-2.22s.19-1.59,.58-2.2,.89-1.09,1.5-1.42c.62-.33,1.28-.5,1.98-.5,.78,0,1.44,.16,1.98,.48,.54,.32,.95,.76,1.23,1.32,.28,.56,.42,1.2,.42,1.93,0,.18,0,.36-.02,.53-.01,.17-.03,.3-.05,.4h-6.3v-1.3h5.1l-.35,.4c0-.78-.17-1.37-.52-1.76s-.83-.59-1.45-.59c-.44,0-.83,.1-1.18,.31s-.62,.51-.82,.91c-.2,.4-.3,.89-.3,1.46,0,.62,.11,1.13,.34,1.53,.23,.4,.55,.7,.96,.9,.41,.2,.89,.3,1.43,.3,.42,0,.8-.06,1.15-.18,.35-.12,.7-.28,1.06-.48l.62,1.15c-.42,.27-.89,.49-1.42,.66-.53,.18-1.08,.26-1.66,.26Z"/><path class="cls-1" d="M352.24,333.29v-7.86h1.52l.16,1.78h.05c.39-.64,.88-1.13,1.46-1.46,.58-.34,1.21-.5,1.88-.5,.32,0,.6,.03,.83,.08,.23,.05,.46,.13,.69,.24l-.38,1.55c-.26-.09-.48-.15-.68-.18-.2-.04-.45-.06-.74-.06-.53,0-1.05,.15-1.56,.46s-.96,.85-1.37,1.62v4.34h-1.86Z"/><path class="cls-1" d="M363.81,333.48c-.74,0-1.44-.12-2.11-.36s-1.25-.53-1.74-.86l.8-1.17c.47,.31,.98,.55,1.52,.73,.54,.18,1.14,.26,1.78,.26,.54,0,.95-.09,1.21-.28,.26-.19,.39-.41,.39-.66,0-.13-.03-.25-.09-.35s-.16-.21-.31-.3-.37-.18-.66-.26c-.29-.09-.66-.18-1.12-.27-1.04-.22-1.81-.53-2.3-.91-.49-.38-.74-.87-.74-1.46,0-.69,.3-1.26,.9-1.7s1.45-.66,2.55-.66c.65,0,1.26,.11,1.83,.32,.57,.21,1.05,.45,1.45,.72l-.85,1.14c-.37-.26-.78-.45-1.23-.58-.45-.13-.9-.2-1.36-.2-.35,0-.63,.04-.84,.11s-.36,.18-.46,.31c-.1,.13-.15,.28-.15,.44,0,.28,.16,.49,.48,.62s.84,.29,1.57,.45c.84,.18,1.49,.39,1.95,.62,.46,.23,.78,.49,.95,.78,.18,.29,.26,.65,.26,1.08,0,.45-.14,.86-.42,1.22-.28,.37-.7,.66-1.24,.88-.54,.22-1.22,.33-2.02,.33Z"/><path class="cls-1" d="M372.56,333.48c-.45,0-.82-.16-1.13-.46-.3-.31-.46-.69-.46-1.15s.15-.86,.46-1.16,.68-.46,1.13-.46,.84,.15,1.14,.46c.3,.3,.45,.69,.45,1.16s-.15,.84-.45,1.15c-.3,.31-.68,.46-1.14,.46Z"/><path class="cls-1" d="M377.87,336.39v-10.96h1.52l.14,.9h.05c.34-.32,.73-.58,1.18-.78,.44-.2,.89-.3,1.34-.3,.69,0,1.27,.17,1.74,.5,.47,.33,.83,.79,1.09,1.39,.26,.6,.38,1.3,.38,2.11,0,.9-.17,1.66-.5,2.29-.33,.63-.76,1.11-1.29,1.45-.53,.34-1.1,.5-1.7,.5-.35,0-.72-.08-1.1-.24s-.73-.39-1.05-.69h-.05l.1,1.38v2.46h-1.86Zm3.57-4.43c.37,0,.71-.1,1.01-.3,.3-.2,.53-.5,.7-.9,.17-.4,.26-.9,.26-1.5,0-.52-.06-.97-.19-1.34s-.32-.66-.58-.86c-.26-.2-.61-.3-1.05-.3-.3,0-.6,.08-.91,.22-.31,.15-.62,.39-.94,.72v3.54c.29,.26,.59,.44,.9,.55,.31,.11,.58,.17,.82,.17Z"/><path class="cls-1" d="M389.12,333.48c-.51,0-.96-.1-1.36-.3-.4-.2-.7-.47-.93-.81-.22-.34-.34-.74-.34-1.2,0-.87,.42-1.54,1.26-2.01,.84-.46,2.23-.76,4.17-.9-.02-.29-.1-.55-.23-.78-.13-.24-.33-.42-.6-.55-.27-.13-.61-.2-1.04-.2-.3,0-.59,.04-.88,.11-.29,.08-.57,.18-.86,.3-.28,.13-.56,.27-.84,.42l-.67-1.23c.32-.19,.67-.37,1.06-.54,.38-.17,.79-.3,1.22-.4,.43-.1,.86-.15,1.31-.15,.74,0,1.35,.13,1.85,.39,.5,.26,.87,.65,1.14,1.15s.39,1.12,.39,1.85v4.66h-1.5l-.14-.98h-.05c-.42,.32-.88,.59-1.38,.82-.51,.23-1.03,.34-1.56,.34Zm.56-1.44c.39,0,.78-.09,1.14-.26,.37-.18,.73-.41,1.1-.7v-1.66c-.94,.06-1.67,.17-2.21,.31-.53,.14-.91,.33-1.12,.55-.21,.22-.32,.47-.32,.75,0,.23,.06,.43,.19,.58,.13,.15,.3,.26,.5,.33s.45,.1,.71,.1Z"/><path class="cls-1" d="M400.42,333.48c-.8,0-1.43-.14-1.9-.42-.47-.28-.8-.67-1.01-1.18-.2-.5-.3-1.08-.3-1.74v-3.23h-2.08v-1.38l2.14-.1,.26-2.46h1.5v2.46h3.6v1.47h-3.6v3.22c0,.43,.06,.78,.18,1.06,.12,.28,.31,.49,.58,.62,.27,.13,.63,.2,1.06,.2,.34,0,.65-.03,.93-.08,.28-.05,.54-.13,.78-.22l.38,1.33c-.35,.12-.73,.22-1.14,.31-.41,.09-.87,.14-1.38,.14Z"/><path class="cls-1" d="M404.27,333.29v-11.3h1.86v2.91l-.11,1.68h.05c.34-.36,.74-.68,1.19-.94,.45-.27,.98-.4,1.58-.4,.91,0,1.57,.28,2,.83s.64,1.34,.64,2.35v4.86h-1.86v-4.62c0-.63-.11-1.09-.34-1.39-.22-.3-.6-.45-1.14-.45-.38,0-.72,.09-1.02,.27-.3,.18-.63,.46-.99,.83v5.36h-1.86Z"/><path class="cls-2" d="M422.19,335.72v-1.01h.74c.49,0,.87-.04,1.13-.12,.26-.08,.44-.21,.54-.4,.1-.19,.14-.44,.14-.76,0-.46-.01-.9-.04-1.34-.03-.43-.04-.9-.04-1.42,0-.56,.11-.98,.34-1.26,.22-.27,.62-.46,1.18-.55v-.06c-.57-.1-.96-.28-1.18-.55-.22-.27-.34-.69-.34-1.26,0-.49,.01-.96,.04-1.42s.04-.9,.04-1.34c0-.32-.05-.57-.14-.76-.1-.19-.28-.32-.54-.4-.26-.08-.64-.12-1.13-.12h-.74v-1.01h1.1c1.01,0,1.76,.16,2.24,.47,.48,.32,.72,.89,.72,1.74,0,.37-.01,.71-.03,1.02s-.05,.62-.08,.92c-.03,.3-.05,.63-.05,.97,0,.19,.06,.38,.19,.56,.13,.18,.35,.33,.68,.46,.33,.12,.79,.18,1.38,.18v1.12c-.6,0-1.06,.06-1.38,.18-.33,.12-.55,.27-.68,.46-.13,.18-.19,.37-.19,.56,0,.35,.02,.68,.05,.98s.06,.6,.08,.9c.02,.3,.03,.65,.03,1.03,0,.84-.24,1.42-.72,1.74-.48,.31-1.23,.47-2.24,.47h-1.1Z"/><path class="cls-2" d="M430.99,335.72v-1.01h.74c.49,0,.87-.04,1.13-.12,.26-.08,.44-.21,.54-.4,.1-.19,.14-.44,.14-.76,0-.46-.01-.9-.04-1.34-.03-.43-.04-.9-.04-1.42,0-.56,.11-.98,.34-1.26,.22-.27,.62-.46,1.18-.55v-.06c-.57-.1-.96-.28-1.18-.55-.22-.27-.34-.69-.34-1.26,0-.49,.01-.96,.04-1.42s.04-.9,.04-1.34c0-.32-.05-.57-.14-.76-.1-.19-.28-.32-.54-.4-.26-.08-.64-.12-1.13-.12h-.74v-1.01h1.1c1.01,0,1.76,.16,2.24,.47,.48,.32,.72,.89,.72,1.74,0,.37-.01,.71-.03,1.02s-.05,.62-.08,.92c-.03,.3-.05,.63-.05,.97,0,.19,.06,.38,.19,.56,.13,.18,.35,.33,.68,.46,.33,.12,.79,.18,1.38,.18v1.12c-.6,0-1.06,.06-1.38,.18-.33,.12-.55,.27-.68,.46-.13,.18-.19,.37-.19,.56,0,.35,.02,.68,.05,.98s.06,.6,.08,.9c.02,.3,.03,.65,.03,1.03,0,.84-.24,1.42-.72,1.74-.48,.31-1.23,.47-2.24,.47h-1.1Z"/><path class="cls-4" d="M64.11,357.48c-1.01,0-1.83-.35-2.45-1.06-.62-.71-.93-1.71-.93-3,0-.84,.17-1.57,.5-2.18s.77-1.09,1.31-1.42c.54-.33,1.11-.5,1.72-.5,.46,0,.88,.09,1.26,.26s.73,.42,1.06,.74h.05l-.06-1.44v-2.99h1.31v11.39h-1.09l-.11-1.02h-.05c-.31,.33-.69,.62-1.13,.86-.44,.24-.91,.36-1.4,.36Zm.27-1.1c.38,0,.76-.1,1.12-.3,.36-.2,.72-.49,1.07-.87v-3.87c-.35-.33-.7-.57-1.03-.7s-.67-.21-1.02-.21c-.45,0-.86,.13-1.22,.38-.37,.25-.66,.6-.88,1.04-.22,.44-.33,.96-.33,1.56,0,.93,.2,1.66,.61,2.18s.97,.79,1.68,.79Z"/><path class="cls-4" d="M73.85,357.48c-.78,0-1.49-.16-2.12-.48s-1.14-.79-1.51-1.4c-.37-.61-.56-1.35-.56-2.22s.19-1.57,.56-2.18c.37-.61,.86-1.07,1.46-1.4,.6-.33,1.25-.49,1.94-.49,.75,0,1.38,.15,1.91,.46,.53,.3,.93,.73,1.22,1.27,.28,.54,.42,1.18,.42,1.92,0,.15,0,.29-.02,.43s-.03,.26-.05,.37h-6.58v-1.02h5.79l-.34,.37c0-.92-.21-1.61-.63-2.06-.42-.46-.99-.69-1.7-.69-.48,0-.93,.12-1.34,.35-.41,.24-.74,.58-.98,1.02-.25,.45-.37,1-.37,1.65s.13,1.23,.4,1.68c.27,.45,.63,.79,1.09,1.02,.46,.23,.98,.34,1.55,.34,.47,0,.89-.07,1.27-.2,.38-.13,.74-.31,1.1-.54l.48,.86c-.38,.26-.82,.47-1.32,.66s-1.06,.27-1.69,.27Z"/><path class="cls-4" d="M82.33,357.48c-.76,0-1.47-.12-2.13-.37s-1.23-.53-1.7-.85l.61-.86c.45,.32,.94,.58,1.49,.77,.54,.19,1.17,.29,1.89,.29,.66,0,1.15-.12,1.48-.37,.33-.25,.49-.53,.49-.85,0-.15-.03-.29-.09-.42s-.17-.25-.34-.37c-.17-.12-.41-.23-.73-.34-.32-.11-.75-.21-1.28-.32-1.01-.21-1.77-.5-2.28-.86-.51-.36-.76-.83-.76-1.41,0-.63,.27-1.15,.82-1.58,.54-.42,1.35-.63,2.42-.63,.6,0,1.17,.1,1.73,.3s1.02,.43,1.41,.7l-.64,.85c-.35-.26-.75-.46-1.2-.6-.45-.14-.92-.22-1.41-.22-.45,0-.8,.05-1.06,.15s-.45,.24-.56,.41c-.11,.17-.17,.36-.17,.56,0,.33,.18,.59,.54,.78,.36,.19,.93,.36,1.72,.52,.86,.18,1.53,.38,1.99,.61,.46,.22,.78,.48,.96,.77,.18,.29,.26,.63,.26,1.02,0,.43-.13,.81-.4,1.16s-.66,.63-1.17,.84c-.51,.21-1.14,.32-1.89,.32Z"/><path class="cls-4" d="M91.71,357.48c-.81,0-1.54-.16-2.18-.48s-1.15-.78-1.52-1.39c-.37-.61-.55-1.34-.55-2.19s.2-1.62,.59-2.22c.39-.61,.92-1.07,1.58-1.39,.66-.32,1.38-.48,2.17-.48,.64,0,1.19,.11,1.66,.34,.46,.22,.86,.49,1.18,.8l-.66,.85c-.32-.28-.65-.5-.99-.66-.34-.16-.72-.24-1.14-.24-.6,0-1.13,.12-1.58,.38-.46,.25-.81,.6-1.06,1.06-.25,.45-.38,.98-.38,1.58s.12,1.1,.37,1.55c.25,.45,.59,.8,1.05,1.05,.45,.25,.98,.38,1.58,.38,.48,0,.92-.1,1.32-.29,.4-.19,.76-.42,1.08-.69l.59,.85c-.43,.38-.9,.68-1.43,.9-.53,.21-1.08,.32-1.66,.32Z"/><path class="cls-4" d="M97.31,357.29v-7.78h1.09l.11,1.84h.05c.41-.63,.91-1.13,1.5-1.49s1.25-.54,1.97-.54c.29,0,.56,.02,.81,.07,.25,.05,.49,.13,.73,.25l-.3,1.14c-.27-.1-.5-.17-.69-.21-.19-.04-.44-.06-.75-.06-.59,0-1.15,.17-1.69,.5-.54,.34-1.04,.91-1.51,1.72v4.56h-1.31Z"/><path class="cls-4" d="M108.83,357.29v-6.7h-3.62v-1.07h4.93v7.78h-1.31Zm.51-9.41c-.3,0-.55-.09-.75-.28-.2-.19-.3-.43-.3-.74s.1-.56,.3-.74c.2-.19,.45-.28,.75-.28s.55,.09,.75,.28c.2,.19,.3,.43,.3,.74s-.1,.56-.3,.74c-.2,.19-.45,.28-.75,.28Z"/><path class="cls-4" d="M114.06,360.57v-11.06h1.09l.11,.99h.05c.36-.34,.78-.62,1.26-.85,.47-.22,.95-.34,1.43-.34,.7,0,1.29,.16,1.77,.49,.47,.33,.83,.78,1.08,1.38,.25,.59,.37,1.29,.37,2.1,0,.88-.17,1.63-.5,2.26-.33,.63-.76,1.11-1.3,1.44-.53,.33-1.11,.5-1.74,.5-.35,0-.74-.09-1.16-.26-.42-.18-.81-.42-1.16-.74h-.05l.06,1.47v2.62h-1.31Zm3.39-4.19c.46,0,.87-.12,1.23-.37,.36-.25,.65-.6,.86-1.06s.31-1.02,.31-1.66c0-.57-.08-1.06-.22-1.5s-.38-.77-.7-1.01c-.32-.24-.74-.36-1.26-.36-.35,0-.72,.09-1.11,.28-.39,.19-.78,.48-1.18,.89v3.87c.37,.33,.75,.57,1.13,.7s.7,.21,.95,.21Z"/><path class="cls-4" d="M127.68,357.48c-.76,0-1.35-.14-1.79-.41-.44-.27-.75-.65-.94-1.13-.19-.48-.28-1.04-.28-1.68v-3.68h-2.19v-.99l2.24-.08,.18-2.5h1.09v2.5h3.82v1.07h-3.82v3.7c0,.46,.06,.85,.18,1.17,.12,.32,.32,.56,.61,.72s.68,.24,1.18,.24c.37,0,.71-.03,1.01-.1,.3-.06,.59-.15,.86-.26l.29,.96c-.35,.13-.72,.24-1.11,.33-.39,.09-.83,.14-1.32,.14Z"/><path class="cls-4" d="M135.23,357.29v-6.7h-3.62v-1.07h4.93v7.78h-1.31Zm.51-9.41c-.3,0-.55-.09-.75-.28-.2-.19-.3-.43-.3-.74s.1-.56,.3-.74c.2-.19,.45-.28,.75-.28s.55,.09,.75,.28c.2,.19,.3,.43,.3,.74s-.1,.56-.3,.74c-.2,.19-.45,.28-.75,.28Z"/><path class="cls-4" d="M143.77,357.48c-.68,0-1.31-.16-1.9-.48-.58-.32-1.05-.78-1.41-1.39-.36-.61-.54-1.34-.54-2.19s.18-1.62,.54-2.22c.36-.61,.83-1.07,1.41-1.39,.58-.32,1.21-.48,1.9-.48s1.31,.16,1.9,.48c.58,.32,1.05,.78,1.41,1.39,.36,.61,.54,1.35,.54,2.22s-.18,1.58-.54,2.19c-.36,.61-.83,1.07-1.41,1.39-.58,.32-1.21,.48-1.9,.48Zm0-1.09c.5,0,.94-.12,1.31-.38,.37-.25,.66-.6,.86-1.05,.2-.45,.3-.96,.3-1.55s-.1-1.12-.3-1.58c-.2-.45-.49-.8-.86-1.06-.37-.25-.81-.38-1.31-.38s-.94,.12-1.3,.38-.66,.6-.86,1.06c-.21,.45-.31,.98-.31,1.58s.1,1.1,.31,1.55c.21,.45,.5,.8,.86,1.05,.37,.25,.8,.38,1.3,.38Z"/><path class="cls-4" d="M149.26,357.29v-7.78h1.09l.11,1.33h.06c.41-.44,.84-.8,1.31-1.09,.47-.29,1.01-.43,1.62-.43,.92,0,1.59,.27,2.03,.8s.66,1.31,.66,2.34v4.83h-1.31v-4.66c0-.74-.14-1.28-.42-1.64s-.74-.54-1.38-.54c-.46,0-.87,.12-1.23,.35-.36,.24-.77,.59-1.23,1.06v5.42h-1.31Z"/><path class="cls-4" d="M161.37,351.75c-.35,0-.66-.12-.91-.38-.26-.25-.38-.57-.38-.97s.13-.73,.38-.98c.26-.25,.56-.38,.91-.38s.67,.13,.92,.38,.38,.58,.38,.98-.12,.72-.38,.97c-.25,.25-.56,.38-.92,.38Zm0,5.73c-.35,0-.66-.13-.91-.38-.26-.25-.38-.57-.38-.97s.13-.73,.38-.98,.56-.38,.91-.38,.67,.12,.92,.38c.25,.25,.38,.58,.38,.98s-.12,.72-.38,.97-.56,.38-.92,.38Z"/><path class="cls-3" d="M175.8,357.29v-10.5h3.17c.78,0,1.46,.1,2.04,.3s1.03,.52,1.36,.97c.33,.45,.49,1.06,.49,1.82s-.16,1.34-.49,1.82c-.33,.47-.78,.83-1.37,1.07-.59,.24-1.26,.36-2.03,.36h-1.84v4.16h-1.33Zm1.33-5.25h1.68c.92,0,1.6-.18,2.04-.53,.44-.35,.66-.9,.66-1.63s-.22-1.28-.67-1.58c-.45-.29-1.12-.44-2.03-.44h-1.68v4.18Z"/><path class="cls-3" d="M184.57,357.29v-10.5h3.26c.71,0,1.35,.09,1.9,.28,.55,.19,.98,.5,1.3,.93s.47,1.01,.47,1.74-.16,1.29-.47,1.74c-.31,.46-.75,.8-1.3,1.03-.55,.23-1.18,.34-1.9,.34h-1.94v4.43h-1.33Zm1.33-5.52h1.74c.82,0,1.45-.17,1.88-.5,.43-.34,.65-.84,.65-1.53s-.22-1.17-.65-1.45c-.43-.28-1.06-.42-1.88-.42h-1.74v3.9Zm1.66,.72l1.06-.7,3.2,5.5h-1.52l-2.74-4.8Z"/><path class="cls-3" d="M206.1,357.48c-.81,0-1.54-.16-2.18-.48s-1.15-.78-1.52-1.39c-.37-.61-.55-1.34-.55-2.19s.2-1.62,.59-2.22c.39-.61,.92-1.07,1.58-1.39,.66-.32,1.38-.48,2.17-.48,.64,0,1.19,.11,1.66,.34,.46,.22,.86,.49,1.18,.8l-.66,.85c-.32-.28-.65-.5-.99-.66-.34-.16-.72-.24-1.14-.24-.6,0-1.13,.12-1.58,.38-.46,.25-.81,.6-1.06,1.06-.25,.45-.38,.98-.38,1.58s.12,1.1,.37,1.55c.25,.45,.59,.8,1.05,1.05,.45,.25,.98,.38,1.58,.38,.48,0,.92-.1,1.32-.29,.4-.19,.76-.42,1.08-.69l.59,.85c-.43,.38-.9,.68-1.43,.9-.53,.21-1.08,.32-1.66,.32Z"/><path class="cls-3" d="M211.7,357.29v-7.78h1.09l.11,1.84h.05c.41-.63,.91-1.13,1.5-1.49s1.25-.54,1.97-.54c.29,0,.56,.02,.81,.07,.25,.05,.49,.13,.73,.25l-.3,1.14c-.27-.1-.5-.17-.69-.21-.19-.04-.44-.06-.75-.06-.59,0-1.15,.17-1.69,.5-.54,.34-1.04,.91-1.51,1.72v4.56h-1.31Z"/><path class="cls-3" d="M223.45,357.48c-.78,0-1.49-.16-2.12-.48s-1.14-.79-1.51-1.4c-.37-.61-.56-1.35-.56-2.22s.19-1.57,.56-2.18c.37-.61,.86-1.07,1.46-1.4,.6-.33,1.25-.49,1.94-.49,.75,0,1.38,.15,1.91,.46,.53,.3,.93,.73,1.22,1.27,.28,.54,.42,1.18,.42,1.92,0,.15,0,.29-.02,.43s-.03,.26-.05,.37h-6.58v-1.02h5.79l-.34,.37c0-.92-.21-1.61-.63-2.06-.42-.46-.99-.69-1.7-.69-.48,0-.93,.12-1.34,.35-.41,.24-.74,.58-.98,1.02-.25,.45-.37,1-.37,1.65s.13,1.23,.4,1.68c.27,.45,.63,.79,1.09,1.02,.46,.23,.98,.34,1.55,.34,.47,0,.89-.07,1.27-.2,.38-.13,.74-.31,1.1-.54l.48,.86c-.38,.26-.82,.47-1.32,.66s-1.06,.27-1.69,.27Z"/><path class="cls-3" d="M230.9,357.48c-.48,0-.92-.09-1.33-.26-.41-.18-.73-.43-.96-.76-.24-.33-.35-.73-.35-1.18,0-.88,.44-1.54,1.31-1.99,.87-.45,2.31-.76,4.32-.92-.01-.35-.08-.68-.22-.98-.13-.3-.35-.54-.65-.71-.3-.18-.7-.26-1.2-.26-.33,0-.66,.04-.98,.14s-.63,.21-.93,.35c-.29,.14-.56,.29-.81,.44l-.51-.9c.26-.17,.57-.34,.94-.52,.37-.18,.76-.32,1.19-.43,.43-.11,.87-.17,1.33-.17,.71,0,1.3,.13,1.77,.4,.46,.27,.81,.64,1.04,1.11,.23,.47,.34,1.04,.34,1.69v4.77h-1.07l-.11-1.06h-.05c-.43,.34-.91,.63-1.44,.88-.53,.25-1.08,.37-1.63,.37Zm.35-1.06c.45,0,.89-.1,1.33-.3,.44-.2,.87-.49,1.31-.85v-2.05c-1.11,.1-1.98,.23-2.62,.4-.63,.17-1.08,.39-1.34,.65-.26,.26-.39,.56-.39,.9,0,.29,.08,.53,.24,.71,.16,.19,.37,.32,.63,.41,.26,.09,.54,.13,.84,.13Z"/><path class="cls-3" d="M242.07,357.48c-.76,0-1.35-.14-1.79-.41-.44-.27-.75-.65-.94-1.13-.19-.48-.28-1.04-.28-1.68v-3.68h-2.19v-.99l2.24-.08,.18-2.5h1.09v2.5h3.82v1.07h-3.82v3.7c0,.46,.06,.85,.18,1.17,.12,.32,.32,.56,.61,.72s.68,.24,1.18,.24c.37,0,.71-.03,1.01-.1,.3-.06,.59-.15,.86-.26l.29,.96c-.35,.13-.72,.24-1.11,.33-.39,.09-.83,.14-1.32,.14Z"/><path class="cls-3" d="M249.85,357.48c-.78,0-1.49-.16-2.12-.48s-1.14-.79-1.51-1.4c-.37-.61-.56-1.35-.56-2.22s.19-1.57,.56-2.18c.37-.61,.86-1.07,1.46-1.4,.6-.33,1.25-.49,1.94-.49,.75,0,1.38,.15,1.91,.46,.53,.3,.93,.73,1.22,1.27,.28,.54,.42,1.18,.42,1.92,0,.15,0,.29-.02,.43s-.03,.26-.05,.37h-6.58v-1.02h5.79l-.34,.37c0-.92-.21-1.61-.63-2.06-.42-.46-.99-.69-1.7-.69-.48,0-.93,.12-1.34,.35-.41,.24-.74,.58-.98,1.02-.25,.45-.37,1-.37,1.65s.13,1.23,.4,1.68c.27,.45,.63,.79,1.09,1.02,.46,.23,.98,.34,1.55,.34,.47,0,.89-.07,1.27-.2,.38-.13,.74-.31,1.1-.54l.48,.86c-.38,.26-.82,.47-1.32,.66s-1.06,.27-1.69,.27Z"/><path class="cls-3" d="M257.7,357.48c-1.01,0-1.83-.35-2.45-1.06-.62-.71-.93-1.71-.93-3,0-.84,.17-1.57,.5-2.18s.77-1.09,1.31-1.42c.54-.33,1.11-.5,1.72-.5,.46,0,.88,.09,1.26,.26s.73,.42,1.06,.74h.05l-.06-1.44v-2.99h1.31v11.39h-1.09l-.11-1.02h-.05c-.31,.33-.69,.62-1.13,.86-.44,.24-.91,.36-1.4,.36Zm.27-1.1c.38,0,.76-.1,1.12-.3,.36-.2,.72-.49,1.07-.87v-3.87c-.35-.33-.7-.57-1.03-.7s-.67-.21-1.02-.21c-.45,0-.86,.13-1.22,.38-.37,.25-.66,.6-.88,1.04-.22,.44-.33,.96-.33,1.56,0,.93,.2,1.66,.61,2.18s.97,.79,1.68,.79Z"/><path class="cls-3" d="M272.61,350.58v-.99l2.27-.08h4.51v1.07h-6.78Zm2.22,6.7v-8.43c0-.63,.11-1.18,.34-1.66s.57-.84,1.03-1.1c.46-.26,1.04-.39,1.76-.39,.38,0,.76,.04,1.13,.1,.37,.07,.74,.18,1.11,.34l-.3,.99c-.32-.15-.62-.25-.89-.3-.27-.05-.58-.07-.92-.07-.69,0-1.19,.18-1.5,.54s-.46,.86-.46,1.49v8.48h-1.3Z"/><path class="cls-3" d="M282.1,357.29v-7.78h1.09l.11,1.84h.05c.41-.63,.91-1.13,1.5-1.49s1.25-.54,1.97-.54c.29,0,.56,.02,.81,.07,.25,.05,.49,.13,.73,.25l-.3,1.14c-.27-.1-.5-.17-.69-.21-.19-.04-.44-.06-.75-.06-.59,0-1.15,.17-1.69,.5-.54,.34-1.04,.91-1.51,1.72v4.56h-1.31Z"/><path class="cls-3" d="M293.36,357.48c-.68,0-1.31-.16-1.9-.48-.58-.32-1.05-.78-1.41-1.39-.36-.61-.54-1.34-.54-2.19s.18-1.62,.54-2.22c.36-.61,.83-1.07,1.41-1.39,.58-.32,1.21-.48,1.9-.48s1.31,.16,1.9,.48c.58,.32,1.05,.78,1.41,1.39,.36,.61,.54,1.35,.54,2.22s-.18,1.58-.54,2.19c-.36,.61-.83,1.07-1.41,1.39-.58,.32-1.21,.48-1.9,.48Zm0-1.09c.5,0,.94-.12,1.31-.38,.37-.25,.66-.6,.86-1.05,.2-.45,.3-.96,.3-1.55s-.1-1.12-.3-1.58c-.2-.45-.49-.8-.86-1.06-.37-.25-.81-.38-1.31-.38s-.94,.12-1.3,.38-.66,.6-.86,1.06c-.21,.45-.31,.98-.31,1.58s.1,1.1,.31,1.55c.21,.45,.5,.8,.86,1.05,.37,.25,.8,.38,1.3,.38Z"/><path class="cls-3" d="M298.29,357.29v-7.78h1.06l.11,1.02h.03c.2-.36,.44-.66,.7-.88,.27-.22,.62-.34,1.07-.34,.38,0,.7,.11,.94,.34,.25,.22,.42,.56,.53,1.01,.22-.42,.47-.74,.74-.98,.27-.24,.63-.36,1.08-.36,.54,0,.97,.21,1.27,.62,.3,.41,.46,1,.46,1.78v5.57h-1.31v-5.47c0-.91-.28-1.36-.83-1.36-.27,0-.49,.1-.66,.3s-.37,.5-.58,.9v5.63h-1.22v-5.47c0-.45-.06-.79-.18-1.02-.12-.23-.33-.34-.62-.34-.27,0-.5,.1-.7,.3s-.39,.5-.58,.9v5.63h-1.31Z"/><path class="cls-3" d="M316.56,357.29v-10.5h3.26c.71,0,1.35,.09,1.9,.28,.55,.19,.98,.5,1.3,.93s.47,1.01,.47,1.74-.16,1.29-.47,1.74c-.31,.46-.75,.8-1.3,1.03-.55,.23-1.18,.34-1.9,.34h-1.94v4.43h-1.33Zm1.33-5.52h1.74c.82,0,1.45-.17,1.88-.5,.43-.34,.65-.84,.65-1.53s-.22-1.17-.65-1.45c-.43-.28-1.06-.42-1.88-.42h-1.74v3.9Zm1.66,.72l1.06-.7,3.2,5.5h-1.52l-2.74-4.8Z"/><path class="cls-3" d="M328.56,357.48c-.68,0-1.31-.16-1.9-.48-.58-.32-1.05-.78-1.41-1.39-.36-.61-.54-1.34-.54-2.19s.18-1.62,.54-2.22c.36-.61,.83-1.07,1.41-1.39,.58-.32,1.21-.48,1.9-.48s1.31,.16,1.9,.48c.58,.32,1.05,.78,1.41,1.39,.36,.61,.54,1.35,.54,2.22s-.18,1.58-.54,2.19c-.36,.61-.83,1.07-1.41,1.39-.58,.32-1.21,.48-1.9,.48Zm0-1.09c.5,0,.94-.12,1.31-.38,.37-.25,.66-.6,.86-1.05,.2-.45,.3-.96,.3-1.55s-.1-1.12-.3-1.58c-.2-.45-.49-.8-.86-1.06-.37-.25-.81-.38-1.31-.38s-.94,.12-1.3,.38-.66,.6-.86,1.06c-.21,.45-.31,.98-.31,1.58s.1,1.1,.31,1.55c.21,.45,.5,.8,.86,1.05,.37,.25,.8,.38,1.3,.38Z"/><path class="cls-3" d="M336.5,357.48c-.48,0-.92-.09-1.33-.26-.41-.18-.73-.43-.96-.76-.24-.33-.35-.73-.35-1.18,0-.88,.44-1.54,1.31-1.99,.87-.45,2.31-.76,4.32-.92-.01-.35-.08-.68-.22-.98-.13-.3-.35-.54-.65-.71-.3-.18-.7-.26-1.2-.26-.33,0-.66,.04-.98,.14s-.63,.21-.93,.35c-.29,.14-.56,.29-.81,.44l-.51-.9c.26-.17,.57-.34,.94-.52,.37-.18,.76-.32,1.19-.43,.43-.11,.87-.17,1.33-.17,.71,0,1.3,.13,1.77,.4,.46,.27,.81,.64,1.04,1.11,.23,.47,.34,1.04,.34,1.69v4.77h-1.07l-.11-1.06h-.05c-.43,.34-.91,.63-1.44,.88-.53,.25-1.08,.37-1.63,.37Zm.35-1.06c.45,0,.89-.1,1.33-.3,.44-.2,.87-.49,1.31-.85v-2.05c-1.11,.1-1.98,.23-2.62,.4-.63,.17-1.08,.39-1.34,.65-.26,.26-.39,.56-.39,.9,0,.29,.08,.53,.24,.71,.16,.19,.37,.32,.63,.41,.26,.09,.54,.13,.84,.13Z"/><path class="cls-3" d="M345.7,357.48c-1.01,0-1.83-.35-2.45-1.06-.62-.71-.93-1.71-.93-3,0-.84,.17-1.57,.5-2.18s.77-1.09,1.31-1.42c.54-.33,1.11-.5,1.72-.5,.46,0,.88,.09,1.26,.26s.73,.42,1.06,.74h.05l-.06-1.44v-2.99h1.31v11.39h-1.09l-.11-1.02h-.05c-.31,.33-.69,.62-1.13,.86-.44,.24-.91,.36-1.4,.36Zm.27-1.1c.38,0,.76-.1,1.12-.3,.36-.2,.72-.49,1.07-.87v-3.87c-.35-.33-.7-.57-1.03-.7s-.67-.21-1.02-.21c-.45,0-.86,.13-1.22,.38-.37,.25-.66,.6-.88,1.04-.22,.44-.33,.96-.33,1.56,0,.93,.2,1.66,.61,2.18s.97,.79,1.68,.79Z"/><path class="cls-3" d="M355.22,357.29v-6.7h-3.62v-1.07h4.93v7.78h-1.31Zm.51-9.41c-.3,0-.55-.09-.75-.28-.2-.19-.3-.43-.3-.74s.1-.56,.3-.74c.2-.19,.45-.28,.75-.28s.55,.09,.75,.28c.2,.19,.3,.43,.3,.74s-.1,.56-.3,.74c-.2,.19-.45,.28-.75,.28Z"/><path class="cls-3" d="M364.24,357.48c-.78,0-1.49-.16-2.12-.48s-1.14-.79-1.51-1.4c-.37-.61-.56-1.35-.56-2.22s.19-1.57,.56-2.18c.37-.61,.86-1.07,1.46-1.4,.6-.33,1.25-.49,1.94-.49,.75,0,1.38,.15,1.91,.46,.53,.3,.93,.73,1.22,1.27,.28,.54,.42,1.18,.42,1.92,0,.15,0,.29-.02,.43s-.03,.26-.05,.37h-6.58v-1.02h5.79l-.34,.37c0-.92-.21-1.61-.63-2.06-.42-.46-.99-.69-1.7-.69-.48,0-.93,.12-1.34,.35-.41,.24-.74,.58-.98,1.02-.25,.45-.37,1-.37,1.65s.13,1.23,.4,1.68c.27,.45,.63,.79,1.09,1.02,.46,.23,.98,.34,1.55,.34,.47,0,.89-.07,1.27-.2,.38-.13,.74-.31,1.1-.54l.48,.86c-.38,.26-.82,.47-1.32,.66s-1.06,.27-1.69,.27Z"/><path class="cls-3" d="M381.44,357.48c-.77,0-1.47-.14-2.12-.42-.65-.28-1.21-.66-1.69-1.13l.8-.93c.39,.39,.86,.71,1.38,.95s1.09,.36,1.69,.36c.72,0,1.29-.16,1.69-.46,.4-.31,.6-.71,.6-1.2,0-.37-.08-.67-.25-.9-.17-.22-.39-.41-.67-.56-.28-.15-.61-.3-.97-.45l-1.5-.66c-.35-.15-.7-.34-1.05-.56-.35-.22-.64-.51-.87-.86s-.35-.78-.35-1.29,.15-1.01,.44-1.43c.29-.42,.7-.75,1.22-.99,.52-.24,1.11-.36,1.78-.36s1.27,.12,1.82,.36,1.02,.55,1.41,.94l-.7,.86c-.34-.31-.72-.55-1.14-.73s-.9-.26-1.44-.26c-.61,0-1.1,.14-1.47,.41-.37,.27-.56,.65-.56,1.13,0,.33,.09,.6,.28,.82,.19,.21,.42,.39,.71,.53s.58,.27,.88,.4l1.47,.64c.44,.17,.83,.38,1.18,.62,.35,.24,.63,.54,.83,.89,.2,.35,.3,.78,.3,1.3,0,.55-.15,1.06-.45,1.51-.3,.45-.72,.81-1.28,1.08s-1.22,.4-1.98,.4Z"/><path class="cls-3" d="M390.9,357.48c-.81,0-1.54-.16-2.18-.48s-1.15-.78-1.52-1.39c-.37-.61-.55-1.34-.55-2.19s.2-1.62,.59-2.22c.39-.61,.92-1.07,1.58-1.39,.66-.32,1.38-.48,2.17-.48,.64,0,1.19,.11,1.66,.34,.46,.22,.86,.49,1.18,.8l-.66,.85c-.32-.28-.65-.5-.99-.66-.34-.16-.72-.24-1.14-.24-.6,0-1.13,.12-1.58,.38-.46,.25-.81,.6-1.06,1.06-.25,.45-.38,.98-.38,1.58s.12,1.1,.37,1.55c.25,.45,.59,.8,1.05,1.05,.45,.25,.98,.38,1.58,.38,.48,0,.92-.1,1.32-.29,.4-.19,.76-.42,1.08-.69l.59,.85c-.43,.38-.9,.68-1.43,.9-.53,.21-1.08,.32-1.66,.32Z"/><path class="cls-3" d="M398.1,357.48c-.48,0-.92-.09-1.33-.26-.41-.18-.73-.43-.96-.76-.24-.33-.35-.73-.35-1.18,0-.88,.44-1.54,1.31-1.99,.87-.45,2.31-.76,4.32-.92-.01-.35-.08-.68-.22-.98-.13-.3-.35-.54-.65-.71-.3-.18-.7-.26-1.2-.26-.33,0-.66,.04-.98,.14s-.63,.21-.93,.35c-.29,.14-.56,.29-.81,.44l-.51-.9c.26-.17,.57-.34,.94-.52,.37-.18,.76-.32,1.19-.43,.43-.11,.87-.17,1.33-.17,.71,0,1.3,.13,1.77,.4,.46,.27,.81,.64,1.04,1.11,.23,.47,.34,1.04,.34,1.69v4.77h-1.07l-.11-1.06h-.05c-.43,.34-.91,.63-1.44,.88-.53,.25-1.08,.37-1.63,.37Zm.35-1.06c.45,0,.89-.1,1.33-.3,.44-.2,.87-.49,1.31-.85v-2.05c-1.11,.1-1.98,.23-2.62,.4-.63,.17-1.08,.39-1.34,.65-.26,.26-.39,.56-.39,.9,0,.29,.08,.53,.24,.71,.16,.19,.37,.32,.63,.41,.26,.09,.54,.13,.84,.13Z"/><path class="cls-3" d="M404.61,350.58v-.99l2.27-.08h4.51v1.07h-6.78Zm2.22,6.7v-8.43c0-.63,.11-1.18,.34-1.66s.57-.84,1.03-1.1c.46-.26,1.04-.39,1.76-.39,.38,0,.76,.04,1.13,.1,.37,.07,.74,.18,1.11,.34l-.3,.99c-.32-.15-.62-.25-.89-.3-.27-.05-.58-.07-.92-.07-.69,0-1.19,.18-1.5,.54s-.46,.86-.46,1.49v8.48h-1.3Z"/><path class="cls-3" d="M413.41,350.58v-.99l2.27-.08h4.51v1.07h-6.78Zm2.22,6.7v-8.43c0-.63,.11-1.18,.34-1.66s.57-.84,1.03-1.1c.46-.26,1.04-.39,1.76-.39,.38,0,.76,.04,1.13,.1,.37,.07,.74,.18,1.11,.34l-.3,.99c-.32-.15-.62-.25-.89-.3-.27-.05-.58-.07-.92-.07-.69,0-1.19,.18-1.5,.54s-.46,.86-.46,1.49v8.48h-1.3Z"/><path class="cls-3" d="M425.36,357.48c-.68,0-1.31-.16-1.9-.48-.58-.32-1.05-.78-1.41-1.39-.36-.61-.54-1.34-.54-2.19s.18-1.62,.54-2.22c.36-.61,.83-1.07,1.41-1.39,.58-.32,1.21-.48,1.9-.48s1.31,.16,1.9,.48c.58,.32,1.05,.78,1.41,1.39,.36,.61,.54,1.35,.54,2.22s-.18,1.58-.54,2.19c-.36,.61-.83,1.07-1.41,1.39-.58,.32-1.21,.48-1.9,.48Zm0-1.09c.5,0,.94-.12,1.31-.38,.37-.25,.66-.6,.86-1.05,.2-.45,.3-.96,.3-1.55s-.1-1.12-.3-1.58c-.2-.45-.49-.8-.86-1.06-.37-.25-.81-.38-1.31-.38s-.94,.12-1.3,.38-.66,.6-.86,1.06c-.21,.45-.31,.98-.31,1.58s.1,1.1,.31,1.55c.21,.45,.5,.8,.86,1.05,.37,.25,.8,.38,1.3,.38Z"/><path class="cls-3" d="M435.85,357.48c-.82,0-1.45-.24-1.89-.71-.44-.47-.66-1.17-.66-2.09v-7.71h-2.66v-1.07h3.97v8.88c0,.57,.14,.98,.42,1.23s.65,.38,1.1,.38c.22,0,.45-.03,.69-.09,.23-.06,.5-.15,.78-.28l.34,.99c-.35,.13-.68,.24-.99,.33-.31,.09-.68,.14-1.1,.14Z"/><path class="cls-3" d="M442.49,357.48c-1.01,0-1.83-.35-2.45-1.06-.62-.71-.93-1.71-.93-3,0-.84,.17-1.57,.5-2.18s.77-1.09,1.31-1.42c.54-.33,1.11-.5,1.72-.5,.46,0,.88,.09,1.26,.26s.73,.42,1.06,.74h.05l-.06-1.44v-2.99h1.31v11.39h-1.09l-.11-1.02h-.05c-.31,.33-.69,.62-1.13,.86-.44,.24-.91,.36-1.4,.36Zm.27-1.1c.38,0,.76-.1,1.12-.3,.36-.2,.72-.49,1.07-.87v-3.87c-.35-.33-.7-.57-1.03-.7s-.67-.21-1.02-.21c-.45,0-.86,.13-1.22,.38-.37,.25-.66,.6-.88,1.04-.22,.44-.33,.96-.33,1.56,0,.93,.2,1.66,.61,2.18s.97,.79,1.68,.79Z"/><path class="cls-3" d="M452.24,357.48c-.78,0-1.49-.16-2.12-.48s-1.14-.79-1.51-1.4c-.37-.61-.56-1.35-.56-2.22s.19-1.57,.56-2.18c.37-.61,.86-1.07,1.46-1.4,.6-.33,1.25-.49,1.94-.49,.75,0,1.38,.15,1.91,.46,.53,.3,.93,.73,1.22,1.27,.28,.54,.42,1.18,.42,1.92,0,.15,0,.29-.02,.43s-.03,.26-.05,.37h-6.58v-1.02h5.79l-.34,.37c0-.92-.21-1.61-.63-2.06-.42-.46-.99-.69-1.7-.69-.48,0-.93,.12-1.34,.35-.41,.24-.74,.58-.98,1.02-.25,.45-.37,1-.37,1.65s.13,1.23,.4,1.68c.27,.45,.63,.79,1.09,1.02,.46,.23,.98,.34,1.55,.34,.47,0,.89-.07,1.27-.2,.38-.13,.74-.31,1.1-.54l.48,.86c-.38,.26-.82,.47-1.32,.66s-1.06,.27-1.69,.27Z"/><path class="cls-3" d="M458.09,357.29v-7.78h1.09l.11,1.84h.05c.41-.63,.91-1.13,1.5-1.49s1.25-.54,1.97-.54c.29,0,.56,.02,.81,.07,.25,.05,.49,.13,.73,.25l-.3,1.14c-.27-.1-.5-.17-.69-.21-.19-.04-.44-.06-.75-.06-.59,0-1.15,.17-1.69,.5-.54,.34-1.04,.91-1.51,1.72v4.56h-1.31Z"/></g><g transform="translate(1 1)"><circle class="cls-6" cx="30.58" cy="113.39" r="6"/><circle class="cls-7" cx="50.58" cy="113.39" r="6"/><circle class="cls-8" cx="70.58" cy="113.39" r="6"/></g></svg>