<?xml version="1.0" encoding="UTF-8"?><svg id="Layer_1" xmlns="http://www.w3.org/2000/svg" xmlns:xlink="http://www.w3.org/1999/xlink" viewBox="0 0 495.19 497.59"><defs><style>.cls-1{font-size:22.4px;}.cls-1,.cls-2,.cls-3{fill:#fff;}.cls-1,.cls-3{font-family:SourceSansPro-Bold, 'Source Sans Pro';}.cls-4{letter-spacing:.05em;}.cls-5{fill:url(#linear-gradient);}.cls-6{letter-spacing:.05em;}.cls-7{clip-path:url(#clippath);}.cls-8{letter-spacing:.05em;}.cls-9{opacity:.5;stroke:#111827;}.cls-9,.cls-10,.cls-11,.cls-12{stroke-miterlimit:10;}.cls-9,.cls-11,.cls-12{fill:none;}.cls-13{letter-spacing:0em;}.cls-14{letter-spacing:0em;}.cls-15{fill:#f2f2f2;}.cls-16,.cls-10{fill:#ee7320;}.cls-17{fill:#aa351d;}.cls-18,.cls-19,.cls-20{fill:#111827;}.cls-21,.cls-22,.cls-23,.cls-24,.cls-25{font-family:SourceSansPro-SemiBold, 'Source Sans Pro';}.cls-21,.cls-26,.cls-27{letter-spacing:.01em;}.cls-28{letter-spacing:-.01em;}.cls-28,.cls-20,.cls-29,.cls-30,.cls-27,.cls-31,.cls-32{font-family:SourceSansPro-Regular, 'Source Sans Pro';}.cls-22,.cls-19,.cls-20,.cls-31,.cls-32{font-size:16.43px;}.cls-33{letter-spacing:-.03em;}.cls-34{letter-spacing:-.02em;}.cls-35{letter-spacing:.01em;}.cls-36{letter-spacing:.04em;}.cls-37{letter-spacing:.04em;}.cls-38{letter-spacing:0em;}.cls-39{letter-spacing:0em;}.cls-40{letter-spacing:-.02em;}.cls-23,.cls-41,.cls-30,.cls-32{letter-spacing:0em;}.cls-29{letter-spacing:0em;}.cls-24{letter-spacing:-.03em;}.cls-42{letter-spacing:.07em;}.cls-43{letter-spacing:.02em;}.cls-10{stroke:#ee7320;}.cls-44{letter-spacing:-.03em;}.cls-45{letter-spacing:0em;}.cls-46{letter-spacing:-.01em;}.cls-47{letter-spacing:-.02em;}.cls-48{letter-spacing:.03em;}.cls-49{letter-spacing:0em;}.cls-50{letter-spacing:.03em;}.cls-11{stroke:#e6e6e6;}.cls-12{stroke:#ccc;}.cls-51{letter-spacing:.05em;}.cls-2{filter:url(#drop-shadow-4);}.cls-3{font-size:15.16px;}.cls-52{letter-spacing:.03em;}.cls-53{letter-spacing:-.03em;}.cls-54{letter-spacing:-.07em;}.cls-55{letter-spacing:.04em;}</style><filter id="drop-shadow-4" filterUnits="userSpaceOnUse"><feOffset dx="0" dy="0"/><feGaussianBlur result="blur" stdDeviation="3"/><feFlood flood-color="#000" flood-opacity=".25"/><feComposite in2="blur" operator="in"/><feComposite in="SourceGraphic"/></filter><linearGradient id="linear-gradient" x1="124.55" y1="199.19" x2="361.91" y2="-38.17" gradientTransform="matrix(1, 0, 0, 1, 0, 0)" gradientUnits="userSpaceOnUse"><stop offset="0" stop-color="#ee7320"/><stop offset="1" stop-color="#e9580c"/></linearGradient><clipPath id="clippath"><path class="cls-16" d="M41.5,87.44v-.55l6.17-3.55-1.58-.91-4.58,2.64v-.55l6.13-3.53-1.58-.91-4.55,2.62v-.55l6.19-3.56-6.19-3.56-6.16,3.56v7.13l6.16,3.56,6.19-3.56-1.57-.91-4.61,2.66Z"/></clipPath></defs><rect class="cls-15" x="12.15" y="28" width="466" height="447" rx="17.11" ry="17.11"/><rect class="cls-2" x="73.17" y="169.45" width="371.98" height="110.94" rx="7.06" ry="7.06"/><g><rect class="cls-5" x="29.31" y="57.07" width="427.84" height="46.88"/><g><rect class="cls-18" x="29.81" y="57.57" width="23.53" height="394.66"/><path class="cls-18" d="M52.84,58.07V451.73H30.31V58.07h22.53m1-1H29.31V452.73h24.53V57.07h0Z"/></g><g><path class="cls-16" d="M41.5,87.44v-.55l6.17-3.55-1.58-.91-4.58,2.64v-.55l6.13-3.53-1.58-.91-4.55,2.62v-.55l6.19-3.56-6.19-3.56-6.16,3.56v7.13l6.16,3.56,6.19-3.56-1.57-.91-4.61,2.66Z"/><g class="cls-7"><rect class="cls-16" x="33.44" y="71.72" width="13.8" height="19.47" transform="translate(-50.42 76.51) rotate(-60.54)"/></g></g></g><text class="cls-22" transform="translate(79.38 152.6)"><tspan class="cls-4" x="0" y="0">P</tspan><tspan class="cls-36" x="10.38" y="0">r</tspan><tspan class="cls-8" x="17.17" y="0">oje</tspan><tspan class="cls-37" x="41.3" y="0">c</tspan><tspan class="cls-4" x="49.55" y="0">t </tspan><tspan class="cls-37" x="60.41" y="0">R</tspan><tspan class="cls-4" x="70.79" y="0">ep</tspan><tspan class="cls-51" x="90.02" y="0">o</tspan><tspan class="cls-8" x="99.8" y="0">si</tspan><tspan class="cls-48" x="112.83" y="0">t</tspan><tspan class="cls-8" x="119.32" y="0">o</tspan><tspan class="cls-42" x="129.16" y="0">r</tspan><tspan class="cls-4" x="136.37" y="0">y</tspan></text><text class="cls-22" transform="translate(82.08 327.33)"><tspan class="cls-4" x="0" y="0">Al</tspan><tspan class="cls-37" x="15.26" y="0">r</tspan><tspan class="cls-55" x="22.05" y="0">e</tspan><tspan class="cls-4" x="31" y="0">ady using any </tspan><tspan class="cls-52" x="142.3" y="0">o</tspan><tspan class="cls-6" x="151.78" y="0">ther o</tspan><tspan class="cls-51" x="198.56" y="0">b</tspan><tspan class="cls-4" x="208.57" y="0">se</tspan><tspan class="cls-42" x="225.62" y="0">r</tspan><tspan class="cls-50" x="232.83" y="0">v</tspan><tspan class="cls-4" x="241.46" y="0">ability </tspan><tspan class="cls-48" x="296.16" y="0">t</tspan><tspan class="cls-8" x="302.65" y="0">oolin</tspan><tspan class="cls-38" x="342.75" y="0">g</tspan><tspan class="cls-4" x="351.44" y="0">? </tspan></text><text class="cls-20" transform="translate(90.56 195.43)"><tspan class="cls-41" x="0" y="0">Quick</tspan><tspan class="cls-53" x="40.33" y="0">P</tspan><tspan class="cls-26" x="49.09" y="0">aymen</tspan><tspan x="96.61" y="0">t</tspan><tspan class="cls-26" x="102.17" y="0">sA</tspan></text><text class="cls-19" transform="translate(92.05 232.77)"><tspan class="cls-23" x="0" y="0">Quick</tspan><tspan class="cls-24" x="41.5" y="0">P</tspan><tspan class="cls-21" x="50.6" y="0">aymen</tspan><tspan class="cls-25" x="99.41" y="0">t</tspan><tspan class="cls-23" x="105.34" y="0">sA</tspan><tspan class="cls-27" x="121.91" y="0">pp</tspan></text><text class="cls-19" transform="translate(92.05 261.14)"><tspan class="cls-23" x="0" y="0">Quick</tspan><tspan class="cls-24" x="41.5" y="0">P</tspan><tspan class="cls-21" x="50.6" y="0">aymen</tspan><tspan class="cls-25" x="99.41" y="0">t</tspan><tspan class="cls-23" x="105.34" y="0">sA</tspan><tspan class="cls-27" x="121.91" y="0">uthori</tspan><tspan class="cls-28" x="164.97" y="0">z</tspan><tspan class="cls-29" x="171.74" y="0">a</tspan><tspan class="cls-30" x="179.95" y="0">tions</tspan></text><text class="cls-32" transform="translate(124.4 360.19)"><tspan x="0" y="0">No</tspan></text><text class="cls-31" transform="translate(224.46 360.19)"><tspan class="cls-33" x="0" y="0">Y</tspan><tspan class="cls-41" x="7.31" y="0">es</tspan></text><rect class="cls-10" x="92.59" y="346.47" width="17.17" height="17.17" rx="3.57" ry="3.57"/><rect class="cls-12" x="192.65" y="346.77" width="17.17" height="17.17" rx="3.57" ry="3.57"/><text class="cls-1" transform="translate(80.88 88.15)"><tspan class="cls-35" x="0" y="0">Add Ope</tspan><tspan class="cls-40" x="84.32" y="0">n</tspan><tspan class="cls-54" x="96.73" y="0">T</tspan><tspan class="cls-35" x="107.71" y="0">elem</tspan><tspan class="cls-39" x="157.42" y="0">e</tspan><tspan class="cls-45" x="169.02" y="0">t</tspan><tspan class="cls-43" x="177.83" y="0">r</tspan><tspan class="cls-45" x="187.12" y="0">y </tspan><tspan class="cls-49" x="203.72" y="0">t</tspan><tspan class="cls-35" x="212.12" y="0">o </tspan><tspan class="cls-14" x="229.48" y="0">y</tspan><tspan class="cls-35" x="241.2" y="0">our app</tspan></text><line class="cls-11" x1="82.31" y1="208.71" x2="436.65" y2="208.71"/><g><rect class="cls-17" x="346.22" y="392.07" width="91.25" height="26.56" rx="2.43" ry="2.43"/><text class="cls-3" transform="translate(360.25 408.9)"><tspan class="cls-13" x="0" y="0">N</tspan><tspan class="cls-46" x="10.11" y="0">e</tspan><tspan class="cls-44" x="17.75" y="0">x</tspan><tspan class="cls-13" x="25.14" y="0">t </tspan><tspan class="cls-34" x="34.04" y="0">s</tspan><tspan class="cls-47" x="40.48" y="0">t</tspan><tspan class="cls-13" x="46.04" y="0">ep</tspan></text></g><line class="cls-9" x1="210.15" y1="178.5" x2="210.15" y2="199"/></svg>