<?xml version="1.0" encoding="UTF-8"?><svg id="Layer_1" xmlns="http://www.w3.org/2000/svg" xmlns:xlink="http://www.w3.org/1999/xlink" viewBox="0 0 495.19 497.59"><defs><style>.cls-1{fill:url(#linear-gradient);}.cls-2{clip-path:url(#clippath);}.cls-3{fill:#f2f2f2;}.cls-4,.cls-5,.cls-6,.cls-7,.cls-8{fill:#fff;}.cls-9{fill:#ee7320;}.cls-10{fill:#111827;}.cls-11{stroke:#e6e6e6;}.cls-11,.cls-12{fill:none;stroke-miterlimit:10;}.cls-12{opacity:.5;stroke:#fff;stroke-linecap:round;}.cls-5{filter:url(#drop-shadow-16);}.cls-6{filter:url(#drop-shadow-15);}.cls-7{filter:url(#drop-shadow-14);}.cls-8{filter:url(#drop-shadow-17);}</style><filter id="drop-shadow-14" filterUnits="userSpaceOnUse"><feOffset dx="0" dy="0"/><feGaussianBlur result="blur" stdDeviation="3"/><feFlood flood-color="#000" flood-opacity=".25"/><feComposite in2="blur" operator="in"/><feComposite in="SourceGraphic"/></filter><linearGradient id="linear-gradient" x1="109.68" y1="251.53" x2="377.46" y2="-16.25" gradientTransform="matrix(1, 0, 0, 1, 0, 0)" gradientUnits="userSpaceOnUse"><stop offset="0" stop-color="#ee7320"/><stop offset="1" stop-color="#e9580c"/></linearGradient><clipPath id="clippath"><path class="cls-9" d="M45.91,114.1v-1.07l11.92-6.86-3.06-1.77-8.86,5.1v-1.07l11.85-6.83-3.06-1.77-8.79,5.06v-1.07l11.96-6.89-11.96-6.88-11.9,6.88v13.77l11.9,6.88,11.96-6.88-3.04-1.75-8.92,5.14Z"/></clipPath><filter id="drop-shadow-15" filterUnits="userSpaceOnUse"><feOffset dx="0" dy="0"/><feGaussianBlur result="blur-2" stdDeviation="3"/><feFlood flood-color="#000" flood-opacity=".25"/><feComposite in2="blur-2" operator="in"/><feComposite in="SourceGraphic"/></filter><filter id="drop-shadow-16" filterUnits="userSpaceOnUse"><feOffset dx="0" dy="0"/><feGaussianBlur result="blur-3" stdDeviation="3"/><feFlood flood-color="#000" flood-opacity=".25"/><feComposite in2="blur-3" operator="in"/><feComposite in="SourceGraphic"/></filter><filter id="drop-shadow-17" filterUnits="userSpaceOnUse"><feOffset dx="0" dy="0"/><feGaussianBlur result="blur-4" stdDeviation="3"/><feFlood flood-color="#000" flood-opacity=".25"/><feComposite in2="blur-4" operator="in"/><feComposite in="SourceGraphic"/></filter></defs><rect class="cls-3" x="22.95" y="32.7" width="435.66" height="436" rx="175" ry="175"/><rect class="cls-7" x="260.82" y="271.66" width="208.33" height="137.34" rx="7.06" ry="7.06"/><line class="cls-11" x1="265.94" y1="310.91" x2="464.39" y2="310.91"/><g><rect class="cls-1" x="23.94" y="69.5" width="439.26" height="96.3"/><g><rect class="cls-10" x="21.28" y="70" width="49.31" height="340.83"/><path class="cls-10" d="M70.09,70.5V410.33H21.78V70.5h48.31m1-1H20.78V411.33h50.31V69.5h0Z"/></g><g><path class="cls-9" d="M45.91,114.1v-1.07l11.92-6.86-3.06-1.77-8.86,5.1v-1.07l11.85-6.83-3.06-1.77-8.79,5.06v-1.07l11.96-6.89-11.96-6.88-11.9,6.88v13.77l11.9,6.88,11.96-6.88-3.04-1.75-8.92,5.14Z"/><g class="cls-2"><rect class="cls-9" x="30.33" y="83.73" width="26.67" height="37.63" transform="translate(-67.09 90.13) rotate(-60.54)"/></g></g></g><g><path d="M89.95,194.09v-7.46h2.02l1.65,3.33,.71,1.68h.05c-.05-.41-.1-.87-.16-1.38-.06-.52-.09-1-.09-1.46v-2.16h1.88v7.46h-2.02l-1.65-3.34-.71-1.66h-.05c.05,.42,.1,.89,.16,1.39,.06,.51,.09,.99,.09,1.45v2.16h-1.88Z"/><path d="M99.57,194.22c-.36,0-.67-.08-.92-.25-.26-.16-.45-.38-.59-.65-.14-.27-.21-.56-.21-.87,0-.6,.25-1.07,.73-1.41,.49-.34,1.29-.57,2.39-.68-.05-.4-.31-.6-.8-.6-.21,0-.42,.04-.65,.12-.23,.08-.49,.2-.79,.36l-.69-1.29c.41-.25,.82-.43,1.23-.56s.85-.2,1.29-.2c.75,0,1.33,.21,1.76,.64,.42,.42,.63,1.11,.63,2.05v3.19h-1.61l-.14-.55h-.05c-.23,.21-.47,.37-.73,.5s-.54,.19-.85,.19Zm.69-1.51c.16,0,.29-.04,.4-.11,.11-.07,.21-.17,.31-.28v-.78c-.47,.07-.79,.17-.97,.31s-.27,.29-.27,.45c0,.28,.18,.41,.53,.41Z"/><path d="M104.8,194.09v-5.74h1.61l.14,.7h.05c.23-.22,.48-.42,.74-.58s.59-.25,.98-.25,.71,.08,.97,.24c.26,.16,.46,.38,.61,.68,.24-.24,.49-.46,.77-.64s.61-.28,1-.28c.63,0,1.1,.21,1.38,.64,.29,.42,.43,.99,.43,1.7v3.53h-1.97v-3.28c0-.37-.05-.61-.14-.73s-.24-.18-.44-.18c-.24,0-.51,.15-.8,.44v3.76h-1.97v-3.28c0-.37-.05-.61-.14-.73s-.24-.18-.44-.18c-.25,0-.51,.15-.8,.44v3.76h-1.97Z"/><path d="M117.99,194.22c-.56,0-1.06-.12-1.51-.36-.45-.24-.8-.58-1.06-1.03-.26-.45-.39-.99-.39-1.62s.13-1.15,.4-1.6c.26-.45,.61-.79,1.03-1.04,.42-.24,.86-.37,1.33-.37,.57,0,1.03,.12,1.41,.37,.37,.25,.65,.58,.83,1,.18,.42,.27,.89,.27,1.4,0,.17,0,.33-.03,.49-.02,.16-.04,.27-.05,.34h-3.27c.09,.34,.26,.58,.49,.72,.24,.13,.52,.2,.84,.2,.37,0,.76-.12,1.17-.34l.64,1.17c-.31,.21-.65,.38-1.03,.49-.38,.11-.73,.17-1.06,.17Zm-1.08-3.69h1.7c0-.22-.06-.42-.17-.58-.11-.16-.32-.25-.61-.25-.21,0-.41,.07-.57,.2s-.28,.34-.34,.63Z"/></g><g><path class="cls-4" d="M95.52,142.88c-1.41,0-2.7-.33-3.88-.98-1.18-.65-2.13-1.62-2.84-2.89s-1.07-2.85-1.07-4.72,.36-3.43,1.09-4.74c.73-1.31,1.7-2.31,2.91-3.01,1.21-.69,2.51-1.04,3.92-1.04,1.08,0,2.05,.22,2.91,.66,.86,.44,1.57,.95,2.13,1.53l-2,2.42c-.43-.39-.88-.72-1.35-.96-.47-.25-1.01-.37-1.61-.37-.75,0-1.44,.21-2.07,.64-.63,.43-1.12,1.05-1.49,1.85-.37,.81-.55,1.77-.55,2.9,0,1.71,.37,3.05,1.11,4.01,.74,.96,1.72,1.44,2.96,1.44,.68,0,1.3-.15,1.84-.46,.54-.31,1.01-.68,1.43-1.1l2,2.36c-1.41,1.65-3.21,2.47-5.42,2.47Z"/><path class="cls-4" d="M103.44,142.57v-12.75h3.08l.26,2.24h.1c.46-.86,1.02-1.5,1.67-1.92,.65-.42,1.3-.63,1.95-.63,.36,0,.66,.02,.9,.06,.24,.04,.45,.11,.62,.19l-.62,3.26c-.22-.07-.44-.12-.66-.15-.21-.03-.46-.05-.73-.05-.48,0-.98,.18-1.5,.53-.52,.35-.96,.96-1.3,1.81v7.4h-3.78Z"/><path class="cls-4" d="M119.37,142.88c-1.22,0-2.31-.27-3.29-.8s-1.75-1.29-2.31-2.29c-.57-.99-.85-2.19-.85-3.6s.29-2.58,.86-3.57c.57-.99,1.32-1.76,2.25-2.3,.93-.54,1.89-.81,2.9-.81,1.22,0,2.22,.27,3.02,.81,.8,.54,1.4,1.27,1.8,2.19,.4,.92,.6,1.96,.6,3.12,0,.33-.02,.65-.05,.96-.03,.32-.07,.55-.1,.71h-7.63c.17,.93,.56,1.61,1.16,2.04,.6,.44,1.32,.66,2.16,.66,.91,0,1.83-.28,2.75-.85l1.26,2.29c-.65,.45-1.38,.8-2.18,1.05s-1.58,.39-2.34,.39Zm-2.83-8.07h4.6c0-.7-.17-1.28-.5-1.73s-.88-.68-1.63-.68c-.58,0-1.1,.2-1.57,.6s-.76,1.01-.9,1.81Z"/><path class="cls-4" d="M130.17,142.88c-1.17,0-2.09-.37-2.78-1.12s-1.03-1.66-1.03-2.74c0-1.34,.57-2.38,1.7-3.14,1.13-.75,2.96-1.26,5.47-1.52-.04-.57-.2-1.02-.5-1.35-.3-.33-.8-.5-1.5-.5-.53,0-1.07,.1-1.62,.31-.55,.21-1.13,.49-1.75,.85l-1.36-2.49c.8-.5,1.67-.9,2.58-1.21s1.87-.46,2.87-.46c1.63,0,2.88,.47,3.75,1.41,.87,.94,1.31,2.39,1.31,4.34v7.3h-3.08l-.26-1.31h-.1c-.53,.48-1.1,.87-1.71,1.17-.61,.3-1.27,.45-1.99,.45Zm1.29-2.93c.43,0,.8-.1,1.12-.29,.32-.2,.64-.46,.96-.78v-2.24c-1.34,.17-2.26,.44-2.78,.81-.51,.37-.77,.8-.77,1.3,0,.41,.13,.72,.4,.91,.26,.2,.62,.29,1.07,.29Z"/><path class="cls-4" d="M145.2,142.88c-1.58,0-2.7-.45-3.38-1.36-.68-.91-1.02-2.1-1.02-3.57v-5.17h-1.75v-2.8l1.95-.15,.44-3.39h3.14v3.39h3.06v2.96h-3.06v5.12c0,.72,.15,1.24,.45,1.55,.3,.32,.7,.48,1.2,.48,.21,0,.42-.03,.63-.08,.21-.05,.41-.11,.58-.18l.59,2.75c-.33,.1-.72,.21-1.2,.31s-1.01,.15-1.63,.15Z"/><path class="cls-4" d="M155.64,142.88c-1.22,0-2.31-.27-3.29-.8s-1.75-1.29-2.31-2.29c-.57-.99-.85-2.19-.85-3.6s.29-2.58,.86-3.57c.57-.99,1.32-1.76,2.25-2.3,.93-.54,1.89-.81,2.9-.81,1.22,0,2.22,.27,3.02,.81,.8,.54,1.4,1.27,1.8,2.19,.4,.92,.6,1.96,.6,3.12,0,.33-.02,.65-.05,.96-.03,.32-.07,.55-.1,.71h-7.63c.17,.93,.56,1.61,1.16,2.04,.6,.44,1.32,.66,2.16,.66,.91,0,1.83-.28,2.75-.85l1.26,2.29c-.65,.45-1.38,.8-2.18,1.05s-1.58,.39-2.34,.39Zm-2.83-8.07h4.6c0-.7-.17-1.28-.5-1.73s-.88-.68-1.63-.68c-.58,0-1.1,.2-1.57,.6s-.76,1.01-.9,1.81Z"/><path class="cls-4" d="M176.2,142.88c-1.41,0-2.7-.33-3.88-.98-1.18-.65-2.13-1.62-2.84-2.89s-1.07-2.85-1.07-4.72,.36-3.43,1.09-4.74c.73-1.31,1.7-2.31,2.91-3.01,1.21-.69,2.51-1.04,3.92-1.04,1.08,0,2.05,.22,2.91,.66,.86,.44,1.57,.95,2.13,1.53l-2,2.42c-.43-.39-.88-.72-1.35-.96-.47-.25-1.01-.37-1.61-.37-.75,0-1.44,.21-2.07,.64-.63,.43-1.12,1.05-1.49,1.85-.37,.81-.55,1.77-.55,2.9,0,1.71,.37,3.05,1.11,4.01,.74,.96,1.72,1.44,2.96,1.44,.68,0,1.3-.15,1.84-.46,.54-.31,1.01-.68,1.43-1.1l2,2.36c-1.41,1.65-3.21,2.47-5.42,2.47Z"/><path class="cls-4" d="M184.12,142.57v-18.02h3.78v4.42l-.18,2.29c.48-.43,1.04-.83,1.68-1.2,.64-.37,1.39-.55,2.25-.55,1.39,0,2.39,.46,3.02,1.38,.63,.92,.94,2.17,.94,3.77v7.92h-3.78v-7.43c0-.92-.12-1.56-.37-1.9s-.65-.51-1.2-.51c-.48,0-.89,.11-1.23,.32-.34,.21-.72,.52-1.13,.91v8.61h-3.78Z"/><path class="cls-4" d="M204.76,142.88c-1.22,0-2.31-.27-3.29-.8s-1.75-1.29-2.31-2.29c-.57-.99-.85-2.19-.85-3.6s.29-2.58,.86-3.57c.57-.99,1.32-1.76,2.25-2.3,.93-.54,1.89-.81,2.9-.81,1.22,0,2.22,.27,3.02,.81,.8,.54,1.4,1.27,1.8,2.19,.4,.92,.6,1.96,.6,3.12,0,.33-.02,.65-.05,.96-.03,.32-.07,.55-.1,.71h-7.63c.17,.93,.56,1.61,1.16,2.04,.6,.44,1.32,.66,2.16,.66,.91,0,1.83-.28,2.75-.85l1.26,2.29c-.65,.45-1.38,.8-2.18,1.05s-1.58,.39-2.34,.39Zm-2.83-8.07h4.6c0-.7-.17-1.28-.5-1.73s-.88-.68-1.63-.68c-.58,0-1.1,.2-1.57,.6s-.76,1.01-.9,1.81Z"/><path class="cls-4" d="M218.18,142.88c-1.18,0-2.25-.26-3.2-.78s-1.71-1.29-2.26-2.29c-.56-1-.83-2.21-.83-3.61s.31-2.63,.92-3.62c.62-.99,1.43-1.75,2.44-2.27,1.01-.52,2.1-.78,3.26-.78,.79,0,1.49,.13,2.09,.39s1.15,.58,1.63,.98l-1.77,2.44c-.6-.5-1.17-.75-1.72-.75-.91,0-1.63,.33-2.17,.98s-.81,1.53-.81,2.65,.27,1.97,.81,2.63c.54,.66,1.22,.99,2.04,.99,.41,0,.81-.09,1.21-.27,.39-.18,.75-.4,1.08-.66l1.49,2.47c-.63,.55-1.32,.94-2.06,1.17-.74,.23-1.46,.35-2.16,.35Z"/><path class="cls-4" d="M224.88,142.57v-18.02h3.68v10.33h.1l4.04-5.06h4.11l-4.47,5.24,4.81,7.5h-4.09l-2.88-4.96-1.62,1.83v3.14h-3.68Z"/></g><g><path class="cls-4" d="M90.7,101.71v-10.76h-3.63v-1.29h8.81v1.29h-3.63v10.76h-1.54Z"/><path class="cls-4" d="M100.48,101.93c-.8,0-1.52-.19-2.17-.56-.65-.37-1.16-.91-1.54-1.61-.38-.7-.57-1.53-.57-2.5s.19-1.82,.58-2.52c.39-.7,.88-1.24,1.5-1.62,.61-.38,1.25-.57,1.93-.57,1.14,0,2.02,.38,2.63,1.14s.93,1.77,.93,3.05c0,.16,0,.32,0,.47s-.02,.28-.05,.39h-6.02c.06,.94,.36,1.7,.89,2.26,.53,.56,1.23,.84,2.08,.84,.43,0,.82-.06,1.18-.19,.36-.13,.71-.3,1.04-.5l.53,.99c-.38,.24-.81,.46-1.29,.64s-1.03,.28-1.64,.28Zm-2.81-5.4h4.77c0-.91-.19-1.59-.58-2.07-.39-.47-.93-.71-1.62-.71-.62,0-1.18,.24-1.68,.73-.5,.48-.79,1.17-.89,2.05Z"/><path class="cls-4" d="M109.68,101.93c-.78,0-1.49-.18-2.13-.55s-1.14-.9-1.5-1.6c-.37-.7-.55-1.54-.55-2.51s.2-1.85,.6-2.55c.4-.7,.92-1.23,1.58-1.6,.66-.37,1.36-.55,2.12-.55,.59,0,1.09,.1,1.51,.31,.42,.21,.79,.45,1.09,.73l-.77,.99c-.26-.23-.53-.42-.82-.57-.29-.15-.61-.22-.96-.22-.54,0-1.02,.14-1.44,.43-.42,.29-.75,.69-.99,1.21-.24,.52-.36,1.12-.36,1.81,0,1.02,.25,1.84,.76,2.47,.51,.63,1.17,.95,1.99,.95,.42,0,.8-.09,1.16-.27,.35-.18,.67-.39,.94-.63l.66,1.01c-.4,.36-.85,.63-1.34,.83-.49,.2-1,.3-1.54,.3Z"/><path class="cls-4" d="M114.71,101.71v-13.07h1.51v3.56l-.05,1.84c.43-.4,.88-.75,1.35-1.04,.47-.29,1.01-.43,1.62-.43,.94,0,1.63,.3,2.07,.89,.43,.59,.65,1.46,.65,2.6v5.65h-1.5v-5.45c0-.83-.13-1.44-.4-1.82-.27-.38-.7-.57-1.29-.57-.45,0-.86,.12-1.22,.35s-.77,.58-1.22,1.03v6.46h-1.51Z"/><path class="cls-4" d="M128.88,101.71v-12.04h1.52v12.04h-1.52Z"/><path class="cls-4" d="M133.75,101.71v-8.92h1.25l.13,1.29h.06c.43-.43,.88-.79,1.36-1.07,.48-.29,1.02-.43,1.63-.43,.94,0,1.63,.3,2.07,.89,.43,.59,.65,1.46,.65,2.6v5.65h-1.5v-5.45c0-.83-.13-1.44-.4-1.82-.27-.38-.7-.57-1.29-.57-.45,0-.86,.12-1.22,.35s-.77,.58-1.22,1.03v6.46h-1.51Z"/><path class="cls-4" d="M146.3,101.93c-.64,0-1.24-.12-1.82-.36s-1.08-.53-1.51-.87l.75-1.01c.39,.31,.8,.56,1.21,.76,.42,.2,.89,.3,1.41,.3,.59,0,1.03-.14,1.32-.41,.29-.28,.44-.6,.44-.98,0-.31-.1-.56-.3-.77-.2-.21-.46-.38-.77-.52-.31-.14-.63-.27-.96-.4-.42-.16-.83-.34-1.23-.54-.4-.2-.73-.46-.99-.79-.26-.32-.39-.74-.39-1.24,0-.72,.27-1.33,.82-1.81,.54-.48,1.3-.73,2.27-.73,.55,0,1.06,.1,1.54,.29,.48,.2,.89,.43,1.23,.72l-.73,.96c-.31-.23-.62-.42-.96-.57-.33-.15-.69-.22-1.08-.22-.56,0-.98,.13-1.24,.39-.26,.26-.39,.56-.39,.9,0,.28,.09,.51,.28,.69,.18,.18,.42,.33,.72,.46,.29,.13,.61,.26,.94,.39,.43,.16,.85,.34,1.27,.54s.76,.47,1.04,.81c.28,.34,.41,.79,.41,1.35,0,.48-.13,.92-.38,1.32-.25,.4-.62,.73-1.1,.97-.48,.24-1.08,.37-1.79,.37Z"/><path class="cls-4" d="M152.62,90.95c-.29,0-.54-.09-.73-.27-.19-.18-.28-.42-.28-.73s.09-.53,.28-.72c.19-.18,.43-.28,.73-.28s.54,.09,.73,.28c.19,.18,.28,.42,.28,.72s-.09,.55-.28,.73c-.19,.18-.43,.27-.73,.27Zm-.77,10.76v-8.92h1.51v8.92h-1.51Z"/><path class="cls-4" d="M159.56,105.82c-1.09,0-1.98-.21-2.66-.62-.69-.42-1.03-1.01-1.03-1.78,0-.38,.12-.74,.35-1.09s.55-.66,.96-.93v-.07c-.22-.13-.41-.32-.56-.57-.15-.24-.23-.54-.23-.88,0-.38,.1-.71,.31-.99s.43-.5,.66-.66v-.07c-.29-.24-.56-.58-.8-.99-.24-.42-.36-.89-.36-1.41,0-.65,.15-1.21,.46-1.69s.72-.84,1.23-1.1c.51-.26,1.07-.39,1.67-.39,.25,0,.48,.02,.7,.06,.22,.04,.41,.09,.57,.16h3.1v1.16h-1.83c.21,.2,.38,.46,.52,.78s.21,.68,.21,1.06c0,.64-.15,1.19-.44,1.65-.29,.46-.69,.82-1.17,1.07s-1.04,.38-1.65,.38c-.48,0-.92-.1-1.34-.31-.16,.14-.29,.29-.4,.45-.11,.17-.17,.37-.17,.62,0,.28,.11,.51,.34,.7s.64,.28,1.24,.28h1.73c1.04,0,1.82,.17,2.34,.5,.52,.34,.78,.88,.78,1.62,0,.55-.18,1.06-.55,1.52s-.89,.84-1.56,1.13c-.67,.29-1.47,.43-2.41,.43Zm.22-1.05c.86,0,1.54-.19,2.06-.56,.51-.37,.77-.79,.77-1.26,0-.42-.16-.7-.47-.86-.31-.16-.76-.24-1.33-.24h-1.54c-.17,0-.36-.01-.56-.04-.2-.02-.4-.06-.6-.11-.32,.23-.55,.48-.7,.73s-.22,.51-.22,.77c0,.48,.23,.86,.69,1.14s1.09,.42,1.9,.42Zm-.22-6.9c.51,0,.96-.19,1.33-.58s.56-.9,.56-1.55-.18-1.16-.55-1.52-.81-.55-1.34-.55-.97,.18-1.34,.55-.55,.88-.55,1.52,.19,1.17,.56,1.55c.37,.39,.82,.58,1.33,.58Z"/><path class="cls-4" d="M165.98,101.71v-13.07h1.51v3.56l-.05,1.84c.43-.4,.88-.75,1.35-1.04,.47-.29,1.01-.43,1.62-.43,.94,0,1.63,.3,2.07,.89,.43,.59,.65,1.46,.65,2.6v5.65h-1.5v-5.45c0-.83-.13-1.44-.4-1.82-.27-.38-.7-.57-1.29-.57-.45,0-.86,.12-1.22,.35s-.77,.58-1.22,1.03v6.46h-1.51Z"/><path class="cls-4" d="M178.96,101.93c-.96,0-1.62-.28-1.99-.83s-.56-1.27-.56-2.15v-4.94h-1.32v-1.14l1.4-.09,.18-2.5h1.27v2.5h2.41v1.23h-2.41v4.96c0,.55,.1,.98,.3,1.28s.56,.45,1.07,.45c.16,0,.33-.03,.51-.08,.18-.05,.35-.11,.5-.16l.29,1.14c-.25,.09-.51,.16-.8,.23-.29,.07-.57,.1-.85,.1Z"/><path class="cls-4" d="M184.69,101.93c-.64,0-1.24-.12-1.82-.36s-1.08-.53-1.51-.87l.75-1.01c.39,.31,.8,.56,1.21,.76,.42,.2,.89,.3,1.41,.3,.59,0,1.03-.14,1.32-.41,.29-.28,.44-.6,.44-.98,0-.31-.1-.56-.3-.77-.2-.21-.46-.38-.77-.52-.31-.14-.63-.27-.96-.4-.42-.16-.83-.34-1.23-.54-.4-.2-.73-.46-.99-.79-.26-.32-.39-.74-.39-1.24,0-.72,.27-1.33,.82-1.81,.54-.48,1.3-.73,2.27-.73,.55,0,1.06,.1,1.54,.29,.48,.2,.89,.43,1.23,.72l-.73,.96c-.31-.23-.62-.42-.96-.57-.33-.15-.69-.22-1.08-.22-.56,0-.98,.13-1.24,.39-.26,.26-.39,.56-.39,.9,0,.28,.09,.51,.28,.69,.18,.18,.42,.33,.72,.46,.29,.13,.61,.26,.94,.39,.43,.16,.85,.34,1.27,.54s.76,.47,1.04,.81c.28,.34,.41,.79,.41,1.35,0,.48-.13,.92-.38,1.32-.25,.4-.62,.73-1.1,.97-.48,.24-1.08,.37-1.79,.37Z"/><path class="cls-4" d="M192.77,104.65l4.9-15.97h1.1l-4.9,15.97h-1.1Z"/><path class="cls-4" d="M209.25,101.93c-1,0-1.9-.25-2.69-.74-.79-.5-1.41-1.21-1.87-2.14-.46-.93-.69-2.05-.69-3.36s.23-2.41,.7-3.34c.46-.93,1.1-1.65,1.91-2.15,.81-.5,1.72-.75,2.74-.75,.73,0,1.38,.15,1.95,.45,.56,.3,1.02,.65,1.36,1.04l-.83,.99c-.32-.34-.68-.62-1.08-.83-.4-.21-.86-.31-1.38-.31-.76,0-1.42,.2-1.99,.6s-1.01,.96-1.32,1.68c-.31,.72-.47,1.58-.47,2.59s.15,1.88,.46,2.62c.31,.74,.74,1.31,1.29,1.72,.56,.4,1.21,.61,1.97,.61,.58,0,1.09-.12,1.54-.37,.45-.24,.87-.58,1.25-.99l.84,.96c-.48,.55-1.02,.98-1.62,1.29s-1.29,.46-2.07,.46Z"/><path class="cls-4" d="M215.22,101.71v-13.07h1.51v3.56l-.05,1.84c.43-.4,.88-.75,1.35-1.04,.47-.29,1.01-.43,1.62-.43,.94,0,1.63,.3,2.07,.89,.43,.59,.65,1.46,.65,2.6v5.65h-1.5v-5.45c0-.83-.13-1.44-.4-1.82-.27-.38-.7-.57-1.29-.57-.45,0-.86,.12-1.22,.35s-.77,.58-1.22,1.03v6.46h-1.51Z"/><path class="cls-4" d="M229,101.93c-.8,0-1.52-.19-2.17-.56-.65-.37-1.16-.91-1.54-1.61-.38-.7-.57-1.53-.57-2.5s.19-1.82,.58-2.52c.39-.7,.88-1.24,1.5-1.62,.61-.38,1.25-.57,1.93-.57,1.14,0,2.02,.38,2.63,1.14s.93,1.77,.93,3.05c0,.16,0,.32,0,.47s-.02,.28-.05,.39h-6.02c.06,.94,.36,1.7,.89,2.26,.53,.56,1.23,.84,2.08,.84,.43,0,.82-.06,1.18-.19,.36-.13,.71-.3,1.04-.5l.53,.99c-.38,.24-.81,.46-1.29,.64s-1.03,.28-1.64,.28Zm-2.81-5.4h4.77c0-.91-.19-1.59-.58-2.07-.39-.47-.93-.71-1.62-.71-.62,0-1.18,.24-1.68,.73-.5,.48-.79,1.17-.89,2.05Z"/><path class="cls-4" d="M238.2,101.93c-.78,0-1.49-.18-2.13-.55s-1.14-.9-1.5-1.6c-.37-.7-.55-1.54-.55-2.51s.2-1.85,.6-2.55c.4-.7,.92-1.23,1.58-1.6,.66-.37,1.36-.55,2.12-.55,.59,0,1.09,.1,1.51,.31,.42,.21,.79,.45,1.09,.73l-.77,.99c-.26-.23-.53-.42-.82-.57-.29-.15-.61-.22-.96-.22-.54,0-1.02,.14-1.44,.43-.42,.29-.75,.69-.99,1.21-.24,.52-.36,1.12-.36,1.81,0,1.02,.25,1.84,.76,2.47,.51,.63,1.17,.95,1.99,.95,.42,0,.8-.09,1.16-.27,.35-.18,.67-.39,.94-.63l.66,1.01c-.4,.36-.85,.63-1.34,.83-.49,.2-1,.3-1.54,.3Z"/><path class="cls-4" d="M243.23,101.71v-13.07h1.49v8.85h.06l3.8-4.7h1.67l-2.99,3.58,3.4,5.34h-1.65l-2.61-4.3-1.67,1.95v2.35h-1.49Z"/><path class="cls-4" d="M254.83,101.93c-.64,0-1.24-.12-1.82-.36s-1.08-.53-1.51-.87l.75-1.01c.39,.31,.8,.56,1.21,.76,.42,.2,.89,.3,1.41,.3,.59,0,1.03-.14,1.32-.41,.29-.28,.44-.6,.44-.98,0-.31-.1-.56-.3-.77-.2-.21-.46-.38-.77-.52-.31-.14-.63-.27-.96-.4-.42-.16-.83-.34-1.23-.54-.4-.2-.73-.46-.99-.79-.26-.32-.39-.74-.39-1.24,0-.72,.27-1.33,.82-1.81,.54-.48,1.3-.73,2.27-.73,.55,0,1.06,.1,1.54,.29,.48,.2,.89,.43,1.23,.72l-.73,.96c-.31-.23-.62-.42-.96-.57-.33-.15-.69-.22-1.08-.22-.56,0-.98,.13-1.24,.39-.26,.26-.39,.56-.39,.9,0,.28,.09,.51,.28,.69,.18,.18,.42,.33,.72,.46,.29,.13,.61,.26,.94,.39,.43,.16,.85,.34,1.27,.54s.76,.47,1.04,.81c.28,.34,.41,.79,.41,1.35,0,.48-.13,.92-.38,1.32-.25,.4-.62,.73-1.1,.97-.48,.24-1.08,.37-1.79,.37Z"/></g><line class="cls-12" x1="259.65" y1="105.56" x2="202.83" y2="105.56"/><line class="cls-12" x1="186.65" y1="105.56" x2="87.44" y2="105.56"/><rect class="cls-6" x="85.15" y="202.94" width="350" height="38.06" rx="7.06" ry="7.06"/><g><path d="M89.95,263.09v-7.46h2.2c.76,0,1.42,.12,2,.37,.58,.25,1.03,.64,1.35,1.19s.48,1.25,.48,2.13-.16,1.6-.48,2.15-.76,.96-1.32,1.22c-.56,.26-1.2,.39-1.92,.39h-2.32Zm1.97-1.58h.11c.36,0,.68-.06,.98-.18,.29-.12,.52-.34,.69-.65s.26-.76,.26-1.34-.09-1.02-.26-1.33c-.17-.3-.4-.51-.69-.62-.29-.11-.62-.17-.98-.17h-.11v4.29Z"/><path d="M99.22,263.22c-.36,0-.67-.08-.92-.25-.26-.16-.45-.38-.59-.65-.14-.27-.21-.56-.21-.87,0-.6,.25-1.07,.73-1.41,.49-.34,1.29-.57,2.39-.68-.05-.4-.31-.6-.8-.6-.21,0-.42,.04-.65,.12-.23,.08-.49,.2-.79,.36l-.69-1.29c.41-.25,.82-.43,1.23-.56s.85-.2,1.29-.2c.75,0,1.33,.21,1.76,.64,.42,.42,.63,1.11,.63,2.05v3.19h-1.61l-.14-.55h-.05c-.23,.21-.47,.37-.73,.5s-.54,.19-.85,.19Zm.69-1.51c.16,0,.29-.04,.4-.11,.11-.07,.21-.17,.31-.28v-.78c-.47,.07-.79,.17-.97,.31s-.27,.29-.27,.45c0,.28,.18,.41,.53,.41Z"/><path d="M106.59,263.22c-.74,0-1.28-.22-1.61-.65-.33-.43-.5-1-.5-1.69v-2h-.76v-1.47l.87-.07,.23-1.49h1.63v1.49h1.31v1.54h-1.31v1.96c0,.31,.07,.53,.21,.65,.14,.12,.3,.18,.48,.18,.09,0,.18,0,.27-.03,.09-.02,.17-.04,.24-.06l.3,1.42c-.15,.05-.33,.09-.55,.14s-.49,.07-.8,.07Z"/><path d="M110.65,263.22c-.36,0-.67-.08-.92-.25-.26-.16-.45-.38-.59-.65-.14-.27-.21-.56-.21-.87,0-.6,.25-1.07,.73-1.41,.49-.34,1.29-.57,2.39-.68-.05-.4-.31-.6-.8-.6-.21,0-.42,.04-.65,.12-.23,.08-.49,.2-.79,.36l-.69-1.29c.41-.25,.82-.43,1.23-.56s.85-.2,1.29-.2c.75,0,1.33,.21,1.76,.64,.42,.42,.63,1.11,.63,2.05v3.19h-1.61l-.14-.55h-.05c-.23,.21-.47,.37-.73,.5s-.54,.19-.85,.19Zm.69-1.51c.16,0,.29-.04,.4-.11,.11-.07,.21-.17,.31-.28v-.78c-.47,.07-.79,.17-.97,.31s-.27,.29-.27,.45c0,.28,.18,.41,.53,.41Z"/><path d="M121.27,263.22c-.47,0-.95-.09-1.46-.26s-.96-.44-1.37-.8l1.12-1.35c.27,.21,.56,.39,.87,.52,.31,.13,.6,.2,.88,.2,.3,0,.51-.05,.65-.14s.2-.22,.2-.39-.09-.31-.27-.4c-.18-.09-.43-.2-.74-.32l-.93-.39c-.4-.16-.75-.41-1.05-.76-.3-.34-.45-.78-.45-1.32,0-.43,.12-.82,.36-1.16s.56-.63,.98-.84c.42-.21,.9-.32,1.44-.32,.43,0,.86,.08,1.3,.25,.44,.16,.83,.42,1.18,.75l-.99,1.24c-.25-.18-.5-.31-.73-.4-.23-.09-.49-.14-.76-.14-.24,0-.43,.04-.57,.13-.14,.08-.21,.21-.21,.38s.1,.31,.3,.41c.2,.1,.47,.21,.8,.34l.91,.36c.47,.18,.83,.44,1.08,.77,.25,.33,.38,.75,.38,1.27,0,.42-.11,.81-.34,1.18-.23,.36-.56,.66-.99,.88-.44,.22-.96,.33-1.58,.33Z"/><path d="M128.34,263.22c-.49,0-.95-.12-1.38-.36-.43-.24-.78-.58-1.06-1.03s-.41-.99-.41-1.62,.14-1.18,.41-1.62,.62-.79,1.06-1.03c.43-.24,.89-.36,1.38-.36s.95,.12,1.38,.36c.43,.24,.78,.58,1.06,1.03s.41,.99,.41,1.62-.14,1.18-.41,1.62-.62,.79-1.06,1.03c-.43,.24-.89,.36-1.38,.36Zm0-1.58c.3,0,.51-.13,.64-.38,.13-.26,.19-.6,.19-1.04s-.06-.78-.19-1.04c-.13-.26-.34-.38-.64-.38s-.51,.13-.64,.38c-.13,.26-.19,.6-.19,1.04s.06,.78,.19,1.04c.13,.26,.34,.38,.64,.38Z"/><path d="M134.54,263.22c-.63,0-1.08-.21-1.37-.64s-.42-.99-.42-1.7v-3.53h1.97v3.28c0,.37,.05,.61,.14,.73,.1,.12,.24,.18,.43,.18s.34-.04,.46-.12c.12-.08,.24-.21,.37-.39v-3.7h1.97v5.74h-1.61l-.14-.76h-.05c-.23,.28-.48,.49-.76,.65-.28,.16-.61,.24-1,.24Z"/><path d="M140,263.09v-5.74h1.61l.14,.99h.05c.21-.39,.47-.67,.76-.85,.29-.18,.58-.27,.87-.27,.18,0,.32,0,.43,.03,.11,.02,.21,.05,.28,.09l-.32,1.7c-.1-.02-.2-.04-.3-.06-.1-.02-.21-.03-.34-.03-.21,0-.42,.07-.65,.21s-.41,.39-.54,.75v3.19h-1.97Z"/><path d="M147.85,263.22c-.54,0-1.03-.12-1.47-.36-.44-.24-.78-.58-1.04-1.03-.26-.45-.38-.99-.38-1.62s.14-1.18,.43-1.62c.29-.45,.66-.79,1.13-1.03s.97-.36,1.51-.36c.34,0,.66,.05,.93,.16s.53,.25,.74,.44l-.92,1.26c-.12-.11-.23-.18-.33-.22-.1-.04-.2-.06-.31-.06-.37,0-.65,.13-.86,.38-.21,.26-.31,.6-.31,1.04s.11,.78,.32,1.04c.21,.26,.47,.38,.78,.38,.16,0,.32-.04,.48-.11,.16-.07,.3-.16,.44-.26l.76,1.29c-.28,.25-.6,.43-.94,.52-.34,.1-.67,.14-.96,.14Z"/><path d="M153.56,263.22c-.56,0-1.06-.12-1.51-.36-.45-.24-.8-.58-1.06-1.03-.26-.45-.39-.99-.39-1.62s.13-1.15,.4-1.6c.26-.45,.61-.79,1.03-1.04,.42-.24,.86-.37,1.33-.37,.57,0,1.03,.12,1.41,.37,.37,.25,.65,.58,.83,1,.18,.42,.27,.89,.27,1.4,0,.17,0,.33-.03,.49-.02,.16-.04,.27-.05,.34h-3.27c.09,.34,.26,.58,.49,.72,.24,.13,.52,.2,.84,.2,.37,0,.76-.12,1.17-.34l.64,1.17c-.31,.21-.65,.38-1.03,.49-.38,.11-.73,.17-1.06,.17Zm-1.08-3.69h1.7c0-.22-.06-.42-.17-.58-.11-.16-.32-.25-.61-.25-.21,0-.41,.07-.57,.2s-.28,.34-.34,.63Z"/></g><rect class="cls-5" x="85.15" y="271.94" width="164" height="38.06" rx="7.06" ry="7.06"/><g><path d="M98.29,224.92v-9.16h5.52v1.37h-3.89v2.34h3.29v1.37h-3.29v2.7h4.03v1.37h-5.66Z"/><path d="M106.38,224.92v-6.87h1.33l.11,.92h.06c.31-.3,.64-.55,1.01-.77,.36-.21,.78-.32,1.25-.32,.74,0,1.27,.24,1.61,.71,.34,.48,.5,1.15,.5,2.02v4.31h-1.61v-4.1c0-.57-.08-.97-.25-1.2s-.44-.35-.83-.35c-.3,0-.56,.07-.79,.22-.23,.15-.49,.36-.78,.64v4.8h-1.61Z"/><path d="M116.84,225.09c-.47,0-.93-.09-1.4-.27-.47-.18-.87-.41-1.2-.68l.76-1.04c.31,.23,.62,.42,.92,.56,.31,.14,.63,.21,.98,.21,.37,0,.65-.08,.83-.24,.18-.16,.27-.35,.27-.59,0-.2-.07-.36-.22-.48s-.33-.24-.55-.34c-.22-.1-.46-.19-.7-.29-.3-.11-.59-.25-.89-.41-.29-.16-.53-.37-.72-.63-.19-.26-.28-.58-.28-.96,0-.61,.22-1.1,.67-1.48,.45-.38,1.05-.57,1.82-.57,.49,0,.92,.08,1.3,.25,.38,.17,.71,.36,.99,.57l-.74,.98c-.24-.18-.49-.32-.74-.43s-.51-.16-.78-.16c-.34,0-.6,.07-.77,.22-.17,.15-.25,.33-.25,.54,0,.27,.14,.48,.42,.62,.28,.14,.61,.28,.98,.41,.32,.11,.63,.25,.92,.41,.3,.16,.55,.38,.75,.64,.2,.26,.3,.61,.3,1.04,0,.59-.23,1.09-.69,1.5s-1.12,.62-1.99,.62Z"/><path d="M123.7,225.09c-.74,0-1.27-.24-1.61-.71-.34-.48-.5-1.15-.5-2.02v-4.31h1.61v4.1c0,.57,.08,.97,.25,1.2,.17,.23,.44,.35,.81,.35,.3,0,.56-.08,.79-.22,.23-.15,.47-.39,.74-.73v-4.7h1.61v6.87h-1.32l-.13-1.01h-.04c-.3,.35-.63,.64-.98,.85-.35,.21-.77,.32-1.23,.32Z"/><path d="M130.14,224.92v-6.87h1.33l.11,1.22h.06c.24-.45,.54-.79,.88-1.03,.34-.24,.7-.36,1.06-.36,.33,0,.59,.05,.78,.14l-.28,1.4c-.12-.04-.23-.07-.34-.08s-.23-.03-.38-.03c-.27,0-.56,.11-.85,.32-.3,.21-.56,.58-.77,1.1v4.2h-1.61Z"/><path d="M138.86,225.09c-.63,0-1.21-.14-1.72-.43-.51-.29-.92-.7-1.22-1.23-.3-.54-.45-1.18-.45-1.94s.15-1.39,.46-1.93c.3-.54,.7-.96,1.18-1.25,.49-.29,.99-.43,1.53-.43,.62,0,1.15,.14,1.57,.41s.74,.66,.95,1.15c.21,.49,.32,1.06,.32,1.7,0,.34-.02,.6-.07,.78h-4.37c.08,.61,.29,1.08,.66,1.41s.82,.5,1.37,.5c.3,0,.58-.04,.83-.13s.51-.21,.76-.37l.55,1.01c-.33,.21-.69,.39-1.09,.53s-.82,.21-1.26,.21Zm-1.83-4.26h3.05c0-.53-.12-.95-.35-1.25s-.58-.46-1.05-.46c-.4,0-.76,.15-1.07,.44-.31,.29-.51,.72-.58,1.27Z"/><path d="M147.36,224.92v-9.16h2.88c.68,0,1.29,.09,1.82,.27,.53,.18,.95,.47,1.26,.88,.31,.41,.46,.97,.46,1.68,0,.67-.15,1.23-.46,1.67s-.72,.77-1.25,.98-1.12,.32-1.78,.32h-1.32v3.36h-1.62Zm1.62-4.66h1.19c1.34,0,2.02-.55,2.02-1.67,0-.58-.17-.98-.53-1.2-.35-.22-.87-.33-1.55-.33h-1.13v3.19Z"/><path d="M157.2,225.09c-.6,0-1.09-.19-1.46-.56-.38-.37-.57-.86-.57-1.46,0-.74,.32-1.31,.97-1.72,.64-.41,1.67-.68,3.08-.83,0-.36-.11-.68-.29-.94-.18-.27-.51-.4-.97-.4-.34,0-.67,.07-.99,.2s-.64,.29-.95,.48l-.59-1.08c.38-.24,.81-.45,1.29-.63,.48-.18,.99-.27,1.53-.27,.86,0,1.5,.25,1.92,.76,.42,.51,.64,1.24,.64,2.21v4.07h-1.33l-.11-.76h-.06c-.31,.26-.64,.48-.99,.66-.35,.18-.73,.27-1.14,.27Zm.52-1.26c.28,0,.53-.07,.76-.2s.47-.32,.74-.55v-1.54c-.93,.12-1.58,.3-1.95,.54-.36,.24-.55,.53-.55,.88,0,.31,.09,.53,.28,.67,.19,.14,.42,.21,.71,.21Z"/><path d="M165.85,227.96c-.54,0-1.03-.07-1.46-.2-.43-.13-.78-.33-1.02-.59s-.37-.6-.37-1c0-.57,.33-1.06,.98-1.47v-.06c-.18-.11-.32-.26-.44-.45-.12-.19-.17-.42-.17-.7s.08-.52,.23-.74c.15-.22,.33-.4,.52-.54v-.06c-.23-.18-.44-.42-.62-.74-.18-.32-.27-.68-.27-1.08,0-.53,.13-.98,.38-1.34s.59-.64,1-.83,.86-.29,1.34-.29c.19,0,.37,.02,.54,.05,.17,.03,.33,.07,.47,.12h2.46v1.19h-1.26c.11,.13,.21,.3,.28,.5,.07,.2,.11,.42,.11,.66,0,.5-.12,.93-.35,1.28-.23,.35-.55,.61-.94,.79-.39,.18-.83,.27-1.32,.27-.15,0-.3-.01-.46-.04-.16-.03-.32-.08-.48-.14-.1,.09-.18,.19-.24,.28-.06,.09-.09,.22-.09,.38,0,.2,.08,.35,.25,.46s.46,.17,.88,.17h1.22c.83,0,1.46,.13,1.88,.4,.42,.27,.64,.7,.64,1.29,0,.45-.15,.86-.45,1.22-.3,.37-.72,.66-1.27,.88-.55,.21-1.2,.32-1.95,.32Zm.25-1.05c.55,0,1-.11,1.34-.34,.35-.22,.52-.48,.52-.77,0-.27-.11-.45-.32-.55-.21-.09-.51-.14-.9-.14h-.94c-.37,0-.69-.03-.94-.1-.35,.27-.53,.57-.53,.91,0,.31,.16,.55,.48,.72,.32,.17,.75,.26,1.29,.26Zm-.17-5.18c.33,0,.61-.12,.84-.36,.23-.24,.35-.58,.35-1.02s-.12-.76-.34-1-.51-.36-.85-.36-.62,.12-.85,.35c-.23,.23-.35,.57-.35,1.01s.12,.78,.35,1.02c.23,.24,.52,.36,.85,.36Z"/><path d="M174.15,225.09c-.63,0-1.21-.14-1.72-.43-.51-.29-.92-.7-1.22-1.23-.3-.54-.45-1.18-.45-1.94s.15-1.39,.46-1.93c.3-.54,.7-.96,1.18-1.25,.49-.29,.99-.43,1.53-.43,.62,0,1.15,.14,1.57,.41s.74,.66,.95,1.15c.21,.49,.32,1.06,.32,1.7,0,.34-.02,.6-.07,.78h-4.37c.08,.61,.29,1.08,.66,1.41s.82,.5,1.37,.5c.3,0,.58-.04,.83-.13s.51-.21,.76-.37l.55,1.01c-.33,.21-.69,.39-1.09,.53s-.82,.21-1.26,.21Zm-1.83-4.26h3.05c0-.53-.12-.95-.35-1.25s-.58-.46-1.05-.46c-.4,0-.76,.15-1.07,.44-.31,.29-.51,.72-.58,1.27Z"/><path d="M179.01,224.92v-6.87h1.33l.11,1.22h.06c.24-.45,.54-.79,.88-1.03,.34-.24,.7-.36,1.06-.36,.33,0,.59,.05,.78,.14l-.28,1.4c-.12-.04-.23-.07-.34-.08s-.23-.03-.38-.03c-.27,0-.56,.11-.85,.32-.3,.21-.56,.58-.77,1.1v4.2h-1.61Z"/><path d="M185.07,224.92v-9.16h2.45c1.4,0,2.49,.38,3.28,1.13,.78,.76,1.18,1.89,1.18,3.4s-.39,2.67-1.16,3.45c-.78,.78-1.84,1.17-3.21,1.17h-2.53Zm1.62-1.32h.71c.92,0,1.64-.27,2.14-.8,.5-.54,.76-1.37,.76-2.5s-.25-1.94-.76-2.45c-.5-.51-1.22-.77-2.14-.77h-.71v6.52Z"/><path d="M196.43,225.09c-.74,0-1.27-.24-1.61-.71-.34-.48-.5-1.15-.5-2.02v-4.31h1.61v4.1c0,.57,.08,.97,.25,1.2,.17,.23,.44,.35,.81,.35,.3,0,.56-.08,.79-.22,.23-.15,.47-.39,.74-.73v-4.7h1.61v6.87h-1.32l-.13-1.01h-.04c-.3,.35-.63,.64-.98,.85-.35,.21-.77,.32-1.23,.32Z"/><path d="M205.29,225.09c-.79,0-1.36-.23-1.69-.69s-.5-1.06-.5-1.8v-3.28h-.98v-1.2l1.06-.07,.2-1.88h1.34v1.88h1.75v1.27h-1.75v3.28c0,.8,.32,1.2,.97,1.2,.12,0,.25-.02,.38-.05,.13-.03,.24-.07,.34-.11l.28,1.19c-.19,.07-.4,.12-.64,.17-.24,.05-.49,.08-.76,.08Z"/><path d="M209.08,227.75c-.19,0-.35-.01-.49-.04-.14-.03-.28-.06-.41-.1l.29-1.26c.07,.02,.14,.04,.23,.06,.09,.02,.17,.04,.26,.04,.36,0,.66-.11,.88-.33,.22-.22,.38-.5,.5-.85l.13-.43-2.7-6.79h1.64l1.19,3.37c.1,.3,.2,.61,.3,.95s.2,.66,.3,.99h.06c.08-.32,.17-.64,.26-.97s.17-.65,.26-.96l1.04-3.37h1.55l-2.49,7.18c-.29,.78-.64,1.39-1.05,1.84-.41,.45-.99,.68-1.74,.68Z"/><path d="M219.89,224.92v-9.16h1.62v3.68h3.71v-3.68h1.62v9.16h-1.62v-4.06h-3.71v4.06h-1.62Z"/><path d="M231.4,225.09c-.6,0-1.09-.19-1.46-.56-.38-.37-.57-.86-.57-1.46,0-.74,.32-1.31,.97-1.72,.64-.41,1.67-.68,3.08-.83,0-.36-.11-.68-.29-.94-.18-.27-.51-.4-.97-.4-.34,0-.67,.07-.99,.2s-.64,.29-.95,.48l-.59-1.08c.38-.24,.81-.45,1.29-.63,.48-.18,.99-.27,1.53-.27,.86,0,1.5,.25,1.92,.76,.42,.51,.64,1.24,.64,2.21v4.07h-1.33l-.11-.76h-.06c-.31,.26-.64,.48-.99,.66-.35,.18-.73,.27-1.14,.27Zm.52-1.26c.28,0,.53-.07,.76-.2s.47-.32,.74-.55v-1.54c-.93,.12-1.58,.3-1.95,.54-.36,.24-.55,.53-.55,.88,0,.31,.09,.53,.28,.67,.19,.14,.42,.21,.71,.21Z"/><path d="M239.57,225.09c-.47,0-.93-.09-1.4-.27-.47-.18-.87-.41-1.2-.68l.76-1.04c.31,.23,.62,.42,.92,.56,.31,.14,.63,.21,.98,.21,.37,0,.65-.08,.83-.24,.18-.16,.27-.35,.27-.59,0-.2-.07-.36-.22-.48s-.33-.24-.55-.34c-.22-.1-.46-.19-.7-.29-.3-.11-.59-.25-.89-.41-.29-.16-.53-.37-.72-.63-.19-.26-.28-.58-.28-.96,0-.61,.22-1.1,.67-1.48,.45-.38,1.05-.57,1.82-.57,.49,0,.92,.08,1.3,.25,.38,.17,.71,.36,.99,.57l-.74,.98c-.24-.18-.49-.32-.74-.43s-.51-.16-.78-.16c-.34,0-.6,.07-.77,.22-.17,.15-.25,.33-.25,.54,0,.27,.14,.48,.42,.62,.28,.14,.61,.28,.98,.41,.32,.11,.63,.25,.92,.41,.3,.16,.55,.38,.75,.64,.2,.26,.3,.61,.3,1.04,0,.59-.23,1.09-.69,1.5s-1.12,.62-1.99,.62Z"/><path d="M251.58,225.09c-.79,0-1.49-.19-2.1-.58-.61-.39-1.08-.94-1.42-1.65-.34-.71-.51-1.57-.51-2.55s.17-1.83,.51-2.53c.34-.7,.81-1.24,1.42-1.61,.61-.37,1.31-.56,2.1-.56s1.51,.19,2.11,.56,1.08,.91,1.42,1.61c.34,.7,.51,1.54,.51,2.53s-.17,1.84-.51,2.55c-.34,.71-.81,1.27-1.42,1.65-.61,.39-1.31,.58-2.11,.58Zm0-1.41c.72,0,1.29-.31,1.72-.92,.43-.61,.64-1.43,.64-2.46s-.21-1.83-.64-2.42c-.43-.58-1-.88-1.72-.88s-1.29,.29-1.72,.88c-.43,.58-.64,1.39-.64,2.42s.21,1.85,.64,2.46c.43,.61,1,.92,1.72,.92Z"/><path d="M258.03,224.92v-6.87h1.33l.11,.92h.06c.31-.3,.64-.55,1.01-.77,.36-.21,.78-.32,1.25-.32,.74,0,1.27,.24,1.61,.71,.34,.48,.5,1.15,.5,2.02v4.31h-1.61v-4.1c0-.57-.08-.97-.25-1.2s-.44-.35-.83-.35c-.3,0-.56,.07-.79,.22-.23,.15-.49,.36-.78,.64v4.8h-1.61Z"/><path d="M266.13,221.98v-1.18h3.33v1.18h-3.33Z"/><path d="M275.57,225.09c-.77,0-1.46-.18-2.09-.55-.63-.36-1.12-.9-1.49-1.6-.37-.7-.55-1.56-.55-2.57s.19-1.86,.57-2.57,.88-1.26,1.52-1.64c.63-.38,1.33-.57,2.1-.57,.58,0,1.09,.12,1.54,.35s.82,.5,1.11,.81l-.87,1.05c-.23-.24-.49-.44-.78-.58-.29-.14-.6-.22-.96-.22-.5,0-.94,.13-1.32,.4-.39,.27-.69,.65-.91,1.14-.22,.5-.33,1.09-.33,1.78,0,1.04,.23,1.86,.69,2.46s1.07,.89,1.83,.89c.41,0,.77-.09,1.09-.26s.61-.4,.87-.68l.87,1.02c-.37,.43-.8,.76-1.28,.99s-1.01,.34-1.6,.34Z"/><path d="M282.2,225.09c-.6,0-1.09-.19-1.46-.56-.38-.37-.57-.86-.57-1.46,0-.74,.32-1.31,.97-1.72,.64-.41,1.67-.68,3.08-.83,0-.36-.11-.68-.29-.94-.18-.27-.51-.4-.97-.4-.34,0-.67,.07-.99,.2s-.64,.29-.95,.48l-.59-1.08c.38-.24,.81-.45,1.29-.63,.48-.18,.99-.27,1.53-.27,.86,0,1.5,.25,1.92,.76,.42,.51,.64,1.24,.64,2.21v4.07h-1.33l-.11-.76h-.06c-.31,.26-.64,.48-.99,.66-.35,.18-.73,.27-1.14,.27Zm.52-1.26c.28,0,.53-.07,.76-.2s.47-.32,.74-.55v-1.54c-.93,.12-1.58,.3-1.95,.54-.36,.24-.55,.53-.55,.88,0,.31,.09,.53,.28,.67,.19,.14,.42,.21,.71,.21Z"/><path d="M290.03,225.09c-.57,0-.97-.17-1.21-.52-.24-.35-.36-.82-.36-1.41v-8.12h1.61v8.2c0,.2,.04,.33,.11,.41,.07,.08,.15,.12,.24,.12,.04,0,.07,0,.1,0,.03,0,.08-.01,.15-.02l.21,1.2c-.09,.04-.21,.07-.36,.1s-.31,.04-.5,.04Z"/><path d="M294.52,225.09c-.57,0-.97-.17-1.21-.52-.24-.35-.36-.82-.36-1.41v-8.12h1.61v8.2c0,.2,.04,.33,.11,.41,.07,.08,.15,.12,.24,.12,.04,0,.07,0,.1,0,.03,0,.08-.01,.15-.02l.21,1.2c-.09,.04-.21,.07-.36,.1s-.31,.04-.5,.04Z"/><path d="M301.09,224.92v-9.16h3.09c.63,0,1.21,.08,1.71,.25s.91,.45,1.2,.85,.44,.94,.44,1.62-.17,1.27-.5,1.69c-.33,.43-.77,.74-1.32,.92l2.18,3.82h-1.82l-1.97-3.58h-1.4v3.58h-1.62Zm1.62-4.87h1.3c.62,0,1.1-.13,1.44-.4,.33-.27,.5-.66,.5-1.17s-.17-.89-.5-1.1c-.33-.21-.81-.31-1.44-.31h-1.3v2.98Z"/><path d="M312.61,225.09c-.57,0-1.1-.14-1.6-.43-.5-.29-.9-.7-1.2-1.23-.31-.54-.46-1.18-.46-1.94s.15-1.42,.46-1.95c.31-.54,.71-.95,1.2-1.23,.49-.28,1.03-.43,1.6-.43s1.12,.14,1.61,.43c.49,.29,.9,.7,1.2,1.23,.31,.54,.46,1.19,.46,1.95s-.15,1.4-.46,1.94c-.31,.54-.71,.95-1.2,1.23-.5,.28-1.03,.43-1.61,.43Zm0-1.32c.5,0,.9-.21,1.19-.63,.29-.42,.43-.97,.43-1.65s-.14-1.25-.43-1.67c-.29-.42-.69-.63-1.19-.63s-.9,.21-1.18,.63c-.29,.42-.43,.98-.43,1.67s.14,1.23,.43,1.65c.28,.42,.68,.63,1.18,.63Z"/><path d="M320.3,225.09c-.79,0-1.36-.23-1.69-.69s-.5-1.06-.5-1.8v-3.28h-.98v-1.2l1.06-.07,.2-1.88h1.34v1.88h1.75v1.27h-1.75v3.28c0,.8,.32,1.2,.97,1.2,.12,0,.25-.02,.38-.05,.13-.03,.24-.07,.34-.11l.28,1.19c-.19,.07-.4,.12-.64,.17-.24,.05-.49,.08-.76,.08Z"/><path d="M325,225.09c-.6,0-1.09-.19-1.46-.56-.38-.37-.57-.86-.57-1.46,0-.74,.32-1.31,.97-1.72,.64-.41,1.67-.68,3.08-.83,0-.36-.11-.68-.29-.94-.18-.27-.51-.4-.97-.4-.34,0-.67,.07-.99,.2s-.64,.29-.95,.48l-.59-1.08c.38-.24,.81-.45,1.29-.63,.48-.18,.99-.27,1.53-.27,.86,0,1.5,.25,1.92,.76,.42,.51,.64,1.24,.64,2.21v4.07h-1.33l-.11-.76h-.06c-.31,.26-.64,.48-.99,.66-.35,.18-.73,.27-1.14,.27Zm.52-1.26c.28,0,.53-.07,.76-.2s.47-.32,.74-.55v-1.54c-.93,.12-1.58,.3-1.95,.54-.36,.24-.55,.53-.55,.88,0,.31,.09,.53,.28,.67,.19,.14,.42,.21,.71,.21Z"/><path d="M333.46,225.09c-.79,0-1.36-.23-1.69-.69s-.5-1.06-.5-1.8v-3.28h-.98v-1.2l1.06-.07,.2-1.88h1.34v1.88h1.75v1.27h-1.75v3.28c0,.8,.32,1.2,.97,1.2,.12,0,.25-.02,.38-.05,.13-.03,.24-.07,.34-.11l.28,1.19c-.19,.07-.4,.12-.64,.17-.24,.05-.49,.08-.76,.08Z"/><path d="M337.6,216.84c-.29,0-.52-.08-.7-.25-.18-.17-.27-.39-.27-.67s.09-.49,.27-.66c.18-.17,.41-.25,.7-.25s.52,.08,.7,.25c.18,.17,.27,.39,.27,.66s-.09,.5-.27,.67c-.18,.17-.41,.25-.7,.25Zm-.81,8.08v-6.87h1.61v6.87h-1.61Z"/><path d="M343.97,225.09c-.57,0-1.1-.14-1.6-.43-.5-.29-.9-.7-1.2-1.23-.31-.54-.46-1.18-.46-1.94s.15-1.42,.46-1.95c.31-.54,.71-.95,1.2-1.23,.49-.28,1.03-.43,1.6-.43s1.12,.14,1.61,.43c.49,.29,.9,.7,1.2,1.23,.31,.54,.46,1.19,.46,1.95s-.15,1.4-.46,1.94c-.31,.54-.71,.95-1.2,1.23-.5,.28-1.03,.43-1.61,.43Zm0-1.32c.5,0,.9-.21,1.19-.63,.29-.42,.43-.97,.43-1.65s-.14-1.25-.43-1.67c-.29-.42-.69-.63-1.19-.63s-.9,.21-1.18,.63c-.29,.42-.43,.98-.43,1.67s.14,1.23,.43,1.65c.28,.42,.68,.63,1.18,.63Z"/><path d="M349.54,224.92v-6.87h1.33l.11,.92h.06c.31-.3,.64-.55,1.01-.77,.36-.21,.78-.32,1.25-.32,.74,0,1.27,.24,1.61,.71,.34,.48,.5,1.15,.5,2.02v4.31h-1.61v-4.1c0-.57-.08-.97-.25-1.2s-.44-.35-.83-.35c-.3,0-.56,.07-.79,.22-.23,.15-.49,.36-.78,.64v4.8h-1.61Z"/><path d="M360,225.09c-.47,0-.93-.09-1.4-.27-.47-.18-.87-.41-1.2-.68l.76-1.04c.31,.23,.62,.42,.92,.56,.31,.14,.63,.21,.98,.21,.37,0,.65-.08,.83-.24,.18-.16,.27-.35,.27-.59,0-.2-.07-.36-.22-.48s-.33-.24-.55-.34c-.22-.1-.46-.19-.7-.29-.3-.11-.59-.25-.89-.41-.29-.16-.53-.37-.72-.63-.19-.26-.28-.58-.28-.96,0-.61,.22-1.1,.67-1.48,.45-.38,1.05-.57,1.82-.57,.49,0,.92,.08,1.3,.25,.38,.17,.71,.36,.99,.57l-.74,.98c-.24-.18-.49-.32-.74-.43s-.51-.16-.78-.16c-.34,0-.6,.07-.77,.22-.17,.15-.25,.33-.25,.54,0,.27,.14,.48,.42,.62,.28,.14,.61,.28,.98,.41,.32,.11,.63,.25,.92,.41,.3,.16,.55,.38,.75,.64,.2,.26,.3,.61,.3,1.04,0,.59-.23,1.09-.69,1.5s-1.12,.62-1.99,.62Z"/></g><g><path d="M98.29,294.92v-9.16h2.88c.68,0,1.29,.09,1.82,.27,.53,.18,.95,.47,1.26,.88,.31,.41,.46,.97,.46,1.68,0,.67-.15,1.23-.46,1.67s-.72,.77-1.25,.98-1.12,.32-1.78,.32h-1.32v3.36h-1.62Zm1.62-4.66h1.19c1.34,0,2.02-.55,2.02-1.67,0-.58-.17-.98-.53-1.2-.35-.22-.87-.33-1.55-.33h-1.13v3.19Z"/><path d="M108.13,295.09c-.6,0-1.09-.19-1.46-.56-.38-.37-.57-.86-.57-1.46,0-.74,.32-1.31,.97-1.72,.64-.41,1.67-.68,3.08-.83,0-.36-.11-.68-.29-.94-.18-.27-.51-.4-.97-.4-.34,0-.67,.07-.99,.2s-.64,.29-.95,.48l-.59-1.08c.38-.24,.81-.45,1.29-.63,.48-.18,.99-.27,1.53-.27,.86,0,1.5,.25,1.92,.76,.42,.51,.64,1.24,.64,2.21v4.07h-1.33l-.11-.76h-.06c-.31,.26-.64,.48-.99,.66-.35,.18-.73,.27-1.14,.27Zm.52-1.26c.28,0,.53-.07,.76-.2s.47-.32,.74-.55v-1.54c-.93,.12-1.58,.3-1.95,.54-.36,.24-.55,.53-.55,.88,0,.31,.09,.53,.28,.67,.19,.14,.42,.21,.71,.21Z"/><path d="M116.78,297.96c-.54,0-1.03-.07-1.46-.2-.43-.13-.78-.33-1.02-.59s-.37-.6-.37-1c0-.57,.33-1.06,.98-1.47v-.06c-.18-.11-.32-.26-.44-.45-.12-.19-.17-.42-.17-.7s.08-.52,.23-.74c.15-.22,.33-.4,.52-.54v-.06c-.23-.18-.44-.42-.62-.74-.18-.32-.27-.68-.27-1.08,0-.53,.13-.98,.38-1.34s.59-.64,1-.83,.86-.29,1.34-.29c.19,0,.37,.02,.54,.05,.17,.03,.33,.07,.47,.12h2.46v1.19h-1.26c.11,.13,.21,.3,.28,.5,.07,.2,.11,.42,.11,.66,0,.5-.12,.93-.35,1.28-.23,.35-.55,.61-.94,.79-.39,.18-.83,.27-1.32,.27-.15,0-.3-.01-.46-.04-.16-.03-.32-.08-.48-.14-.1,.09-.18,.19-.24,.28-.06,.09-.09,.22-.09,.38,0,.2,.08,.35,.25,.46s.46,.17,.88,.17h1.22c.83,0,1.46,.13,1.88,.4,.42,.27,.64,.7,.64,1.29,0,.45-.15,.86-.45,1.22-.3,.37-.72,.66-1.27,.88-.55,.21-1.2,.32-1.95,.32Zm.25-1.05c.55,0,1-.11,1.34-.34,.35-.22,.52-.48,.52-.77,0-.27-.11-.45-.32-.55-.21-.09-.51-.14-.9-.14h-.94c-.37,0-.69-.03-.94-.1-.35,.27-.53,.57-.53,.91,0,.31,.16,.55,.48,.72,.32,.17,.75,.26,1.29,.26Zm-.17-5.18c.33,0,.61-.12,.84-.36,.23-.24,.35-.58,.35-1.02s-.12-.76-.34-1-.51-.36-.85-.36-.62,.12-.85,.35c-.23,.23-.35,.57-.35,1.01s.12,.78,.35,1.02c.23,.24,.52,.36,.85,.36Z"/><path d="M125.08,295.09c-.63,0-1.21-.14-1.72-.43-.51-.29-.92-.7-1.22-1.23-.3-.54-.45-1.18-.45-1.94s.15-1.39,.46-1.93c.3-.54,.7-.96,1.18-1.25,.49-.29,.99-.43,1.53-.43,.62,0,1.15,.14,1.57,.41s.74,.66,.95,1.15c.21,.49,.32,1.06,.32,1.7,0,.34-.02,.6-.07,.78h-4.37c.08,.61,.29,1.08,.66,1.41s.82,.5,1.37,.5c.3,0,.58-.04,.83-.13s.51-.21,.76-.37l.55,1.01c-.33,.21-.69,.39-1.09,.53s-.82,.21-1.26,.21Zm-1.83-4.26h3.05c0-.53-.12-.95-.35-1.25s-.58-.46-1.05-.46c-.4,0-.76,.15-1.07,.44-.31,.29-.51,.72-.58,1.27Z"/><path d="M129.94,294.92v-6.87h1.33l.11,1.22h.06c.24-.45,.54-.79,.88-1.03,.34-.24,.7-.36,1.06-.36,.33,0,.59,.05,.78,.14l-.28,1.4c-.12-.04-.23-.07-.34-.08s-.23-.03-.38-.03c-.27,0-.56,.11-.85,.32-.3,.21-.56,.58-.77,1.1v4.2h-1.61Z"/><path d="M136,294.92v-9.16h2.45c1.4,0,2.49,.38,3.28,1.13,.78,.76,1.18,1.89,1.18,3.4s-.39,2.67-1.16,3.45c-.78,.78-1.84,1.17-3.21,1.17h-2.53Zm1.62-1.32h.71c.92,0,1.64-.27,2.14-.8,.5-.54,.76-1.37,.76-2.5s-.25-1.94-.76-2.45c-.5-.51-1.22-.77-2.14-.77h-.71v6.52Z"/><path d="M147.36,295.09c-.74,0-1.27-.24-1.61-.71-.34-.48-.5-1.15-.5-2.02v-4.31h1.61v4.1c0,.57,.08,.97,.25,1.2,.17,.23,.44,.35,.81,.35,.3,0,.56-.08,.79-.22,.23-.15,.47-.39,.74-.73v-4.7h1.61v6.87h-1.32l-.13-1.01h-.04c-.3,.35-.63,.64-.98,.85-.35,.21-.77,.32-1.23,.32Z"/><path d="M156.22,295.09c-.79,0-1.36-.23-1.69-.69s-.5-1.06-.5-1.8v-3.28h-.98v-1.2l1.06-.07,.2-1.88h1.34v1.88h1.75v1.27h-1.75v3.28c0,.8,.32,1.2,.97,1.2,.12,0,.25-.02,.38-.05,.13-.03,.24-.07,.34-.11l.28,1.19c-.19,.07-.4,.12-.64,.17-.24,.05-.49,.08-.76,.08Z"/><path d="M160.01,297.75c-.19,0-.35-.01-.49-.04-.14-.03-.28-.06-.41-.1l.29-1.26c.07,.02,.14,.04,.23,.06,.09,.02,.17,.04,.26,.04,.36,0,.66-.11,.88-.33,.22-.22,.38-.5,.5-.85l.13-.43-2.7-6.79h1.64l1.19,3.37c.1,.3,.2,.61,.3,.95s.2,.66,.3,.99h.06c.08-.32,.17-.64,.26-.97s.17-.65,.26-.96l1.04-3.37h1.55l-2.49,7.18c-.29,.78-.64,1.39-1.05,1.84-.41,.45-.99,.68-1.74,.68Z"/></g><g><path d="M89.95,351.09v-7.46h4.87v1.65h-2.89v1.42h2.48v1.65h-2.48v2.73h-1.97Z"/><path d="M97.55,351.22c-.36,0-.67-.08-.92-.25-.26-.16-.45-.38-.59-.65-.14-.27-.21-.56-.21-.87,0-.6,.25-1.07,.73-1.41,.49-.34,1.29-.57,2.39-.68-.05-.4-.31-.6-.8-.6-.21,0-.42,.04-.65,.12-.23,.08-.49,.2-.79,.36l-.69-1.29c.41-.25,.82-.43,1.23-.56s.85-.2,1.29-.2c.75,0,1.33,.21,1.76,.64,.42,.42,.63,1.11,.63,2.05v3.19h-1.61l-.14-.55h-.05c-.23,.21-.47,.37-.73,.5s-.54,.19-.85,.19Zm.69-1.51c.16,0,.29-.04,.4-.11,.11-.07,.21-.17,.31-.28v-.78c-.47,.07-.79,.17-.97,.31s-.27,.29-.27,.45c0,.28,.18,.41,.53,.41Z"/><path d="M105.37,351.22c-.54,0-1.03-.12-1.47-.36-.44-.24-.78-.58-1.04-1.03-.26-.45-.38-.99-.38-1.62s.14-1.18,.43-1.62c.29-.45,.66-.79,1.13-1.03s.97-.36,1.51-.36c.34,0,.66,.05,.93,.16s.53,.25,.74,.44l-.92,1.26c-.12-.11-.23-.18-.33-.22-.1-.04-.2-.06-.31-.06-.37,0-.65,.13-.86,.38-.21,.26-.31,.6-.31,1.04s.11,.78,.32,1.04c.21,.26,.47,.38,.78,.38,.16,0,.32-.04,.48-.11,.16-.07,.3-.16,.44-.26l.76,1.29c-.28,.25-.6,.43-.94,.52-.34,.1-.67,.14-.96,.14Z"/><path d="M111.02,351.22c-.74,0-1.28-.22-1.61-.65-.33-.43-.5-1-.5-1.69v-2h-.76v-1.47l.87-.07,.23-1.49h1.63v1.49h1.31v1.54h-1.31v1.96c0,.31,.07,.53,.21,.65,.14,.12,.3,.18,.48,.18,.09,0,.18,0,.27-.03,.09-.02,.17-.04,.24-.06l.3,1.42c-.15,.05-.33,.09-.55,.14s-.49,.07-.8,.07Z"/><path d="M119.99,351.22c-.69,0-1.29-.16-1.81-.46-.52-.31-.93-.75-1.22-1.34-.29-.58-.44-1.28-.44-2.1s.15-1.51,.44-2.08c.29-.57,.7-1,1.22-1.3,.52-.3,1.12-.45,1.81-.45s1.29,.15,1.81,.45c.52,.3,.92,.73,1.22,1.3,.29,.57,.44,1.26,.44,2.08s-.14,1.52-.44,2.1c-.29,.58-.7,1.03-1.22,1.34-.52,.31-1.12,.46-1.81,.46Zm0-1.7c.45,0,.8-.2,1.06-.6,.26-.4,.38-.93,.38-1.61s-.13-1.21-.38-1.58c-.26-.37-.61-.56-1.06-.56s-.8,.19-1.06,.56-.39,.9-.39,1.58,.13,1.21,.39,1.61c.26,.4,.61,.6,1.06,.6Z"/><path d="M125.2,353.11v-7.76h1.61l.14,.53h.05c.21-.2,.46-.36,.73-.48,.27-.12,.55-.18,.83-.18,.45,0,.84,.12,1.18,.36,.33,.24,.59,.58,.78,1.01,.18,.44,.27,.95,.27,1.54,0,.66-.11,1.22-.34,1.68s-.53,.81-.89,1.06-.75,.36-1.15,.36c-.47,0-.9-.19-1.29-.57l.07,.87v1.58h-1.97Zm2.71-3.49c.23,0,.43-.11,.6-.32,.17-.21,.25-.6,.25-1.15,0-.47-.07-.81-.2-1.02-.13-.21-.33-.31-.6-.31-.15,0-.28,.03-.4,.09-.12,.06-.25,.17-.38,.32v2.11c.12,.1,.24,.17,.36,.21,.13,.04,.25,.06,.37,.06Z"/><path d="M135.09,351.22c-.56,0-1.06-.12-1.51-.36-.45-.24-.8-.58-1.06-1.03-.26-.45-.39-.99-.39-1.62s.13-1.15,.4-1.6c.26-.45,.61-.79,1.03-1.04,.42-.24,.86-.37,1.33-.37,.57,0,1.03,.12,1.41,.37,.37,.25,.65,.58,.83,1,.18,.42,.27,.89,.27,1.4,0,.17,0,.33-.03,.49-.02,.16-.04,.27-.05,.34h-3.27c.09,.34,.26,.58,.49,.72,.24,.13,.52,.2,.84,.2,.37,0,.76-.12,1.17-.34l.64,1.17c-.31,.21-.65,.38-1.03,.49-.38,.11-.73,.17-1.06,.17Zm-1.08-3.69h1.7c0-.22-.06-.42-.17-.58-.11-.16-.32-.25-.61-.25-.21,0-.41,.07-.57,.2s-.28,.34-.34,.63Z"/><path d="M139.03,351.09v-5.74h1.61l.14,.99h.05c.21-.39,.47-.67,.76-.85,.29-.18,.58-.27,.87-.27,.18,0,.32,0,.43,.03,.11,.02,.21,.05,.28,.09l-.32,1.7c-.1-.02-.2-.04-.3-.06-.1-.02-.21-.03-.34-.03-.21,0-.42,.07-.65,.21s-.41,.39-.54,.75v3.19h-1.97Z"/><path d="M145.55,351.22c-.36,0-.67-.08-.92-.25-.26-.16-.45-.38-.59-.65-.14-.27-.21-.56-.21-.87,0-.6,.25-1.07,.73-1.41,.49-.34,1.29-.57,2.39-.68-.05-.4-.31-.6-.8-.6-.21,0-.42,.04-.65,.12-.23,.08-.49,.2-.79,.36l-.69-1.29c.41-.25,.82-.43,1.23-.56s.85-.2,1.29-.2c.75,0,1.33,.21,1.76,.64,.42,.42,.63,1.11,.63,2.05v3.19h-1.61l-.14-.55h-.05c-.23,.21-.47,.37-.73,.5s-.54,.19-.85,.19Zm.69-1.51c.16,0,.29-.04,.4-.11,.11-.07,.21-.17,.31-.28v-.78c-.47,.07-.79,.17-.97,.31s-.27,.29-.27,.45c0,.28,.18,.41,.53,.41Z"/><path d="M152.92,351.22c-.74,0-1.28-.22-1.61-.65-.33-.43-.5-1-.5-1.69v-2h-.76v-1.47l.87-.07,.23-1.49h1.63v1.49h1.31v1.54h-1.31v1.96c0,.31,.07,.53,.21,.65,.14,.12,.3,.18,.48,.18,.09,0,.18,0,.27-.03,.09-.02,.17-.04,.24-.06l.3,1.42c-.15,.05-.33,.09-.55,.14s-.49,.07-.8,.07Z"/><path d="M158.04,351.22c-.49,0-.95-.12-1.38-.36-.43-.24-.78-.58-1.06-1.03s-.41-.99-.41-1.62,.14-1.18,.41-1.62,.62-.79,1.06-1.03c.43-.24,.89-.36,1.38-.36s.95,.12,1.38,.36c.43,.24,.78,.58,1.06,1.03s.41,.99,.41,1.62-.14,1.18-.41,1.62-.62,.79-1.06,1.03c-.43,.24-.89,.36-1.38,.36Zm0-1.58c.3,0,.51-.13,.64-.38,.13-.26,.19-.6,.19-1.04s-.06-.78-.19-1.04c-.13-.26-.34-.38-.64-.38s-.51,.13-.64,.38c-.13,.26-.19,.6-.19,1.04s.06,.78,.19,1.04c.13,.26,.34,.38,.64,.38Z"/><path d="M162.49,351.09v-5.74h1.61l.14,.99h.05c.21-.39,.47-.67,.76-.85,.29-.18,.58-.27,.87-.27,.18,0,.32,0,.43,.03,.11,.02,.21,.05,.28,.09l-.32,1.7c-.1-.02-.2-.04-.3-.06-.1-.02-.21-.03-.34-.03-.21,0-.42,.07-.65,.21s-.41,.39-.54,.75v3.19h-1.97Z"/></g><rect class="cls-8" x="85.15" y="359.94" width="164" height="38.06" rx="7.06" ry="7.06"/><g><path d="M98.96,374.84c-.29,0-.52-.08-.7-.25-.18-.17-.27-.39-.27-.67s.09-.49,.27-.66c.18-.17,.41-.25,.7-.25s.52,.08,.7,.25c.18,.17,.27,.39,.27,.66s-.09,.5-.27,.67c-.18,.17-.41,.25-.7,.25Zm-.81,8.08v-6.87h1.61v6.87h-1.61Z"/><path d="M104.43,383.09c-.47,0-.93-.09-1.4-.27-.47-.18-.87-.41-1.2-.68l.76-1.04c.31,.23,.62,.42,.92,.56,.31,.14,.63,.21,.98,.21,.37,0,.65-.08,.83-.24,.18-.16,.27-.35,.27-.59,0-.2-.07-.36-.22-.48s-.33-.24-.55-.34c-.22-.1-.46-.19-.7-.29-.3-.11-.59-.25-.89-.41-.29-.16-.53-.37-.72-.63-.19-.26-.28-.58-.28-.96,0-.61,.22-1.1,.67-1.48,.45-.38,1.05-.57,1.82-.57,.49,0,.92,.08,1.3,.25,.38,.17,.71,.36,.99,.57l-.74,.98c-.24-.18-.49-.32-.74-.43s-.51-.16-.78-.16c-.34,0-.6,.07-.77,.22-.17,.15-.25,.33-.25,.54,0,.27,.14,.48,.42,.62,.28,.14,.61,.28,.98,.41,.32,.11,.63,.25,.92,.41,.3,.16,.55,.38,.75,.64,.2,.26,.3,.61,.3,1.04,0,.59-.23,1.09-.69,1.5s-1.12,.62-1.99,.62Z"/><path d="M109.39,382.92v-9.16h2.88c.68,0,1.29,.09,1.82,.27,.53,.18,.95,.47,1.26,.88,.31,.41,.46,.97,.46,1.68,0,.67-.15,1.23-.46,1.67s-.72,.77-1.25,.98-1.12,.32-1.78,.32h-1.32v3.36h-1.62Zm1.62-4.66h1.19c1.34,0,2.02-.55,2.02-1.67,0-.58-.17-.98-.53-1.2-.35-.22-.87-.33-1.55-.33h-1.13v3.19Z"/><path d="M118.1,382.92v-6.87h1.33l.11,1.22h.06c.24-.45,.54-.79,.88-1.03,.34-.24,.7-.36,1.06-.36,.33,0,.59,.05,.78,.14l-.28,1.4c-.12-.04-.23-.07-.34-.08s-.23-.03-.38-.03c-.27,0-.56,.11-.85,.32-.3,.21-.56,.58-.77,1.1v4.2h-1.61Z"/><path d="M126.82,383.09c-.63,0-1.21-.14-1.72-.43-.51-.29-.92-.7-1.22-1.23-.3-.54-.45-1.18-.45-1.94s.15-1.39,.46-1.93c.3-.54,.7-.96,1.18-1.25,.49-.29,.99-.43,1.53-.43,.62,0,1.15,.14,1.57,.41s.74,.66,.95,1.15c.21,.49,.32,1.06,.32,1.7,0,.34-.02,.6-.07,.78h-4.37c.08,.61,.29,1.08,.66,1.41s.82,.5,1.37,.5c.3,0,.58-.04,.83-.13s.51-.21,.76-.37l.55,1.01c-.33,.21-.69,.39-1.09,.53s-.82,.21-1.26,.21Zm-1.83-4.26h3.05c0-.53-.12-.95-.35-1.25s-.58-.46-1.05-.46c-.4,0-.76,.15-1.07,.44-.31,.29-.51,.72-.58,1.27Z"/><path d="M133.59,383.09c-.47,0-.93-.09-1.4-.27-.47-.18-.87-.41-1.2-.68l.76-1.04c.31,.23,.62,.42,.92,.56,.31,.14,.63,.21,.98,.21,.37,0,.65-.08,.83-.24,.18-.16,.27-.35,.27-.59,0-.2-.07-.36-.22-.48s-.33-.24-.55-.34c-.22-.1-.46-.19-.7-.29-.3-.11-.59-.25-.89-.41-.29-.16-.53-.37-.72-.63-.19-.26-.28-.58-.28-.96,0-.61,.22-1.1,.67-1.48,.45-.38,1.05-.57,1.82-.57,.49,0,.92,.08,1.3,.25,.38,.17,.71,.36,.99,.57l-.74,.98c-.24-.18-.49-.32-.74-.43s-.51-.16-.78-.16c-.34,0-.6,.07-.77,.22-.17,.15-.25,.33-.25,.54,0,.27,.14,.48,.42,.62,.28,.14,.61,.28,.98,.41,.32,.11,.63,.25,.92,.41,.3,.16,.55,.38,.75,.64,.2,.26,.3,.61,.3,1.04,0,.59-.23,1.09-.69,1.5s-1.12,.62-1.99,.62Z"/><path d="M141.35,383.09c-.63,0-1.21-.14-1.72-.43-.51-.29-.92-.7-1.22-1.23-.3-.54-.45-1.18-.45-1.94s.15-1.39,.46-1.93c.3-.54,.7-.96,1.18-1.25,.49-.29,.99-.43,1.53-.43,.62,0,1.15,.14,1.57,.41s.74,.66,.95,1.15c.21,.49,.32,1.06,.32,1.7,0,.34-.02,.6-.07,.78h-4.37c.08,.61,.29,1.08,.66,1.41s.82,.5,1.37,.5c.3,0,.58-.04,.83-.13s.51-.21,.76-.37l.55,1.01c-.33,.21-.69,.39-1.09,.53s-.82,.21-1.26,.21Zm-1.83-4.26h3.05c0-.53-.12-.95-.35-1.25s-.58-.46-1.05-.46c-.4,0-.76,.15-1.07,.44-.31,.29-.51,.72-.58,1.27Z"/><path d="M146.21,382.92v-6.87h1.33l.11,.92h.06c.31-.3,.64-.55,1.01-.77,.36-.21,.78-.32,1.25-.32,.74,0,1.27,.24,1.61,.71,.34,.48,.5,1.15,.5,2.02v4.31h-1.61v-4.1c0-.57-.08-.97-.25-1.2s-.44-.35-.83-.35c-.3,0-.56,.07-.79,.22-.23,.15-.49,.36-.78,.64v4.8h-1.61Z"/><path d="M157.17,383.09c-.79,0-1.36-.23-1.69-.69s-.5-1.06-.5-1.8v-3.28h-.98v-1.2l1.06-.07,.2-1.88h1.34v1.88h1.75v1.27h-1.75v3.28c0,.8,.32,1.2,.97,1.2,.12,0,.25-.02,.38-.05,.13-.03,.24-.07,.34-.11l.28,1.19c-.19,.07-.4,.12-.64,.17-.24,.05-.49,.08-.76,.08Z"/></g><g><path d="M267.95,263.09v-7.46h4.87v1.65h-2.89v1.42h2.48v1.65h-2.48v2.73h-1.97Z"/><path d="M275.55,263.22c-.36,0-.67-.08-.92-.25-.26-.16-.45-.38-.59-.65-.14-.27-.21-.56-.21-.87,0-.6,.25-1.07,.73-1.41,.49-.34,1.29-.57,2.39-.68-.05-.4-.31-.6-.8-.6-.21,0-.42,.04-.65,.12-.23,.08-.49,.2-.79,.36l-.69-1.29c.41-.25,.82-.43,1.23-.56s.85-.2,1.29-.2c.75,0,1.33,.21,1.76,.64,.42,.42,.63,1.11,.63,2.05v3.19h-1.61l-.14-.55h-.05c-.23,.21-.47,.37-.73,.5s-.54,.19-.85,.19Zm.69-1.51c.16,0,.29-.04,.4-.11,.11-.07,.21-.17,.31-.28v-.78c-.47,.07-.79,.17-.97,.31s-.27,.29-.27,.45c0,.28,.18,.41,.53,.41Z"/><path d="M283.37,263.22c-.54,0-1.03-.12-1.47-.36-.44-.24-.78-.58-1.04-1.03-.26-.45-.38-.99-.38-1.62s.14-1.18,.43-1.62c.29-.45,.66-.79,1.13-1.03s.97-.36,1.51-.36c.34,0,.66,.05,.93,.16s.53,.25,.74,.44l-.92,1.26c-.12-.11-.23-.18-.33-.22-.1-.04-.2-.06-.31-.06-.37,0-.65,.13-.86,.38-.21,.26-.31,.6-.31,1.04s.11,.78,.32,1.04c.21,.26,.47,.38,.78,.38,.16,0,.32-.04,.48-.11,.16-.07,.3-.16,.44-.26l.76,1.29c-.28,.25-.6,.43-.94,.52-.34,.1-.67,.14-.96,.14Z"/><path d="M289.02,263.22c-.74,0-1.28-.22-1.61-.65-.33-.43-.5-1-.5-1.69v-2h-.76v-1.47l.87-.07,.23-1.49h1.63v1.49h1.31v1.54h-1.31v1.96c0,.31,.07,.53,.21,.65,.14,.12,.3,.18,.48,.18,.09,0,.18,0,.27-.03,.09-.02,.17-.04,.24-.06l.3,1.42c-.15,.05-.33,.09-.55,.14s-.49,.07-.8,.07Z"/></g><g><path d="M271.68,286.84c-.29,0-.52-.08-.7-.25-.18-.17-.27-.39-.27-.67s.09-.49,.27-.66c.18-.17,.41-.25,.7-.25s.52,.08,.7,.25c.18,.17,.27,.39,.27,.66s-.09,.5-.27,.67c-.18,.17-.41,.25-.7,.25Zm-.81,8.08v-6.87h1.61v6.87h-1.61Z"/><path d="M275.24,294.92v-6.87h1.33l.11,.92h.06c.31-.3,.64-.55,1.01-.77,.36-.21,.78-.32,1.25-.32,.74,0,1.27,.24,1.61,.71,.34,.48,.5,1.15,.5,2.02v4.31h-1.61v-4.1c0-.57-.08-.97-.25-1.2s-.44-.35-.83-.35c-.3,0-.56,.07-.79,.22-.23,.15-.49,.36-.78,.64v4.8h-1.61Z"/><path d="M286.2,295.09c-.79,0-1.36-.23-1.69-.69s-.5-1.06-.5-1.8v-3.28h-.98v-1.2l1.06-.07,.2-1.88h1.34v1.88h1.75v1.27h-1.75v3.28c0,.8,.32,1.2,.97,1.2,.12,0,.25-.02,.38-.05,.13-.03,.24-.07,.34-.11l.28,1.19c-.19,.07-.4,.12-.64,.17-.24,.05-.49,.08-.76,.08Z"/></g><g><path d="M270.71,334.92v-9.18h2.73c.62,0,1.17,.07,1.64,.22,.47,.15,.84,.39,1.11,.71,.27,.33,.4,.76,.4,1.3,0,.46-.11,.87-.34,1.24-.23,.37-.56,.62-1,.76v.06c.55,.1,1,.34,1.35,.7,.35,.36,.52,.86,.52,1.5,0,.6-.15,1.1-.44,1.5-.29,.4-.7,.7-1.23,.9s-1.13,.29-1.82,.29h-2.93Zm1.16-5.28h1.36c.78,0,1.35-.13,1.69-.41,.35-.27,.52-.64,.52-1.11,0-.53-.18-.91-.54-1.13-.36-.22-.9-.34-1.62-.34h-1.41v2.98Zm0,4.35h1.6c.79,0,1.41-.15,1.85-.44,.44-.29,.66-.75,.66-1.37,0-.57-.22-.99-.65-1.25-.43-.27-1.05-.4-1.86-.4h-1.6v3.46Z"/><path d="M281.52,335.09c-.72,0-1.25-.23-1.58-.68-.34-.45-.5-1.11-.5-1.98v-4.31h1.16v4.16c0,.64,.1,1.1,.3,1.39,.2,.29,.53,.43,.97,.43,.35,0,.67-.09,.94-.27,.28-.18,.57-.47,.89-.88v-4.83h1.15v6.8h-.95l-.1-1.06h-.04c-.32,.37-.65,.67-1.01,.9s-.77,.34-1.23,.34Z"/><path d="M289.63,335.09c-.49,0-.95-.09-1.39-.27-.44-.18-.82-.4-1.15-.66l.57-.77c.3,.23,.61,.43,.92,.58s.68,.23,1.08,.23c.45,0,.78-.11,1.01-.32,.22-.21,.34-.46,.34-.75,0-.23-.08-.43-.23-.59s-.35-.29-.59-.4c-.24-.11-.48-.21-.74-.3-.32-.12-.63-.26-.94-.41-.31-.15-.56-.35-.76-.6-.2-.25-.29-.56-.29-.95,0-.55,.21-1.01,.62-1.38,.42-.37,.99-.55,1.73-.55,.42,0,.81,.07,1.18,.22s.68,.33,.94,.55l-.56,.73c-.23-.18-.48-.32-.73-.43-.25-.11-.53-.17-.83-.17-.43,0-.74,.1-.95,.29-.2,.2-.3,.42-.3,.69,0,.21,.07,.39,.21,.52,.14,.14,.32,.25,.55,.35,.22,.1,.46,.2,.71,.3,.33,.12,.65,.26,.97,.41s.58,.36,.79,.62c.21,.26,.32,.6,.32,1.03,0,.36-.1,.7-.29,1.01-.19,.31-.47,.55-.84,.74-.37,.19-.82,.28-1.37,.28Z"/><path d="M295,326.71c-.22,0-.41-.07-.55-.2-.14-.13-.22-.32-.22-.55s.07-.41,.22-.55c.14-.14,.33-.21,.55-.21s.41,.07,.55,.21c.14,.14,.22,.32,.22,.55s-.07,.42-.22,.55c-.14,.14-.33,.2-.55,.2Zm-.59,8.2v-6.8h1.15v6.8h-1.15Z"/><path d="M298.56,334.92v-6.8h.95l.1,.98h.04c.33-.33,.67-.6,1.04-.82,.36-.22,.78-.33,1.25-.33,.72,0,1.24,.23,1.57,.68,.33,.45,.5,1.11,.5,1.98v4.31h-1.15v-4.16c0-.63-.1-1.1-.31-1.39s-.53-.43-.98-.43c-.35,0-.66,.09-.93,.27s-.58,.44-.93,.78v4.93h-1.15Z"/><path d="M309.67,335.09c-.61,0-1.16-.14-1.65-.43-.5-.29-.89-.69-1.18-1.23-.29-.53-.43-1.17-.43-1.9s.15-1.39,.44-1.92c.29-.53,.67-.94,1.14-1.23s.96-.43,1.47-.43c.87,0,1.54,.29,2.01,.87,.47,.58,.71,1.35,.71,2.32,0,.12,0,.24,0,.36,0,.12-.02,.22-.04,.3h-4.59c.05,.72,.27,1.29,.68,1.72,.41,.43,.94,.64,1.59,.64,.33,0,.63-.05,.9-.15,.28-.1,.54-.23,.79-.38l.41,.76c-.29,.19-.62,.35-.99,.49-.37,.14-.79,.21-1.25,.21Zm-2.14-4.12h3.64c0-.69-.15-1.22-.44-1.58-.29-.36-.71-.54-1.24-.54-.48,0-.9,.18-1.28,.55-.38,.37-.6,.89-.68,1.56Z"/><path d="M316.34,335.09c-.49,0-.95-.09-1.39-.27-.44-.18-.82-.4-1.15-.66l.57-.77c.3,.23,.61,.43,.92,.58s.68,.23,1.08,.23c.45,0,.78-.11,1.01-.32,.22-.21,.34-.46,.34-.75,0-.23-.08-.43-.23-.59s-.35-.29-.59-.4c-.24-.11-.48-.21-.74-.3-.32-.12-.63-.26-.94-.41-.31-.15-.56-.35-.76-.6-.2-.25-.29-.56-.29-.95,0-.55,.21-1.01,.62-1.38,.42-.37,.99-.55,1.73-.55,.42,0,.81,.07,1.18,.22s.68,.33,.94,.55l-.56,.73c-.23-.18-.48-.32-.73-.43-.25-.11-.53-.17-.83-.17-.43,0-.74,.1-.95,.29-.2,.2-.3,.42-.3,.69,0,.21,.07,.39,.21,.52,.14,.14,.32,.25,.55,.35,.22,.1,.46,.2,.71,.3,.33,.12,.65,.26,.97,.41s.58,.36,.79,.62c.21,.26,.32,.6,.32,1.03,0,.36-.1,.7-.29,1.01-.19,.31-.47,.55-.84,.74-.37,.19-.82,.28-1.37,.28Z"/><path d="M322.9,335.09c-.49,0-.95-.09-1.39-.27-.44-.18-.82-.4-1.15-.66l.57-.77c.3,.23,.61,.43,.92,.58s.68,.23,1.08,.23c.45,0,.78-.11,1.01-.32,.22-.21,.34-.46,.34-.75,0-.23-.08-.43-.23-.59s-.35-.29-.59-.4c-.24-.11-.48-.21-.74-.3-.32-.12-.63-.26-.94-.41-.31-.15-.56-.35-.76-.6-.2-.25-.29-.56-.29-.95,0-.55,.21-1.01,.62-1.38,.42-.37,.99-.55,1.73-.55,.42,0,.81,.07,1.18,.22s.68,.33,.94,.55l-.56,.73c-.23-.18-.48-.32-.73-.43-.25-.11-.53-.17-.83-.17-.43,0-.74,.1-.95,.29-.2,.2-.3,.42-.3,.69,0,.21,.07,.39,.21,.52,.14,.14,.32,.25,.55,.35,.22,.1,.46,.2,.71,.3,.33,.12,.65,.26,.97,.41s.58,.36,.79,.62c.21,.26,.32,.6,.32,1.03,0,.36-.1,.7-.29,1.01-.19,.31-.47,.55-.84,.74-.37,.19-.82,.28-1.37,.28Z"/><path d="M331.19,334.92v-9.97h1.15v2.72l-.04,1.4c.33-.31,.67-.57,1.03-.79,.36-.22,.77-.33,1.24-.33,.72,0,1.24,.23,1.57,.68,.33,.45,.5,1.11,.5,1.98v4.31h-1.15v-4.16c0-.63-.1-1.1-.31-1.39s-.53-.43-.98-.43c-.35,0-.66,.09-.93,.27s-.58,.44-.93,.78v4.93h-1.15Z"/><path d="M342.15,335.09c-.55,0-1.07-.14-1.55-.42s-.87-.69-1.16-1.22c-.29-.53-.44-1.17-.44-1.92s.15-1.41,.44-1.95,.68-.94,1.16-1.22c.48-.28,1-.42,1.55-.42s1.08,.14,1.55,.42c.48,.28,.86,.69,1.16,1.22s.44,1.18,.44,1.95-.15,1.39-.44,1.92c-.29,.53-.68,.94-1.16,1.22-.48,.28-.99,.42-1.55,.42Zm0-.95c.59,0,1.06-.24,1.42-.72s.54-1.11,.54-1.88-.18-1.42-.54-1.9-.83-.73-1.42-.73-1.05,.24-1.41,.73-.55,1.12-.55,1.9,.18,1.4,.55,1.88,.83,.72,1.41,.72Z"/><path d="M349.78,335.09c-.72,0-1.25-.23-1.58-.68-.34-.45-.5-1.11-.5-1.98v-4.31h1.16v4.16c0,.64,.1,1.1,.3,1.39,.2,.29,.53,.43,.97,.43,.35,0,.67-.09,.94-.27,.28-.18,.57-.47,.89-.88v-4.83h1.15v6.8h-.95l-.1-1.06h-.04c-.32,.37-.65,.67-1.01,.9s-.77,.34-1.23,.34Z"/><path d="M356.11,334.92v-6.8h.95l.1,1.23h.04c.23-.43,.52-.77,.85-1.02s.7-.38,1.08-.38c.27,0,.51,.05,.73,.14l-.22,1.01c-.11-.04-.21-.07-.31-.08-.09-.02-.21-.03-.35-.03-.29,0-.59,.12-.9,.35-.31,.23-.59,.64-.82,1.22v4.37h-1.15Z"/><path d="M363.39,335.09c-.49,0-.95-.09-1.39-.27-.44-.18-.82-.4-1.15-.66l.57-.77c.3,.23,.61,.43,.92,.58s.68,.23,1.08,.23c.45,0,.78-.11,1.01-.32,.22-.21,.34-.46,.34-.75,0-.23-.08-.43-.23-.59s-.35-.29-.59-.4c-.24-.11-.48-.21-.74-.3-.32-.12-.63-.26-.94-.41-.31-.15-.56-.35-.76-.6-.2-.25-.29-.56-.29-.95,0-.55,.21-1.01,.62-1.38,.42-.37,.99-.55,1.73-.55,.42,0,.81,.07,1.18,.22s.68,.33,.94,.55l-.56,.73c-.23-.18-.48-.32-.73-.43-.25-.11-.53-.17-.83-.17-.43,0-.74,.1-.95,.29-.2,.2-.3,.42-.3,.69,0,.21,.07,.39,.21,.52,.14,.14,.32,.25,.55,.35,.22,.1,.46,.2,.71,.3,.33,.12,.65,.26,.97,.41s.58,.36,.79,.62c.21,.26,.32,.6,.32,1.03,0,.36-.1,.7-.29,1.01-.19,.31-.47,.55-.84,.74-.37,.19-.82,.28-1.37,.28Z"/><path d="M372.46,326.95c-.34,0-.62-.1-.84-.29-.21-.2-.32-.46-.32-.78s.11-.59,.32-.78,.5-.29,.84-.29,.63,.1,.84,.29c.21,.2,.32,.46,.32,.78s-.11,.59-.32,.78c-.21,.2-.5,.29-.84,.29Zm-1.02,7.97v-6.94h2.06v6.94h-2.06Z"/><path d="M376.01,334.92v-6.94h1.68l.14,.88h.06c.3-.28,.63-.53,.99-.74,.36-.21,.77-.32,1.24-.32,.76,0,1.3,.25,1.65,.75,.34,.5,.51,1.18,.51,2.05v4.31h-2.06v-4.05c0-.5-.07-.85-.2-1.04-.14-.19-.35-.28-.65-.28-.26,0-.49,.06-.67,.18-.19,.12-.39,.28-.62,.5v4.69h-2.06Z"/><path d="M387.39,335.09c-.86,0-1.47-.25-1.84-.74-.37-.49-.55-1.14-.55-1.95v-2.81h-.95v-1.53l1.06-.08,.24-1.85h1.71v1.85h1.67v1.61h-1.67v2.79c0,.39,.08,.67,.25,.85s.38,.26,.65,.26c.11,0,.23-.01,.34-.04,.12-.03,.22-.06,.31-.1l.32,1.5c-.18,.06-.39,.11-.65,.17s-.55,.08-.89,.08Z"/><path d="M393.77,335.09c-.61,0-1.16-.14-1.65-.43-.5-.29-.89-.69-1.18-1.23-.29-.53-.43-1.17-.43-1.9s.15-1.39,.44-1.92c.29-.53,.67-.94,1.14-1.23s.96-.43,1.47-.43c.87,0,1.54,.29,2.01,.87,.47,.58,.71,1.35,.71,2.32,0,.12,0,.24,0,.36,0,.12-.02,.22-.04,.3h-4.59c.05,.72,.27,1.29,.68,1.72,.41,.43,.94,.64,1.59,.64,.33,0,.63-.05,.9-.15,.28-.1,.54-.23,.79-.38l.41,.76c-.29,.19-.62,.35-.99,.49-.37,.14-.79,.21-1.25,.21Zm-2.14-4.12h3.64c0-.69-.15-1.22-.44-1.58-.29-.36-.71-.54-1.24-.54-.48,0-.9,.18-1.28,.55-.38,.37-.6,.89-.68,1.56Z"/><path d="M398.66,334.92v-6.8h.95l.1,1.23h.04c.23-.43,.52-.77,.85-1.02s.7-.38,1.08-.38c.27,0,.51,.05,.73,.14l-.22,1.01c-.11-.04-.21-.07-.31-.08-.09-.02-.21-.03-.35-.03-.29,0-.59,.12-.9,.35-.31,.23-.59,.64-.82,1.22v4.37h-1.15Z"/><path d="M404.21,334.92v-6.8h.95l.1,1.23h.04c.23-.43,.52-.77,.85-1.02s.7-.38,1.08-.38c.27,0,.51,.05,.73,.14l-.22,1.01c-.11-.04-.21-.07-.31-.08-.09-.02-.21-.03-.35-.03-.29,0-.59,.12-.9,.35-.31,.23-.59,.64-.82,1.22v4.37h-1.15Z"/><path d="M411.76,335.09c-.72,0-1.25-.23-1.58-.68-.34-.45-.5-1.11-.5-1.98v-4.31h1.16v4.16c0,.64,.1,1.1,.3,1.39,.2,.29,.53,.43,.97,.43,.35,0,.67-.09,.94-.27,.28-.18,.57-.47,.89-.88v-4.83h1.15v6.8h-.95l-.1-1.06h-.04c-.32,.37-.65,.67-1.01,.9s-.77,.34-1.23,.34Z"/><path d="M418.09,337.79v-9.67h.95l.1,.78h.04c.31-.26,.65-.49,1.01-.67,.37-.19,.75-.28,1.16-.28,.88,0,1.54,.31,2,.94s.69,1.47,.69,2.53c0,.77-.14,1.42-.41,1.97-.28,.55-.63,.97-1.08,1.26-.44,.29-.93,.43-1.45,.43-.32,0-.63-.07-.95-.21s-.63-.33-.95-.57l.03,1.19v2.3h-1.15Zm2.81-3.67c.56,0,1.02-.24,1.39-.72,.37-.48,.55-1.14,.55-1.98,0-.75-.14-1.35-.41-1.81-.28-.46-.74-.69-1.38-.69-.29,0-.58,.08-.88,.24-.29,.16-.61,.39-.95,.69v3.57c.31,.26,.61,.45,.9,.55,.29,.11,.55,.16,.77,.16Z"/><path d="M428.46,335.09c-.73,0-1.23-.21-1.52-.63-.29-.42-.43-.97-.43-1.64v-3.77h-1.01v-.87l1.06-.07,.14-1.9h.97v1.9h1.83v.94h-1.83v3.78c0,.42,.08,.74,.23,.97,.15,.23,.43,.34,.82,.34,.12,0,.25-.02,.39-.06,.14-.04,.27-.08,.38-.12l.22,.87c-.19,.07-.39,.12-.61,.17-.22,.05-.44,.08-.65,.08Z"/><path d="M432.34,326.71c-.22,0-.41-.07-.55-.2-.14-.13-.22-.32-.22-.55s.07-.41,.22-.55c.14-.14,.33-.21,.55-.21s.41,.07,.55,.21c.14,.14,.22,.32,.22,.55s-.07,.42-.22,.55c-.14,.14-.33,.2-.55,.2Zm-.59,8.2v-6.8h1.15v6.8h-1.15Z"/><path d="M438.54,335.09c-.55,0-1.07-.14-1.55-.42s-.87-.69-1.16-1.22c-.29-.53-.44-1.17-.44-1.92s.15-1.41,.44-1.95,.68-.94,1.16-1.22c.48-.28,1-.42,1.55-.42s1.08,.14,1.55,.42c.48,.28,.86,.69,1.16,1.22s.44,1.18,.44,1.95-.15,1.39-.44,1.92c-.29,.53-.68,.94-1.16,1.22-.48,.28-.99,.42-1.55,.42Zm0-.95c.59,0,1.06-.24,1.42-.72s.54-1.11,.54-1.88-.18-1.42-.54-1.9-.83-.73-1.42-.73-1.05,.24-1.41,.73-.55,1.12-.55,1.9,.18,1.4,.55,1.88,.83,.72,1.41,.72Z"/><path d="M444.18,334.92v-6.8h.95l.1,.98h.04c.33-.33,.67-.6,1.04-.82,.36-.22,.78-.33,1.25-.33,.72,0,1.24,.23,1.57,.68,.33,.45,.5,1.11,.5,1.98v4.31h-1.15v-4.16c0-.63-.1-1.1-.31-1.39s-.53-.43-.98-.43c-.35,0-.66,.09-.93,.27s-.58,.44-.93,.78v4.93h-1.15Z"/><path d="M454.32,335.09c-.49,0-.95-.09-1.39-.27-.44-.18-.82-.4-1.15-.66l.57-.77c.3,.23,.61,.43,.92,.58s.68,.23,1.08,.23c.45,0,.78-.11,1.01-.32,.22-.21,.34-.46,.34-.75,0-.23-.08-.43-.23-.59s-.35-.29-.59-.4c-.24-.11-.48-.21-.74-.3-.32-.12-.63-.26-.94-.41-.31-.15-.56-.35-.76-.6-.2-.25-.29-.56-.29-.95,0-.55,.21-1.01,.62-1.38,.42-.37,.99-.55,1.73-.55,.42,0,.81,.07,1.18,.22s.68,.33,.94,.55l-.56,.73c-.23-.18-.48-.32-.73-.43-.25-.11-.53-.17-.83-.17-.43,0-.74,.1-.95,.29-.2,.2-.3,.42-.3,.69,0,.21,.07,.39,.21,.52,.14,.14,.32,.25,.55,.35,.22,.1,.46,.2,.71,.3,.33,.12,.65,.26,.97,.41s.58,.36,.79,.62c.21,.26,.32,.6,.32,1.03,0,.36-.1,.7-.29,1.01-.19,.31-.47,.55-.84,.74-.37,.19-.82,.28-1.37,.28Z"/></g><g><path d="M274.63,363.17c-.77,0-1.45-.2-2.04-.59-.59-.39-1.05-.95-1.39-1.67-.33-.72-.5-1.57-.5-2.55s.17-1.82,.5-2.53c.33-.7,.79-1.25,1.39-1.62,.59-.38,1.27-.57,2.04-.57s1.46,.19,2.04,.57c.59,.38,1.05,.92,1.39,1.62,.34,.71,.5,1.55,.5,2.53s-.17,1.83-.5,2.55-.8,1.27-1.39,1.67c-.59,.39-1.27,.59-2.04,.59Zm0-1.02c.55,0,1.03-.16,1.43-.47,.41-.31,.72-.75,.95-1.32,.22-.56,.34-1.23,.34-2,0-1.14-.25-2.04-.74-2.7-.5-.66-1.15-.99-1.97-.99s-1.48,.33-1.97,.99-.74,1.56-.74,2.7c0,.77,.11,1.43,.34,2,.22,.56,.54,1,.95,1.32,.41,.31,.89,.47,1.43,.47Z"/><path d="M285.32,363v-5.87h-2.84v5.87h-1.15v-5.87h-.92v-.87l.92-.07v-.9c0-.71,.17-1.27,.53-1.68,.35-.41,.88-.62,1.59-.62,.47,0,.88,.08,1.25,.25l-.24,.87c-.28-.12-.58-.18-.91-.18s-.6,.12-.78,.36c-.19,.24-.28,.58-.28,1.03v.87h2.84v-1.08c0-.69,.16-1.24,.48-1.65,.32-.41,.82-.61,1.5-.61,.21,0,.42,.02,.62,.06,.2,.04,.37,.1,.52,.16l-.25,.88c-.25-.11-.51-.17-.77-.17-.63,0-.95,.44-.95,1.32v1.08h1.44v.94h-1.44v5.87h-1.15Z"/><path d="M293.41,363v-9.97h1.15v2.72l-.04,1.4c.33-.31,.67-.57,1.03-.79,.36-.22,.77-.33,1.24-.33,.72,0,1.24,.23,1.57,.68,.33,.45,.5,1.11,.5,1.98v4.31h-1.15v-4.16c0-.63-.1-1.1-.31-1.39s-.53-.43-.98-.43c-.35,0-.66,.09-.93,.27s-.58,.44-.93,.78v4.93h-1.15Z"/><path d="M304.37,363.17c-.55,0-1.07-.14-1.55-.42s-.87-.69-1.16-1.22c-.29-.53-.44-1.17-.44-1.92s.15-1.41,.44-1.95,.68-.94,1.16-1.22c.48-.28,1-.42,1.55-.42s1.08,.14,1.55,.42c.48,.28,.86,.69,1.16,1.22s.44,1.18,.44,1.95-.15,1.39-.44,1.92c-.29,.53-.68,.94-1.16,1.22-.48,.28-.99,.42-1.55,.42Zm0-.95c.59,0,1.06-.24,1.42-.72s.54-1.11,.54-1.88-.18-1.42-.54-1.9-.83-.73-1.42-.73-1.05,.24-1.41,.73-.55,1.12-.55,1.9,.18,1.4,.55,1.88,.83,.72,1.41,.72Z"/><path d="M312,363.17c-.72,0-1.25-.23-1.58-.68-.34-.45-.5-1.11-.5-1.98v-4.31h1.16v4.16c0,.64,.1,1.1,.3,1.39,.2,.29,.53,.43,.97,.43,.35,0,.67-.09,.94-.27,.28-.18,.57-.47,.89-.88v-4.83h1.15v6.8h-.95l-.1-1.06h-.04c-.32,.37-.65,.67-1.01,.9s-.77,.34-1.23,.34Z"/><path d="M318.33,363v-6.8h.95l.1,1.23h.04c.23-.43,.52-.77,.85-1.02s.7-.38,1.08-.38c.27,0,.51,.05,.73,.14l-.22,1.01c-.11-.04-.21-.07-.31-.08-.09-.02-.21-.03-.35-.03-.29,0-.59,.12-.9,.35-.31,.23-.59,.64-.82,1.22v4.37h-1.15Z"/><path d="M328.17,355.03c-.34,0-.62-.1-.84-.29-.21-.2-.32-.46-.32-.78s.11-.59,.32-.78,.5-.29,.84-.29,.63,.1,.84,.29c.21,.2,.32,.46,.32,.78s-.11,.59-.32,.78c-.21,.2-.5,.29-.84,.29Zm-1.02,7.97v-6.94h2.06v6.94h-2.06Z"/><path d="M331.71,363v-6.94h1.68l.14,.88h.06c.3-.28,.63-.53,.99-.74,.36-.21,.77-.32,1.24-.32,.76,0,1.3,.25,1.65,.75,.34,.5,.51,1.18,.51,2.05v4.31h-2.06v-4.05c0-.5-.07-.85-.2-1.04-.14-.19-.35-.28-.65-.28-.26,0-.49,.06-.67,.18-.19,.12-.39,.28-.62,.5v4.69h-2.06Z"/><path d="M343.09,363.17c-.86,0-1.47-.25-1.84-.74-.37-.49-.55-1.14-.55-1.95v-2.81h-.95v-1.53l1.06-.08,.24-1.85h1.71v1.85h1.67v1.61h-1.67v2.79c0,.39,.08,.67,.25,.85s.38,.26,.65,.26c.11,0,.23-.01,.34-.04,.12-.03,.22-.06,.31-.1l.32,1.5c-.18,.06-.39,.11-.65,.17s-.55,.08-.89,.08Z"/><path d="M349.48,363.17c-.61,0-1.16-.14-1.65-.43-.5-.29-.89-.69-1.18-1.23-.29-.53-.43-1.17-.43-1.9s.15-1.39,.44-1.92c.29-.53,.67-.94,1.14-1.23s.96-.43,1.47-.43c.87,0,1.54,.29,2.01,.87,.47,.58,.71,1.35,.71,2.32,0,.12,0,.24,0,.36,0,.12-.02,.22-.04,.3h-4.59c.05,.72,.27,1.29,.68,1.72,.41,.43,.94,.64,1.59,.64,.33,0,.63-.05,.9-.15,.28-.1,.54-.23,.79-.38l.41,.76c-.29,.19-.62,.35-.99,.49-.37,.14-.79,.21-1.25,.21Zm-2.14-4.12h3.64c0-.69-.15-1.22-.44-1.58-.29-.36-.71-.54-1.24-.54-.48,0-.9,.18-1.28,.55-.38,.37-.6,.89-.68,1.56Z"/><path d="M354.36,363v-6.8h.95l.1,1.23h.04c.23-.43,.52-.77,.85-1.02s.7-.38,1.08-.38c.27,0,.51,.05,.73,.14l-.22,1.01c-.11-.04-.21-.07-.31-.08-.09-.02-.21-.03-.35-.03-.29,0-.59,.12-.9,.35-.31,.23-.59,.64-.82,1.22v4.37h-1.15Z"/><path d="M359.92,363v-6.8h.95l.1,1.23h.04c.23-.43,.52-.77,.85-1.02s.7-.38,1.08-.38c.27,0,.51,.05,.73,.14l-.22,1.01c-.11-.04-.21-.07-.31-.08-.09-.02-.21-.03-.35-.03-.29,0-.59,.12-.9,.35-.31,.23-.59,.64-.82,1.22v4.37h-1.15Z"/><path d="M367.46,363.17c-.72,0-1.25-.23-1.58-.68-.34-.45-.5-1.11-.5-1.98v-4.31h1.16v4.16c0,.64,.1,1.1,.3,1.39,.2,.29,.53,.43,.97,.43,.35,0,.67-.09,.94-.27,.28-.18,.57-.47,.89-.88v-4.83h1.15v6.8h-.95l-.1-1.06h-.04c-.32,.37-.65,.67-1.01,.9s-.77,.34-1.23,.34Z"/><path d="M373.79,365.87v-9.67h.95l.1,.78h.04c.31-.26,.65-.49,1.01-.67,.37-.19,.75-.28,1.16-.28,.88,0,1.54,.31,2,.94s.69,1.47,.69,2.53c0,.77-.14,1.42-.41,1.97-.28,.55-.63,.97-1.08,1.26-.44,.29-.93,.43-1.45,.43-.32,0-.63-.07-.95-.21s-.63-.33-.95-.57l.03,1.19v2.3h-1.15Zm2.81-3.67c.56,0,1.02-.24,1.39-.72,.37-.48,.55-1.14,.55-1.98,0-.75-.14-1.35-.41-1.81-.28-.46-.74-.69-1.38-.69-.29,0-.58,.08-.88,.24-.29,.16-.61,.39-.95,.69v3.57c.31,.26,.61,.45,.9,.55,.29,.11,.55,.16,.77,.16Z"/><path d="M384.17,363.17c-.73,0-1.23-.21-1.52-.63-.29-.42-.43-.97-.43-1.64v-3.77h-1.01v-.87l1.06-.07,.14-1.9h.97v1.9h1.83v.94h-1.83v3.78c0,.42,.08,.74,.23,.97,.15,.23,.43,.34,.82,.34,.12,0,.25-.02,.39-.06,.14-.04,.27-.08,.38-.12l.22,.87c-.19,.07-.39,.12-.61,.17-.22,.05-.44,.08-.65,.08Z"/><path d="M388.05,354.79c-.22,0-.41-.07-.55-.2-.14-.13-.22-.32-.22-.55s.07-.41,.22-.55c.14-.14,.33-.21,.55-.21s.41,.07,.55,.21c.14,.14,.22,.32,.22,.55s-.07,.42-.22,.55c-.14,.14-.33,.2-.55,.2Zm-.59,8.2v-6.8h1.15v6.8h-1.15Z"/><path d="M394.25,363.17c-.55,0-1.07-.14-1.55-.42s-.87-.69-1.16-1.22c-.29-.53-.44-1.17-.44-1.92s.15-1.41,.44-1.95,.68-.94,1.16-1.22c.48-.28,1-.42,1.55-.42s1.08,.14,1.55,.42c.48,.28,.86,.69,1.16,1.22s.44,1.18,.44,1.95-.15,1.39-.44,1.92c-.29,.53-.68,.94-1.16,1.22-.48,.28-.99,.42-1.55,.42Zm0-.95c.59,0,1.06-.24,1.42-.72s.54-1.11,.54-1.88-.18-1.42-.54-1.9-.83-.73-1.42-.73-1.05,.24-1.41,.73-.55,1.12-.55,1.9,.18,1.4,.55,1.88,.83,.72,1.41,.72Z"/><path d="M399.89,363v-6.8h.95l.1,.98h.04c.33-.33,.67-.6,1.04-.82,.36-.22,.78-.33,1.25-.33,.72,0,1.24,.23,1.57,.68,.33,.45,.5,1.11,.5,1.98v4.31h-1.15v-4.16c0-.63-.1-1.1-.31-1.39s-.53-.43-.98-.43c-.35,0-.66,.09-.93,.27s-.58,.44-.93,.78v4.93h-1.15Z"/><path d="M410.02,363.17c-.49,0-.95-.09-1.39-.27-.44-.18-.82-.4-1.15-.66l.57-.77c.3,.23,.61,.43,.92,.58s.68,.23,1.08,.23c.45,0,.78-.11,1.01-.32,.22-.21,.34-.46,.34-.75,0-.23-.08-.43-.23-.59s-.35-.29-.59-.4c-.24-.11-.48-.21-.74-.3-.32-.12-.63-.26-.94-.41-.31-.15-.56-.35-.76-.6-.2-.25-.29-.56-.29-.95,0-.55,.21-1.01,.62-1.38,.42-.37,.99-.55,1.73-.55,.42,0,.81,.07,1.18,.22s.68,.33,.94,.55l-.56,.73c-.23-.18-.48-.32-.73-.43-.25-.11-.53-.17-.83-.17-.43,0-.74,.1-.95,.29-.2,.2-.3,.42-.3,.69,0,.21,.07,.39,.21,.52,.14,.14,.32,.25,.55,.35,.22,.1,.46,.2,.71,.3,.33,.12,.65,.26,.97,.41s.58,.36,.79,.62c.21,.26,.32,.6,.32,1.03,0,.36-.1,.7-.29,1.01-.19,.31-.47,.55-.84,.74-.37,.19-.82,.28-1.37,.28Z"/></g><g><path d="M273.93,391.09c-.64,0-1.24-.12-1.79-.37s-1.03-.58-1.43-.99l.7-.81c.33,.35,.71,.62,1.16,.83,.44,.21,.9,.32,1.38,.32,.61,0,1.08-.14,1.41-.41s.5-.64,.5-1.08c0-.32-.07-.57-.2-.76-.14-.19-.32-.34-.55-.48-.23-.13-.49-.26-.78-.39l-1.32-.57c-.29-.12-.58-.28-.86-.48-.29-.2-.52-.45-.71-.76-.19-.31-.29-.69-.29-1.13s.12-.88,.37-1.25c.25-.37,.59-.66,1.03-.87,.44-.21,.93-.31,1.48-.31s1.06,.1,1.53,.31c.47,.21,.86,.48,1.19,.82l-.63,.76c-.28-.27-.59-.48-.93-.64-.34-.15-.73-.23-1.16-.23-.51,0-.93,.12-1.24,.36-.31,.24-.47,.57-.47,.98,0,.29,.08,.53,.23,.72,.15,.19,.35,.35,.58,.47,.23,.12,.47,.23,.71,.34l1.3,.56c.35,.15,.67,.33,.96,.54,.28,.21,.51,.47,.68,.77s.25,.68,.25,1.14c0,.49-.13,.93-.38,1.32s-.61,.71-1.08,.95c-.47,.23-1.02,.35-1.67,.35Z"/><path d="M280.67,391.09c-.43,0-.74-.13-.93-.4-.19-.27-.29-.65-.29-1.14v-8.6h1.15v8.68c0,.18,.03,.31,.1,.38,.07,.08,.14,.12,.22,.12,.04,0,.07,0,.1,0,.03,0,.08-.01,.15-.02l.15,.87c-.08,.04-.16,.07-.27,.08s-.23,.03-.39,.03Z"/><path d="M286.48,391.09c-.61,0-1.16-.14-1.65-.43-.5-.29-.89-.69-1.18-1.23-.29-.53-.43-1.17-.43-1.9s.15-1.39,.44-1.92c.29-.53,.67-.94,1.14-1.23s.96-.43,1.47-.43c.87,0,1.54,.29,2.01,.87,.47,.58,.71,1.35,.71,2.32,0,.12,0,.24,0,.36,0,.12-.02,.22-.04,.3h-4.59c.05,.72,.27,1.29,.68,1.72,.41,.43,.94,.64,1.59,.64,.33,0,.63-.05,.9-.15,.28-.1,.54-.23,.79-.38l.41,.76c-.29,.19-.62,.35-.99,.49-.37,.14-.79,.21-1.25,.21Zm-2.14-4.12h3.64c0-.69-.15-1.22-.44-1.58-.29-.36-.71-.54-1.24-.54-.48,0-.9,.18-1.28,.55-.38,.37-.6,.89-.68,1.56Z"/><path d="M294.12,391.09c-.61,0-1.16-.14-1.65-.43-.5-.29-.89-.69-1.18-1.23-.29-.53-.43-1.17-.43-1.9s.15-1.39,.44-1.92c.29-.53,.67-.94,1.14-1.23s.96-.43,1.47-.43c.87,0,1.54,.29,2.01,.87,.47,.58,.71,1.35,.71,2.32,0,.12,0,.24,0,.36,0,.12-.02,.22-.04,.3h-4.59c.05,.72,.27,1.29,.68,1.72,.41,.43,.94,.64,1.59,.64,.33,0,.63-.05,.9-.15,.28-.1,.54-.23,.79-.38l.41,.76c-.29,.19-.62,.35-.99,.49-.37,.14-.79,.21-1.25,.21Zm-2.14-4.12h3.64c0-.69-.15-1.22-.44-1.58-.29-.36-.71-.54-1.24-.54-.48,0-.9,.18-1.28,.55-.38,.37-.6,.89-.68,1.56Z"/><path d="M299.01,393.79v-9.67h.95l.1,.78h.04c.31-.26,.65-.49,1.01-.67,.37-.19,.75-.28,1.16-.28,.88,0,1.54,.31,2,.94s.69,1.47,.69,2.53c0,.77-.14,1.42-.41,1.97-.28,.55-.63,.97-1.08,1.26-.44,.29-.93,.43-1.45,.43-.32,0-.63-.07-.95-.21s-.63-.33-.95-.57l.03,1.19v2.3h-1.15Zm2.81-3.67c.56,0,1.02-.24,1.39-.72,.37-.48,.55-1.14,.55-1.98,0-.75-.14-1.35-.41-1.81-.28-.46-.74-.69-1.38-.69-.29,0-.58,.08-.88,.24-.29,.16-.61,.39-.95,.69v3.57c.31,.26,.61,.45,.9,.55,.29,.11,.55,.16,.77,.16Z"/><path d="M310.98,390.92v-9.97h1.15v2.72l-.04,1.4c.33-.31,.67-.57,1.03-.79,.36-.22,.77-.33,1.24-.33,.72,0,1.24,.23,1.57,.68,.33,.45,.5,1.11,.5,1.98v4.31h-1.15v-4.16c0-.63-.1-1.1-.31-1.39s-.53-.43-.98-.43c-.35,0-.66,.09-.93,.27s-.58,.44-.93,.78v4.93h-1.15Z"/><path d="M321.94,391.09c-.55,0-1.07-.14-1.55-.42s-.87-.69-1.16-1.22c-.29-.53-.44-1.17-.44-1.92s.15-1.41,.44-1.95,.68-.94,1.16-1.22c.48-.28,1-.42,1.55-.42s1.08,.14,1.55,.42c.48,.28,.86,.69,1.16,1.22s.44,1.18,.44,1.95-.15,1.39-.44,1.92c-.29,.53-.68,.94-1.16,1.22-.48,.28-.99,.42-1.55,.42Zm0-.95c.59,0,1.06-.24,1.42-.72s.54-1.11,.54-1.88-.18-1.42-.54-1.9-.83-.73-1.42-.73-1.05,.24-1.41,.73-.55,1.12-.55,1.9,.18,1.4,.55,1.88,.83,.72,1.41,.72Z"/><path d="M329.57,391.09c-.72,0-1.25-.23-1.58-.68-.34-.45-.5-1.11-.5-1.98v-4.31h1.16v4.16c0,.64,.1,1.1,.3,1.39,.2,.29,.53,.43,.97,.43,.35,0,.67-.09,.94-.27,.28-.18,.57-.47,.89-.88v-4.83h1.15v6.8h-.95l-.1-1.06h-.04c-.32,.37-.65,.67-1.01,.9s-.77,.34-1.23,.34Z"/><path d="M335.9,390.92v-6.8h.95l.1,1.23h.04c.23-.43,.52-.77,.85-1.02s.7-.38,1.08-.38c.27,0,.51,.05,.73,.14l-.22,1.01c-.11-.04-.21-.07-.31-.08-.09-.02-.21-.03-.35-.03-.29,0-.59,.12-.9,.35-.31,.23-.59,.64-.82,1.22v4.37h-1.15Z"/><path d="M345.74,382.95c-.34,0-.62-.1-.84-.29-.21-.2-.32-.46-.32-.78s.11-.59,.32-.78,.5-.29,.84-.29,.63,.1,.84,.29c.21,.2,.32,.46,.32,.78s-.11,.59-.32,.78c-.21,.2-.5,.29-.84,.29Zm-1.02,7.97v-6.94h2.06v6.94h-2.06Z"/><path d="M349.28,390.92v-6.94h1.68l.14,.88h.06c.3-.28,.63-.53,.99-.74,.36-.21,.77-.32,1.24-.32,.76,0,1.3,.25,1.65,.75,.34,.5,.51,1.18,.51,2.05v4.31h-2.06v-4.05c0-.5-.07-.85-.2-1.04-.14-.19-.35-.28-.65-.28-.26,0-.49,.06-.67,.18-.19,.12-.39,.28-.62,.5v4.69h-2.06Z"/><path d="M360.66,391.09c-.86,0-1.47-.25-1.84-.74-.37-.49-.55-1.14-.55-1.95v-2.81h-.95v-1.53l1.06-.08,.24-1.85h1.71v1.85h1.67v1.61h-1.67v2.79c0,.39,.08,.67,.25,.85s.38,.26,.65,.26c.11,0,.23-.01,.34-.04,.12-.03,.22-.06,.31-.1l.32,1.5c-.18,.06-.39,.11-.65,.17s-.55,.08-.89,.08Z"/><path d="M367.05,391.09c-.61,0-1.16-.14-1.65-.43-.5-.29-.89-.69-1.18-1.23-.29-.53-.43-1.17-.43-1.9s.15-1.39,.44-1.92c.29-.53,.67-.94,1.14-1.23s.96-.43,1.47-.43c.87,0,1.54,.29,2.01,.87,.47,.58,.71,1.35,.71,2.32,0,.12,0,.24,0,.36,0,.12-.02,.22-.04,.3h-4.59c.05,.72,.27,1.29,.68,1.72,.41,.43,.94,.64,1.59,.64,.33,0,.63-.05,.9-.15,.28-.1,.54-.23,.79-.38l.41,.76c-.29,.19-.62,.35-.99,.49-.37,.14-.79,.21-1.25,.21Zm-2.14-4.12h3.64c0-.69-.15-1.22-.44-1.58-.29-.36-.71-.54-1.24-.54-.48,0-.9,.18-1.28,.55-.38,.37-.6,.89-.68,1.56Z"/><path d="M371.93,390.92v-6.8h.95l.1,1.23h.04c.23-.43,.52-.77,.85-1.02s.7-.38,1.08-.38c.27,0,.51,.05,.73,.14l-.22,1.01c-.11-.04-.21-.07-.31-.08-.09-.02-.21-.03-.35-.03-.29,0-.59,.12-.9,.35-.31,.23-.59,.64-.82,1.22v4.37h-1.15Z"/><path d="M377.49,390.92v-6.8h.95l.1,1.23h.04c.23-.43,.52-.77,.85-1.02s.7-.38,1.08-.38c.27,0,.51,.05,.73,.14l-.22,1.01c-.11-.04-.21-.07-.31-.08-.09-.02-.21-.03-.35-.03-.29,0-.59,.12-.9,.35-.31,.23-.59,.64-.82,1.22v4.37h-1.15Z"/><path d="M385.03,391.09c-.72,0-1.25-.23-1.58-.68-.34-.45-.5-1.11-.5-1.98v-4.31h1.16v4.16c0,.64,.1,1.1,.3,1.39,.2,.29,.53,.43,.97,.43,.35,0,.67-.09,.94-.27,.28-.18,.57-.47,.89-.88v-4.83h1.15v6.8h-.95l-.1-1.06h-.04c-.32,.37-.65,.67-1.01,.9s-.77,.34-1.23,.34Z"/><path d="M391.36,393.79v-9.67h.95l.1,.78h.04c.31-.26,.65-.49,1.01-.67,.37-.19,.75-.28,1.16-.28,.88,0,1.54,.31,2,.94s.69,1.47,.69,2.53c0,.77-.14,1.42-.41,1.97-.28,.55-.63,.97-1.08,1.26-.44,.29-.93,.43-1.45,.43-.32,0-.63-.07-.95-.21s-.63-.33-.95-.57l.03,1.19v2.3h-1.15Zm2.81-3.67c.56,0,1.02-.24,1.39-.72,.37-.48,.55-1.14,.55-1.98,0-.75-.14-1.35-.41-1.81-.28-.46-.74-.69-1.38-.69-.29,0-.58,.08-.88,.24-.29,.16-.61,.39-.95,.69v3.57c.31,.26,.61,.45,.9,.55,.29,.11,.55,.16,.77,.16Z"/><path d="M401.74,391.09c-.73,0-1.23-.21-1.52-.63-.29-.42-.43-.97-.43-1.64v-3.77h-1.01v-.87l1.06-.07,.14-1.9h.97v1.9h1.83v.94h-1.83v3.78c0,.42,.08,.74,.23,.97,.15,.23,.43,.34,.82,.34,.12,0,.25-.02,.39-.06,.14-.04,.27-.08,.38-.12l.22,.87c-.19,.07-.39,.12-.61,.17-.22,.05-.44,.08-.65,.08Z"/><path d="M405.62,382.71c-.22,0-.41-.07-.55-.2-.14-.13-.22-.32-.22-.55s.07-.41,.22-.55c.14-.14,.33-.21,.55-.21s.41,.07,.55,.21c.14,.14,.22,.32,.22,.55s-.07,.42-.22,.55c-.14,.14-.33,.2-.55,.2Zm-.59,8.2v-6.8h1.15v6.8h-1.15Z"/><path d="M411.82,391.09c-.55,0-1.07-.14-1.55-.42s-.87-.69-1.16-1.22c-.29-.53-.44-1.17-.44-1.92s.15-1.41,.44-1.95,.68-.94,1.16-1.22c.48-.28,1-.42,1.55-.42s1.08,.14,1.55,.42c.48,.28,.86,.69,1.16,1.22s.44,1.18,.44,1.95-.15,1.39-.44,1.92c-.29,.53-.68,.94-1.16,1.22-.48,.28-.99,.42-1.55,.42Zm0-.95c.59,0,1.06-.24,1.42-.72s.54-1.11,.54-1.88-.18-1.42-.54-1.9-.83-.73-1.42-.73-1.05,.24-1.41,.73-.55,1.12-.55,1.9,.18,1.4,.55,1.88,.83,.72,1.41,.72Z"/><path d="M417.46,390.92v-6.8h.95l.1,.98h.04c.33-.33,.67-.6,1.04-.82,.36-.22,.78-.33,1.25-.33,.72,0,1.24,.23,1.57,.68,.33,.45,.5,1.11,.5,1.98v4.31h-1.15v-4.16c0-.63-.1-1.1-.31-1.39s-.53-.43-.98-.43c-.35,0-.66,.09-.93,.27s-.58,.44-.93,.78v4.93h-1.15Z"/><path d="M427.59,391.09c-.49,0-.95-.09-1.39-.27-.44-.18-.82-.4-1.15-.66l.57-.77c.3,.23,.61,.43,.92,.58s.68,.23,1.08,.23c.45,0,.78-.11,1.01-.32,.22-.21,.34-.46,.34-.75,0-.23-.08-.43-.23-.59s-.35-.29-.59-.4c-.24-.11-.48-.21-.74-.3-.32-.12-.63-.26-.94-.41-.31-.15-.56-.35-.76-.6-.2-.25-.29-.56-.29-.95,0-.55,.21-1.01,.62-1.38,.42-.37,.99-.55,1.73-.55,.42,0,.81,.07,1.18,.22s.68,.33,.94,.55l-.56,.73c-.23-.18-.48-.32-.73-.43-.25-.11-.53-.17-.83-.17-.43,0-.74,.1-.95,.29-.2,.2-.3,.42-.3,.69,0,.21,.07,.39,.21,.52,.14,.14,.32,.25,.55,.35,.22,.1,.46,.2,.71,.3,.33,.12,.65,.26,.97,.41s.58,.36,.79,.62c.21,.26,.32,.6,.32,1.03,0,.36-.1,.7-.29,1.01-.19,.31-.47,.55-.84,.74-.37,.19-.82,.28-1.37,.28Z"/></g></svg>