<?xml version="1.0" encoding="UTF-8"?><svg id="Layer_1" xmlns="http://www.w3.org/2000/svg" viewBox="0 0 495.19 497.59"><defs><style>.cls-1{fill:#fff;}.cls-2{fill:#edb221;}.cls-3{fill:#999;}.cls-4{fill:#b3b3b3;}</style></defs><rect class="cls-1" x="69.21" y="46.77" width="357" height="397.23" rx="5.09" ry="5.09"/><g><path d="M172.64,259.48h5.33c3.41,0,6.16,1.22,6.16,4.99s-2.78,5.26-6.07,5.26h-1.92v5.26h-3.5v-15.5Zm5.21,7.46c1.93,0,2.84-.86,2.84-2.47s-1.04-2.21-2.93-2.21h-1.61v4.68h1.71Z"/><path d="M185.17,271.71c0-2.49,1.98-3.83,6.65-4.33-.07-1.03-.58-1.71-1.87-1.71-.99,0-1.98,.42-3.12,1.07l-1.24-2.3c1.5-.92,3.19-1.55,5.04-1.55,3.02,0,4.69,1.72,4.69,5.34v6.75h-2.85l-.25-1.21h-.09c-.99,.87-2.11,1.49-3.43,1.49-2.15,0-3.52-1.57-3.52-3.56Zm6.65-.16v-2.06c-2.49,.34-3.3,1.05-3.3,1.94,0,.76,.52,1.13,1.35,1.13s1.32-.39,1.94-1.01Z"/><path d="M198.3,270.69v-4.77h-1.61v-2.61l1.81-.13,.41-3.13h2.89v3.13h2.83v2.74h-2.83v4.73c0,1.34,.61,1.88,1.53,1.88,.39,0,.81-.11,1.12-.22l.55,2.54c-.63,.2-1.48,.43-2.62,.43-2.92,0-4.08-1.84-4.08-4.58Z"/><path d="M205.83,269.09c0-3.92,2.89-6.19,6.15-6.19,1.45,0,2.57,.52,3.45,1.27l-1.65,2.25c-.57-.48-1.04-.7-1.6-.7-1.68,0-2.76,1.33-2.76,3.37s1.12,3.36,2.64,3.36c.77,0,1.52-.38,2.13-.87l1.37,2.29c-1.15,1.01-2.61,1.4-3.89,1.4-3.29,0-5.83-2.27-5.83-6.18Z"/><path d="M217.63,258.32h3.5v4.07l-.16,2.14c.88-.81,2.03-1.63,3.64-1.63,2.57,0,3.66,1.81,3.66,4.76v7.33h-3.5v-6.88c0-1.7-.46-2.23-1.47-2.23-.88,0-1.42,.41-2.18,1.15v7.96h-3.5v-16.67Z"/><path d="M230.53,269.09c0-3.83,2.73-6.19,5.57-6.19,3.36,0,5.03,2.44,5.03,5.67,0,.63-.08,1.26-.15,1.54h-7.06c.31,1.71,1.49,2.5,3.06,2.5,.89,0,1.7-.27,2.55-.77l1.16,2.11c-1.21,.84-2.79,1.33-4.19,1.33-3.36,0-5.97-2.28-5.97-6.18Zm7.61-1.29c0-1.3-.57-2.23-1.96-2.23-1.11,0-2.06,.74-2.3,2.23h4.26Z"/><path d="M242.93,269.09c0-3.86,2.41-6.19,4.89-6.19,1.3,0,2.1,.48,2.89,1.23l-.13-1.79v-4.02h3.5v16.67h-2.85l-.25-1.17h-.09c-.83,.83-2,1.46-3.14,1.46-2.93,0-4.83-2.33-4.83-6.18Zm7.66,2.26v-4.85c-.62-.55-1.31-.75-1.95-.75-1.13,0-2.13,1.05-2.13,3.29s.8,3.36,2.15,3.36c.74,0,1.34-.28,1.92-1.06Z"/><path d="M262.22,259.48h3.5v12.56h6.12v2.94h-9.62v-15.5Z"/><path d="M273.24,269.09c0-3.92,2.76-6.19,5.75-6.19s5.75,2.27,5.75,6.19-2.76,6.18-5.75,6.18-5.75-2.27-5.75-6.18Zm7.91,0c0-2.04-.72-3.37-2.17-3.37s-2.17,1.33-2.17,3.37,.72,3.36,2.17,3.36,2.17-1.32,2.17-3.36Z"/><path d="M286.41,277.01c0-.98,.59-1.77,1.67-2.38v-.1c-.61-.41-1.08-1.03-1.08-2,0-.85,.57-1.68,1.32-2.21v-.09c-.83-.58-1.58-1.68-1.58-3.06,0-2.83,2.34-4.27,4.88-4.27,.66,0,1.3,.1,1.83,.29h4.32v2.55h-1.9c.22,.35,.4,.94,.4,1.55,0,2.71-2.07,3.97-4.65,3.97-.43,0-.92-.07-1.44-.23-.29,.25-.41,.46-.41,.88,0,.58,.48,.86,1.77,.86h1.91c2.89,0,4.51,.89,4.51,3,0,2.45-2.56,4.24-6.61,4.24-2.75,0-4.94-.89-4.94-2.99Zm8.19-.65c0-.74-.64-.92-1.8-.92h-1.22c-.81,0-1.27-.05-1.65-.15-.44,.37-.64,.73-.64,1.16,0,.9,1.04,1.35,2.62,1.35s2.7-.63,2.7-1.45Zm-1.37-9.19c0-1.26-.68-1.92-1.61-1.92s-1.61,.66-1.61,1.92,.69,1.97,1.61,1.97,1.61-.67,1.61-1.97Z"/><path d="M299.57,259.63c0-1.07,.85-1.83,2.02-1.83s2.02,.76,2.02,1.83-.85,1.83-2.02,1.83-2.02-.76-2.02-1.83Zm.27,3.55h3.5v11.8h-3.5v-11.8Z"/><path d="M311.86,266.25c0-.96,.09-2.42,.13-3.38h-.09c-.38,.85-.81,1.69-1.24,2.55l-1.98,3.3h8.19v2.67h-11.54v-2.42l5.52-9.08h4.28v15.11h-3.26v-8.74Z"/><path d="M316.2,279.32l.62-2.58c.32,.09,.6,.16,.92,.16,.94,0,1.26-.58,1.26-1.9v-11.82h3.5v11.72c0,2.58-1,4.75-4.21,4.75-.99,0-1.6-.14-2.09-.33Zm2.53-19.7c0-1.07,.85-1.83,2.02-1.83s2.02,.76,2.02,1.83-.85,1.83-2.02,1.83-2.02-.76-2.02-1.83Z"/></g><g><path class="cls-4" d="M127.81,296.27h8.52v5.68h-8.52v-5.68Z"/><path class="cls-4" d="M136.07,296.27h8.52v5.68h-8.52v-5.68Z"/><path class="cls-4" d="M144.33,296.27h8.52v5.68h-8.52v-5.68Z"/><path class="cls-4" d="M152.59,296.27h8.52v5.68h-8.52v-5.68Z"/><path class="cls-4" d="M160.85,296.27h8.52v5.68h-8.52v-5.68Z"/><path class="cls-4" d="M185.69,296.27h8.52v5.68h-8.52v-5.68Z"/><path class="cls-4" d="M193.95,296.27h8.52v5.68h-8.52v-5.68Z"/><path class="cls-4" d="M202.21,296.27h8.52v5.68h-8.52v-5.68Z"/><path class="cls-4" d="M210.48,296.27h8.52v5.68h-8.52v-5.68Z"/><path class="cls-4" d="M218.74,296.27h8.52v5.68h-8.52v-5.68Z"/><path class="cls-4" d="M243.58,296.27h8.52v5.68h-8.52v-5.68Z"/><path class="cls-4" d="M251.84,296.27h8.52v5.68h-8.52v-5.68Z"/><path class="cls-4" d="M260.1,296.27h8.52v5.68h-8.52v-5.68Z"/><path class="cls-4" d="M268.36,296.27h8.52v5.68h-8.52v-5.68Z"/><path class="cls-4" d="M276.62,296.27h8.52v5.68h-8.52v-5.68Z"/><path class="cls-4" d="M301.46,296.27h8.52v5.68h-8.52v-5.68Z"/><path class="cls-4" d="M309.72,296.27h8.52v5.68h-8.52v-5.68Z"/><path class="cls-4" d="M317.98,296.27h8.52v5.68h-8.52v-5.68Z"/><path class="cls-4" d="M342.82,296.27h8.52v5.68h-8.52v-5.68Z"/><path class="cls-4" d="M351.08,296.27h8.52v5.68h-8.52v-5.68Z"/><path class="cls-4" d="M359.34,296.27h8.52v5.68h-8.52v-5.68Z"/><path class="cls-4" d="M185.72,312.13h8.52v5.68h-8.52v-5.68Z"/><path class="cls-4" d="M193.98,312.13h8.52v5.68h-8.52v-5.68Z"/><path class="cls-4" d="M202.24,312.13h8.52v5.68h-8.52v-5.68Z"/><path class="cls-4" d="M210.5,312.13h8.52v5.68h-8.52v-5.68Z"/><path class="cls-4" d="M218.76,312.13h8.52v5.68h-8.52v-5.68Z"/><path class="cls-4" d="M227.03,312.13h8.52v5.68h-8.52v-5.68Z"/><path class="cls-4" d="M235.29,312.13h8.52v5.68h-8.52v-5.68Z"/><path class="cls-4" d="M243.55,312.13h8.52v5.68h-8.52v-5.68Z"/><path class="cls-4" d="M251.81,312.13h8.52v5.68h-8.52v-5.68Z"/><path class="cls-4" d="M260.07,312.13h8.52v5.68h-8.52v-5.68Z"/><path class="cls-4" d="M268.33,312.13h8.52v5.68h-8.52v-5.68Z"/><path class="cls-4" d="M293.17,312.13h8.52v5.68h-8.52v-5.68Z"/><path class="cls-4" d="M301.43,312.13h8.52v5.68h-8.52v-5.68Z"/><path class="cls-4" d="M144.38,327.99h8.52v5.68h-8.52v-5.68Z"/><path class="cls-4" d="M152.64,327.99h8.52v5.68h-8.52v-5.68Z"/><path class="cls-4" d="M160.91,327.99h8.52v5.68h-8.52v-5.68Z"/><path class="cls-4" d="M169.17,327.99h8.52v5.68h-8.52v-5.68Z"/><path class="cls-4" d="M177.43,327.99h8.52v5.68h-8.52v-5.68Z"/><path class="cls-4" d="M185.69,327.99h8.52v5.68h-8.52v-5.68Z"/><path class="cls-4" d="M210.53,327.99h8.52v5.68h-8.52v-5.68Z"/><path class="cls-4" d="M218.79,327.99h8.52v5.68h-8.52v-5.68Z"/><path class="cls-4" d="M227.05,327.99h8.52v5.68h-8.52v-5.68Z"/><path class="cls-4" d="M235.31,327.99h8.52v5.68h-8.52v-5.68Z"/><path class="cls-4" d="M243.58,327.99h8.52v5.68h-8.52v-5.68Z"/><path class="cls-4" d="M251.84,327.99h8.52v5.68h-8.52v-5.68Z"/><path class="cls-4" d="M260.1,327.99h8.52v5.68h-8.52v-5.68Z"/><path class="cls-4" d="M268.36,327.99h8.52v5.68h-8.52v-5.68Z"/><path class="cls-4" d="M276.62,327.99h8.52v5.68h-8.52v-5.68Z"/><path class="cls-4" d="M284.88,327.99h8.52v5.68h-8.52v-5.68Z"/><path class="cls-4" d="M309.72,327.99h8.52v5.68h-8.52v-5.68Z"/><path class="cls-4" d="M317.98,327.99h8.52v5.68h-8.52v-5.68Z"/><path class="cls-4" d="M326.25,327.99h8.52v5.68h-8.52v-5.68Z"/><path class="cls-4" d="M334.51,327.99h8.52v5.68h-8.52v-5.68Z"/><path class="cls-4" d="M342.77,327.99h8.52v5.68h-8.52v-5.68Z"/></g><g><g><g><path d="M134.31,376.04c-.65,0-1.23-.17-1.73-.5-.5-.33-.9-.81-1.18-1.42-.28-.61-.42-1.33-.42-2.17s.14-1.55,.42-2.15c.28-.6,.67-1.06,1.18-1.38s1.08-.48,1.73-.48,1.24,.16,1.74,.48c.5,.32,.89,.78,1.18,1.38,.29,.6,.43,1.32,.43,2.15s-.14,1.55-.43,2.17c-.29,.61-.68,1.08-1.18,1.42-.5,.33-1.08,.5-1.74,.5Zm0-.87c.47,0,.87-.13,1.22-.4,.35-.27,.61-.64,.8-1.12,.19-.48,.29-1.04,.29-1.7,0-.97-.21-1.73-.63-2.3-.42-.56-.98-.84-1.68-.84s-1.26,.28-1.68,.84c-.42,.56-.63,1.33-.63,2.3,0,.65,.1,1.22,.29,1.7,.19,.48,.46,.85,.81,1.12s.75,.4,1.21,.4Z"/><path d="M140.23,375.89l-1.65-7.8h1.02l.82,4.25c.07,.42,.15,.84,.23,1.26,.08,.42,.15,.84,.23,1.26h.05c.09-.42,.18-.84,.27-1.27,.1-.42,.19-.84,.27-1.26l1.08-4.25h.9l1.08,4.25c.09,.41,.19,.83,.29,1.26,.1,.42,.19,.85,.29,1.27h.05c.07-.42,.14-.84,.21-1.27,.07-.42,.15-.84,.23-1.26l.82-4.25h.95l-1.62,7.8h-1.19l-1.18-4.7c-.07-.3-.14-.6-.2-.89-.06-.29-.12-.58-.18-.89h-.05c-.06,.3-.12,.6-.19,.89-.07,.29-.14,.58-.2,.89l-1.15,4.7h-1.18Z"/><path d="M148.85,375.89v-7.8h1.02l2.82,4.9,.84,1.62h.05c-.02-.4-.05-.81-.08-1.23-.03-.42-.04-.84-.04-1.25v-4.03h.94v7.8h-1.02l-2.83-4.91-.84-1.61h-.05c.03,.39,.06,.79,.09,1.2,.03,.41,.04,.83,.04,1.24v4.08h-.94Z"/><path d="M156.66,375.89v-7.8h4.5v.83h-3.51v2.45h2.96v.84h-2.96v2.83h3.63v.84h-4.62Z"/><path d="M163.05,375.89v-7.8h2.44c.53,0,1,.07,1.42,.21,.41,.14,.74,.37,.97,.69,.23,.32,.35,.75,.35,1.29,0,.6-.16,1.09-.48,1.46-.32,.37-.75,.62-1.29,.76l1.99,3.4h-1.12l-1.88-3.3h-1.42v3.3h-.99Zm.99-4.1h1.31c.61,0,1.08-.12,1.4-.38s.49-.63,.49-1.14-.16-.88-.49-1.08-.79-.31-1.4-.31h-1.31v2.9Z"/></g><g><path d="M132.39,397.54v-9.51h3c.71,0,1.34,.09,1.89,.28,.55,.18,.99,.49,1.31,.92,.32,.43,.48,1.01,.48,1.75,0,.7-.16,1.27-.48,1.73-.32,.46-.75,.79-1.29,1.02s-1.16,.33-1.85,.33h-1.37v3.49h-1.69Zm1.69-4.84h1.24c1.4,0,2.09-.58,2.09-1.73,0-.6-.18-1.02-.54-1.24-.36-.23-.9-.34-1.61-.34h-1.18v3.32Z"/><path d="M142.48,397.71c-.59,0-1.01-.18-1.26-.54s-.37-.85-.37-1.47v-8.43h1.67v8.52c0,.2,.04,.35,.12,.43,.08,.08,.16,.12,.25,.12,.04,0,.07,0,.11,0s.08-.01,.15-.02l.22,1.25c-.1,.04-.22,.07-.37,.1s-.32,.04-.52,.04Z"/><path d="M146.67,397.71c-.62,0-1.13-.19-1.52-.58s-.59-.89-.59-1.51c0-.77,.33-1.36,1-1.78,.67-.42,1.74-.71,3.2-.87,0-.38-.11-.71-.3-.98-.19-.28-.53-.41-1.01-.41-.35,0-.69,.07-1.03,.2-.33,.14-.66,.3-.98,.5l-.61-1.12c.4-.25,.85-.47,1.34-.65,.5-.18,1.03-.28,1.59-.28,.89,0,1.56,.26,2,.79s.66,1.29,.66,2.29v4.23h-1.38l-.12-.79h-.06c-.32,.27-.66,.5-1.03,.68-.36,.18-.76,.28-1.18,.28Zm.54-1.31c.29,0,.55-.07,.79-.21,.24-.14,.49-.33,.76-.58v-1.6c-.97,.13-1.64,.31-2.02,.56-.38,.25-.57,.55-.57,.91,0,.32,.1,.55,.29,.7,.19,.15,.44,.22,.74,.22Z"/><path d="M154.87,397.71c-.82,0-1.41-.24-1.75-.72-.34-.48-.52-1.1-.52-1.87v-3.4h-1.02v-1.25l1.1-.07,.2-1.95h1.4v1.95h1.82v1.32h-1.82v3.4c0,.83,.33,1.25,1,1.25,.13,0,.26-.02,.39-.05s.25-.07,.35-.11l.29,1.24c-.19,.07-.41,.13-.66,.18-.25,.05-.51,.08-.79,.08Z"/><path d="M158.04,397.54v-5.82h-.96v-1.25l.96-.07v-.74c0-.75,.18-1.36,.55-1.84,.37-.48,.97-.72,1.82-.72,.25,0,.49,.02,.73,.07,.23,.05,.43,.11,.58,.17l-.32,1.25c-.26-.12-.52-.17-.79-.17-.6,0-.9,.4-.9,1.21v.77h1.4v1.32h-1.4v5.82h-1.67Z"/><path d="M165.28,397.71c-.59,0-1.14-.15-1.66-.44-.51-.3-.93-.72-1.25-1.28-.32-.56-.48-1.23-.48-2.01s.16-1.47,.48-2.03c.32-.56,.74-.98,1.25-1.28,.51-.29,1.07-.44,1.66-.44s1.16,.15,1.67,.44c.51,.3,.93,.72,1.25,1.28,.32,.56,.48,1.23,.48,2.03s-.16,1.46-.48,2.01c-.32,.56-.74,.98-1.25,1.28-.51,.29-1.07,.44-1.67,.44Zm0-1.37c.52,0,.94-.22,1.24-.65,.3-.44,.45-1.01,.45-1.72s-.15-1.29-.45-1.73c-.3-.44-.71-.65-1.24-.65s-.93,.22-1.23,.65c-.3,.44-.44,1.01-.44,1.73s.15,1.28,.44,1.72c.29,.44,.71,.65,1.23,.65Z"/><path d="M170.49,397.54v-7.14h1.38l.12,1.26h.06c.25-.46,.56-.82,.92-1.07s.73-.37,1.11-.37c.34,0,.61,.05,.81,.15l-.29,1.45c-.13-.04-.24-.07-.35-.09-.11-.02-.24-.03-.39-.03-.28,0-.58,.11-.89,.33-.31,.22-.58,.6-.8,1.14v4.36h-1.67Z"/><path d="M176.06,397.54v-7.14h1.38l.12,.97h.06c.3-.32,.63-.59,.98-.81,.35-.22,.75-.33,1.2-.33,.52,0,.94,.11,1.26,.34,.31,.23,.55,.54,.72,.94,.34-.37,.7-.67,1.07-.92,.37-.24,.78-.36,1.23-.36,.76,0,1.31,.25,1.67,.74,.36,.49,.54,1.19,.54,2.09v4.48h-1.69v-4.26c0-.59-.09-1.01-.27-1.25s-.45-.36-.82-.36c-.45,0-.95,.3-1.5,.89v4.99h-1.67v-4.26c0-.59-.09-1.01-.27-1.25s-.46-.36-.84-.36c-.45,0-.95,.3-1.5,.89v4.99h-1.67Z"/></g></g><g><g><path d="M251.73,375.89v-7.8h4.5v.83h-3.51v2.45h2.96v.84h-2.96v2.83h3.63v.84h-4.62Z"/><path d="M257.22,375.89l2.27-4.03-2.12-3.77h1.09l1.06,2c.1,.17,.2,.35,.29,.52,.09,.17,.2,.38,.32,.61h.05c.11-.23,.21-.43,.29-.61,.08-.17,.17-.35,.27-.52l1.04-2h1.05l-2.13,3.82,2.27,3.99h-1.09l-1.14-2.11c-.1-.19-.21-.39-.32-.59-.11-.2-.22-.42-.35-.66h-.05c-.11,.24-.22,.46-.32,.66-.1,.2-.2,.4-.3,.59l-1.13,2.11h-1.05Z"/><path d="M264.34,375.89v-7.8h4.5v.83h-3.51v2.45h2.96v.84h-2.96v2.83h3.63v.84h-4.62Z"/><path d="M273.68,376.04c-.65,0-1.23-.16-1.74-.48s-.92-.78-1.21-1.39c-.3-.6-.45-1.33-.45-2.18s.15-1.56,.45-2.17c.3-.6,.71-1.07,1.24-1.39,.52-.33,1.11-.49,1.77-.49,.48,0,.9,.1,1.26,.29s.66,.42,.88,.67l-.54,.64c-.21-.22-.44-.4-.7-.54s-.56-.2-.89-.2c-.49,0-.92,.13-1.29,.39s-.65,.62-.86,1.09-.3,1.03-.3,1.68,.1,1.21,.3,1.7c.2,.48,.48,.85,.84,1.11,.36,.26,.79,.39,1.28,.39,.37,0,.71-.08,1-.24,.29-.16,.56-.37,.81-.64l.55,.62c-.31,.36-.66,.63-1.05,.83-.39,.2-.84,.3-1.34,.3Z"/><path d="M280.24,376.04c-.53,0-1.01-.11-1.43-.32-.42-.21-.76-.57-1-1.06-.25-.49-.37-1.15-.37-1.99v-4.58h.99v4.6c0,.63,.08,1.12,.24,1.48,.16,.36,.38,.62,.65,.77,.27,.15,.58,.23,.92,.23s.66-.08,.94-.23c.28-.15,.5-.41,.66-.77,.16-.36,.24-.86,.24-1.48v-4.6h.95v4.58c0,.83-.12,1.5-.37,1.99-.25,.49-.58,.84-1,1.06-.42,.21-.9,.32-1.43,.32Z"/><path d="M286.88,375.89v-6.97h-2.36v-.83h5.71v.83h-2.36v6.97h-1Z"/><path d="M291.76,375.89v-7.8h.99v7.8h-.99Z"/><path d="M296.44,375.89l-2.5-7.8h1.06l1.25,4.21c.14,.46,.27,.89,.38,1.29,.11,.4,.24,.83,.39,1.29h.05c.14-.46,.27-.89,.38-1.29,.11-.4,.23-.83,.37-1.29l1.25-4.21h1.01l-2.47,7.8h-1.15Z"/><path d="M301.25,375.89v-7.8h4.5v.83h-3.51v2.45h2.96v.84h-2.96v2.83h3.63v.84h-4.62Z"/><path d="M312.31,376.04c-.55,0-1.06-.11-1.52-.32s-.87-.49-1.21-.84l.59-.69c.28,.29,.6,.53,.98,.71,.38,.18,.77,.27,1.17,.27,.52,0,.92-.12,1.2-.35,.29-.23,.43-.54,.43-.92,0-.27-.06-.48-.17-.64-.11-.16-.27-.29-.46-.4-.19-.11-.41-.22-.66-.33l-1.12-.49c-.25-.1-.49-.24-.73-.41-.24-.17-.44-.38-.61-.64-.16-.26-.24-.58-.24-.96s.1-.75,.31-1.07,.5-.56,.88-.74,.79-.27,1.26-.27,.9,.09,1.3,.27,.73,.41,1.01,.7l-.54,.64c-.24-.23-.5-.41-.79-.54-.29-.13-.62-.2-.98-.2-.44,0-.79,.1-1.05,.31s-.4,.48-.4,.83c0,.25,.07,.45,.2,.61,.13,.16,.29,.3,.49,.4,.2,.1,.4,.2,.61,.29l1.11,.48c.3,.13,.57,.28,.81,.46,.24,.18,.43,.4,.58,.65s.21,.58,.21,.97c0,.41-.11,.79-.32,1.12-.21,.34-.52,.61-.92,.8-.4,.2-.87,.3-1.42,.3Z"/><path d="M316.61,375.89v-7.8h2.23c.59,0,1.1,.07,1.53,.21,.44,.14,.78,.38,1.02,.72,.25,.34,.37,.79,.37,1.36,0,.82-.27,1.42-.8,1.82-.53,.4-1.22,.59-2.08,.59h-1.28v3.09h-.99Zm.99-3.9h1.17c.68,0,1.19-.13,1.52-.39s.49-.66,.49-1.22-.17-.95-.52-1.17c-.35-.22-.86-.33-1.54-.33h-1.12v3.11Z"/><path d="M326.35,376.04c-.65,0-1.23-.17-1.73-.5-.5-.33-.9-.81-1.18-1.42-.28-.61-.42-1.33-.42-2.17s.14-1.55,.42-2.15c.28-.6,.67-1.06,1.18-1.38s1.08-.48,1.73-.48,1.24,.16,1.74,.48c.5,.32,.89,.78,1.18,1.38,.29,.6,.43,1.32,.43,2.15s-.14,1.55-.43,2.17c-.29,.61-.68,1.08-1.18,1.42-.5,.33-1.08,.5-1.74,.5Zm0-.87c.47,0,.87-.13,1.22-.4,.35-.27,.61-.64,.8-1.12,.19-.48,.29-1.04,.29-1.7,0-.97-.21-1.73-.63-2.3-.42-.56-.98-.84-1.68-.84s-1.26,.28-1.68,.84c-.42,.56-.63,1.33-.63,2.3,0,.65,.1,1.22,.29,1.7,.19,.48,.46,.85,.81,1.12s.75,.4,1.21,.4Z"/><path d="M331.48,375.89v-7.8h1.02l2.82,4.9,.84,1.62h.05c-.02-.4-.05-.81-.08-1.23-.03-.42-.04-.84-.04-1.25v-4.03h.94v7.8h-1.02l-2.83-4.91-.84-1.61h-.05c.03,.39,.06,.79,.09,1.2,.03,.41,.04,.83,.04,1.24v4.08h-.94Z"/><path d="M341.47,376.04c-.55,0-1.06-.11-1.52-.32s-.87-.49-1.21-.84l.59-.69c.28,.29,.6,.53,.98,.71,.38,.18,.77,.27,1.17,.27,.52,0,.92-.12,1.2-.35,.29-.23,.43-.54,.43-.92,0-.27-.06-.48-.17-.64-.11-.16-.27-.29-.46-.4-.19-.11-.41-.22-.66-.33l-1.12-.49c-.25-.1-.49-.24-.73-.41-.24-.17-.44-.38-.61-.64-.16-.26-.24-.58-.24-.96s.1-.75,.31-1.07,.5-.56,.88-.74,.79-.27,1.26-.27,.9,.09,1.3,.27,.73,.41,1.01,.7l-.54,.64c-.24-.23-.5-.41-.79-.54-.29-.13-.62-.2-.98-.2-.44,0-.79,.1-1.05,.31s-.4,.48-.4,.83c0,.25,.07,.45,.2,.61,.13,.16,.29,.3,.49,.4,.2,.1,.4,.2,.61,.29l1.11,.48c.3,.13,.57,.28,.81,.46,.24,.18,.43,.4,.58,.65s.21,.58,.21,.97c0,.41-.11,.79-.32,1.12-.21,.34-.52,.61-.92,.8-.4,.2-.87,.3-1.42,.3Z"/><path d="M348.65,376.04c-.65,0-1.23-.17-1.73-.5-.5-.33-.9-.81-1.18-1.42-.28-.61-.42-1.33-.42-2.17s.14-1.55,.42-2.15c.28-.6,.67-1.06,1.18-1.38s1.08-.48,1.73-.48,1.24,.16,1.74,.48c.5,.32,.89,.78,1.18,1.38,.29,.6,.43,1.32,.43,2.15s-.14,1.55-.43,2.17c-.29,.61-.68,1.08-1.18,1.42-.5,.33-1.08,.5-1.74,.5Zm0-.87c.47,0,.87-.13,1.22-.4,.35-.27,.61-.64,.8-1.12,.19-.48,.29-1.04,.29-1.7,0-.97-.21-1.73-.63-2.3-.42-.56-.98-.84-1.68-.84s-1.26,.28-1.68,.84c-.42,.56-.63,1.33-.63,2.3,0,.65,.1,1.22,.29,1.7,.19,.48,.46,.85,.81,1.12s.75,.4,1.21,.4Z"/><path d="M353.79,375.89v-7.8h2.44c.53,0,1,.07,1.42,.21,.41,.14,.74,.37,.97,.69,.23,.32,.35,.75,.35,1.29,0,.6-.16,1.09-.48,1.46-.32,.37-.75,.62-1.29,.76l1.99,3.4h-1.12l-1.88-3.3h-1.42v3.3h-.99Zm.99-4.1h1.31c.61,0,1.08-.12,1.4-.38s.49-.63,.49-1.14-.16-.88-.49-1.08-.79-.31-1.4-.31h-1.31v2.9Z"/></g><g><path d="M251.45,397.54l3.1-9.51h1.98l3.1,9.51h-1.77l-.74-2.57h-3.2l-.74,2.57h-1.72Zm3.18-5.06l-.33,1.16h2.43l-.33-1.16c-.16-.5-.3-1.02-.44-1.56s-.28-1.06-.42-1.58h-.06c-.13,.53-.26,1.06-.4,1.59-.14,.53-.29,1.04-.44,1.55Z"/><path d="M260.8,397.54v-7.14h1.38l.12,.97h.06c.3-.32,.63-.59,.98-.81,.35-.22,.75-.33,1.2-.33,.52,0,.94,.11,1.26,.34,.31,.23,.55,.54,.72,.94,.34-.37,.7-.67,1.07-.92,.37-.24,.78-.36,1.23-.36,.76,0,1.31,.25,1.67,.74,.36,.49,.54,1.19,.54,2.09v4.48h-1.69v-4.26c0-.59-.09-1.01-.27-1.25s-.45-.36-.82-.36c-.45,0-.95,.3-1.5,.89v4.99h-1.67v-4.26c0-.59-.09-1.01-.27-1.25s-.46-.36-.84-.36c-.45,0-.95,.3-1.5,.89v4.99h-1.67Z"/><path d="M274.93,397.71c-.62,0-1.13-.19-1.52-.58s-.59-.89-.59-1.51c0-.77,.33-1.36,1-1.78,.67-.42,1.74-.71,3.2-.87,0-.38-.11-.71-.3-.98-.19-.28-.53-.41-1.01-.41-.35,0-.69,.07-1.03,.2-.33,.14-.66,.3-.98,.5l-.61-1.12c.4-.25,.85-.47,1.34-.65,.5-.18,1.03-.28,1.59-.28,.89,0,1.56,.26,2,.79s.66,1.29,.66,2.29v4.23h-1.38l-.12-.79h-.06c-.32,.27-.66,.5-1.03,.68-.36,.18-.76,.28-1.18,.28Zm.54-1.31c.29,0,.55-.07,.79-.21,.24-.14,.49-.33,.76-.58v-1.6c-.97,.13-1.64,.31-2.02,.56-.38,.25-.57,.55-.57,.91,0,.32,.1,.55,.29,.7,.19,.15,.44,.22,.74,.22Z"/><path d="M280.85,397.54v-7.14h1.38l.12,1.26h.06c.25-.46,.56-.82,.92-1.07s.73-.37,1.11-.37c.34,0,.61,.05,.81,.15l-.29,1.45c-.13-.04-.24-.07-.35-.09-.11-.02-.24-.03-.39-.03-.28,0-.58,.11-.89,.33-.31,.22-.58,.6-.8,1.14v4.36h-1.67Z"/><path d="M289.62,397.54v-9.51h1.73l2.97,5.35,.97,2.02h.06c-.04-.48-.08-1.01-.14-1.58-.05-.57-.08-1.12-.08-1.66v-4.13h1.61v9.51h-1.73l-2.97-5.35-.97-2.02h-.06c.04,.5,.08,1.03,.14,1.58,.05,.55,.08,1.1,.08,1.63v4.16h-1.61Z"/><path d="M299.16,397.54v-7.14h1.38l.12,.96h.06c.32-.31,.67-.58,1.05-.8,.38-.22,.81-.33,1.29-.33,.77,0,1.32,.25,1.67,.74,.35,.49,.52,1.19,.52,2.09v4.48h-1.67v-4.26c0-.59-.09-1.01-.26-1.25-.17-.24-.46-.36-.86-.36-.31,0-.58,.08-.82,.23-.24,.15-.51,.37-.81,.66v4.99h-1.67Z"/><path d="M309.18,397.71c-.62,0-1.13-.19-1.52-.58s-.59-.89-.59-1.51c0-.77,.33-1.36,1-1.78,.67-.42,1.74-.71,3.2-.87,0-.38-.11-.71-.3-.98-.19-.28-.53-.41-1.01-.41-.35,0-.69,.07-1.03,.2-.33,.14-.66,.3-.98,.5l-.61-1.12c.4-.25,.85-.47,1.34-.65,.5-.18,1.03-.28,1.59-.28,.89,0,1.56,.26,2,.79s.66,1.29,.66,2.29v4.23h-1.38l-.12-.79h-.06c-.32,.27-.66,.5-1.03,.68-.36,.18-.76,.28-1.18,.28Zm.54-1.31c.29,0,.55-.07,.79-.21,.24-.14,.49-.33,.76-.58v-1.6c-.97,.13-1.64,.31-2.02,.56-.38,.25-.57,.55-.57,.91,0,.32,.1,.55,.29,.7,.19,.15,.44,.22,.74,.22Z"/><path d="M317.6,397.71c-.89,0-1.6-.33-2.14-.99s-.8-1.58-.8-2.75c0-.78,.14-1.44,.43-2.01,.29-.56,.66-.99,1.13-1.29,.46-.3,.95-.45,1.47-.45,.41,0,.75,.07,1.04,.21s.56,.33,.84,.57l-.06-1.15v-2.59h1.67v10.27h-1.38l-.12-.77h-.06c-.26,.26-.57,.48-.92,.67-.35,.18-.72,.28-1.11,.28Zm.41-1.38c.53,0,1.03-.27,1.5-.8v-3.33c-.24-.22-.49-.38-.73-.46-.24-.09-.48-.13-.73-.13-.46,0-.85,.21-1.17,.62s-.49,.99-.49,1.74,.14,1.35,.42,1.76,.68,.61,1.19,.61Z"/><path d="M324.29,389.14c-.3,0-.54-.09-.73-.26-.18-.17-.28-.41-.28-.7s.09-.51,.28-.68c.18-.17,.43-.26,.73-.26s.54,.09,.73,.26c.18,.17,.28,.4,.28,.68s-.09,.52-.28,.7c-.18,.17-.43,.26-.73,.26Zm-.84,8.39v-7.14h1.67v7.14h-1.67Z"/><path d="M332.43,400.12c-.6-.99-1.07-2.02-1.41-3.1-.34-1.08-.51-2.25-.51-3.53s.17-2.46,.51-3.53c.34-1.08,.81-2.11,1.41-3.1l1.05,.46c-.54,.93-.95,1.92-1.21,2.98s-.39,2.12-.39,3.18,.13,2.13,.39,3.18c.26,1.06,.66,2.05,1.21,2.98l-1.05,.46Z"/><path d="M339.25,397.71c-.79,0-1.52-.19-2.17-.57-.65-.38-1.17-.93-1.55-1.67-.38-.73-.57-1.62-.57-2.67s.2-1.93,.59-2.67c.39-.74,.92-1.31,1.58-1.7s1.39-.59,2.18-.59c.6,0,1.13,.12,1.6,.36,.46,.24,.85,.52,1.15,.84l-.9,1.09c-.24-.25-.51-.45-.81-.6-.29-.15-.63-.23-1-.23-.51,0-.97,.14-1.37,.41s-.72,.67-.95,1.19c-.23,.51-.34,1.13-.34,1.85,0,1.09,.24,1.94,.71,2.55,.47,.62,1.11,.92,1.91,.92,.43,0,.8-.09,1.13-.27,.33-.18,.63-.41,.9-.71l.9,1.06c-.39,.45-.83,.79-1.33,1.03s-1.05,.36-1.67,.36Z"/><path d="M345.68,397.54v-8.08h-2.75v-1.42h7.18v1.42h-2.75v8.08h-1.69Z"/><path d="M355.16,397.71c-.82,0-1.55-.2-2.18-.6-.63-.4-1.12-.97-1.48-1.72-.35-.74-.53-1.63-.53-2.65s.18-1.9,.53-2.63c.35-.73,.85-1.28,1.48-1.67,.63-.39,1.36-.58,2.18-.58s1.57,.19,2.2,.58c.63,.39,1.12,.95,1.48,1.67,.35,.73,.53,1.6,.53,2.63s-.18,1.91-.53,2.65c-.35,.74-.85,1.31-1.48,1.72-.63,.4-1.36,.6-2.2,.6Zm0-1.47c.75,0,1.34-.32,1.79-.95,.45-.63,.67-1.49,.67-2.55s-.22-1.9-.67-2.51c-.45-.61-1.04-.91-1.79-.91s-1.34,.3-1.79,.91c-.45,.61-.67,1.44-.67,2.51s.22,1.92,.67,2.55c.45,.64,1.04,.95,1.79,.95Z"/><path d="M361.87,400.12l-1.05-.46c.54-.93,.95-1.92,1.21-2.98,.26-1.06,.39-2.12,.39-3.18s-.13-2.13-.39-3.18-.66-2.05-1.21-2.98l1.05-.46c.6,.99,1.07,2.02,1.41,3.1,.34,1.08,.51,2.25,.51,3.53s-.17,2.46-.51,3.53c-.34,1.08-.81,2.11-1.41,3.1Z"/></g></g></g><g><g><path d="M214.83,159.17c0-10.83,4.51-14.62,9.5-14.62,2.4,0,4.12,1.03,5.46,2.51l-1.09,1.21c-1.14-1.4-2.72-2.14-4.39-2.14-4.13,0-7.68,3.33-7.68,13.04,0,6.32,2.09,10.67,6.69,10.67,2.98,0,5.22-2.85,5.22-6.54s-1.67-6.49-5.6-6.49c-1.87,0-4.32,1.16-6.45,4.17l-.03-1.89c1.8-2.3,4.22-3.78,6.7-3.78,4.51,0,7.18,2.79,7.18,8,0,4.7-3.24,8.08-7.08,8.08-5.15,0-8.43-4.36-8.43-12.2Z"/><path d="M233.71,164.27c0-3.5,2.72-6.01,5.15-7.3v-.16c-1.88-1.25-3.69-3.18-3.69-5.92,0-3.73,2.98-6.33,6.75-6.33,4.41,0,6.99,2.9,6.99,6.75,0,2.85-2.18,5.37-3.68,6.58v.16c2.22,1.37,4.52,3.1,4.52,6.57,0,3.76-3.14,6.76-7.85,6.76s-8.19-3.05-8.19-7.11Zm14.24,.32c0-3.97-3.89-5.35-7.91-6.94-2.62,1.54-4.57,3.71-4.57,6.54,0,3.19,2.71,5.69,6.45,5.69s6.03-2.33,6.03-5.29Zm-.76-13.24c0-2.87-1.92-5.3-5.28-5.3-2.89,0-4.97,2.04-4.97,4.84,0,3.66,3.49,5.14,6.86,6.47,2.18-1.78,3.39-3.78,3.39-6Z"/><path d="M253.08,152.09c0-5.33,2.18-8.33,5.7-8.33s5.7,3,5.7,8.33-2.18,8.41-5.7,8.41-5.7-3.01-5.7-8.41Zm9.83,0c0-4.5-1.62-7-4.13-7s-4.13,2.5-4.13,7,1.62,7.08,4.13,7.08,4.13-2.58,4.13-7.08Zm11.42-8.33h1.55l-14.87,27.62h-1.55l14.87-27.62Zm-3.33,19.21c0-5.33,2.18-8.33,5.7-8.33s5.7,3,5.7,8.33-2.18,8.41-5.7,8.41-5.7-3.01-5.7-8.41Zm9.83,0c0-4.5-1.62-7-4.13-7s-4.13,2.5-4.13,7,1.62,7.08,4.13,7.08,4.13-2.58,4.13-7.08Z"/></g><path class="cls-2" d="M247.71,83.29c40.96,0,74.27,33.32,74.27,74.27s-33.32,74.27-74.27,74.27-74.27-33.32-74.27-74.27,33.32-74.27,74.27-74.27m0-6.61c-44.67,0-80.88,36.21-80.88,80.88s36.21,80.88,80.88,80.88,80.88-36.21,80.88-80.88-36.21-80.88-80.88-80.88h0Z"/><path class="cls-3" d="M166.82,157.55c0,27.43,13.67,51.66,34.56,66.28l3.78-5.46c-19.16-13.44-31.73-35.69-31.73-60.82,0-40.82,33.1-74.04,73.86-74.26v-6.61c-44.48,.22-80.47,36.34-80.47,80.87Z"/></g></svg>