<svg width="159" height="74" viewBox="0 0 159 74" fill="none" xmlns="http://www.w3.org/2000/svg">
<path d="M30.74 0.790588C32.0388 0.901364 33.3302 1.08641 34.6078 1.34481C39.6062 2.48648 43.8948 4.95435 47.6504 8.38343C51.0266 11.4893 53.4394 15.4997 54.6017 19.9374C54.8663 20.8921 55.2438 21.6045 56.3459 21.795C56.9567 21.9005 57.0551 22.523 57.0576 23.0751C57.0663 25.0002 57.0634 26.9254 57.0633 28.8506C57.0633 30.0516 57.0614 31.2526 57.0576 32.4536C57.0526 33.5117 56.7128 33.8779 55.6719 33.8627C55.0426 33.8535 54.798 34.2186 54.6444 34.7309C54.2124 36.1872 53.6636 37.6063 53.0032 38.9743C50.5689 43.9819 46.7995 47.7183 42.0242 50.4953C41.7953 50.6284 41.5636 50.757 41.3312 50.884C40.5812 51.294 40.5636 51.3199 40.8702 52.1187C41.0377 52.5582 41.3024 52.9541 41.6446 53.2767C41.9868 53.5993 42.3976 53.8402 42.8462 53.9815C43.6474 54.2686 44.4916 54.3806 45.3073 54.6072C45.5576 54.6547 45.7967 54.7488 46.0122 54.8846C45.8153 55.1301 45.5468 55.0857 45.322 55.1309C44.2521 55.3459 43.2011 55.677 42.0885 55.6348C41.6469 55.6478 41.2064 55.5839 40.7866 55.446C40.448 55.3103 40.3324 55.4267 40.263 55.7713C40.0999 56.6746 40.016 57.5904 40.0121 58.5083C39.9672 60.3437 39.8028 62.1705 39.677 63.9994C39.5547 65.7765 39.6245 65.937 41.3394 66.5056C42.177 66.7834 43.0144 67.0618 43.8462 67.356C44.0513 67.4285 44.2928 67.4708 44.4179 67.7037C44.2993 67.8723 44.1262 67.8093 43.9817 67.8099C42.5158 67.8154 41.0498 67.8229 39.5839 67.8106C38.0222 67.7974 37.1826 66.9716 37.0688 65.4204C36.9024 63.1515 36.7106 60.8846 36.5276 58.617C36.5078 58.4961 36.4816 58.3762 36.4494 58.258C36.2803 59.5398 36.197 60.8315 36.1999 62.1244C36.1299 63.6933 36.1763 65.2675 36.1783 66.8395C36.135 67.1597 36.2133 67.4846 36.3977 67.7501C36.5821 68.0155 36.8593 68.2022 37.1746 68.2734C38.2456 68.6797 39.2922 69.1532 40.492 69.0545C40.9195 69.068 41.3346 69.2016 41.6897 69.4401C41.7817 69.4889 41.9068 69.5364 41.8951 69.6554C41.8823 69.7855 41.7471 69.7958 41.645 69.7926C39.6878 69.7321 37.7244 69.9828 35.7733 69.7078C35.3295 69.6591 34.9113 69.4755 34.5751 69.1818C34.2389 68.8881 34.0009 68.4983 33.8931 68.065C33.6527 67.1605 33.5167 66.2315 33.4878 65.296C33.3505 63.4316 33.2535 61.5642 33.1411 59.698C33.1485 59.6056 33.1364 59.5127 33.1055 59.4253C33.0747 59.3379 33.0257 59.258 32.9619 59.1907C32.8635 59.3649 32.83 59.5683 32.8672 59.7649C32.8636 62.6086 32.8629 65.4522 32.8653 68.2958C32.866 69.4528 33.2308 70.0095 34.3367 70.405C35.7668 70.9165 37.2389 71.2922 38.7107 71.6638C39.0391 71.7467 39.3819 71.8035 39.432 72.2346H33.92C33.7657 72.205 33.6123 72.1691 33.4569 72.1468C31.3684 71.8481 30.4775 71.0369 30.0546 69.0432C29.9852 68.7161 29.9227 68.3876 29.8558 68.0599C29.6322 66.965 29.4082 65.8701 29.184 64.7752C28.9764 65.1313 28.8307 65.52 28.7529 65.9248C28.5057 67.1133 28.303 68.3118 28.0309 69.4945C27.6931 70.9625 26.7067 71.7681 25.2558 72.0477C24.9286 72.1107 24.6013 72.1723 24.274 72.2346H18.762C18.9332 71.724 19.4051 71.6846 19.8207 71.5744C21.2513 71.2589 22.6606 70.8536 24.0401 70.3608C24.3654 70.2428 24.6498 70.0334 24.8591 69.7579C25.0685 69.4824 25.1939 69.1523 25.2205 68.8073C25.3943 67.5152 25.2261 66.2339 25.1812 64.9491C25.1373 64.6293 25.0595 64.315 24.9492 64.0116C24.8241 64.1946 24.7509 64.4082 24.7375 64.6295C24.6584 65.5079 24.5907 66.3873 24.5138 67.2659C24.5048 67.8386 24.2991 68.3907 23.9312 68.8295C23.5633 69.2684 23.0556 69.5674 22.4934 69.6762C22.1327 69.7615 21.7638 69.8071 21.3932 69.8121C19.733 69.8207 18.0726 69.8083 16.4123 69.7974C16.2676 69.7964 16.0873 69.8553 15.9721 69.6055C16.5023 69.2955 17.0937 69.1047 17.7051 69.0465C18.6511 68.9343 19.586 68.7424 20.4997 68.4729C21.7489 68.1334 22.0531 67.7315 22.0214 66.4272C21.9541 63.6574 21.7522 60.891 21.8185 58.1176C21.8316 57.5718 21.8204 57.0254 21.8204 56.4793C21.74 56.8565 21.69 57.2396 21.6709 57.6248C21.5804 60.235 21.3783 62.837 21.1167 65.4348C20.9631 66.9605 20.236 67.6595 18.7249 67.8309C17.404 67.9183 16.0781 67.8974 14.7606 67.7684C14.4127 67.8092 14.0607 67.7426 13.7518 67.5774C13.8784 67.3827 14.066 67.3725 14.2273 67.3211C15.3037 66.9784 16.3858 66.6533 17.4578 66.2975C17.78 66.2185 18.0634 66.0274 18.2575 65.7584C18.4516 65.4895 18.5437 65.1602 18.5171 64.8296C18.5216 64.6002 18.5236 64.3695 18.5058 64.141C18.34 62.0118 18.2611 59.8786 18.1955 57.7446C18.1808 57.2689 18.1467 56.7923 18.0888 56.3201C18.0202 55.7603 17.7014 55.4645 17.2126 55.5528C15.7087 55.8244 14.2643 55.5351 12.8282 55.1393C12.6511 55.0904 12.4301 55.1155 12.2992 54.8793C12.5651 54.7455 12.8503 54.6541 13.1444 54.6082C13.9058 54.4547 14.6556 54.2482 15.3884 53.9904C15.8475 53.8261 16.2679 53.5692 16.6237 53.2358C16.9795 52.9024 17.2631 52.4995 17.4569 52.052C17.7217 51.4474 17.6218 51.1079 17.1216 50.8669C12.9022 48.8337 9.64448 45.7193 7.03009 41.8856C5.51909 39.6596 4.38881 37.1979 3.68551 34.6011C3.48391 33.8694 3.22071 33.7078 2.54592 33.8267C1.63319 33.9876 1.35254 33.8444 0.953995 33.0146V22.6266C1.38097 21.7234 1.56404 21.6105 2.54184 21.6479C3.24085 21.6745 3.27706 21.6323 3.46309 20.924C4.64161 16.4372 6.68223 12.4095 9.9254 9.05502C13.8281 5.01838 18.661 2.66843 24.0686 1.39379C25.4311 1.11063 26.8094 0.909209 28.196 0.790588H30.74ZM54.4779 27.4273C54.4895 26.4945 54.4418 25.5618 54.3352 24.635C54.2569 23.9876 54.166 23.3398 54.0372 22.7009C52.2583 13.8788 47.0616 7.75683 39.0025 4.04276C34.3795 1.91228 29.4469 1.55475 24.4829 2.52139C14.8118 4.40461 8.41825 10.2093 5.0174 19.3471C3.71825 22.8378 3.54447 26.507 3.91534 30.2099C4.17567 32.9925 4.92569 35.7072 6.1308 38.2288C7.89359 41.7676 10.4121 44.8761 13.5083 47.3345C14.5258 48.1852 15.6462 48.9046 16.8432 49.4759C17.5425 49.8042 17.577 49.7856 17.5742 49.0396C17.5922 48.563 17.5822 48.0856 17.5443 47.6102C17.1727 44.5752 17.1212 41.5229 17.0428 38.4728C17.0532 38.2649 17.0079 38.058 16.9116 37.8736C16.8152 37.6891 16.6713 37.5337 16.4948 37.4235C15.3339 36.6663 14.389 35.6214 13.752 34.3905C12.9414 32.77 12.74 30.9122 13.1844 29.1557C13.6289 27.3991 14.6896 25.8607 16.1733 24.8207C16.3736 24.7182 16.5374 24.5566 16.6427 24.3577C16.7479 24.1589 16.7894 23.9325 16.7614 23.7092C16.7373 23.2683 16.7692 22.8261 16.8563 22.3932C17.0756 20.7053 17.6445 19.0817 18.5266 17.626C19.4087 16.1704 20.5847 14.9146 21.9794 13.939C23.9474 12.4674 26.3286 11.6526 28.7855 11.6099C30.2175 11.6429 31.6368 11.8882 32.9969 12.3376C37.7833 13.7294 41.4689 18.5011 41.4646 23.3439C41.4427 23.669 41.5044 23.9942 41.6437 24.2886C41.7831 24.5831 41.9956 24.837 42.2608 25.0261C43.6756 26.059 44.6722 27.5657 45.0692 29.2718C45.724 32.4766 44.8231 35.1707 42.1552 37.1122C41.8122 37.3308 41.5374 37.6413 41.3619 38.0082C41.1865 38.3752 41.1174 38.784 41.1626 39.1882C41.1691 39.3291 41.164 39.4709 41.158 39.612C41.0972 41.0397 41.0356 42.4673 40.9733 43.895C40.8977 45.6386 40.565 47.3647 40.6257 49.1183C40.6486 49.7795 40.6433 49.79 41.2227 49.4983C43.9623 48.1207 46.3878 46.192 48.347 43.8331C52.2768 39.136 54.5223 33.7957 54.4779 27.4273ZM20.4273 36.8184C21.1884 36.8289 21.944 36.6886 22.6505 36.4054C23.357 36.1221 24.0004 35.7017 24.5434 35.1684C25.0865 34.6351 25.5185 33.9995 25.8145 33.2982C26.1104 32.597 26.2645 31.844 26.2678 31.0829C26.271 30.3217 26.1234 29.5675 25.8335 28.8637C25.5435 28.16 25.117 27.5207 24.5785 26.9827C24.04 26.4448 23.4003 26.0188 22.6963 25.7296C21.9922 25.4403 21.2378 25.2935 20.4767 25.2975C19.7243 25.2742 18.9748 25.4014 18.2722 25.6717C17.5695 25.942 16.928 26.3499 16.3852 26.8714C15.8423 27.393 15.4091 28.0177 15.1109 28.7089C14.8127 29.4001 14.6556 30.144 14.6488 30.8967C14.6353 34.3118 17.0678 36.8045 20.4273 36.8184ZM37.6735 36.818C38.4311 36.8387 39.185 36.7057 39.8897 36.4269C40.5945 36.1482 41.2354 35.7295 41.7739 35.1962C42.3123 34.6629 42.7371 34.0259 43.0225 33.3239C43.308 32.6218 43.4482 31.8692 43.4347 31.1115C43.4483 30.3535 43.3104 29.6005 43.0292 28.8966C42.748 28.1926 42.329 27.5519 41.7969 27.012C41.2648 26.4721 40.6302 26.0439 39.9304 25.7524C39.2306 25.461 38.4797 25.3122 37.7216 25.3148C36.2019 25.315 34.7433 25.913 33.6609 26.9797C32.5785 28.0465 31.9592 29.4962 31.9369 31.0158C31.9172 31.7776 32.0516 32.5355 32.332 33.244C32.6125 33.9526 33.0333 34.5971 33.569 35.139C34.1048 35.6809 34.7446 36.109 35.4499 36.3975C36.1552 36.686 36.9115 36.829 37.6735 36.818L37.6735 36.818ZM33.2938 42.5829C32.6887 42.996 32.0628 43.3775 31.4184 43.726C30.6904 44.1155 29.873 44.3072 29.0478 44.2818C28.2225 44.2564 27.4184 44.0149 26.7158 43.5814C26.2458 43.3031 25.8003 42.9839 25.3356 42.6963C25.1963 42.6101 25.0625 42.3885 24.8875 42.511C24.7573 42.6022 24.8607 42.8067 24.8853 42.9609C24.9967 43.4956 25.0787 44.0361 25.1308 44.5798C25.1599 45.3594 25.3759 46.1207 25.7608 46.7993C26.1456 47.4779 26.6879 48.0541 27.3421 48.4792C27.6719 48.7337 28.0524 48.9148 28.4579 49.0103C28.8635 49.1057 29.2848 49.1133 29.6935 49.0327C30.5482 48.8285 31.3228 48.3746 31.9187 47.7288C32.5147 47.0831 32.9051 46.2746 33.0401 45.4063C33.1698 44.6136 33.0538 43.7883 33.3656 43.0176C33.3977 42.9461 33.408 42.8667 33.3952 42.7894C33.3824 42.7121 33.3471 42.6403 33.2938 42.5829V42.5829Z" fill="#9CA3AF"/>
<path d="M157.834 32.4846C157.352 34.4377 156.679 36.3116 155.404 37.9015C152.788 41.1645 149.378 42.7392 145.199 42.4545C142.37 42.2427 139.717 40.998 137.746 38.9574C135.774 36.9167 134.622 34.2225 134.508 31.3875C134.394 28.5525 135.327 25.7745 137.128 23.5823C138.929 21.3901 141.474 19.9367 144.277 19.4986C147.215 19.0474 150.215 19.7236 152.675 21.3916C155.136 23.0597 156.874 25.5962 157.543 28.4925C157.653 28.9366 157.737 29.3871 157.834 29.8346V32.4846ZM146.128 37.2498C146.966 37.2688 147.799 37.1203 148.579 36.8129C149.358 36.5054 150.069 36.0453 150.668 35.4596C151.267 34.8739 151.744 34.1743 152.069 33.402C152.394 32.6296 152.562 31.8001 152.562 30.9621C152.591 27.3263 149.71 24.6382 146.139 24.5817C145.301 24.5717 144.47 24.7279 143.693 25.0413C142.916 25.3548 142.209 25.8193 141.613 26.4079C141.016 26.9965 140.543 27.6975 140.219 28.4703C139.896 29.2432 139.729 30.0725 139.728 30.9103C139.728 31.7481 139.893 32.5778 140.215 33.3512C140.537 34.1246 141.01 34.8264 141.605 35.416C142.2 36.0056 142.906 36.4713 143.683 36.7861C144.459 37.1008 145.29 37.2585 146.128 37.2498L146.128 37.2498Z" fill="#9CA3AF"/>
<path d="M132.744 36.5591C132.734 38.7124 132.804 40.8708 132.622 43.0167C132.507 44.7712 131.978 46.4735 131.078 47.9842C130.179 49.4949 128.934 50.7711 127.447 51.7084C124.898 53.4025 122.065 54.1509 119.027 53.586C116.969 53.1819 115.055 52.243 113.475 50.8638C112.238 49.8536 111.258 48.5647 110.615 47.1027C109.862 45.3264 110.81 43.7078 112.713 43.4356C113.048 43.4009 113.386 43.4422 113.703 43.5565C114.019 43.6708 114.306 43.8552 114.541 44.0959C115.151 44.6257 115.512 45.35 116.02 45.9592C118.431 48.8521 122.561 49.4271 125.397 46.7756C127.041 45.2383 127.548 43.3143 127.387 41.1458C127.364 40.832 127.206 40.7291 126.928 40.8621C126.578 41.0293 126.248 41.2384 125.895 41.3978C124.392 42.1017 122.754 42.4732 121.094 42.4868C119.434 42.5004 117.791 42.1559 116.276 41.4767C114.762 40.7976 113.411 39.7997 112.317 38.5513C111.223 37.3028 110.411 35.8331 109.937 34.2423C109.462 32.6516 109.336 30.9772 109.568 29.3334C109.799 27.6896 110.382 26.115 111.277 24.717C112.172 23.319 113.359 22.1305 114.755 21.2326C116.151 20.3347 117.724 19.7484 119.368 19.5137C123.092 19.0537 126.389 20.0044 129.112 22.6096C130.181 23.607 131.044 24.8053 131.65 26.1359C132.256 27.4666 132.594 28.9036 132.644 30.365C132.743 32.4292 132.734 34.494 132.744 36.5591ZM121.017 37.2498C121.86 37.2695 122.698 37.1194 123.482 36.8084C124.265 36.4974 124.978 36.0319 125.578 35.4395C126.178 34.8471 126.652 34.1401 126.973 33.3605C127.294 32.5809 127.454 31.7447 127.445 30.9017C127.449 27.2346 124.499 24.6052 121.025 24.5738C120.187 24.5644 119.355 24.7213 118.578 25.0354C117.801 25.3495 117.094 25.8145 116.498 26.4036C115.902 26.9927 115.429 27.6941 115.106 28.4673C114.783 29.2405 114.616 30.0701 114.616 30.9081C114.615 31.7461 114.781 32.5758 115.103 33.3494C115.425 34.123 115.898 34.8249 116.493 35.4147C117.089 36.0044 117.795 36.4703 118.572 36.7853C119.348 37.1003 120.179 37.2582 121.017 37.2498V37.2498Z" fill="#9CA3AF"/>
<path d="M94.1592 35.002C94.1585 36.6796 94.184 38.3577 94.1512 40.0346C94.1343 40.4148 94.0324 40.7863 93.8528 41.1217C93.6733 41.4572 93.4207 41.7481 93.1137 41.9729C92.8067 42.1977 92.4532 42.3507 92.0792 42.4207C91.7052 42.4906 91.3202 42.4757 90.9527 42.377C90.5085 42.2479 90.118 41.9784 89.8397 41.6089C89.1426 40.7138 89.0679 40.7007 88.0458 41.2267C85.4845 42.5001 82.5499 42.8077 79.7802 42.093C77.0105 41.3783 74.5911 39.6893 72.9657 37.3356C68.53 30.6735 72.3384 21.417 80.2049 19.74C86.7689 18.3406 92.701 22.2661 93.9985 28.8684C94.1666 30.0396 94.2206 31.2244 94.1598 32.4061C94.1608 33.2714 94.1606 34.1367 94.1592 35.002ZM82.7401 37.2499C86.3918 37.2525 89.016 34.6835 89.0189 31.1029C89.0219 27.4942 86.3038 24.6564 82.8338 24.6455C81.1109 24.648 79.4572 25.3242 78.2262 26.5297C76.9951 27.7351 76.2843 29.3742 76.2455 31.0967C76.2419 34.5281 79.112 37.2473 82.7401 37.2499Z" fill="#9CA3AF"/>
<path d="M96.1111 34.9134C96.1105 33.5536 96.0993 32.1937 96.1125 30.834C96.148 28.1694 97.102 25.5986 98.8135 23.556C100.525 21.5133 102.889 20.1239 105.506 19.6224C106.416 19.394 107.364 19.3602 108.288 19.5235C108.808 19.6044 109.286 19.8545 109.65 20.2352C110.013 20.6159 110.24 21.1058 110.296 21.6289C110.359 22.1313 110.269 22.6408 110.039 23.0918C109.809 23.5427 109.449 23.9142 109.005 24.1584C108.486 24.465 107.899 24.6394 107.296 24.6666C105.685 24.7042 104.155 25.3796 103.042 26.5445C101.929 27.7093 101.323 29.2685 101.359 30.8793C101.344 33.599 101.344 36.3187 101.341 39.0384C101.347 39.5862 101.278 40.1321 101.136 40.6612C101.013 41.1917 100.709 41.6631 100.278 41.9954C99.8461 42.3277 99.3127 42.5004 98.7682 42.4841C98.2156 42.5347 97.6633 42.3842 97.2128 42.0602C96.7623 41.7362 96.4438 41.2605 96.316 40.7205C96.1712 40.2286 96.1019 39.7177 96.1104 39.205C96.1143 37.7745 96.1117 36.3439 96.1111 34.9134Z" fill="#9CA3AF"/>
<path d="M7.1565 27.9369C7.11919 24.6567 7.58155 21.8184 8.76391 19.1218C10.5995 14.9301 13.7011 11.4181 17.6338 9.07855C17.8513 8.95526 18.1037 8.90778 18.3511 8.94358C18.5986 8.97938 18.8271 9.09644 19.0008 9.27632C19.1813 9.45672 19.1081 9.62783 19.0326 9.8087C18.7362 10.4577 18.2337 10.9904 17.6031 11.3241C14.3906 13.2278 12.1583 16.0012 10.5882 19.3284C9.2561 22.0954 8.62345 25.1471 8.7458 28.2156C8.85664 32.0562 10.1144 35.7757 12.3571 38.8954C12.6196 39.2073 12.7971 39.5817 12.8725 39.9823C12.9027 40.2216 13.0466 40.4838 12.7809 40.6613C12.6586 40.7502 12.5165 40.808 12.3668 40.8297C12.2172 40.8513 12.0645 40.8361 11.922 40.7854C11.6396 40.6762 11.397 40.4837 11.2263 40.2336C9.06025 37.3968 7.6925 34.0322 7.26492 30.4887C7.15567 29.5195 7.25039 28.5468 7.1565 27.9369Z" fill="#9CA3AF"/>
<path d="M19.8992 7.75707C19.896 7.60767 19.9229 7.45916 19.9782 7.32035C20.0336 7.18155 20.1162 7.05527 20.2213 6.94903C20.3264 6.84279 20.4518 6.75875 20.59 6.70191C20.7281 6.64506 20.8764 6.61656 21.0258 6.6181C21.3685 6.66212 21.6834 6.82979 21.9112 7.0896C22.139 7.34941 22.2641 7.68348 22.263 8.02903C22.2736 8.43743 21.3447 9.18936 20.8465 9.17567C20.2859 9.16026 19.8992 8.58119 19.8992 7.75707Z" fill="#9CA3AF"/>
<path d="M18.5145 30.0246C18.4979 29.5437 18.6725 29.0757 19.0002 28.7232C19.3278 28.3707 19.7818 28.1624 20.2627 28.1438C20.5193 28.1314 20.7759 28.1708 21.017 28.2597C21.2581 28.3485 21.4789 28.4849 21.6662 28.6608C21.8535 28.8368 22.0035 29.0486 22.1072 29.2837C22.211 29.5188 22.2663 29.7724 22.27 30.0293C22.2747 30.2779 22.2282 30.5248 22.1336 30.7546C22.0389 30.9845 21.898 31.1925 21.7197 31.3657C21.5413 31.5389 21.3293 31.6737 21.0967 31.7616C20.8642 31.8495 20.616 31.8887 20.3677 31.8768C20.1198 31.8948 19.8709 31.8593 19.6379 31.7727C19.4049 31.686 19.1934 31.5502 19.0176 31.3745C18.8417 31.1988 18.7058 30.9873 18.619 30.7543C18.5322 30.5214 18.4965 30.2726 18.5145 30.0246V30.0246Z" fill="#9CA3AF"/>
<path d="M37.8556 31.877C37.6029 31.8911 37.3501 31.8505 37.1145 31.7579C36.8789 31.6654 36.6661 31.5231 36.4905 31.3407C36.315 31.1584 36.1808 30.9403 36.0973 30.7014C36.0137 30.4625 35.9827 30.2084 36.0063 29.9564C36.02 29.4855 36.2095 29.0368 36.5375 28.6987C36.8656 28.3607 37.3084 28.1577 37.7786 28.1299C38.2969 28.1195 38.798 28.3153 39.172 28.6744C39.5459 29.0334 39.7619 29.5262 39.7726 30.0444C39.7739 30.2927 39.7245 30.5385 39.6276 30.767C39.5306 30.9956 39.3881 31.2019 39.2086 31.3734C39.0292 31.5449 38.8167 31.6781 38.584 31.7647C38.3514 31.8512 38.1035 31.8895 37.8556 31.877V31.877Z" fill="#9CA3AF"/>
</svg>
