<svg id="Logos" xmlns="http://www.w3.org/2000/svg" xmlns:xlink="http://www.w3.org/1999/xlink" width="80" height="80" viewBox="0 0 80 80"><defs><style>.cls-1{fill:url(#linear-gradient);}.cls-2{fill:url(#linear-gradient-2);}</style><linearGradient id="linear-gradient" x1="69.79" y1="75.81" x2="28.43" y2="52.04" gradientUnits="userSpaceOnUse"><stop offset="0" stop-color="#0052cc"/><stop offset="0.92" stop-color="#2380fb"/><stop offset="1" stop-color="#2684ff"/></linearGradient><linearGradient id="linear-gradient-2" x1="14060.02" y1="2692.27" x2="14018.65" y2="2668.5" gradientTransform="translate(14070.27 2696.54) rotate(180)" xlink:href="#linear-gradient"/></defs><title>confluence-icon-gradient-blue</title><path class="cls-1" d="M9.37,56.75c-.68,1.11-1.45,2.41-2.06,3.44A2.1,2.1,0,0,0,8,63l13.67,8.44a2.1,2.1,0,0,0,2.91-.71c.55-.92,1.25-2.11,2-3.38C32,58.45,37.49,59.54,47.3,64.21l13.56,6.44a2.1,2.1,0,0,0,2.83-1.05L70.2,54.9a2.11,2.11,0,0,0-1-2.75c-2.86-1.35-8.55-4-13.65-6.5C37,36.69,21.35,37.28,9.37,56.75Z"/><path class="cls-2" d="M70.67,23.34c.69-1.11,1.46-2.41,2.06-3.44A2.09,2.09,0,0,0,72,17.05L58.35,8.61a2.1,2.1,0,0,0-2.91.71c-.54.92-1.25,2.11-2,3.38C48,21.64,42.56,20.55,32.74,15.88L19.19,9.44a2.1,2.1,0,0,0-2.83,1L9.85,25.18a2.11,2.11,0,0,0,1,2.76c2.87,1.35,8.56,4,13.65,6.5C43,43.4,58.7,42.81,70.67,23.34Z"/></svg>