<svg id="Layer_1" data-name="Layer 1" xmlns="http://www.w3.org/2000/svg" viewBox="0 0 700 149"><defs><style>.cls-1{fill:#fff;}</style></defs><path id="Shape" class="cls-1" d="M197.59,89.07c4.38-3.44,5-1.49,8.87,2.41,1.9,2,6.84,5.28,3.7,8.15a33.55,33.55,0,0,1-48-3.67A34.94,34.94,0,0,1,154,72.09,33.66,33.66,0,0,1,165,48a34,34,0,0,1,22.88-7.92,33.77,33.77,0,0,1,19.3,6.43c4.49,3.44,2.47,5.62-1.12,9.18l-2.36,2.41c-1.79,1.84-3,3.1-5.38,1.5a19.05,19.05,0,0,0-15.82-3.45c-17.62,4.71-16.61,36.73,4.93,36.73A17.94,17.94,0,0,0,197.59,89.07Zm489.24,17.56a5.45,5.45,0,0,1-5.39-5.51V30.19a5.46,5.46,0,0,1,5.39-5.51h5.72a5.45,5.45,0,0,1,5.38,5.51v71.05a5.45,5.45,0,0,1-5.38,5.51Zm-30.18-8a27.92,27.92,0,0,1-21.09,9.18c-17.95,0-26.48-15.15-26.48-32.14V46.83a5.45,5.45,0,0,1,5.39-5.5h5.72a5.44,5.44,0,0,1,5.38,5.5v28.7a15,15,0,0,0,12.68,16.76,13.13,13.13,0,0,0,2.13.11,16.47,16.47,0,0,0,15.82-17V46.83a5.45,5.45,0,0,1,5.38-5.5h5.73a5.45,5.45,0,0,1,5.38,5.5v54.52a5.33,5.33,0,0,1-5.27,5.4h-4.83a5.49,5.49,0,0,1-5.27-5.4V98.6Zm-68.88-57H599a5.43,5.43,0,0,1,5.27,5.51v3.79A5.43,5.43,0,0,1,599,56.36H587.77v44.88a5.46,5.46,0,0,1-5.39,5.51h-5.72a5.44,5.44,0,0,1-5.38-5.51v-62c-1.13-13,8.19-24.33,20.75-25.48h9a5.43,5.43,0,0,1,5.27,5.51v3.44A5.43,5.43,0,0,1,601,28.24h-4.27c-6.39,0-9.08,5.05-9.08,11.13Zm-39.94,0h12.23a5.33,5.33,0,0,1,5.27,5.4v3.67a5.33,5.33,0,0,1-5.27,5.4H547.83V83.45c0,5.28,2.47,8.38,7.74,8.38H558a5.32,5.32,0,0,1,5.27,5.39v3.68a5.32,5.32,0,0,1-5.27,5.39h-7.41c-13.23-.8-19.18-9.64-19.18-22.84V30.31a5.33,5.33,0,0,1,5.27-5.4h5.61a5.33,5.33,0,0,1,5.28,5.4Zm-177,0H383a5.34,5.34,0,0,1,5.28,5.4v3.67A5.33,5.33,0,0,1,383,56H371.14V83.45c0,5.28,2.47,8.38,7.74,8.38h2.47a5.32,5.32,0,0,1,5.27,5.39v3.68a5.32,5.32,0,0,1-5.27,5.39h-3.7c-14.47,0-22.78-6.31-22.78-23v-53a5.33,5.33,0,0,1,5.28-5.4h5.61a5.33,5.33,0,0,1,5.27,5.4V41.55ZM299,49.47a28.39,28.39,0,0,1,20.41-9.18c17.84,0,27.26,15,27.26,32.14v28.81a5.45,5.45,0,0,1-5.38,5.51h-5.72a5.45,5.45,0,0,1-5.39-5.51V72.54a14.93,14.93,0,0,0-12.67-16.75,12.74,12.74,0,0,0-2.13-.12,16.3,16.3,0,0,0-15.71,17v28.46a5.33,5.33,0,0,1-5.27,5.4H288.8a5.33,5.33,0,0,1-5.27-5.4V46.72a5.32,5.32,0,0,1,5.27-5.39h4.82a5.47,5.47,0,0,1,5.27,5.39l.12,2.75Zm177.13,0a28.43,28.43,0,0,1,20.42-9.18c17.84,0,27.26,15,27.26,32.14v28.81a5.45,5.45,0,0,1-5.38,5.51h-5.72a5.45,5.45,0,0,1-5.39-5.51V72.54a14.93,14.93,0,0,0-12.67-16.75,12.8,12.8,0,0,0-2.14-.12,16.3,16.3,0,0,0-15.7,17v28.46a5.33,5.33,0,0,1-5.27,5.4h-5.73a5.33,5.33,0,0,1-5.27-5.4V46.72a5.33,5.33,0,0,1,5.27-5.39h4.83a5.48,5.48,0,0,1,5.27,5.39v2.87ZM244.6,40.06c-17.73-.57-32.54,13.55-33.1,31.68v2.41c0,18.83,14.92,34,33.21,34s33.21-15.27,33.21-34c.56-18.25-13.35-33.51-31.19-34.09ZM405.69,80.24A16.68,16.68,0,0,0,424,93.09a30.57,30.57,0,0,0,12-2.75l1.8-.92c2-1.15,3.81-1.84,5.61,0l2.91,3c.9.92,1.8,1.95,2.58,2.87,2.7,3.44.79,4.36-2.24,6.43a41.17,41.17,0,0,1-23,7c-21.09,0-35.11-13.08-35.11-34.89-.79-18,12.79-33.4,30.51-34.21h3.59c20.42,0,32.2,12.28,32.54,33.29,0,5.74.33,7.57-5.5,7.57ZM245.16,55.33a17.66,17.66,0,0,1,17,18.25V74A17.2,17.2,0,0,1,247,92.75a17,17,0,0,1-18.28-15.61,14.6,14.6,0,0,1,0-3.1,17.06,17.06,0,0,1,15.48-18.6h1.23ZM406.48,66h32.76a14.11,14.11,0,0,0-15.93-11.7A17.09,17.09,0,0,0,406.48,66Z"/><path class="cls-1" d="M54.09,20.62a19.53,19.53,0,0,1,5,19.1,39.5,39.5,0,0,1,20.38-5.64h.15a39.67,39.67,0,0,1,28.07,11.77l0,0a15.62,15.62,0,1,0,22.17-22,70.79,70.79,0,0,0-50.15-21h-.27A70.63,70.63,0,0,0,39.84,14.9h.44A19.41,19.41,0,0,1,54.09,20.62Z"/><path class="cls-1" d="M118.49,97.54a15.59,15.59,0,0,0-11,4.53h0v0a39.66,39.66,0,0,1-28,11.55h-.15a39.41,39.41,0,0,1-20.4-5.73,19.74,19.74,0,0,1,.7,5.22,19.53,19.53,0,0,1-19.53,19.53h-.51a70.61,70.61,0,0,0,39.63,12.25h.27a70.69,70.69,0,0,0,50-20.62,15.62,15.62,0,0,0-11-26.71Z"/><path class="cls-1" d="M26.28,99.29a19.39,19.39,0,0,1,13.81-5.72,19.86,19.86,0,0,1,5.29.72,39.65,39.65,0,0,1,.08-41A19.54,19.54,0,0,1,20.75,34.43V33.9a71,71,0,0,0-.19,79.61v-.41A19.39,19.39,0,0,1,26.28,99.29Z"/><path class="cls-1" d="M40.28,18.37c-4.44,0-7.55,1.84-11.32,5.61-3.59,3.58-4.72,6.72-4.73,10.45A16.05,16.05,0,1,0,40.28,18.37Z"/><path class="cls-1" d="M24,113.12c0,4.43,1.84,7.55,5.6,11.31,3.59,3.59,6.72,4.73,10.45,4.74a16,16,0,1,0-16.05-16Z"/></svg>