<svg width="722" height="762" viewBox="0 0 722 762" fill="none" xmlns="http://www.w3.org/2000/svg">
<g filter="url(#filter0_d)">
<path d="M357.587 26.0807C173.394 28.3311 25.0926 189.257 26.9709 384.81C28.8493 580.371 180.214 737.628 364.406 735.378C548.606 733.128 696.907 572.209 695.029 376.648C693.15 181.095 541.786 23.8303 357.587 26.0807ZM364.007 694.459C201.077 696.449 67.1705 557.337 65.5088 384.34C63.8472 211.349 195.05 68.9978 357.98 67.0072C520.909 65.0166 654.823 204.129 656.484 377.119C658.146 550.117 526.943 692.468 364.007 694.459Z" fill="white"/>
<path d="M324.336 200.262C318.745 194.462 310.439 192.803 303.277 196.084C296.115 199.336 291.481 206.866 291.56 215.139L294.759 548.038C294.838 556.312 299.616 563.719 306.839 566.81C309.236 567.838 311.747 568.311 314.234 568.281C319.248 568.22 324.154 566.081 327.813 562.119L483.001 393.744C490.458 385.662 490.334 372.705 482.723 364.807L324.336 200.262ZM332.847 498.131L330.598 264.084L441.959 379.768L332.847 498.131Z" fill="white"/>
</g>
<defs>
<filter id="filter0_d" x="0.953125" y="0.0566406" width="720.093" height="761.345" filterUnits="userSpaceOnUse" color-interpolation-filters="sRGB">
<feFlood flood-opacity="0" result="BackgroundImageFix"/>
<feColorMatrix in="SourceAlpha" type="matrix" values="0 0 0 0 0 0 0 0 0 0 0 0 0 0 0 0 0 0 127 0"/>
<feOffset/>
<feGaussianBlur stdDeviation="13"/>
<feColorMatrix type="matrix" values="0 0 0 0 0 0 0 0 0 0 0 0 0 0 0 0 0 0 1 0"/>
<feBlend mode="normal" in2="BackgroundImageFix" result="effect1_dropShadow"/>
<feBlend mode="normal" in="SourceGraphic" in2="effect1_dropShadow" result="shape"/>
</filter>
</defs>
</svg>
