<svg width="462" height="725" viewBox="0 0 462 725" fill="none" xmlns="http://www.w3.org/2000/svg">
<path d="M443.774 346.414H422.26V370.107L437.321 439.057L382.627 609.579H125.654L101.986 633.272H399.892L461.695 440.543L443.774 346.414Z" fill="black"/>
<path d="M145.818 277.823H169.486V63.3822L150.14 0.0183716H63.3431L42.3003 63.2335V325.197H65.9564V67.073L80.3978 23.6993H132.627L145.818 66.9244V277.823Z" fill="black"/>
<path d="M339.934 357.263H360.383V118.312L371.715 84.264H407.509L422.149 122.758V357.263H445.817V118.423L423.833 60.5707H354.661L336.714 114.472V376.461H339.934V357.263Z" fill="black"/>
<path d="M232.082 208.007H175.258L145.818 229.347V274.863H169.486V241.447L182.924 231.688H225.208L241.272 241.906V394.593L226.509 420.441H186.838L170.799 400.204H145.818V406.805L175.406 444.122H240.244L264.928 400.885V228.876L232.082 208.007Z" fill="black"/>
<path d="M281.772 396.748H322.384L336.714 374.504V241.906L320.65 231.688H278.379L264.928 241.447V378.331L281.772 396.748ZM335.265 420.441H271.356L241.272 387.533V229.347L270.712 208.007H327.524L360.383 228.876V381.477L335.265 420.441Z" fill="black"/>
<path d="M379.431 701.113V635.272H125.654V701.113H379.431ZM403.1 724.807H101.986V611.579H403.1V724.807Z" fill="black"/>
<path d="M219.969 633.272H108.5L0.437622 511.586V334.499L186.751 244.11L242.61 292.525L215.374 365.314L163.653 409.022L228.02 469.005L211.906 486.344L127.995 408.155L195.384 351.207L214.681 299.646L183.048 272.225L24.1062 349.349V502.581L119.127 609.579H219.969V633.272Z" fill="black"/>
</svg>
