<svg width="334" height="512" viewBox="0 0 334 512" fill="none" xmlns="http://www.w3.org/2000/svg">
<path d="M311.242 244.568H297.212V260.64L307.034 307.409L271.366 423.077H103.784L88.3486 439.148H282.625L322.929 308.417L311.242 244.568Z" fill="#F97316" stroke="#F97316" stroke-width="20"/>
<path d="M108.564 198.346H124.611V52.9593L111.495 10H52.6484L38.3818 52.8586V230.465H54.4202V55.4616L64.2112 26.0552H99.6216L108.564 55.3609V198.346Z" fill="#F97316" stroke="#F97316" stroke-width="20"/>
<path d="M240.172 252.205H254.035V90.2003L261.718 67.1168H285.986L295.911 93.2148V252.205H311.958V90.2759L297.053 51.0532H250.156L237.988 87.5972V265.22H240.172V252.205Z" fill="#F97316" stroke="#F97316" stroke-width="20"/>
<path d="M167.05 151.012H128.524L108.564 165.48V196.339H124.611V173.684L133.722 167.067H162.39L173.281 173.994V277.513L163.271 295.038H136.375L125.501 281.317H108.564V285.793L128.625 311.093H172.584L189.319 281.779V165.161L167.05 151.012Z" fill="#F97316" stroke="#F97316" stroke-width="20"/>
<path d="M200.74 278.974H228.274L237.989 263.893V173.994L227.098 167.067H198.439L189.32 173.684V266.488L200.74 278.974ZM237.006 295.038H193.678L173.281 272.727V165.48L193.241 151.012H231.758L254.036 165.161V268.621L237.006 295.038Z" fill="#F97316" stroke="#F97316" stroke-width="20"/>
<path d="M266.95 485.327V440.689H94.8944V485.327H266.95ZM282.997 501.391H78.8477V424.625H282.997V501.391Z" fill="#F97316" stroke="#F97316" stroke-width="20"/>
<path d="M158.838 439.333H83.2643L10 356.832V236.771L136.317 175.489L174.188 208.313L155.722 257.663L120.656 287.296L164.296 327.963L153.371 339.719L96.4813 286.708L142.17 248.099L155.252 213.142L133.806 194.551L26.0468 246.839V350.727L90.469 423.27H158.838V439.333Z" fill="#F97316" stroke="#F97316" stroke-width="20"/>
</svg>
