<svg width="385" height="58" viewBox="0 0 385 58" fill="none" xmlns="http://www.w3.org/2000/svg">
<g clip-path="url(#clip0)">
<rect width="385" height="58" fill="white"/>
<path d="M27.96 12.504H14.208V30.36H27.96C33.504 30.36 37.32 27.192 37.32 21.504C37.32 15.6 33.72 12.504 27.96 12.504ZM27.96 28.848H15.72V14.016H27.96C32.856 14.016 35.808 16.464 35.808 21.504C35.808 26.328 32.64 28.848 27.96 28.848ZM38.76 40.008C46.248 36.624 49.848 29.352 49.848 21.36C49.848 8.472 41.496 0.767999 28.752 0.767999H1.248V57.072H15.72V42.024H22.92L33.576 57.072H51L38.76 40.008ZM23.712 40.512H14.208V55.56H2.76V2.28H28.752C40.632 2.28 48.336 9.264 48.336 21.36C48.336 28.776 45.024 35.472 38.112 38.712L36.528 39.432L48.048 55.56H34.368L23.712 40.512ZM100.183 12.216C90.9668 12.216 83.4788 19.704 83.4788 28.92C83.4788 38.496 91.1108 45.624 100.543 45.624C109.759 45.624 116.887 37.92 116.887 28.848C116.887 19.56 109.471 12.216 100.183 12.216ZM100.183 44.112C91.7588 44.112 84.9908 37.344 84.9908 28.92C84.9908 20.496 91.7588 13.728 100.183 13.728C108.679 13.728 115.375 20.424 115.375 28.92C115.375 37.416 108.679 44.112 100.183 44.112ZM100.183 -0.312005C84.0548 -0.312005 70.3028 12.648 70.3028 28.92C70.3028 45.192 84.0548 58.152 100.183 58.152C116.383 58.152 130.063 45.264 130.063 28.92C130.063 12.576 116.383 -0.312005 100.183 -0.312005ZM100.183 56.64C84.9908 56.64 71.8148 44.328 71.8148 28.92C71.8148 13.512 84.9908 1.2 100.183 1.2C115.519 1.2 128.551 13.368 128.551 28.92C128.551 44.472 115.519 56.64 100.183 56.64ZM174.466 15.168L166.186 37.2H182.674L174.466 15.168ZM168.346 35.688L174.466 19.488L180.514 35.688H168.346ZM181.666 0.767999H167.266V0.839998L144.442 57.072H160.354L163.45 48.864H185.41L188.506 57.072H204.346L181.666 0.767999ZM186.49 47.352H162.37L159.274 55.56H146.746L168.274 2.28H180.586L202.114 55.56H189.586L186.49 47.352ZM250.109 13.368H238.085V44.544H250.181C259.685 44.544 264.653 37.92 264.653 28.848C264.653 19.776 259.541 13.368 250.109 13.368ZM250.109 43.032H239.597V14.88H250.109C258.677 14.88 263.141 20.712 263.141 28.92C263.141 37.2 258.749 43.032 250.109 43.032ZM251.189 0.767999H225.053V57.072H251.189C268.037 57.072 277.829 45.264 277.829 28.92C277.829 12.648 267.965 0.767999 251.189 0.767999ZM251.189 55.56H226.565V2.28H251.189C267.101 2.28 276.317 13.512 276.317 28.92C276.317 44.4 267.173 55.56 251.189 55.56ZM300.498 0.767999V57.072H315.042V0.767999H300.498ZM313.53 55.56H302.01V2.28H313.53V55.56ZM383.356 14.88V0.767999H340.084V57.072H383.356V43.032H354.628V35.976H378.244V22.8H354.628V14.88H383.356ZM376.732 24.312V34.464H353.116V44.544H381.844V55.56H341.596V2.28H381.844V13.368H353.116V24.312H376.732Z" fill="black"/>
<path d="M14.208 12.504V12.004H13.708V12.504H14.208ZM14.208 30.36H13.708V30.86H14.208V30.36ZM15.72 28.848H15.22V29.348H15.72V28.848ZM15.72 14.016V13.516H15.22V14.016H15.72ZM38.76 40.008L38.5541 39.5524L37.9981 39.8036L38.3537 40.2994L38.76 40.008ZM1.248 0.767999V0.267999H0.748V0.767999H1.248ZM1.248 57.072H0.748V57.572H1.248V57.072ZM15.72 57.072V57.572H16.22V57.072H15.72ZM15.72 42.024V41.524H15.22V42.024H15.72ZM22.92 42.024L23.3281 41.735L23.1786 41.524H22.92V42.024ZM33.576 57.072L33.168 57.361L33.3174 57.572H33.576V57.072ZM51 57.072V57.572H51.974L51.4063 56.7806L51 57.072ZM23.712 40.512L24.1201 40.223L23.9706 40.012H23.712V40.512ZM14.208 40.512V40.012H13.708V40.512H14.208ZM14.208 55.56V56.06H14.708V55.56H14.208ZM2.76 55.56H2.26V56.06H2.76V55.56ZM2.76 2.28V1.78H2.26V2.28H2.76ZM38.112 38.712L38.3189 39.1672L38.3242 39.1647L38.112 38.712ZM36.528 39.432L36.3211 38.9768L35.768 39.2282L36.1211 39.7226L36.528 39.432ZM48.048 55.56V56.06H49.0196L48.4549 55.2694L48.048 55.56ZM34.368 55.56L33.96 55.849L34.1094 56.06H34.368V55.56ZM27.96 12.004H14.208V13.004H27.96V12.004ZM13.708 12.504V30.36H14.708V12.504H13.708ZM14.208 30.86H27.96V29.86H14.208V30.86ZM27.96 30.86C30.8244 30.86 33.2956 30.0409 35.056 28.4343C36.8228 26.8221 37.82 24.4655 37.82 21.504H36.82C36.82 24.2305 35.9092 26.3019 34.382 27.6957C32.8484 29.0951 30.6396 29.86 27.96 29.86V30.86ZM37.82 21.504C37.82 18.4482 36.8854 16.0524 35.1412 14.4245C33.4024 12.8016 30.9256 12.004 27.96 12.004V13.004C30.7545 13.004 32.9576 13.7544 34.4588 15.1555C35.9546 16.5516 36.82 18.6558 36.82 21.504H37.82ZM27.96 28.348H15.72V29.348H27.96V28.348ZM16.22 28.848V14.016H15.22V28.848H16.22ZM15.72 14.516H27.96V13.516H15.72V14.516ZM27.96 14.516C30.3311 14.516 32.1541 15.1088 33.3815 16.238C34.6017 17.3606 35.308 19.0826 35.308 21.504H36.308C36.308 18.8854 35.5383 16.8634 34.0585 15.502C32.5859 14.1472 30.4849 13.516 27.96 13.516V14.516ZM35.308 21.504C35.308 23.8009 34.5579 25.4911 33.3055 26.6125C32.0449 27.7413 30.2147 28.348 27.96 28.348V29.348C30.3853 29.348 32.4791 28.6947 33.9725 27.3575C35.4741 26.0129 36.308 24.0311 36.308 21.504H35.308ZM38.9659 40.4636C46.6727 36.9807 50.348 29.5007 50.348 21.36H49.348C49.348 29.2033 45.8233 36.2673 38.5541 39.5524L38.9659 40.4636ZM50.348 21.36C50.348 14.8048 48.2211 9.51766 44.4254 5.87046C40.6324 2.2258 35.2243 0.267999 28.752 0.267999V1.268C35.0237 1.268 40.1636 3.1622 43.7326 6.59153C47.2989 10.0183 49.348 15.0272 49.348 21.36H50.348ZM28.752 0.267999H1.248V1.268H28.752V0.267999ZM0.748 0.767999V57.072H1.748V0.767999H0.748ZM1.248 57.572H15.72V56.572H1.248V57.572ZM16.22 57.072V42.024H15.22V57.072H16.22ZM15.72 42.524H22.92V41.524H15.72V42.524ZM22.512 42.313L33.168 57.361L33.9841 56.783L23.3281 41.735L22.512 42.313ZM33.576 57.572H51V56.572H33.576V57.572ZM51.4063 56.7806L39.1663 39.7166L38.3537 40.2994L50.5937 57.3634L51.4063 56.7806ZM23.712 40.012H14.208V41.012H23.712V40.012ZM13.708 40.512V55.56H14.708V40.512H13.708ZM14.208 55.06H2.76V56.06H14.208V55.06ZM3.26 55.56V2.28H2.26V55.56H3.26ZM2.76 2.78H28.752V1.78H2.76V2.78ZM28.752 2.78C34.5953 2.78 39.3564 4.49626 42.6537 7.64557C45.9476 10.7918 47.836 15.4211 47.836 21.36H48.836C48.836 15.2029 46.8724 10.2922 43.3444 6.92243C39.8196 3.55573 34.7887 1.78 28.752 1.78V2.78ZM47.836 21.36C47.836 28.6261 44.5995 35.1188 37.8998 38.2593L38.3242 39.1647C45.4485 35.8252 48.836 28.9259 48.836 21.36H47.836ZM37.9051 38.2568L36.3211 38.9768L36.7349 39.8872L38.3189 39.1672L37.9051 38.2568ZM36.1211 39.7226L47.6411 55.8506L48.4549 55.2694L36.9349 39.1414L36.1211 39.7226ZM48.048 55.06H34.368V56.06H48.048V55.06ZM34.7761 55.271L24.1201 40.223L23.304 40.801L33.96 55.849L34.7761 55.271ZM100.183 11.716C90.6906 11.716 82.9788 19.4279 82.9788 28.92H83.9788C83.9788 19.9801 91.2429 12.716 100.183 12.716V11.716ZM82.9788 28.92C82.9788 38.7888 90.8515 46.124 100.543 46.124V45.124C91.37 45.124 83.9788 38.2032 83.9788 28.92H82.9788ZM100.543 46.124C110.055 46.124 117.387 38.1761 117.387 28.848H116.387C116.387 37.6639 109.463 45.124 100.543 45.124V46.124ZM117.387 28.848C117.387 19.281 109.744 11.716 100.183 11.716V12.716C109.197 12.716 116.387 19.839 116.387 28.848H117.387ZM100.183 43.612C92.0349 43.612 85.4908 37.0679 85.4908 28.92H84.4908C84.4908 37.6201 91.4826 44.612 100.183 44.612V43.612ZM85.4908 28.92C85.4908 20.7721 92.0349 14.228 100.183 14.228V13.228C91.4826 13.228 84.4908 20.2199 84.4908 28.92H85.4908ZM100.183 14.228C108.403 14.228 114.875 20.7001 114.875 28.92H115.875C115.875 20.1479 108.955 13.228 100.183 13.228V14.228ZM114.875 28.92C114.875 37.1399 108.403 43.612 100.183 43.612V44.612C108.955 44.612 115.875 37.6921 115.875 28.92H114.875ZM100.183 -0.812005C83.7946 -0.812005 69.8028 12.3562 69.8028 28.92H70.8028C70.8028 12.9398 84.3149 0.187995 100.183 0.187995V-0.812005ZM69.8028 28.92C69.8028 45.4838 83.7946 58.652 100.183 58.652V57.652C84.3149 57.652 70.8028 44.9002 70.8028 28.92H69.8028ZM100.183 58.652C116.643 58.652 130.563 45.5559 130.563 28.92H129.563C129.563 44.9721 116.123 57.652 100.183 57.652V58.652ZM130.563 28.92C130.563 12.2841 116.643 -0.812005 100.183 -0.812005V0.187995C116.123 0.187995 129.563 12.8678 129.563 28.92H130.563ZM100.183 56.14C85.2493 56.14 72.3148 44.0345 72.3148 28.92H71.3148C71.3148 44.6215 84.7322 57.14 100.183 57.14V56.14ZM72.3148 28.92C72.3148 13.8054 85.2493 1.7 100.183 1.7V0.699997C84.7322 0.699997 71.3148 13.2185 71.3148 28.92H72.3148ZM100.183 1.7C115.26 1.7 128.051 13.6615 128.051 28.92H129.051C129.051 13.0745 115.777 0.699997 100.183 0.699997V1.7ZM128.051 28.92C128.051 44.1785 115.26 56.14 100.183 56.14V57.14C115.777 57.14 129.051 44.7655 129.051 28.92H128.051ZM174.466 15.168L174.934 14.9934L174.468 13.7413L173.998 14.9921L174.466 15.168ZM166.186 37.2L165.718 37.0241L165.464 37.7H166.186V37.2ZM182.674 37.2V37.7H183.394L183.142 37.0254L182.674 37.2ZM168.346 35.688L167.878 35.5113L167.623 36.188H168.346V35.688ZM174.466 19.488L174.934 19.3131L174.469 18.0658L173.998 19.3113L174.466 19.488ZM180.514 35.688V36.188H181.234L180.982 35.5131L180.514 35.688ZM181.666 0.767999L182.13 0.581179L182.004 0.267999H181.666V0.767999ZM167.266 0.767999V0.267999H166.766V0.767999H167.266ZM167.266 0.839998L167.729 1.02804L167.766 0.937603V0.839998H167.266ZM144.442 57.072L143.979 56.884L143.699 57.572H144.442V57.072ZM160.354 57.072V57.572H160.7L160.822 57.2485L160.354 57.072ZM163.45 48.864V48.364H163.104L162.982 48.6875L163.45 48.864ZM185.41 48.864L185.878 48.6875L185.756 48.364H185.41V48.864ZM188.506 57.072L188.038 57.2485L188.16 57.572H188.506V57.072ZM204.346 57.072V57.572H205.086L204.81 56.8852L204.346 57.072ZM186.49 47.352L186.958 47.1755L186.836 46.852H186.49V47.352ZM162.37 47.352V46.852H162.024L161.902 47.1755L162.37 47.352ZM159.274 55.56V56.06H159.62L159.742 55.7365L159.274 55.56ZM146.746 55.56L146.282 55.3727L146.005 56.06H146.746V55.56ZM168.274 2.28V1.78H167.937L167.81 2.09268L168.274 2.28ZM180.586 2.28L181.05 2.09268L180.923 1.78H180.586V2.28ZM202.114 55.56V56.06H202.855L202.578 55.3727L202.114 55.56ZM189.586 55.56L189.118 55.7365L189.24 56.06H189.586V55.56ZM173.998 14.9921L165.718 37.0241L166.654 37.3759L174.934 15.3439L173.998 14.9921ZM166.186 37.7H182.674V36.7H166.186V37.7ZM183.142 37.0254L174.934 14.9934L173.997 15.3426L182.205 37.3746L183.142 37.0254ZM168.814 35.8647L174.934 19.6647L173.998 19.3113L167.878 35.5113L168.814 35.8647ZM173.998 19.6629L180.046 35.8629L180.982 35.5131L174.934 19.3131L173.998 19.6629ZM180.514 35.188H168.346V36.188H180.514V35.188ZM181.666 0.267999H167.266V1.268H181.666V0.267999ZM166.766 0.767999V0.839998H167.766V0.767999H166.766ZM166.803 0.651952L143.979 56.884L144.905 57.26L167.729 1.02804L166.803 0.651952ZM144.442 57.572H160.354V56.572H144.442V57.572ZM160.822 57.2485L163.918 49.0405L162.982 48.6875L159.886 56.8955L160.822 57.2485ZM163.45 49.364H185.41V48.364H163.45V49.364ZM184.942 49.0405L188.038 57.2485L188.974 56.8955L185.878 48.6875L184.942 49.0405ZM188.506 57.572H204.346V56.572H188.506V57.572ZM204.81 56.8852L182.13 0.581179L181.202 0.954818L203.882 57.2588L204.81 56.8852ZM186.49 46.852H162.37V47.852H186.49V46.852ZM161.902 47.1755L158.806 55.3835L159.742 55.7365L162.838 47.5285L161.902 47.1755ZM159.274 55.06H146.746V56.06H159.274V55.06ZM147.21 55.7473L168.738 2.46731L167.81 2.09268L146.282 55.3727L147.21 55.7473ZM168.274 2.78H180.586V1.78H168.274V2.78ZM180.122 2.46731L201.65 55.7473L202.578 55.3727L181.05 2.09268L180.122 2.46731ZM202.114 55.06H189.586V56.06H202.114V55.06ZM190.054 55.3835L186.958 47.1755L186.022 47.5285L189.118 55.7365L190.054 55.3835ZM238.085 13.368V12.868H237.585V13.368H238.085ZM238.085 44.544H237.585V45.044H238.085V44.544ZM239.597 43.032H239.097V43.532H239.597V43.032ZM239.597 14.88V14.38H239.097V14.88H239.597ZM225.053 0.767999V0.267999H224.553V0.767999H225.053ZM225.053 57.072H224.553V57.572H225.053V57.072ZM226.565 55.56H226.065V56.06H226.565V55.56ZM226.565 2.28V1.78H226.065V2.28H226.565ZM250.109 12.868H238.085V13.868H250.109V12.868ZM237.585 13.368V44.544H238.585V13.368H237.585ZM238.085 45.044H250.181V44.044H238.085V45.044ZM250.181 45.044C255.057 45.044 258.82 43.3398 261.358 40.4264C263.887 37.5226 265.153 33.4707 265.153 28.848H264.153C264.153 33.2973 262.935 37.0934 260.604 39.7696C258.281 42.4362 254.808 44.044 250.181 44.044V45.044ZM265.153 28.848C265.153 24.2215 263.849 20.2215 261.29 17.3719C258.724 14.5149 254.944 12.868 250.109 12.868V13.868C254.705 13.868 258.197 15.4251 260.546 18.0401C262.901 20.6625 264.153 24.4025 264.153 28.848H265.153ZM250.109 42.532H239.597V43.532H250.109V42.532ZM240.097 43.032V14.88H239.097V43.032H240.097ZM239.597 15.38H250.109V14.38H239.597V15.38ZM250.109 15.38C254.272 15.38 257.385 16.7923 259.462 19.1524C261.548 21.5216 262.641 24.9021 262.641 28.92H263.641C263.641 24.7299 262.501 21.0904 260.213 18.4916C257.917 15.8837 254.513 14.38 250.109 14.38V15.38ZM262.641 28.92C262.641 32.9768 261.565 36.375 259.488 38.752C257.42 41.1191 254.309 42.532 250.109 42.532V43.532C254.548 43.532 257.953 42.0289 260.241 39.41C262.521 36.801 263.641 33.1432 263.641 28.92H262.641ZM251.189 0.267999H225.053V1.268H251.189V0.267999ZM224.553 0.767999V57.072H225.553V0.767999H224.553ZM225.053 57.572H251.189V56.572H225.053V57.572ZM251.189 57.572C259.736 57.572 266.536 54.5728 271.196 49.4619C275.851 44.3568 278.329 37.1899 278.329 28.92H277.329C277.329 36.9941 274.911 43.9032 270.457 48.7881C266.009 53.6672 259.489 56.572 251.189 56.572V57.572ZM278.329 28.92C278.329 20.6847 275.832 13.5184 271.169 8.4051C266.501 3.28616 259.702 0.267999 251.189 0.267999V1.268C259.452 1.268 265.972 4.18984 270.43 9.0789C274.894 13.9736 277.329 20.8833 277.329 28.92H278.329ZM251.189 55.06H226.565V56.06H251.189V55.06ZM227.065 55.56V2.28H226.065V55.56H227.065ZM226.565 2.78H251.189V1.78H226.565V2.78ZM251.189 2.78C259.02 2.78 265.162 5.53994 269.349 10.1579C273.543 14.7819 275.817 21.3136 275.817 28.92H276.817C276.817 21.1184 274.483 14.3301 270.09 9.48612C265.692 4.63605 259.269 1.78 251.189 1.78V2.78ZM275.817 28.92C275.817 36.5639 273.56 43.095 269.376 47.7092C265.198 52.3171 259.057 55.06 251.189 55.06V56.06C259.304 56.06 265.727 53.2229 270.117 48.3808C274.502 43.545 276.817 36.7561 276.817 28.92H275.817ZM300.498 0.767999V0.267999H299.998V0.767999H300.498ZM300.498 57.072H299.998V57.572H300.498V57.072ZM315.042 57.072V57.572H315.542V57.072H315.042ZM315.042 0.767999H315.542V0.267999H315.042V0.767999ZM313.53 55.56V56.06H314.03V55.56H313.53ZM302.01 55.56H301.51V56.06H302.01V55.56ZM302.01 2.28V1.78H301.51V2.28H302.01ZM313.53 2.28H314.03V1.78H313.53V2.28ZM299.998 0.767999V57.072H300.998V0.767999H299.998ZM300.498 57.572H315.042V56.572H300.498V57.572ZM315.542 57.072V0.767999H314.542V57.072H315.542ZM315.042 0.267999H300.498V1.268H315.042V0.267999ZM313.53 55.06H302.01V56.06H313.53V55.06ZM302.51 55.56V2.28H301.51V55.56H302.51ZM302.01 2.78H313.53V1.78H302.01V2.78ZM313.03 2.28V55.56H314.03V2.28H313.03ZM383.356 14.88V15.38H383.856V14.88H383.356ZM383.356 0.767999H383.856V0.267999H383.356V0.767999ZM340.084 0.767999V0.267999H339.584V0.767999H340.084ZM340.084 57.072H339.584V57.572H340.084V57.072ZM383.356 57.072V57.572H383.856V57.072H383.356ZM383.356 43.032H383.856V42.532H383.356V43.032ZM354.628 43.032H354.128V43.532H354.628V43.032ZM354.628 35.976V35.476H354.128V35.976H354.628ZM378.244 35.976V36.476H378.744V35.976H378.244ZM378.244 22.8H378.744V22.3H378.244V22.8ZM354.628 22.8H354.128V23.3H354.628V22.8ZM354.628 14.88V14.38H354.128V14.88H354.628ZM376.732 24.312H377.232V23.812H376.732V24.312ZM376.732 34.464V34.964H377.232V34.464H376.732ZM353.116 34.464V33.964H352.616V34.464H353.116ZM353.116 44.544H352.616V45.044H353.116V44.544ZM381.844 44.544H382.344V44.044H381.844V44.544ZM381.844 55.56V56.06H382.344V55.56H381.844ZM341.596 55.56H341.096V56.06H341.596V55.56ZM341.596 2.28V1.78H341.096V2.28H341.596ZM381.844 2.28H382.344V1.78H381.844V2.28ZM381.844 13.368V13.868H382.344V13.368H381.844ZM353.116 13.368V12.868H352.616V13.368H353.116ZM353.116 24.312H352.616V24.812H353.116V24.312ZM383.856 14.88V0.767999H382.856V14.88H383.856ZM383.356 0.267999H340.084V1.268H383.356V0.267999ZM339.584 0.767999V57.072H340.584V0.767999H339.584ZM340.084 57.572H383.356V56.572H340.084V57.572ZM383.856 57.072V43.032H382.856V57.072H383.856ZM383.356 42.532H354.628V43.532H383.356V42.532ZM355.128 43.032V35.976H354.128V43.032H355.128ZM354.628 36.476H378.244V35.476H354.628V36.476ZM378.744 35.976V22.8H377.744V35.976H378.744ZM378.244 22.3H354.628V23.3H378.244V22.3ZM355.128 22.8V14.88H354.128V22.8H355.128ZM354.628 15.38H383.356V14.38H354.628V15.38ZM376.232 24.312V34.464H377.232V24.312H376.232ZM376.732 33.964H353.116V34.964H376.732V33.964ZM352.616 34.464V44.544H353.616V34.464H352.616ZM353.116 45.044H381.844V44.044H353.116V45.044ZM381.344 44.544V55.56H382.344V44.544H381.344ZM381.844 55.06H341.596V56.06H381.844V55.06ZM342.096 55.56V2.28H341.096V55.56H342.096ZM341.596 2.78H381.844V1.78H341.596V2.78ZM381.344 2.28V13.368H382.344V2.28H381.344ZM381.844 12.868H353.116V13.868H381.844V12.868ZM352.616 13.368V24.312H353.616V13.368H352.616ZM353.116 24.812H376.732V23.812H353.116V24.812Z" fill="black"/>
</g>
<defs>
<clipPath id="clip0">
<rect width="385" height="58" fill="white"/>
</clipPath>
</defs>
</svg>
