<svg width="512" height="512" viewBox="0 0 512 512" fill="none" xmlns="http://www.w3.org/2000/svg">
<g clip-path="url(#clip0_409:2)">
<path d="M279 122.2H164.4V271H279C325.2 271 357 244.6 357 197.2C357 148 327 122.2 279 122.2ZM279 258.4H177V134.8H279C319.8 134.8 344.4 155.2 344.4 197.2C344.4 237.4 318 258.4 279 258.4ZM369 351.4C431.4 323.2 461.4 262.6 461.4 196C461.4 88.6 391.8 24.4 285.6 24.4H56.4V493.6H177V368.2H237L325.8 493.6H471L369 351.4ZM243.6 355.6H164.4V481H69V37H285.6C384.6 37 448.8 95.2 448.8 196C448.8 257.8 421.2 313.6 363.6 340.6L350.4 346.6L446.4 481H332.4L243.6 355.6Z" fill="white"/>
<path d="M164.4 122.2V112.2H154.4V122.2H164.4ZM164.4 271H154.4V281H164.4V271ZM177 258.4H167V268.4H177V258.4ZM177 134.8V124.8H167V134.8H177ZM369 351.4L364.882 342.287L353.762 347.313L360.874 357.229L369 351.4ZM56.4 24.4V14.4H46.4V24.4H56.4ZM56.4 493.6H46.4V503.6H56.4V493.6ZM177 493.6V503.6H187V493.6H177ZM177 368.2V358.2H167V368.2H177ZM237 368.2L245.161 362.421L242.172 358.2H237V368.2ZM325.8 493.6L317.639 499.379L320.628 503.6H325.8V493.6ZM471 493.6V503.6H490.48L479.126 487.771L471 493.6ZM243.6 355.6L251.761 349.821L248.772 345.6H243.6V355.6ZM164.4 355.6V345.6H154.4V355.6H164.4ZM164.4 481V491H174.4V481H164.4ZM69 481H59V491H69V481ZM69 37V27H59V37H69ZM363.6 340.6L367.738 349.704L367.791 349.679L367.844 349.655L363.6 340.6ZM350.4 346.6L346.262 337.496L335.2 342.525L342.263 352.412L350.4 346.6ZM446.4 481V491H465.832L454.537 475.188L446.4 481ZM332.4 481L324.239 486.779L327.228 491H332.4V481ZM279 112.2H164.4V132.2H279V112.2ZM154.4 122.2V271H174.4V122.2H154.4ZM164.4 281H279V261H164.4V281ZM279 281C303.949 281 326.072 273.857 342.066 259.262C358.185 244.552 367 223.249 367 197.2H347C347 218.551 339.915 234.148 328.584 244.488C317.128 254.943 300.251 261 279 261V281ZM367 197.2C367 170.523 358.807 148.858 342.823 133.939C326.947 119.122 304.711 112.2 279 112.2V132.2C301.289 132.2 318.053 138.178 329.177 148.561C340.193 158.842 347 174.677 347 197.2H367ZM279 248.4H177V268.4H279V248.4ZM187 258.4V134.8H167V258.4H187ZM177 144.8H279V124.8H177V144.8ZM279 144.8C297.862 144.8 311.433 149.516 320.229 157.609C328.884 165.571 334.4 178.172 334.4 197.2H354.4C354.4 174.228 347.616 155.629 333.771 142.891C320.067 130.284 300.938 124.8 279 124.8V144.8ZM334.4 197.2C334.4 214.999 328.638 227.381 319.654 235.425C310.508 243.615 296.795 248.4 279 248.4V268.4C300.205 268.4 319.192 262.685 332.996 250.325C346.962 237.819 354.4 219.601 354.4 197.2H334.4ZM373.118 360.513C439.895 330.335 471.4 265.575 471.4 196H451.4C451.4 259.625 422.905 316.065 364.882 342.287L373.118 360.513ZM471.4 196C471.4 140.075 453.222 94.3933 420.254 62.7143C387.338 31.086 340.706 14.4 285.6 14.4V34.4C336.694 34.4 377.962 49.814 406.396 77.1357C434.778 104.407 451.4 144.525 451.4 196H471.4ZM285.6 14.4H56.4V34.4H285.6V14.4ZM46.4 24.4V493.6H66.4V24.4H46.4ZM56.4 503.6H177V483.6H56.4V503.6ZM187 493.6V368.2H167V493.6H187ZM177 378.2H237V358.2H177V378.2ZM228.839 373.979L317.639 499.379L333.961 487.821L245.161 362.421L228.839 373.979ZM325.8 503.6H471V483.6H325.8V503.6ZM479.126 487.771L377.126 345.571L360.874 357.229L462.874 499.429L479.126 487.771ZM243.6 345.6H164.4V365.6H243.6V345.6ZM154.4 355.6V481H174.4V355.6H154.4ZM164.4 471H69V491H164.4V471ZM79 481V37H59V481H79ZM69 47H285.6V27H69V47ZM285.6 47C333.166 47 371.269 60.9552 397.418 85.9314C423.503 110.846 438.8 147.783 438.8 196H458.8C458.8 143.417 441.997 100.854 411.232 71.4686C380.531 42.1447 337.034 27 285.6 27V47ZM438.8 196C438.8 254.802 412.71 306.536 359.356 331.545L367.844 349.655C429.69 320.664 458.8 260.798 458.8 196H438.8ZM359.462 331.496L346.262 337.496L354.538 355.704L367.738 349.704L359.462 331.496ZM342.263 352.412L438.263 486.812L454.537 475.188L358.537 340.788L342.263 352.412ZM446.4 471H332.4V491H446.4V471ZM340.561 475.221L251.761 349.821L235.439 361.379L324.239 486.779L340.561 475.221Z" fill="#F97316"/>
</g>
<defs>
<clipPath id="clip0_409:2">
<rect width="512" height="512" fill="white"/>
</clipPath>
</defs>
</svg>
