<svg width="159" height="80" viewBox="0 0 159 80" fill="none" xmlns="http://www.w3.org/2000/svg">
<path d="M66.1201 46.057H64.1008C63.9657 46.057 63.8385 46.1206 63.7563 46.2293C62.5837 47.9624 60.6028 49.1019 58.3503 49.1019C54.7463 49.1019 51.8274 46.1816 51.8274 42.5789C51.8274 38.9762 54.7477 36.0559 58.3503 36.0559C59.4179 36.0557 60.4691 36.3176 61.4117 36.8188C62.3543 37.3199 63.1594 38.0448 63.7563 38.9298C63.8385 39.0358 63.9657 39.1021 64.1008 39.1021H66.1201C66.194 39.1013 66.2664 39.0819 66.3307 39.0456C66.395 39.0092 66.449 38.9572 66.4877 38.8944C66.5265 38.8316 66.5487 38.7599 66.5523 38.6862C66.5559 38.6125 66.5408 38.539 66.5084 38.4727C65.7478 36.9617 64.5823 35.6918 63.142 34.8046C61.7017 33.9174 60.0433 33.4479 58.3517 33.4483C53.3087 33.4483 49.2184 37.5373 49.2184 42.5815C49.2184 47.6258 53.3074 51.7148 58.3517 51.7148C60.0431 51.7149 61.7012 51.2453 63.1413 50.3581C64.5813 49.4709 65.7465 48.2011 66.507 46.6904C66.5388 46.6294 66.5547 46.5632 66.5547 46.4956C66.554 46.3803 66.5079 46.27 66.4262 46.1886C66.3446 46.1072 66.2341 46.0613 66.1188 46.061L66.1201 46.057ZM72.2085 30.4008C72.2085 32.7196 68.7291 32.7196 68.7291 30.4008C68.7291 28.0821 72.2085 28.0821 72.2085 30.4008ZM71.7752 50.8403V33.8803H69.165V50.8403C69.1657 50.9553 69.2117 51.0654 69.2931 51.1468C69.3744 51.2282 69.4845 51.2742 69.5996 51.2749H71.3393C71.4544 51.2742 71.5645 51.2282 71.6459 51.1468C71.7272 51.0654 71.7732 50.9553 71.7739 50.8403H71.7752ZM83.0907 33.4563C80.4593 33.5808 78.3565 34.8382 76.9957 36.7582V34.3149C76.9951 34.1998 76.949 34.0897 76.8677 34.0083C76.7863 33.927 76.6762 33.8809 76.5612 33.8803H74.8227C74.7077 33.8809 74.5976 33.927 74.5162 34.0083C74.4349 34.0897 74.3888 34.1998 74.3881 34.3149V50.8403C74.3881 51.0788 74.5816 51.2749 74.8227 51.2749H76.5625C76.6775 51.2742 76.7877 51.2282 76.869 51.1468C76.9504 51.0654 76.9964 50.9553 76.9971 50.8403V42.5776C76.9971 39.1326 79.6868 36.2931 83.0855 36.0692C83.201 36.0688 83.3116 36.0228 83.3933 35.9411C83.475 35.8594 83.521 35.7487 83.5214 35.6332V33.8895C83.5207 33.7756 83.4756 33.6665 83.3957 33.5853C83.3157 33.5041 83.2073 33.4573 83.0934 33.4549L83.0907 33.4563ZM100.422 46.0438H98.4024C98.2673 46.0438 98.1401 46.1074 98.0579 46.216C96.8853 47.9491 94.9045 49.0886 92.652 49.0886C89.048 49.0886 86.129 46.1683 86.129 42.5656C86.129 38.963 89.0493 36.0427 92.652 36.0427C94.9018 36.0427 96.884 37.1822 98.0579 38.9179C98.1401 39.0239 98.2673 39.0902 98.4024 39.0902H100.435C100.55 39.0898 100.661 39.0439 100.742 38.9626C100.824 38.8812 100.87 38.7708 100.871 38.6556C100.871 38.5877 100.854 38.521 100.823 38.4608C100.063 36.95 98.8975 35.6802 97.4574 34.7931C96.0174 33.9059 94.3592 33.4362 92.6679 33.4364C87.6236 33.4364 83.5346 37.5253 83.5346 42.5696C83.5346 47.6139 87.6236 51.7028 92.6679 51.7028C94.3592 51.703 96.0174 51.2333 97.4574 50.3462C98.8975 49.459 100.063 48.1892 100.823 46.6784C100.855 46.6175 100.871 46.5512 100.871 46.4837C100.87 46.3684 100.824 46.258 100.742 46.1767C100.661 46.0953 100.55 46.0494 100.435 46.0491L100.422 46.0438ZM105.642 28.2132H103.903C103.787 28.2139 103.677 28.2599 103.596 28.3413C103.515 28.4226 103.469 28.5328 103.468 28.6478V50.8283C103.469 50.9434 103.515 51.0535 103.596 51.1349C103.677 51.2162 103.787 51.2622 103.903 51.2629H105.642C105.757 51.2622 105.867 51.2162 105.949 51.1349C106.03 51.0535 106.076 50.9434 106.077 50.8283V28.6598C106.076 28.5447 106.03 28.4346 105.949 28.3532C105.867 28.2719 105.757 28.2258 105.642 28.2252V28.2132ZM117.832 33.4337C112.788 33.4337 108.699 37.5227 108.699 42.567C108.699 47.6112 112.788 51.7002 117.832 51.7002C119.524 51.7004 121.182 51.2307 122.622 50.3435C124.062 49.4563 125.227 48.1865 125.988 46.6758C126.137 46.3869 125.925 46.0424 125.601 46.0464H123.57C123.43 46.0464 123.301 46.1127 123.218 46.2253C122.046 47.9531 120.065 49.0899 117.819 49.0899C114.512 49.0899 111.78 46.6281 111.353 43.4362H126.503C126.614 43.4353 126.721 43.3921 126.802 43.3153C126.882 43.2385 126.93 43.1339 126.936 43.0228L126.95 42.5656C126.95 37.5214 122.861 33.4324 117.818 33.4324L117.832 33.4337ZM111.545 40.8272C112.307 38.0712 114.831 36.0572 117.832 36.0572C120.833 36.0572 123.358 38.0845 124.119 40.8272H111.545ZM152.225 27.78C148.746 27.78 148.746 33.0005 152.225 33.0005C155.705 33.0005 155.705 27.78 152.225 27.78ZM154.398 33.8683V50.8283C154.398 50.9434 154.352 51.0535 154.27 51.1349C154.189 51.2162 154.079 51.2622 153.964 51.2629H150.484C150.369 51.2622 150.259 51.2162 150.178 51.1349C150.096 51.0535 150.05 50.9434 150.05 50.8283V33.8683H154.398ZM138.688 51.7095C142.952 51.7095 146.528 48.7878 147.536 44.8393C147.543 44.8102 147.547 44.7804 147.547 44.7506C147.546 44.6355 147.5 44.5254 147.419 44.444C147.337 44.3627 147.227 44.3166 147.112 44.316H143.431C143.348 44.3164 143.267 44.3406 143.197 44.3856C143.127 44.4307 143.071 44.4948 143.036 44.5704C142.279 46.216 140.618 47.3595 138.688 47.3595C137.829 47.3597 136.986 47.1287 136.247 46.6908C135.509 46.2528 134.902 45.6241 134.49 44.8707C134.078 44.1172 133.876 43.2667 133.906 42.4085C133.937 41.5503 134.197 40.7161 134.661 39.9933C135.125 39.2706 135.774 38.686 136.542 38.3009C137.309 37.9158 138.166 37.7444 139.023 37.8048C139.88 37.8652 140.704 38.155 141.41 38.6439C142.116 39.1328 142.677 39.8028 143.035 40.5834C143.07 40.6588 143.126 40.7226 143.196 40.7674C143.266 40.8122 143.347 40.8362 143.43 40.8365H147.111C147.226 40.8358 147.336 40.7898 147.417 40.7084C147.499 40.6271 147.545 40.517 147.545 40.4019C147.545 40.3725 147.541 40.3432 147.535 40.3145C146.528 36.366 142.95 33.443 138.686 33.443C133.643 33.443 129.553 37.532 129.553 42.5762C129.553 47.6205 133.643 51.7095 138.686 51.7095H138.688Z" fill="#9CA3AF"/>
<path d="M24.754 44.7979C27.5423 44.7979 29.8026 42.5375 29.8026 39.7492C29.8026 36.9609 27.5423 34.7005 24.754 34.7005C21.9656 34.7005 19.7053 36.9609 19.7053 39.7492C19.7053 42.5375 21.9656 44.7979 24.754 44.7979Z" fill="#9CA3AF"/>
<path d="M24.7539 18.5484C14.8748 18.5484 6.57502 25.3059 4.22082 34.449C4.19883 34.5311 4.18703 34.6156 4.18568 34.7005C4.18568 35.2553 4.63692 35.7102 5.19542 35.7102H13.7449C13.9384 35.7109 14.1279 35.6553 14.2905 35.5503C14.453 35.4452 14.5815 35.2952 14.6603 35.1185C14.6603 35.1185 14.6732 35.0944 14.6788 35.0815C16.4412 31.2792 20.2897 28.6402 24.7576 28.6402C30.8919 28.6402 35.8647 33.6113 35.8647 39.7455C35.8647 45.8797 30.8937 50.8507 24.7595 50.8507C20.2934 50.8507 16.4449 48.2117 14.6806 44.4095C14.6751 44.3966 14.6621 44.3725 14.6621 44.3725C14.4994 44.0137 14.1406 43.7807 13.7467 43.7807H5.19727C4.63877 43.7807 4.18753 44.232 4.18753 44.7905C4.18849 44.8755 4.2003 44.96 4.22267 45.042C6.57687 54.1851 14.8785 60.9425 24.7558 60.9425C36.4658 60.9407 45.975 51.4499 45.975 39.7418C45.975 28.0337 36.4824 18.541 24.7743 18.541L24.7539 18.5484Z" fill="#9CA3AF"/>
</svg>
