<svg width="159" height="29" viewBox="0 0 159 29" fill="none" xmlns="http://www.w3.org/2000/svg">
<path d="M26.0182 6.6922C25.8613 6.19034 25.4849 5.78259 25.0145 5.53166L15.4479 0.95224C15.1969 0.826776 14.9146 0.79541 14.6637 0.79541C14.4128 0.79541 14.1305 0.79541 13.8796 0.858142L4.31298 5.46893C3.84249 5.68849 3.49746 6.09625 3.372 6.62947L1.01956 16.9488C0.925462 17.4821 1.05093 18.0153 1.36458 18.4544L7.98279 26.6409C8.35918 27.0173 8.8924 27.2682 9.42562 27.2996H19.9646C20.5291 27.3623 21.0624 27.1114 21.4074 26.6409L28.0256 18.4544C28.3392 18.0153 28.4647 17.4821 28.402 16.9488L26.0182 6.6922V6.6922Z" fill="#9CA3AF"/>
<path d="M24.544 16.5411C24.5126 16.5411 24.4812 16.5411 24.4812 16.5097C24.4812 16.4783 24.4185 16.4783 24.3558 16.4783C24.2303 16.447 24.1048 16.447 23.9794 16.447C23.9166 16.447 23.8539 16.447 23.7912 16.4156H23.7598C23.4148 16.3843 23.0384 16.3215 22.6934 16.2274C22.5993 16.1961 22.5052 16.102 22.4738 16.0079C22.5052 16.0079 22.4738 16.0079 22.4738 16.0079L22.2229 15.9451C22.3483 15.0355 22.2856 14.0945 22.0974 13.1849C21.8779 12.2753 21.5015 11.3971 20.9996 10.6129L21.1878 10.4247V10.3934C21.1878 10.2993 21.2192 10.1738 21.2819 10.1111C21.5642 9.86015 21.8465 9.67195 22.1602 9.48376C22.2229 9.45239 22.2856 9.42102 22.3483 9.38966C22.4738 9.32693 22.5679 9.26419 22.6934 9.20146C22.7247 9.1701 22.7561 9.1701 22.7875 9.13873C22.8188 9.10737 22.7875 9.10737 22.7875 9.076C23.0698 8.85644 23.1325 8.48005 22.9129 8.19775C22.8188 8.07229 22.6306 7.97819 22.4738 7.97819C22.317 7.97819 22.1602 8.04093 22.0347 8.13502L22.0033 8.16639C21.972 8.19775 21.9406 8.22912 21.9092 8.22912C21.8151 8.32322 21.721 8.41732 21.6583 8.51141C21.6269 8.57415 21.5642 8.60551 21.5328 8.63688C21.3133 8.8878 21.031 9.13873 20.7487 9.32693C20.686 9.35829 20.6232 9.38966 20.5605 9.38966C20.5291 9.38966 20.4664 9.38966 20.435 9.35829H20.4037L20.1527 9.51512C19.9018 9.26419 19.6195 9.01327 19.3686 8.76234C18.2081 7.85273 16.7652 7.28814 15.291 7.13131L15.2597 6.88039V6.91175C15.1656 6.84902 15.1342 6.75492 15.1028 6.66083C15.1028 6.3158 15.1028 5.97078 15.1656 5.59439V5.56302C15.1656 5.50029 15.1969 5.43756 15.1969 5.37483C15.2283 5.24936 15.2283 5.1239 15.2597 4.99843V4.81024C15.291 4.49658 15.0401 4.18292 14.7264 4.15156C14.5382 4.12019 14.35 4.21429 14.1932 4.37112C14.0678 4.49658 14.005 4.65341 14.005 4.81024V4.96707C14.005 5.09253 14.0364 5.218 14.0678 5.34346C14.0991 5.40619 14.0991 5.46892 14.0991 5.53165V5.56302C14.1619 5.90805 14.1619 6.25307 14.1619 6.62946C14.1305 6.72356 14.0991 6.81766 14.005 6.88039V6.94312L13.9737 7.19405C13.6286 7.22541 13.2836 7.28814 12.9072 7.35088C11.433 7.66453 10.0843 8.44868 9.04921 9.54649L8.86102 9.42102H8.82965C8.79829 9.42102 8.76692 9.45239 8.70419 9.45239C8.64146 9.45239 8.57873 9.42102 8.51599 9.38966C8.2337 9.1701 7.95141 8.91917 7.73185 8.66824C7.70048 8.60551 7.63775 8.57415 7.60638 8.54278C7.51229 8.44868 7.44955 8.35458 7.35546 8.26049C7.32409 8.22912 7.29273 8.22912 7.26136 8.19775C7.22999 8.16639 7.22999 8.16639 7.22999 8.16639C7.10453 8.07229 6.9477 8.00956 6.79087 8.00956C6.60268 8.00956 6.44585 8.07229 6.35175 8.22912C6.16355 8.51141 6.22629 8.8878 6.47721 9.10737C6.50858 9.10737 6.50858 9.13873 6.50858 9.13873C6.50858 9.13873 6.57131 9.20146 6.60268 9.20146C6.69677 9.26419 6.82224 9.32693 6.9477 9.38966C7.01043 9.42102 7.07316 9.45239 7.1359 9.48376C7.44955 9.67195 7.76321 9.86015 8.01414 10.1111C8.07687 10.1738 8.1396 10.2993 8.10824 10.3934V10.362L8.29643 10.5502C8.26507 10.6129 8.2337 10.6443 8.20234 10.707C7.22999 12.244 6.82224 14.0632 7.10453 15.851L6.8536 15.9138C6.8536 15.9451 6.82224 15.9451 6.82224 15.9451C6.79087 16.0392 6.69677 16.102 6.60268 16.1647C6.25765 16.2588 5.91263 16.3215 5.53624 16.3529C5.4735 16.3529 5.41077 16.3529 5.34804 16.3843C5.22258 16.3843 5.09711 16.4156 4.97165 16.4156C4.94028 16.4156 4.90892 16.447 4.84619 16.447C4.81482 16.447 4.81482 16.447 4.78346 16.4783C4.43843 16.5411 4.21887 16.8547 4.2816 17.1998C4.34433 17.4821 4.62663 17.6703 4.90892 17.6389C4.97165 17.6389 5.00302 17.6389 5.06575 17.6075C5.09711 17.6075 5.09711 17.6075 5.09711 17.5762C5.09711 17.5448 5.19121 17.5762 5.22258 17.5762C5.34804 17.5448 5.4735 17.4821 5.5676 17.4507C5.63033 17.4193 5.69307 17.388 5.7558 17.388H5.78716C6.13219 17.2625 6.44585 17.1684 6.82224 17.1057H6.8536C6.9477 17.1057 7.0418 17.137 7.10453 17.1998C7.1359 17.1998 7.1359 17.2311 7.1359 17.2311L7.41819 17.1998C7.88868 18.6426 8.76692 19.9286 9.99019 20.8696C10.2725 21.0891 10.5234 21.2773 10.8371 21.4342L10.6802 21.6537C10.6802 21.6851 10.7116 21.6851 10.7116 21.6851C10.7743 21.7792 10.7743 21.9046 10.743 21.9987C10.6175 22.3124 10.4293 22.6261 10.2411 22.9084V22.9397C10.2098 23.0025 10.1784 23.0338 10.1157 23.0965C10.0529 23.1593 9.99019 23.2847 9.89609 23.4102C9.86473 23.4416 9.86473 23.4729 9.83336 23.5043C9.83336 23.5043 9.83336 23.5357 9.802 23.5357C9.64517 23.8493 9.77063 24.2257 10.0529 24.3825C10.1157 24.4139 10.2098 24.4453 10.2725 24.4453C10.5234 24.4453 10.743 24.2885 10.8684 24.0689C10.8684 24.0689 10.8684 24.0375 10.8998 24.0375C10.8998 24.0062 10.9312 23.9748 10.9625 23.9434C10.9939 23.818 11.0566 23.7239 11.088 23.5984L11.1507 23.4102C11.2448 23.0652 11.4017 22.7515 11.5585 22.4379C11.6212 22.3438 11.7153 22.281 11.8094 22.2497C11.8408 22.2497 11.8408 22.2497 11.8408 22.2183L11.9662 21.9674C12.8445 22.3124 13.7541 22.4692 14.6951 22.4692C15.2597 22.4692 15.8242 22.4065 16.3888 22.2497C16.7339 22.1869 17.0789 22.0615 17.3925 21.9674L17.518 22.1869C17.5494 22.1869 17.5494 22.1869 17.5494 22.2183C17.6435 22.2497 17.7376 22.3124 17.8003 22.4065C17.9571 22.7202 18.114 23.0338 18.208 23.3788V23.4102L18.2708 23.5984C18.3021 23.7239 18.3335 23.8493 18.3962 23.9434C18.4276 23.9748 18.4276 24.0062 18.459 24.0375C18.459 24.0375 18.459 24.0689 18.4903 24.0689C18.6158 24.2885 18.8354 24.4453 19.0863 24.4453C19.1804 24.4453 19.2431 24.4139 19.3372 24.3825C19.4627 24.3198 19.5881 24.1944 19.6195 24.0375C19.6509 23.8807 19.6509 23.7239 19.5881 23.567C19.5881 23.5357 19.5568 23.5357 19.5568 23.5357C19.5568 23.5043 19.5254 23.4729 19.4941 23.4416C19.4313 23.3161 19.3686 23.222 19.2745 23.1279C19.2431 23.0652 19.2118 23.0338 19.149 22.9711V22.9084C18.9295 22.6261 18.7726 22.3124 18.6472 21.9987C18.6158 21.9046 18.6158 21.7792 18.6785 21.6851C18.6785 21.6537 18.7099 21.6537 18.7099 21.6537L18.6158 21.4028C20.2155 20.4304 21.4387 18.9249 22.0033 17.137L22.2542 17.1684C22.2856 17.1684 22.2856 17.137 22.2856 17.137C22.3483 17.0743 22.4424 17.0429 22.5365 17.0429H22.5679C22.9129 17.1057 23.258 17.1998 23.5716 17.3252H23.603C23.6657 17.3566 23.7284 17.388 23.7912 17.388C23.9166 17.4507 24.0107 17.5134 24.1362 17.5448C24.1676 17.5448 24.1989 17.5762 24.2617 17.5762C24.293 17.5762 24.293 17.5762 24.3244 17.6075C24.3871 17.6389 24.4185 17.6389 24.4812 17.6389C24.7635 17.6389 25.0144 17.4507 25.1085 17.1998C25.0772 16.8547 24.8263 16.6038 24.544 16.5411V16.5411ZM15.4792 15.5687L14.6323 15.9765L13.7855 15.5687L13.5659 14.6591L14.1619 13.9063H15.1028L15.6988 14.6591L15.4792 15.5687V15.5687ZM20.5919 13.53C20.7487 14.1886 20.7801 14.8473 20.7173 15.506L17.7376 14.6591C17.4553 14.5964 17.2984 14.3141 17.3612 14.0318C17.3925 13.9377 17.4239 13.875 17.4866 13.8122L19.8391 11.6794C20.1841 12.244 20.435 12.8713 20.5919 13.53V13.53ZM18.8981 10.5188L16.3261 12.3381C16.1065 12.4635 15.7929 12.4321 15.636 12.2126C15.5733 12.1499 15.542 12.0871 15.542 11.993L15.3538 8.82507C16.7339 8.9819 17.9571 9.57785 18.8981 10.5188V10.5188ZM13.2209 8.91917L13.8482 8.79371L13.6914 11.9303C13.6914 12.2126 13.4404 12.4321 13.1581 12.4321C13.064 12.4321 13.0013 12.4008 12.9072 12.3694L10.3038 10.5188C11.1194 9.73468 12.1231 9.1701 13.2209 8.91917ZM9.39424 11.6794L11.7153 13.7495C11.9349 13.9377 11.9662 14.2514 11.778 14.4709C11.7153 14.565 11.6526 14.5964 11.5271 14.6278L8.48463 15.506C8.39053 14.1886 8.70419 12.8399 9.39424 11.6794V11.6794ZM8.86102 16.9802L11.9662 16.447C12.2172 16.447 12.4681 16.6038 12.4995 16.8547C12.5308 16.9488 12.5308 17.0743 12.4681 17.1684L11.2762 20.0541C10.1784 19.3326 9.30014 18.2348 8.86102 16.9802V16.9802ZM15.9811 20.8696C15.542 20.9637 15.1028 21.0264 14.6323 21.0264C13.9737 21.0264 13.2836 20.9009 12.6563 20.7127L14.1932 17.9212C14.35 17.733 14.601 17.6703 14.8205 17.7957C14.9146 17.8584 14.9774 17.9212 15.0715 18.0153L16.577 20.7441C16.3888 20.7755 16.2006 20.8068 15.9811 20.8696V20.8696ZM19.8077 18.1407C19.3372 18.8935 18.6785 19.5522 17.9258 20.0227L16.7025 17.0743C16.6398 16.8234 16.7652 16.5724 16.9848 16.4783C17.0789 16.447 17.173 16.4156 17.2671 16.4156L20.4037 16.9488C20.2468 17.388 20.0586 17.7957 19.8077 18.1407Z" fill="white"/>
<path d="M152.956 20.3991C153.395 20.4304 153.865 20.3677 154.273 20.2109C154.524 20.0854 154.681 19.8031 154.65 19.5208C154.618 19.2072 154.43 18.9249 154.148 18.8308C153.677 18.5485 153.144 18.2976 152.611 18.1407C152.078 17.9525 151.607 17.733 151.168 17.5134C150.76 17.3252 150.415 17.0743 150.07 16.7606C149.757 16.447 149.537 16.102 149.38 15.6942C149.192 15.2237 149.129 14.7219 149.129 14.22C149.098 13.1849 149.568 12.1812 150.384 11.5539C151.231 10.8952 152.36 10.5816 153.803 10.5816C154.493 10.5816 155.214 10.6443 155.904 10.8011C156.437 10.8952 156.971 11.0207 157.504 11.2089L156.908 13.875C156.469 13.7181 156.061 13.624 155.622 13.4986C155.12 13.3731 154.587 13.3418 154.085 13.3418C153.019 13.3418 152.485 13.624 152.485 14.22C152.485 14.3455 152.517 14.4709 152.548 14.5964C152.611 14.7219 152.705 14.816 152.83 14.91C152.956 15.0041 153.144 15.0982 153.364 15.2237C153.583 15.3492 153.897 15.4746 154.273 15.6001C154.901 15.8197 155.528 16.102 156.092 16.4156C156.532 16.6352 156.908 16.9175 157.222 17.2939C157.504 17.5761 157.692 17.9212 157.818 18.3289C157.943 18.7681 158.006 19.2072 158.006 19.6463C158.068 20.7127 157.567 21.7478 156.657 22.3438C155.779 22.9397 154.524 23.2534 152.893 23.2534C151.983 23.2847 151.105 23.1906 150.227 22.9711C149.725 22.8456 149.255 22.6888 148.784 22.532L149.349 19.7718C149.913 19.9913 150.509 20.1795 151.105 20.305C151.733 20.3363 152.329 20.3991 152.956 20.3991V20.3991ZM135.673 16.9488C135.642 16.0079 135.83 15.0669 136.144 14.1886C136.426 13.4359 136.865 12.7772 137.43 12.1812C137.963 11.648 138.559 11.2402 139.249 10.9893C139.939 10.707 140.66 10.5816 141.382 10.5816C143.076 10.5816 144.424 11.1148 145.397 12.1499C146.369 13.1849 146.871 14.7219 146.871 16.7293C146.871 16.9175 146.871 17.137 146.839 17.388C146.839 17.6389 146.808 17.8271 146.808 18.0153H139.155C139.218 18.674 139.563 19.3013 140.127 19.6777C140.817 20.1168 141.633 20.3363 142.448 20.305C143.044 20.305 143.672 20.2422 144.267 20.1481C144.769 20.0541 145.271 19.8972 145.742 19.6777L146.212 22.4379C145.993 22.5633 145.742 22.6261 145.491 22.7202C145.146 22.8142 144.801 22.9083 144.456 22.9397C144.079 23.0024 143.703 23.0652 143.264 23.1279C142.856 23.1593 142.417 23.1906 141.978 23.1906C141.005 23.222 140.064 23.0652 139.155 22.7202C138.402 22.4379 137.743 21.9987 137.179 21.4342C136.646 20.8696 136.269 20.1795 136.018 19.4581C135.799 18.6112 135.673 17.7643 135.673 16.9488V16.9488ZM143.609 15.6628C143.609 15.3805 143.546 15.0982 143.452 14.816C143.389 14.5337 143.232 14.3141 143.076 14.0945C142.887 13.875 142.668 13.6868 142.417 13.5613C142.103 13.4045 141.79 13.3418 141.445 13.3418C141.1 13.3418 140.786 13.4045 140.472 13.5613C140.221 13.6868 139.97 13.8436 139.782 14.0632C139.594 14.2827 139.437 14.5337 139.343 14.816C139.249 15.0982 139.186 15.3805 139.155 15.6628H143.609V15.6628ZM126.483 7.8841L129.871 7.35088V10.8639H133.948V13.6868H129.871V17.8898C129.839 18.4858 129.965 19.0817 130.247 19.5836C130.498 19.9913 131 20.2109 131.784 20.2109C132.16 20.2109 132.537 20.1795 132.882 20.1168C133.258 20.0541 133.603 19.96 133.948 19.8345L134.419 22.4692C133.979 22.6574 133.509 22.7829 133.039 22.9083C132.443 23.0338 131.815 23.0965 131.188 23.0965C130.404 23.1279 129.62 23.0024 128.898 22.7202C128.334 22.5006 127.832 22.1242 127.455 21.6851C127.079 21.2146 126.828 20.65 126.671 20.0541C126.514 19.364 126.452 18.6426 126.483 17.9525V7.8841V7.8841ZM112.776 16.9488C112.745 16.0079 112.933 15.0669 113.247 14.1886C113.529 13.4359 113.968 12.7772 114.533 12.1812C115.066 11.648 115.662 11.2402 116.352 10.9893C117.042 10.707 117.763 10.5816 118.485 10.5816C120.178 10.5816 121.527 11.1148 122.5 12.1499C123.472 13.1849 123.974 14.7219 123.974 16.7293C123.974 16.9175 123.974 17.137 123.942 17.388C123.911 17.6389 123.911 17.8271 123.911 18.0153H116.226C116.289 18.674 116.634 19.3013 117.199 19.6777C117.889 20.1168 118.704 20.3363 119.52 20.305C120.116 20.305 120.743 20.2422 121.339 20.1481C121.841 20.0541 122.343 19.8972 122.845 19.6777L123.315 22.4379C123.096 22.5633 122.845 22.6261 122.594 22.7202C122.249 22.8142 121.904 22.9083 121.559 22.9397C121.182 23.0024 120.806 23.0652 120.367 23.1279C119.959 23.1593 119.52 23.1906 119.081 23.1906C118.108 23.222 117.167 23.0652 116.258 22.7202C115.505 22.4379 114.846 21.9987 114.282 21.4342C113.748 20.8696 113.372 20.1795 113.121 19.4581C112.87 18.6112 112.745 17.7643 112.776 16.9488V16.9488ZM120.712 15.6628C120.712 15.3805 120.649 15.0982 120.555 14.816C120.492 14.5337 120.335 14.3141 120.178 14.0945C119.99 13.875 119.771 13.6868 119.52 13.5613C119.206 13.4045 118.892 13.3418 118.547 13.3418C118.202 13.3418 117.889 13.4045 117.575 13.5613C117.324 13.6868 117.105 13.8436 116.916 14.0632C116.728 14.2827 116.571 14.5337 116.477 14.816C116.383 15.0982 116.32 15.3805 116.289 15.6628H120.712V15.6628ZM99.9161 11.2716C100.638 11.0834 101.39 10.9266 102.143 10.8011C103.084 10.6443 104.056 10.5816 104.997 10.5816C105.844 10.5502 106.691 10.707 107.507 10.9893C108.134 11.2089 108.699 11.5853 109.106 12.0871C109.514 12.589 109.796 13.1849 109.953 13.8122C110.141 14.5337 110.204 15.2864 110.204 16.0392V22.7829H106.848V16.4783C106.848 15.3805 106.691 14.6278 106.409 14.1573C106.127 13.7181 105.593 13.4672 104.809 13.4672C104.558 13.4672 104.307 13.4672 104.025 13.4986C103.743 13.4986 103.523 13.53 103.304 13.5613V22.7829H99.9161V11.2716V11.2716ZM97.5323 13.875C97.2187 13.8122 96.8736 13.7181 96.4659 13.6554C96.0268 13.5613 95.5877 13.53 95.1485 13.53C94.8976 13.53 94.6467 13.5613 94.3644 13.5927C94.1448 13.624 93.9253 13.6554 93.7057 13.7181V22.8456H90.3182V11.4912C91.0082 11.2402 91.7296 11.052 92.4511 10.8952C93.3607 10.6757 94.3016 10.5816 95.2113 10.6129C95.4308 10.6129 95.6504 10.6443 95.8699 10.6443C96.1209 10.6443 96.3718 10.6757 96.6541 10.7384C96.905 10.7698 97.1559 10.8011 97.4382 10.8639C97.6578 10.8952 97.8774 10.958 98.0969 11.052L97.5323 13.875V13.875ZM76.4858 16.9488C76.4545 16.0079 76.6427 15.0669 76.9563 14.1886C77.2386 13.4359 77.6777 12.7772 78.2423 12.1812C78.7755 11.648 79.3715 11.2402 80.0615 10.9893C80.7516 10.707 81.473 10.5816 82.1944 10.5816C83.8882 10.5816 85.2369 11.1148 86.2093 12.1499C87.1816 13.1849 87.6834 14.7219 87.6834 16.6979C87.6834 16.8861 87.6835 17.1057 87.6521 17.3566C87.6207 17.6075 87.6207 17.7957 87.6207 17.9839H79.9361C79.9988 18.6426 80.3438 19.2699 80.9084 19.6463C81.5985 20.0854 82.414 20.305 83.2295 20.2736C83.8254 20.2736 84.4528 20.2109 85.0487 20.1168C85.5506 20.0227 86.0524 19.8659 86.5229 19.6777L86.9934 22.4379C86.7738 22.5633 86.5229 22.6261 86.272 22.7202C85.927 22.8142 85.5819 22.9083 85.2369 22.9397C84.8605 23.0024 84.4841 23.0652 84.045 23.1279C83.6373 23.1593 83.1981 23.1906 82.759 23.1906C81.7867 23.222 80.8457 23.0652 79.9361 22.7202C79.1833 22.4379 78.5246 21.9987 77.96 21.4342C77.4268 20.8696 77.0504 20.1795 76.7995 19.4581C76.6113 18.6112 76.4858 17.7957 76.4858 16.9488V16.9488ZM84.4528 15.6628C84.4528 15.3805 84.39 15.0982 84.2959 14.816C84.2332 14.5337 84.0764 14.3141 83.9195 14.0945C83.7313 13.875 83.5118 13.6868 83.2609 13.5613C82.9472 13.4045 82.6335 13.3418 82.2885 13.3418C81.9435 13.3418 81.6298 13.4045 81.3162 13.5613C81.0653 13.6868 80.8143 13.8436 80.6261 14.0632C80.4379 14.2827 80.2811 14.5337 80.187 14.816C80.0929 15.0982 80.0302 15.3805 79.9988 15.6628H84.4528V15.6628ZM70.9968 16.7606C70.9968 14.565 70.1813 13.4986 68.5816 13.4986C68.2366 13.4986 67.8916 13.53 67.5466 13.624C67.2643 13.6868 66.982 13.8122 66.731 13.9691V20.1168C66.8879 20.1481 67.1074 20.1795 67.3584 20.2109C67.6093 20.2422 67.8916 20.2422 68.2052 20.2422C69.0208 20.305 69.8049 19.96 70.3068 19.3013C70.7772 18.5485 71.0282 17.6702 70.9968 16.7606V16.7606ZM74.447 16.8861C74.447 17.7643 74.3216 18.6426 74.0079 19.4895C73.757 20.2422 73.3492 20.9009 72.816 21.4655C72.2514 22.0301 71.5928 22.4692 70.8713 22.7515C70.0245 23.0652 69.1462 23.1906 68.2366 23.1906C67.8289 23.1906 67.3897 23.1593 66.9506 23.1279C66.5115 23.0965 66.0724 23.0338 65.6332 23.0024C65.2255 22.9397 64.8177 22.877 64.41 22.7829C64.0022 22.7202 63.6572 22.6261 63.3749 22.5006V5.71985L66.7624 5.18663V11.1461C67.1388 10.9893 67.5466 10.8639 67.9543 10.7698C68.3934 10.6757 68.8326 10.6443 69.2717 10.6443C70.0558 10.6443 70.8086 10.7698 71.53 11.1148C72.1573 11.3971 72.7219 11.8362 73.1611 12.3694C73.6315 12.9654 73.9766 13.624 74.1648 14.3455C74.353 15.1296 74.447 16.0079 74.447 16.8861V16.8861ZM60.1442 22.4065C59.4228 22.5947 58.67 22.7515 57.9172 22.8456C56.9763 23.0024 56.0039 23.0652 55.0629 23.0652C54.1847 23.0965 53.3378 22.9397 52.5223 22.6574C51.895 22.4065 51.3618 22.0301 50.9226 21.5282C50.5149 20.995 50.2326 20.3991 50.0758 19.7404C49.8876 19.019 49.8248 18.2348 49.8248 17.4821V10.8639H53.2124V17.1057C53.2124 18.2035 53.3692 18.9876 53.6515 19.4581C53.9338 19.9286 54.467 20.1795 55.2511 20.1795C55.5021 20.1795 55.753 20.1795 56.0353 20.1481C56.3176 20.1168 56.5371 20.1168 56.7567 20.0541V10.8639H60.1442V22.4065V22.4065ZM40.3837 15.1923C40.7287 14.816 41.0424 14.4396 41.4188 14.0632C41.7638 13.6554 42.1088 13.279 42.4539 12.9026C42.7989 12.4949 43.1125 12.1499 43.3948 11.8048C43.6771 11.4598 43.9594 11.1461 44.179 10.8952H48.1938C47.3783 11.8048 46.5942 12.7144 45.8414 13.5613C45.0572 14.4082 44.2417 15.2864 43.3321 16.1647C43.834 16.6352 44.3044 17.1057 44.7436 17.6389C45.2141 18.2035 45.6845 18.7681 46.155 19.3954C46.5942 19.9913 47.0333 20.6186 47.4097 21.2146C47.7861 21.8105 48.0997 22.3751 48.3506 22.877H44.4613C44.2104 22.4692 43.9281 22.0615 43.6144 21.591C43.3007 21.1205 42.9557 20.65 42.6421 20.1481C42.297 19.6777 41.9206 19.2072 41.5129 18.7681C41.1679 18.3603 40.7915 17.9839 40.3837 17.6702V22.9083H36.9962V5.71985L40.3837 5.18663V15.1923" fill="#9CA3AF"/>
</svg>
