<svg width="159" height="22" viewBox="0 0 159 22" fill="none" xmlns="http://www.w3.org/2000/svg">
<g clip-path="url(#clip0_309:73)">
<path d="M95.7983 1.78343C93.2516 1.78343 92.0137 3.28417 92.0137 5.49474V6.79293H90.0866V8.68475H92.0215V18.6862H94.0189V8.68475H97.0871V6.79293H94.0189L94.0004 5.55427C94.0004 4.48407 94.6328 3.74587 95.8922 3.74587C96.3235 3.74414 96.7533 3.78476 97.1763 3.86527V1.97278C96.7281 1.84492 96.2641 1.78085 95.7983 1.78343V1.78343ZM36.0503 2.22468C35.7148 2.23691 35.3943 2.37522 35.1553 2.61516C34.8811 2.88831 34.74 3.26812 34.7669 3.65405C34.7669 4.16441 35.0384 4.63641 35.4805 4.89104C35.922 5.14675 36.4668 5.14675 36.9082 4.89104C37.3497 4.63641 37.6224 4.16441 37.6216 3.65405C37.6491 3.26812 37.5078 2.88831 37.2338 2.61516C36.9604 2.34093 36.5805 2.19961 36.1946 2.22739C36.1462 2.22394 36.0982 2.22291 36.0503 2.22463V2.22468ZM70.1673 2.822C66.5258 2.822 64.6715 4.6221 64.6715 7.0546C64.6715 9.62311 66.2475 10.8362 69.7621 11.6931C72.735 12.4069 73.5917 13.1418 73.5917 14.5233C73.5917 15.9047 72.7021 16.8321 70.3479 16.8321C68.2803 16.8321 66.0447 16.2856 64.5935 15.5238V17.7109C65.8068 18.3298 67.2099 18.924 70.2319 18.924C74.1104 18.924 75.7276 17.0911 75.7435 14.3803C75.7435 11.5636 73.887 10.5041 70.581 9.67083C67.8239 8.98227 66.8233 8.33853 66.8233 7.0546C66.8233 5.62773 68.0372 4.91391 70.0829 4.91391C71.7814 4.87258 73.4606 5.28275 74.9488 6.10347V3.96213C73.8784 3.36266 72.4274 2.822 70.1673 2.822V2.822ZM30.1532 3.06213L30.1586 14.0716C30.1586 15.6315 29.5336 16.7127 27.726 16.7127C26.9692 16.7186 26.2191 16.5808 25.5146 16.3074V18.3883C26.341 18.67 27.2096 18.807 28.0825 18.7945C31.0345 18.7945 32.2942 16.8076 32.2942 13.9287V3.06213H30.1532H30.1532ZM100.123 4.27053V6.80302H98.1953V8.69584H100.131V14.9723C100.131 17.1861 101.37 18.6836 103.915 18.6836C104.382 18.6861 104.846 18.6221 105.294 18.4942V16.521C104.873 16.6194 104.443 16.6758 104.01 16.6885C102.75 16.6885 102.131 15.9753 102.12 14.9285V8.68475H105.283V6.79293H102.12V4.27053H100.123V4.27053ZM153.249 6.54674C149.633 6.54674 147.635 9.11426 147.635 12.7071C147.635 16.3562 149.584 18.924 154.034 18.924C155.247 18.924 156.748 18.74 157.723 18.2137V16.3209C156.564 16.7454 155.341 16.9634 154.107 16.9643C151.3 16.9643 149.992 15.6559 149.706 13.6337H158.386V12.7071C158.386 9.09253 156.913 6.54674 153.249 6.54674V6.54674ZM52.2966 6.55518C48.9663 6.55518 47.3015 9.38517 47.3015 12.7391C47.3015 16.2369 48.8964 18.9241 52.0588 18.9241C53.8893 18.9241 55.3162 18.1162 56.0789 16.5456L56.0813 18.6863H58.1278V6.79296H56.0813V8.88487C55.3649 7.33855 54.0322 6.55518 52.2966 6.55518H52.2966ZM83.1964 6.55518C79.6281 6.55518 77.5358 9.14742 77.5358 12.7149C77.5358 16.2832 79.6524 18.9325 83.1964 18.9325C86.7404 18.9325 88.8103 16.2832 88.8103 12.7149C88.8103 9.14742 86.7639 6.55518 83.1964 6.55518ZM131.698 6.55518C128.367 6.55518 126.703 9.38517 126.703 12.7391C126.703 16.2369 128.298 18.9241 131.46 18.9241C133.29 18.9241 134.717 18.1162 135.48 16.5456L135.482 18.6863H137.529V6.79296H135.482V8.88487C134.766 7.33855 133.433 6.55518 131.698 6.55518H131.698ZM46.0716 6.61135C44.0256 6.60859 42.9283 7.56919 42.282 8.88487V6.79296H40.2842V18.6943H42.282V11.6663C42.282 9.14723 43.8768 8.35263 46.4934 8.62255V6.6248C46.3484 6.61584 46.208 6.61154 46.0716 6.61137V6.61135ZM146.405 6.61135C144.359 6.60859 143.262 7.56919 142.616 8.88487V6.79296H140.618V18.6943H142.616V11.6663C142.616 9.14723 144.211 8.35263 146.827 8.62255V6.6248C146.682 6.61584 146.542 6.61154 146.405 6.61137V6.61135ZM105.867 6.79296L110.243 18.6863H112.86L114.933 12.9318L116.015 9.26829L117.096 12.9318L119.142 18.6863H121.759L126.135 6.79296H123.875L120.447 16.8776L116.974 6.79296H115.022L111.551 16.8776L108.127 6.79296H105.867V6.79296ZM35.1486 6.79572V18.6887H37.1941V6.79572H35.1486V6.79572ZM153.149 8.42251C155.193 8.42251 156.193 9.68447 156.312 11.8957H149.682V11.8826C149.896 9.82012 150.99 8.41176 153.149 8.42253V8.42251ZM52.8347 8.44706C54.5812 8.44706 56.0789 9.61235 56.0789 12.2532V13.2151C56.0789 15.8548 54.4391 17.0204 52.608 17.0216C50.4883 17.0216 49.3479 15.5936 49.337 12.7281C49.337 9.96864 50.526 8.44706 52.8347 8.44706V8.44706ZM132.236 8.44706C133.982 8.44706 135.48 9.61235 135.48 12.2532V13.2151C135.48 15.8545 133.84 17.0201 132.009 17.0216C129.889 17.0216 128.741 15.5938 128.741 12.7392C128.741 9.97973 129.938 8.4688 132.236 8.44706V8.44706ZM83.1964 8.46859C85.718 8.46859 86.8125 10.4558 86.8125 12.715C86.8125 14.975 85.7397 17.0216 83.1964 17.0216C80.6531 17.0216 79.5335 14.975 79.5335 12.715H79.5437C79.5437 10.4558 80.674 8.46859 83.1965 8.46859H83.1964Z" fill="#9CA3AF"/>
<path d="M20.184 10.2958L11.3715 1.48325L10.5174 0.629791L0.85135 10.2958C0.53537 10.6127 0.53537 11.1256 0.85135 11.4418L6.912 17.5022L10.5174 21.1085L20.184 11.4418C20.5002 11.1256 20.5002 10.6127 20.184 10.2958V10.2958ZM10.5174 13.896L7.49038 10.8692L10.5174 7.84137L13.545 10.8692L10.5174 13.896Z" fill="#9CA3AF"/>
<path d="M10.5174 7.84137C8.5356 5.85876 8.52548 2.64773 10.4963 0.653473L3.8708 7.27636L7.47703 10.8826L10.5174 7.84137Z" fill="#858B95"/>
<path d="M13.5534 10.8607L10.5173 13.896C11.4741 14.8519 12.0122 16.1494 12.0122 17.5023C12.0122 18.8551 11.4741 20.1517 10.5173 21.1085L17.1588 14.4669L13.5534 10.8607V10.8607Z" fill="#858B95"/>
</g>
<defs>
<clipPath id="clip0_309:73">
<rect width="159" height="21.7383" fill="white"/>
</clipPath>
</defs>
</svg>
