<svg width="159" height="33" viewBox="0 0 159 33" fill="none" xmlns="http://www.w3.org/2000/svg">
<g clip-path="url(#clip0_309:27)">
<path d="M155.036 6.83433L151.448 17.0124C150.796 18.8392 150.469 19.8832 149.866 21.6447H149.801C149.328 20.1278 148.903 18.9045 148.284 17.1103L144.793 6.81801H140.617L147.843 25.7062C147.68 26.114 147.517 26.5381 147.338 26.9785C146.734 28.4464 145.299 29.4088 143.717 29.4088H141.922V32.6221H143.765C146.75 32.6221 149.442 30.8116 150.551 28.0224C152.851 22.2646 156.765 12.4616 159 6.83433H155.036V6.83433Z" fill="#9CA3AF"/>
<path d="M54.8377 22.0851C54.8377 28.9195 51.706 32.6221 45.3773 32.6221C40.6634 32.6221 37.8253 30.1428 36.814 26.4076H40.6308C41.2832 28.1365 42.637 29.6861 45.4425 29.6861C49.765 29.6861 51.2982 26.9948 51.2982 21.8731C51.2656 21.8731 51.2656 21.8405 51.2329 21.8405C50.3032 23.4553 48.2154 24.8906 44.9043 24.8906C39.5869 24.8906 36.1942 21.0412 36.1942 15.6423C36.1942 10.0313 39.8642 6.24713 44.9369 6.24713C48.2154 6.24713 50.189 7.64988 51.2656 9.19943C51.2329 8.80796 51.2329 8.40018 51.2329 8.00872V6.81801H54.8377V22.0851V22.0851ZM40.1578 15.6097C40.1578 19.2796 42.2129 21.9057 45.7361 21.9057C48.9005 21.9057 51.3471 19.6711 51.3471 15.4955C51.3471 11.7929 49.1941 9.3136 45.7361 9.3136C42.2782 9.3136 40.1578 11.7929 40.1578 15.6097Z" fill="#9CA3AF"/>
<path d="M60.7912 17.2245C60.938 20.5356 63.0585 23.1617 66.7285 23.1617C69.3219 23.1617 70.5779 21.9383 71.5402 20.3236H75.1776C74.1011 23.7326 71.1161 26.1792 66.5817 26.1792C60.7586 26.1792 57.1213 22.2646 57.1213 16.36C57.1213 10.4554 60.9054 6.29606 66.5817 6.29606C72.7309 6.29606 75.569 10.9773 75.569 16.0501V17.2408H60.7912V17.2245ZM71.7849 14.3537C71.4587 11.3688 69.5829 9.24836 66.5001 9.24836C63.5478 9.24836 61.2806 11.1894 60.9217 14.3537H71.7849Z" fill="#9CA3AF"/>
<path d="M81.3921 6.83433V9.24836C81.9956 7.48677 83.8387 6.37762 85.9592 6.37762C86.4322 6.37762 86.6442 6.41024 86.8889 6.44286V9.754C86.5627 9.68876 86.0244 9.63982 85.633 9.63982C82.2239 9.63982 81.5715 12.1517 81.5715 15.9359V25.7225H77.9341V10.227C77.9341 9.03632 77.9341 7.99241 77.9015 6.85064H81.3921V6.83433Z" fill="#9CA3AF"/>
<path d="M124.241 23.0149C123.263 24.6297 121.436 26.1792 118.239 26.1792C113.851 26.1792 111.698 23.4879 111.698 18.5946V6.83433H115.319V17.2245C115.319 20.9271 116.542 23.1617 119.495 23.1617C123.377 23.1617 124.062 19.6385 124.062 15.4955V6.83433H127.699V22.8681C127.699 23.8467 127.699 24.7765 127.732 25.7062H124.241V23.0149Z" fill="#9CA3AF"/>
<path d="M135.871 6.83433H139.394V9.63983H135.871V20.976C135.871 22.7702 136.768 23.3085 138.171 23.3085C138.415 23.3085 138.856 23.2759 139.068 23.2432V25.9346C138.53 25.9998 138.138 26.0814 137.665 26.0814C134.321 26.0814 132.201 24.9722 132.201 21.188V9.63983H129.363V6.83433H132.201V1.72897H135.871V6.83433Z" fill="#9CA3AF"/>
<path d="M3.76785 18.8556H0V25.7062H3.76785V18.8556Z" fill="#9CA3AF"/>
<path d="M14.1906 1.25595C12.168 0.179421 10.7653 0 7.45414 0H0V15.5934H3.76785H4.25718H7.42152C10.3738 15.5934 12.5758 15.4139 14.5168 14.1254C16.6373 12.7226 17.7301 10.3901 17.7301 7.69881C17.7301 4.77913 16.3763 2.44666 14.1906 1.25595ZM8.28601 12.3311H3.76785V3.34376L8.02503 3.31114C11.9071 3.26221 13.8481 4.63233 13.8481 7.73143C13.8481 11.0589 11.4503 12.3311 8.28601 12.3311Z" fill="#9CA3AF"/>
<path d="M89.1072 0H95.4033C104.831 0.0652442 109.366 4.66496 109.398 12.9183C109.431 19.9484 105.793 25.6246 96.0231 25.7225H89.1235V0H89.1072ZM92.924 22.5092H95.126C101.96 22.5092 105.532 19.8995 105.532 12.902C105.516 6.75277 101.977 3.22959 95.4848 3.22959C94.2289 3.22959 92.924 3.26221 92.924 3.26221V22.5092V22.5092Z" fill="#9CA3AF"/>
<path d="M30.942 25.7225C30.8278 24.9722 30.8278 24.4992 30.7626 23.1291C29.3272 25.1842 27.4188 26.0813 24.4013 26.0813C20.4377 26.0813 17.567 24.1403 17.567 20.6172C17.567 16.5557 21.449 15.2182 26.4891 14.5331C27.7451 14.3537 29.1478 14.2069 30.3711 14.109C30.3711 10.3738 28.2996 9.24836 26.1303 9.24836C23.9609 9.24836 22.3787 10.7653 22.3787 12.7552H18.8555C18.8555 8.92214 21.8731 6.34499 26.2118 6.34499C30.5506 6.34499 33.8943 8.13921 33.8943 15.0551V18.7251C33.8943 21.7752 34.0411 24.0098 34.3673 25.7388H30.942V25.7225ZM21.4816 20.5682C21.4816 22.3298 22.917 23.439 25.2168 23.439C28.5932 23.439 30.4038 21.3838 30.4038 17.7138C30.4038 17.2408 30.4038 16.9145 30.4364 16.7025C24.2871 17.3386 21.4816 17.9421 21.4816 20.5682Z" fill="#9CA3AF"/>
</g>
<defs>
<clipPath id="clip0_309:27">
<rect width="159" height="32.6221" fill="white"/>
</clipPath>
</defs>
</svg>
