<svg width="422" height="364" viewBox="0 0 422 364" fill="none" xmlns="http://www.w3.org/2000/svg">
<g clip-path="url(#clip0)">
<rect width="422" height="364" fill="white"/>
<g filter="url(#filter0_d)">
<rect y="28" width="414" height="248" rx="4" fill="white"/>
<rect x="0.5" y="28.5" width="413" height="247" rx="3.5" stroke="#767676"/>
</g>
<rect x="19" y="104" width="376" height="49" fill="#C4C4C4" fill-opacity="0.19"/>
<path d="M42.4961 129.493V133H40.4453V123.047H44.3281C45.0755 123.047 45.7318 123.184 46.2969 123.457C46.8666 123.73 47.3041 124.12 47.6094 124.626C47.9147 125.127 48.0674 125.699 48.0674 126.342C48.0674 127.317 47.7324 128.087 47.0625 128.652C46.3972 129.213 45.4743 129.493 44.294 129.493H42.4961ZM42.4961 127.832H44.3281C44.8705 127.832 45.2829 127.704 45.5654 127.449C45.8526 127.194 45.9961 126.829 45.9961 126.355C45.9961 125.868 45.8526 125.474 45.5654 125.173C45.2783 124.872 44.8819 124.717 44.376 124.708H42.4961V127.832ZM53.5567 133C53.4655 132.822 53.3994 132.601 53.3584 132.337C52.8799 132.87 52.2578 133.137 51.4922 133.137C50.7676 133.137 50.166 132.927 49.6875 132.508C49.2136 132.089 48.9766 131.56 48.9766 130.922C48.9766 130.138 49.266 129.536 49.8447 129.117C50.4281 128.698 51.2689 128.486 52.3672 128.481H53.2764V128.058C53.2764 127.716 53.1875 127.442 53.0098 127.237C52.8366 127.032 52.5609 126.93 52.1826 126.93C51.85 126.93 51.5879 127.009 51.3965 127.169C51.2097 127.328 51.1162 127.547 51.1162 127.825H49.1406C49.1406 127.397 49.2728 127 49.5371 126.636C49.8014 126.271 50.1751 125.986 50.6582 125.781C51.1413 125.572 51.6836 125.467 52.2852 125.467C53.1966 125.467 53.919 125.697 54.4522 126.157C54.9899 126.613 55.2588 127.256 55.2588 128.085V131.291C55.2634 131.993 55.3613 132.524 55.5527 132.884V133H53.5567ZM51.9229 131.626C52.2145 131.626 52.4834 131.562 52.7295 131.435C52.9756 131.302 53.1579 131.127 53.2764 130.908V129.637H52.5381C51.5492 129.637 51.0228 129.979 50.959 130.662L50.9522 130.778C50.9522 131.024 51.0388 131.227 51.2119 131.387C51.3851 131.546 51.6221 131.626 51.9229 131.626ZM59.8526 131.544C60.2171 131.544 60.5134 131.444 60.7412 131.243C60.9691 131.043 61.0876 130.776 61.0967 130.443H62.9492C62.9447 130.945 62.808 131.405 62.5391 131.824C62.2702 132.239 61.9011 132.562 61.4317 132.795C60.9668 133.023 60.4518 133.137 59.8867 133.137C58.8294 133.137 57.9955 132.802 57.3848 132.132C56.7741 131.457 56.4688 130.528 56.4688 129.343V129.213C56.4688 128.074 56.7718 127.164 57.3779 126.485C57.9841 125.806 58.8158 125.467 59.8731 125.467C60.7982 125.467 61.5388 125.731 62.0947 126.26C62.6553 126.784 62.9401 127.483 62.9492 128.358H61.0967C61.0876 127.976 60.9691 127.666 60.7412 127.429C60.5134 127.187 60.2126 127.066 59.8389 127.066C59.3786 127.066 59.03 127.235 58.793 127.572C58.5606 127.905 58.4444 128.447 58.4444 129.199V129.404C58.4444 130.165 58.5606 130.712 58.793 131.045C59.0254 131.378 59.3786 131.544 59.8526 131.544ZM66.7637 130.033L66.0527 130.744V133H64.0772V122.5H66.0527V128.317L66.4356 127.825L68.3291 125.604H70.7012L68.0283 128.687L70.9336 133H68.6641L66.7637 130.033ZM75.8418 133C75.7507 132.822 75.6846 132.601 75.6436 132.337C75.1651 132.87 74.543 133.137 73.7774 133.137C73.0527 133.137 72.4512 132.927 71.9727 132.508C71.4987 132.089 71.2617 131.56 71.2617 130.922C71.2617 130.138 71.5511 129.536 72.1299 129.117C72.7132 128.698 73.5541 128.486 74.6524 128.481H75.5615V128.058C75.5615 127.716 75.4727 127.442 75.2949 127.237C75.1218 127.032 74.846 126.93 74.4678 126.93C74.1351 126.93 73.8731 127.009 73.6817 127.169C73.4948 127.328 73.4014 127.547 73.4014 127.825H71.4258C71.4258 127.397 71.558 127 71.8223 126.636C72.0866 126.271 72.4603 125.986 72.9434 125.781C73.4264 125.572 73.9688 125.467 74.5703 125.467C75.4818 125.467 76.2041 125.697 76.7373 126.157C77.2751 126.613 77.544 127.256 77.544 128.085V131.291C77.5485 131.993 77.6465 132.524 77.8379 132.884V133H75.8418ZM74.208 131.626C74.4997 131.626 74.7686 131.562 75.0147 131.435C75.2608 131.302 75.443 131.127 75.5615 130.908V129.637H74.8233C73.8343 129.637 73.308 129.979 73.2442 130.662L73.2373 130.778C73.2373 131.024 73.3239 131.227 73.4971 131.387C73.6703 131.546 73.9072 131.626 74.208 131.626ZM78.7744 129.247C78.7744 128.112 79.0433 127.199 79.5811 126.506C80.1234 125.813 80.8526 125.467 81.7686 125.467C82.5798 125.467 83.211 125.745 83.6621 126.301L83.7442 125.604H85.5352V132.754C85.5352 133.401 85.3871 133.964 85.0908 134.442C84.7992 134.921 84.3867 135.285 83.8535 135.536C83.3203 135.787 82.696 135.912 81.9805 135.912C81.4382 135.912 80.9095 135.803 80.3945 135.584C79.8796 135.37 79.4899 135.092 79.2256 134.75L80.1006 133.547C80.5928 134.098 81.1898 134.374 81.8916 134.374C82.4157 134.374 82.8236 134.233 83.1152 133.95C83.4069 133.672 83.5527 133.276 83.5527 132.761V132.364C83.097 132.879 82.4977 133.137 81.7549 133.137C80.8662 133.137 80.1462 132.79 79.5947 132.098C79.0479 131.4 78.7744 130.478 78.7744 129.329V129.247ZM80.75 129.391C80.75 130.061 80.8845 130.587 81.1533 130.97C81.4222 131.348 81.7914 131.537 82.2608 131.537C82.8623 131.537 83.293 131.312 83.5527 130.86V127.75C83.2884 127.299 82.8623 127.073 82.2744 127.073C81.8005 127.073 81.4268 127.267 81.1533 127.654C80.8845 128.042 80.75 128.62 80.75 129.391ZM90.4639 133.137C89.3792 133.137 88.4951 132.804 87.8115 132.139C87.1325 131.473 86.793 130.587 86.793 129.479V129.288C86.793 128.545 86.9365 127.882 87.2236 127.299C87.5108 126.711 87.9164 126.26 88.4404 125.945C88.9691 125.626 89.5707 125.467 90.2451 125.467C91.2569 125.467 92.0521 125.786 92.6309 126.424C93.2142 127.062 93.5059 127.966 93.5059 129.138V129.944H88.7959C88.8597 130.427 89.0511 130.815 89.3701 131.106C89.6937 131.398 90.1016 131.544 90.5938 131.544C91.3548 131.544 91.9496 131.268 92.3779 130.717L93.3486 131.804C93.0524 132.223 92.6514 132.551 92.1455 132.788C91.6397 133.021 91.0791 133.137 90.4639 133.137ZM90.2383 127.066C89.8464 127.066 89.5274 127.199 89.2813 127.463C89.0397 127.727 88.8848 128.105 88.8164 128.598H91.5645V128.44C91.5554 128.003 91.4369 127.666 91.209 127.429C90.9811 127.187 90.6576 127.066 90.2383 127.066Z" fill="black"/>
<path d="M183 129.568C182.945 130.671 182.672 131.542 182.18 132.18C181.688 132.818 181.029 133.137 180.204 133.137C179.352 133.137 178.805 132.754 178.564 131.988C178.318 132.376 178.035 132.665 177.716 132.856C177.402 133.043 177.076 133.137 176.738 133.137C176.091 133.137 175.601 132.872 175.269 132.344C174.936 131.815 174.813 131.084 174.9 130.149C174.968 129.397 175.139 128.728 175.412 128.14C175.69 127.547 176.046 127.082 176.479 126.745C176.916 126.408 177.374 126.239 177.853 126.239C178.222 126.239 178.552 126.289 178.844 126.39C179.136 126.485 179.464 126.677 179.828 126.964L179.473 130.751C179.386 131.804 179.678 132.33 180.348 132.33C180.863 132.33 181.28 132.075 181.599 131.564C181.918 131.054 182.091 130.389 182.118 129.568C182.205 127.796 181.874 126.444 181.127 125.515C180.384 124.585 179.252 124.12 177.73 124.12C176.814 124.12 176 124.348 175.289 124.804C174.578 125.255 174.018 125.909 173.608 126.766C173.197 127.622 172.967 128.611 172.917 129.732C172.862 130.863 172.999 131.845 173.327 132.679C173.655 133.508 174.154 134.142 174.824 134.579C175.499 135.021 176.312 135.242 177.265 135.242C177.675 135.242 178.085 135.192 178.495 135.092C178.91 134.992 179.254 134.862 179.527 134.702L179.78 135.488C179.498 135.666 179.122 135.812 178.652 135.926C178.188 136.04 177.716 136.097 177.237 136.097C176.098 136.097 175.118 135.839 174.298 135.324C173.478 134.814 172.862 134.076 172.452 133.109C172.047 132.148 171.871 131.022 171.926 129.732C171.981 128.479 172.261 127.354 172.767 126.355C173.273 125.353 173.958 124.58 174.824 124.038C175.69 123.491 176.668 123.218 177.757 123.218C178.892 123.218 179.865 123.473 180.676 123.983C181.487 124.494 182.091 125.23 182.487 126.191C182.884 127.153 183.055 128.279 183 129.568ZM175.986 130.149C175.923 130.797 175.982 131.293 176.164 131.64C176.351 131.986 176.645 132.159 177.046 132.159C177.319 132.159 177.582 132.043 177.832 131.811C178.087 131.578 178.297 131.245 178.461 130.812L178.468 130.751L178.782 127.312C178.527 127.18 178.254 127.114 177.962 127.114C177.429 127.114 176.987 127.385 176.636 127.928C176.29 128.47 176.073 129.211 175.986 130.149ZM188.23 126.738C188.038 126.706 187.831 126.69 187.608 126.69C186.778 126.69 186.215 127.044 185.919 127.75V133H184.654V125.604H185.885L185.905 126.458C186.32 125.797 186.908 125.467 187.669 125.467C187.915 125.467 188.102 125.499 188.23 125.562V126.738ZM188.927 129.233C188.927 128.509 189.068 127.857 189.351 127.278C189.638 126.7 190.034 126.253 190.54 125.938C191.051 125.624 191.632 125.467 192.283 125.467C193.291 125.467 194.104 125.815 194.724 126.513C195.348 127.21 195.66 128.137 195.66 129.295V129.384C195.66 130.104 195.521 130.751 195.243 131.325C194.97 131.895 194.576 132.339 194.061 132.658C193.55 132.977 192.962 133.137 192.297 133.137C191.294 133.137 190.481 132.788 189.857 132.091C189.237 131.394 188.927 130.471 188.927 129.322V129.233ZM190.198 129.384C190.198 130.204 190.388 130.863 190.766 131.359C191.149 131.856 191.659 132.104 192.297 132.104C192.94 132.104 193.45 131.854 193.828 131.353C194.207 130.847 194.396 130.14 194.396 129.233C194.396 128.422 194.202 127.766 193.815 127.265C193.432 126.759 192.921 126.506 192.283 126.506C191.659 126.506 191.155 126.754 190.773 127.251C190.39 127.748 190.198 128.459 190.198 129.384ZM201.813 133C201.74 132.854 201.68 132.594 201.635 132.221C201.047 132.831 200.345 133.137 199.529 133.137C198.8 133.137 198.201 132.932 197.732 132.521C197.267 132.107 197.034 131.583 197.034 130.949C197.034 130.179 197.326 129.582 197.909 129.158C198.497 128.73 199.322 128.516 200.384 128.516H201.614V127.935C201.614 127.493 201.482 127.142 201.218 126.882C200.954 126.618 200.564 126.485 200.049 126.485C199.598 126.485 199.22 126.599 198.914 126.827C198.609 127.055 198.456 127.331 198.456 127.654H197.185C197.185 127.285 197.315 126.93 197.574 126.588C197.839 126.242 198.194 125.968 198.641 125.768C199.092 125.567 199.586 125.467 200.124 125.467C200.976 125.467 201.644 125.681 202.127 126.109C202.61 126.533 202.861 127.119 202.879 127.866V131.271C202.879 131.95 202.966 132.49 203.139 132.891V133H201.813ZM199.714 132.036C200.11 132.036 200.486 131.934 200.842 131.729C201.197 131.523 201.455 131.257 201.614 130.929V129.411H200.623C199.074 129.411 198.299 129.865 198.299 130.771C198.299 131.168 198.431 131.478 198.695 131.701C198.96 131.924 199.299 132.036 199.714 132.036ZM204.554 129.24C204.554 128.105 204.823 127.194 205.36 126.506C205.898 125.813 206.602 125.467 207.473 125.467C208.339 125.467 209.025 125.763 209.53 126.355V122.5H210.795V133H209.633L209.571 132.207C209.066 132.827 208.361 133.137 207.459 133.137C206.602 133.137 205.903 132.786 205.36 132.084C204.823 131.382 204.554 130.466 204.554 129.336V129.24ZM205.818 129.384C205.818 130.222 205.992 130.879 206.338 131.353C206.684 131.826 207.163 132.063 207.774 132.063C208.576 132.063 209.161 131.703 209.53 130.983V127.586C209.152 126.889 208.571 126.54 207.787 126.54C207.167 126.54 206.684 126.779 206.338 127.258C205.992 127.736 205.818 128.445 205.818 129.384ZM214.138 133H212.873V125.604H214.138V133ZM212.771 123.642C212.771 123.437 212.832 123.263 212.955 123.122C213.083 122.981 213.27 122.91 213.516 122.91C213.762 122.91 213.949 122.981 214.076 123.122C214.204 123.263 214.268 123.437 214.268 123.642C214.268 123.847 214.204 124.018 214.076 124.154C213.949 124.291 213.762 124.359 213.516 124.359C213.27 124.359 213.083 124.291 212.955 124.154C212.832 124.018 212.771 123.847 212.771 123.642ZM219.237 133.137C218.235 133.137 217.419 132.809 216.79 132.152C216.161 131.492 215.847 130.61 215.847 129.507V129.274C215.847 128.541 215.986 127.887 216.264 127.312C216.546 126.734 216.938 126.283 217.44 125.959C217.945 125.631 218.492 125.467 219.08 125.467C220.042 125.467 220.789 125.784 221.322 126.417C221.856 127.05 222.122 127.957 222.122 129.138V129.664H217.111C217.13 130.393 217.342 130.983 217.747 131.435C218.157 131.881 218.677 132.104 219.306 132.104C219.752 132.104 220.131 132.013 220.441 131.831C220.75 131.649 221.022 131.407 221.254 131.106L222.027 131.708C221.407 132.66 220.477 133.137 219.237 133.137ZM219.08 126.506C218.57 126.506 218.141 126.693 217.795 127.066C217.449 127.436 217.235 127.955 217.152 128.625H220.858V128.529C220.821 127.887 220.648 127.39 220.338 127.039C220.028 126.684 219.609 126.506 219.08 126.506ZM226.224 129.288H222.888V128.256H226.224V129.288ZM229.177 123.812V125.604H230.558V126.581H229.177V131.168C229.177 131.464 229.238 131.688 229.361 131.838C229.485 131.984 229.694 132.057 229.99 132.057C230.136 132.057 230.337 132.029 230.592 131.975V133C230.259 133.091 229.936 133.137 229.621 133.137C229.056 133.137 228.63 132.966 228.343 132.624C228.056 132.282 227.912 131.797 227.912 131.168V126.581H226.566V125.604H227.912V123.812H229.177ZM235.11 133.137C234.108 133.137 233.292 132.809 232.663 132.152C232.034 131.492 231.72 130.61 231.72 129.507V129.274C231.72 128.541 231.859 127.887 232.137 127.312C232.419 126.734 232.811 126.283 233.313 125.959C233.818 125.631 234.365 125.467 234.953 125.467C235.915 125.467 236.662 125.784 237.195 126.417C237.729 127.05 237.995 127.957 237.995 129.138V129.664H232.985C233.003 130.393 233.215 130.983 233.62 131.435C234.03 131.881 234.55 132.104 235.179 132.104C235.625 132.104 236.004 132.013 236.314 131.831C236.624 131.649 236.895 131.407 237.127 131.106L237.9 131.708C237.28 132.66 236.35 133.137 235.11 133.137ZM234.953 126.506C234.443 126.506 234.014 126.693 233.668 127.066C233.322 127.436 233.108 127.955 233.026 128.625H236.731V128.529C236.694 127.887 236.521 127.39 236.211 127.039C235.901 126.684 235.482 126.506 234.953 126.506ZM243.772 131.038C243.772 130.696 243.642 130.432 243.382 130.245C243.127 130.054 242.678 129.89 242.035 129.753C241.397 129.616 240.889 129.452 240.511 129.261C240.137 129.069 239.859 128.841 239.677 128.577C239.499 128.313 239.41 127.998 239.41 127.634C239.41 127.028 239.666 126.515 240.176 126.096C240.691 125.676 241.347 125.467 242.145 125.467C242.983 125.467 243.662 125.683 244.182 126.116C244.706 126.549 244.968 127.103 244.968 127.777H243.696C243.696 127.431 243.548 127.132 243.252 126.882C242.96 126.631 242.591 126.506 242.145 126.506C241.684 126.506 241.324 126.606 241.065 126.807C240.805 127.007 240.675 127.269 240.675 127.593C240.675 127.898 240.796 128.128 241.037 128.283C241.279 128.438 241.714 128.586 242.343 128.728C242.976 128.869 243.489 129.037 243.881 129.233C244.273 129.429 244.562 129.666 244.749 129.944C244.941 130.218 245.036 130.553 245.036 130.949C245.036 131.61 244.772 132.141 244.243 132.542C243.715 132.938 243.029 133.137 242.186 133.137C241.593 133.137 241.069 133.032 240.613 132.822C240.158 132.613 239.8 132.321 239.54 131.947C239.285 131.569 239.157 131.161 239.157 130.724H240.422C240.445 131.147 240.613 131.485 240.928 131.735C241.247 131.981 241.666 132.104 242.186 132.104C242.664 132.104 243.047 132.009 243.334 131.817C243.626 131.621 243.772 131.362 243.772 131.038ZM248.4 123.812V125.604H249.78V126.581H248.4V131.168C248.4 131.464 248.461 131.688 248.584 131.838C248.707 131.984 248.917 132.057 249.213 132.057C249.359 132.057 249.559 132.029 249.815 131.975V133C249.482 133.091 249.158 133.137 248.844 133.137C248.279 133.137 247.853 132.966 247.566 132.624C247.278 132.282 247.135 131.797 247.135 131.168V126.581H245.788V125.604H247.135V123.812H248.4ZM251.517 133.854H250.43L254.586 123.047H255.666L251.517 133.854ZM263.295 129.384C263.295 130.514 263.035 131.423 262.516 132.111C261.996 132.795 261.299 133.137 260.424 133.137C259.49 133.137 258.767 132.806 258.257 132.146L258.195 133H257.033V122.5H258.298V126.417C258.808 125.784 259.513 125.467 260.41 125.467C261.308 125.467 262.012 125.806 262.523 126.485C263.038 127.164 263.295 128.094 263.295 129.274V129.384ZM262.03 129.24C262.03 128.379 261.864 127.714 261.531 127.244C261.199 126.775 260.72 126.54 260.096 126.54C259.262 126.54 258.663 126.927 258.298 127.702V130.901C258.685 131.676 259.289 132.063 260.11 132.063C260.716 132.063 261.187 131.829 261.525 131.359C261.862 130.89 262.03 130.184 262.03 129.24ZM267.964 133.137C266.961 133.137 266.146 132.809 265.517 132.152C264.888 131.492 264.573 130.61 264.573 129.507V129.274C264.573 128.541 264.712 127.887 264.99 127.312C265.273 126.734 265.665 126.283 266.166 125.959C266.672 125.631 267.219 125.467 267.807 125.467C268.768 125.467 269.516 125.784 270.049 126.417C270.582 127.05 270.849 127.957 270.849 129.138V129.664H265.838C265.856 130.393 266.068 130.983 266.474 131.435C266.884 131.881 267.403 132.104 268.032 132.104C268.479 132.104 268.857 132.013 269.167 131.831C269.477 131.649 269.748 131.407 269.981 131.106L270.753 131.708C270.133 132.66 269.204 133.137 267.964 133.137ZM267.807 126.506C267.296 126.506 266.868 126.693 266.522 127.066C266.175 127.436 265.961 127.955 265.879 128.625H269.584V128.529C269.548 127.887 269.374 127.39 269.065 127.039C268.755 126.684 268.335 126.506 267.807 126.506ZM276.625 131.038C276.625 130.696 276.495 130.432 276.235 130.245C275.98 130.054 275.531 129.89 274.889 129.753C274.251 129.616 273.743 129.452 273.364 129.261C272.991 129.069 272.713 128.841 272.53 128.577C272.353 128.313 272.264 127.998 272.264 127.634C272.264 127.028 272.519 126.515 273.029 126.096C273.544 125.676 274.201 125.467 274.998 125.467C275.837 125.467 276.516 125.683 277.035 126.116C277.559 126.549 277.821 127.103 277.821 127.777H276.55C276.55 127.431 276.402 127.132 276.106 126.882C275.814 126.631 275.445 126.506 274.998 126.506C274.538 126.506 274.178 126.606 273.918 126.807C273.658 127.007 273.528 127.269 273.528 127.593C273.528 127.898 273.649 128.128 273.891 128.283C274.132 128.438 274.568 128.586 275.196 128.728C275.83 128.869 276.343 129.037 276.735 129.233C277.126 129.429 277.416 129.666 277.603 129.944C277.794 130.218 277.89 130.553 277.89 130.949C277.89 131.61 277.625 132.141 277.097 132.542C276.568 132.938 275.882 133.137 275.039 133.137C274.447 133.137 273.923 133.032 273.467 132.822C273.011 132.613 272.653 132.321 272.394 131.947C272.138 131.569 272.011 131.161 272.011 130.724H273.276C273.298 131.147 273.467 131.485 273.781 131.735C274.1 131.981 274.52 132.104 275.039 132.104C275.518 132.104 275.901 132.009 276.188 131.817C276.479 131.621 276.625 131.362 276.625 131.038ZM285.785 129.384C285.785 130.509 285.528 131.416 285.013 132.104C284.498 132.793 283.801 133.137 282.921 133.137C282.023 133.137 281.317 132.852 280.802 132.282V135.844H279.537V125.604H280.693L280.754 126.424C281.269 125.786 281.985 125.467 282.901 125.467C283.789 125.467 284.491 125.802 285.006 126.472C285.526 127.142 285.785 128.074 285.785 129.268V129.384ZM284.521 129.24C284.521 128.406 284.343 127.748 283.987 127.265C283.632 126.782 283.144 126.54 282.525 126.54C281.759 126.54 281.185 126.88 280.802 127.559V131.093C281.18 131.767 281.759 132.104 282.538 132.104C283.144 132.104 283.625 131.865 283.981 131.387C284.341 130.904 284.521 130.188 284.521 129.24ZM287.064 129.233C287.064 128.509 287.205 127.857 287.487 127.278C287.775 126.7 288.171 126.253 288.677 125.938C289.187 125.624 289.768 125.467 290.42 125.467C291.427 125.467 292.241 125.815 292.86 126.513C293.485 127.21 293.797 128.137 293.797 129.295V129.384C293.797 130.104 293.658 130.751 293.38 131.325C293.107 131.895 292.712 132.339 292.197 132.658C291.687 132.977 291.099 133.137 290.434 133.137C289.431 133.137 288.618 132.788 287.993 132.091C287.374 131.394 287.064 130.471 287.064 129.322V129.233ZM288.335 129.384C288.335 130.204 288.524 130.863 288.902 131.359C289.285 131.856 289.796 132.104 290.434 132.104C291.076 132.104 291.587 131.854 291.965 131.353C292.343 130.847 292.532 130.14 292.532 129.233C292.532 128.422 292.339 127.766 291.951 127.265C291.568 126.759 291.058 126.506 290.42 126.506C289.796 126.506 289.292 126.754 288.909 127.251C288.527 127.748 288.335 128.459 288.335 129.384ZM297.447 129.575L296.654 130.402V133H295.39V122.5H296.654V128.851L297.331 128.037L299.635 125.604H301.173L298.295 128.693L301.508 133H300.025L297.447 129.575ZM305.411 133.137C304.409 133.137 303.593 132.809 302.964 132.152C302.335 131.492 302.021 130.61 302.021 129.507V129.274C302.021 128.541 302.16 127.887 302.438 127.312C302.72 126.734 303.112 126.283 303.613 125.959C304.119 125.631 304.666 125.467 305.254 125.467C306.216 125.467 306.963 125.784 307.496 126.417C308.029 127.05 308.296 127.957 308.296 129.138V129.664H303.285C303.304 130.393 303.515 130.983 303.921 131.435C304.331 131.881 304.851 132.104 305.48 132.104C305.926 132.104 306.304 132.013 306.614 131.831C306.924 131.649 307.195 131.407 307.428 131.106L308.2 131.708C307.581 132.66 306.651 133.137 305.411 133.137ZM305.254 126.506C304.744 126.506 304.315 126.693 303.969 127.066C303.623 127.436 303.408 127.955 303.326 128.625H307.031V128.529C306.995 127.887 306.822 127.39 306.512 127.039C306.202 126.684 305.783 126.506 305.254 126.506ZM312.398 129.288H309.062V128.256H312.398V129.288ZM319.883 129.384C319.883 130.509 319.625 131.416 319.11 132.104C318.596 132.793 317.898 133.137 317.019 133.137C316.121 133.137 315.415 132.852 314.9 132.282V135.844H313.635V125.604H314.79L314.852 126.424C315.367 125.786 316.082 125.467 316.998 125.467C317.887 125.467 318.589 125.802 319.104 126.472C319.623 127.142 319.883 128.074 319.883 129.268V129.384ZM318.618 129.24C318.618 128.406 318.441 127.748 318.085 127.265C317.73 126.782 317.242 126.54 316.622 126.54C315.857 126.54 315.282 126.88 314.9 127.559V131.093C315.278 131.767 315.857 132.104 316.636 132.104C317.242 132.104 317.723 131.865 318.078 131.387C318.438 130.904 318.618 130.188 318.618 129.24ZM322.87 133H321.606V122.5H322.87V133ZM329.467 132.269C328.975 132.847 328.252 133.137 327.3 133.137C326.512 133.137 325.91 132.909 325.495 132.453C325.085 131.993 324.878 131.314 324.873 130.416V125.604H326.138V130.382C326.138 131.503 326.594 132.063 327.505 132.063C328.471 132.063 329.114 131.703 329.433 130.983V125.604H330.697V133H329.494L329.467 132.269ZM332.324 129.24C332.324 128.087 332.591 127.171 333.124 126.492C333.657 125.809 334.364 125.467 335.243 125.467C336.146 125.467 336.85 125.786 337.356 126.424L337.417 125.604H338.572V132.822C338.572 133.779 338.288 134.534 337.718 135.085C337.153 135.636 336.392 135.912 335.435 135.912C334.902 135.912 334.38 135.798 333.869 135.57C333.359 135.342 332.969 135.03 332.7 134.634L333.357 133.875C333.899 134.545 334.562 134.88 335.346 134.88C335.961 134.88 336.44 134.707 336.781 134.36C337.128 134.014 337.301 133.526 337.301 132.897V132.262C336.795 132.845 336.105 133.137 335.23 133.137C334.364 133.137 333.662 132.788 333.124 132.091C332.591 131.394 332.324 130.443 332.324 129.24ZM333.596 129.384C333.596 130.218 333.767 130.874 334.109 131.353C334.45 131.826 334.929 132.063 335.544 132.063C336.342 132.063 336.927 131.701 337.301 130.977V127.6C336.914 126.893 336.332 126.54 335.558 126.54C334.943 126.54 334.462 126.779 334.115 127.258C333.769 127.736 333.596 128.445 333.596 129.384ZM341.86 133H340.596V125.604H341.86V133ZM340.493 123.642C340.493 123.437 340.555 123.263 340.678 123.122C340.805 122.981 340.992 122.91 341.238 122.91C341.485 122.91 341.671 122.981 341.799 123.122C341.927 123.263 341.99 123.437 341.99 123.642C341.99 123.847 341.927 124.018 341.799 124.154C341.671 124.291 341.485 124.359 341.238 124.359C340.992 124.359 340.805 124.291 340.678 124.154C340.555 124.018 340.493 123.847 340.493 123.642ZM345.087 125.604L345.128 126.533C345.693 125.822 346.431 125.467 347.343 125.467C348.906 125.467 349.694 126.349 349.708 128.112V133H348.443V128.105C348.439 127.572 348.316 127.178 348.074 126.923C347.837 126.668 347.466 126.54 346.96 126.54C346.55 126.54 346.19 126.649 345.88 126.868C345.57 127.087 345.329 127.374 345.155 127.729V133H343.891V125.604H345.087Z" fill="black"/>
<rect x="19" y="202" width="376" height="49" fill="#C4C4C4" fill-opacity="0.19"/>
<path d="M46.1418 228.389C46.1418 228.001 46.005 227.705 45.7316 227.5C45.4582 227.29 44.966 227.072 44.255 226.844C43.5441 226.611 42.9813 226.383 42.5666 226.16C41.4364 225.549 40.8712 224.727 40.8712 223.692C40.8712 223.155 41.0216 222.676 41.3224 222.257C41.6278 221.833 42.063 221.503 42.6281 221.266C43.1977 221.029 43.8358 220.91 44.5421 220.91C45.2531 220.91 45.8865 221.04 46.4425 221.3C46.9985 221.555 47.4292 221.917 47.7345 222.387C48.0444 222.856 48.1994 223.389 48.1994 223.986H46.1486C46.1486 223.531 46.005 223.177 45.7179 222.927C45.4308 222.672 45.0275 222.544 44.508 222.544C44.0067 222.544 43.617 222.651 43.339 222.865C43.061 223.075 42.922 223.353 42.922 223.699C42.922 224.023 43.0838 224.294 43.4074 224.513C43.7355 224.731 44.2163 224.937 44.8498 225.128C46.0164 225.479 46.8664 225.914 47.3996 226.434C47.9328 226.953 48.1994 227.6 48.1994 228.375C48.1994 229.236 47.8735 229.913 47.2218 230.405C46.5701 230.893 45.6929 231.137 44.59 231.137C43.8244 231.137 43.1271 230.998 42.4982 230.72C41.8693 230.437 41.3885 230.052 41.0558 229.564C40.7277 229.077 40.5636 228.512 40.5636 227.869H42.6212C42.6212 228.967 43.2775 229.517 44.59 229.517C45.0776 229.517 45.4582 229.419 45.7316 229.223C46.005 229.022 46.1418 228.744 46.1418 228.389ZM51.8293 221.785V223.604H53.0939V225.053H51.8293V228.744C51.8293 229.018 51.8817 229.214 51.9865 229.332C52.0913 229.451 52.2918 229.51 52.588 229.51C52.8068 229.51 53.0005 229.494 53.1691 229.462V230.959C52.7817 231.077 52.383 231.137 51.9728 231.137C50.5874 231.137 49.881 230.437 49.8537 229.038V225.053H48.7736V223.604H49.8537V221.785H51.8293ZM58.4806 231C58.3895 230.822 58.3234 230.601 58.2824 230.337C57.8039 230.87 57.1818 231.137 56.4162 231.137C55.6916 231.137 55.09 230.927 54.6115 230.508C54.1375 230.089 53.9005 229.56 53.9005 228.922C53.9005 228.138 54.1899 227.536 54.7687 227.117C55.352 226.698 56.1929 226.486 57.2912 226.481H58.2003V226.058C58.2003 225.716 58.1115 225.442 57.9337 225.237C57.7606 225.032 57.4849 224.93 57.1066 224.93C56.7739 224.93 56.5119 225.009 56.3205 225.169C56.1336 225.328 56.0402 225.547 56.0402 225.825H54.0646C54.0646 225.397 54.1968 225 54.4611 224.636C54.7254 224.271 55.0991 223.986 55.5822 223.781C56.0653 223.572 56.6076 223.467 57.2091 223.467C58.1206 223.467 58.8429 223.697 59.3761 224.157C59.9139 224.613 60.1828 225.256 60.1828 226.085V229.291C60.1873 229.993 60.2853 230.524 60.4767 230.884V231H58.4806ZM56.8468 229.626C57.1385 229.626 57.4074 229.562 57.6535 229.435C57.8996 229.302 58.0819 229.127 58.2003 228.908V227.637H57.4621C56.4731 227.637 55.9468 227.979 55.883 228.662L55.8761 228.778C55.8761 229.024 55.9627 229.227 56.1359 229.387C56.3091 229.546 56.5461 229.626 56.8468 229.626ZM64.0656 221.785V223.604H65.3302V225.053H64.0656V228.744C64.0656 229.018 64.118 229.214 64.2228 229.332C64.3276 229.451 64.5281 229.51 64.8244 229.51C65.0431 229.51 65.2368 229.494 65.4054 229.462V230.959C65.0181 231.077 64.6193 231.137 64.2091 231.137C62.8237 231.137 62.1173 230.437 62.09 229.038V225.053H61.0099V223.604H62.09V221.785H64.0656ZM70.8605 230.248C70.3729 230.84 69.6984 231.137 68.8371 231.137C68.0441 231.137 67.438 230.909 67.0187 230.453C66.604 229.997 66.3921 229.33 66.383 228.45V223.604H68.3586V228.382C68.3586 229.152 68.7095 229.537 69.4113 229.537C70.0812 229.537 70.5415 229.305 70.7921 228.84V223.604H72.7746V231H70.9152L70.8605 230.248ZM78.2707 228.956C78.2707 228.715 78.1499 228.525 77.9084 228.389C77.6714 228.247 77.2886 228.122 76.7599 228.013C75.0008 227.644 74.1212 226.896 74.1212 225.771C74.1212 225.114 74.3924 224.567 74.9347 224.13C75.4816 223.688 76.1948 223.467 77.0744 223.467C78.0132 223.467 78.7628 223.688 79.3234 224.13C79.8885 224.572 80.1711 225.146 80.1711 225.853H78.1955C78.1955 225.57 78.1043 225.338 77.922 225.155C77.7397 224.968 77.4549 224.875 77.0675 224.875C76.7349 224.875 76.4774 224.95 76.2951 225.101C76.1128 225.251 76.0216 225.442 76.0216 225.675C76.0216 225.894 76.1242 226.071 76.3293 226.208C76.5389 226.34 76.8898 226.456 77.382 226.557C77.8742 226.652 78.2889 226.762 78.6261 226.885C79.6697 227.268 80.1916 227.931 80.1916 228.874C80.1916 229.549 79.9022 230.095 79.3234 230.515C78.7446 230.929 77.9972 231.137 77.0812 231.137C76.4614 231.137 75.91 231.027 75.4269 230.809C74.9484 230.585 74.5724 230.282 74.299 229.899C74.0255 229.512 73.8888 229.095 73.8888 228.648H75.7619C75.7801 228.999 75.91 229.268 76.1515 229.455C76.3931 229.642 76.7166 229.735 77.1222 229.735C77.5005 229.735 77.7853 229.665 77.9767 229.523C78.1727 229.378 78.2707 229.188 78.2707 228.956Z" fill="black"/>
<path d="M177.644 231H176.331V221.047H177.644V231ZM187.7 231H186.38L181.37 223.33V231H180.05V221.047H181.37L186.394 228.751V221.047H187.7V231ZM192.963 226.563C191.838 226.24 191.017 225.843 190.502 225.374C189.992 224.9 189.737 224.317 189.737 223.624C189.737 222.84 190.049 222.193 190.673 221.683C191.302 221.168 192.118 220.91 193.12 220.91C193.804 220.91 194.412 221.042 194.946 221.307C195.483 221.571 195.898 221.936 196.19 222.4C196.486 222.865 196.634 223.373 196.634 223.925H195.315C195.315 223.323 195.123 222.852 194.741 222.51C194.358 222.163 193.818 221.99 193.12 221.99C192.473 221.99 191.968 222.134 191.603 222.421C191.243 222.703 191.063 223.098 191.063 223.604C191.063 224.009 191.234 224.353 191.576 224.636C191.922 224.914 192.508 225.169 193.332 225.401C194.162 225.634 194.809 225.891 195.274 226.174C195.743 226.452 196.09 226.778 196.313 227.151C196.541 227.525 196.655 227.965 196.655 228.471C196.655 229.277 196.34 229.924 195.711 230.412C195.082 230.895 194.242 231.137 193.189 231.137C192.505 231.137 191.867 231.007 191.275 230.747C190.682 230.483 190.224 230.123 189.901 229.667C189.582 229.211 189.422 228.694 189.422 228.115H190.742C190.742 228.717 190.963 229.193 191.405 229.544C191.851 229.89 192.446 230.063 193.189 230.063C193.882 230.063 194.412 229.922 194.782 229.64C195.151 229.357 195.335 228.972 195.335 228.484C195.335 227.997 195.164 227.621 194.823 227.356C194.481 227.088 193.861 226.823 192.963 226.563ZM205.22 222.127H202.021V231H200.715V222.127H197.523V221.047H205.22V222.127ZM211.646 228.402H207.476L206.539 231H205.186L208.987 221.047H210.135L213.943 231H212.596L211.646 228.402ZM207.872 227.322H211.256L209.561 222.667L207.872 227.322ZM216.602 229.927H221.319V231H215.283V221.047H216.602V229.927ZM224.135 229.927H228.852V231H222.816V221.047H224.135V229.927ZM235.982 228.402H231.812L230.875 231H229.522L233.323 221.047H234.471L238.279 231H236.932L235.982 228.402ZM232.208 227.322H235.592L233.897 222.667L232.208 227.322ZM245.607 222.127H242.408V231H241.102V222.127H237.91V221.047H245.607V222.127ZM248.492 231H247.179V221.047H248.492V231ZM258.554 226.345C258.554 227.32 258.39 228.172 258.062 228.901C257.734 229.626 257.269 230.18 256.667 230.562C256.066 230.945 255.364 231.137 254.562 231.137C253.778 231.137 253.083 230.945 252.477 230.562C251.871 230.175 251.399 229.626 251.062 228.915C250.729 228.2 250.558 227.372 250.549 226.434V225.716C250.549 224.759 250.716 223.913 251.048 223.18C251.381 222.446 251.85 221.885 252.456 221.498C253.067 221.106 253.764 220.91 254.548 220.91C255.346 220.91 256.048 221.104 256.654 221.491C257.264 221.874 257.734 222.432 258.062 223.166C258.39 223.895 258.554 224.745 258.554 225.716V226.345ZM257.248 225.702C257.248 224.522 257.011 223.617 256.537 222.988C256.064 222.355 255.4 222.038 254.548 222.038C253.719 222.038 253.065 222.355 252.586 222.988C252.112 223.617 251.869 224.492 251.855 225.613V226.345C251.855 227.489 252.094 228.389 252.573 229.045C253.056 229.697 253.719 230.022 254.562 230.022C255.41 230.022 256.066 229.715 256.531 229.1C256.995 228.48 257.235 227.593 257.248 226.44V225.702ZM268.172 231H266.853L261.842 223.33V231H260.523V221.047H261.842L266.867 228.751V221.047H268.172V231ZM275.637 232.032H269.375V231H275.637V232.032ZM279.752 226.563C278.627 226.24 277.806 225.843 277.291 225.374C276.781 224.9 276.526 224.317 276.526 223.624C276.526 222.84 276.838 222.193 277.462 221.683C278.091 221.168 278.907 220.91 279.91 220.91C280.593 220.91 281.202 221.042 281.735 221.307C282.273 221.571 282.687 221.936 282.979 222.4C283.275 222.865 283.423 223.373 283.423 223.925H282.104C282.104 223.323 281.912 222.852 281.53 222.51C281.147 222.163 280.607 221.99 279.91 221.99C279.262 221.99 278.757 222.134 278.392 222.421C278.032 222.703 277.852 223.098 277.852 223.604C277.852 224.009 278.023 224.353 278.365 224.636C278.711 224.914 279.297 225.169 280.121 225.401C280.951 225.634 281.598 225.891 282.063 226.174C282.532 226.452 282.879 226.778 283.102 227.151C283.33 227.525 283.444 227.965 283.444 228.471C283.444 229.277 283.129 229.924 282.5 230.412C281.871 230.895 281.031 231.137 279.978 231.137C279.294 231.137 278.656 231.007 278.064 230.747C277.471 230.483 277.013 230.123 276.69 229.667C276.371 229.211 276.211 228.694 276.211 228.115H277.531C277.531 228.717 277.752 229.193 278.194 229.544C278.64 229.89 279.235 230.063 279.978 230.063C280.671 230.063 281.202 229.922 281.571 229.64C281.94 229.357 282.124 228.972 282.124 228.484C282.124 227.997 281.954 227.621 281.612 227.356C281.27 227.088 280.65 226.823 279.752 226.563ZM292.139 221.047V227.814C292.134 228.753 291.838 229.521 291.25 230.118C290.667 230.715 289.874 231.05 288.871 231.123L288.523 231.137C287.434 231.137 286.565 230.843 285.918 230.255C285.271 229.667 284.943 228.858 284.934 227.828V221.047H286.233V227.787C286.233 228.507 286.431 229.068 286.828 229.469C287.224 229.865 287.789 230.063 288.523 230.063C289.266 230.063 289.833 229.865 290.225 229.469C290.621 229.072 290.82 228.514 290.82 227.794V221.047H292.139ZM301.532 227.842C301.409 228.895 301.019 229.708 300.363 230.282C299.711 230.852 298.843 231.137 297.758 231.137C296.582 231.137 295.639 230.715 294.928 229.872C294.222 229.029 293.869 227.901 293.869 226.488V225.531C293.869 224.606 294.033 223.793 294.361 223.091C294.693 222.389 295.163 221.851 295.769 221.478C296.375 221.099 297.077 220.91 297.874 220.91C298.932 220.91 299.779 221.206 300.417 221.799C301.055 222.387 301.427 223.202 301.532 224.246H300.212C300.098 223.453 299.85 222.879 299.467 222.523C299.089 222.168 298.558 221.99 297.874 221.99C297.036 221.99 296.377 222.3 295.899 222.92C295.425 223.54 295.188 224.422 295.188 225.565V226.529C295.188 227.609 295.413 228.468 295.865 229.106C296.316 229.744 296.947 230.063 297.758 230.063C298.487 230.063 299.046 229.899 299.433 229.571C299.825 229.239 300.085 228.662 300.212 227.842H301.532ZM310.651 227.842C310.528 228.895 310.138 229.708 309.482 230.282C308.83 230.852 307.962 231.137 306.877 231.137C305.702 231.137 304.758 230.715 304.047 229.872C303.341 229.029 302.988 227.901 302.988 226.488V225.531C302.988 224.606 303.152 223.793 303.48 223.091C303.813 222.389 304.282 221.851 304.888 221.478C305.494 221.099 306.196 220.91 306.994 220.91C308.051 220.91 308.898 221.206 309.537 221.799C310.175 222.387 310.546 223.202 310.651 224.246H309.331C309.218 223.453 308.969 222.879 308.586 222.523C308.208 222.168 307.677 221.99 306.994 221.99C306.155 221.99 305.496 222.3 305.018 222.92C304.544 223.54 304.307 224.422 304.307 225.565V226.529C304.307 227.609 304.533 228.468 304.984 229.106C305.435 229.744 306.066 230.063 306.877 230.063C307.607 230.063 308.165 229.899 308.552 229.571C308.944 229.239 309.204 228.662 309.331 227.842H310.651ZM318.075 226.399H313.761V229.927H318.772V231H312.449V221.047H318.704V222.127H313.761V225.326H318.075V226.399ZM323.338 226.563C322.213 226.24 321.392 225.843 320.877 225.374C320.367 224.9 320.112 224.317 320.112 223.624C320.112 222.84 320.424 222.193 321.048 221.683C321.677 221.168 322.493 220.91 323.495 220.91C324.179 220.91 324.787 221.042 325.321 221.307C325.858 221.571 326.273 221.936 326.565 222.4C326.861 222.865 327.009 223.373 327.009 223.925H325.69C325.69 223.323 325.498 222.852 325.116 222.51C324.733 222.163 324.193 221.99 323.495 221.99C322.848 221.99 322.343 222.134 321.978 222.421C321.618 222.703 321.438 223.098 321.438 223.604C321.438 224.009 321.609 224.353 321.951 224.636C322.297 224.914 322.883 225.169 323.707 225.401C324.537 225.634 325.184 225.891 325.649 226.174C326.118 226.452 326.465 226.778 326.688 227.151C326.916 227.525 327.03 227.965 327.03 228.471C327.03 229.277 326.715 229.924 326.086 230.412C325.457 230.895 324.617 231.137 323.564 231.137C322.88 231.137 322.242 231.007 321.65 230.747C321.057 230.483 320.599 230.123 320.276 229.667C319.957 229.211 319.797 228.694 319.797 228.115H321.117C321.117 228.717 321.338 229.193 321.78 229.544C322.226 229.89 322.821 230.063 323.564 230.063C324.257 230.063 324.787 229.922 325.157 229.64C325.526 229.357 325.71 228.972 325.71 228.484C325.71 227.997 325.539 227.621 325.198 227.356C324.856 227.088 324.236 226.823 323.338 226.563ZM331.651 226.563C330.525 226.24 329.705 225.843 329.19 225.374C328.679 224.9 328.424 224.317 328.424 223.624C328.424 222.84 328.736 222.193 329.361 221.683C329.99 221.168 330.805 220.91 331.808 220.91C332.492 220.91 333.1 221.042 333.633 221.307C334.171 221.571 334.586 221.936 334.877 222.4C335.174 222.865 335.322 223.373 335.322 223.925H334.002C334.002 223.323 333.811 222.852 333.428 222.51C333.045 222.163 332.505 221.99 331.808 221.99C331.161 221.99 330.655 222.134 330.29 222.421C329.93 222.703 329.75 223.098 329.75 223.604C329.75 224.009 329.921 224.353 330.263 224.636C330.609 224.914 331.195 225.169 332.02 225.401C332.849 225.634 333.496 225.891 333.961 226.174C334.431 226.452 334.777 226.778 335 227.151C335.228 227.525 335.342 227.965 335.342 228.471C335.342 229.277 335.028 229.924 334.399 230.412C333.77 230.895 332.929 231.137 331.876 231.137C331.193 231.137 330.555 231.007 329.962 230.747C329.37 230.483 328.912 230.123 328.588 229.667C328.269 229.211 328.11 228.694 328.11 228.115H329.429C329.429 228.717 329.65 229.193 330.092 229.544C330.539 229.89 331.134 230.063 331.876 230.063C332.569 230.063 333.1 229.922 333.469 229.64C333.838 229.357 334.023 228.972 334.023 228.484C334.023 227.997 333.852 227.621 333.51 227.356C333.168 227.088 332.549 226.823 331.651 226.563ZM342.52 226.604H338.343V231H337.031V221.047H343.197V222.127H338.343V225.531H342.52V226.604ZM351.776 221.047V227.814C351.771 228.753 351.475 229.521 350.887 230.118C350.304 230.715 349.511 231.05 348.508 231.123L348.16 231.137C347.07 231.137 346.202 230.843 345.555 230.255C344.908 229.667 344.58 228.858 344.571 227.828V221.047H345.87V227.787C345.87 228.507 346.068 229.068 346.464 229.469C346.861 229.865 347.426 230.063 348.16 230.063C348.902 230.063 349.47 229.865 349.862 229.469C350.258 229.072 350.456 228.514 350.456 227.794V221.047H351.776ZM355.166 229.927H359.883V231H353.847V221.047H355.166V229.927Z" fill="black"/>
<path d="M47.7021 178.685C47.6247 179.756 47.2282 180.599 46.5127 181.214C45.8018 181.829 44.863 182.137 43.6963 182.137C42.4202 182.137 41.4154 181.708 40.6816 180.852C39.9525 179.99 39.5879 178.81 39.5879 177.311V176.702C39.5879 175.745 39.7565 174.902 40.0938 174.173C40.431 173.444 40.9118 172.885 41.5361 172.498C42.165 172.106 42.8942 171.91 43.7236 171.91C44.8721 171.91 45.7972 172.218 46.499 172.833C47.2008 173.448 47.6064 174.312 47.7158 175.424H45.665C45.6149 174.781 45.4349 174.316 45.125 174.029C44.8197 173.738 44.3525 173.592 43.7236 173.592C43.04 173.592 42.5273 173.838 42.1855 174.33C41.8483 174.818 41.6751 175.576 41.666 176.606V177.358C41.666 178.434 41.8278 179.22 42.1514 179.717C42.4795 180.214 42.9945 180.462 43.6963 180.462C44.3298 180.462 44.8014 180.318 45.1113 180.031C45.4258 179.74 45.6058 179.291 45.6514 178.685H47.7021ZM48.6113 178.233C48.6113 177.5 48.7526 176.846 49.0352 176.271C49.3177 175.697 49.7233 175.253 50.252 174.938C50.7852 174.624 51.4027 174.467 52.1045 174.467C53.1025 174.467 53.916 174.772 54.5449 175.383C55.1784 175.993 55.5316 176.823 55.6045 177.871L55.6182 178.377C55.6182 179.512 55.3014 180.423 54.668 181.111C54.0345 181.795 53.1846 182.137 52.1182 182.137C51.0518 182.137 50.1995 181.795 49.5615 181.111C48.9281 180.428 48.6113 179.498 48.6113 178.322V178.233ZM50.5869 178.377C50.5869 179.079 50.7191 179.617 50.9834 179.99C51.2477 180.359 51.626 180.544 52.1182 180.544C52.5967 180.544 52.9704 180.362 53.2393 179.997C53.5081 179.628 53.6426 179.04 53.6426 178.233C53.6426 177.545 53.5081 177.012 53.2393 176.634C52.9704 176.256 52.5921 176.066 52.1045 176.066C51.6214 176.066 51.2477 176.256 50.9834 176.634C50.7191 177.007 50.5869 177.589 50.5869 178.377ZM58.6875 174.604L58.749 175.431C59.2731 174.788 59.9818 174.467 60.875 174.467C61.8275 174.467 62.4814 174.843 62.8369 175.595C63.3564 174.843 64.097 174.467 65.0586 174.467C65.8607 174.467 66.4577 174.701 66.8496 175.171C67.2415 175.636 67.4375 176.338 67.4375 177.276V182H65.4551V177.283C65.4551 176.864 65.373 176.559 65.209 176.367C65.0449 176.171 64.7555 176.073 64.3408 176.073C63.7484 176.073 63.3382 176.356 63.1104 176.921L63.1172 182H61.1416V177.29C61.1416 176.862 61.0573 176.552 60.8887 176.36C60.7201 176.169 60.4329 176.073 60.0273 176.073C59.4668 176.073 59.0612 176.306 58.8105 176.771V182H56.835V174.604H58.6875ZM75.6201 178.37C75.6201 179.509 75.3604 180.423 74.8408 181.111C74.3258 181.795 73.6286 182.137 72.749 182.137C72.0016 182.137 71.3978 181.877 70.9375 181.357V184.844H68.9619V174.604H70.7939L70.8623 175.328C71.3408 174.754 71.9652 174.467 72.7354 174.467C73.6468 174.467 74.3555 174.804 74.8613 175.479C75.3672 176.153 75.6201 177.083 75.6201 178.268V178.37ZM73.6445 178.227C73.6445 177.538 73.5215 177.007 73.2754 176.634C73.0339 176.26 72.6807 176.073 72.2158 176.073C71.596 176.073 71.1699 176.31 70.9375 176.784V179.812C71.179 180.3 71.6097 180.544 72.2295 180.544C73.1729 180.544 73.6445 179.771 73.6445 178.227ZM76.543 178.233C76.543 177.5 76.6842 176.846 76.9668 176.271C77.2493 175.697 77.6549 175.253 78.1836 174.938C78.7168 174.624 79.3343 174.467 80.0361 174.467C81.0342 174.467 81.8477 174.772 82.4766 175.383C83.11 175.993 83.4632 176.823 83.5361 177.871L83.5498 178.377C83.5498 179.512 83.2331 180.423 82.5996 181.111C81.9661 181.795 81.1162 182.137 80.0498 182.137C78.9834 182.137 78.1312 181.795 77.4932 181.111C76.8597 180.428 76.543 179.498 76.543 178.322V178.233ZM78.5186 178.377C78.5186 179.079 78.6507 179.617 78.915 179.99C79.1794 180.359 79.5576 180.544 80.0498 180.544C80.5283 180.544 80.902 180.362 81.1709 179.997C81.4398 179.628 81.5742 179.04 81.5742 178.233C81.5742 177.545 81.4398 177.012 81.1709 176.634C80.902 176.256 80.5238 176.066 80.0361 176.066C79.5531 176.066 79.1794 176.256 78.915 176.634C78.6507 177.007 78.5186 177.589 78.5186 178.377ZM86.585 174.604L86.6465 175.458C87.1751 174.797 87.8838 174.467 88.7725 174.467C89.5563 174.467 90.1396 174.697 90.5225 175.157C90.9053 175.618 91.1012 176.306 91.1104 177.222V182H89.1348V177.27C89.1348 176.85 89.0436 176.547 88.8613 176.36C88.679 176.169 88.376 176.073 87.9521 176.073C87.3962 176.073 86.9792 176.31 86.7012 176.784V182H84.7256V174.604H86.585ZM96.0186 182.137C94.9339 182.137 94.0498 181.804 93.3662 181.139C92.6872 180.473 92.3477 179.587 92.3477 178.479V178.288C92.3477 177.545 92.4912 176.882 92.7783 176.299C93.0654 175.711 93.471 175.26 93.9951 174.945C94.5238 174.626 95.1253 174.467 95.7998 174.467C96.8115 174.467 97.6068 174.786 98.1855 175.424C98.7689 176.062 99.0605 176.966 99.0605 178.138V178.944H94.3506C94.4144 179.427 94.6058 179.815 94.9248 180.106C95.2484 180.398 95.6562 180.544 96.1484 180.544C96.9095 180.544 97.5042 180.268 97.9326 179.717L98.9033 180.804C98.6071 181.223 98.2061 181.551 97.7002 181.788C97.1943 182.021 96.6338 182.137 96.0186 182.137ZM95.793 176.066C95.401 176.066 95.082 176.199 94.8359 176.463C94.5944 176.727 94.4395 177.105 94.3711 177.598H97.1191V177.44C97.11 177.003 96.9915 176.666 96.7637 176.429C96.5358 176.187 96.2122 176.066 95.793 176.066ZM102.007 174.604L102.068 175.458C102.597 174.797 103.306 174.467 104.194 174.467C104.978 174.467 105.562 174.697 105.944 175.157C106.327 175.618 106.523 176.306 106.532 177.222V182H104.557V177.27C104.557 176.85 104.465 176.547 104.283 176.36C104.101 176.169 103.798 176.073 103.374 176.073C102.818 176.073 102.401 176.31 102.123 176.784V182H100.147V174.604H102.007ZM110.401 172.785V174.604H111.666V176.053H110.401V179.744C110.401 180.018 110.454 180.214 110.559 180.332C110.663 180.451 110.864 180.51 111.16 180.51C111.379 180.51 111.573 180.494 111.741 180.462V181.959C111.354 182.077 110.955 182.137 110.545 182.137C109.16 182.137 108.453 181.437 108.426 180.038V176.053H107.346V174.604H108.426V172.785H110.401ZM116.772 179.956C116.772 179.715 116.652 179.525 116.41 179.389C116.173 179.247 115.79 179.122 115.262 179.013C113.503 178.644 112.623 177.896 112.623 176.771C112.623 176.114 112.894 175.567 113.437 175.13C113.983 174.688 114.697 174.467 115.576 174.467C116.515 174.467 117.265 174.688 117.825 175.13C118.39 175.572 118.673 176.146 118.673 176.853H116.697C116.697 176.57 116.606 176.338 116.424 176.155C116.242 175.968 115.957 175.875 115.569 175.875C115.237 175.875 114.979 175.95 114.797 176.101C114.615 176.251 114.523 176.442 114.523 176.675C114.523 176.894 114.626 177.071 114.831 177.208C115.041 177.34 115.392 177.456 115.884 177.557C116.376 177.652 116.791 177.762 117.128 177.885C118.172 178.268 118.693 178.931 118.693 179.874C118.693 180.549 118.404 181.095 117.825 181.515C117.246 181.929 116.499 182.137 115.583 182.137C114.963 182.137 114.412 182.027 113.929 181.809C113.45 181.585 113.074 181.282 112.801 180.899C112.527 180.512 112.391 180.095 112.391 179.648H114.264C114.282 179.999 114.412 180.268 114.653 180.455C114.895 180.642 115.218 180.735 115.624 180.735C116.002 180.735 116.287 180.665 116.479 180.523C116.674 180.378 116.772 180.188 116.772 179.956Z" fill="black"/>
<path d="M202.468 178.104V182H201.155V172.047H204.826C205.915 172.047 206.768 172.325 207.383 172.881C208.003 173.437 208.312 174.173 208.312 175.089C208.312 176.055 208.009 176.8 207.403 177.324C206.802 177.844 205.938 178.104 204.812 178.104H202.468ZM202.468 177.03H204.826C205.528 177.03 206.066 176.866 206.439 176.538C206.813 176.205 207 175.727 207 175.103C207 174.51 206.813 174.036 206.439 173.681C206.066 173.325 205.553 173.141 204.901 173.127H202.468V177.03ZM214.273 182C214.201 181.854 214.141 181.594 214.096 181.221C213.508 181.831 212.806 182.137 211.99 182.137C211.261 182.137 210.662 181.932 210.192 181.521C209.728 181.107 209.495 180.583 209.495 179.949C209.495 179.179 209.787 178.582 210.37 178.158C210.958 177.73 211.783 177.516 212.845 177.516H214.075V176.935C214.075 176.493 213.943 176.142 213.679 175.882C213.414 175.618 213.025 175.485 212.51 175.485C212.059 175.485 211.68 175.599 211.375 175.827C211.07 176.055 210.917 176.331 210.917 176.654H209.646C209.646 176.285 209.775 175.93 210.035 175.588C210.299 175.242 210.655 174.968 211.102 174.768C211.553 174.567 212.047 174.467 212.585 174.467C213.437 174.467 214.105 174.681 214.588 175.109C215.071 175.533 215.322 176.119 215.34 176.866V180.271C215.34 180.95 215.426 181.49 215.6 181.891V182H214.273ZM212.175 181.036C212.571 181.036 212.947 180.934 213.303 180.729C213.658 180.523 213.916 180.257 214.075 179.929V178.411H213.084C211.535 178.411 210.76 178.865 210.76 179.771C210.76 180.168 210.892 180.478 211.156 180.701C211.421 180.924 211.76 181.036 212.175 181.036ZM217.021 178.24C217.021 177.087 217.288 176.171 217.821 175.492C218.354 174.809 219.061 174.467 219.94 174.467C220.843 174.467 221.547 174.786 222.053 175.424L222.114 174.604H223.27V181.822C223.27 182.779 222.985 183.534 222.415 184.085C221.85 184.636 221.089 184.912 220.132 184.912C219.599 184.912 219.077 184.798 218.566 184.57C218.056 184.342 217.666 184.03 217.397 183.634L218.054 182.875C218.596 183.545 219.259 183.88 220.043 183.88C220.658 183.88 221.137 183.707 221.479 183.36C221.825 183.014 221.998 182.526 221.998 181.897V181.262C221.492 181.845 220.802 182.137 219.927 182.137C219.061 182.137 218.359 181.788 217.821 181.091C217.288 180.394 217.021 179.443 217.021 178.24ZM218.293 178.384C218.293 179.218 218.464 179.874 218.806 180.353C219.147 180.826 219.626 181.063 220.241 181.063C221.039 181.063 221.624 180.701 221.998 179.977V176.6C221.611 175.893 221.03 175.54 220.255 175.54C219.64 175.54 219.159 175.779 218.812 176.258C218.466 176.736 218.293 177.445 218.293 178.384ZM228.253 182.137C227.25 182.137 226.435 181.809 225.806 181.152C225.177 180.492 224.862 179.61 224.862 178.507V178.274C224.862 177.541 225.001 176.887 225.279 176.312C225.562 175.734 225.954 175.283 226.455 174.959C226.961 174.631 227.508 174.467 228.096 174.467C229.057 174.467 229.805 174.784 230.338 175.417C230.871 176.05 231.138 176.957 231.138 178.138V178.664H226.127C226.145 179.393 226.357 179.983 226.763 180.435C227.173 180.881 227.692 181.104 228.321 181.104C228.768 181.104 229.146 181.013 229.456 180.831C229.766 180.649 230.037 180.407 230.27 180.106L231.042 180.708C230.422 181.66 229.493 182.137 228.253 182.137ZM228.096 175.506C227.585 175.506 227.157 175.693 226.811 176.066C226.464 176.436 226.25 176.955 226.168 177.625H229.873V177.529C229.837 176.887 229.663 176.39 229.354 176.039C229.044 175.684 228.624 175.506 228.096 175.506ZM232.566 181.337C232.566 181.118 232.63 180.936 232.758 180.79C232.89 180.644 233.086 180.571 233.346 180.571C233.605 180.571 233.801 180.644 233.934 180.79C234.07 180.936 234.139 181.118 234.139 181.337C234.139 181.547 234.07 181.722 233.934 181.863C233.801 182.005 233.605 182.075 233.346 182.075C233.086 182.075 232.89 182.005 232.758 181.863C232.63 181.722 232.566 181.547 232.566 181.337ZM232.573 175.301C232.573 175.082 232.637 174.9 232.765 174.754C232.897 174.608 233.093 174.535 233.353 174.535C233.612 174.535 233.808 174.608 233.94 174.754C234.077 174.9 234.146 175.082 234.146 175.301C234.146 175.51 234.077 175.686 233.94 175.827C233.808 175.968 233.612 176.039 233.353 176.039C233.093 176.039 232.897 175.968 232.765 175.827C232.637 175.686 232.573 175.51 232.573 175.301ZM242.602 177.563C241.476 177.24 240.656 176.843 240.141 176.374C239.63 175.9 239.375 175.317 239.375 174.624C239.375 173.84 239.687 173.193 240.312 172.683C240.94 172.168 241.756 171.91 242.759 171.91C243.442 171.91 244.051 172.042 244.584 172.307C245.122 172.571 245.536 172.936 245.828 173.4C246.124 173.865 246.272 174.373 246.272 174.925H244.953C244.953 174.323 244.762 173.852 244.379 173.51C243.996 173.163 243.456 172.99 242.759 172.99C242.112 172.99 241.606 173.134 241.241 173.421C240.881 173.703 240.701 174.098 240.701 174.604C240.701 175.009 240.872 175.353 241.214 175.636C241.56 175.914 242.146 176.169 242.971 176.401C243.8 176.634 244.447 176.891 244.912 177.174C245.382 177.452 245.728 177.778 245.951 178.151C246.179 178.525 246.293 178.965 246.293 179.471C246.293 180.277 245.979 180.924 245.35 181.412C244.721 181.895 243.88 182.137 242.827 182.137C242.144 182.137 241.506 182.007 240.913 181.747C240.321 181.483 239.863 181.123 239.539 180.667C239.22 180.211 239.061 179.694 239.061 179.115H240.38C240.38 179.717 240.601 180.193 241.043 180.544C241.49 180.89 242.084 181.063 242.827 181.063C243.52 181.063 244.051 180.922 244.42 180.64C244.789 180.357 244.974 179.972 244.974 179.484C244.974 178.997 244.803 178.621 244.461 178.356C244.119 178.088 243.499 177.823 242.602 177.563ZM252.35 181.269C251.857 181.847 251.135 182.137 250.183 182.137C249.394 182.137 248.793 181.909 248.378 181.453C247.968 180.993 247.76 180.314 247.756 179.416V174.604H249.021V179.382C249.021 180.503 249.476 181.063 250.388 181.063C251.354 181.063 251.996 180.703 252.315 179.983V174.604H253.58V182H252.377L252.35 181.269ZM261.756 178.384C261.756 179.509 261.498 180.416 260.983 181.104C260.468 181.793 259.771 182.137 258.892 182.137C257.994 182.137 257.287 181.852 256.772 181.282V184.844H255.508V174.604H256.663L256.725 175.424C257.24 174.786 257.955 174.467 258.871 174.467C259.76 174.467 260.462 174.802 260.977 175.472C261.496 176.142 261.756 177.074 261.756 178.268V178.384ZM260.491 178.24C260.491 177.406 260.313 176.748 259.958 176.265C259.603 175.782 259.115 175.54 258.495 175.54C257.729 175.54 257.155 175.88 256.772 176.559V180.093C257.151 180.767 257.729 181.104 258.509 181.104C259.115 181.104 259.596 180.865 259.951 180.387C260.311 179.904 260.491 179.188 260.491 178.24ZM266.438 182.137C265.436 182.137 264.62 181.809 263.991 181.152C263.362 180.492 263.048 179.61 263.048 178.507V178.274C263.048 177.541 263.187 176.887 263.465 176.312C263.747 175.734 264.139 175.283 264.641 174.959C265.146 174.631 265.693 174.467 266.281 174.467C267.243 174.467 267.99 174.784 268.523 175.417C269.057 176.05 269.323 176.957 269.323 178.138V178.664H264.312C264.331 179.393 264.543 179.983 264.948 180.435C265.358 180.881 265.878 181.104 266.507 181.104C266.953 181.104 267.332 181.013 267.642 180.831C267.951 180.649 268.223 180.407 268.455 180.106L269.228 180.708C268.608 181.66 267.678 182.137 266.438 182.137ZM266.281 175.506C265.771 175.506 265.342 175.693 264.996 176.066C264.65 176.436 264.436 176.955 264.354 177.625H268.059V177.529C268.022 176.887 267.849 176.39 267.539 176.039C267.229 175.684 266.81 175.506 266.281 175.506ZM274.368 175.738C274.177 175.706 273.969 175.69 273.746 175.69C272.917 175.69 272.354 176.044 272.058 176.75V182H270.793V174.604H272.023L272.044 175.458C272.459 174.797 273.047 174.467 273.808 174.467C274.054 174.467 274.241 174.499 274.368 174.562V175.738ZM277.048 178.104V182H275.735V172.047H279.406C280.495 172.047 281.348 172.325 281.963 172.881C282.583 173.437 282.893 174.173 282.893 175.089C282.893 176.055 282.59 176.8 281.983 177.324C281.382 177.844 280.518 178.104 279.393 178.104H277.048ZM277.048 177.03H279.406C280.108 177.03 280.646 176.866 281.02 176.538C281.393 176.205 281.58 175.727 281.58 175.103C281.58 174.51 281.393 174.036 281.02 173.681C280.646 173.325 280.133 173.141 279.481 173.127H277.048V177.03ZM285.743 182H284.479V171.5H285.743V182ZM292.34 181.269C291.848 181.847 291.125 182.137 290.173 182.137C289.384 182.137 288.783 181.909 288.368 181.453C287.958 180.993 287.751 180.314 287.746 179.416V174.604H289.011V179.382C289.011 180.503 289.466 181.063 290.378 181.063C291.344 181.063 291.987 180.703 292.306 179.983V174.604H293.57V182H292.367L292.34 181.269ZM295.197 178.24C295.197 177.087 295.464 176.171 295.997 175.492C296.53 174.809 297.237 174.467 298.116 174.467C299.019 174.467 299.723 174.786 300.229 175.424L300.29 174.604H301.445V181.822C301.445 182.779 301.16 183.534 300.591 184.085C300.026 184.636 299.265 184.912 298.308 184.912C297.774 184.912 297.253 184.798 296.742 184.57C296.232 184.342 295.842 184.03 295.573 183.634L296.229 182.875C296.772 183.545 297.435 183.88 298.219 183.88C298.834 183.88 299.312 183.707 299.654 183.36C300.001 183.014 300.174 182.526 300.174 181.897V181.262C299.668 181.845 298.978 182.137 298.103 182.137C297.237 182.137 296.535 181.788 295.997 181.091C295.464 180.394 295.197 179.443 295.197 178.24ZM296.469 178.384C296.469 179.218 296.64 179.874 296.981 180.353C297.323 180.826 297.802 181.063 298.417 181.063C299.215 181.063 299.8 180.701 300.174 179.977V176.6C299.786 175.893 299.205 175.54 298.431 175.54C297.815 175.54 297.335 175.779 296.988 176.258C296.642 176.736 296.469 177.445 296.469 178.384ZM304.733 182H303.469V174.604H304.733V182ZM303.366 172.642C303.366 172.437 303.428 172.263 303.551 172.122C303.678 171.981 303.865 171.91 304.111 171.91C304.357 171.91 304.544 171.981 304.672 172.122C304.799 172.263 304.863 172.437 304.863 172.642C304.863 172.847 304.799 173.018 304.672 173.154C304.544 173.291 304.357 173.359 304.111 173.359C303.865 173.359 303.678 173.291 303.551 173.154C303.428 173.018 303.366 172.847 303.366 172.642ZM307.96 174.604L308.001 175.533C308.566 174.822 309.304 174.467 310.216 174.467C311.779 174.467 312.567 175.349 312.581 177.112V182H311.316V177.105C311.312 176.572 311.189 176.178 310.947 175.923C310.71 175.668 310.339 175.54 309.833 175.54C309.423 175.54 309.063 175.649 308.753 175.868C308.443 176.087 308.201 176.374 308.028 176.729V182H306.764V174.604H307.96Z" fill="black"/>
<path d="M167 170V176H172L171 172L175 173V168H169C167.9 168 167 168.9 167 170ZM172 178H167V184C167 185.1 167.9 186 169 186H175V181L171 182L172 178ZM181 182L177 181V186H183C184.1 186 185 185.1 185 184V178H180L181 182ZM183 168H177V173L181 172L180 176H185V170C185 168.9 184.1 168 183 168Z" fill="black"/>
<path d="M20.5234 69V51.9375H26.5C28.5703 51.9375 30.1406 52.3359 31.2109 53.1328C32.2812 53.9219 32.8164 55.082 32.8164 56.6133C32.8164 57.4492 32.6016 58.1875 32.1719 58.8281C31.7422 59.4609 31.1445 59.9258 30.3789 60.2227C31.2539 60.4414 31.9414 60.8828 32.4414 61.5469C32.9492 62.2109 33.2031 63.0234 33.2031 63.9844C33.2031 65.625 32.6797 66.8672 31.6328 67.7109C30.5859 68.5547 29.0938 68.9844 27.1562 69H20.5234ZM24.0391 61.5703V66.1758H27.0508C27.8789 66.1758 28.5234 65.9805 28.9844 65.5898C29.4531 65.1914 29.6875 64.6445 29.6875 63.9492C29.6875 62.3867 28.8789 61.5938 27.2617 61.5703H24.0391ZM24.0391 59.0859H26.6406C28.4141 59.0547 29.3008 58.3477 29.3008 56.9648C29.3008 56.1914 29.0742 55.6367 28.6211 55.3008C28.1758 54.957 27.4688 54.7852 26.5 54.7852H24.0391V59.0859ZM41.4648 69.2344C39.6055 69.2344 38.0898 68.6641 36.918 67.5234C35.7539 66.3828 35.1719 64.8633 35.1719 62.9648V62.6367C35.1719 61.3633 35.418 60.2266 35.9102 59.2266C36.4023 58.2188 37.0977 57.4453 37.9961 56.9062C38.9023 56.3594 39.9336 56.0859 41.0898 56.0859C42.8242 56.0859 44.1875 56.6328 45.1797 57.7266C46.1797 58.8203 46.6797 60.3711 46.6797 62.3789V63.7617H38.6055C38.7148 64.5898 39.043 65.2539 39.5898 65.7539C40.1445 66.2539 40.8438 66.5039 41.6875 66.5039C42.9922 66.5039 44.0117 66.0312 44.7461 65.0859L46.4102 66.9492C45.9023 67.668 45.2148 68.2305 44.3477 68.6367C43.4805 69.0352 42.5195 69.2344 41.4648 69.2344ZM41.0781 58.8281C40.4062 58.8281 39.8594 59.0547 39.4375 59.5078C39.0234 59.9609 38.7578 60.6094 38.6406 61.4531H43.3516V61.1836C43.3359 60.4336 43.1328 59.8555 42.7422 59.4492C42.3516 59.0352 41.7969 58.8281 41.0781 58.8281ZM55.4805 65.4961C55.4805 65.082 55.2734 64.7578 54.8594 64.5234C54.4531 64.2812 53.7969 64.0664 52.8906 63.8789C49.875 63.2461 48.3672 61.9648 48.3672 60.0352C48.3672 58.9102 48.832 57.9727 49.7617 57.2227C50.6992 56.4648 51.9219 56.0859 53.4297 56.0859C55.0391 56.0859 56.3242 56.4648 57.2852 57.2227C58.2539 57.9805 58.7383 58.9648 58.7383 60.1758H55.3516C55.3516 59.6914 55.1953 59.293 54.8828 58.9805C54.5703 58.6602 54.082 58.5 53.418 58.5C52.8477 58.5 52.4062 58.6289 52.0938 58.8867C51.7812 59.1445 51.625 59.4727 51.625 59.8711C51.625 60.2461 51.8008 60.5508 52.1523 60.7852C52.5117 61.0117 53.1133 61.2109 53.957 61.3828C54.8008 61.5469 55.5117 61.7344 56.0898 61.9453C57.8789 62.6016 58.7734 63.7383 58.7734 65.3555C58.7734 66.5117 58.2773 67.4492 57.2852 68.168C56.293 68.8789 55.0117 69.2344 53.4414 69.2344C52.3789 69.2344 51.4336 69.0469 50.6055 68.6719C49.7852 68.2891 49.1406 67.7695 48.6719 67.1133C48.2031 66.4492 47.9688 65.7344 47.9688 64.9688H51.1797C51.2109 65.5703 51.4336 66.0312 51.8477 66.3516C52.2617 66.6719 52.8164 66.832 53.5117 66.832C54.1602 66.832 54.6484 66.7109 54.9766 66.4688C55.3125 66.2188 55.4805 65.8945 55.4805 65.4961ZM72.3789 62.7773C72.3789 64.7305 71.9336 66.2969 71.043 67.4766C70.1602 68.6484 68.9648 69.2344 67.457 69.2344C66.1758 69.2344 65.1406 68.7891 64.3516 67.8984V73.875H60.9648V56.3203H64.1055L64.2227 57.5625C65.043 56.5781 66.1133 56.0859 67.4336 56.0859C68.9961 56.0859 70.2109 56.6641 71.0781 57.8203C71.9453 58.9766 72.3789 60.5703 72.3789 62.6016V62.7773ZM68.9922 62.5312C68.9922 61.3516 68.7812 60.4414 68.3594 59.8008C67.9453 59.1602 67.3398 58.8398 66.543 58.8398C65.4805 58.8398 64.75 59.2461 64.3516 60.0586V65.25C64.7656 66.0859 65.5039 66.5039 66.5664 66.5039C68.1836 66.5039 68.9922 65.1797 68.9922 62.5312ZM73.9609 62.543C73.9609 61.2852 74.2031 60.1641 74.6875 59.1797C75.1719 58.1953 75.8672 57.4336 76.7734 56.8945C77.6875 56.3555 78.7461 56.0859 79.9492 56.0859C81.6602 56.0859 83.0547 56.6094 84.1328 57.6562C85.2188 58.7031 85.8242 60.125 85.9492 61.9219L85.9727 62.7891C85.9727 64.7344 85.4297 66.2969 84.3438 67.4766C83.2578 68.6484 81.8008 69.2344 79.9727 69.2344C78.1445 69.2344 76.6836 68.6484 75.5898 67.4766C74.5039 66.3047 73.9609 64.7109 73.9609 62.6953V62.543ZM77.3477 62.7891C77.3477 63.9922 77.5742 64.9141 78.0273 65.5547C78.4805 66.1875 79.1289 66.5039 79.9727 66.5039C80.793 66.5039 81.4336 66.1914 81.8945 65.5664C82.3555 64.9336 82.5859 63.9258 82.5859 62.543C82.5859 61.3633 82.3555 60.4492 81.8945 59.8008C81.4336 59.1523 80.7852 58.8281 79.9492 58.8281C79.1211 58.8281 78.4805 59.1523 78.0273 59.8008C77.5742 60.4414 77.3477 61.4375 77.3477 62.7891ZM92.6641 63.9141L91.4453 65.1328V69H88.0586V51H91.4453V60.9727L92.1016 60.1289L95.3477 56.3203H99.4141L94.832 61.6055L99.8125 69H95.9219L92.6641 63.9141ZM106.48 69.2344C104.621 69.2344 103.105 68.6641 101.934 67.5234C100.77 66.3828 100.188 64.8633 100.188 62.9648V62.6367C100.188 61.3633 100.434 60.2266 100.926 59.2266C101.418 58.2188 102.113 57.4453 103.012 56.9062C103.918 56.3594 104.949 56.0859 106.105 56.0859C107.84 56.0859 109.203 56.6328 110.195 57.7266C111.195 58.8203 111.695 60.3711 111.695 62.3789V63.7617H103.621C103.73 64.5898 104.059 65.2539 104.605 65.7539C105.16 66.2539 105.859 66.5039 106.703 66.5039C108.008 66.5039 109.027 66.0312 109.762 65.0859L111.426 66.9492C110.918 67.668 110.23 68.2305 109.363 68.6367C108.496 69.0352 107.535 69.2344 106.48 69.2344ZM106.094 58.8281C105.422 58.8281 104.875 59.0547 104.453 59.5078C104.039 59.9609 103.773 60.6094 103.656 61.4531H108.367V61.1836C108.352 60.4336 108.148 59.8555 107.758 59.4492C107.367 59.0352 106.812 58.8281 106.094 58.8281ZM123.18 69H119.781V56.3203H123.18V69ZM119.582 53.0391C119.582 52.5312 119.75 52.1133 120.086 51.7852C120.43 51.457 120.895 51.293 121.48 51.293C122.059 51.293 122.52 51.457 122.863 51.7852C123.207 52.1133 123.379 52.5312 123.379 53.0391C123.379 53.5547 123.203 53.9766 122.852 54.3047C122.508 54.6328 122.051 54.7969 121.48 54.7969C120.91 54.7969 120.449 54.6328 120.098 54.3047C119.754 53.9766 119.582 53.5547 119.582 53.0391ZM129.098 56.3203L129.203 57.7852C130.109 56.6523 131.324 56.0859 132.848 56.0859C134.191 56.0859 135.191 56.4805 135.848 57.2695C136.504 58.0586 136.84 59.2383 136.855 60.8086V69H133.469V60.8906C133.469 60.1719 133.312 59.6523 133 59.332C132.688 59.0039 132.168 58.8398 131.441 58.8398C130.488 58.8398 129.773 59.2461 129.297 60.0586V69H125.91V56.3203H129.098ZM143.488 53.2031V56.3203H145.656V58.8047H143.488V65.1328C143.488 65.6016 143.578 65.9375 143.758 66.1406C143.938 66.3438 144.281 66.4453 144.789 66.4453C145.164 66.4453 145.496 66.418 145.785 66.3633V68.9297C145.121 69.1328 144.438 69.2344 143.734 69.2344C141.359 69.2344 140.148 68.0352 140.102 65.6367V58.8047H138.25V56.3203H140.102V53.2031H143.488ZM153.379 69.2344C151.52 69.2344 150.004 68.6641 148.832 67.5234C147.668 66.3828 147.086 64.8633 147.086 62.9648V62.6367C147.086 61.3633 147.332 60.2266 147.824 59.2266C148.316 58.2188 149.012 57.4453 149.91 56.9062C150.816 56.3594 151.848 56.0859 153.004 56.0859C154.738 56.0859 156.102 56.6328 157.094 57.7266C158.094 58.8203 158.594 60.3711 158.594 62.3789V63.7617H150.52C150.629 64.5898 150.957 65.2539 151.504 65.7539C152.059 66.2539 152.758 66.5039 153.602 66.5039C154.906 66.5039 155.926 66.0312 156.66 65.0859L158.324 66.9492C157.816 67.668 157.129 68.2305 156.262 68.6367C155.395 69.0352 154.434 69.2344 153.379 69.2344ZM152.992 58.8281C152.32 58.8281 151.773 59.0547 151.352 59.5078C150.938 59.9609 150.672 60.6094 150.555 61.4531H155.266V61.1836C155.25 60.4336 155.047 59.8555 154.656 59.4492C154.266 59.0352 153.711 58.8281 152.992 58.8281ZM167.652 59.4961C167.191 59.4336 166.785 59.4023 166.434 59.4023C165.152 59.4023 164.312 59.8359 163.914 60.7031V69H160.527V56.3203H163.727L163.82 57.832C164.5 56.668 165.441 56.0859 166.645 56.0859C167.02 56.0859 167.371 56.1367 167.699 56.2383L167.652 59.4961ZM172.41 56.3203L172.516 57.7852C173.422 56.6523 174.637 56.0859 176.16 56.0859C177.504 56.0859 178.504 56.4805 179.16 57.2695C179.816 58.0586 180.152 59.2383 180.168 60.8086V69H176.781V60.8906C176.781 60.1719 176.625 59.6523 176.312 59.332C176 59.0039 175.48 58.8398 174.754 58.8398C173.801 58.8398 173.086 59.2461 172.609 60.0586V69H169.223V56.3203H172.41ZM190.094 69C189.938 68.6953 189.824 68.3164 189.754 67.8633C188.934 68.7773 187.867 69.2344 186.555 69.2344C185.312 69.2344 184.281 68.875 183.461 68.1562C182.648 67.4375 182.242 66.5312 182.242 65.4375C182.242 64.0938 182.738 63.0625 183.73 62.3438C184.73 61.625 186.172 61.2617 188.055 61.2539H189.613V60.5273C189.613 59.9414 189.461 59.4727 189.156 59.1211C188.859 58.7695 188.387 58.5938 187.738 58.5938C187.168 58.5938 186.719 58.7305 186.391 59.0039C186.07 59.2773 185.91 59.6523 185.91 60.1289H182.523C182.523 59.3945 182.75 58.7148 183.203 58.0898C183.656 57.4648 184.297 56.9766 185.125 56.625C185.953 56.2656 186.883 56.0859 187.914 56.0859C189.477 56.0859 190.715 56.4805 191.629 57.2695C192.551 58.0508 193.012 59.1523 193.012 60.5742V66.0703C193.02 67.2734 193.188 68.1836 193.516 68.8008V69H190.094ZM187.293 66.6445C187.793 66.6445 188.254 66.5352 188.676 66.3164C189.098 66.0898 189.41 65.7891 189.613 65.4141V63.2344H188.348C186.652 63.2344 185.75 63.8203 185.641 64.9922L185.629 65.1914C185.629 65.6133 185.777 65.9609 186.074 66.2344C186.371 66.5078 186.777 66.6445 187.293 66.6445ZM199.188 69H195.789V51H199.188V69ZM219.379 62.7773C219.379 64.7305 218.934 66.2969 218.043 67.4766C217.16 68.6484 215.965 69.2344 214.457 69.2344C213.176 69.2344 212.141 68.7891 211.352 67.8984V73.875H207.965V56.3203H211.105L211.223 57.5625C212.043 56.5781 213.113 56.0859 214.434 56.0859C215.996 56.0859 217.211 56.6641 218.078 57.8203C218.945 58.9766 219.379 60.5703 219.379 62.6016V62.7773ZM215.992 62.5312C215.992 61.3516 215.781 60.4414 215.359 59.8008C214.945 59.1602 214.34 58.8398 213.543 58.8398C212.48 58.8398 211.75 59.2461 211.352 60.0586V65.25C211.766 66.0859 212.504 66.5039 213.566 66.5039C215.184 66.5039 215.992 65.1797 215.992 62.5312ZM225.062 69H221.664V51H225.062V69ZM235.457 67.7109C234.621 68.7266 233.465 69.2344 231.988 69.2344C230.629 69.2344 229.59 68.8438 228.871 68.0625C228.16 67.2812 227.797 66.1367 227.781 64.6289V56.3203H231.168V64.5117C231.168 65.832 231.77 66.4922 232.973 66.4922C234.121 66.4922 234.91 66.0938 235.34 65.2969V56.3203H238.738V69H235.551L235.457 67.7109ZM240.801 62.5664C240.801 60.6211 241.262 59.0547 242.184 57.8672C243.113 56.6797 244.363 56.0859 245.934 56.0859C247.324 56.0859 248.406 56.5625 249.18 57.5156L249.32 56.3203H252.391V68.5781C252.391 69.6875 252.137 70.6523 251.629 71.4727C251.129 72.293 250.422 72.918 249.508 73.3477C248.594 73.7773 247.523 73.9922 246.297 73.9922C245.367 73.9922 244.461 73.8047 243.578 73.4297C242.695 73.0625 242.027 72.5859 241.574 72L243.074 69.9375C243.918 70.8828 244.941 71.3555 246.145 71.3555C247.043 71.3555 247.742 71.1133 248.242 70.6289C248.742 70.1523 248.992 69.4727 248.992 68.5898V67.9102C248.211 68.793 247.184 69.2344 245.91 69.2344C244.387 69.2344 243.152 68.6406 242.207 67.4531C241.27 66.2578 240.801 64.6758 240.801 62.707V62.5664ZM244.188 62.8125C244.188 63.9609 244.418 64.8633 244.879 65.5195C245.34 66.168 245.973 66.4922 246.777 66.4922C247.809 66.4922 248.547 66.1055 248.992 65.332V60C248.539 59.2266 247.809 58.8398 246.801 58.8398C245.988 58.8398 245.348 59.1719 244.879 59.8359C244.418 60.5 244.188 61.4922 244.188 62.8125ZM258.578 69H255.18V56.3203H258.578V69ZM254.98 53.0391C254.98 52.5312 255.148 52.1133 255.484 51.7852C255.828 51.457 256.293 51.293 256.879 51.293C257.457 51.293 257.918 51.457 258.262 51.7852C258.605 52.1133 258.777 52.5312 258.777 53.0391C258.777 53.5547 258.602 53.9766 258.25 54.3047C257.906 54.6328 257.449 54.7969 256.879 54.7969C256.309 54.7969 255.848 54.6328 255.496 54.3047C255.152 53.9766 254.98 53.5547 254.98 53.0391ZM264.496 56.3203L264.602 57.7852C265.508 56.6523 266.723 56.0859 268.246 56.0859C269.59 56.0859 270.59 56.4805 271.246 57.2695C271.902 58.0586 272.238 59.2383 272.254 60.8086V69H268.867V60.8906C268.867 60.1719 268.711 59.6523 268.398 59.332C268.086 59.0039 267.566 58.8398 266.84 58.8398C265.887 58.8398 265.172 59.2461 264.695 60.0586V69H261.309V56.3203H264.496Z" fill="black"/>
<g filter="url(#filter1_d)">
<rect x="148" y="287" width="266" height="50" rx="4" fill="#2E77D0"/>
</g>
<path d="M181.864 314H172.629V323H169.55V314H160.315V311H169.55V302H172.629V311H181.864V314Z" fill="white"/>
<path d="M211.402 316.547H204.254L202.648 321H200.328L206.844 303.938H208.812L215.34 321H213.031L211.402 316.547ZM204.934 314.695H210.734L207.828 306.715L204.934 314.695ZM217.637 321V303.938H222.453C223.938 303.938 225.25 304.266 226.391 304.922C227.531 305.578 228.41 306.512 229.027 307.723C229.652 308.934 229.969 310.324 229.977 311.895V312.984C229.977 314.594 229.664 316.004 229.039 317.215C228.422 318.426 227.535 319.355 226.379 320.004C225.23 320.652 223.891 320.984 222.359 321H217.637ZM219.887 305.789V319.16H222.254C223.988 319.16 225.336 318.621 226.297 317.543C227.266 316.465 227.75 314.93 227.75 312.938V311.941C227.75 310.004 227.293 308.5 226.379 307.43C225.473 306.352 224.184 305.805 222.512 305.789H219.887ZM233.387 321V303.938H238.203C239.688 303.938 241 304.266 242.141 304.922C243.281 305.578 244.16 306.512 244.777 307.723C245.402 308.934 245.719 310.324 245.727 311.895V312.984C245.727 314.594 245.414 316.004 244.789 317.215C244.172 318.426 243.285 319.355 242.129 320.004C240.98 320.652 239.641 320.984 238.109 321H233.387ZM235.637 305.789V319.16H238.004C239.738 319.16 241.086 318.621 242.047 317.543C243.016 316.465 243.5 314.93 243.5 312.938V311.941C243.5 310.004 243.043 308.5 242.129 307.43C241.223 306.352 239.934 305.805 238.262 305.789H235.637ZM268.203 321H265.941L257.352 307.852V321H255.09V303.938H257.352L265.965 317.145V303.938H268.203V321ZM281.844 313.113H274.449V319.16H283.039V321H272.199V303.938H282.922V305.789H274.449V311.273H281.844V313.113ZM289.52 315.621L289.848 317.871L290.328 315.844L293.703 303.938H295.602L298.895 315.844L299.363 317.906L299.727 315.609L302.375 303.938H304.637L300.5 321H298.449L294.934 308.566L294.664 307.266L294.395 308.566L290.75 321H288.699L284.574 303.938H286.824L289.52 315.621ZM315.348 314.32V321H313.098V303.938H319.391C321.258 303.938 322.719 304.414 323.773 305.367C324.836 306.32 325.367 307.582 325.367 309.152C325.367 310.809 324.848 312.086 323.809 312.984C322.777 313.875 321.297 314.32 319.367 314.32H315.348ZM315.348 312.48H319.391C320.594 312.48 321.516 312.199 322.156 311.637C322.797 311.066 323.117 310.246 323.117 309.176C323.117 308.16 322.797 307.348 322.156 306.738C321.516 306.129 320.637 305.812 319.52 305.789H315.348V312.48ZM330.5 319.16H338.586V321H328.238V303.938H330.5V319.16ZM352.531 303.938V315.539C352.523 317.148 352.016 318.465 351.008 319.488C350.008 320.512 348.648 321.086 346.93 321.211L346.332 321.234C344.465 321.234 342.977 320.73 341.867 319.723C340.758 318.715 340.195 317.328 340.18 315.562V303.938H342.406V315.492C342.406 316.727 342.746 317.688 343.426 318.375C344.105 319.055 345.074 319.395 346.332 319.395C347.605 319.395 348.578 319.055 349.25 318.375C349.93 317.695 350.27 316.738 350.27 315.504V303.938H352.531ZM368.68 318.762C368.102 319.59 367.293 320.211 366.254 320.625C365.223 321.031 364.02 321.234 362.645 321.234C361.254 321.234 360.02 320.91 358.941 320.262C357.863 319.605 357.027 318.676 356.434 317.473C355.848 316.27 355.547 314.875 355.531 313.289V311.801C355.531 309.23 356.129 307.238 357.324 305.824C358.527 304.41 360.215 303.703 362.387 303.703C364.168 303.703 365.602 304.16 366.688 305.074C367.773 305.98 368.438 307.27 368.68 308.941H366.43C366.008 306.684 364.664 305.555 362.398 305.555C360.891 305.555 359.746 306.086 358.965 307.148C358.191 308.203 357.801 309.734 357.793 311.742V313.137C357.793 315.051 358.23 316.574 359.105 317.707C359.98 318.832 361.164 319.395 362.656 319.395C363.5 319.395 364.238 319.301 364.871 319.113C365.504 318.926 366.027 318.609 366.441 318.164V314.332H362.492V312.504H368.68V318.762ZM374.855 321H372.605V303.938H374.855V321ZM392.094 321H389.832L381.242 307.852V321H378.98V303.938H381.242L389.855 317.145V303.938H392.094V321Z" fill="white"/>
</g>
<defs>
<filter id="filter0_d" x="-4" y="25" width="422" height="256" filterUnits="userSpaceOnUse" color-interpolation-filters="sRGB">
<feFlood flood-opacity="0" result="BackgroundImageFix"/>
<feColorMatrix in="SourceAlpha" type="matrix" values="0 0 0 0 0 0 0 0 0 0 0 0 0 0 0 0 0 0 127 0"/>
<feOffset dy="1"/>
<feGaussianBlur stdDeviation="2"/>
<feColorMatrix type="matrix" values="0 0 0 0 0 0 0 0 0 0 0 0 0 0 0 0 0 0 0.25 0"/>
<feBlend mode="normal" in2="BackgroundImageFix" result="effect1_dropShadow"/>
<feBlend mode="normal" in="SourceGraphic" in2="effect1_dropShadow" result="shape"/>
</filter>
<filter id="filter1_d" x="146" y="284" width="274" height="58" filterUnits="userSpaceOnUse" color-interpolation-filters="sRGB">
<feFlood flood-opacity="0" result="BackgroundImageFix"/>
<feColorMatrix in="SourceAlpha" type="matrix" values="0 0 0 0 0 0 0 0 0 0 0 0 0 0 0 0 0 0 127 0"/>
<feOffset dx="2" dy="1"/>
<feGaussianBlur stdDeviation="2"/>
<feColorMatrix type="matrix" values="0 0 0 0 0 0 0 0 0 0 0 0 0 0 0 0 0 0 0.25 0"/>
<feBlend mode="normal" in2="BackgroundImageFix" result="effect1_dropShadow"/>
<feBlend mode="normal" in="SourceGraphic" in2="effect1_dropShadow" result="shape"/>
</filter>
<clipPath id="clip0">
<rect width="422" height="364" fill="white"/>
</clipPath>
</defs>
</svg>
