<svg width="422" height="294" viewBox="0 0 422 294" fill="none" xmlns="http://www.w3.org/2000/svg">
<g clip-path="url(#clip0)">
<rect width="422" height="294" fill="white"/>
<g filter="url(#filter0_d)">
<rect width="414" height="248" rx="4" fill="white"/>
<rect x="0.5" y="0.5" width="413" height="247" rx="3.5" stroke="#767676"/>
</g>
<rect x="19" y="76" width="376" height="49" fill="#C4C4C4" fill-opacity="0.19"/>
<path d="M42.4961 101.493V105H40.4453V95.0469H44.3281C45.0755 95.0469 45.7318 95.1836 46.2969 95.457C46.8666 95.7305 47.3041 96.1201 47.6094 96.626C47.9147 97.1273 48.0674 97.6992 48.0674 98.3418C48.0674 99.3171 47.7324 100.087 47.0625 100.652C46.3972 101.213 45.4743 101.493 44.294 101.493H42.4961ZM42.4961 99.832H44.3281C44.8705 99.832 45.2829 99.7044 45.5654 99.4492C45.8526 99.194 45.9961 98.8294 45.9961 98.3555C45.9961 97.8678 45.8526 97.4736 45.5654 97.1729C45.2783 96.8721 44.8819 96.7171 44.376 96.708H42.4961V99.832ZM53.5567 105C53.4655 104.822 53.3994 104.601 53.3584 104.337C52.8799 104.87 52.2578 105.137 51.4922 105.137C50.7676 105.137 50.166 104.927 49.6875 104.508C49.2136 104.089 48.9766 103.56 48.9766 102.922C48.9766 102.138 49.266 101.536 49.8447 101.117C50.4281 100.698 51.2689 100.486 52.3672 100.481H53.2764V100.058C53.2764 99.7158 53.1875 99.4424 53.0098 99.2373C52.8366 99.0322 52.5609 98.9297 52.1826 98.9297C51.85 98.9297 51.5879 99.0094 51.3965 99.1689C51.2097 99.3285 51.1162 99.5472 51.1162 99.8252H49.1406C49.1406 99.3968 49.2728 99.0003 49.5371 98.6357C49.8014 98.2712 50.1751 97.9863 50.6582 97.7812C51.1413 97.5716 51.6836 97.4668 52.2852 97.4668C53.1966 97.4668 53.919 97.6969 54.4522 98.1572C54.9899 98.613 55.2588 99.2555 55.2588 100.085V103.291C55.2634 103.993 55.3613 104.524 55.5527 104.884V105H53.5567ZM51.9229 103.626C52.2145 103.626 52.4834 103.562 52.7295 103.435C52.9756 103.302 53.1579 103.127 53.2764 102.908V101.637H52.5381C51.5492 101.637 51.0228 101.979 50.959 102.662L50.9522 102.778C50.9522 103.024 51.0388 103.227 51.2119 103.387C51.3851 103.546 51.6221 103.626 51.9229 103.626ZM59.8526 103.544C60.2171 103.544 60.5134 103.444 60.7412 103.243C60.9691 103.043 61.0876 102.776 61.0967 102.443H62.9492C62.9447 102.945 62.808 103.405 62.5391 103.824C62.2702 104.239 61.9011 104.562 61.4317 104.795C60.9668 105.023 60.4518 105.137 59.8867 105.137C58.8294 105.137 57.9955 104.802 57.3848 104.132C56.7741 103.457 56.4688 102.528 56.4688 101.343V101.213C56.4688 100.074 56.7718 99.1644 57.3779 98.4854C57.9841 97.8063 58.8158 97.4668 59.8731 97.4668C60.7982 97.4668 61.5388 97.7311 62.0947 98.2598C62.6553 98.7839 62.9401 99.4834 62.9492 100.358H61.0967C61.0876 99.9756 60.9691 99.6657 60.7412 99.4287C60.5134 99.1872 60.2126 99.0664 59.8389 99.0664C59.3786 99.0664 59.03 99.235 58.793 99.5723C58.5606 99.9049 58.4444 100.447 58.4444 101.199V101.404C58.4444 102.165 58.5606 102.712 58.793 103.045C59.0254 103.378 59.3786 103.544 59.8526 103.544ZM66.7637 102.033L66.0527 102.744V105H64.0772V94.5H66.0527V100.317L66.4356 99.8252L68.3291 97.6035H70.7012L68.0283 100.687L70.9336 105H68.6641L66.7637 102.033ZM75.8418 105C75.7507 104.822 75.6846 104.601 75.6436 104.337C75.1651 104.87 74.543 105.137 73.7774 105.137C73.0527 105.137 72.4512 104.927 71.9727 104.508C71.4987 104.089 71.2617 103.56 71.2617 102.922C71.2617 102.138 71.5511 101.536 72.1299 101.117C72.7132 100.698 73.5541 100.486 74.6524 100.481H75.5615V100.058C75.5615 99.7158 75.4727 99.4424 75.2949 99.2373C75.1218 99.0322 74.846 98.9297 74.4678 98.9297C74.1351 98.9297 73.8731 99.0094 73.6817 99.1689C73.4948 99.3285 73.4014 99.5472 73.4014 99.8252H71.4258C71.4258 99.3968 71.558 99.0003 71.8223 98.6357C72.0866 98.2712 72.4603 97.9863 72.9434 97.7812C73.4264 97.5716 73.9688 97.4668 74.5703 97.4668C75.4818 97.4668 76.2041 97.6969 76.7373 98.1572C77.2751 98.613 77.544 99.2555 77.544 100.085V103.291C77.5485 103.993 77.6465 104.524 77.8379 104.884V105H75.8418ZM74.208 103.626C74.4997 103.626 74.7686 103.562 75.0147 103.435C75.2608 103.302 75.443 103.127 75.5615 102.908V101.637H74.8233C73.8343 101.637 73.308 101.979 73.2442 102.662L73.2373 102.778C73.2373 103.024 73.3239 103.227 73.4971 103.387C73.6703 103.546 73.9072 103.626 74.208 103.626ZM78.7744 101.247C78.7744 100.112 79.0433 99.1986 79.5811 98.5059C80.1234 97.8132 80.8526 97.4668 81.7686 97.4668C82.5798 97.4668 83.211 97.7448 83.6621 98.3008L83.7442 97.6035H85.5352V104.754C85.5352 105.401 85.3871 105.964 85.0908 106.442C84.7992 106.921 84.3867 107.285 83.8535 107.536C83.3203 107.787 82.696 107.912 81.9805 107.912C81.4382 107.912 80.9095 107.803 80.3945 107.584C79.8796 107.37 79.4899 107.092 79.2256 106.75L80.1006 105.547C80.5928 106.098 81.1898 106.374 81.8916 106.374C82.4157 106.374 82.8236 106.233 83.1152 105.95C83.4069 105.672 83.5527 105.276 83.5527 104.761V104.364C83.097 104.879 82.4977 105.137 81.7549 105.137C80.8662 105.137 80.1462 104.79 79.5947 104.098C79.0479 103.4 78.7744 102.478 78.7744 101.329V101.247ZM80.75 101.391C80.75 102.061 80.8845 102.587 81.1533 102.97C81.4222 103.348 81.7914 103.537 82.2608 103.537C82.8623 103.537 83.293 103.312 83.5527 102.86V99.75C83.2884 99.2988 82.8623 99.0732 82.2744 99.0732C81.8005 99.0732 81.4268 99.2669 81.1533 99.6543C80.8845 100.042 80.75 100.62 80.75 101.391ZM90.4639 105.137C89.3792 105.137 88.4951 104.804 87.8115 104.139C87.1325 103.473 86.793 102.587 86.793 101.479V101.288C86.793 100.545 86.9365 99.8822 87.2236 99.2988C87.5108 98.7109 87.9164 98.2598 88.4404 97.9453C88.9691 97.6263 89.5707 97.4668 90.2451 97.4668C91.2569 97.4668 92.0521 97.7858 92.6309 98.4238C93.2142 99.0618 93.5059 99.9665 93.5059 101.138V101.944H88.7959C88.8597 102.427 89.0511 102.815 89.3701 103.106C89.6937 103.398 90.1016 103.544 90.5938 103.544C91.3548 103.544 91.9496 103.268 92.3779 102.717L93.3486 103.804C93.0524 104.223 92.6514 104.551 92.1455 104.788C91.6397 105.021 91.0791 105.137 90.4639 105.137ZM90.2383 99.0664C89.8464 99.0664 89.5274 99.1986 89.2813 99.4629C89.0397 99.7272 88.8848 100.105 88.8164 100.598H91.5645V100.44C91.5554 100.003 91.4369 99.6657 91.209 99.4287C90.9811 99.1872 90.6576 99.0664 90.2383 99.0664Z" fill="black"/>
<path d="M183 101.568C182.945 102.671 182.672 103.542 182.18 104.18C181.688 104.818 181.029 105.137 180.204 105.137C179.352 105.137 178.805 104.754 178.564 103.988C178.318 104.376 178.035 104.665 177.716 104.856C177.402 105.043 177.076 105.137 176.738 105.137C176.091 105.137 175.601 104.872 175.269 104.344C174.936 103.815 174.813 103.084 174.9 102.149C174.968 101.397 175.139 100.728 175.412 100.14C175.69 99.5472 176.046 99.0824 176.479 98.7451C176.916 98.4079 177.374 98.2393 177.853 98.2393C178.222 98.2393 178.552 98.2894 178.844 98.3896C179.136 98.4854 179.464 98.6768 179.828 98.9639L179.473 102.751C179.386 103.804 179.678 104.33 180.348 104.33C180.863 104.33 181.28 104.075 181.599 103.564C181.918 103.054 182.091 102.389 182.118 101.568C182.205 99.7956 181.874 98.4443 181.127 97.5146C180.384 96.585 179.252 96.1201 177.73 96.1201C176.814 96.1201 176 96.348 175.289 96.8037C174.578 97.2549 174.018 97.9089 173.608 98.7656C173.197 99.6224 172.967 100.611 172.917 101.732C172.862 102.863 172.999 103.845 173.327 104.679C173.655 105.508 174.154 106.142 174.824 106.579C175.499 107.021 176.312 107.242 177.265 107.242C177.675 107.242 178.085 107.192 178.495 107.092C178.91 106.992 179.254 106.862 179.527 106.702L179.78 107.488C179.498 107.666 179.122 107.812 178.652 107.926C178.188 108.04 177.716 108.097 177.237 108.097C176.098 108.097 175.118 107.839 174.298 107.324C173.478 106.814 172.862 106.076 172.452 105.109C172.047 104.148 171.871 103.022 171.926 101.732C171.981 100.479 172.261 99.3535 172.767 98.3555C173.273 97.3529 173.958 96.5804 174.824 96.0381C175.69 95.4912 176.668 95.2178 177.757 95.2178C178.892 95.2178 179.865 95.473 180.676 95.9834C181.487 96.4938 182.091 97.2298 182.487 98.1914C182.884 99.153 183.055 100.279 183 101.568ZM175.986 102.149C175.923 102.797 175.982 103.293 176.164 103.64C176.351 103.986 176.645 104.159 177.046 104.159C177.319 104.159 177.582 104.043 177.832 103.811C178.087 103.578 178.297 103.245 178.461 102.812L178.468 102.751L178.782 99.3125C178.527 99.1803 178.254 99.1143 177.962 99.1143C177.429 99.1143 176.987 99.3854 176.636 99.9277C176.29 100.47 176.073 101.211 175.986 102.149ZM188.23 98.7383C188.038 98.7064 187.831 98.6904 187.608 98.6904C186.778 98.6904 186.215 99.0436 185.919 99.75V105H184.654V97.6035H185.885L185.905 98.458C186.32 97.7972 186.908 97.4668 187.669 97.4668C187.915 97.4668 188.102 97.4987 188.23 97.5625V98.7383ZM188.927 101.233C188.927 100.509 189.068 99.8571 189.351 99.2783C189.638 98.6995 190.034 98.2529 190.54 97.9385C191.051 97.624 191.632 97.4668 192.283 97.4668C193.291 97.4668 194.104 97.8154 194.724 98.5127C195.348 99.21 195.66 100.137 195.66 101.295V101.384C195.66 102.104 195.521 102.751 195.243 103.325C194.97 103.895 194.576 104.339 194.061 104.658C193.55 104.977 192.962 105.137 192.297 105.137C191.294 105.137 190.481 104.788 189.857 104.091C189.237 103.394 188.927 102.471 188.927 101.322V101.233ZM190.198 101.384C190.198 102.204 190.388 102.863 190.766 103.359C191.149 103.856 191.659 104.104 192.297 104.104C192.94 104.104 193.45 103.854 193.828 103.353C194.207 102.847 194.396 102.14 194.396 101.233C194.396 100.422 194.202 99.766 193.815 99.2646C193.432 98.7588 192.921 98.5059 192.283 98.5059C191.659 98.5059 191.155 98.7542 190.773 99.251C190.39 99.7477 190.198 100.459 190.198 101.384ZM201.813 105C201.74 104.854 201.68 104.594 201.635 104.221C201.047 104.831 200.345 105.137 199.529 105.137C198.8 105.137 198.201 104.932 197.732 104.521C197.267 104.107 197.034 103.583 197.034 102.949C197.034 102.179 197.326 101.582 197.909 101.158C198.497 100.73 199.322 100.516 200.384 100.516H201.614V99.9346C201.614 99.4925 201.482 99.1416 201.218 98.8818C200.954 98.6175 200.564 98.4854 200.049 98.4854C199.598 98.4854 199.22 98.5993 198.914 98.8271C198.609 99.055 198.456 99.3307 198.456 99.6543H197.185C197.185 99.2852 197.315 98.9297 197.574 98.5879C197.839 98.2415 198.194 97.9681 198.641 97.7676C199.092 97.5671 199.586 97.4668 200.124 97.4668C200.976 97.4668 201.644 97.681 202.127 98.1094C202.61 98.5332 202.861 99.1188 202.879 99.8662V103.271C202.879 103.95 202.966 104.49 203.139 104.891V105H201.813ZM199.714 104.036C200.11 104.036 200.486 103.934 200.842 103.729C201.197 103.523 201.455 103.257 201.614 102.929V101.411H200.623C199.074 101.411 198.299 101.865 198.299 102.771C198.299 103.168 198.431 103.478 198.695 103.701C198.96 103.924 199.299 104.036 199.714 104.036ZM204.554 101.24C204.554 100.105 204.823 99.194 205.36 98.5059C205.898 97.8132 206.602 97.4668 207.473 97.4668C208.339 97.4668 209.025 97.763 209.53 98.3555V94.5H210.795V105H209.633L209.571 104.207C209.066 104.827 208.361 105.137 207.459 105.137C206.602 105.137 205.903 104.786 205.36 104.084C204.823 103.382 204.554 102.466 204.554 101.336V101.24ZM205.818 101.384C205.818 102.222 205.992 102.879 206.338 103.353C206.684 103.826 207.163 104.063 207.774 104.063C208.576 104.063 209.161 103.703 209.53 102.983V99.5859C209.152 98.8887 208.571 98.54 207.787 98.54C207.167 98.54 206.684 98.7793 206.338 99.2578C205.992 99.7363 205.818 100.445 205.818 101.384ZM214.138 105H212.873V97.6035H214.138V105ZM212.771 95.6416C212.771 95.4365 212.832 95.2633 212.955 95.1221C213.083 94.9808 213.27 94.9102 213.516 94.9102C213.762 94.9102 213.949 94.9808 214.076 95.1221C214.204 95.2633 214.268 95.4365 214.268 95.6416C214.268 95.8467 214.204 96.0176 214.076 96.1543C213.949 96.291 213.762 96.3594 213.516 96.3594C213.27 96.3594 213.083 96.291 212.955 96.1543C212.832 96.0176 212.771 95.8467 212.771 95.6416ZM219.237 105.137C218.235 105.137 217.419 104.809 216.79 104.152C216.161 103.492 215.847 102.61 215.847 101.507V101.274C215.847 100.541 215.986 99.8867 216.264 99.3125C216.546 98.7337 216.938 98.2826 217.44 97.959C217.945 97.6309 218.492 97.4668 219.08 97.4668C220.042 97.4668 220.789 97.7835 221.322 98.417C221.856 99.0505 222.122 99.9574 222.122 101.138V101.664H217.111C217.13 102.393 217.342 102.983 217.747 103.435C218.157 103.881 218.677 104.104 219.306 104.104C219.752 104.104 220.131 104.013 220.441 103.831C220.75 103.649 221.022 103.407 221.254 103.106L222.027 103.708C221.407 104.66 220.477 105.137 219.237 105.137ZM219.08 98.5059C218.57 98.5059 218.141 98.6927 217.795 99.0664C217.449 99.4355 217.235 99.9551 217.152 100.625H220.858V100.529C220.821 99.8867 220.648 99.39 220.338 99.0391C220.028 98.6836 219.609 98.5059 219.08 98.5059ZM226.224 101.288H222.888V100.256H226.224V101.288ZM229.177 95.8125V97.6035H230.558V98.5811H229.177V103.168C229.177 103.464 229.238 103.688 229.361 103.838C229.485 103.984 229.694 104.057 229.99 104.057C230.136 104.057 230.337 104.029 230.592 103.975V105C230.259 105.091 229.936 105.137 229.621 105.137C229.056 105.137 228.63 104.966 228.343 104.624C228.056 104.282 227.912 103.797 227.912 103.168V98.5811H226.566V97.6035H227.912V95.8125H229.177ZM235.11 105.137C234.108 105.137 233.292 104.809 232.663 104.152C232.034 103.492 231.72 102.61 231.72 101.507V101.274C231.72 100.541 231.859 99.8867 232.137 99.3125C232.419 98.7337 232.811 98.2826 233.313 97.959C233.818 97.6309 234.365 97.4668 234.953 97.4668C235.915 97.4668 236.662 97.7835 237.195 98.417C237.729 99.0505 237.995 99.9574 237.995 101.138V101.664H232.985C233.003 102.393 233.215 102.983 233.62 103.435C234.03 103.881 234.55 104.104 235.179 104.104C235.625 104.104 236.004 104.013 236.314 103.831C236.624 103.649 236.895 103.407 237.127 103.106L237.9 103.708C237.28 104.66 236.35 105.137 235.11 105.137ZM234.953 98.5059C234.443 98.5059 234.014 98.6927 233.668 99.0664C233.322 99.4355 233.108 99.9551 233.026 100.625H236.731V100.529C236.694 99.8867 236.521 99.39 236.211 99.0391C235.901 98.6836 235.482 98.5059 234.953 98.5059ZM243.772 103.038C243.772 102.696 243.642 102.432 243.382 102.245C243.127 102.054 242.678 101.89 242.035 101.753C241.397 101.616 240.889 101.452 240.511 101.261C240.137 101.069 239.859 100.841 239.677 100.577C239.499 100.313 239.41 99.9984 239.41 99.6338C239.41 99.0277 239.666 98.515 240.176 98.0957C240.691 97.6764 241.347 97.4668 242.145 97.4668C242.983 97.4668 243.662 97.6833 244.182 98.1162C244.706 98.5492 244.968 99.1029 244.968 99.7773H243.696C243.696 99.431 243.548 99.1325 243.252 98.8818C242.96 98.6312 242.591 98.5059 242.145 98.5059C241.684 98.5059 241.324 98.6061 241.065 98.8066C240.805 99.0072 240.675 99.2692 240.675 99.5928C240.675 99.8981 240.796 100.128 241.037 100.283C241.279 100.438 241.714 100.586 242.343 100.728C242.976 100.869 243.489 101.037 243.881 101.233C244.273 101.429 244.562 101.666 244.749 101.944C244.941 102.218 245.036 102.553 245.036 102.949C245.036 103.61 244.772 104.141 244.243 104.542C243.715 104.938 243.029 105.137 242.186 105.137C241.593 105.137 241.069 105.032 240.613 104.822C240.158 104.613 239.8 104.321 239.54 103.947C239.285 103.569 239.157 103.161 239.157 102.724H240.422C240.445 103.147 240.613 103.485 240.928 103.735C241.247 103.981 241.666 104.104 242.186 104.104C242.664 104.104 243.047 104.009 243.334 103.817C243.626 103.621 243.772 103.362 243.772 103.038ZM248.4 95.8125V97.6035H249.78V98.5811H248.4V103.168C248.4 103.464 248.461 103.688 248.584 103.838C248.707 103.984 248.917 104.057 249.213 104.057C249.359 104.057 249.559 104.029 249.815 103.975V105C249.482 105.091 249.158 105.137 248.844 105.137C248.279 105.137 247.853 104.966 247.566 104.624C247.278 104.282 247.135 103.797 247.135 103.168V98.5811H245.788V97.6035H247.135V95.8125H248.4ZM251.517 105.854H250.43L254.586 95.0469H255.666L251.517 105.854ZM263.295 101.384C263.295 102.514 263.035 103.423 262.516 104.111C261.996 104.795 261.299 105.137 260.424 105.137C259.49 105.137 258.767 104.806 258.257 104.146L258.195 105H257.033V94.5H258.298V98.417C258.808 97.7835 259.513 97.4668 260.41 97.4668C261.308 97.4668 262.012 97.8063 262.523 98.4854C263.038 99.1644 263.295 100.094 263.295 101.274V101.384ZM262.03 101.24C262.03 100.379 261.864 99.7135 261.531 99.2441C261.199 98.7747 260.72 98.54 260.096 98.54C259.262 98.54 258.663 98.9274 258.298 99.7021V102.901C258.685 103.676 259.289 104.063 260.11 104.063C260.716 104.063 261.187 103.829 261.525 103.359C261.862 102.89 262.03 102.184 262.03 101.24ZM267.964 105.137C266.961 105.137 266.146 104.809 265.517 104.152C264.888 103.492 264.573 102.61 264.573 101.507V101.274C264.573 100.541 264.712 99.8867 264.99 99.3125C265.273 98.7337 265.665 98.2826 266.166 97.959C266.672 97.6309 267.219 97.4668 267.807 97.4668C268.768 97.4668 269.516 97.7835 270.049 98.417C270.582 99.0505 270.849 99.9574 270.849 101.138V101.664H265.838C265.856 102.393 266.068 102.983 266.474 103.435C266.884 103.881 267.403 104.104 268.032 104.104C268.479 104.104 268.857 104.013 269.167 103.831C269.477 103.649 269.748 103.407 269.981 103.106L270.753 103.708C270.133 104.66 269.204 105.137 267.964 105.137ZM267.807 98.5059C267.296 98.5059 266.868 98.6927 266.522 99.0664C266.175 99.4355 265.961 99.9551 265.879 100.625H269.584V100.529C269.548 99.8867 269.374 99.39 269.065 99.0391C268.755 98.6836 268.335 98.5059 267.807 98.5059ZM276.625 103.038C276.625 102.696 276.495 102.432 276.235 102.245C275.98 102.054 275.531 101.89 274.889 101.753C274.251 101.616 273.743 101.452 273.364 101.261C272.991 101.069 272.713 100.841 272.53 100.577C272.353 100.313 272.264 99.9984 272.264 99.6338C272.264 99.0277 272.519 98.515 273.029 98.0957C273.544 97.6764 274.201 97.4668 274.998 97.4668C275.837 97.4668 276.516 97.6833 277.035 98.1162C277.559 98.5492 277.821 99.1029 277.821 99.7773H276.55C276.55 99.431 276.402 99.1325 276.106 98.8818C275.814 98.6312 275.445 98.5059 274.998 98.5059C274.538 98.5059 274.178 98.6061 273.918 98.8066C273.658 99.0072 273.528 99.2692 273.528 99.5928C273.528 99.8981 273.649 100.128 273.891 100.283C274.132 100.438 274.568 100.586 275.196 100.728C275.83 100.869 276.343 101.037 276.735 101.233C277.126 101.429 277.416 101.666 277.603 101.944C277.794 102.218 277.89 102.553 277.89 102.949C277.89 103.61 277.625 104.141 277.097 104.542C276.568 104.938 275.882 105.137 275.039 105.137C274.447 105.137 273.923 105.032 273.467 104.822C273.011 104.613 272.653 104.321 272.394 103.947C272.138 103.569 272.011 103.161 272.011 102.724H273.276C273.298 103.147 273.467 103.485 273.781 103.735C274.1 103.981 274.52 104.104 275.039 104.104C275.518 104.104 275.901 104.009 276.188 103.817C276.479 103.621 276.625 103.362 276.625 103.038ZM285.785 101.384C285.785 102.509 285.528 103.416 285.013 104.104C284.498 104.793 283.801 105.137 282.921 105.137C282.023 105.137 281.317 104.852 280.802 104.282V107.844H279.537V97.6035H280.693L280.754 98.4238C281.269 97.7858 281.985 97.4668 282.901 97.4668C283.789 97.4668 284.491 97.8018 285.006 98.4717C285.526 99.1416 285.785 100.074 285.785 101.268V101.384ZM284.521 101.24C284.521 100.406 284.343 99.7477 283.987 99.2646C283.632 98.7816 283.144 98.54 282.525 98.54C281.759 98.54 281.185 98.8796 280.802 99.5586V103.093C281.18 103.767 281.759 104.104 282.538 104.104C283.144 104.104 283.625 103.865 283.981 103.387C284.341 102.904 284.521 102.188 284.521 101.24ZM287.064 101.233C287.064 100.509 287.205 99.8571 287.487 99.2783C287.775 98.6995 288.171 98.2529 288.677 97.9385C289.187 97.624 289.768 97.4668 290.42 97.4668C291.427 97.4668 292.241 97.8154 292.86 98.5127C293.485 99.21 293.797 100.137 293.797 101.295V101.384C293.797 102.104 293.658 102.751 293.38 103.325C293.107 103.895 292.712 104.339 292.197 104.658C291.687 104.977 291.099 105.137 290.434 105.137C289.431 105.137 288.618 104.788 287.993 104.091C287.374 103.394 287.064 102.471 287.064 101.322V101.233ZM288.335 101.384C288.335 102.204 288.524 102.863 288.902 103.359C289.285 103.856 289.796 104.104 290.434 104.104C291.076 104.104 291.587 103.854 291.965 103.353C292.343 102.847 292.532 102.14 292.532 101.233C292.532 100.422 292.339 99.766 291.951 99.2646C291.568 98.7588 291.058 98.5059 290.42 98.5059C289.796 98.5059 289.292 98.7542 288.909 99.251C288.527 99.7477 288.335 100.459 288.335 101.384ZM297.447 101.575L296.654 102.402V105H295.39V94.5H296.654V100.851L297.331 100.037L299.635 97.6035H301.173L298.295 100.693L301.508 105H300.025L297.447 101.575ZM305.411 105.137C304.409 105.137 303.593 104.809 302.964 104.152C302.335 103.492 302.021 102.61 302.021 101.507V101.274C302.021 100.541 302.16 99.8867 302.438 99.3125C302.72 98.7337 303.112 98.2826 303.613 97.959C304.119 97.6309 304.666 97.4668 305.254 97.4668C306.216 97.4668 306.963 97.7835 307.496 98.417C308.029 99.0505 308.296 99.9574 308.296 101.138V101.664H303.285C303.304 102.393 303.515 102.983 303.921 103.435C304.331 103.881 304.851 104.104 305.48 104.104C305.926 104.104 306.304 104.013 306.614 103.831C306.924 103.649 307.195 103.407 307.428 103.106L308.2 103.708C307.581 104.66 306.651 105.137 305.411 105.137ZM305.254 98.5059C304.744 98.5059 304.315 98.6927 303.969 99.0664C303.623 99.4355 303.408 99.9551 303.326 100.625H307.031V100.529C306.995 99.8867 306.822 99.39 306.512 99.0391C306.202 98.6836 305.783 98.5059 305.254 98.5059ZM312.398 101.288H309.062V100.256H312.398V101.288ZM319.883 101.384C319.883 102.509 319.625 103.416 319.11 104.104C318.596 104.793 317.898 105.137 317.019 105.137C316.121 105.137 315.415 104.852 314.9 104.282V107.844H313.635V97.6035H314.79L314.852 98.4238C315.367 97.7858 316.082 97.4668 316.998 97.4668C317.887 97.4668 318.589 97.8018 319.104 98.4717C319.623 99.1416 319.883 100.074 319.883 101.268V101.384ZM318.618 101.24C318.618 100.406 318.441 99.7477 318.085 99.2646C317.73 98.7816 317.242 98.54 316.622 98.54C315.857 98.54 315.282 98.8796 314.9 99.5586V103.093C315.278 103.767 315.857 104.104 316.636 104.104C317.242 104.104 317.723 103.865 318.078 103.387C318.438 102.904 318.618 102.188 318.618 101.24ZM322.87 105H321.606V94.5H322.87V105ZM329.467 104.269C328.975 104.847 328.252 105.137 327.3 105.137C326.512 105.137 325.91 104.909 325.495 104.453C325.085 103.993 324.878 103.314 324.873 102.416V97.6035H326.138V102.382C326.138 103.503 326.594 104.063 327.505 104.063C328.471 104.063 329.114 103.703 329.433 102.983V97.6035H330.697V105H329.494L329.467 104.269ZM332.324 101.24C332.324 100.087 332.591 99.1712 333.124 98.4922C333.657 97.8086 334.364 97.4668 335.243 97.4668C336.146 97.4668 336.85 97.7858 337.356 98.4238L337.417 97.6035H338.572V104.822C338.572 105.779 338.288 106.534 337.718 107.085C337.153 107.636 336.392 107.912 335.435 107.912C334.902 107.912 334.38 107.798 333.869 107.57C333.359 107.342 332.969 107.03 332.7 106.634L333.357 105.875C333.899 106.545 334.562 106.88 335.346 106.88C335.961 106.88 336.44 106.707 336.781 106.36C337.128 106.014 337.301 105.526 337.301 104.897V104.262C336.795 104.845 336.105 105.137 335.23 105.137C334.364 105.137 333.662 104.788 333.124 104.091C332.591 103.394 332.324 102.443 332.324 101.24ZM333.596 101.384C333.596 102.218 333.767 102.874 334.109 103.353C334.45 103.826 334.929 104.063 335.544 104.063C336.342 104.063 336.927 103.701 337.301 102.977V99.5996C336.914 98.8932 336.332 98.54 335.558 98.54C334.943 98.54 334.462 98.7793 334.115 99.2578C333.769 99.7363 333.596 100.445 333.596 101.384ZM341.86 105H340.596V97.6035H341.86V105ZM340.493 95.6416C340.493 95.4365 340.555 95.2633 340.678 95.1221C340.805 94.9808 340.992 94.9102 341.238 94.9102C341.485 94.9102 341.671 94.9808 341.799 95.1221C341.927 95.2633 341.99 95.4365 341.99 95.6416C341.99 95.8467 341.927 96.0176 341.799 96.1543C341.671 96.291 341.485 96.3594 341.238 96.3594C340.992 96.3594 340.805 96.291 340.678 96.1543C340.555 96.0176 340.493 95.8467 340.493 95.6416ZM345.087 97.6035L345.128 98.5332C345.693 97.8223 346.431 97.4668 347.343 97.4668C348.906 97.4668 349.694 98.3486 349.708 100.112V105H348.443V100.105C348.439 99.5723 348.316 99.1781 348.074 98.9229C347.837 98.6676 347.466 98.54 346.96 98.54C346.55 98.54 346.19 98.6494 345.88 98.8682C345.57 99.0869 345.329 99.374 345.155 99.7295V105H343.891V97.6035H345.087Z" fill="black"/>
<rect x="19" y="174" width="376" height="49" fill="#C4C4C4" fill-opacity="0.19"/>
<path d="M46.1418 200.389C46.1418 200.001 46.005 199.705 45.7316 199.5C45.4582 199.29 44.966 199.072 44.255 198.844C43.5441 198.611 42.9813 198.383 42.5666 198.16C41.4364 197.549 40.8712 196.727 40.8712 195.692C40.8712 195.155 41.0216 194.676 41.3224 194.257C41.6278 193.833 42.063 193.503 42.6281 193.266C43.1977 193.029 43.8358 192.91 44.5421 192.91C45.2531 192.91 45.8865 193.04 46.4425 193.3C46.9985 193.555 47.4292 193.917 47.7345 194.387C48.0444 194.856 48.1994 195.389 48.1994 195.986H46.1486C46.1486 195.531 46.005 195.177 45.7179 194.927C45.4308 194.672 45.0275 194.544 44.508 194.544C44.0067 194.544 43.617 194.651 43.339 194.865C43.061 195.075 42.922 195.353 42.922 195.699C42.922 196.023 43.0838 196.294 43.4074 196.513C43.7355 196.731 44.2163 196.937 44.8498 197.128C46.0164 197.479 46.8664 197.914 47.3996 198.434C47.9328 198.953 48.1994 199.6 48.1994 200.375C48.1994 201.236 47.8735 201.913 47.2218 202.405C46.5701 202.893 45.6929 203.137 44.59 203.137C43.8244 203.137 43.1271 202.998 42.4982 202.72C41.8693 202.437 41.3885 202.052 41.0558 201.564C40.7277 201.077 40.5636 200.512 40.5636 199.869H42.6212C42.6212 200.967 43.2775 201.517 44.59 201.517C45.0776 201.517 45.4582 201.419 45.7316 201.223C46.005 201.022 46.1418 200.744 46.1418 200.389ZM51.8293 193.785V195.604H53.0939V197.053H51.8293V200.744C51.8293 201.018 51.8817 201.214 51.9865 201.332C52.0913 201.451 52.2918 201.51 52.588 201.51C52.8068 201.51 53.0005 201.494 53.1691 201.462V202.959C52.7817 203.077 52.383 203.137 51.9728 203.137C50.5874 203.137 49.881 202.437 49.8537 201.038V197.053H48.7736V195.604H49.8537V193.785H51.8293ZM58.4806 203C58.3895 202.822 58.3234 202.601 58.2824 202.337C57.8039 202.87 57.1818 203.137 56.4162 203.137C55.6916 203.137 55.09 202.927 54.6115 202.508C54.1375 202.089 53.9005 201.56 53.9005 200.922C53.9005 200.138 54.1899 199.536 54.7687 199.117C55.352 198.698 56.1929 198.486 57.2912 198.481H58.2003V198.058C58.2003 197.716 58.1115 197.442 57.9337 197.237C57.7606 197.032 57.4849 196.93 57.1066 196.93C56.7739 196.93 56.5119 197.009 56.3205 197.169C56.1336 197.328 56.0402 197.547 56.0402 197.825H54.0646C54.0646 197.397 54.1968 197 54.4611 196.636C54.7254 196.271 55.0991 195.986 55.5822 195.781C56.0653 195.572 56.6076 195.467 57.2091 195.467C58.1206 195.467 58.8429 195.697 59.3761 196.157C59.9139 196.613 60.1828 197.256 60.1828 198.085V201.291C60.1873 201.993 60.2853 202.524 60.4767 202.884V203H58.4806ZM56.8468 201.626C57.1385 201.626 57.4074 201.562 57.6535 201.435C57.8996 201.302 58.0819 201.127 58.2003 200.908V199.637H57.4621C56.4731 199.637 55.9468 199.979 55.883 200.662L55.8761 200.778C55.8761 201.024 55.9627 201.227 56.1359 201.387C56.3091 201.546 56.5461 201.626 56.8468 201.626ZM64.0656 193.785V195.604H65.3302V197.053H64.0656V200.744C64.0656 201.018 64.118 201.214 64.2228 201.332C64.3276 201.451 64.5281 201.51 64.8244 201.51C65.0431 201.51 65.2368 201.494 65.4054 201.462V202.959C65.0181 203.077 64.6193 203.137 64.2091 203.137C62.8237 203.137 62.1173 202.437 62.09 201.038V197.053H61.0099V195.604H62.09V193.785H64.0656ZM70.8605 202.248C70.3729 202.84 69.6984 203.137 68.8371 203.137C68.0441 203.137 67.438 202.909 67.0187 202.453C66.604 201.997 66.3921 201.33 66.383 200.45V195.604H68.3586V200.382C68.3586 201.152 68.7095 201.537 69.4113 201.537C70.0812 201.537 70.5415 201.305 70.7921 200.84V195.604H72.7746V203H70.9152L70.8605 202.248ZM78.2707 200.956C78.2707 200.715 78.1499 200.525 77.9084 200.389C77.6714 200.247 77.2886 200.122 76.7599 200.013C75.0008 199.644 74.1212 198.896 74.1212 197.771C74.1212 197.114 74.3924 196.567 74.9347 196.13C75.4816 195.688 76.1948 195.467 77.0744 195.467C78.0132 195.467 78.7628 195.688 79.3234 196.13C79.8885 196.572 80.1711 197.146 80.1711 197.853H78.1955C78.1955 197.57 78.1043 197.338 77.922 197.155C77.7397 196.968 77.4549 196.875 77.0675 196.875C76.7349 196.875 76.4774 196.95 76.2951 197.101C76.1128 197.251 76.0216 197.442 76.0216 197.675C76.0216 197.894 76.1242 198.071 76.3293 198.208C76.5389 198.34 76.8898 198.456 77.382 198.557C77.8742 198.652 78.2889 198.762 78.6261 198.885C79.6697 199.268 80.1916 199.931 80.1916 200.874C80.1916 201.549 79.9022 202.095 79.3234 202.515C78.7446 202.929 77.9972 203.137 77.0812 203.137C76.4614 203.137 75.91 203.027 75.4269 202.809C74.9484 202.585 74.5724 202.282 74.299 201.899C74.0255 201.512 73.8888 201.095 73.8888 200.648H75.7619C75.7801 200.999 75.91 201.268 76.1515 201.455C76.3931 201.642 76.7166 201.735 77.1222 201.735C77.5005 201.735 77.7853 201.665 77.9767 201.523C78.1727 201.378 78.2707 201.188 78.2707 200.956Z" fill="black"/>
<path d="M177.644 203H176.331V193.047H177.644V203ZM187.7 203H186.38L181.37 195.33V203H180.05V193.047H181.37L186.394 200.751V193.047H187.7V203ZM192.963 198.563C191.838 198.24 191.017 197.843 190.502 197.374C189.992 196.9 189.737 196.317 189.737 195.624C189.737 194.84 190.049 194.193 190.673 193.683C191.302 193.168 192.118 192.91 193.12 192.91C193.804 192.91 194.412 193.042 194.946 193.307C195.483 193.571 195.898 193.936 196.19 194.4C196.486 194.865 196.634 195.373 196.634 195.925H195.315C195.315 195.323 195.123 194.852 194.741 194.51C194.358 194.163 193.818 193.99 193.12 193.99C192.473 193.99 191.968 194.134 191.603 194.421C191.243 194.703 191.063 195.098 191.063 195.604C191.063 196.009 191.234 196.353 191.576 196.636C191.922 196.914 192.508 197.169 193.332 197.401C194.162 197.634 194.809 197.891 195.274 198.174C195.743 198.452 196.09 198.778 196.313 199.151C196.541 199.525 196.655 199.965 196.655 200.471C196.655 201.277 196.34 201.924 195.711 202.412C195.082 202.895 194.242 203.137 193.189 203.137C192.505 203.137 191.867 203.007 191.275 202.747C190.682 202.483 190.224 202.123 189.901 201.667C189.582 201.211 189.422 200.694 189.422 200.115H190.742C190.742 200.717 190.963 201.193 191.405 201.544C191.851 201.89 192.446 202.063 193.189 202.063C193.882 202.063 194.412 201.922 194.782 201.64C195.151 201.357 195.335 200.972 195.335 200.484C195.335 199.997 195.164 199.621 194.823 199.356C194.481 199.088 193.861 198.823 192.963 198.563ZM205.22 194.127H202.021V203H200.715V194.127H197.523V193.047H205.22V194.127ZM211.646 200.402H207.476L206.539 203H205.186L208.987 193.047H210.135L213.943 203H212.596L211.646 200.402ZM207.872 199.322H211.256L209.561 194.667L207.872 199.322ZM216.602 201.927H221.319V203H215.283V193.047H216.602V201.927ZM224.135 201.927H228.852V203H222.816V193.047H224.135V201.927ZM235.982 200.402H231.812L230.875 203H229.522L233.323 193.047H234.471L238.279 203H236.932L235.982 200.402ZM232.208 199.322H235.592L233.897 194.667L232.208 199.322ZM245.607 194.127H242.408V203H241.102V194.127H237.91V193.047H245.607V194.127ZM248.492 203H247.179V193.047H248.492V203ZM258.554 198.345C258.554 199.32 258.39 200.172 258.062 200.901C257.734 201.626 257.269 202.18 256.667 202.562C256.066 202.945 255.364 203.137 254.562 203.137C253.778 203.137 253.083 202.945 252.477 202.562C251.871 202.175 251.399 201.626 251.062 200.915C250.729 200.2 250.558 199.372 250.549 198.434V197.716C250.549 196.759 250.716 195.913 251.048 195.18C251.381 194.446 251.85 193.885 252.456 193.498C253.067 193.106 253.764 192.91 254.548 192.91C255.346 192.91 256.048 193.104 256.654 193.491C257.264 193.874 257.734 194.432 258.062 195.166C258.39 195.895 258.554 196.745 258.554 197.716V198.345ZM257.248 197.702C257.248 196.522 257.011 195.617 256.537 194.988C256.064 194.355 255.4 194.038 254.548 194.038C253.719 194.038 253.065 194.355 252.586 194.988C252.112 195.617 251.869 196.492 251.855 197.613V198.345C251.855 199.489 252.094 200.389 252.573 201.045C253.056 201.697 253.719 202.022 254.562 202.022C255.41 202.022 256.066 201.715 256.531 201.1C256.995 200.48 257.235 199.593 257.248 198.44V197.702ZM268.172 203H266.853L261.842 195.33V203H260.523V193.047H261.842L266.867 200.751V193.047H268.172V203ZM275.637 204.032H269.375V203H275.637V204.032ZM279.752 198.563C278.627 198.24 277.806 197.843 277.291 197.374C276.781 196.9 276.526 196.317 276.526 195.624C276.526 194.84 276.838 194.193 277.462 193.683C278.091 193.168 278.907 192.91 279.91 192.91C280.593 192.91 281.202 193.042 281.735 193.307C282.273 193.571 282.687 193.936 282.979 194.4C283.275 194.865 283.423 195.373 283.423 195.925H282.104C282.104 195.323 281.912 194.852 281.53 194.51C281.147 194.163 280.607 193.99 279.91 193.99C279.262 193.99 278.757 194.134 278.392 194.421C278.032 194.703 277.852 195.098 277.852 195.604C277.852 196.009 278.023 196.353 278.365 196.636C278.711 196.914 279.297 197.169 280.121 197.401C280.951 197.634 281.598 197.891 282.063 198.174C282.532 198.452 282.879 198.778 283.102 199.151C283.33 199.525 283.444 199.965 283.444 200.471C283.444 201.277 283.129 201.924 282.5 202.412C281.871 202.895 281.031 203.137 279.978 203.137C279.294 203.137 278.656 203.007 278.064 202.747C277.471 202.483 277.013 202.123 276.69 201.667C276.371 201.211 276.211 200.694 276.211 200.115H277.531C277.531 200.717 277.752 201.193 278.194 201.544C278.64 201.89 279.235 202.063 279.978 202.063C280.671 202.063 281.202 201.922 281.571 201.64C281.94 201.357 282.124 200.972 282.124 200.484C282.124 199.997 281.954 199.621 281.612 199.356C281.27 199.088 280.65 198.823 279.752 198.563ZM292.139 193.047V199.814C292.134 200.753 291.838 201.521 291.25 202.118C290.667 202.715 289.874 203.05 288.871 203.123L288.523 203.137C287.434 203.137 286.565 202.843 285.918 202.255C285.271 201.667 284.943 200.858 284.934 199.828V193.047H286.233V199.787C286.233 200.507 286.431 201.068 286.828 201.469C287.224 201.865 287.789 202.063 288.523 202.063C289.266 202.063 289.833 201.865 290.225 201.469C290.621 201.072 290.82 200.514 290.82 199.794V193.047H292.139ZM301.532 199.842C301.409 200.895 301.019 201.708 300.363 202.282C299.711 202.852 298.843 203.137 297.758 203.137C296.582 203.137 295.639 202.715 294.928 201.872C294.222 201.029 293.869 199.901 293.869 198.488V197.531C293.869 196.606 294.033 195.793 294.361 195.091C294.693 194.389 295.163 193.851 295.769 193.478C296.375 193.099 297.077 192.91 297.874 192.91C298.932 192.91 299.779 193.206 300.417 193.799C301.055 194.387 301.427 195.202 301.532 196.246H300.212C300.098 195.453 299.85 194.879 299.467 194.523C299.089 194.168 298.558 193.99 297.874 193.99C297.036 193.99 296.377 194.3 295.899 194.92C295.425 195.54 295.188 196.422 295.188 197.565V198.529C295.188 199.609 295.413 200.468 295.865 201.106C296.316 201.744 296.947 202.063 297.758 202.063C298.487 202.063 299.046 201.899 299.433 201.571C299.825 201.239 300.085 200.662 300.212 199.842H301.532ZM310.651 199.842C310.528 200.895 310.138 201.708 309.482 202.282C308.83 202.852 307.962 203.137 306.877 203.137C305.702 203.137 304.758 202.715 304.047 201.872C303.341 201.029 302.988 199.901 302.988 198.488V197.531C302.988 196.606 303.152 195.793 303.48 195.091C303.813 194.389 304.282 193.851 304.888 193.478C305.494 193.099 306.196 192.91 306.994 192.91C308.051 192.91 308.898 193.206 309.537 193.799C310.175 194.387 310.546 195.202 310.651 196.246H309.331C309.218 195.453 308.969 194.879 308.586 194.523C308.208 194.168 307.677 193.99 306.994 193.99C306.155 193.99 305.496 194.3 305.018 194.92C304.544 195.54 304.307 196.422 304.307 197.565V198.529C304.307 199.609 304.533 200.468 304.984 201.106C305.435 201.744 306.066 202.063 306.877 202.063C307.607 202.063 308.165 201.899 308.552 201.571C308.944 201.239 309.204 200.662 309.331 199.842H310.651ZM318.075 198.399H313.761V201.927H318.772V203H312.449V193.047H318.704V194.127H313.761V197.326H318.075V198.399ZM323.338 198.563C322.213 198.24 321.392 197.843 320.877 197.374C320.367 196.9 320.112 196.317 320.112 195.624C320.112 194.84 320.424 194.193 321.048 193.683C321.677 193.168 322.493 192.91 323.495 192.91C324.179 192.91 324.787 193.042 325.321 193.307C325.858 193.571 326.273 193.936 326.565 194.4C326.861 194.865 327.009 195.373 327.009 195.925H325.69C325.69 195.323 325.498 194.852 325.116 194.51C324.733 194.163 324.193 193.99 323.495 193.99C322.848 193.99 322.343 194.134 321.978 194.421C321.618 194.703 321.438 195.098 321.438 195.604C321.438 196.009 321.609 196.353 321.951 196.636C322.297 196.914 322.883 197.169 323.707 197.401C324.537 197.634 325.184 197.891 325.649 198.174C326.118 198.452 326.465 198.778 326.688 199.151C326.916 199.525 327.03 199.965 327.03 200.471C327.03 201.277 326.715 201.924 326.086 202.412C325.457 202.895 324.617 203.137 323.564 203.137C322.88 203.137 322.242 203.007 321.65 202.747C321.057 202.483 320.599 202.123 320.276 201.667C319.957 201.211 319.797 200.694 319.797 200.115H321.117C321.117 200.717 321.338 201.193 321.78 201.544C322.226 201.89 322.821 202.063 323.564 202.063C324.257 202.063 324.787 201.922 325.157 201.64C325.526 201.357 325.71 200.972 325.71 200.484C325.71 199.997 325.539 199.621 325.198 199.356C324.856 199.088 324.236 198.823 323.338 198.563ZM331.651 198.563C330.525 198.24 329.705 197.843 329.19 197.374C328.679 196.9 328.424 196.317 328.424 195.624C328.424 194.84 328.736 194.193 329.361 193.683C329.99 193.168 330.805 192.91 331.808 192.91C332.492 192.91 333.1 193.042 333.633 193.307C334.171 193.571 334.586 193.936 334.877 194.4C335.174 194.865 335.322 195.373 335.322 195.925H334.002C334.002 195.323 333.811 194.852 333.428 194.51C333.045 194.163 332.505 193.99 331.808 193.99C331.161 193.99 330.655 194.134 330.29 194.421C329.93 194.703 329.75 195.098 329.75 195.604C329.75 196.009 329.921 196.353 330.263 196.636C330.609 196.914 331.195 197.169 332.02 197.401C332.849 197.634 333.496 197.891 333.961 198.174C334.431 198.452 334.777 198.778 335 199.151C335.228 199.525 335.342 199.965 335.342 200.471C335.342 201.277 335.028 201.924 334.399 202.412C333.77 202.895 332.929 203.137 331.876 203.137C331.193 203.137 330.555 203.007 329.962 202.747C329.37 202.483 328.912 202.123 328.588 201.667C328.269 201.211 328.11 200.694 328.11 200.115H329.429C329.429 200.717 329.65 201.193 330.092 201.544C330.539 201.89 331.134 202.063 331.876 202.063C332.569 202.063 333.1 201.922 333.469 201.64C333.838 201.357 334.023 200.972 334.023 200.484C334.023 199.997 333.852 199.621 333.51 199.356C333.168 199.088 332.549 198.823 331.651 198.563ZM342.52 198.604H338.343V203H337.031V193.047H343.197V194.127H338.343V197.531H342.52V198.604ZM351.776 193.047V199.814C351.771 200.753 351.475 201.521 350.887 202.118C350.304 202.715 349.511 203.05 348.508 203.123L348.16 203.137C347.07 203.137 346.202 202.843 345.555 202.255C344.908 201.667 344.58 200.858 344.571 199.828V193.047H345.87V199.787C345.87 200.507 346.068 201.068 346.464 201.469C346.861 201.865 347.426 202.063 348.16 202.063C348.902 202.063 349.47 201.865 349.862 201.469C350.258 201.072 350.456 200.514 350.456 199.794V193.047H351.776ZM355.166 201.927H359.883V203H353.847V193.047H355.166V201.927Z" fill="black"/>
<path d="M47.7021 150.685C47.6247 151.756 47.2282 152.599 46.5127 153.214C45.8018 153.829 44.863 154.137 43.6963 154.137C42.4202 154.137 41.4154 153.708 40.6816 152.852C39.9525 151.99 39.5879 150.81 39.5879 149.311V148.702C39.5879 147.745 39.7565 146.902 40.0938 146.173C40.431 145.444 40.9118 144.885 41.5361 144.498C42.165 144.106 42.8942 143.91 43.7236 143.91C44.8721 143.91 45.7972 144.218 46.499 144.833C47.2008 145.448 47.6064 146.312 47.7158 147.424H45.665C45.6149 146.781 45.4349 146.316 45.125 146.029C44.8197 145.738 44.3525 145.592 43.7236 145.592C43.04 145.592 42.5273 145.838 42.1855 146.33C41.8483 146.818 41.6751 147.576 41.666 148.606V149.358C41.666 150.434 41.8278 151.22 42.1514 151.717C42.4795 152.214 42.9945 152.462 43.6963 152.462C44.3298 152.462 44.8014 152.318 45.1113 152.031C45.4258 151.74 45.6058 151.291 45.6514 150.685H47.7021ZM48.6113 150.233C48.6113 149.5 48.7526 148.846 49.0352 148.271C49.3177 147.697 49.7233 147.253 50.252 146.938C50.7852 146.624 51.4027 146.467 52.1045 146.467C53.1025 146.467 53.916 146.772 54.5449 147.383C55.1784 147.993 55.5316 148.823 55.6045 149.871L55.6182 150.377C55.6182 151.512 55.3014 152.423 54.668 153.111C54.0345 153.795 53.1846 154.137 52.1182 154.137C51.0518 154.137 50.1995 153.795 49.5615 153.111C48.9281 152.428 48.6113 151.498 48.6113 150.322V150.233ZM50.5869 150.377C50.5869 151.079 50.7191 151.617 50.9834 151.99C51.2477 152.359 51.626 152.544 52.1182 152.544C52.5967 152.544 52.9704 152.362 53.2393 151.997C53.5081 151.628 53.6426 151.04 53.6426 150.233C53.6426 149.545 53.5081 149.012 53.2393 148.634C52.9704 148.256 52.5921 148.066 52.1045 148.066C51.6214 148.066 51.2477 148.256 50.9834 148.634C50.7191 149.007 50.5869 149.589 50.5869 150.377ZM58.6875 146.604L58.749 147.431C59.2731 146.788 59.9818 146.467 60.875 146.467C61.8275 146.467 62.4814 146.843 62.8369 147.595C63.3564 146.843 64.097 146.467 65.0586 146.467C65.8607 146.467 66.4577 146.701 66.8496 147.171C67.2415 147.636 67.4375 148.338 67.4375 149.276V154H65.4551V149.283C65.4551 148.864 65.373 148.559 65.209 148.367C65.0449 148.171 64.7555 148.073 64.3408 148.073C63.7484 148.073 63.3382 148.356 63.1104 148.921L63.1172 154H61.1416V149.29C61.1416 148.862 61.0573 148.552 60.8887 148.36C60.7201 148.169 60.4329 148.073 60.0273 148.073C59.4668 148.073 59.0612 148.306 58.8105 148.771V154H56.835V146.604H58.6875ZM75.6201 150.37C75.6201 151.509 75.3604 152.423 74.8408 153.111C74.3258 153.795 73.6286 154.137 72.749 154.137C72.0016 154.137 71.3978 153.877 70.9375 153.357V156.844H68.9619V146.604H70.7939L70.8623 147.328C71.3408 146.754 71.9652 146.467 72.7354 146.467C73.6468 146.467 74.3555 146.804 74.8613 147.479C75.3672 148.153 75.6201 149.083 75.6201 150.268V150.37ZM73.6445 150.227C73.6445 149.538 73.5215 149.007 73.2754 148.634C73.0339 148.26 72.6807 148.073 72.2158 148.073C71.596 148.073 71.1699 148.31 70.9375 148.784V151.812C71.179 152.3 71.6097 152.544 72.2295 152.544C73.1729 152.544 73.6445 151.771 73.6445 150.227ZM76.543 150.233C76.543 149.5 76.6842 148.846 76.9668 148.271C77.2493 147.697 77.6549 147.253 78.1836 146.938C78.7168 146.624 79.3343 146.467 80.0361 146.467C81.0342 146.467 81.8477 146.772 82.4766 147.383C83.11 147.993 83.4632 148.823 83.5361 149.871L83.5498 150.377C83.5498 151.512 83.2331 152.423 82.5996 153.111C81.9661 153.795 81.1162 154.137 80.0498 154.137C78.9834 154.137 78.1312 153.795 77.4932 153.111C76.8597 152.428 76.543 151.498 76.543 150.322V150.233ZM78.5186 150.377C78.5186 151.079 78.6507 151.617 78.915 151.99C79.1794 152.359 79.5576 152.544 80.0498 152.544C80.5283 152.544 80.902 152.362 81.1709 151.997C81.4398 151.628 81.5742 151.04 81.5742 150.233C81.5742 149.545 81.4398 149.012 81.1709 148.634C80.902 148.256 80.5238 148.066 80.0361 148.066C79.5531 148.066 79.1794 148.256 78.915 148.634C78.6507 149.007 78.5186 149.589 78.5186 150.377ZM86.585 146.604L86.6465 147.458C87.1751 146.797 87.8838 146.467 88.7725 146.467C89.5563 146.467 90.1396 146.697 90.5225 147.157C90.9053 147.618 91.1012 148.306 91.1104 149.222V154H89.1348V149.27C89.1348 148.85 89.0436 148.547 88.8613 148.36C88.679 148.169 88.376 148.073 87.9521 148.073C87.3962 148.073 86.9792 148.31 86.7012 148.784V154H84.7256V146.604H86.585ZM96.0186 154.137C94.9339 154.137 94.0498 153.804 93.3662 153.139C92.6872 152.473 92.3477 151.587 92.3477 150.479V150.288C92.3477 149.545 92.4912 148.882 92.7783 148.299C93.0654 147.711 93.471 147.26 93.9951 146.945C94.5238 146.626 95.1253 146.467 95.7998 146.467C96.8115 146.467 97.6068 146.786 98.1855 147.424C98.7689 148.062 99.0605 148.966 99.0605 150.138V150.944H94.3506C94.4144 151.427 94.6058 151.815 94.9248 152.106C95.2484 152.398 95.6562 152.544 96.1484 152.544C96.9095 152.544 97.5042 152.268 97.9326 151.717L98.9033 152.804C98.6071 153.223 98.2061 153.551 97.7002 153.788C97.1943 154.021 96.6338 154.137 96.0186 154.137ZM95.793 148.066C95.401 148.066 95.082 148.199 94.8359 148.463C94.5944 148.727 94.4395 149.105 94.3711 149.598H97.1191V149.44C97.11 149.003 96.9915 148.666 96.7637 148.429C96.5358 148.187 96.2122 148.066 95.793 148.066ZM102.007 146.604L102.068 147.458C102.597 146.797 103.306 146.467 104.194 146.467C104.978 146.467 105.562 146.697 105.944 147.157C106.327 147.618 106.523 148.306 106.532 149.222V154H104.557V149.27C104.557 148.85 104.465 148.547 104.283 148.36C104.101 148.169 103.798 148.073 103.374 148.073C102.818 148.073 102.401 148.31 102.123 148.784V154H100.147V146.604H102.007ZM110.401 144.785V146.604H111.666V148.053H110.401V151.744C110.401 152.018 110.454 152.214 110.559 152.332C110.663 152.451 110.864 152.51 111.16 152.51C111.379 152.51 111.573 152.494 111.741 152.462V153.959C111.354 154.077 110.955 154.137 110.545 154.137C109.16 154.137 108.453 153.437 108.426 152.038V148.053H107.346V146.604H108.426V144.785H110.401ZM116.772 151.956C116.772 151.715 116.652 151.525 116.41 151.389C116.173 151.247 115.79 151.122 115.262 151.013C113.503 150.644 112.623 149.896 112.623 148.771C112.623 148.114 112.894 147.567 113.437 147.13C113.983 146.688 114.697 146.467 115.576 146.467C116.515 146.467 117.265 146.688 117.825 147.13C118.39 147.572 118.673 148.146 118.673 148.853H116.697C116.697 148.57 116.606 148.338 116.424 148.155C116.242 147.968 115.957 147.875 115.569 147.875C115.237 147.875 114.979 147.95 114.797 148.101C114.615 148.251 114.523 148.442 114.523 148.675C114.523 148.894 114.626 149.071 114.831 149.208C115.041 149.34 115.392 149.456 115.884 149.557C116.376 149.652 116.791 149.762 117.128 149.885C118.172 150.268 118.693 150.931 118.693 151.874C118.693 152.549 118.404 153.095 117.825 153.515C117.246 153.929 116.499 154.137 115.583 154.137C114.963 154.137 114.412 154.027 113.929 153.809C113.45 153.585 113.074 153.282 112.801 152.899C112.527 152.512 112.391 152.095 112.391 151.648H114.264C114.282 151.999 114.412 152.268 114.653 152.455C114.895 152.642 115.218 152.735 115.624 152.735C116.002 152.735 116.287 152.665 116.479 152.523C116.674 152.378 116.772 152.188 116.772 151.956Z" fill="black"/>
<path d="M202.468 150.104V154H201.155V144.047H204.826C205.915 144.047 206.768 144.325 207.383 144.881C208.003 145.437 208.312 146.173 208.312 147.089C208.312 148.055 208.009 148.8 207.403 149.324C206.802 149.844 205.938 150.104 204.812 150.104H202.468ZM202.468 149.03H204.826C205.528 149.03 206.066 148.866 206.439 148.538C206.813 148.205 207 147.727 207 147.103C207 146.51 206.813 146.036 206.439 145.681C206.066 145.325 205.553 145.141 204.901 145.127H202.468V149.03ZM214.273 154C214.201 153.854 214.141 153.594 214.096 153.221C213.508 153.831 212.806 154.137 211.99 154.137C211.261 154.137 210.662 153.932 210.192 153.521C209.728 153.107 209.495 152.583 209.495 151.949C209.495 151.179 209.787 150.582 210.37 150.158C210.958 149.73 211.783 149.516 212.845 149.516H214.075V148.935C214.075 148.493 213.943 148.142 213.679 147.882C213.414 147.618 213.025 147.485 212.51 147.485C212.059 147.485 211.68 147.599 211.375 147.827C211.07 148.055 210.917 148.331 210.917 148.654H209.646C209.646 148.285 209.775 147.93 210.035 147.588C210.299 147.242 210.655 146.968 211.102 146.768C211.553 146.567 212.047 146.467 212.585 146.467C213.437 146.467 214.105 146.681 214.588 147.109C215.071 147.533 215.322 148.119 215.34 148.866V152.271C215.34 152.95 215.426 153.49 215.6 153.891V154H214.273ZM212.175 153.036C212.571 153.036 212.947 152.934 213.303 152.729C213.658 152.523 213.916 152.257 214.075 151.929V150.411H213.084C211.535 150.411 210.76 150.865 210.76 151.771C210.76 152.168 210.892 152.478 211.156 152.701C211.421 152.924 211.76 153.036 212.175 153.036ZM217.021 150.24C217.021 149.087 217.288 148.171 217.821 147.492C218.354 146.809 219.061 146.467 219.94 146.467C220.843 146.467 221.547 146.786 222.053 147.424L222.114 146.604H223.27V153.822C223.27 154.779 222.985 155.534 222.415 156.085C221.85 156.636 221.089 156.912 220.132 156.912C219.599 156.912 219.077 156.798 218.566 156.57C218.056 156.342 217.666 156.03 217.397 155.634L218.054 154.875C218.596 155.545 219.259 155.88 220.043 155.88C220.658 155.88 221.137 155.707 221.479 155.36C221.825 155.014 221.998 154.526 221.998 153.897V153.262C221.492 153.845 220.802 154.137 219.927 154.137C219.061 154.137 218.359 153.788 217.821 153.091C217.288 152.394 217.021 151.443 217.021 150.24ZM218.293 150.384C218.293 151.218 218.464 151.874 218.806 152.353C219.147 152.826 219.626 153.063 220.241 153.063C221.039 153.063 221.624 152.701 221.998 151.977V148.6C221.611 147.893 221.03 147.54 220.255 147.54C219.64 147.54 219.159 147.779 218.812 148.258C218.466 148.736 218.293 149.445 218.293 150.384ZM228.253 154.137C227.25 154.137 226.435 153.809 225.806 153.152C225.177 152.492 224.862 151.61 224.862 150.507V150.274C224.862 149.541 225.001 148.887 225.279 148.312C225.562 147.734 225.954 147.283 226.455 146.959C226.961 146.631 227.508 146.467 228.096 146.467C229.057 146.467 229.805 146.784 230.338 147.417C230.871 148.05 231.138 148.957 231.138 150.138V150.664H226.127C226.145 151.393 226.357 151.983 226.763 152.435C227.173 152.881 227.692 153.104 228.321 153.104C228.768 153.104 229.146 153.013 229.456 152.831C229.766 152.649 230.037 152.407 230.27 152.106L231.042 152.708C230.422 153.66 229.493 154.137 228.253 154.137ZM228.096 147.506C227.585 147.506 227.157 147.693 226.811 148.066C226.464 148.436 226.25 148.955 226.168 149.625H229.873V149.529C229.837 148.887 229.663 148.39 229.354 148.039C229.044 147.684 228.624 147.506 228.096 147.506ZM232.566 153.337C232.566 153.118 232.63 152.936 232.758 152.79C232.89 152.644 233.086 152.571 233.346 152.571C233.605 152.571 233.801 152.644 233.934 152.79C234.07 152.936 234.139 153.118 234.139 153.337C234.139 153.547 234.07 153.722 233.934 153.863C233.801 154.005 233.605 154.075 233.346 154.075C233.086 154.075 232.89 154.005 232.758 153.863C232.63 153.722 232.566 153.547 232.566 153.337ZM232.573 147.301C232.573 147.082 232.637 146.9 232.765 146.754C232.897 146.608 233.093 146.535 233.353 146.535C233.612 146.535 233.808 146.608 233.94 146.754C234.077 146.9 234.146 147.082 234.146 147.301C234.146 147.51 234.077 147.686 233.94 147.827C233.808 147.968 233.612 148.039 233.353 148.039C233.093 148.039 232.897 147.968 232.765 147.827C232.637 147.686 232.573 147.51 232.573 147.301ZM242.602 149.563C241.476 149.24 240.656 148.843 240.141 148.374C239.63 147.9 239.375 147.317 239.375 146.624C239.375 145.84 239.687 145.193 240.312 144.683C240.94 144.168 241.756 143.91 242.759 143.91C243.442 143.91 244.051 144.042 244.584 144.307C245.122 144.571 245.536 144.936 245.828 145.4C246.124 145.865 246.272 146.373 246.272 146.925H244.953C244.953 146.323 244.762 145.852 244.379 145.51C243.996 145.163 243.456 144.99 242.759 144.99C242.112 144.99 241.606 145.134 241.241 145.421C240.881 145.703 240.701 146.098 240.701 146.604C240.701 147.009 240.872 147.353 241.214 147.636C241.56 147.914 242.146 148.169 242.971 148.401C243.8 148.634 244.447 148.891 244.912 149.174C245.382 149.452 245.728 149.778 245.951 150.151C246.179 150.525 246.293 150.965 246.293 151.471C246.293 152.277 245.979 152.924 245.35 153.412C244.721 153.895 243.88 154.137 242.827 154.137C242.144 154.137 241.506 154.007 240.913 153.747C240.321 153.483 239.863 153.123 239.539 152.667C239.22 152.211 239.061 151.694 239.061 151.115H240.38C240.38 151.717 240.601 152.193 241.043 152.544C241.49 152.89 242.084 153.063 242.827 153.063C243.52 153.063 244.051 152.922 244.42 152.64C244.789 152.357 244.974 151.972 244.974 151.484C244.974 150.997 244.803 150.621 244.461 150.356C244.119 150.088 243.499 149.823 242.602 149.563ZM252.35 153.269C251.857 153.847 251.135 154.137 250.183 154.137C249.394 154.137 248.793 153.909 248.378 153.453C247.968 152.993 247.76 152.314 247.756 151.416V146.604H249.021V151.382C249.021 152.503 249.476 153.063 250.388 153.063C251.354 153.063 251.996 152.703 252.315 151.983V146.604H253.58V154H252.377L252.35 153.269ZM261.756 150.384C261.756 151.509 261.498 152.416 260.983 153.104C260.468 153.793 259.771 154.137 258.892 154.137C257.994 154.137 257.287 153.852 256.772 153.282V156.844H255.508V146.604H256.663L256.725 147.424C257.24 146.786 257.955 146.467 258.871 146.467C259.76 146.467 260.462 146.802 260.977 147.472C261.496 148.142 261.756 149.074 261.756 150.268V150.384ZM260.491 150.24C260.491 149.406 260.313 148.748 259.958 148.265C259.603 147.782 259.115 147.54 258.495 147.54C257.729 147.54 257.155 147.88 256.772 148.559V152.093C257.151 152.767 257.729 153.104 258.509 153.104C259.115 153.104 259.596 152.865 259.951 152.387C260.311 151.904 260.491 151.188 260.491 150.24ZM266.438 154.137C265.436 154.137 264.62 153.809 263.991 153.152C263.362 152.492 263.048 151.61 263.048 150.507V150.274C263.048 149.541 263.187 148.887 263.465 148.312C263.747 147.734 264.139 147.283 264.641 146.959C265.146 146.631 265.693 146.467 266.281 146.467C267.243 146.467 267.99 146.784 268.523 147.417C269.057 148.05 269.323 148.957 269.323 150.138V150.664H264.312C264.331 151.393 264.543 151.983 264.948 152.435C265.358 152.881 265.878 153.104 266.507 153.104C266.953 153.104 267.332 153.013 267.642 152.831C267.951 152.649 268.223 152.407 268.455 152.106L269.228 152.708C268.608 153.66 267.678 154.137 266.438 154.137ZM266.281 147.506C265.771 147.506 265.342 147.693 264.996 148.066C264.65 148.436 264.436 148.955 264.354 149.625H268.059V149.529C268.022 148.887 267.849 148.39 267.539 148.039C267.229 147.684 266.81 147.506 266.281 147.506ZM274.368 147.738C274.177 147.706 273.969 147.69 273.746 147.69C272.917 147.69 272.354 148.044 272.058 148.75V154H270.793V146.604H272.023L272.044 147.458C272.459 146.797 273.047 146.467 273.808 146.467C274.054 146.467 274.241 146.499 274.368 146.562V147.738ZM277.048 150.104V154H275.735V144.047H279.406C280.495 144.047 281.348 144.325 281.963 144.881C282.583 145.437 282.893 146.173 282.893 147.089C282.893 148.055 282.59 148.8 281.983 149.324C281.382 149.844 280.518 150.104 279.393 150.104H277.048ZM277.048 149.03H279.406C280.108 149.03 280.646 148.866 281.02 148.538C281.393 148.205 281.58 147.727 281.58 147.103C281.58 146.51 281.393 146.036 281.02 145.681C280.646 145.325 280.133 145.141 279.481 145.127H277.048V149.03ZM285.743 154H284.479V143.5H285.743V154ZM292.34 153.269C291.848 153.847 291.125 154.137 290.173 154.137C289.384 154.137 288.783 153.909 288.368 153.453C287.958 152.993 287.751 152.314 287.746 151.416V146.604H289.011V151.382C289.011 152.503 289.466 153.063 290.378 153.063C291.344 153.063 291.987 152.703 292.306 151.983V146.604H293.57V154H292.367L292.34 153.269ZM295.197 150.24C295.197 149.087 295.464 148.171 295.997 147.492C296.53 146.809 297.237 146.467 298.116 146.467C299.019 146.467 299.723 146.786 300.229 147.424L300.29 146.604H301.445V153.822C301.445 154.779 301.16 155.534 300.591 156.085C300.026 156.636 299.265 156.912 298.308 156.912C297.774 156.912 297.253 156.798 296.742 156.57C296.232 156.342 295.842 156.03 295.573 155.634L296.229 154.875C296.772 155.545 297.435 155.88 298.219 155.88C298.834 155.88 299.312 155.707 299.654 155.36C300.001 155.014 300.174 154.526 300.174 153.897V153.262C299.668 153.845 298.978 154.137 298.103 154.137C297.237 154.137 296.535 153.788 295.997 153.091C295.464 152.394 295.197 151.443 295.197 150.24ZM296.469 150.384C296.469 151.218 296.64 151.874 296.981 152.353C297.323 152.826 297.802 153.063 298.417 153.063C299.215 153.063 299.8 152.701 300.174 151.977V148.6C299.786 147.893 299.205 147.54 298.431 147.54C297.815 147.54 297.335 147.779 296.988 148.258C296.642 148.736 296.469 149.445 296.469 150.384ZM304.733 154H303.469V146.604H304.733V154ZM303.366 144.642C303.366 144.437 303.428 144.263 303.551 144.122C303.678 143.981 303.865 143.91 304.111 143.91C304.357 143.91 304.544 143.981 304.672 144.122C304.799 144.263 304.863 144.437 304.863 144.642C304.863 144.847 304.799 145.018 304.672 145.154C304.544 145.291 304.357 145.359 304.111 145.359C303.865 145.359 303.678 145.291 303.551 145.154C303.428 145.018 303.366 144.847 303.366 144.642ZM307.96 146.604L308.001 147.533C308.566 146.822 309.304 146.467 310.216 146.467C311.779 146.467 312.567 147.349 312.581 149.112V154H311.316V149.105C311.312 148.572 311.189 148.178 310.947 147.923C310.71 147.668 310.339 147.54 309.833 147.54C309.423 147.54 309.063 147.649 308.753 147.868C308.443 148.087 308.201 148.374 308.028 148.729V154H306.764V146.604H307.96Z" fill="black"/>
<path d="M167 142V148H172L171 144L175 145V140H169C167.9 140 167 140.9 167 142ZM172 150H167V156C167 157.1 167.9 158 169 158H175V153L171 154L172 150ZM181 154L177 153V158H183C184.1 158 185 157.1 185 156V150H180L181 154ZM183 140H177V145L181 144L180 148H185V142C185 140.9 184.1 140 183 140Z" fill="black"/>
<path d="M20.5234 41V23.9375H26.5C28.5703 23.9375 30.1406 24.3359 31.2109 25.1328C32.2812 25.9219 32.8164 27.082 32.8164 28.6133C32.8164 29.4492 32.6016 30.1875 32.1719 30.8281C31.7422 31.4609 31.1445 31.9258 30.3789 32.2227C31.2539 32.4414 31.9414 32.8828 32.4414 33.5469C32.9492 34.2109 33.2031 35.0234 33.2031 35.9844C33.2031 37.625 32.6797 38.8672 31.6328 39.7109C30.5859 40.5547 29.0938 40.9844 27.1562 41H20.5234ZM24.0391 33.5703V38.1758H27.0508C27.8789 38.1758 28.5234 37.9805 28.9844 37.5898C29.4531 37.1914 29.6875 36.6445 29.6875 35.9492C29.6875 34.3867 28.8789 33.5938 27.2617 33.5703H24.0391ZM24.0391 31.0859H26.6406C28.4141 31.0547 29.3008 30.3477 29.3008 28.9648C29.3008 28.1914 29.0742 27.6367 28.6211 27.3008C28.1758 26.957 27.4688 26.7852 26.5 26.7852H24.0391V31.0859ZM41.4648 41.2344C39.6055 41.2344 38.0898 40.6641 36.918 39.5234C35.7539 38.3828 35.1719 36.8633 35.1719 34.9648V34.6367C35.1719 33.3633 35.418 32.2266 35.9102 31.2266C36.4023 30.2188 37.0977 29.4453 37.9961 28.9062C38.9023 28.3594 39.9336 28.0859 41.0898 28.0859C42.8242 28.0859 44.1875 28.6328 45.1797 29.7266C46.1797 30.8203 46.6797 32.3711 46.6797 34.3789V35.7617H38.6055C38.7148 36.5898 39.043 37.2539 39.5898 37.7539C40.1445 38.2539 40.8438 38.5039 41.6875 38.5039C42.9922 38.5039 44.0117 38.0312 44.7461 37.0859L46.4102 38.9492C45.9023 39.668 45.2148 40.2305 44.3477 40.6367C43.4805 41.0352 42.5195 41.2344 41.4648 41.2344ZM41.0781 30.8281C40.4062 30.8281 39.8594 31.0547 39.4375 31.5078C39.0234 31.9609 38.7578 32.6094 38.6406 33.4531H43.3516V33.1836C43.3359 32.4336 43.1328 31.8555 42.7422 31.4492C42.3516 31.0352 41.7969 30.8281 41.0781 30.8281ZM55.4805 37.4961C55.4805 37.082 55.2734 36.7578 54.8594 36.5234C54.4531 36.2812 53.7969 36.0664 52.8906 35.8789C49.875 35.2461 48.3672 33.9648 48.3672 32.0352C48.3672 30.9102 48.832 29.9727 49.7617 29.2227C50.6992 28.4648 51.9219 28.0859 53.4297 28.0859C55.0391 28.0859 56.3242 28.4648 57.2852 29.2227C58.2539 29.9805 58.7383 30.9648 58.7383 32.1758H55.3516C55.3516 31.6914 55.1953 31.293 54.8828 30.9805C54.5703 30.6602 54.082 30.5 53.418 30.5C52.8477 30.5 52.4062 30.6289 52.0938 30.8867C51.7812 31.1445 51.625 31.4727 51.625 31.8711C51.625 32.2461 51.8008 32.5508 52.1523 32.7852C52.5117 33.0117 53.1133 33.2109 53.957 33.3828C54.8008 33.5469 55.5117 33.7344 56.0898 33.9453C57.8789 34.6016 58.7734 35.7383 58.7734 37.3555C58.7734 38.5117 58.2773 39.4492 57.2852 40.168C56.293 40.8789 55.0117 41.2344 53.4414 41.2344C52.3789 41.2344 51.4336 41.0469 50.6055 40.6719C49.7852 40.2891 49.1406 39.7695 48.6719 39.1133C48.2031 38.4492 47.9688 37.7344 47.9688 36.9688H51.1797C51.2109 37.5703 51.4336 38.0312 51.8477 38.3516C52.2617 38.6719 52.8164 38.832 53.5117 38.832C54.1602 38.832 54.6484 38.7109 54.9766 38.4688C55.3125 38.2188 55.4805 37.8945 55.4805 37.4961ZM72.3789 34.7773C72.3789 36.7305 71.9336 38.2969 71.043 39.4766C70.1602 40.6484 68.9648 41.2344 67.457 41.2344C66.1758 41.2344 65.1406 40.7891 64.3516 39.8984V45.875H60.9648V28.3203H64.1055L64.2227 29.5625C65.043 28.5781 66.1133 28.0859 67.4336 28.0859C68.9961 28.0859 70.2109 28.6641 71.0781 29.8203C71.9453 30.9766 72.3789 32.5703 72.3789 34.6016V34.7773ZM68.9922 34.5312C68.9922 33.3516 68.7812 32.4414 68.3594 31.8008C67.9453 31.1602 67.3398 30.8398 66.543 30.8398C65.4805 30.8398 64.75 31.2461 64.3516 32.0586V37.25C64.7656 38.0859 65.5039 38.5039 66.5664 38.5039C68.1836 38.5039 68.9922 37.1797 68.9922 34.5312ZM73.9609 34.543C73.9609 33.2852 74.2031 32.1641 74.6875 31.1797C75.1719 30.1953 75.8672 29.4336 76.7734 28.8945C77.6875 28.3555 78.7461 28.0859 79.9492 28.0859C81.6602 28.0859 83.0547 28.6094 84.1328 29.6562C85.2188 30.7031 85.8242 32.125 85.9492 33.9219L85.9727 34.7891C85.9727 36.7344 85.4297 38.2969 84.3438 39.4766C83.2578 40.6484 81.8008 41.2344 79.9727 41.2344C78.1445 41.2344 76.6836 40.6484 75.5898 39.4766C74.5039 38.3047 73.9609 36.7109 73.9609 34.6953V34.543ZM77.3477 34.7891C77.3477 35.9922 77.5742 36.9141 78.0273 37.5547C78.4805 38.1875 79.1289 38.5039 79.9727 38.5039C80.793 38.5039 81.4336 38.1914 81.8945 37.5664C82.3555 36.9336 82.5859 35.9258 82.5859 34.543C82.5859 33.3633 82.3555 32.4492 81.8945 31.8008C81.4336 31.1523 80.7852 30.8281 79.9492 30.8281C79.1211 30.8281 78.4805 31.1523 78.0273 31.8008C77.5742 32.4414 77.3477 33.4375 77.3477 34.7891ZM92.6641 35.9141L91.4453 37.1328V41H88.0586V23H91.4453V32.9727L92.1016 32.1289L95.3477 28.3203H99.4141L94.832 33.6055L99.8125 41H95.9219L92.6641 35.9141ZM106.48 41.2344C104.621 41.2344 103.105 40.6641 101.934 39.5234C100.77 38.3828 100.188 36.8633 100.188 34.9648V34.6367C100.188 33.3633 100.434 32.2266 100.926 31.2266C101.418 30.2188 102.113 29.4453 103.012 28.9062C103.918 28.3594 104.949 28.0859 106.105 28.0859C107.84 28.0859 109.203 28.6328 110.195 29.7266C111.195 30.8203 111.695 32.3711 111.695 34.3789V35.7617H103.621C103.73 36.5898 104.059 37.2539 104.605 37.7539C105.16 38.2539 105.859 38.5039 106.703 38.5039C108.008 38.5039 109.027 38.0312 109.762 37.0859L111.426 38.9492C110.918 39.668 110.23 40.2305 109.363 40.6367C108.496 41.0352 107.535 41.2344 106.48 41.2344ZM106.094 30.8281C105.422 30.8281 104.875 31.0547 104.453 31.5078C104.039 31.9609 103.773 32.6094 103.656 33.4531H108.367V33.1836C108.352 32.4336 108.148 31.8555 107.758 31.4492C107.367 31.0352 106.812 30.8281 106.094 30.8281ZM123.18 41H119.781V28.3203H123.18V41ZM119.582 25.0391C119.582 24.5312 119.75 24.1133 120.086 23.7852C120.43 23.457 120.895 23.293 121.48 23.293C122.059 23.293 122.52 23.457 122.863 23.7852C123.207 24.1133 123.379 24.5312 123.379 25.0391C123.379 25.5547 123.203 25.9766 122.852 26.3047C122.508 26.6328 122.051 26.7969 121.48 26.7969C120.91 26.7969 120.449 26.6328 120.098 26.3047C119.754 25.9766 119.582 25.5547 119.582 25.0391ZM129.098 28.3203L129.203 29.7852C130.109 28.6523 131.324 28.0859 132.848 28.0859C134.191 28.0859 135.191 28.4805 135.848 29.2695C136.504 30.0586 136.84 31.2383 136.855 32.8086V41H133.469V32.8906C133.469 32.1719 133.312 31.6523 133 31.332C132.688 31.0039 132.168 30.8398 131.441 30.8398C130.488 30.8398 129.773 31.2461 129.297 32.0586V41H125.91V28.3203H129.098ZM143.488 25.2031V28.3203H145.656V30.8047H143.488V37.1328C143.488 37.6016 143.578 37.9375 143.758 38.1406C143.938 38.3438 144.281 38.4453 144.789 38.4453C145.164 38.4453 145.496 38.418 145.785 38.3633V40.9297C145.121 41.1328 144.438 41.2344 143.734 41.2344C141.359 41.2344 140.148 40.0352 140.102 37.6367V30.8047H138.25V28.3203H140.102V25.2031H143.488ZM153.379 41.2344C151.52 41.2344 150.004 40.6641 148.832 39.5234C147.668 38.3828 147.086 36.8633 147.086 34.9648V34.6367C147.086 33.3633 147.332 32.2266 147.824 31.2266C148.316 30.2188 149.012 29.4453 149.91 28.9062C150.816 28.3594 151.848 28.0859 153.004 28.0859C154.738 28.0859 156.102 28.6328 157.094 29.7266C158.094 30.8203 158.594 32.3711 158.594 34.3789V35.7617H150.52C150.629 36.5898 150.957 37.2539 151.504 37.7539C152.059 38.2539 152.758 38.5039 153.602 38.5039C154.906 38.5039 155.926 38.0312 156.66 37.0859L158.324 38.9492C157.816 39.668 157.129 40.2305 156.262 40.6367C155.395 41.0352 154.434 41.2344 153.379 41.2344ZM152.992 30.8281C152.32 30.8281 151.773 31.0547 151.352 31.5078C150.938 31.9609 150.672 32.6094 150.555 33.4531H155.266V33.1836C155.25 32.4336 155.047 31.8555 154.656 31.4492C154.266 31.0352 153.711 30.8281 152.992 30.8281ZM167.652 31.4961C167.191 31.4336 166.785 31.4023 166.434 31.4023C165.152 31.4023 164.312 31.8359 163.914 32.7031V41H160.527V28.3203H163.727L163.82 29.832C164.5 28.668 165.441 28.0859 166.645 28.0859C167.02 28.0859 167.371 28.1367 167.699 28.2383L167.652 31.4961ZM172.41 28.3203L172.516 29.7852C173.422 28.6523 174.637 28.0859 176.16 28.0859C177.504 28.0859 178.504 28.4805 179.16 29.2695C179.816 30.0586 180.152 31.2383 180.168 32.8086V41H176.781V32.8906C176.781 32.1719 176.625 31.6523 176.312 31.332C176 31.0039 175.48 30.8398 174.754 30.8398C173.801 30.8398 173.086 31.2461 172.609 32.0586V41H169.223V28.3203H172.41ZM190.094 41C189.938 40.6953 189.824 40.3164 189.754 39.8633C188.934 40.7773 187.867 41.2344 186.555 41.2344C185.312 41.2344 184.281 40.875 183.461 40.1562C182.648 39.4375 182.242 38.5312 182.242 37.4375C182.242 36.0938 182.738 35.0625 183.73 34.3438C184.73 33.625 186.172 33.2617 188.055 33.2539H189.613V32.5273C189.613 31.9414 189.461 31.4727 189.156 31.1211C188.859 30.7695 188.387 30.5938 187.738 30.5938C187.168 30.5938 186.719 30.7305 186.391 31.0039C186.07 31.2773 185.91 31.6523 185.91 32.1289H182.523C182.523 31.3945 182.75 30.7148 183.203 30.0898C183.656 29.4648 184.297 28.9766 185.125 28.625C185.953 28.2656 186.883 28.0859 187.914 28.0859C189.477 28.0859 190.715 28.4805 191.629 29.2695C192.551 30.0508 193.012 31.1523 193.012 32.5742V38.0703C193.02 39.2734 193.188 40.1836 193.516 40.8008V41H190.094ZM187.293 38.6445C187.793 38.6445 188.254 38.5352 188.676 38.3164C189.098 38.0898 189.41 37.7891 189.613 37.4141V35.2344H188.348C186.652 35.2344 185.75 35.8203 185.641 36.9922L185.629 37.1914C185.629 37.6133 185.777 37.9609 186.074 38.2344C186.371 38.5078 186.777 38.6445 187.293 38.6445ZM199.188 41H195.789V23H199.188V41ZM219.379 34.7773C219.379 36.7305 218.934 38.2969 218.043 39.4766C217.16 40.6484 215.965 41.2344 214.457 41.2344C213.176 41.2344 212.141 40.7891 211.352 39.8984V45.875H207.965V28.3203H211.105L211.223 29.5625C212.043 28.5781 213.113 28.0859 214.434 28.0859C215.996 28.0859 217.211 28.6641 218.078 29.8203C218.945 30.9766 219.379 32.5703 219.379 34.6016V34.7773ZM215.992 34.5312C215.992 33.3516 215.781 32.4414 215.359 31.8008C214.945 31.1602 214.34 30.8398 213.543 30.8398C212.48 30.8398 211.75 31.2461 211.352 32.0586V37.25C211.766 38.0859 212.504 38.5039 213.566 38.5039C215.184 38.5039 215.992 37.1797 215.992 34.5312ZM225.062 41H221.664V23H225.062V41ZM235.457 39.7109C234.621 40.7266 233.465 41.2344 231.988 41.2344C230.629 41.2344 229.59 40.8438 228.871 40.0625C228.16 39.2812 227.797 38.1367 227.781 36.6289V28.3203H231.168V36.5117C231.168 37.832 231.77 38.4922 232.973 38.4922C234.121 38.4922 234.91 38.0938 235.34 37.2969V28.3203H238.738V41H235.551L235.457 39.7109ZM240.801 34.5664C240.801 32.6211 241.262 31.0547 242.184 29.8672C243.113 28.6797 244.363 28.0859 245.934 28.0859C247.324 28.0859 248.406 28.5625 249.18 29.5156L249.32 28.3203H252.391V40.5781C252.391 41.6875 252.137 42.6523 251.629 43.4727C251.129 44.293 250.422 44.918 249.508 45.3477C248.594 45.7773 247.523 45.9922 246.297 45.9922C245.367 45.9922 244.461 45.8047 243.578 45.4297C242.695 45.0625 242.027 44.5859 241.574 44L243.074 41.9375C243.918 42.8828 244.941 43.3555 246.145 43.3555C247.043 43.3555 247.742 43.1133 248.242 42.6289C248.742 42.1523 248.992 41.4727 248.992 40.5898V39.9102C248.211 40.793 247.184 41.2344 245.91 41.2344C244.387 41.2344 243.152 40.6406 242.207 39.4531C241.27 38.2578 240.801 36.6758 240.801 34.707V34.5664ZM244.188 34.8125C244.188 35.9609 244.418 36.8633 244.879 37.5195C245.34 38.168 245.973 38.4922 246.777 38.4922C247.809 38.4922 248.547 38.1055 248.992 37.332V32C248.539 31.2266 247.809 30.8398 246.801 30.8398C245.988 30.8398 245.348 31.1719 244.879 31.8359C244.418 32.5 244.188 33.4922 244.188 34.8125ZM258.578 41H255.18V28.3203H258.578V41ZM254.98 25.0391C254.98 24.5312 255.148 24.1133 255.484 23.7852C255.828 23.457 256.293 23.293 256.879 23.293C257.457 23.293 257.918 23.457 258.262 23.7852C258.605 24.1133 258.777 24.5312 258.777 25.0391C258.777 25.5547 258.602 25.9766 258.25 26.3047C257.906 26.6328 257.449 26.7969 256.879 26.7969C256.309 26.7969 255.848 26.6328 255.496 26.3047C255.152 25.9766 254.98 25.5547 254.98 25.0391ZM264.496 28.3203L264.602 29.7852C265.508 28.6523 266.723 28.0859 268.246 28.0859C269.59 28.0859 270.59 28.4805 271.246 29.2695C271.902 30.0586 272.238 31.2383 272.254 32.8086V41H268.867V32.8906C268.867 32.1719 268.711 31.6523 268.398 31.332C268.086 31.0039 267.566 30.8398 266.84 30.8398C265.887 30.8398 265.172 31.2461 264.695 32.0586V41H261.309V28.3203H264.496Z" fill="black"/>
<g filter="url(#filter1_d)">
<circle cx="358.5" cy="252.5" r="36.5" fill="#2E77D0"/>
</g>
<path d="M374 255.286H360.286V269H355.714V255.286H342V250.714H355.714V237H360.286V250.714H374V255.286Z" fill="white"/>
</g>
<defs>
<filter id="filter0_d" x="-4" y="-3" width="422" height="256" filterUnits="userSpaceOnUse" color-interpolation-filters="sRGB">
<feFlood flood-opacity="0" result="BackgroundImageFix"/>
<feColorMatrix in="SourceAlpha" type="matrix" values="0 0 0 0 0 0 0 0 0 0 0 0 0 0 0 0 0 0 127 0"/>
<feOffset dy="1"/>
<feGaussianBlur stdDeviation="2"/>
<feColorMatrix type="matrix" values="0 0 0 0 0 0 0 0 0 0 0 0 0 0 0 0 0 0 0.25 0"/>
<feBlend mode="normal" in2="BackgroundImageFix" result="effect1_dropShadow"/>
<feBlend mode="normal" in="SourceGraphic" in2="effect1_dropShadow" result="shape"/>
</filter>
<filter id="filter1_d" x="320" y="213" width="81" height="81" filterUnits="userSpaceOnUse" color-interpolation-filters="sRGB">
<feFlood flood-opacity="0" result="BackgroundImageFix"/>
<feColorMatrix in="SourceAlpha" type="matrix" values="0 0 0 0 0 0 0 0 0 0 0 0 0 0 0 0 0 0 127 0"/>
<feOffset dx="2" dy="1"/>
<feGaussianBlur stdDeviation="2"/>
<feColorMatrix type="matrix" values="0 0 0 0 0 0 0 0 0 0 0 0 0 0 0 0 0 0 0.25 0"/>
<feBlend mode="normal" in2="BackgroundImageFix" result="effect1_dropShadow"/>
<feBlend mode="normal" in="SourceGraphic" in2="effect1_dropShadow" result="shape"/>
</filter>
<clipPath id="clip0">
<rect width="422" height="294" fill="white"/>
</clipPath>
</defs>
</svg>
