<svg width="422" height="294" viewBox="0 0 422 294" fill="none" xmlns="http://www.w3.org/2000/svg">
<g clip-path="url(#clip0_211:2)">
<g filter="url(#filter0_d_211:2)">
<path d="M140.737 0L210.863 40.1758V120.528L140.737 160.703L70.6112 120.528V40.1758L140.737 0Z" fill="white"/>
<path d="M71.1112 40.4656L140.737 0.576241L210.363 40.4656V120.238L140.737 160.127L71.1112 120.238V40.4656Z" stroke="#222222"/>
</g>
<path d="M120.933 80.112V84.0085H119.62V74.0554H123.291C124.38 74.0554 125.233 74.3334 125.848 74.8893C126.468 75.4453 126.778 76.1813 126.778 77.0974C126.778 78.0635 126.474 78.8086 125.868 79.3327C125.267 79.8522 124.403 80.112 123.278 80.112H120.933ZM120.933 79.0388H123.291C123.993 79.0388 124.531 78.8747 124.904 78.5466C125.278 78.2139 125.465 77.7354 125.465 77.111C125.465 76.5186 125.278 76.0446 124.904 75.6891C124.531 75.3337 124.018 75.1491 123.366 75.1354H120.933V79.0388ZM131.829 77.7468C131.638 77.7149 131.43 77.6989 131.207 77.6989C130.378 77.6989 129.815 78.0521 129.519 78.7585V84.0085H128.254V76.612H129.485L129.505 77.4665C129.92 76.8057 130.508 76.4753 131.269 76.4753C131.515 76.4753 131.702 76.5072 131.829 76.571V77.7468ZM134.372 84.0085H133.108V76.612H134.372V84.0085ZM133.005 74.6501C133.005 74.445 133.067 74.2718 133.19 74.1306C133.317 73.9893 133.504 73.9186 133.75 73.9186C133.996 73.9186 134.183 73.9893 134.311 74.1306C134.438 74.2718 134.502 74.445 134.502 74.6501C134.502 74.8552 134.438 75.0261 134.311 75.1628C134.183 75.2995 133.996 75.3679 133.75 75.3679C133.504 75.3679 133.317 75.2995 133.19 75.1628C133.067 75.0261 133.005 74.8552 133.005 74.6501ZM139.369 83.113C139.82 83.113 140.215 82.9763 140.552 82.7028C140.889 82.4294 141.076 82.0876 141.112 81.6774H142.309C142.286 82.1013 142.14 82.5046 141.871 82.8874C141.602 83.2702 141.242 83.5755 140.791 83.8034C140.345 84.0313 139.871 84.1452 139.369 84.1452C138.362 84.1452 137.56 83.8102 136.963 83.1403C136.371 82.4658 136.074 81.5453 136.074 80.3786V80.1667C136.074 79.4466 136.207 78.8063 136.471 78.2458C136.735 77.6852 137.113 77.25 137.606 76.9401C138.102 76.6302 138.688 76.4753 139.362 76.4753C140.192 76.4753 140.88 76.7237 141.427 77.2204C141.978 77.7171 142.272 78.362 142.309 79.155H141.112C141.076 78.6765 140.894 78.2845 140.566 77.9792C140.242 77.6693 139.841 77.5143 139.362 77.5143C138.72 77.5143 138.221 77.7468 137.865 78.2116C137.514 78.6719 137.339 79.3395 137.339 80.2145V80.4538C137.339 81.306 137.514 81.9623 137.865 82.4225C138.216 82.8828 138.718 83.113 139.369 83.113ZM145.105 84.0085H143.84V76.612H145.105V84.0085ZM143.737 74.6501C143.737 74.445 143.799 74.2718 143.922 74.1306C144.05 73.9893 144.236 73.9186 144.483 73.9186C144.729 73.9186 144.916 73.9893 145.043 74.1306C145.171 74.2718 145.235 74.445 145.235 74.6501C145.235 74.8552 145.171 75.0261 145.043 75.1628C144.916 75.2995 144.729 75.3679 144.483 75.3679C144.236 75.3679 144.05 75.2995 143.922 75.1628C143.799 75.0261 143.737 74.8552 143.737 74.6501ZM148.331 76.612L148.372 77.5417C148.937 76.8307 149.676 76.4753 150.587 76.4753C152.15 76.4753 152.939 77.3571 152.952 79.1208V84.0085H151.688V79.114C151.683 78.5807 151.56 78.1865 151.319 77.9313C151.082 77.6761 150.71 77.5485 150.204 77.5485C149.794 77.5485 149.434 77.6579 149.124 77.8766C148.814 78.0954 148.573 78.3825 148.4 78.738V84.0085H147.135V76.612H148.331ZM154.559 80.2487C154.559 79.0957 154.825 78.1797 155.359 77.5007C155.892 76.8171 156.598 76.4753 157.478 76.4753C158.38 76.4753 159.084 76.7943 159.59 77.4323L159.652 76.612H160.807V83.8307C160.807 84.7878 160.522 85.542 159.952 86.0934C159.387 86.6449 158.626 86.9206 157.669 86.9206C157.136 86.9206 156.614 86.8067 156.104 86.5788C155.593 86.3509 155.204 86.0388 154.935 85.6423L155.591 84.8835C156.133 85.5534 156.796 85.8884 157.58 85.8884C158.195 85.8884 158.674 85.7152 159.016 85.3688C159.362 85.0225 159.535 84.5349 159.535 83.9059V83.2702C159.029 83.8535 158.339 84.1452 157.464 84.1452C156.598 84.1452 155.896 83.7966 155.359 83.0993C154.825 82.402 154.559 81.4518 154.559 80.2487ZM155.83 80.3923C155.83 81.2263 156.001 81.8825 156.343 82.361C156.685 82.835 157.163 83.072 157.778 83.072C158.576 83.072 159.162 82.7097 159.535 81.985V78.6081C159.148 77.9017 158.567 77.5485 157.792 77.5485C157.177 77.5485 156.696 77.7878 156.35 78.2663C156.003 78.7448 155.83 79.4535 155.83 80.3923Z" fill="black"/>
<g filter="url(#filter1_d_211:2)">
<path d="M280.263 0L350.389 40.1758V120.528L280.263 160.703L210.137 120.528V40.1758L280.263 0Z" fill="white"/>
<path d="M210.637 40.4656L280.263 0.576241L349.889 40.4656V120.238L280.263 160.127L210.637 120.238V40.4656Z" stroke="#222222"/>
</g>
<path d="M265.681 81.4108H261.511L260.574 84.0085H259.221L263.022 74.0554H264.17L267.978 84.0085H266.631L265.681 81.4108ZM261.907 80.3307H265.291L263.596 75.6755L261.907 80.3307ZM272.695 77.7468C272.503 77.7149 272.296 77.6989 272.072 77.6989C271.243 77.6989 270.68 78.0521 270.384 78.7585V84.0085H269.119V76.612H270.35L270.37 77.4665C270.785 76.8057 271.373 76.4753 272.134 76.4753C272.38 76.4753 272.567 76.5072 272.695 76.571V77.7468ZM275.921 74.821V76.612H277.302V77.5895H275.921V82.1765C275.921 82.4727 275.983 82.696 276.106 82.8464C276.229 82.9922 276.438 83.0651 276.735 83.0651C276.88 83.0651 277.081 83.0378 277.336 82.9831V84.0085C277.003 84.0996 276.68 84.1452 276.365 84.1452C275.8 84.1452 275.374 83.9743 275.087 83.6325C274.8 83.2907 274.656 82.8054 274.656 82.1765V77.5895H273.31V76.612H274.656V74.821H275.921ZM280.159 84.0085H278.895V76.612H280.159V84.0085ZM278.792 74.6501C278.792 74.445 278.854 74.2718 278.977 74.1306C279.104 73.9893 279.291 73.9186 279.537 73.9186C279.783 73.9186 279.97 73.9893 280.098 74.1306C280.225 74.2718 280.289 74.445 280.289 74.6501C280.289 74.8552 280.225 75.0261 280.098 75.1628C279.97 75.2995 279.783 75.3679 279.537 75.3679C279.291 75.3679 279.104 75.2995 278.977 75.1628C278.854 75.0261 278.792 74.8552 278.792 74.6501ZM286.496 82.0466C286.496 81.7048 286.366 81.4405 286.107 81.2536C285.851 81.0622 285.403 80.8981 284.76 80.7614C284.122 80.6247 283.614 80.4606 283.236 80.2692C282.862 80.0778 282.584 79.85 282.402 79.5856C282.224 79.3213 282.135 79.0069 282.135 78.6423C282.135 78.0362 282.39 77.5235 282.901 77.1042C283.416 76.6849 284.072 76.4753 284.869 76.4753C285.708 76.4753 286.387 76.6918 286.906 77.1247C287.431 77.5576 287.693 78.1113 287.693 78.7858H286.421C286.421 78.4395 286.273 78.141 285.977 77.8903C285.685 77.6397 285.316 77.5143 284.869 77.5143C284.409 77.5143 284.049 77.6146 283.789 77.8151C283.529 78.0156 283.4 78.2777 283.4 78.6013C283.4 78.9066 283.52 79.1367 283.762 79.2917C284.003 79.4466 284.439 79.5947 285.068 79.736C285.701 79.8773 286.214 80.0459 286.606 80.2419C286.998 80.4378 287.287 80.6748 287.474 80.9528C287.665 81.2263 287.761 81.5612 287.761 81.9577C287.761 82.6185 287.497 83.1494 286.968 83.5505C286.439 83.947 285.753 84.1452 284.91 84.1452C284.318 84.1452 283.794 84.0404 283.338 83.8307C282.882 83.6211 282.525 83.3294 282.265 82.9557C282.01 82.5775 281.882 82.1696 281.882 81.7321H283.147C283.169 82.1559 283.338 82.4932 283.653 82.7438C283.972 82.9899 284.391 83.113 284.91 83.113C285.389 83.113 285.772 83.0173 286.059 82.8259C286.35 82.6299 286.496 82.3701 286.496 82.0466ZM291.124 74.821V76.612H292.505V77.5895H291.124V82.1765C291.124 82.4727 291.186 82.696 291.309 82.8464C291.432 82.9922 291.641 83.0651 291.938 83.0651C292.084 83.0651 292.284 83.0378 292.539 82.9831V84.0085C292.207 84.0996 291.883 84.1452 291.569 84.1452C291.003 84.1452 290.577 83.9743 290.29 83.6325C290.003 83.2907 289.86 82.8054 289.86 82.1765V77.5895H288.513V76.612H289.86V74.821H291.124ZM298.295 82.0466C298.295 81.7048 298.165 81.4405 297.905 81.2536C297.65 81.0622 297.201 80.8981 296.559 80.7614C295.921 80.6247 295.413 80.4606 295.034 80.2692C294.661 80.0778 294.383 79.85 294.2 79.5856C294.023 79.3213 293.934 79.0069 293.934 78.6423C293.934 78.0362 294.189 77.5235 294.699 77.1042C295.214 76.6849 295.871 76.4753 296.668 76.4753C297.507 76.4753 298.186 76.6918 298.705 77.1247C299.229 77.5576 299.491 78.1113 299.491 78.7858H298.22C298.22 78.4395 298.072 78.141 297.776 77.8903C297.484 77.6397 297.115 77.5143 296.668 77.5143C296.208 77.5143 295.848 77.6146 295.588 77.8151C295.328 78.0156 295.198 78.2777 295.198 78.6013C295.198 78.9066 295.319 79.1367 295.561 79.2917C295.802 79.4466 296.237 79.5947 296.866 79.736C297.5 79.8773 298.013 80.0459 298.404 80.2419C298.796 80.4378 299.086 80.6748 299.273 80.9528C299.464 81.2263 299.56 81.5612 299.56 81.9577C299.56 82.6185 299.295 83.1494 298.767 83.5505C298.238 83.947 297.552 84.1452 296.709 84.1452C296.117 84.1452 295.593 84.0404 295.137 83.8307C294.681 83.6211 294.323 83.3294 294.064 82.9557C293.808 82.5775 293.681 82.1696 293.681 81.7321H294.946C294.968 82.1559 295.137 82.4932 295.451 82.7438C295.77 82.9899 296.19 83.113 296.709 83.113C297.188 83.113 297.571 83.0173 297.858 82.8259C298.149 82.6299 298.295 82.3701 298.295 82.0466Z" fill="black"/>
<g filter="url(#filter2_d_211:2)">
<path d="M210.5 119.593L280.626 159.769V240.121L210.5 280.297L140.374 240.121V159.769L210.5 119.593Z" fill="white"/>
<path d="M140.874 160.059L210.5 120.17L280.126 160.059V239.831L210.5 279.72L140.874 239.831V160.059Z" stroke="#222222"/>
</g>
<path d="M178.166 199.705V203.602H176.854V193.649H180.524C181.614 193.649 182.466 193.927 183.081 194.483C183.701 195.039 184.011 195.775 184.011 196.691C184.011 197.657 183.708 198.402 183.102 198.926C182.5 199.445 181.636 199.705 180.511 199.705H178.166ZM178.166 198.632H180.524C181.226 198.632 181.764 198.468 182.138 198.14C182.511 197.807 182.698 197.329 182.698 196.704C182.698 196.112 182.511 195.638 182.138 195.282C181.764 194.927 181.251 194.742 180.6 194.729H178.166V198.632ZM189.062 197.34C188.871 197.308 188.664 197.292 188.44 197.292C187.611 197.292 187.048 197.645 186.752 198.352V203.602H185.487V196.205H186.718L186.738 197.06C187.153 196.399 187.741 196.069 188.502 196.069C188.748 196.069 188.935 196.1 189.062 196.164V197.34ZM189.76 199.835C189.76 199.111 189.901 198.459 190.184 197.88C190.471 197.301 190.867 196.855 191.373 196.54C191.883 196.226 192.465 196.069 193.116 196.069C194.123 196.069 194.937 196.417 195.557 197.114C196.181 197.812 196.493 198.739 196.493 199.897V199.986C196.493 200.706 196.354 201.353 196.076 201.927C195.803 202.497 195.409 202.941 194.894 203.26C194.383 203.579 193.795 203.738 193.13 203.738C192.127 203.738 191.314 203.39 190.689 202.693C190.07 201.995 189.76 201.072 189.76 199.924V199.835ZM191.031 199.986C191.031 200.806 191.22 201.464 191.599 201.961C191.981 202.458 192.492 202.706 193.13 202.706C193.772 202.706 194.283 202.456 194.661 201.954C195.039 201.448 195.229 200.742 195.229 199.835C195.229 199.024 195.035 198.368 194.647 197.866C194.265 197.361 193.754 197.108 193.116 197.108C192.492 197.108 191.988 197.356 191.605 197.853C191.223 198.349 191.031 199.06 191.031 199.986ZM201.046 202.706C201.497 202.706 201.891 202.57 202.229 202.296C202.566 202.023 202.753 201.681 202.789 201.271H203.985C203.963 201.695 203.817 202.098 203.548 202.481C203.279 202.863 202.919 203.169 202.468 203.397C202.021 203.625 201.547 203.738 201.046 203.738C200.039 203.738 199.237 203.404 198.64 202.734C198.047 202.059 197.751 201.139 197.751 199.972V199.76C197.751 199.04 197.883 198.4 198.147 197.839C198.412 197.279 198.79 196.843 199.282 196.533C199.779 196.223 200.365 196.069 201.039 196.069C201.868 196.069 202.557 196.317 203.104 196.814C203.655 197.31 203.949 197.955 203.985 198.748H202.789C202.753 198.27 202.57 197.878 202.242 197.572C201.919 197.263 201.518 197.108 201.039 197.108C200.396 197.108 199.897 197.34 199.542 197.805C199.191 198.265 199.016 198.933 199.016 199.808V200.047C199.016 200.899 199.191 201.556 199.542 202.016C199.893 202.476 200.394 202.706 201.046 202.706ZM208.477 203.738C207.474 203.738 206.658 203.41 206.029 202.754C205.4 202.093 205.086 201.211 205.086 200.109V199.876C205.086 199.142 205.225 198.488 205.503 197.914C205.785 197.335 206.177 196.884 206.679 196.561C207.185 196.233 207.731 196.069 208.319 196.069C209.281 196.069 210.028 196.385 210.562 197.019C211.095 197.652 211.361 198.559 211.361 199.739V200.266H206.351C206.369 200.995 206.581 201.585 206.986 202.036C207.396 202.483 207.916 202.706 208.545 202.706C208.992 202.706 209.37 202.615 209.68 202.433C209.99 202.251 210.261 202.009 210.493 201.708L211.266 202.31C210.646 203.262 209.716 203.738 208.477 203.738ZM208.319 197.108C207.809 197.108 207.381 197.294 207.034 197.668C206.688 198.037 206.474 198.557 206.392 199.227H210.097V199.131C210.06 198.488 209.887 197.992 209.577 197.641C209.267 197.285 208.848 197.108 208.319 197.108ZM217.138 201.64C217.138 201.298 217.008 201.034 216.748 200.847C216.493 200.655 216.044 200.491 215.401 200.355C214.763 200.218 214.255 200.054 213.877 199.862C213.503 199.671 213.225 199.443 213.043 199.179C212.865 198.915 212.776 198.6 212.776 198.236C212.776 197.629 213.032 197.117 213.542 196.697C214.057 196.278 214.713 196.069 215.511 196.069C216.349 196.069 217.028 196.285 217.548 196.718C218.072 197.151 218.334 197.705 218.334 198.379H217.062C217.062 198.033 216.914 197.734 216.618 197.484C216.326 197.233 215.957 197.108 215.511 197.108C215.05 197.108 214.69 197.208 214.431 197.408C214.171 197.609 214.041 197.871 214.041 198.195C214.041 198.5 214.162 198.73 214.403 198.885C214.645 199.04 215.08 199.188 215.709 199.329C216.342 199.471 216.855 199.639 217.247 199.835C217.639 200.031 217.928 200.268 218.115 200.546C218.307 200.82 218.402 201.154 218.402 201.551C218.402 202.212 218.138 202.743 217.609 203.144C217.081 203.54 216.395 203.738 215.552 203.738C214.959 203.738 214.435 203.634 213.979 203.424C213.524 203.214 213.166 202.923 212.906 202.549C212.651 202.171 212.523 201.763 212.523 201.325H213.788C213.811 201.749 213.979 202.086 214.294 202.337C214.613 202.583 215.032 202.706 215.552 202.706C216.03 202.706 216.413 202.611 216.7 202.419C216.992 202.223 217.138 201.963 217.138 201.64ZM224.356 201.64C224.356 201.298 224.227 201.034 223.967 200.847C223.712 200.655 223.263 200.491 222.62 200.355C221.982 200.218 221.474 200.054 221.096 199.862C220.722 199.671 220.444 199.443 220.262 199.179C220.084 198.915 219.995 198.6 219.995 198.236C219.995 197.629 220.25 197.117 220.761 196.697C221.276 196.278 221.932 196.069 222.729 196.069C223.568 196.069 224.247 196.285 224.767 196.718C225.291 197.151 225.553 197.705 225.553 198.379H224.281C224.281 198.033 224.133 197.734 223.837 197.484C223.545 197.233 223.176 197.108 222.729 197.108C222.269 197.108 221.909 197.208 221.649 197.408C221.39 197.609 221.26 197.871 221.26 198.195C221.26 198.5 221.381 198.73 221.622 198.885C221.864 199.04 222.299 199.188 222.928 199.329C223.561 199.471 224.074 199.639 224.466 199.835C224.858 200.031 225.147 200.268 225.334 200.546C225.525 200.82 225.621 201.154 225.621 201.551C225.621 202.212 225.357 202.743 224.828 203.144C224.299 203.54 223.614 203.738 222.77 203.738C222.178 203.738 221.654 203.634 221.198 203.424C220.742 203.214 220.385 202.923 220.125 202.549C219.87 202.171 219.742 201.763 219.742 201.325H221.007C221.03 201.749 221.198 202.086 221.513 202.337C221.832 202.583 222.251 202.706 222.77 202.706C223.249 202.706 223.632 202.611 223.919 202.419C224.211 202.223 224.356 201.963 224.356 201.64ZM228.643 203.602H227.378V196.205H228.643V203.602ZM227.275 194.243C227.275 194.038 227.337 193.865 227.46 193.724C227.588 193.583 227.774 193.512 228.02 193.512C228.267 193.512 228.453 193.583 228.581 193.724C228.709 193.865 228.772 194.038 228.772 194.243C228.772 194.448 228.709 194.619 228.581 194.756C228.453 194.893 228.267 194.961 228.02 194.961C227.774 194.961 227.588 194.893 227.46 194.756C227.337 194.619 227.275 194.448 227.275 194.243ZM231.869 196.205L231.91 197.135C232.475 196.424 233.214 196.069 234.125 196.069C235.688 196.069 236.477 196.95 236.49 198.714V203.602H235.226V198.707C235.221 198.174 235.098 197.78 234.856 197.525C234.619 197.269 234.248 197.142 233.742 197.142C233.332 197.142 232.972 197.251 232.662 197.47C232.352 197.689 232.111 197.976 231.937 198.331V203.602H230.673V196.205H231.869ZM238.097 199.842C238.097 198.689 238.363 197.773 238.896 197.094C239.43 196.41 240.136 196.069 241.016 196.069C241.918 196.069 242.622 196.388 243.128 197.026L243.189 196.205H244.345V203.424C244.345 204.381 244.06 205.135 243.49 205.687C242.925 206.238 242.164 206.514 241.207 206.514C240.674 206.514 240.152 206.4 239.642 206.172C239.131 205.944 238.742 205.632 238.473 205.236L239.129 204.477C239.671 205.147 240.334 205.482 241.118 205.482C241.733 205.482 242.212 205.308 242.554 204.962C242.9 204.616 243.073 204.128 243.073 203.499V202.863C242.567 203.447 241.877 203.738 241.002 203.738C240.136 203.738 239.434 203.39 238.896 202.693C238.363 201.995 238.097 201.045 238.097 199.842ZM239.368 199.986C239.368 200.82 239.539 201.476 239.881 201.954C240.223 202.428 240.701 202.665 241.316 202.665C242.114 202.665 242.7 202.303 243.073 201.578V198.201C242.686 197.495 242.105 197.142 241.33 197.142C240.715 197.142 240.234 197.381 239.888 197.86C239.541 198.338 239.368 199.047 239.368 199.986Z" fill="black"/>
<g filter="url(#filter3_d_211:2)">
<path d="M350.025 119.593L420.151 159.769V240.121L350.025 280.297L279.899 240.121V159.769L350.025 119.593Z" fill="white"/>
<path d="M280.399 160.059L350.025 120.17L419.651 160.059V239.831L350.025 279.72L280.399 239.831V160.059Z" stroke="#222222"/>
</g>
<path d="M331.315 199.575H328.978V203.602H327.658V193.649H330.953C332.074 193.649 332.936 193.904 333.537 194.414C334.143 194.925 334.446 195.668 334.446 196.643C334.446 197.263 334.278 197.803 333.94 198.263C333.608 198.723 333.143 199.067 332.546 199.295L334.884 203.52V203.602H333.476L331.315 199.575ZM328.978 198.502H330.994C331.646 198.502 332.163 198.334 332.546 197.996C332.933 197.659 333.127 197.208 333.127 196.643C333.127 196.028 332.942 195.556 332.573 195.228C332.209 194.9 331.68 194.733 330.987 194.729H328.978V198.502ZM340.66 203.602C340.587 203.456 340.528 203.196 340.482 202.822C339.895 203.433 339.193 203.738 338.377 203.738C337.648 203.738 337.049 203.533 336.579 203.123C336.114 202.709 335.882 202.184 335.882 201.551C335.882 200.781 336.174 200.184 336.757 199.76C337.345 199.332 338.17 199.117 339.231 199.117H340.462V198.536C340.462 198.094 340.33 197.743 340.065 197.484C339.801 197.219 339.412 197.087 338.897 197.087C338.445 197.087 338.067 197.201 337.762 197.429C337.456 197.657 337.304 197.932 337.304 198.256H336.032C336.032 197.887 336.162 197.531 336.422 197.19C336.686 196.843 337.042 196.57 337.488 196.369C337.939 196.169 338.434 196.069 338.972 196.069C339.824 196.069 340.492 196.283 340.975 196.711C341.458 197.135 341.708 197.721 341.727 198.468V201.872C341.727 202.551 341.813 203.091 341.986 203.492V203.602H340.66ZM338.562 202.638C338.958 202.638 339.334 202.535 339.689 202.33C340.045 202.125 340.302 201.859 340.462 201.53V200.013H339.471C337.921 200.013 337.147 200.466 337.147 201.373C337.147 201.77 337.279 202.08 337.543 202.303C337.807 202.526 338.147 202.638 338.562 202.638ZM345.425 194.414V196.205H346.806V197.183H345.425V201.77C345.425 202.066 345.486 202.289 345.609 202.44C345.732 202.585 345.942 202.658 346.238 202.658C346.384 202.658 346.585 202.631 346.84 202.576V203.602C346.507 203.693 346.184 203.738 345.869 203.738C345.304 203.738 344.878 203.568 344.591 203.226C344.304 202.884 344.16 202.399 344.16 201.77V197.183H342.814V196.205H344.16V194.414H345.425ZM349.663 203.602H348.398V196.205H349.663V203.602ZM348.296 194.243C348.296 194.038 348.357 193.865 348.481 193.724C348.608 193.583 348.795 193.512 349.041 193.512C349.287 193.512 349.474 193.583 349.602 193.724C349.729 193.865 349.793 194.038 349.793 194.243C349.793 194.448 349.729 194.619 349.602 194.756C349.474 194.893 349.287 194.961 349.041 194.961C348.795 194.961 348.608 194.893 348.481 194.756C348.357 194.619 348.296 194.448 348.296 194.243ZM352.89 196.205L352.931 197.135C353.496 196.424 354.234 196.069 355.146 196.069C356.709 196.069 357.497 196.95 357.511 198.714V203.602H356.246V198.707C356.242 198.174 356.119 197.78 355.877 197.525C355.64 197.269 355.269 197.142 354.763 197.142C354.353 197.142 353.993 197.251 353.683 197.47C353.373 197.689 353.131 197.976 352.958 198.331V203.602H351.693V196.205H352.89ZM359.117 199.842C359.117 198.689 359.384 197.773 359.917 197.094C360.45 196.41 361.157 196.069 362.036 196.069C362.939 196.069 363.643 196.388 364.148 197.026L364.21 196.205H365.365V203.424C365.365 204.381 365.08 205.135 364.511 205.687C363.946 206.238 363.185 206.514 362.228 206.514C361.694 206.514 361.173 206.4 360.662 206.172C360.152 205.944 359.762 205.632 359.493 205.236L360.149 204.477C360.692 205.147 361.355 205.482 362.139 205.482C362.754 205.482 363.232 205.308 363.574 204.962C363.921 204.616 364.094 204.128 364.094 203.499V202.863C363.588 203.447 362.898 203.738 362.023 203.738C361.157 203.738 360.455 203.39 359.917 202.693C359.384 201.995 359.117 201.045 359.117 199.842ZM360.389 199.986C360.389 200.82 360.56 201.476 360.901 201.954C361.243 202.428 361.722 202.665 362.337 202.665C363.134 202.665 363.72 202.303 364.094 201.578V198.201C363.706 197.495 363.125 197.142 362.351 197.142C361.735 197.142 361.255 197.381 360.908 197.86C360.562 198.338 360.389 199.047 360.389 199.986ZM371.586 201.64C371.586 201.298 371.456 201.034 371.196 200.847C370.941 200.655 370.492 200.491 369.85 200.355C369.212 200.218 368.703 200.054 368.325 199.862C367.952 199.671 367.674 199.443 367.491 199.179C367.314 198.915 367.225 198.6 367.225 198.236C367.225 197.629 367.48 197.117 367.99 196.697C368.505 196.278 369.162 196.069 369.959 196.069C370.798 196.069 371.477 196.285 371.996 196.718C372.52 197.151 372.782 197.705 372.782 198.379H371.511C371.511 198.033 371.363 197.734 371.066 197.484C370.775 197.233 370.406 197.108 369.959 197.108C369.499 197.108 369.139 197.208 368.879 197.408C368.619 197.609 368.489 197.871 368.489 198.195C368.489 198.5 368.61 198.73 368.852 198.885C369.093 199.04 369.528 199.188 370.157 199.329C370.791 199.471 371.303 199.639 371.695 199.835C372.087 200.031 372.377 200.268 372.564 200.546C372.755 200.82 372.851 201.154 372.851 201.551C372.851 202.212 372.586 202.743 372.058 203.144C371.529 203.54 370.843 203.738 370 203.738C369.408 203.738 368.884 203.634 368.428 203.424C367.972 203.214 367.614 202.923 367.355 202.549C367.099 202.171 366.972 201.763 366.972 201.325H368.236C368.259 201.749 368.428 202.086 368.742 202.337C369.061 202.583 369.481 202.706 370 202.706C370.479 202.706 370.861 202.611 371.148 202.419C371.44 202.223 371.586 201.963 371.586 201.64Z" fill="black"/>
<g filter="url(#filter4_d_211:2)">
<path d="M70.9746 119.593L141.101 159.769V240.121L70.9746 280.297L0.848534 240.121V159.769L70.9746 119.593Z" fill="white"/>
<path d="M1.34853 160.059L70.9746 120.17L140.601 160.059V239.831L70.9746 279.72L1.34853 239.831V160.059Z" stroke="#222222"/>
</g>
<path d="M50.3293 199.705V203.602H49.0168V193.649H52.6877C53.7769 193.649 54.6291 193.927 55.2443 194.483C55.8641 195.039 56.174 195.775 56.174 196.691C56.174 197.657 55.8709 198.402 55.2648 198.926C54.6632 199.445 53.7996 199.705 52.674 199.705H50.3293ZM50.3293 198.632H52.6877C53.3895 198.632 53.9272 198.468 54.3009 198.14C54.6746 197.807 54.8615 197.329 54.8615 196.704C54.8615 196.112 54.6746 195.638 54.3009 195.282C53.9272 194.927 53.4145 194.742 52.7629 194.729H50.3293V198.632ZM59.0246 203.602H57.7599V193.102H59.0246V203.602ZM65.6213 203.602C65.5483 203.456 65.4891 203.196 65.4435 202.822C64.8556 203.433 64.1538 203.738 63.3381 203.738C62.6089 203.738 62.0096 203.533 61.5402 203.123C61.0754 202.709 60.8429 202.184 60.8429 201.551C60.8429 200.781 61.1346 200.184 61.7179 199.76C62.3058 199.332 63.1307 199.117 64.1925 199.117H65.423V198.536C65.423 198.094 65.2909 197.743 65.0265 197.484C64.7622 197.219 64.3726 197.087 63.8576 197.087C63.4064 197.087 63.0282 197.201 62.7228 197.429C62.4175 197.657 62.2648 197.932 62.2648 198.256H60.9933C60.9933 197.887 61.1232 197.531 61.383 197.19C61.6473 196.843 62.0028 196.57 62.4494 196.369C62.9006 196.169 63.395 196.069 63.9328 196.069C64.785 196.069 65.4526 196.283 65.9357 196.711C66.4188 197.135 66.6694 197.721 66.6877 198.468V201.872C66.6877 202.551 66.7742 203.091 66.9474 203.492V203.602H65.6213ZM63.5226 202.638C63.9191 202.638 64.2951 202.535 64.6506 202.33C65.006 202.125 65.2635 201.859 65.423 201.53V200.013H64.4318C62.8823 200.013 62.1076 200.466 62.1076 201.373C62.1076 201.77 62.2397 202.08 62.5041 202.303C62.7684 202.526 63.1079 202.638 63.5226 202.638ZM70.9806 201.749L72.7033 196.205H74.0568L71.0832 204.743C70.6229 205.974 69.8914 206.589 68.8888 206.589L68.6496 206.569L68.1779 206.48V205.454L68.5197 205.482C68.9481 205.482 69.2808 205.395 69.5177 205.222C69.7593 205.049 69.9575 204.732 70.1125 204.272L70.3927 203.52L67.7541 196.205H69.1349L70.9806 201.749ZM76.5656 203.602H75.3009V193.102H76.5656V203.602ZM79.9699 203.602H78.7052V196.205H79.9699V203.602ZM78.6027 194.243C78.6027 194.038 78.6642 193.865 78.7873 193.724C78.9149 193.583 79.1017 193.512 79.3478 193.512C79.5939 193.512 79.7808 193.583 79.9084 193.724C80.036 193.865 80.0998 194.038 80.0998 194.243C80.0998 194.448 80.036 194.619 79.9084 194.756C79.7808 194.893 79.5939 194.961 79.3478 194.961C79.1017 194.961 78.9149 194.893 78.7873 194.756C78.6642 194.619 78.6027 194.448 78.6027 194.243ZM86.3068 201.64C86.3068 201.298 86.1769 201.034 85.9172 200.847C85.6619 200.655 85.2131 200.491 84.5705 200.355C83.9325 200.218 83.4243 200.054 83.0461 199.862C82.6724 199.671 82.3944 199.443 82.2121 199.179C82.0343 198.915 81.9455 198.6 81.9455 198.236C81.9455 197.629 82.2007 197.117 82.7111 196.697C83.2261 196.278 83.8823 196.069 84.6798 196.069C85.5184 196.069 86.1974 196.285 86.717 196.718C87.241 197.151 87.5031 197.705 87.5031 198.379H86.2316C86.2316 198.033 86.0835 197.734 85.7873 197.484C85.4956 197.233 85.1265 197.108 84.6798 197.108C84.2196 197.108 83.8595 197.208 83.5998 197.408C83.34 197.609 83.2101 197.871 83.2101 198.195C83.2101 198.5 83.3309 198.73 83.5724 198.885C83.814 199.04 84.2492 199.188 84.8781 199.329C85.5116 199.471 86.0242 199.639 86.4162 199.835C86.8081 200.031 87.0975 200.268 87.2843 200.546C87.4757 200.82 87.5714 201.154 87.5714 201.551C87.5714 202.212 87.3071 202.743 86.7785 203.144C86.2498 203.54 85.564 203.738 84.7209 203.738C84.1284 203.738 83.6043 203.634 83.1486 203.424C82.6929 203.214 82.3351 202.923 82.0754 202.549C81.8201 202.171 81.6925 201.763 81.6925 201.325H82.9572C82.98 201.749 83.1486 202.086 83.4631 202.337C83.7821 202.583 84.2013 202.706 84.7209 202.706C85.1994 202.706 85.5822 202.611 85.8693 202.419C86.161 202.223 86.3068 201.963 86.3068 201.64ZM90.9347 194.414V196.205H92.3156V197.183H90.9347V201.77C90.9347 202.066 90.9963 202.289 91.1193 202.44C91.2423 202.585 91.452 202.658 91.7482 202.658C91.894 202.658 92.0946 202.631 92.3498 202.576V203.602C92.0171 203.693 91.6935 203.738 91.3791 203.738C90.814 203.738 90.3879 203.568 90.1007 203.226C89.8136 202.884 89.6701 202.399 89.6701 201.77V197.183H88.3234V196.205H89.6701V194.414H90.9347Z" fill="black"/>
</g>
<defs>
<filter id="filter0_d_211:2" x="66.6112" y="-3" width="148.252" height="168.703" filterUnits="userSpaceOnUse" color-interpolation-filters="sRGB">
<feFlood flood-opacity="0" result="BackgroundImageFix"/>
<feColorMatrix in="SourceAlpha" type="matrix" values="0 0 0 0 0 0 0 0 0 0 0 0 0 0 0 0 0 0 127 0" result="hardAlpha"/>
<feOffset dy="1"/>
<feGaussianBlur stdDeviation="2"/>
<feColorMatrix type="matrix" values="0 0 0 0 0 0 0 0 0 0 0 0 0 0 0 0 0 0 0.25 0"/>
<feBlend mode="normal" in2="BackgroundImageFix" result="effect1_dropShadow_211:2"/>
<feBlend mode="normal" in="SourceGraphic" in2="effect1_dropShadow_211:2" result="shape"/>
</filter>
<filter id="filter1_d_211:2" x="206.137" y="-3" width="148.252" height="168.703" filterUnits="userSpaceOnUse" color-interpolation-filters="sRGB">
<feFlood flood-opacity="0" result="BackgroundImageFix"/>
<feColorMatrix in="SourceAlpha" type="matrix" values="0 0 0 0 0 0 0 0 0 0 0 0 0 0 0 0 0 0 127 0" result="hardAlpha"/>
<feOffset dy="1"/>
<feGaussianBlur stdDeviation="2"/>
<feColorMatrix type="matrix" values="0 0 0 0 0 0 0 0 0 0 0 0 0 0 0 0 0 0 0.25 0"/>
<feBlend mode="normal" in2="BackgroundImageFix" result="effect1_dropShadow_211:2"/>
<feBlend mode="normal" in="SourceGraphic" in2="effect1_dropShadow_211:2" result="shape"/>
</filter>
<filter id="filter2_d_211:2" x="136.374" y="116.593" width="148.252" height="168.703" filterUnits="userSpaceOnUse" color-interpolation-filters="sRGB">
<feFlood flood-opacity="0" result="BackgroundImageFix"/>
<feColorMatrix in="SourceAlpha" type="matrix" values="0 0 0 0 0 0 0 0 0 0 0 0 0 0 0 0 0 0 127 0" result="hardAlpha"/>
<feOffset dy="1"/>
<feGaussianBlur stdDeviation="2"/>
<feColorMatrix type="matrix" values="0 0 0 0 0 0 0 0 0 0 0 0 0 0 0 0 0 0 0.25 0"/>
<feBlend mode="normal" in2="BackgroundImageFix" result="effect1_dropShadow_211:2"/>
<feBlend mode="normal" in="SourceGraphic" in2="effect1_dropShadow_211:2" result="shape"/>
</filter>
<filter id="filter3_d_211:2" x="275.899" y="116.593" width="148.252" height="168.703" filterUnits="userSpaceOnUse" color-interpolation-filters="sRGB">
<feFlood flood-opacity="0" result="BackgroundImageFix"/>
<feColorMatrix in="SourceAlpha" type="matrix" values="0 0 0 0 0 0 0 0 0 0 0 0 0 0 0 0 0 0 127 0" result="hardAlpha"/>
<feOffset dy="1"/>
<feGaussianBlur stdDeviation="2"/>
<feColorMatrix type="matrix" values="0 0 0 0 0 0 0 0 0 0 0 0 0 0 0 0 0 0 0.25 0"/>
<feBlend mode="normal" in2="BackgroundImageFix" result="effect1_dropShadow_211:2"/>
<feBlend mode="normal" in="SourceGraphic" in2="effect1_dropShadow_211:2" result="shape"/>
</filter>
<filter id="filter4_d_211:2" x="-3.15146" y="116.593" width="148.252" height="168.703" filterUnits="userSpaceOnUse" color-interpolation-filters="sRGB">
<feFlood flood-opacity="0" result="BackgroundImageFix"/>
<feColorMatrix in="SourceAlpha" type="matrix" values="0 0 0 0 0 0 0 0 0 0 0 0 0 0 0 0 0 0 127 0" result="hardAlpha"/>
<feOffset dy="1"/>
<feGaussianBlur stdDeviation="2"/>
<feColorMatrix type="matrix" values="0 0 0 0 0 0 0 0 0 0 0 0 0 0 0 0 0 0 0.25 0"/>
<feBlend mode="normal" in2="BackgroundImageFix" result="effect1_dropShadow_211:2"/>
<feBlend mode="normal" in="SourceGraphic" in2="effect1_dropShadow_211:2" result="shape"/>
</filter>
<clipPath id="clip0_211:2">
<rect width="422" height="294" fill="white"/>
</clipPath>
</defs>
</svg>
