<svg width="422" height="264" viewBox="0 0 422 264" fill="none" xmlns="http://www.w3.org/2000/svg">
<g clip-path="url(#clip0_176:100)">
<path d="M289.043 12.5785C284.139 12.5785 280.148 16.5691 280.148 21.4742C280.148 26.3789 284.138 30.3699 289.043 30.3699C293.948 30.3699 297.939 26.3793 297.939 21.4742C297.939 16.5691 293.948 12.5785 289.043 12.5785ZM289.043 24.0539C287.621 24.0539 286.464 22.8965 286.464 21.4742C286.464 20.0519 287.621 18.8945 289.043 18.8945C290.466 18.8945 291.623 20.0519 291.623 21.4742C291.623 22.8965 290.466 24.0539 289.043 24.0539Z" fill="black" fill-opacity="0.87"/>
<path d="M289.527 0.000976562C285.825 0.000976562 282.34 0.942383 279.296 2.59824L166.354 50.4803C160.298 52.2057 154.548 54.6639 149.205 57.7506C148.949 57.8596 148.717 58.001 148.506 58.1643C126.076 71.444 111 95.8873 111 123.79C111 165.813 145.188 200 187.211 200C221.253 200 250.15 177.563 259.9 146.702C259.9 146.702 259.9 146.701 259.9 146.701L308.673 31.1772C310.158 28.2604 311 24.965 311 21.4744C311 9.63418 301.367 0.000976562 289.527 0.000976562ZM263.397 122.181C262.886 98.0897 250.934 75.5158 231.191 61.5424C229.766 60.5342 227.796 60.8729 226.789 62.2955C225.781 63.719 226.118 65.69 227.542 66.6975C246.054 79.7994 257.105 101.142 257.105 123.788C257.105 162.329 225.751 193.684 187.211 193.684C148.67 193.684 117.316 162.329 117.316 123.789C117.316 98.0619 131.29 75.5397 152.045 63.4065L168.426 56.4615C174.405 54.7908 180.705 53.8943 187.211 53.8943C198.355 53.8943 209.005 56.4385 218.865 61.4557C220.42 62.2467 222.321 61.6279 223.112 60.0732C223.903 58.5193 223.284 56.6178 221.73 55.8264C211.595 50.6693 200.697 47.91 189.308 47.6084L269.561 13.585C268.591 16.0287 268.053 18.6885 268.053 21.4732C268.053 33.3135 277.686 42.9467 289.526 42.9467C292.343 42.9467 295.032 42.3959 297.499 41.4057L263.397 122.181ZM289.527 36.6326C281.168 36.6326 274.369 29.833 274.369 21.4748C274.369 13.1166 281.168 6.31699 289.527 6.31699C297.885 6.31699 304.684 13.1166 304.684 21.4748C304.684 29.833 297.885 36.6326 289.527 36.6326Z" fill="black" fill-opacity="0.87"/>
<path d="M213.55 65.0086C212.588 64.4531 211.493 64.159 210.386 64.159C208.129 64.159 206.026 65.373 204.898 67.3262L203.504 69.7383C202.402 69.407 201.288 69.1094 200.169 68.8465V66.059C200.169 62.5664 197.327 59.7246 193.835 59.7246H180.65C177.158 59.7246 174.316 62.5664 174.316 66.059V68.8465C173.198 69.1094 172.084 69.407 170.981 69.7383L169.588 67.3266C168.46 65.3723 166.357 64.1586 164.1 64.1586C162.991 64.1586 161.898 64.4523 160.936 65.0082L149.518 71.5996C146.494 73.3453 145.454 77.2262 147.199 80.2523L148.599 82.6762C147.764 83.4621 146.95 84.2762 146.162 85.1125L143.737 83.7129C142.775 83.1578 141.682 82.8645 140.574 82.8645C138.318 82.8645 136.215 84.0773 135.086 86.0313L128.495 97.4492C126.749 100.473 127.787 104.355 130.812 106.103L133.225 107.496C132.893 108.598 132.596 109.712 132.333 110.831H129.545C126.053 110.831 123.211 113.673 123.211 117.165V130.349C123.211 133.842 126.053 136.684 129.545 136.684H132.333C132.596 137.803 132.893 138.916 133.225 140.019L130.812 141.412C129.347 142.258 128.299 143.625 127.862 145.259C127.424 146.894 127.649 148.601 128.495 150.065L135.086 161.483C136.214 163.437 138.318 164.65 140.575 164.65C141.682 164.65 142.776 164.357 143.738 163.801L146.163 162.402C146.949 163.237 147.763 164.051 148.599 164.838L147.199 167.264C145.454 170.288 146.495 174.169 149.518 175.914L160.936 182.506C161.898 183.062 162.992 183.355 164.1 183.355C166.358 183.355 168.461 182.141 169.588 180.188L170.982 177.776C172.085 178.107 173.198 178.405 174.317 178.668V181.456C174.317 184.949 177.158 187.79 180.651 187.79H193.836C197.328 187.79 200.17 184.949 200.17 181.456V178.668C201.288 178.405 202.402 178.107 203.505 177.776L204.898 180.189C206.027 182.142 208.129 183.355 210.386 183.355C211.494 183.355 212.588 183.062 213.55 182.506L224.968 175.914C226.433 175.068 227.481 173.703 227.919 172.068C228.357 170.433 228.132 168.727 227.286 167.263L225.887 164.838C226.723 164.051 227.536 163.238 228.324 162.401L230.748 163.801C231.711 164.356 232.804 164.65 233.912 164.65C236.17 164.65 238.273 163.436 239.4 161.482L245.992 150.065C246.839 148.6 247.063 146.893 246.625 145.258C246.187 143.624 245.139 142.258 243.674 141.412L241.262 140.019C241.593 138.916 241.891 137.802 242.154 136.684H244.941C248.434 136.684 251.275 133.842 251.275 130.349V117.165C251.274 113.673 248.433 110.831 244.94 110.831H242.153C241.89 109.712 241.593 108.599 241.261 107.496L243.676 106.102C246.698 104.354 247.737 100.473 245.991 97.45L239.4 86.032C238.271 84.0785 236.168 82.8652 233.911 82.8652C232.804 82.8652 231.71 83.1582 230.747 83.7141L228.323 85.1133C227.536 84.2766 226.722 83.4633 225.887 82.6766L227.286 80.2535C228.132 78.7883 228.357 77.0812 227.919 75.4469C227.481 73.8125 226.433 72.4465 224.968 71.6012L213.55 65.0086ZM229.264 91.8625L233.929 89.1902L240.515 100.634L235.886 103.307C234.57 104.068 233.982 105.658 234.487 107.092C235.345 109.526 236.017 112.04 236.484 114.564C236.761 116.061 238.067 117.147 239.589 117.147L244.957 117.166L244.94 130.367H239.59C238.067 130.367 236.762 131.454 236.485 132.951C236.018 135.473 235.346 137.988 234.488 140.425C233.983 141.858 234.57 143.448 235.887 144.209L240.522 146.906L233.905 158.331L229.266 155.652C227.95 154.891 226.278 155.177 225.289 156.331C223.611 158.288 221.77 160.129 219.818 161.803C218.664 162.792 218.379 164.462 219.138 165.778L221.81 170.444L210.367 177.029L207.694 172.401C206.934 171.084 205.343 170.496 203.91 171.001C201.474 171.86 198.959 172.532 196.436 173C194.939 173.277 193.853 174.583 193.853 176.105L193.842 181.473C193.842 181.473 193.84 181.473 193.835 181.473L180.632 181.455V176.105C180.632 174.582 179.546 173.277 178.05 173C175.528 172.533 173.013 171.86 170.575 171.001C170.23 170.88 169.876 170.822 169.527 170.822C168.425 170.822 167.369 171.401 166.791 172.401L164.094 177.036L152.67 170.42L155.348 165.779C156.108 164.463 155.822 162.792 154.668 161.804C152.715 160.129 150.874 158.288 149.198 156.332C148.209 155.178 146.537 154.891 145.221 155.652L140.556 158.325L133.97 146.882L138.6 144.209C139.916 143.449 140.504 141.858 139.999 140.425C139.14 137.99 138.468 135.475 138.001 132.952C137.724 131.455 136.418 130.368 134.896 130.368L129.527 130.35L129.545 117.148H134.896C136.418 117.148 137.724 116.062 138.001 114.565C138.468 112.04 139.14 109.526 139.998 107.093C140.505 105.66 139.917 104.068 138.6 103.308L133.964 100.61L140.58 89.1852L145.221 91.8641C146.538 92.6242 148.208 92.3383 149.197 91.1844C150.876 89.2266 152.716 87.3855 154.668 85.7141C155.822 84.725 156.108 83.0539 155.348 81.7371L152.675 77.0723L164.118 70.4867L166.791 75.1152C167.552 76.432 169.143 77.0187 170.576 76.5145C173.011 75.6559 175.525 74.9836 178.048 74.5172C179.545 74.2402 180.632 72.9344 180.632 71.4121L180.65 66.0434L193.852 66.0617V71.4121C193.852 72.9348 194.939 74.2402 196.436 74.5172C198.961 74.984 201.475 75.6566 203.907 76.5145C205.34 77.0199 206.932 76.4328 207.692 75.1156L210.391 70.4797L221.814 77.0969L219.136 81.7371C218.376 83.0539 218.662 84.725 219.816 85.7137C221.767 87.3844 223.607 89.2254 225.288 91.1848C226.278 92.3363 227.947 92.6223 229.264 91.8625Z" fill="black" fill-opacity="0.87"/>
<path d="M187.243 81.4414C163.91 81.4414 144.927 100.424 144.927 123.757C144.927 147.09 163.91 166.073 187.243 166.073C198.006 166.073 208.263 162.029 216.124 154.684C217.398 153.494 217.466 151.496 216.276 150.221C215.086 148.947 213.088 148.879 211.812 150.069C205.125 156.316 196.4 159.757 187.243 159.757C167.392 159.757 151.243 143.607 151.243 123.757C151.243 103.906 167.392 87.7566 187.243 87.7566C207.093 87.7566 223.243 103.906 223.243 123.757C223.243 130.33 221.455 136.761 218.074 142.353C217.171 143.846 217.65 145.787 219.143 146.689C220.634 147.591 222.576 147.114 223.479 145.621C227.456 139.042 229.559 131.482 229.559 123.756C229.559 100.424 210.576 81.4414 187.243 81.4414Z" fill="black" fill-opacity="0.87"/>
<path d="M187.243 95.1254C171.456 95.1254 158.611 107.97 158.611 123.757C158.611 139.545 171.455 152.389 187.243 152.389C203.03 152.389 215.875 139.545 215.875 123.757C215.875 107.97 203.03 95.1254 187.243 95.1254ZM187.243 146.073C174.938 146.073 164.927 136.062 164.927 123.757C164.927 111.452 174.938 101.441 187.243 101.441C199.548 101.441 209.559 111.452 209.559 123.757C209.559 136.062 199.548 146.073 187.243 146.073Z" fill="black" fill-opacity="0.87"/>
<path d="M187.243 114.861C182.338 114.861 178.347 118.852 178.347 123.757C178.347 128.662 182.338 132.653 187.243 132.653C192.148 132.653 196.139 128.662 196.139 123.757C196.139 118.852 192.148 114.861 187.243 114.861ZM187.243 126.337C185.821 126.337 184.663 125.179 184.663 123.757C184.663 122.335 185.821 121.177 187.243 121.177C188.665 121.177 189.823 122.335 189.823 123.757C189.823 125.179 188.665 126.337 187.243 126.337Z" fill="black" fill-opacity="0.87"/>
</g>
<g filter="url(#filter0_i_176:100)">
<rect y="225" width="416" height="34" rx="4" fill="white"/>
</g>
<rect x="5.76178" y="228.953" width="288.089" height="26.8837" rx="4" fill="#2E77D0"/>
<defs>
<filter id="filter0_i_176:100" x="0" y="225" width="416" height="34" filterUnits="userSpaceOnUse" color-interpolation-filters="sRGB">
<feFlood flood-opacity="0" result="BackgroundImageFix"/>
<feBlend mode="normal" in="SourceGraphic" in2="BackgroundImageFix" result="shape"/>
<feColorMatrix in="SourceAlpha" type="matrix" values="0 0 0 0 0 0 0 0 0 0 0 0 0 0 0 0 0 0 127 0" result="hardAlpha"/>
<feMorphology radius="4" operator="erode" in="SourceAlpha" result="effect1_innerShadow_176:100"/>
<feOffset/>
<feGaussianBlur stdDeviation="2"/>
<feComposite in2="hardAlpha" operator="arithmetic" k2="-1" k3="1"/>
<feColorMatrix type="matrix" values="0 0 0 0 0 0 0 0 0 0 0 0 0 0 0 0 0 0 0.25 0"/>
<feBlend mode="normal" in2="shape" result="effect1_innerShadow_176:100"/>
</filter>
<clipPath id="clip0_176:100">
<rect width="200" height="200" fill="white" transform="translate(111)"/>
</clipPath>
</defs>
</svg>
