<svg width="422" height="364" viewBox="0 0 422 364" fill="none" xmlns="http://www.w3.org/2000/svg">
<rect width="422" height="364" fill="white"/>
<g clip-path="url(#clip0)">
<path d="M289.043 73.5785C284.139 73.5785 280.148 77.5691 280.148 82.4742C280.148 87.3789 284.138 91.3699 289.043 91.3699C293.948 91.3699 297.939 87.3793 297.939 82.4742C297.939 77.5691 293.948 73.5785 289.043 73.5785ZM289.043 85.0539C287.621 85.0539 286.464 83.8965 286.464 82.4742C286.464 81.052 287.621 79.8945 289.043 79.8945C290.466 79.8945 291.623 81.052 291.623 82.4742C291.623 83.8965 290.466 85.0539 289.043 85.0539Z" fill="#545454"/>
<path d="M289.527 61.001C285.825 61.001 282.34 61.9424 279.296 63.5983L166.354 111.48C160.298 113.206 154.548 115.664 149.205 118.751C148.949 118.86 148.717 119.001 148.506 119.164C126.076 132.444 111 156.887 111 184.79C111 226.813 145.188 261 187.211 261C221.253 261 250.15 238.563 259.9 207.702C259.9 207.702 259.9 207.701 259.9 207.701L308.673 92.1772C310.158 89.2604 311 85.9651 311 82.4744C311 70.6342 301.367 61.001 289.527 61.001ZM263.397 183.181C262.886 159.09 250.934 136.516 231.191 122.542C229.766 121.534 227.796 121.873 226.789 123.296C225.781 124.719 226.118 126.69 227.542 127.698C246.054 140.799 257.105 162.142 257.105 184.789C257.105 223.329 225.751 254.684 187.211 254.684C148.67 254.684 117.316 223.329 117.316 184.789C117.316 159.062 131.29 136.54 152.045 124.406L168.426 117.462C174.405 115.791 180.705 114.894 187.211 114.894C198.355 114.894 209.005 117.439 218.865 122.456C220.42 123.247 222.321 122.628 223.112 121.073C223.903 119.519 223.284 117.618 221.73 116.826C211.595 111.669 200.697 108.91 189.308 108.608L269.561 74.585C268.591 77.0287 268.053 79.6885 268.053 82.4733C268.053 94.3135 277.686 103.947 289.526 103.947C292.343 103.947 295.032 103.396 297.499 102.406L263.397 183.181ZM289.527 97.6327C281.168 97.6327 274.369 90.833 274.369 82.4748C274.369 74.1166 281.168 67.317 289.527 67.317C297.885 67.317 304.684 74.1166 304.684 82.4748C304.684 90.833 297.885 97.6327 289.527 97.6327Z" fill="#545454"/>
<path d="M213.55 126.009C212.588 125.453 211.493 125.159 210.386 125.159C208.129 125.159 206.026 126.373 204.898 128.326L203.504 130.738C202.402 130.407 201.288 130.109 200.169 129.846V127.059C200.169 123.566 197.327 120.725 193.835 120.725H180.65C177.158 120.725 174.316 123.566 174.316 127.059V129.846C173.198 130.109 172.084 130.407 170.981 130.738L169.588 128.327C168.46 126.372 166.357 125.159 164.1 125.159C162.991 125.159 161.898 125.452 160.936 126.008L149.518 132.6C146.494 134.345 145.454 138.226 147.199 141.252L148.599 143.676C147.764 144.462 146.95 145.276 146.163 146.113L143.737 144.713C142.775 144.158 141.682 143.864 140.574 143.864C138.318 143.864 136.215 145.077 135.086 147.031L128.495 158.449C126.749 161.473 127.787 165.355 130.812 167.103L133.225 168.496C132.893 169.598 132.596 170.712 132.333 171.831H129.545C126.053 171.831 123.211 174.673 123.211 178.165V191.349C123.211 194.842 126.053 197.684 129.545 197.684H132.333C132.596 198.803 132.893 199.916 133.225 201.019L130.812 202.413C129.347 203.258 128.299 204.625 127.862 206.259C127.424 207.894 127.649 209.601 128.495 211.065L135.086 222.483C136.214 224.437 138.318 225.65 140.575 225.65C141.682 225.65 142.776 225.357 143.738 224.801L146.163 223.402C146.949 224.237 147.763 225.051 148.599 225.838L147.199 228.264C145.454 231.288 146.495 235.169 149.518 236.914L160.936 243.506C161.898 244.062 162.992 244.355 164.1 244.355C166.358 244.355 168.461 243.141 169.588 241.188L170.982 238.776C172.085 239.107 173.198 239.405 174.317 239.668V242.456C174.317 245.949 177.158 248.79 180.651 248.79H193.836C197.328 248.79 200.17 245.949 200.17 242.456V239.668C201.288 239.405 202.402 239.107 203.505 238.776L204.898 241.189C206.027 243.142 208.129 244.355 210.386 244.355C211.494 244.355 212.588 244.062 213.55 243.506L224.968 236.914C226.433 236.068 227.481 234.703 227.919 233.068C228.357 231.433 228.132 229.727 227.286 228.263L225.887 225.838C226.723 225.051 227.536 224.238 228.324 223.401L230.748 224.801C231.711 225.356 232.804 225.65 233.912 225.65C236.17 225.65 238.273 224.436 239.4 222.482L245.992 211.065C246.839 209.6 247.063 207.893 246.625 206.258C246.187 204.624 245.139 203.258 243.674 202.413L241.262 201.019C241.593 199.916 241.891 198.802 242.154 197.684H244.941C248.434 197.684 251.275 194.842 251.275 191.349V178.165C251.274 174.673 248.433 171.831 244.94 171.831H242.153C241.89 170.712 241.593 169.599 241.261 168.496L243.676 167.102C246.698 165.354 247.737 161.473 245.991 158.45L239.4 147.032C238.272 145.079 236.168 143.865 233.911 143.865C232.804 143.865 231.71 144.158 230.747 144.714L228.323 146.113C227.536 145.277 226.722 144.463 225.887 143.677L227.286 141.254C228.132 139.788 228.357 138.081 227.919 136.447C227.481 134.812 226.433 133.446 224.968 132.601L213.55 126.009ZM229.264 152.863L233.929 150.19L240.515 161.634L235.886 164.307C234.57 165.068 233.982 166.658 234.487 168.092C235.345 170.526 236.017 173.04 236.484 175.564C236.761 177.061 238.067 178.147 239.589 178.147L244.957 178.166L244.94 191.367H239.59C238.067 191.367 236.762 192.454 236.485 193.951C236.018 196.473 235.346 198.988 234.488 201.425C233.983 202.858 234.57 204.448 235.887 205.209L240.522 207.906L233.905 219.331L229.266 216.652C227.95 215.891 226.278 216.177 225.289 217.331C223.611 219.288 221.77 221.129 219.818 222.803C218.664 223.792 218.379 225.462 219.138 226.778L221.81 231.444L210.367 238.029L207.694 233.401C206.934 232.084 205.343 231.496 203.91 232.001C201.474 232.86 198.959 233.532 196.436 234C194.939 234.277 193.853 235.583 193.853 237.105L193.842 242.473C193.842 242.473 193.84 242.473 193.835 242.473L180.632 242.455V237.105C180.632 235.582 179.546 234.277 178.05 234C175.528 233.533 173.013 232.86 170.575 232.001C170.23 231.88 169.876 231.822 169.527 231.822C168.425 231.822 167.369 232.401 166.791 233.401L164.094 238.036L152.67 231.42L155.348 226.779C156.108 225.463 155.822 223.792 154.668 222.804C152.715 221.129 150.874 219.288 149.198 217.332C148.209 216.178 146.537 215.891 145.221 216.652L140.556 219.325L133.97 207.882L138.6 205.209C139.916 204.449 140.504 202.858 139.999 201.425C139.14 198.99 138.468 196.475 138.001 193.952C137.724 192.455 136.418 191.368 134.896 191.368L129.527 191.35L129.545 178.148H134.896C136.418 178.148 137.724 177.062 138.001 175.565C138.468 173.04 139.14 170.526 139.998 168.093C140.505 166.66 139.917 165.068 138.6 164.308L133.964 161.61L140.58 150.185L145.221 152.864C146.538 153.624 148.208 153.338 149.197 152.184C150.876 150.227 152.716 148.386 154.668 146.714C155.822 145.725 156.108 144.054 155.348 142.737L152.675 138.072L164.118 131.487L166.791 136.115C167.552 137.432 169.143 138.019 170.576 137.514C173.011 136.656 175.525 135.984 178.048 135.517C179.545 135.24 180.632 133.934 180.632 132.412L180.65 127.043L193.852 127.062V132.412C193.852 133.935 194.939 135.24 196.436 135.517C198.961 135.984 201.475 136.657 203.907 137.514C205.34 138.02 206.932 137.433 207.692 136.116L210.391 131.48L221.814 138.097L219.136 142.737C218.376 144.054 218.662 145.725 219.816 146.714C221.767 148.384 223.607 150.225 225.288 152.185C226.278 153.336 227.947 153.622 229.264 152.863Z" fill="#545454"/>
<path d="M187.243 142.441C163.91 142.441 144.927 161.424 144.927 184.757C144.927 208.09 163.91 227.073 187.243 227.073C198.006 227.073 208.263 223.029 216.124 215.684C217.398 214.494 217.466 212.496 216.276 211.221C215.086 209.947 213.088 209.879 211.812 211.069C205.125 217.316 196.4 220.757 187.243 220.757C167.392 220.757 151.243 204.607 151.243 184.757C151.243 164.906 167.392 148.757 187.243 148.757C207.093 148.757 223.243 164.906 223.243 184.757C223.243 191.33 221.455 197.761 218.074 203.353C217.171 204.846 217.65 206.787 219.143 207.689C220.634 208.591 222.576 208.114 223.479 206.621C227.456 200.042 229.559 192.482 229.559 184.756C229.559 161.424 210.576 142.441 187.243 142.441Z" fill="#545454"/>
<path d="M187.243 156.125C171.456 156.125 158.611 168.97 158.611 184.757C158.611 200.545 171.455 213.389 187.243 213.389C203.03 213.389 215.875 200.545 215.875 184.757C215.875 168.97 203.03 156.125 187.243 156.125ZM187.243 207.073C174.938 207.073 164.927 197.062 164.927 184.757C164.927 172.452 174.938 162.441 187.243 162.441C199.548 162.441 209.559 172.452 209.559 184.757C209.559 197.062 199.548 207.073 187.243 207.073Z" fill="#545454"/>
<path d="M187.243 175.861C182.338 175.861 178.347 179.852 178.347 184.757C178.347 189.662 182.338 193.653 187.243 193.653C192.148 193.653 196.139 189.662 196.139 184.757C196.139 179.852 192.148 175.861 187.243 175.861ZM187.243 187.337C185.821 187.337 184.663 186.179 184.663 184.757C184.663 183.335 185.821 182.177 187.243 182.177C188.665 182.177 189.823 183.335 189.823 184.757C189.823 186.179 188.665 187.337 187.243 187.337Z" fill="#545454"/>
</g>
<g filter="url(#filter0_i)">
<rect x="25" y="286" width="361" height="43" rx="4" fill="white"/>
</g>
<rect x="30" y="291" width="250" height="34" rx="4" fill="#2E77D0"/>
<path d="M49.4219 303.047V309.603C49.4219 310.692 49.0801 311.553 48.3965 312.187C47.7174 312.82 46.7878 313.137 45.6074 313.137C44.4453 313.137 43.5225 312.829 42.8389 312.214C42.1553 311.599 41.8066 310.753 41.793 309.678V303.047H43.8438V309.616C43.8438 310.268 43.9987 310.744 44.3086 311.045C44.623 311.341 45.056 311.489 45.6074 311.489C46.7604 311.489 47.346 310.883 47.3643 309.671V303.047H49.4219ZM53.1543 309.493V313H51.1035V303.047H54.9863C55.7337 303.047 56.39 303.184 56.9551 303.457C57.5247 303.73 57.9622 304.12 58.2676 304.626C58.5729 305.127 58.7256 305.699 58.7256 306.342C58.7256 307.317 58.3906 308.087 57.7207 308.652C57.0553 309.213 56.1325 309.493 54.9521 309.493H53.1543ZM53.1543 307.832H54.9863C55.5286 307.832 55.9411 307.704 56.2236 307.449C56.5107 307.194 56.6543 306.829 56.6543 306.355C56.6543 305.868 56.5107 305.474 56.2236 305.173C55.9365 304.872 55.54 304.717 55.0342 304.708H53.1543V307.832ZM68.0156 311.742C67.6465 312.184 67.1247 312.528 66.4502 312.774C65.7757 313.016 65.0283 313.137 64.208 313.137C63.3467 313.137 62.5902 312.95 61.9385 312.576C61.2913 312.198 60.79 311.651 60.4346 310.936C60.0837 310.22 59.9036 309.379 59.8945 308.413V307.736C59.8945 306.743 60.0609 305.884 60.3936 305.159C60.7308 304.43 61.2139 303.874 61.8428 303.491C62.4762 303.104 63.2168 302.91 64.0645 302.91C65.2448 302.91 66.1676 303.193 66.833 303.758C67.4984 304.318 67.8926 305.136 68.0156 306.212H66.0195C65.9284 305.642 65.7256 305.225 65.4111 304.961C65.1012 304.697 64.6729 304.564 64.126 304.564C63.4287 304.564 62.8978 304.826 62.5332 305.351C62.1686 305.875 61.984 306.654 61.9795 307.688V308.324C61.9795 309.368 62.1777 310.156 62.5742 310.689C62.9707 311.223 63.5518 311.489 64.3174 311.489C65.0876 311.489 65.6367 311.325 65.9648 310.997V309.281H64.0986V307.771H68.0156V311.742ZM73.3682 309.356H71.7344V313H69.6836V303.047H73.3818C74.5576 303.047 75.4645 303.309 76.1025 303.833C76.7406 304.357 77.0596 305.098 77.0596 306.055C77.0596 306.734 76.9115 307.301 76.6152 307.757C76.3236 308.208 75.8792 308.568 75.2822 308.837L77.4355 312.904V313H75.2344L73.3682 309.356ZM71.7344 307.695H73.3887C73.9036 307.695 74.3024 307.565 74.585 307.306C74.8675 307.041 75.0088 306.679 75.0088 306.219C75.0088 305.749 74.8743 305.38 74.6055 305.111C74.3411 304.842 73.9333 304.708 73.3818 304.708H71.7344V307.695ZM84.2441 310.949H80.6484L79.9648 313H77.7842L81.4893 303.047H83.3896L87.1152 313H84.9346L84.2441 310.949ZM81.2021 309.288H83.6904L82.4395 305.562L81.2021 309.288ZM88.0449 313V303.047H91.1074C91.9824 303.047 92.764 303.245 93.4521 303.642C94.1449 304.034 94.6849 304.594 95.0723 305.323C95.4596 306.048 95.6533 306.873 95.6533 307.798V308.256C95.6533 309.181 95.4619 310.004 95.0791 310.724C94.7008 311.444 94.1654 312.002 93.4727 312.398C92.7799 312.795 91.9984 312.995 91.1279 313H88.0449ZM90.0957 304.708V311.353H91.0869C91.889 311.353 92.502 311.09 92.9258 310.566C93.3496 310.042 93.5661 309.293 93.5752 308.317V307.791C93.5752 306.779 93.3656 306.014 92.9463 305.494C92.527 304.97 91.9141 304.708 91.1074 304.708H90.0957ZM99.3311 313H97.2803V303.047H99.3311V313ZM109.332 313H107.281L103.289 306.451V313H101.238V303.047H103.289L107.288 309.609V303.047H109.332V313ZM118.998 311.742C118.629 312.184 118.107 312.528 117.433 312.774C116.758 313.016 116.011 313.137 115.19 313.137C114.329 313.137 113.573 312.95 112.921 312.576C112.274 312.198 111.772 311.651 111.417 310.936C111.066 310.22 110.886 309.379 110.877 308.413V307.736C110.877 306.743 111.043 305.884 111.376 305.159C111.713 304.43 112.196 303.874 112.825 303.491C113.459 303.104 114.199 302.91 115.047 302.91C116.227 302.91 117.15 303.193 117.815 303.758C118.481 304.318 118.875 305.136 118.998 306.212H117.002C116.911 305.642 116.708 305.225 116.394 304.961C116.084 304.697 115.655 304.564 115.108 304.564C114.411 304.564 113.88 304.826 113.516 305.351C113.151 305.875 112.966 306.654 112.962 307.688V308.324C112.962 309.368 113.16 310.156 113.557 310.689C113.953 311.223 114.534 311.489 115.3 311.489C116.07 311.489 116.619 311.325 116.947 310.997V309.281H115.081V307.771H118.998V311.742ZM120.639 312.029C120.639 311.715 120.743 311.46 120.953 311.264C121.167 311.068 121.434 310.97 121.753 310.97C122.076 310.97 122.343 311.068 122.553 311.264C122.767 311.46 122.874 311.715 122.874 312.029C122.874 312.339 122.769 312.592 122.56 312.788C122.35 312.979 122.081 313.075 121.753 313.075C121.429 313.075 121.163 312.979 120.953 312.788C120.743 312.592 120.639 312.339 120.639 312.029ZM124.713 312.029C124.713 311.715 124.818 311.46 125.027 311.264C125.242 311.068 125.508 310.97 125.827 310.97C126.151 310.97 126.417 311.068 126.627 311.264C126.841 311.46 126.948 311.715 126.948 312.029C126.948 312.339 126.843 312.592 126.634 312.788C126.424 312.979 126.155 313.075 125.827 313.075C125.504 313.075 125.237 312.979 125.027 312.788C124.818 312.592 124.713 312.339 124.713 312.029ZM128.787 312.029C128.787 311.715 128.892 311.46 129.102 311.264C129.316 311.068 129.582 310.97 129.901 310.97C130.225 310.97 130.492 311.068 130.701 311.264C130.915 311.46 131.022 311.715 131.022 312.029C131.022 312.339 130.918 312.592 130.708 312.788C130.498 312.979 130.229 313.075 129.901 313.075C129.578 313.075 129.311 312.979 129.102 312.788C128.892 312.592 128.787 312.339 128.787 312.029Z" fill="white"/>
<defs>
<filter id="filter0_i" x="25" y="286" width="361" height="43" filterUnits="userSpaceOnUse" color-interpolation-filters="sRGB">
<feFlood flood-opacity="0" result="BackgroundImageFix"/>
<feBlend mode="normal" in="SourceGraphic" in2="BackgroundImageFix" result="shape"/>
<feColorMatrix in="SourceAlpha" type="matrix" values="0 0 0 0 0 0 0 0 0 0 0 0 0 0 0 0 0 0 127 0" result="hardAlpha"/>
<feMorphology radius="4" operator="erode" in="SourceAlpha" result="effect1_innerShadow"/>
<feOffset/>
<feGaussianBlur stdDeviation="2"/>
<feComposite in2="hardAlpha" operator="arithmetic" k2="-1" k3="1"/>
<feColorMatrix type="matrix" values="0 0 0 0 0 0 0 0 0 0 0 0 0 0 0 0 0 0 0.25 0"/>
<feBlend mode="normal" in2="shape" result="effect1_innerShadow"/>
</filter>
<clipPath id="clip0">
<rect width="200" height="200" fill="white" transform="translate(111 61)"/>
</clipPath>
</defs>
</svg>
